solid Untitled-63bf8f3e
facet normal -0.0 -0.0 -1.0
  outer loop
    vertex 236.82816901408447 171.00281690140847 0.0
    vertex 185.312676056338 0.0 0.0
    vertex 185.312676056338 171.00281690140847 0.0
  endloop
endfacet
facet normal -0.0 -0.0 -1.0
  outer loop
    vertex 185.312676056338 0.0 0.0
    vertex 236.82816901408447 171.00281690140847 0.0
    vertex 236.82816901408447 0.0 0.0
  endloop
endfacet
facet normal 1.0 0.0 0.0
  outer loop
    vertex 236.82816901408447 171.00281690140847 0.0
    vertex 236.82816901408447 0.0 25.4
    vertex 236.82816901408447 0.0 0.0
  endloop
endfacet
facet normal 1.0 0.0 0.0
  outer loop
    vertex 236.82816901408447 0.0 25.4
    vertex 236.82816901408447 171.00281690140847 0.0
    vertex 236.82816901408447 171.00281690140847 25.4
  endloop
endfacet
facet normal 0.0 0.0 1.0
  outer loop
    vertex 185.312676056338 0.0 25.4
    vertex 188.48767605633802 3.175 25.4
    vertex 185.312676056338 171.00281690140847 25.4
  endloop
endfacet
facet normal 0.0 0.0 1.0
  outer loop
    vertex 188.48767605633802 3.175 25.4
    vertex 185.312676056338 0.0 25.4
    vertex 236.82816901408447 0.0 25.4
  endloop
endfacet
facet normal 0.0 0.0 1.0
  outer loop
    vertex 188.48767605633802 3.175 25.4
    vertex 236.82816901408447 0.0 25.4
    vertex 233.65316901408448 3.175 25.4
  endloop
endfacet
facet normal 0.0 0.0 1.0
  outer loop
    vertex 233.65316901408448 3.175 25.4
    vertex 236.82816901408447 0.0 25.4
    vertex 233.65316901408448 167.82781690140845 25.4
  endloop
endfacet
facet normal 0.0 0.0 1.0
  outer loop
    vertex 185.312676056338 171.00281690140847 25.4
    vertex 188.48767605633802 167.82781690140845 25.4
    vertex 236.82816901408447 171.00281690140847 25.4
  endloop
endfacet
facet normal 0.0 0.0 1.0
  outer loop
    vertex 188.48767605633802 167.82781690140845 25.4
    vertex 185.312676056338 171.00281690140847 25.4
    vertex 188.48767605633802 3.175 25.4
  endloop
endfacet
facet normal 0.0 0.0 1.0
  outer loop
    vertex 236.82816901408447 171.00281690140847 25.4
    vertex 188.48767605633802 167.82781690140845 25.4
    vertex 233.65316901408448 167.82781690140845 25.4
  endloop
endfacet
facet normal 0.0 0.0 1.0
  outer loop
    vertex 236.82816901408447 171.00281690140847 25.4
    vertex 233.65316901408448 167.82781690140845 25.4
    vertex 236.82816901408447 0.0 25.4
  endloop
endfacet
facet normal 0.0 1.0 0.0
  outer loop
    vertex 185.312676056338 171.00281690140847 25.4
    vertex 236.82816901408447 171.00281690140847 0.0
    vertex 185.312676056338 171.00281690140847 0.0
  endloop
endfacet
facet normal 0.0 1.0 0.0
  outer loop
    vertex 236.82816901408447 171.00281690140847 0.0
    vertex 185.312676056338 171.00281690140847 25.4
    vertex 236.82816901408447 171.00281690140847 25.4
  endloop
endfacet
facet normal 0.0 -1.0 0.0
  outer loop
    vertex 236.82816901408447 0.0 25.4
    vertex 185.312676056338 0.0 0.0
    vertex 236.82816901408447 0.0 0.0
  endloop
endfacet
facet normal 0.0 -1.0 0.0
  outer loop
    vertex 185.312676056338 0.0 0.0
    vertex 236.82816901408447 0.0 25.4
    vertex 185.312676056338 0.0 25.4
  endloop
endfacet
facet normal -1.0 0.0 0.0
  outer loop
    vertex 185.312676056338 171.00281690140847 25.4
    vertex 185.312676056338 0.0 0.0
    vertex 185.312676056338 0.0 25.4
  endloop
endfacet
facet normal -1.0 0.0 0.0
  outer loop
    vertex 185.312676056338 0.0 0.0
    vertex 185.312676056338 171.00281690140847 25.4
    vertex 185.312676056338 171.00281690140847 0.0
  endloop
endfacet
facet normal 0.0 1.0 0.0
  outer loop
    vertex 188.48767605633802 3.175 25.4
    vertex 233.65316901408448 3.175 22.224999999999998
    vertex 188.48767605633802 3.175 22.224999999999998
  endloop
endfacet
facet normal 0.0 1.0 0.0
  outer loop
    vertex 233.65316901408448 3.175 22.224999999999998
    vertex 188.48767605633802 3.175 25.4
    vertex 233.65316901408448 3.175 25.4
  endloop
endfacet
facet normal 0.0 0.0 1.0
  outer loop
    vertex 230.47816901408447 6.35 3.174999999999997
    vertex 191.66267605633803 164.65281690140847 3.174999999999997
    vertex 191.66267605633803 6.35 3.174999999999997
  endloop
endfacet
facet normal 0.0 0.0 1.0
  outer loop
    vertex 191.66267605633803 164.65281690140847 3.174999999999997
    vertex 230.47816901408447 6.35 3.174999999999997
    vertex 230.47816901408447 164.65281690140847 3.174999999999997
  endloop
endfacet
facet normal 1.0 0.0 0.0
  outer loop
    vertex 188.48767605633802 167.82781690140845 22.224999999999998
    vertex 188.48767605633802 3.175 25.4
    vertex 188.48767605633802 3.175 22.224999999999998
  endloop
endfacet
facet normal 1.0 0.0 0.0
  outer loop
    vertex 188.48767605633802 3.175 25.4
    vertex 188.48767605633802 167.82781690140845 22.224999999999998
    vertex 188.48767605633802 167.82781690140845 25.4
  endloop
endfacet
facet normal -0.0 -1.0 -0.0
  outer loop
    vertex 233.65316901408448 167.82781690140845 25.4
    vertex 188.48767605633802 167.82781690140845 22.224999999999998
    vertex 233.65316901408448 167.82781690140845 22.224999999999998
  endloop
endfacet
facet normal -0.0 -1.0 -0.0
  outer loop
    vertex 188.48767605633802 167.82781690140845 22.224999999999998
    vertex 233.65316901408448 167.82781690140845 25.4
    vertex 188.48767605633802 167.82781690140845 25.4
  endloop
endfacet
facet normal -1.0 -0.0 -0.0
  outer loop
    vertex 230.47816901408447 164.65281690140847 22.224999999999998
    vertex 230.47816901408447 6.35 3.174999999999997
    vertex 230.47816901408447 6.35 22.224999999999998
  endloop
endfacet
facet normal -1.0 -0.0 -0.0
  outer loop
    vertex 230.47816901408447 6.35 3.174999999999997
    vertex 230.47816901408447 164.65281690140847 22.224999999999998
    vertex 230.47816901408447 164.65281690140847 3.174999999999997
  endloop
endfacet
facet normal 0.0 1.0 0.0
  outer loop
    vertex 191.66267605633803 6.35 22.224999999999998
    vertex 230.47816901408447 6.35 3.174999999999997
    vertex 191.66267605633803 6.35 3.174999999999997
  endloop
endfacet
facet normal 0.0 1.0 0.0
  outer loop
    vertex 230.47816901408447 6.35 3.174999999999997
    vertex 191.66267605633803 6.35 22.224999999999998
    vertex 230.47816901408447 6.35 22.224999999999998
  endloop
endfacet
facet normal 0.0 -1.0 0.0
  outer loop
    vertex 230.47816901408447 164.65281690140847 22.224999999999998
    vertex 191.66267605633803 164.65281690140847 3.174999999999997
    vertex 230.47816901408447 164.65281690140847 3.174999999999997
  endloop
endfacet
facet normal 0.0 -1.0 0.0
  outer loop
    vertex 191.66267605633803 164.65281690140847 3.174999999999997
    vertex 230.47816901408447 164.65281690140847 22.224999999999998
    vertex 191.66267605633803 164.65281690140847 22.224999999999998
  endloop
endfacet
facet normal 0.0 0.0 1.0
  outer loop
    vertex 188.48767605633802 3.175 22.224999999999998
    vertex 191.66267605633803 6.35 22.224999999999998
    vertex 188.48767605633802 167.82781690140845 22.224999999999998
  endloop
endfacet
facet normal 0.0 0.0 1.0
  outer loop
    vertex 191.66267605633803 6.35 22.224999999999998
    vertex 188.48767605633802 3.175 22.224999999999998
    vertex 233.65316901408448 3.175 22.224999999999998
  endloop
endfacet
facet normal 0.0 0.0 1.0
  outer loop
    vertex 191.66267605633803 6.35 22.224999999999998
    vertex 233.65316901408448 3.175 22.224999999999998
    vertex 230.47816901408447 6.35 22.224999999999998
  endloop
endfacet
facet normal 0.0 0.0 1.0
  outer loop
    vertex 230.47816901408447 6.35 22.224999999999998
    vertex 233.65316901408448 3.175 22.224999999999998
    vertex 230.47816901408447 164.65281690140847 22.224999999999998
  endloop
endfacet
facet normal 0.0 0.0 1.0
  outer loop
    vertex 188.48767605633802 167.82781690140845 22.224999999999998
    vertex 191.66267605633803 164.65281690140847 22.224999999999998
    vertex 233.65316901408448 167.82781690140845 22.224999999999998
  endloop
endfacet
facet normal 0.0 0.0 1.0
  outer loop
    vertex 191.66267605633803 164.65281690140847 22.224999999999998
    vertex 188.48767605633802 167.82781690140845 22.224999999999998
    vertex 191.66267605633803 6.35 22.224999999999998
  endloop
endfacet
facet normal 0.0 0.0 1.0
  outer loop
    vertex 233.65316901408448 167.82781690140845 22.224999999999998
    vertex 191.66267605633803 164.65281690140847 22.224999999999998
    vertex 230.47816901408447 164.65281690140847 22.224999999999998
  endloop
endfacet
facet normal 0.0 0.0 1.0
  outer loop
    vertex 233.65316901408448 167.82781690140845 22.224999999999998
    vertex 230.47816901408447 164.65281690140847 22.224999999999998
    vertex 233.65316901408448 3.175 22.224999999999998
  endloop
endfacet
facet normal -1.0 0.0 0.0
  outer loop
    vertex 233.65316901408448 167.82781690140845 25.4
    vertex 233.65316901408448 3.175 22.224999999999998
    vertex 233.65316901408448 3.175 25.4
  endloop
endfacet
facet normal -1.0 0.0 0.0
  outer loop
    vertex 233.65316901408448 3.175 22.224999999999998
    vertex 233.65316901408448 167.82781690140845 25.4
    vertex 233.65316901408448 167.82781690140845 22.224999999999998
  endloop
endfacet
facet normal 1.0 0.0 0.0
  outer loop
    vertex 191.66267605633803 164.65281690140847 3.174999999999997
    vertex 191.66267605633803 6.35 22.224999999999998
    vertex 191.66267605633803 6.35 3.174999999999997
  endloop
endfacet
facet normal 1.0 0.0 0.0
  outer loop
    vertex 191.66267605633803 6.35 22.224999999999998
    vertex 191.66267605633803 164.65281690140847 3.174999999999997
    vertex 191.66267605633803 164.65281690140847 22.224999999999998
  endloop
endfacet
endsolid Untitled-63bf8f3e
