solid Heat Sink Bracket
facet normal 0.0 0.0 -1.0
  outer loop
    vertex -3.96166032336885 96.99434758303225 2.1149748619109232e-14
    vertex -4.183721240087199 94.15099160523197 2.1149748619109232e-14
    vertex -4.333253485156557 96.8682087016989 2.1149748619109232e-14
  endloop
endfacet
facet normal 0.0 0.0 -1.0
  outer loop
    vertex -4.183721240087199 94.15099160523197 2.1149748619109232e-14
    vertex -3.96166032336885 96.99434758303225 2.1149748619109232e-14
    vertex -4.135612241589781 94.40757272629398 2.1149748619109232e-14
  endloop
endfacet
facet normal 0.0 0.0 -1.0
  outer loop
    vertex -4.135612241589781 94.40757272629398 2.1149748619109232e-14
    vertex -3.96166032336885 96.99434758303225 2.1149748619109232e-14
    vertex -4.022734436719619 94.64295953261403 2.1149748619109232e-14
  endloop
endfacet
facet normal 0.0 0.0 -1.0
  outer loop
    vertex -4.022734436719619 94.64295953261403 2.1149748619109232e-14
    vertex -3.96166032336885 96.99434758303225 2.1149748619109232e-14
    vertex -3.852780261339222 94.84111080233652 2.1149748619109232e-14
  endloop
endfacet
facet normal 0.0 0.0 -1.0
  outer loop
    vertex -3.852780261339222 94.84111080233652 2.1149748619109232e-14
    vertex -3.96166032336885 96.99434758303225 2.1149748619109232e-14
    vertex -3.5767817647214426 97.07090468828648 2.1149748619109232e-14
  endloop
endfacet
facet normal 0.0 0.0 -1.0
  outer loop
    vertex -3.852780261339222 94.84111080233652 2.1149748619109232e-14
    vertex -3.5767817647214426 97.07090468828648 2.1149748619109232e-14
    vertex -3.6373318116382083 94.9885228538903 2.1149748619109232e-14
  endloop
endfacet
facet normal 0.0 0.0 -1.0
  outer loop
    vertex -3.6373318116382083 94.9885228538903 2.1149748619109232e-14
    vertex -3.5767817647214426 97.07090468828648 2.1149748619109232e-14
    vertex -3.3910715434183056 95.07514979957192 2.1149748619109232e-14
  endloop
endfacet
facet normal 0.0 0.0 -1.0
  outer loop
    vertex -3.3910715434183056 95.07514979957192 2.1149748619109232e-14
    vertex -3.5767817647214426 97.07090468828648 2.1149748619109232e-14
    vertex -3.1852031880612874 97.09657010416505 2.1149748619109232e-14
  endloop
endfacet
facet normal 0.0 0.0 -1.0
  outer loop
    vertex -3.3910715434183056 95.07514979957192 2.1149748619109232e-14
    vertex -3.1852031880612874 97.09657010416505 2.1149748619109232e-14
    vertex -3.1307816869943665 95.09508815619095 2.1149748619109232e-14
  endloop
endfacet
facet normal 0.0 0.0 -1.0
  outer loop
    vertex -3.1307816869943665 95.09508815619095 2.1149748619109232e-14
    vertex -3.1852031880612874 97.09657010416505 2.1149748619109232e-14
    vertex -2.7936246114011327 97.07090468828648 2.1149748619109232e-14
  endloop
endfacet
facet normal 0.0 0.0 -1.0
  outer loop
    vertex -3.1307816869943665 95.09508815619095 2.1149748619109232e-14
    vertex -2.7936246114011327 97.07090468828648 2.1149748619109232e-14
    vertex -2.8742005659323544 95.04697915769354 2.1149748619109232e-14
  endloop
endfacet
facet normal 0.0 0.0 -1.0
  outer loop
    vertex -2.8742005659323544 95.04697915769354 2.1149748619109232e-14
    vertex -2.7936246114011327 97.07090468828648 2.1149748619109232e-14
    vertex -2.6388137596122956 94.93410135282338 2.1149748619109232e-14
  endloop
endfacet
facet normal 0.0 0.0 -1.0
  outer loop
    vertex -2.6388137596122956 94.93410135282338 2.1149748619109232e-14
    vertex -2.7936246114011327 97.07090468828648 2.1149748619109232e-14
    vertex -2.4087460527537248 96.99434758303225 2.1149748619109232e-14
  endloop
endfacet
facet normal 0.0 0.0 -1.0
  outer loop
    vertex -2.6388137596122956 94.93410135282338 2.1149748619109232e-14
    vertex -2.4087460527537248 96.99434758303225 2.1149748619109232e-14
    vertex -2.440662489889812 94.76414717744298 2.1149748619109232e-14
  endloop
endfacet
facet normal 0.0 0.0 -1.0
  outer loop
    vertex -2.440662489889812 94.76414717744298 2.1149748619109232e-14
    vertex -2.4087460527537248 96.99434758303225 2.1149748619109232e-14
    vertex -2.293250438336034 94.54869872774196 2.1149748619109232e-14
  endloop
endfacet
facet normal 0.0 0.0 -1.0
  outer loop
    vertex -2.293250438336034 94.54869872774196 2.1149748619109232e-14
    vertex -2.4087460527537248 96.99434758303225 2.1149748619109232e-14
    vertex -2.0371528909660173 96.8682087016989 2.1149748619109232e-14
  endloop
endfacet
facet normal 0.0 0.0 -1.0
  outer loop
    vertex -2.293250438336034 94.54869872774196 2.1149748619109232e-14
    vertex -2.0371528909660173 96.8682087016989 2.1149748619109232e-14
    vertex -2.2066234926544204 94.30243845952207 2.1149748619109232e-14
  endloop
endfacet
facet normal 0.0 0.0 -1.0
  outer loop
    vertex -2.2066234926544204 94.30243845952207 2.1149748619109232e-14
    vertex -2.0371528909660173 96.8682087016989 2.1149748619109232e-14
    vertex -2.186685136035374 94.04214860309813 2.1149748619109232e-14
  endloop
endfacet
facet normal 0.0 0.0 -1.0
  outer loop
    vertex -2.186685136035374 94.04214860309813 2.1149748619109232e-14
    vertex -2.0371528909660173 96.8682087016989 2.1149748619109232e-14
    vertex -2.0371528909660266 91.32493150663119 2.1149748619109232e-14
  endloop
endfacet
facet normal 0.0 0.0 -1.0
  outer loop
    vertex -2.0371528909660266 91.32493150663119 2.1149748619109232e-14
    vertex -2.0371528909660173 96.8682087016989 2.1149748619109232e-14
    vertex -1.6852031880612963 91.49849389281172 2.1149748619109232e-14
  endloop
endfacet
facet normal 0.0 0.0 -1.0
  outer loop
    vertex -1.6852031880612963 91.49849389281172 2.1149748619109232e-14
    vertex -2.0371528909660173 96.8682087016989 2.1149748619109232e-14
    vertex -1.6852031880612865 96.69464631551837 2.1149748619109232e-14
  endloop
endfacet
facet normal 0.0 0.0 -1.0
  outer loop
    vertex -1.6852031880612963 91.49849389281172 2.1149748619109232e-14
    vertex -1.6852031880612865 96.69464631551837 2.1149748619109232e-14
    vertex -1.3589189010351341 91.71651008329134 2.1149748619109232e-14
  endloop
endfacet
facet normal 0.0 0.0 -1.0
  outer loop
    vertex -1.3589189010351341 91.71651008329134 2.1149748619109232e-14
    vertex -1.6852031880612865 96.69464631551837 2.1149748619109232e-14
    vertex -1.3589189010351248 96.47663012503875 2.1149748619109232e-14
  endloop
endfacet
facet normal 0.0 0.0 -1.0
  outer loop
    vertex -1.3589189010351341 91.71651008329134 2.1149748619109232e-14
    vertex -1.3589189010351248 96.47663012503875 2.1149748619109232e-14
    vertex -1.0638828445016528 91.9752497606054 2.1149748619109232e-14
  endloop
endfacet
facet normal 0.0 0.0 -1.0
  outer loop
    vertex -1.0638828445016528 91.9752497606054 2.1149748619109232e-14
    vertex -1.3589189010351248 96.47663012503875 2.1149748619109232e-14
    vertex -1.0638828445016444 96.21789044772468 2.1149748619109232e-14
  endloop
endfacet
facet normal 0.0 0.0 -1.0
  outer loop
    vertex -1.0638828445016528 91.9752497606054 2.1149748619109232e-14
    vertex -1.0638828445016444 96.21789044772468 2.1149748619109232e-14
    vertex -0.8051431671875887 92.27028581713888 2.1149748619109232e-14
  endloop
endfacet
facet normal 0.0 0.0 -1.0
  outer loop
    vertex -0.8051431671875887 92.27028581713888 2.1149748619109232e-14
    vertex -1.0638828445016444 96.21789044772468 2.1149748619109232e-14
    vertex -0.8051431671875816 95.92285439119121 2.1149748619109232e-14
  endloop
endfacet
facet normal 0.0 0.0 -1.0
  outer loop
    vertex -0.8051431671875887 92.27028581713888 2.1149748619109232e-14
    vertex -0.8051431671875816 95.92285439119121 2.1149748619109232e-14
    vertex -0.5871269767079775 92.59657010416504 2.1149748619109232e-14
  endloop
endfacet
facet normal 0.0 0.0 -1.0
  outer loop
    vertex -0.5871269767079775 92.59657010416504 2.1149748619109232e-14
    vertex -0.8051431671875816 95.92285439119121 2.1149748619109232e-14
    vertex -0.5871269767079704 95.59657010416505 2.1149748619109232e-14
  endloop
endfacet
facet normal 0.0 0.0 -1.0
  outer loop
    vertex -0.5871269767079775 92.59657010416504 2.1149748619109232e-14
    vertex -0.5871269767079704 95.59657010416505 2.1149748619109232e-14
    vertex -0.413564590527432 92.94851980706976 2.1149748619109232e-14
  endloop
endfacet
facet normal 0.0 0.0 -1.0
  outer loop
    vertex -0.413564590527432 92.94851980706976 2.1149748619109232e-14
    vertex -0.5871269767079704 95.59657010416505 2.1149748619109232e-14
    vertex -0.4135645905274264 95.24462040126032 2.1149748619109232e-14
  endloop
endfacet
facet normal 0.0 0.0 -1.0
  outer loop
    vertex -0.413564590527432 92.94851980706976 2.1149748619109232e-14
    vertex -0.4135645905274264 95.24462040126032 2.1149748619109232e-14
    vertex -0.2874257091940859 93.32011296885747 2.1149748619109232e-14
  endloop
endfacet
facet normal 0.0 0.0 -1.0
  outer loop
    vertex -0.2874257091940859 93.32011296885747 2.1149748619109232e-14
    vertex -0.4135645905274264 95.24462040126032 2.1149748619109232e-14
    vertex -0.28742570919408167 94.8730272394726 2.1149748619109232e-14
  endloop
endfacet
facet normal 0.0 0.0 -1.0
  outer loop
    vertex -0.2874257091940859 93.32011296885747 2.1149748619109232e-14
    vertex -0.28742570919408167 94.8730272394726 2.1149748619109232e-14
    vertex -0.21086860393985718 93.70499152750487 2.1149748619109232e-14
  endloop
endfacet
facet normal 0.0 0.0 -1.0
  outer loop
    vertex -0.21086860393985718 93.70499152750487 2.1149748619109232e-14
    vertex -0.28742570919408167 94.8730272394726 2.1149748619109232e-14
    vertex -0.21086860393985576 94.48814868082519 2.1149748619109232e-14
  endloop
endfacet
facet normal 0.0 0.0 -1.0
  outer loop
    vertex -0.21086860393985718 93.70499152750487 2.1149748619109232e-14
    vertex -0.21086860393985576 94.48814868082519 2.1149748619109232e-14
    vertex -0.1852031880612871 94.09657010416504 2.1149748619109232e-14
  endloop
endfacet
facet normal 0.0 0.0 -1.0
  outer loop
    vertex -6.159537772182718 94.48814868082519 2.1149748619109232e-14
    vertex -6.159537772182718 93.7049915275049 2.1149748619109232e-14
    vertex -6.185203188061287 94.09657010416505 2.1149748619109232e-14
  endloop
endfacet
facet normal 0.0 0.0 -1.0
  outer loop
    vertex -6.159537772182718 93.7049915275049 2.1149748619109232e-14
    vertex -6.159537772182718 94.48814868082519 2.1149748619109232e-14
    vertex -6.082980666928492 93.32011296885749 2.1149748619109232e-14
  endloop
endfacet
facet normal 0.0 0.0 -1.0
  outer loop
    vertex -6.082980666928492 93.32011296885749 2.1149748619109232e-14
    vertex -6.159537772182718 94.48814868082519 2.1149748619109232e-14
    vertex -6.082980666928491 94.8730272394726 2.1149748619109232e-14
  endloop
endfacet
facet normal 0.0 0.0 -1.0
  outer loop
    vertex -6.082980666928492 93.32011296885749 2.1149748619109232e-14
    vertex -6.082980666928491 94.8730272394726 2.1149748619109232e-14
    vertex -5.956841785595149 92.94851980706979 2.1149748619109232e-14
  endloop
endfacet
facet normal 0.0 0.0 -1.0
  outer loop
    vertex -5.956841785595149 92.94851980706979 2.1149748619109232e-14
    vertex -6.082980666928491 94.8730272394726 2.1149748619109232e-14
    vertex -5.956841785595146 95.24462040126032 2.1149748619109232e-14
  endloop
endfacet
facet normal 0.0 0.0 -1.0
  outer loop
    vertex -5.956841785595149 92.94851980706979 2.1149748619109232e-14
    vertex -5.956841785595146 95.24462040126032 2.1149748619109232e-14
    vertex -5.783279399414605 92.59657010416505 2.1149748619109232e-14
  endloop
endfacet
facet normal 0.0 0.0 -1.0
  outer loop
    vertex -5.783279399414605 92.59657010416505 2.1149748619109232e-14
    vertex -5.956841785595146 95.24462040126032 2.1149748619109232e-14
    vertex -5.783279399414602 95.59657010416505 2.1149748619109232e-14
  endloop
endfacet
facet normal 0.0 0.0 -1.0
  outer loop
    vertex -5.783279399414605 92.59657010416505 2.1149748619109232e-14
    vertex -5.783279399414602 95.59657010416505 2.1149748619109232e-14
    vertex -5.565263208934995 92.27028581713888 2.1149748619109232e-14
  endloop
endfacet
facet normal 0.0 0.0 -1.0
  outer loop
    vertex -5.565263208934995 92.27028581713888 2.1149748619109232e-14
    vertex -5.783279399414602 95.59657010416505 2.1149748619109232e-14
    vertex -5.565263208934992 95.92285439119121 2.1149748619109232e-14
  endloop
endfacet
facet normal 0.0 0.0 -1.0
  outer loop
    vertex -5.565263208934995 92.27028581713888 2.1149748619109232e-14
    vertex -5.565263208934992 95.92285439119121 2.1149748619109232e-14
    vertex -5.306523531620933 91.97524976060541 2.1149748619109232e-14
  endloop
endfacet
facet normal 0.0 0.0 -1.0
  outer loop
    vertex -5.306523531620933 91.97524976060541 2.1149748619109232e-14
    vertex -5.565263208934992 95.92285439119121 2.1149748619109232e-14
    vertex -5.30652353162093 96.21789044772468 2.1149748619109232e-14
  endloop
endfacet
facet normal 0.0 0.0 -1.0
  outer loop
    vertex -5.306523531620933 91.97524976060541 2.1149748619109232e-14
    vertex -5.30652353162093 96.21789044772468 2.1149748619109232e-14
    vertex -5.011487475087454 91.71651008329134 2.1149748619109232e-14
  endloop
endfacet
facet normal 0.0 0.0 -1.0
  outer loop
    vertex -5.011487475087454 91.71651008329134 2.1149748619109232e-14
    vertex -5.30652353162093 96.21789044772468 2.1149748619109232e-14
    vertex -5.011487475087449 96.47663012503875 2.1149748619109232e-14
  endloop
endfacet
facet normal 0.0 0.0 -1.0
  outer loop
    vertex -5.011487475087454 91.71651008329134 2.1149748619109232e-14
    vertex -5.011487475087449 96.47663012503875 2.1149748619109232e-14
    vertex -4.685203188061292 91.49849389281172 2.1149748619109232e-14
  endloop
endfacet
facet normal 0.0 0.0 -1.0
  outer loop
    vertex -4.685203188061292 91.49849389281172 2.1149748619109232e-14
    vertex -5.011487475087449 96.47663012503875 2.1149748619109232e-14
    vertex -4.685203188061287 96.69464631551837 2.1149748619109232e-14
  endloop
endfacet
facet normal 0.0 0.0 -1.0
  outer loop
    vertex -4.685203188061292 91.49849389281172 2.1149748619109232e-14
    vertex -4.685203188061287 96.69464631551837 2.1149748619109232e-14
    vertex -4.333253485156563 91.32493150663119 2.1149748619109232e-14
  endloop
endfacet
facet normal 0.0 0.0 -1.0
  outer loop
    vertex -4.333253485156563 91.32493150663119 2.1149748619109232e-14
    vertex -4.685203188061287 96.69464631551837 2.1149748619109232e-14
    vertex -4.333253485156557 96.8682087016989 2.1149748619109232e-14
  endloop
endfacet
facet normal 0.0 0.0 -1.0
  outer loop
    vertex -4.333253485156563 91.32493150663119 2.1149748619109232e-14
    vertex -4.333253485156557 96.8682087016989 2.1149748619109232e-14
    vertex -4.183721240087199 94.15099160523197 2.1149748619109232e-14
  endloop
endfacet
facet normal 0.0 0.0 -1.0
  outer loop
    vertex -4.333253485156563 91.32493150663119 2.1149748619109232e-14
    vertex -4.183721240087199 94.15099160523197 2.1149748619109232e-14
    vertex -3.9616603233688568 91.19879262529784 2.1149748619109232e-14
  endloop
endfacet
facet normal 0.0 0.0 -1.0
  outer loop
    vertex -3.9616603233688568 91.19879262529784 2.1149748619109232e-14
    vertex -4.183721240087199 94.15099160523197 2.1149748619109232e-14
    vertex -4.163782883468154 93.89070174880803 2.1149748619109232e-14
  endloop
endfacet
facet normal 0.0 0.0 -1.0
  outer loop
    vertex -3.9616603233688568 91.19879262529784 2.1149748619109232e-14
    vertex -4.163782883468154 93.89070174880803 2.1149748619109232e-14
    vertex -4.077155937786539 93.64444148058813 2.1149748619109232e-14
  endloop
endfacet
facet normal 0.0 0.0 -1.0
  outer loop
    vertex -3.9616603233688568 91.19879262529784 2.1149748619109232e-14
    vertex -4.077155937786539 93.64444148058813 2.1149748619109232e-14
    vertex -3.9297438862327625 93.42899303088711 2.1149748619109232e-14
  endloop
endfacet
facet normal 0.0 0.0 -1.0
  outer loop
    vertex -3.9616603233688568 91.19879262529784 2.1149748619109232e-14
    vertex -3.9297438862327625 93.42899303088711 2.1149748619109232e-14
    vertex -3.5767817647214497 91.12223552004362 2.1149748619109232e-14
  endloop
endfacet
facet normal 0.0 0.0 -1.0
  outer loop
    vertex -3.5767817647214497 91.12223552004362 2.1149748619109232e-14
    vertex -3.9297438862327625 93.42899303088711 2.1149748619109232e-14
    vertex -3.7315926165102784 93.25903885550672 2.1149748619109232e-14
  endloop
endfacet
facet normal 0.0 0.0 -1.0
  outer loop
    vertex -3.5767817647214497 91.12223552004362 2.1149748619109232e-14
    vertex -3.7315926165102784 93.25903885550672 2.1149748619109232e-14
    vertex -3.4962058101902196 93.14616105063655 2.1149748619109232e-14
  endloop
endfacet
facet normal 0.0 0.0 -1.0
  outer loop
    vertex -3.5767817647214497 91.12223552004362 2.1149748619109232e-14
    vertex -3.4962058101902196 93.14616105063655 2.1149748619109232e-14
    vertex -3.185203188061296 91.09657010416505 2.1149748619109232e-14
  endloop
endfacet
facet normal 0.0 0.0 -1.0
  outer loop
    vertex -3.185203188061296 91.09657010416505 2.1149748619109232e-14
    vertex -3.4962058101902196 93.14616105063655 2.1149748619109232e-14
    vertex -3.239624689128207 93.09805205213912 2.1149748619109232e-14
  endloop
endfacet
facet normal 0.0 0.0 -1.0
  outer loop
    vertex -3.185203188061296 91.09657010416505 2.1149748619109232e-14
    vertex -3.239624689128207 93.09805205213912 2.1149748619109232e-14
    vertex -2.979334832704268 93.11799040875817 2.1149748619109232e-14
  endloop
endfacet
facet normal 0.0 0.0 -1.0
  outer loop
    vertex -3.185203188061296 91.09657010416505 2.1149748619109232e-14
    vertex -2.979334832704268 93.11799040875817 2.1149748619109232e-14
    vertex -2.793624611401141 91.12223552004362 2.1149748619109232e-14
  endloop
endfacet
facet normal 0.0 0.0 -1.0
  outer loop
    vertex -2.793624611401141 91.12223552004362 2.1149748619109232e-14
    vertex -2.979334832704268 93.11799040875817 2.1149748619109232e-14
    vertex -2.733074564484366 93.20461735443979 2.1149748619109232e-14
  endloop
endfacet
facet normal 0.0 0.0 -1.0
  outer loop
    vertex -2.793624611401141 91.12223552004362 2.1149748619109232e-14
    vertex -2.733074564484366 93.20461735443979 2.1149748619109232e-14
    vertex -2.4087460527537337 91.19879262529784 2.1149748619109232e-14
  endloop
endfacet
facet normal 0.0 0.0 -1.0
  outer loop
    vertex -2.4087460527537337 91.19879262529784 2.1149748619109232e-14
    vertex -2.733074564484366 93.20461735443979 2.1149748619109232e-14
    vertex -2.517626114783352 93.35202940599358 2.1149748619109232e-14
  endloop
endfacet
facet normal 0.0 0.0 -1.0
  outer loop
    vertex -2.4087460527537337 91.19879262529784 2.1149748619109232e-14
    vertex -2.517626114783352 93.35202940599358 2.1149748619109232e-14
    vertex -2.3476719394029546 93.55018067571606 2.1149748619109232e-14
  endloop
endfacet
facet normal 0.0 0.0 -1.0
  outer loop
    vertex -2.4087460527537337 91.19879262529784 2.1149748619109232e-14
    vertex -2.3476719394029546 93.55018067571606 2.1149748619109232e-14
    vertex -2.0371528909660266 91.32493150663119 2.1149748619109232e-14
  endloop
endfacet
facet normal 0.0 0.0 -1.0
  outer loop
    vertex -2.0371528909660266 91.32493150663119 2.1149748619109232e-14
    vertex -2.3476719394029546 93.55018067571606 2.1149748619109232e-14
    vertex -2.2347941345327924 93.78556748203611 2.1149748619109232e-14
  endloop
endfacet
facet normal 0.0 0.0 -1.0
  outer loop
    vertex -2.0371528909660266 91.32493150663119 2.1149748619109232e-14
    vertex -2.2347941345327924 93.78556748203611 2.1149748619109232e-14
    vertex -2.186685136035374 94.04214860309813 2.1149748619109232e-14
  endloop
endfacet
facet normal 0.0 0.0 1.0
  outer loop
    vertex -6.159537772182718 93.7049915275049 25.00000000000002
    vertex -6.159537772182718 94.48814868082519 25.00000000000002
    vertex -6.185203188061287 94.09657010416505 25.00000000000002
  endloop
endfacet
facet normal 0.0 0.0 1.0
  outer loop
    vertex -6.159537772182718 94.48814868082519 25.00000000000002
    vertex -6.159537772182718 93.7049915275049 25.00000000000002
    vertex -6.082980666928492 93.32011296885749 25.00000000000002
  endloop
endfacet
facet normal 0.0 0.0 1.0
  outer loop
    vertex -6.159537772182718 94.48814868082519 25.00000000000002
    vertex -6.082980666928492 93.32011296885749 25.00000000000002
    vertex -6.082980666928491 94.8730272394726 25.00000000000002
  endloop
endfacet
facet normal 0.0 0.0 1.0
  outer loop
    vertex -6.082980666928491 94.8730272394726 25.00000000000002
    vertex -6.082980666928492 93.32011296885749 25.00000000000002
    vertex -5.956841785595149 92.94851980706979 25.00000000000002
  endloop
endfacet
facet normal 0.0 0.0 1.0
  outer loop
    vertex -6.082980666928491 94.8730272394726 25.00000000000002
    vertex -5.956841785595149 92.94851980706979 25.00000000000002
    vertex -5.956841785595146 95.24462040126032 25.00000000000002
  endloop
endfacet
facet normal 0.0 0.0 1.0
  outer loop
    vertex -5.956841785595146 95.24462040126032 25.00000000000002
    vertex -5.956841785595149 92.94851980706979 25.00000000000002
    vertex -5.783279399414605 92.59657010416505 25.00000000000002
  endloop
endfacet
facet normal 0.0 0.0 1.0
  outer loop
    vertex -5.956841785595146 95.24462040126032 25.00000000000002
    vertex -5.783279399414605 92.59657010416505 25.00000000000002
    vertex -5.783279399414602 95.59657010416505 25.00000000000002
  endloop
endfacet
facet normal 0.0 0.0 1.0
  outer loop
    vertex -5.783279399414602 95.59657010416505 25.00000000000002
    vertex -5.783279399414605 92.59657010416505 25.00000000000002
    vertex -5.565263208934995 92.27028581713888 25.00000000000002
  endloop
endfacet
facet normal 0.0 0.0 1.0
  outer loop
    vertex -5.783279399414602 95.59657010416505 25.00000000000002
    vertex -5.565263208934995 92.27028581713888 25.00000000000002
    vertex -5.565263208934992 95.92285439119121 25.00000000000002
  endloop
endfacet
facet normal 0.0 0.0 1.0
  outer loop
    vertex -5.565263208934992 95.92285439119121 25.00000000000002
    vertex -5.565263208934995 92.27028581713888 25.00000000000002
    vertex -5.306523531620933 91.97524976060541 25.00000000000002
  endloop
endfacet
facet normal 0.0 0.0 1.0
  outer loop
    vertex -5.565263208934992 95.92285439119121 25.00000000000002
    vertex -5.306523531620933 91.97524976060541 25.00000000000002
    vertex -5.30652353162093 96.21789044772468 25.00000000000002
  endloop
endfacet
facet normal 0.0 0.0 1.0
  outer loop
    vertex -5.30652353162093 96.21789044772468 25.00000000000002
    vertex -5.306523531620933 91.97524976060541 25.00000000000002
    vertex -5.011487475087454 91.71651008329134 25.00000000000002
  endloop
endfacet
facet normal 0.0 0.0 1.0
  outer loop
    vertex -5.30652353162093 96.21789044772468 25.00000000000002
    vertex -5.011487475087454 91.71651008329134 25.00000000000002
    vertex -5.011487475087449 96.47663012503875 25.00000000000002
  endloop
endfacet
facet normal 0.0 0.0 1.0
  outer loop
    vertex -5.011487475087449 96.47663012503875 25.00000000000002
    vertex -5.011487475087454 91.71651008329134 25.00000000000002
    vertex -4.685203188061292 91.49849389281172 25.00000000000002
  endloop
endfacet
facet normal 0.0 0.0 1.0
  outer loop
    vertex -5.011487475087449 96.47663012503875 25.00000000000002
    vertex -4.685203188061292 91.49849389281172 25.00000000000002
    vertex -4.685203188061287 96.69464631551837 25.00000000000002
  endloop
endfacet
facet normal 0.0 0.0 1.0
  outer loop
    vertex -4.685203188061287 96.69464631551837 25.00000000000002
    vertex -4.685203188061292 91.49849389281172 25.00000000000002
    vertex -4.333253485156563 91.32493150663119 25.00000000000002
  endloop
endfacet
facet normal 0.0 0.0 1.0
  outer loop
    vertex -4.685203188061287 96.69464631551837 25.00000000000002
    vertex -4.333253485156563 91.32493150663119 25.00000000000002
    vertex -4.333253485156557 96.8682087016989 25.00000000000002
  endloop
endfacet
facet normal 0.0 0.0 1.0
  outer loop
    vertex -4.333253485156557 96.8682087016989 25.00000000000002
    vertex -4.333253485156563 91.32493150663119 25.00000000000002
    vertex -4.183721240087199 94.15099160523197 25.00000000000002
  endloop
endfacet
facet normal 0.0 0.0 1.0
  outer loop
    vertex -4.183721240087199 94.15099160523197 25.00000000000002
    vertex -4.333253485156563 91.32493150663119 25.00000000000002
    vertex -3.9616603233688568 91.19879262529784 25.00000000000002
  endloop
endfacet
facet normal 0.0 0.0 1.0
  outer loop
    vertex -4.183721240087199 94.15099160523197 25.00000000000002
    vertex -3.9616603233688568 91.19879262529784 25.00000000000002
    vertex -4.163782883468154 93.89070174880803 25.00000000000002
  endloop
endfacet
facet normal 0.0 0.0 1.0
  outer loop
    vertex -4.163782883468154 93.89070174880803 25.00000000000002
    vertex -3.9616603233688568 91.19879262529784 25.00000000000002
    vertex -4.077155937786539 93.64444148058813 25.00000000000002
  endloop
endfacet
facet normal 0.0 0.0 1.0
  outer loop
    vertex -4.077155937786539 93.64444148058813 25.00000000000002
    vertex -3.9616603233688568 91.19879262529784 25.00000000000002
    vertex -3.9297438862327625 93.42899303088711 25.00000000000002
  endloop
endfacet
facet normal 0.0 0.0 1.0
  outer loop
    vertex -3.9297438862327625 93.42899303088711 25.00000000000002
    vertex -3.9616603233688568 91.19879262529784 25.00000000000002
    vertex -3.5767817647214497 91.12223552004362 25.00000000000002
  endloop
endfacet
facet normal 0.0 0.0 1.0
  outer loop
    vertex -3.9297438862327625 93.42899303088711 25.00000000000002
    vertex -3.5767817647214497 91.12223552004362 25.00000000000002
    vertex -3.7315926165102784 93.25903885550672 25.00000000000002
  endloop
endfacet
facet normal 0.0 0.0 1.0
  outer loop
    vertex -3.7315926165102784 93.25903885550672 25.00000000000002
    vertex -3.5767817647214497 91.12223552004362 25.00000000000002
    vertex -3.4962058101902196 93.14616105063655 25.00000000000002
  endloop
endfacet
facet normal 0.0 0.0 1.0
  outer loop
    vertex -3.4962058101902196 93.14616105063655 25.00000000000002
    vertex -3.5767817647214497 91.12223552004362 25.00000000000002
    vertex -3.185203188061296 91.09657010416505 25.00000000000002
  endloop
endfacet
facet normal 0.0 0.0 1.0
  outer loop
    vertex -3.4962058101902196 93.14616105063655 25.00000000000002
    vertex -3.185203188061296 91.09657010416505 25.00000000000002
    vertex -3.239624689128207 93.09805205213912 25.00000000000002
  endloop
endfacet
facet normal 0.0 0.0 1.0
  outer loop
    vertex -3.239624689128207 93.09805205213912 25.00000000000002
    vertex -3.185203188061296 91.09657010416505 25.00000000000002
    vertex -2.979334832704268 93.11799040875817 25.00000000000002
  endloop
endfacet
facet normal 0.0 0.0 1.0
  outer loop
    vertex -2.979334832704268 93.11799040875817 25.00000000000002
    vertex -3.185203188061296 91.09657010416505 25.00000000000002
    vertex -2.793624611401141 91.12223552004362 25.00000000000002
  endloop
endfacet
facet normal 0.0 0.0 1.0
  outer loop
    vertex -2.979334832704268 93.11799040875817 25.00000000000002
    vertex -2.793624611401141 91.12223552004362 25.00000000000002
    vertex -2.733074564484366 93.20461735443979 25.00000000000002
  endloop
endfacet
facet normal 0.0 0.0 1.0
  outer loop
    vertex -2.733074564484366 93.20461735443979 25.00000000000002
    vertex -2.793624611401141 91.12223552004362 25.00000000000002
    vertex -2.4087460527537337 91.19879262529784 25.00000000000002
  endloop
endfacet
facet normal 0.0 0.0 1.0
  outer loop
    vertex -2.733074564484366 93.20461735443979 25.00000000000002
    vertex -2.4087460527537337 91.19879262529784 25.00000000000002
    vertex -2.517626114783352 93.35202940599358 25.00000000000002
  endloop
endfacet
facet normal 0.0 0.0 1.0
  outer loop
    vertex -2.517626114783352 93.35202940599358 25.00000000000002
    vertex -2.4087460527537337 91.19879262529784 25.00000000000002
    vertex -2.3476719394029546 93.55018067571606 25.00000000000002
  endloop
endfacet
facet normal 0.0 0.0 1.0
  outer loop
    vertex -2.3476719394029546 93.55018067571606 25.00000000000002
    vertex -2.4087460527537337 91.19879262529784 25.00000000000002
    vertex -2.0371528909660266 91.32493150663119 25.00000000000002
  endloop
endfacet
facet normal 0.0 0.0 1.0
  outer loop
    vertex -2.3476719394029546 93.55018067571606 25.00000000000002
    vertex -2.0371528909660266 91.32493150663119 25.00000000000002
    vertex -2.2347941345327924 93.78556748203611 25.00000000000002
  endloop
endfacet
facet normal 0.0 0.0 1.0
  outer loop
    vertex -2.2347941345327924 93.78556748203611 25.00000000000002
    vertex -2.0371528909660266 91.32493150663119 25.00000000000002
    vertex -2.186685136035374 94.04214860309813 25.00000000000002
  endloop
endfacet
facet normal 0.0 0.0 1.0
  outer loop
    vertex -4.183721240087199 94.15099160523197 25.00000000000002
    vertex -3.96166032336885 96.99434758303225 25.00000000000002
    vertex -4.333253485156557 96.8682087016989 25.00000000000002
  endloop
endfacet
facet normal 0.0 0.0 1.0
  outer loop
    vertex -3.96166032336885 96.99434758303225 25.00000000000002
    vertex -4.183721240087199 94.15099160523197 25.00000000000002
    vertex -4.135612241589781 94.40757272629398 25.00000000000002
  endloop
endfacet
facet normal 0.0 0.0 1.0
  outer loop
    vertex -3.96166032336885 96.99434758303225 25.00000000000002
    vertex -4.135612241589781 94.40757272629398 25.00000000000002
    vertex -4.022734436719619 94.64295953261403 25.00000000000002
  endloop
endfacet
facet normal 0.0 0.0 1.0
  outer loop
    vertex -3.96166032336885 96.99434758303225 25.00000000000002
    vertex -4.022734436719619 94.64295953261403 25.00000000000002
    vertex -3.852780261339222 94.84111080233652 25.00000000000002
  endloop
endfacet
facet normal 0.0 0.0 1.0
  outer loop
    vertex -3.96166032336885 96.99434758303225 25.00000000000002
    vertex -3.852780261339222 94.84111080233652 25.00000000000002
    vertex -3.5767817647214426 97.07090468828648 25.00000000000002
  endloop
endfacet
facet normal 0.0 0.0 1.0
  outer loop
    vertex -3.5767817647214426 97.07090468828648 25.00000000000002
    vertex -3.852780261339222 94.84111080233652 25.00000000000002
    vertex -3.6373318116382083 94.9885228538903 25.00000000000002
  endloop
endfacet
facet normal 0.0 0.0 1.0
  outer loop
    vertex -3.5767817647214426 97.07090468828648 25.00000000000002
    vertex -3.6373318116382083 94.9885228538903 25.00000000000002
    vertex -3.3910715434183056 95.07514979957192 25.00000000000002
  endloop
endfacet
facet normal 0.0 0.0 1.0
  outer loop
    vertex -3.5767817647214426 97.07090468828648 25.00000000000002
    vertex -3.3910715434183056 95.07514979957192 25.00000000000002
    vertex -3.1852031880612874 97.09657010416505 25.00000000000002
  endloop
endfacet
facet normal 0.0 0.0 1.0
  outer loop
    vertex -3.1852031880612874 97.09657010416505 25.00000000000002
    vertex -3.3910715434183056 95.07514979957192 25.00000000000002
    vertex -3.1307816869943665 95.09508815619095 25.00000000000002
  endloop
endfacet
facet normal 0.0 0.0 1.0
  outer loop
    vertex -3.1852031880612874 97.09657010416505 25.00000000000002
    vertex -3.1307816869943665 95.09508815619095 25.00000000000002
    vertex -2.7936246114011327 97.07090468828648 25.00000000000002
  endloop
endfacet
facet normal 0.0 0.0 1.0
  outer loop
    vertex -2.7936246114011327 97.07090468828648 25.00000000000002
    vertex -3.1307816869943665 95.09508815619095 25.00000000000002
    vertex -2.8742005659323544 95.04697915769354 25.00000000000002
  endloop
endfacet
facet normal 0.0 0.0 1.0
  outer loop
    vertex -2.7936246114011327 97.07090468828648 25.00000000000002
    vertex -2.8742005659323544 95.04697915769354 25.00000000000002
    vertex -2.6388137596122956 94.93410135282338 25.00000000000002
  endloop
endfacet
facet normal 0.0 0.0 1.0
  outer loop
    vertex -2.7936246114011327 97.07090468828648 25.00000000000002
    vertex -2.6388137596122956 94.93410135282338 25.00000000000002
    vertex -2.4087460527537248 96.99434758303225 25.00000000000002
  endloop
endfacet
facet normal 0.0 0.0 1.0
  outer loop
    vertex -2.4087460527537248 96.99434758303225 25.00000000000002
    vertex -2.6388137596122956 94.93410135282338 25.00000000000002
    vertex -2.440662489889812 94.76414717744298 25.00000000000002
  endloop
endfacet
facet normal 0.0 0.0 1.0
  outer loop
    vertex -2.4087460527537248 96.99434758303225 25.00000000000002
    vertex -2.440662489889812 94.76414717744298 25.00000000000002
    vertex -2.293250438336034 94.54869872774196 25.00000000000002
  endloop
endfacet
facet normal 0.0 0.0 1.0
  outer loop
    vertex -2.4087460527537248 96.99434758303225 25.00000000000002
    vertex -2.293250438336034 94.54869872774196 25.00000000000002
    vertex -2.0371528909660173 96.8682087016989 25.00000000000002
  endloop
endfacet
facet normal 0.0 0.0 1.0
  outer loop
    vertex -2.0371528909660173 96.8682087016989 25.00000000000002
    vertex -2.293250438336034 94.54869872774196 25.00000000000002
    vertex -2.2066234926544204 94.30243845952207 25.00000000000002
  endloop
endfacet
facet normal 0.0 0.0 1.0
  outer loop
    vertex -2.0371528909660173 96.8682087016989 25.00000000000002
    vertex -2.2066234926544204 94.30243845952207 25.00000000000002
    vertex -2.186685136035374 94.04214860309813 25.00000000000002
  endloop
endfacet
facet normal 0.0 0.0 1.0
  outer loop
    vertex -2.0371528909660173 96.8682087016989 25.00000000000002
    vertex -2.186685136035374 94.04214860309813 25.00000000000002
    vertex -2.0371528909660266 91.32493150663119 25.00000000000002
  endloop
endfacet
facet normal 0.0 0.0 1.0
  outer loop
    vertex -2.0371528909660173 96.8682087016989 25.00000000000002
    vertex -2.0371528909660266 91.32493150663119 25.00000000000002
    vertex -1.6852031880612963 91.49849389281172 25.00000000000002
  endloop
endfacet
facet normal 0.0 0.0 1.0
  outer loop
    vertex -2.0371528909660173 96.8682087016989 25.00000000000002
    vertex -1.6852031880612963 91.49849389281172 25.00000000000002
    vertex -1.6852031880612865 96.69464631551837 25.00000000000002
  endloop
endfacet
facet normal 0.0 0.0 1.0
  outer loop
    vertex -1.6852031880612865 96.69464631551837 25.00000000000002
    vertex -1.6852031880612963 91.49849389281172 25.00000000000002
    vertex -1.3589189010351341 91.71651008329134 25.00000000000002
  endloop
endfacet
facet normal 0.0 0.0 1.0
  outer loop
    vertex -1.6852031880612865 96.69464631551837 25.00000000000002
    vertex -1.3589189010351341 91.71651008329134 25.00000000000002
    vertex -1.3589189010351248 96.47663012503875 25.00000000000002
  endloop
endfacet
facet normal 0.0 0.0 1.0
  outer loop
    vertex -1.3589189010351248 96.47663012503875 25.00000000000002
    vertex -1.3589189010351341 91.71651008329134 25.00000000000002
    vertex -1.0638828445016528 91.9752497606054 25.00000000000002
  endloop
endfacet
facet normal 0.0 0.0 1.0
  outer loop
    vertex -1.3589189010351248 96.47663012503875 25.00000000000002
    vertex -1.0638828445016528 91.9752497606054 25.00000000000002
    vertex -1.0638828445016444 96.21789044772468 25.00000000000002
  endloop
endfacet
facet normal 0.0 0.0 1.0
  outer loop
    vertex -1.0638828445016444 96.21789044772468 25.00000000000002
    vertex -1.0638828445016528 91.9752497606054 25.00000000000002
    vertex -0.8051431671875887 92.27028581713888 25.00000000000002
  endloop
endfacet
facet normal 0.0 0.0 1.0
  outer loop
    vertex -1.0638828445016444 96.21789044772468 25.00000000000002
    vertex -0.8051431671875887 92.27028581713888 25.00000000000002
    vertex -0.8051431671875816 95.92285439119121 25.00000000000002
  endloop
endfacet
facet normal 0.0 0.0 1.0
  outer loop
    vertex -0.8051431671875816 95.92285439119121 25.00000000000002
    vertex -0.8051431671875887 92.27028581713888 25.00000000000002
    vertex -0.5871269767079775 92.59657010416504 25.00000000000002
  endloop
endfacet
facet normal 0.0 0.0 1.0
  outer loop
    vertex -0.8051431671875816 95.92285439119121 25.00000000000002
    vertex -0.5871269767079775 92.59657010416504 25.00000000000002
    vertex -0.5871269767079704 95.59657010416505 25.00000000000002
  endloop
endfacet
facet normal 0.0 0.0 1.0
  outer loop
    vertex -0.5871269767079704 95.59657010416505 25.00000000000002
    vertex -0.5871269767079775 92.59657010416504 25.00000000000002
    vertex -0.413564590527432 92.94851980706976 25.00000000000002
  endloop
endfacet
facet normal 0.0 0.0 1.0
  outer loop
    vertex -0.5871269767079704 95.59657010416505 25.00000000000002
    vertex -0.413564590527432 92.94851980706976 25.00000000000002
    vertex -0.4135645905274264 95.24462040126032 25.00000000000002
  endloop
endfacet
facet normal 0.0 0.0 1.0
  outer loop
    vertex -0.4135645905274264 95.24462040126032 25.00000000000002
    vertex -0.413564590527432 92.94851980706976 25.00000000000002
    vertex -0.2874257091940859 93.32011296885747 25.00000000000002
  endloop
endfacet
facet normal 0.0 0.0 1.0
  outer loop
    vertex -0.4135645905274264 95.24462040126032 25.00000000000002
    vertex -0.2874257091940859 93.32011296885747 25.00000000000002
    vertex -0.28742570919408167 94.8730272394726 25.00000000000002
  endloop
endfacet
facet normal 0.0 0.0 1.0
  outer loop
    vertex -0.28742570919408167 94.8730272394726 25.00000000000002
    vertex -0.2874257091940859 93.32011296885747 25.00000000000002
    vertex -0.21086860393985718 93.70499152750487 25.00000000000002
  endloop
endfacet
facet normal 0.0 0.0 1.0
  outer loop
    vertex -0.28742570919408167 94.8730272394726 25.00000000000002
    vertex -0.21086860393985718 93.70499152750487 25.00000000000002
    vertex -0.21086860393985576 94.48814868082519 25.00000000000002
  endloop
endfacet
facet normal 0.0 0.0 1.0
  outer loop
    vertex -0.21086860393985576 94.48814868082519 25.00000000000002
    vertex -0.21086860393985718 93.70499152750487 25.00000000000002
    vertex -0.1852031880612871 94.09657010416504 25.00000000000002
  endloop
endfacet
facet normal 0.8968727415326865 -0.4422886902190048 0.0
  outer loop
    vertex -0.413564590527432 92.94851980706976 2.1149748619109232e-14
    vertex -0.5871269767079775 92.59657010416504 25.00000000000002
    vertex -0.5871269767079775 92.59657010416504 2.1149748619109232e-14
  endloop
endfacet
facet normal 0.8968727415326865 -0.4422886902190048 0.0
  outer loop
    vertex -0.5871269767079775 92.59657010416504 25.00000000000002
    vertex -0.413564590527432 92.94851980706976 2.1149748619109232e-14
    vertex -0.413564590527432 92.94851980706976 25.00000000000002
  endloop
endfacet
facet normal 0.9807852804032297 -0.19509032201613266 0.0
  outer loop
    vertex -0.21086860393985718 93.70499152750487 2.1149748619109232e-14
    vertex -0.2874257091940859 93.32011296885747 25.00000000000002
    vertex -0.2874257091940859 93.32011296885747 2.1149748619109232e-14
  endloop
endfacet
facet normal 0.9807852804032297 -0.19509032201613266 0.0
  outer loop
    vertex -0.2874257091940859 93.32011296885747 25.00000000000002
    vertex -0.21086860393985718 93.70499152750487 2.1149748619109232e-14
    vertex -0.21086860393985718 93.70499152750487 25.00000000000002
  endloop
endfacet
facet normal 0.9978589232386035 -0.06540312923014502 0.0
  outer loop
    vertex -0.1852031880612871 94.09657010416504 2.1149748619109232e-14
    vertex -0.21086860393985718 93.70499152750487 25.00000000000002
    vertex -0.21086860393985718 93.70499152750487 2.1149748619109232e-14
  endloop
endfacet
facet normal 0.9978589232386035 -0.06540312923014502 0.0
  outer loop
    vertex -0.21086860393985718 93.70499152750487 25.00000000000002
    vertex -0.1852031880612871 94.09657010416504 2.1149748619109232e-14
    vertex -0.1852031880612871 94.09657010416504 25.00000000000002
  endloop
endfacet
facet normal 0.9469301294951042 -0.3214394653031659 0.0
  outer loop
    vertex -0.2874257091940859 93.32011296885747 2.1149748619109232e-14
    vertex -0.413564590527432 92.94851980706976 25.00000000000002
    vertex -0.413564590527432 92.94851980706976 2.1149748619109232e-14
  endloop
endfacet
facet normal 0.9469301294951042 -0.3214394653031659 0.0
  outer loop
    vertex -0.413564590527432 92.94851980706976 25.00000000000002
    vertex -0.2874257091940859 93.32011296885747 2.1149748619109232e-14
    vertex -0.2874257091940859 93.32011296885747 25.00000000000002
  endloop
endfacet
facet normal 0.6593458151000667 -0.7518398074789793 0.0
  outer loop
    vertex -1.0638828445016528 91.9752497606054 25.00000000000002
    vertex -1.3589189010351341 91.71651008329134 2.1149748619109232e-14
    vertex -1.0638828445016528 91.9752497606054 2.1149748619109232e-14
  endloop
endfacet
facet normal 0.6593458151000667 -0.7518398074789793 0.0
  outer loop
    vertex -1.3589189010351341 91.71651008329134 2.1149748619109232e-14
    vertex -1.0638828445016528 91.9752497606054 25.00000000000002
    vertex -1.3589189010351341 91.71651008329134 25.00000000000002
  endloop
endfacet
facet normal 0.06540312923014019 -0.9978589232386038 0.0
  outer loop
    vertex -2.793624611401141 91.12223552004362 25.00000000000002
    vertex -3.185203188061296 91.09657010416505 2.1149748619109232e-14
    vertex -2.793624611401141 91.12223552004362 2.1149748619109232e-14
  endloop
endfacet
facet normal 0.06540312923014019 -0.9978589232386038 0.0
  outer loop
    vertex -3.185203188061296 91.09657010416505 2.1149748619109232e-14
    vertex -2.793624611401141 91.12223552004362 25.00000000000002
    vertex -3.185203188061296 91.09657010416505 25.00000000000002
  endloop
endfacet
facet normal -0.321439465303164 -0.9469301294951049 -0.0
  outer loop
    vertex -3.9616603233688568 91.19879262529784 25.00000000000002
    vertex -4.333253485156563 91.32493150663119 2.1149748619109232e-14
    vertex -3.9616603233688568 91.19879262529784 2.1149748619109232e-14
  endloop
endfacet
facet normal -0.321439465303164 -0.9469301294951049 -0.0
  outer loop
    vertex -4.333253485156563 91.32493150663119 2.1149748619109232e-14
    vertex -3.9616603233688568 91.19879262529784 25.00000000000002
    vertex -4.333253485156563 91.32493150663119 25.00000000000002
  endloop
endfacet
facet normal 0.7518398074789743 -0.6593458151000726 0.0
  outer loop
    vertex -0.8051431671875887 92.27028581713888 2.1149748619109232e-14
    vertex -1.0638828445016528 91.9752497606054 25.00000000000002
    vertex -1.0638828445016528 91.9752497606054 2.1149748619109232e-14
  endloop
endfacet
facet normal 0.7518398074789743 -0.6593458151000726 0.0
  outer loop
    vertex -1.0638828445016528 91.9752497606054 25.00000000000002
    vertex -0.8051431671875887 92.27028581713888 2.1149748619109232e-14
    vertex -0.8051431671875887 92.27028581713888 25.00000000000002
  endloop
endfacet
facet normal 0.44228869021899864 -0.8968727415326898 0.0
  outer loop
    vertex -1.6852031880612963 91.49849389281172 25.00000000000002
    vertex -2.0371528909660266 91.32493150663119 2.1149748619109232e-14
    vertex -1.6852031880612963 91.49849389281172 2.1149748619109232e-14
  endloop
endfacet
facet normal 0.44228869021899864 -0.8968727415326898 0.0
  outer loop
    vertex -2.0371528909660266 91.32493150663119 2.1149748619109232e-14
    vertex -1.6852031880612963 91.49849389281172 25.00000000000002
    vertex -2.0371528909660266 91.32493150663119 25.00000000000002
  endloop
endfacet
facet normal 0.32143946530315787 -0.9469301294951071 0.0
  outer loop
    vertex -2.0371528909660266 91.32493150663119 25.00000000000002
    vertex -2.4087460527537337 91.19879262529784 2.1149748619109232e-14
    vertex -2.0371528909660266 91.32493150663119 2.1149748619109232e-14
  endloop
endfacet
facet normal 0.32143946530315787 -0.9469301294951071 0.0
  outer loop
    vertex -2.4087460527537337 91.19879262529784 2.1149748619109232e-14
    vertex -2.0371528909660266 91.32493150663119 25.00000000000002
    vertex -2.4087460527537337 91.19879262529784 25.00000000000002
  endloop
endfacet
facet normal 0.19509032201612544 -0.9807852804032311 0.0
  outer loop
    vertex -2.4087460527537337 91.19879262529784 25.00000000000002
    vertex -2.793624611401141 91.12223552004362 2.1149748619109232e-14
    vertex -2.4087460527537337 91.19879262529784 2.1149748619109232e-14
  endloop
endfacet
facet normal 0.19509032201612544 -0.9807852804032311 0.0
  outer loop
    vertex -2.793624611401141 91.12223552004362 2.1149748619109232e-14
    vertex -2.4087460527537337 91.19879262529784 25.00000000000002
    vertex -2.793624611401141 91.12223552004362 25.00000000000002
  endloop
endfacet
facet normal 0.8314696123025432 -0.5555702330196056 0.0
  outer loop
    vertex -0.5871269767079775 92.59657010416504 2.1149748619109232e-14
    vertex -0.8051431671875887 92.27028581713888 25.00000000000002
    vertex -0.8051431671875887 92.27028581713888 2.1149748619109232e-14
  endloop
endfacet
facet normal 0.8314696123025432 -0.5555702330196056 0.0
  outer loop
    vertex -0.8051431671875887 92.27028581713888 25.00000000000002
    vertex -0.5871269767079775 92.59657010416504 2.1149748619109232e-14
    vertex -0.5871269767079775 92.59657010416504 25.00000000000002
  endloop
endfacet
facet normal -0.06540312923014556 -0.9978589232386034 -0.0
  outer loop
    vertex -3.185203188061296 91.09657010416505 25.00000000000002
    vertex -3.5767817647214497 91.12223552004362 2.1149748619109232e-14
    vertex -3.185203188061296 91.09657010416505 2.1149748619109232e-14
  endloop
endfacet
facet normal -0.06540312923014556 -0.9978589232386034 -0.0
  outer loop
    vertex -3.5767817647214497 91.12223552004362 2.1149748619109232e-14
    vertex -3.185203188061296 91.09657010416505 25.00000000000002
    vertex -3.5767817647214497 91.12223552004362 25.00000000000002
  endloop
endfacet
facet normal -0.19509032201613088 -0.98078528040323 -0.0
  outer loop
    vertex -3.5767817647214497 91.12223552004362 25.00000000000002
    vertex -3.9616603233688568 91.19879262529784 2.1149748619109232e-14
    vertex -3.5767817647214497 91.12223552004362 2.1149748619109232e-14
  endloop
endfacet
facet normal -0.19509032201613088 -0.98078528040323 -0.0
  outer loop
    vertex -3.9616603233688568 91.19879262529784 2.1149748619109232e-14
    vertex -3.5767817647214497 91.12223552004362 25.00000000000002
    vertex -3.9616603233688568 91.19879262529784 25.00000000000002
  endloop
endfacet
facet normal 0.5555702330195993 -0.8314696123025472 0.0
  outer loop
    vertex -1.3589189010351341 91.71651008329134 25.00000000000002
    vertex -1.6852031880612963 91.49849389281172 2.1149748619109232e-14
    vertex -1.3589189010351341 91.71651008329134 2.1149748619109232e-14
  endloop
endfacet
facet normal 0.5555702330195993 -0.8314696123025472 0.0
  outer loop
    vertex -1.6852031880612963 91.49849389281172 2.1149748619109232e-14
    vertex -1.3589189010351341 91.71651008329134 25.00000000000002
    vertex -1.6852031880612963 91.49849389281172 25.00000000000002
  endloop
endfacet
facet normal -0.555570233019603 0.8314696123025449 0.0
  outer loop
    vertex -5.011487475087449 96.47663012503875 25.00000000000002
    vertex -4.685203188061287 96.69464631551837 2.1149748619109232e-14
    vertex -5.011487475087449 96.47663012503875 2.1149748619109232e-14
  endloop
endfacet
facet normal -0.555570233019603 0.8314696123025449 0.0
  outer loop
    vertex -4.685203188061287 96.69464631551837 2.1149748619109232e-14
    vertex -5.011487475087449 96.47663012503875 25.00000000000002
    vertex -4.685203188061287 96.69464631551837 25.00000000000002
  endloop
endfacet
facet normal -0.946930129495106 -0.3214394653031605 -0.0
  outer loop
    vertex -6.082980666928492 93.32011296885749 25.00000000000002
    vertex -5.956841785595149 92.94851980706979 2.1149748619109232e-14
    vertex -5.956841785595149 92.94851980706979 25.00000000000002
  endloop
endfacet
facet normal -0.946930129495106 -0.3214394653031605 -0.0
  outer loop
    vertex -5.956841785595149 92.94851980706979 2.1149748619109232e-14
    vertex -6.082980666928492 93.32011296885749 25.00000000000002
    vertex -6.082980666928492 93.32011296885749 2.1149748619109232e-14
  endloop
endfacet
facet normal -0.6593458151000692 0.7518398074789772 0.0
  outer loop
    vertex -5.30652353162093 96.21789044772468 25.00000000000002
    vertex -5.011487475087449 96.47663012503875 2.1149748619109232e-14
    vertex -5.30652353162093 96.21789044772468 2.1149748619109232e-14
  endloop
endfacet
facet normal -0.6593458151000692 0.7518398074789772 0.0
  outer loop
    vertex -5.011487475087449 96.47663012503875 2.1149748619109232e-14
    vertex -5.30652353162093 96.21789044772468 25.00000000000002
    vertex -5.011487475087449 96.47663012503875 25.00000000000002
  endloop
endfacet
facet normal -0.3214394653031619 0.9469301294951057 0.0
  outer loop
    vertex -4.333253485156557 96.8682087016989 25.00000000000002
    vertex -3.96166032336885 96.99434758303225 2.1149748619109232e-14
    vertex -4.333253485156557 96.8682087016989 2.1149748619109232e-14
  endloop
endfacet
facet normal -0.3214394653031619 0.9469301294951057 0.0
  outer loop
    vertex -3.96166032336885 96.99434758303225 2.1149748619109232e-14
    vertex -4.333253485156557 96.8682087016989 25.00000000000002
    vertex -3.96166032336885 96.99434758303225 25.00000000000002
  endloop
endfacet
facet normal -0.1950903220161279 0.9807852804032307 0.0
  outer loop
    vertex -3.96166032336885 96.99434758303225 25.00000000000002
    vertex -3.5767817647214426 97.07090468828648 2.1149748619109232e-14
    vertex -3.96166032336885 96.99434758303225 2.1149748619109232e-14
  endloop
endfacet
facet normal -0.1950903220161279 0.9807852804032307 0.0
  outer loop
    vertex -3.5767817647214426 97.07090468828648 2.1149748619109232e-14
    vertex -3.96166032336885 96.99434758303225 25.00000000000002
    vertex -3.5767817647214426 97.07090468828648 25.00000000000002
  endloop
endfacet
facet normal -0.9978589232386036 -0.06540312923014197 -0.0
  outer loop
    vertex -6.185203188061287 94.09657010416505 25.00000000000002
    vertex -6.159537772182718 93.7049915275049 2.1149748619109232e-14
    vertex -6.159537772182718 93.7049915275049 25.00000000000002
  endloop
endfacet
facet normal -0.9978589232386036 -0.06540312923014197 -0.0
  outer loop
    vertex -6.159537772182718 93.7049915275049 2.1149748619109232e-14
    vertex -6.185203188061287 94.09657010416505 25.00000000000002
    vertex -6.185203188061287 94.09657010416505 2.1149748619109232e-14
  endloop
endfacet
facet normal -0.7518398074789772 0.6593458151000692 0.0
  outer loop
    vertex -5.30652353162093 96.21789044772468 25.00000000000002
    vertex -5.565263208934992 95.92285439119121 2.1149748619109232e-14
    vertex -5.565263208934992 95.92285439119121 25.00000000000002
  endloop
endfacet
facet normal -0.7518398074789772 0.6593458151000692 0.0
  outer loop
    vertex -5.565263208934992 95.92285439119121 2.1149748619109232e-14
    vertex -5.30652353162093 96.21789044772468 25.00000000000002
    vertex -5.30652353162093 96.21789044772468 2.1149748619109232e-14
  endloop
endfacet
facet normal 0.06540312923014367 0.9978589232386036 0.0
  outer loop
    vertex -3.1852031880612874 97.09657010416505 25.00000000000002
    vertex -2.7936246114011327 97.07090468828648 2.1149748619109232e-14
    vertex -3.1852031880612874 97.09657010416505 2.1149748619109232e-14
  endloop
endfacet
facet normal 0.06540312923014367 0.9978589232386036 0.0
  outer loop
    vertex -2.7936246114011327 97.07090468828648 2.1149748619109232e-14
    vertex -3.1852031880612874 97.09657010416505 25.00000000000002
    vertex -2.7936246114011327 97.07090468828648 25.00000000000002
  endloop
endfacet
facet normal 0.19509032201612703 0.9807852804032308 0.0
  outer loop
    vertex -2.7936246114011327 97.07090468828648 25.00000000000002
    vertex -2.4087460527537248 96.99434758303225 2.1149748619109232e-14
    vertex -2.7936246114011327 97.07090468828648 2.1149748619109232e-14
  endloop
endfacet
facet normal 0.19509032201612703 0.9807852804032308 0.0
  outer loop
    vertex -2.4087460527537248 96.99434758303225 2.1149748619109232e-14
    vertex -2.7936246114011327 97.07090468828648 25.00000000000002
    vertex -2.4087460527537248 96.99434758303225 25.00000000000002
  endloop
endfacet
facet normal -0.06540312923014366 0.9978589232386035 0.0
  outer loop
    vertex -3.5767817647214426 97.07090468828648 25.00000000000002
    vertex -3.1852031880612874 97.09657010416505 2.1149748619109232e-14
    vertex -3.5767817647214426 97.07090468828648 2.1149748619109232e-14
  endloop
endfacet
facet normal -0.06540312923014366 0.9978589232386035 0.0
  outer loop
    vertex -3.1852031880612874 97.09657010416505 2.1149748619109232e-14
    vertex -3.5767817647214426 97.07090468828648 25.00000000000002
    vertex -3.1852031880612874 97.09657010416505 25.00000000000002
  endloop
endfacet
facet normal -0.7518398074789783 -0.6593458151000677 -0.0
  outer loop
    vertex -5.565263208934995 92.27028581713888 25.00000000000002
    vertex -5.306523531620933 91.97524976060541 2.1149748619109232e-14
    vertex -5.306523531620933 91.97524976060541 25.00000000000002
  endloop
endfacet
facet normal -0.7518398074789783 -0.6593458151000677 -0.0
  outer loop
    vertex -5.306523531620933 91.97524976060541 2.1149748619109232e-14
    vertex -5.565263208934995 92.27028581713888 25.00000000000002
    vertex -5.565263208934995 92.27028581713888 2.1149748619109232e-14
  endloop
endfacet
facet normal -0.8314696123025449 0.555570233019603 0.0
  outer loop
    vertex -5.565263208934992 95.92285439119121 25.00000000000002
    vertex -5.783279399414602 95.59657010416505 2.1149748619109232e-14
    vertex -5.783279399414602 95.59657010416505 25.00000000000002
  endloop
endfacet
facet normal -0.8314696123025449 0.555570233019603 0.0
  outer loop
    vertex -5.783279399414602 95.59657010416505 2.1149748619109232e-14
    vertex -5.565263208934992 95.92285439119121 25.00000000000002
    vertex -5.565263208934992 95.92285439119121 2.1149748619109232e-14
  endloop
endfacet
facet normal 0.32143946530316164 0.9469301294951057 0.0
  outer loop
    vertex -2.4087460527537248 96.99434758303225 25.00000000000002
    vertex -2.0371528909660173 96.8682087016989 2.1149748619109232e-14
    vertex -2.4087460527537248 96.99434758303225 2.1149748619109232e-14
  endloop
endfacet
facet normal 0.32143946530316164 0.9469301294951057 0.0
  outer loop
    vertex -2.0371528909660173 96.8682087016989 2.1149748619109232e-14
    vertex -2.4087460527537248 96.99434758303225 25.00000000000002
    vertex -2.0371528909660173 96.8682087016989 25.00000000000002
  endloop
endfacet
facet normal -0.555570233019603 -0.8314696123025449 -0.0
  outer loop
    vertex -4.685203188061292 91.49849389281172 25.00000000000002
    vertex -5.011487475087454 91.71651008329134 2.1149748619109232e-14
    vertex -4.685203188061292 91.49849389281172 2.1149748619109232e-14
  endloop
endfacet
facet normal -0.555570233019603 -0.8314696123025449 -0.0
  outer loop
    vertex -5.011487475087454 91.71651008329134 2.1149748619109232e-14
    vertex -4.685203188061292 91.49849389281172 25.00000000000002
    vertex -5.011487475087454 91.71651008329134 25.00000000000002
  endloop
endfacet
facet normal -0.8968727415326894 -0.4422886902189995 -0.0
  outer loop
    vertex -5.956841785595149 92.94851980706979 25.00000000000002
    vertex -5.783279399414605 92.59657010416505 2.1149748619109232e-14
    vertex -5.783279399414605 92.59657010416505 25.00000000000002
  endloop
endfacet
facet normal -0.8968727415326894 -0.4422886902189995 -0.0
  outer loop
    vertex -5.783279399414605 92.59657010416505 2.1149748619109232e-14
    vertex -5.956841785595149 92.94851980706979 25.00000000000002
    vertex -5.956841785595149 92.94851980706979 2.1149748619109232e-14
  endloop
endfacet
facet normal 0.4422886902190014 0.8968727415326883 0.0
  outer loop
    vertex -2.0371528909660173 96.8682087016989 25.00000000000002
    vertex -1.6852031880612865 96.69464631551837 2.1149748619109232e-14
    vertex -2.0371528909660173 96.8682087016989 2.1149748619109232e-14
  endloop
endfacet
facet normal 0.4422886902190014 0.8968727415326883 0.0
  outer loop
    vertex -1.6852031880612865 96.69464631551837 2.1149748619109232e-14
    vertex -2.0371528909660173 96.8682087016989 25.00000000000002
    vertex -1.6852031880612865 96.69464631551837 25.00000000000002
  endloop
endfacet
facet normal 0.5555702330196031 0.8314696123025448 0.0
  outer loop
    vertex -1.6852031880612865 96.69464631551837 25.00000000000002
    vertex -1.3589189010351248 96.47663012503875 2.1149748619109232e-14
    vertex -1.6852031880612865 96.69464631551837 2.1149748619109232e-14
  endloop
endfacet
facet normal 0.5555702330196031 0.8314696123025448 0.0
  outer loop
    vertex -1.3589189010351248 96.47663012503875 2.1149748619109232e-14
    vertex -1.6852031880612865 96.69464631551837 25.00000000000002
    vertex -1.3589189010351248 96.47663012503875 25.00000000000002
  endloop
endfacet
facet normal -0.8968727415326885 0.4422886902190013 0.0
  outer loop
    vertex -5.783279399414602 95.59657010416505 25.00000000000002
    vertex -5.956841785595146 95.24462040126032 2.1149748619109232e-14
    vertex -5.956841785595146 95.24462040126032 25.00000000000002
  endloop
endfacet
facet normal -0.8968727415326885 0.4422886902190013 0.0
  outer loop
    vertex -5.956841785595146 95.24462040126032 2.1149748619109232e-14
    vertex -5.783279399414602 95.59657010416505 25.00000000000002
    vertex -5.783279399414602 95.59657010416505 2.1149748619109232e-14
  endloop
endfacet
facet normal -0.9807852804032303 0.19509032201612903 0.0
  outer loop
    vertex -6.082980666928491 94.8730272394726 25.00000000000002
    vertex -6.159537772182718 94.48814868082519 2.1149748619109232e-14
    vertex -6.159537772182718 94.48814868082519 25.00000000000002
  endloop
endfacet
facet normal -0.9807852804032303 0.19509032201612903 0.0
  outer loop
    vertex -6.159537772182718 94.48814868082519 2.1149748619109232e-14
    vertex -6.082980666928491 94.8730272394726 25.00000000000002
    vertex -6.082980666928491 94.8730272394726 2.1149748619109232e-14
  endloop
endfacet
facet normal -0.4422886902190041 -0.8968727415326869 -0.0
  outer loop
    vertex -4.333253485156563 91.32493150663119 25.00000000000002
    vertex -4.685203188061292 91.49849389281172 2.1149748619109232e-14
    vertex -4.333253485156563 91.32493150663119 2.1149748619109232e-14
  endloop
endfacet
facet normal -0.4422886902190041 -0.8968727415326869 -0.0
  outer loop
    vertex -4.685203188061292 91.49849389281172 2.1149748619109232e-14
    vertex -4.333253485156563 91.32493150663119 25.00000000000002
    vertex -4.685203188061292 91.49849389281172 25.00000000000002
  endloop
endfacet
facet normal -0.9807852804032308 -0.19509032201612733 -0.0
  outer loop
    vertex -6.159537772182718 93.7049915275049 25.00000000000002
    vertex -6.082980666928492 93.32011296885749 2.1149748619109232e-14
    vertex -6.082980666928492 93.32011296885749 25.00000000000002
  endloop
endfacet
facet normal -0.9807852804032308 -0.19509032201612733 -0.0
  outer loop
    vertex -6.082980666928492 93.32011296885749 2.1149748619109232e-14
    vertex -6.159537772182718 93.7049915275049 25.00000000000002
    vertex -6.159537772182718 93.7049915275049 2.1149748619109232e-14
  endloop
endfacet
facet normal -0.6593458151000711 -0.7518398074789755 -0.0
  outer loop
    vertex -5.011487475087454 91.71651008329134 25.00000000000002
    vertex -5.306523531620933 91.97524976060541 2.1149748619109232e-14
    vertex -5.011487475087454 91.71651008329134 2.1149748619109232e-14
  endloop
endfacet
facet normal -0.6593458151000711 -0.7518398074789755 -0.0
  outer loop
    vertex -5.306523531620933 91.97524976060541 2.1149748619109232e-14
    vertex -5.011487475087454 91.71651008329134 25.00000000000002
    vertex -5.306523531620933 91.97524976060541 25.00000000000002
  endloop
endfacet
facet normal -0.8314696123025465 -0.5555702330196006 -0.0
  outer loop
    vertex -5.783279399414605 92.59657010416505 25.00000000000002
    vertex -5.565263208934995 92.27028581713888 2.1149748619109232e-14
    vertex -5.565263208934995 92.27028581713888 25.00000000000002
  endloop
endfacet
facet normal -0.8314696123025465 -0.5555702330196006 -0.0
  outer loop
    vertex -5.565263208934995 92.27028581713888 2.1149748619109232e-14
    vertex -5.783279399414605 92.59657010416505 25.00000000000002
    vertex -5.783279399414605 92.59657010416505 2.1149748619109232e-14
  endloop
endfacet
facet normal -0.9978589232386036 0.06540312923014378 0.0
  outer loop
    vertex -6.159537772182718 94.48814868082519 25.00000000000002
    vertex -6.185203188061287 94.09657010416505 2.1149748619109232e-14
    vertex -6.185203188061287 94.09657010416505 25.00000000000002
  endloop
endfacet
facet normal -0.9978589232386036 0.06540312923014378 0.0
  outer loop
    vertex -6.185203188061287 94.09657010416505 2.1149748619109232e-14
    vertex -6.159537772182718 94.48814868082519 25.00000000000002
    vertex -6.159537772182718 94.48814868082519 2.1149748619109232e-14
  endloop
endfacet
facet normal -0.4422886902190011 0.8968727415326885 0.0
  outer loop
    vertex -4.685203188061287 96.69464631551837 25.00000000000002
    vertex -4.333253485156557 96.8682087016989 2.1149748619109232e-14
    vertex -4.685203188061287 96.69464631551837 2.1149748619109232e-14
  endloop
endfacet
facet normal -0.4422886902190011 0.8968727415326885 0.0
  outer loop
    vertex -4.333253485156557 96.8682087016989 2.1149748619109232e-14
    vertex -4.685203188061287 96.69464631551837 25.00000000000002
    vertex -4.333253485156557 96.8682087016989 25.00000000000002
  endloop
endfacet
facet normal -0.9469301294951056 0.32143946530316236 0.0
  outer loop
    vertex -5.956841785595146 95.24462040126032 25.00000000000002
    vertex -6.082980666928491 94.8730272394726 2.1149748619109232e-14
    vertex -6.082980666928491 94.8730272394726 25.00000000000002
  endloop
endfacet
facet normal -0.9469301294951056 0.32143946530316236 0.0
  outer loop
    vertex -6.082980666928491 94.8730272394726 2.1149748619109232e-14
    vertex -5.956841785595146 95.24462040126032 25.00000000000002
    vertex -5.956841785595146 95.24462040126032 2.1149748619109232e-14
  endloop
endfacet
facet normal 0.9016841842870313 -0.43239522639204897 0.0
  outer loop
    vertex -4.022734436719619 94.64295953261403 2.1149748619109232e-14
    vertex -4.135612241589781 94.40757272629398 25.00000000000002
    vertex -4.135612241589781 94.40757272629398 2.1149748619109232e-14
  endloop
endfacet
facet normal 0.9016841842870313 -0.43239522639204897 0.0
  outer loop
    vertex -4.135612241589781 94.40757272629398 25.00000000000002
    vertex -4.022734436719619 94.64295953261403 2.1149748619109232e-14
    vertex -4.022734436719619 94.64295953261403 25.00000000000002
  endloop
endfacet
facet normal 0.9970790229792429 0.07637684161287787 0.0
  outer loop
    vertex -4.183721240087199 94.15099160523197 2.1149748619109232e-14
    vertex -4.163782883468154 93.89070174880803 25.00000000000002
    vertex -4.163782883468154 93.89070174880803 2.1149748619109232e-14
  endloop
endfacet
facet normal 0.9970790229792429 0.07637684161287787 0.0
  outer loop
    vertex -4.163782883468154 93.89070174880803 25.00000000000002
    vertex -4.183721240087199 94.15099160523197 2.1149748619109232e-14
    vertex -4.183721240087199 94.15099160523197 25.00000000000002
  endloop
endfacet
facet normal 0.9469301294951057 0.32143946530316175 0.0
  outer loop
    vertex -0.4135645905274264 95.24462040126032 2.1149748619109232e-14
    vertex -0.28742570919408167 94.8730272394726 25.00000000000002
    vertex -0.28742570919408167 94.8730272394726 2.1149748619109232e-14
  endloop
endfacet
facet normal 0.9469301294951057 0.32143946530316175 0.0
  outer loop
    vertex -0.28742570919408167 94.8730272394726 25.00000000000002
    vertex -0.4135645905274264 95.24462040126032 2.1149748619109232e-14
    vertex -0.4135645905274264 95.24462040126032 25.00000000000002
  endloop
endfacet
facet normal -0.7590479211575571 0.651034755897403 0.0
  outer loop
    vertex -2.3476719394029546 93.55018067571606 25.00000000000002
    vertex -2.517626114783352 93.35202940599358 2.1149748619109232e-14
    vertex -2.517626114783352 93.35202940599358 25.00000000000002
  endloop
endfacet
facet normal -0.7590479211575571 0.651034755897403 0.0
  outer loop
    vertex -2.517626114783352 93.35202940599358 2.1149748619109232e-14
    vertex -2.3476719394029546 93.55018067571606 25.00000000000002
    vertex -2.3476719394029546 93.55018067571606 2.1149748619109232e-14
  endloop
endfacet
facet normal 0.07637684161287797 -0.9970790229792428 0.0
  outer loop
    vertex -3.1307816869943665 95.09508815619095 25.00000000000002
    vertex -3.3910715434183056 95.07514979957192 2.1149748619109232e-14
    vertex -3.1307816869943665 95.09508815619095 2.1149748619109232e-14
  endloop
endfacet
facet normal 0.07637684161287797 -0.9970790229792428 0.0
  outer loop
    vertex -3.3910715434183056 95.07514979957192 2.1149748619109232e-14
    vertex -3.1307816869943665 95.09508815619095 25.00000000000002
    vertex -3.3910715434183056 95.07514979957192 25.00000000000002
  endloop
endfacet
facet normal -0.9828721603609135 0.1842886767749737 0.0
  outer loop
    vertex -2.186685136035374 94.04214860309813 25.00000000000002
    vertex -2.2347941345327924 93.78556748203611 2.1149748619109232e-14
    vertex -2.2347941345327924 93.78556748203611 25.00000000000002
  endloop
endfacet
facet normal -0.9828721603609135 0.1842886767749737 0.0
  outer loop
    vertex -2.2347941345327924 93.78556748203611 2.1149748619109232e-14
    vertex -2.186685136035374 94.04214860309813 25.00000000000002
    vertex -2.186685136035374 94.04214860309813 2.1149748619109232e-14
  endloop
endfacet
facet normal -0.4323952263920482 -0.9016841842870317 -0.0
  outer loop
    vertex -2.6388137596122956 94.93410135282338 25.00000000000002
    vertex -2.8742005659323544 95.04697915769354 2.1149748619109232e-14
    vertex -2.6388137596122956 94.93410135282338 2.1149748619109232e-14
  endloop
endfacet
facet normal -0.4323952263920482 -0.9016841842870317 -0.0
  outer loop
    vertex -2.8742005659323544 95.04697915769354 2.1149748619109232e-14
    vertex -2.6388137596122956 94.93410135282338 25.00000000000002
    vertex -2.8742005659323544 95.04697915769354 25.00000000000002
  endloop
endfacet
facet normal 0.7518398074789776 0.6593458151000687 0.0
  outer loop
    vertex -1.0638828445016444 96.21789044772468 2.1149748619109232e-14
    vertex -0.8051431671875816 95.92285439119121 25.00000000000002
    vertex -0.8051431671875816 95.92285439119121 2.1149748619109232e-14
  endloop
endfacet
facet normal 0.7518398074789776 0.6593458151000687 0.0
  outer loop
    vertex -0.8051431671875816 95.92285439119121 25.00000000000002
    vertex -1.0638828445016444 96.21789044772468 2.1149748619109232e-14
    vertex -1.0638828445016444 96.21789044772468 25.00000000000002
  endloop
endfacet
facet normal 0.9828721603609136 -0.18428867677497326 0.0
  outer loop
    vertex -4.135612241589781 94.40757272629398 2.1149748619109232e-14
    vertex -4.183721240087199 94.15099160523197 25.00000000000002
    vertex -4.183721240087199 94.15099160523197 2.1149748619109232e-14
  endloop
endfacet
facet normal 0.9828721603609136 -0.18428867677497326 0.0
  outer loop
    vertex -4.183721240087199 94.15099160523197 25.00000000000002
    vertex -4.135612241589781 94.40757272629398 2.1149748619109232e-14
    vertex -4.135612241589781 94.40757272629398 25.00000000000002
  endloop
endfacet
facet normal 0.7590479211575574 -0.6510347558974029 0.0
  outer loop
    vertex -3.852780261339222 94.84111080233652 2.1149748619109232e-14
    vertex -4.022734436719619 94.64295953261403 25.00000000000002
    vertex -4.022734436719619 94.64295953261403 2.1149748619109232e-14
  endloop
endfacet
facet normal 0.7590479211575574 -0.6510347558974029 0.0
  outer loop
    vertex -4.022734436719619 94.64295953261403 25.00000000000002
    vertex -3.852780261339222 94.84111080233652 2.1149748619109232e-14
    vertex -3.852780261339222 94.84111080233652 25.00000000000002
  endloop
endfacet
facet normal 0.5646837965871949 -0.8253073426741531 0.0
  outer loop
    vertex -3.6373318116382083 94.9885228538903 25.00000000000002
    vertex -3.852780261339222 94.84111080233652 2.1149748619109232e-14
    vertex -3.6373318116382083 94.9885228538903 2.1149748619109232e-14
  endloop
endfacet
facet normal 0.5646837965871949 -0.8253073426741531 0.0
  outer loop
    vertex -3.852780261339222 94.84111080233652 2.1149748619109232e-14
    vertex -3.6373318116382083 94.9885228538903 25.00000000000002
    vertex -3.852780261339222 94.84111080233652 25.00000000000002
  endloop
endfacet
facet normal -0.825307342674153 -0.5646837965871948 -0.0
  outer loop
    vertex -2.440662489889812 94.76414717744298 25.00000000000002
    vertex -2.293250438336034 94.54869872774196 2.1149748619109232e-14
    vertex -2.293250438336034 94.54869872774196 25.00000000000002
  endloop
endfacet
facet normal -0.825307342674153 -0.5646837965871948 -0.0
  outer loop
    vertex -2.293250438336034 94.54869872774196 2.1149748619109232e-14
    vertex -2.440662489889812 94.76414717744298 25.00000000000002
    vertex -2.440662489889812 94.76414717744298 2.1149748619109232e-14
  endloop
endfacet
facet normal -0.9016841842870318 0.4323952263920481 0.0
  outer loop
    vertex -2.2347941345327924 93.78556748203611 25.00000000000002
    vertex -2.3476719394029546 93.55018067571606 2.1149748619109232e-14
    vertex -2.3476719394029546 93.55018067571606 25.00000000000002
  endloop
endfacet
facet normal -0.9016841842870318 0.4323952263920481 0.0
  outer loop
    vertex -2.3476719394029546 93.55018067571606 2.1149748619109232e-14
    vertex -2.2347941345327924 93.78556748203611 25.00000000000002
    vertex -2.2347941345327924 93.78556748203611 2.1149748619109232e-14
  endloop
endfacet
facet normal 0.6593458151000683 0.7518398074789779 0.0
  outer loop
    vertex -1.3589189010351248 96.47663012503875 25.00000000000002
    vertex -1.0638828445016444 96.21789044772468 2.1149748619109232e-14
    vertex -1.3589189010351248 96.47663012503875 2.1149748619109232e-14
  endloop
endfacet
facet normal 0.6593458151000683 0.7518398074789779 0.0
  outer loop
    vertex -1.0638828445016444 96.21789044772468 2.1149748619109232e-14
    vertex -1.3589189010351248 96.47663012503875 25.00000000000002
    vertex -1.0638828445016444 96.21789044772468 25.00000000000002
  endloop
endfacet
facet normal -0.651034755897403 -0.7590479211575571 -0.0
  outer loop
    vertex -2.440662489889812 94.76414717744298 25.00000000000002
    vertex -2.6388137596122956 94.93410135282338 2.1149748619109232e-14
    vertex -2.440662489889812 94.76414717744298 2.1149748619109232e-14
  endloop
endfacet
facet normal -0.651034755897403 -0.7590479211575571 -0.0
  outer loop
    vertex -2.6388137596122956 94.93410135282338 2.1149748619109232e-14
    vertex -2.440662489889812 94.76414717744298 25.00000000000002
    vertex -2.6388137596122956 94.93410135282338 25.00000000000002
  endloop
endfacet
facet normal -0.9433365979325308 -0.33183740446351 -0.0
  outer loop
    vertex -2.293250438336034 94.54869872774196 25.00000000000002
    vertex -2.2066234926544204 94.30243845952207 2.1149748619109232e-14
    vertex -2.2066234926544204 94.30243845952207 25.00000000000002
  endloop
endfacet
facet normal -0.9433365979325308 -0.33183740446351 -0.0
  outer loop
    vertex -2.2066234926544204 94.30243845952207 2.1149748619109232e-14
    vertex -2.293250438336034 94.54869872774196 25.00000000000002
    vertex -2.293250438336034 94.54869872774196 2.1149748619109232e-14
  endloop
endfacet
facet normal -0.18428867677497304 -0.9828721603609136 -0.0
  outer loop
    vertex -2.8742005659323544 95.04697915769354 25.00000000000002
    vertex -3.1307816869943665 95.09508815619095 2.1149748619109232e-14
    vertex -2.8742005659323544 95.04697915769354 2.1149748619109232e-14
  endloop
endfacet
facet normal -0.18428867677497304 -0.9828721603609136 -0.0
  outer loop
    vertex -3.1307816869943665 95.09508815619095 2.1149748619109232e-14
    vertex -2.8742005659323544 95.04697915769354 25.00000000000002
    vertex -3.1307816869943665 95.09508815619095 25.00000000000002
  endloop
endfacet
facet normal 0.9978589232386035 0.0654031292301437 0.0
  outer loop
    vertex -0.21086860393985576 94.48814868082519 2.1149748619109232e-14
    vertex -0.1852031880612871 94.09657010416504 25.00000000000002
    vertex -0.1852031880612871 94.09657010416504 2.1149748619109232e-14
  endloop
endfacet
facet normal 0.9978589232386035 0.0654031292301437 0.0
  outer loop
    vertex -0.1852031880612871 94.09657010416504 25.00000000000002
    vertex -0.21086860393985576 94.48814868082519 2.1149748619109232e-14
    vertex -0.21086860393985576 94.48814868082519 25.00000000000002
  endloop
endfacet
facet normal -0.9970790229792427 -0.07637684161287929 -0.0
  outer loop
    vertex -2.2066234926544204 94.30243845952207 25.00000000000002
    vertex -2.186685136035374 94.04214860309813 2.1149748619109232e-14
    vertex -2.186685136035374 94.04214860309813 25.00000000000002
  endloop
endfacet
facet normal -0.9970790229792427 -0.07637684161287929 -0.0
  outer loop
    vertex -2.186685136035374 94.04214860309813 2.1149748619109232e-14
    vertex -2.2066234926544204 94.30243845952207 25.00000000000002
    vertex -2.2066234926544204 94.30243845952207 2.1149748619109232e-14
  endloop
endfacet
facet normal 0.8968727415326885 0.4422886902190011 0.0
  outer loop
    vertex -0.5871269767079704 95.59657010416505 2.1149748619109232e-14
    vertex -0.4135645905274264 95.24462040126032 25.00000000000002
    vertex -0.4135645905274264 95.24462040126032 2.1149748619109232e-14
  endloop
endfacet
facet normal 0.8968727415326885 0.4422886902190011 0.0
  outer loop
    vertex -0.4135645905274264 95.24462040126032 25.00000000000002
    vertex -0.5871269767079704 95.59657010416505 2.1149748619109232e-14
    vertex -0.5871269767079704 95.59657010416505 25.00000000000002
  endloop
endfacet
facet normal 0.9807852804032308 0.19509032201612717 0.0
  outer loop
    vertex -0.28742570919408167 94.8730272394726 2.1149748619109232e-14
    vertex -0.21086860393985576 94.48814868082519 25.00000000000002
    vertex -0.21086860393985576 94.48814868082519 2.1149748619109232e-14
  endloop
endfacet
facet normal 0.9807852804032308 0.19509032201612717 0.0
  outer loop
    vertex -0.21086860393985576 94.48814868082519 25.00000000000002
    vertex -0.28742570919408167 94.8730272394726 2.1149748619109232e-14
    vertex -0.28742570919408167 94.8730272394726 25.00000000000002
  endloop
endfacet
facet normal 0.3318374044635104 -0.9433365979325307 0.0
  outer loop
    vertex -3.3910715434183056 95.07514979957192 25.00000000000002
    vertex -3.6373318116382083 94.9885228538903 2.1149748619109232e-14
    vertex -3.3910715434183056 95.07514979957192 2.1149748619109232e-14
  endloop
endfacet
facet normal 0.3318374044635104 -0.9433365979325307 0.0
  outer loop
    vertex -3.6373318116382083 94.9885228538903 2.1149748619109232e-14
    vertex -3.3910715434183056 95.07514979957192 25.00000000000002
    vertex -3.6373318116382083 94.9885228538903 25.00000000000002
  endloop
endfacet
facet normal 0.8314696123025453 0.5555702330196023 0.0
  outer loop
    vertex -0.8051431671875816 95.92285439119121 2.1149748619109232e-14
    vertex -0.5871269767079704 95.59657010416505 25.00000000000002
    vertex -0.5871269767079704 95.59657010416505 2.1149748619109232e-14
  endloop
endfacet
facet normal 0.8314696123025453 0.5555702330196023 0.0
  outer loop
    vertex -0.5871269767079704 95.59657010416505 25.00000000000002
    vertex -0.8051431671875816 95.92285439119121 2.1149748619109232e-14
    vertex -0.8051431671875816 95.92285439119121 25.00000000000002
  endloop
endfacet
facet normal 0.9433365979325306 0.3318374044635103 0.0
  outer loop
    vertex -4.163782883468154 93.89070174880803 2.1149748619109232e-14
    vertex -4.077155937786539 93.64444148058813 25.00000000000002
    vertex -4.077155937786539 93.64444148058813 2.1149748619109232e-14
  endloop
endfacet
facet normal 0.9433365979325306 0.3318374044635103 0.0
  outer loop
    vertex -4.077155937786539 93.64444148058813 25.00000000000002
    vertex -4.163782883468154 93.89070174880803 2.1149748619109232e-14
    vertex -4.163782883468154 93.89070174880803 25.00000000000002
  endloop
endfacet
facet normal 0.18428867677497338 0.9828721603609137 0.0
  outer loop
    vertex -3.4962058101902196 93.14616105063655 25.00000000000002
    vertex -3.239624689128207 93.09805205213912 2.1149748619109232e-14
    vertex -3.4962058101902196 93.14616105063655 2.1149748619109232e-14
  endloop
endfacet
facet normal 0.18428867677497338 0.9828721603609137 0.0
  outer loop
    vertex -3.239624689128207 93.09805205213912 2.1149748619109232e-14
    vertex -3.4962058101902196 93.14616105063655 25.00000000000002
    vertex -3.239624689128207 93.09805205213912 25.00000000000002
  endloop
endfacet
facet normal 0.6510347558974031 0.7590479211575571 0.0
  outer loop
    vertex -3.9297438862327625 93.42899303088711 25.00000000000002
    vertex -3.7315926165102784 93.25903885550672 2.1149748619109232e-14
    vertex -3.9297438862327625 93.42899303088711 2.1149748619109232e-14
  endloop
endfacet
facet normal 0.6510347558974031 0.7590479211575571 0.0
  outer loop
    vertex -3.7315926165102784 93.25903885550672 2.1149748619109232e-14
    vertex -3.9297438862327625 93.42899303088711 25.00000000000002
    vertex -3.7315926165102784 93.25903885550672 25.00000000000002
  endloop
endfacet
facet normal 0.8253073426741533 0.5646837965871943 0.0
  outer loop
    vertex -4.077155937786539 93.64444148058813 2.1149748619109232e-14
    vertex -3.9297438862327625 93.42899303088711 25.00000000000002
    vertex -3.9297438862327625 93.42899303088711 2.1149748619109232e-14
  endloop
endfacet
facet normal 0.8253073426741533 0.5646837965871943 0.0
  outer loop
    vertex -3.9297438862327625 93.42899303088711 25.00000000000002
    vertex -4.077155937786539 93.64444148058813 2.1149748619109232e-14
    vertex -4.077155937786539 93.64444148058813 25.00000000000002
  endloop
endfacet
facet normal 0.4323952263920486 0.9016841842870313 0.0
  outer loop
    vertex -3.7315926165102784 93.25903885550672 25.00000000000002
    vertex -3.4962058101902196 93.14616105063655 2.1149748619109232e-14
    vertex -3.7315926165102784 93.25903885550672 2.1149748619109232e-14
  endloop
endfacet
facet normal 0.4323952263920486 0.9016841842870313 0.0
  outer loop
    vertex -3.4962058101902196 93.14616105063655 2.1149748619109232e-14
    vertex -3.7315926165102784 93.25903885550672 25.00000000000002
    vertex -3.4962058101902196 93.14616105063655 25.00000000000002
  endloop
endfacet
facet normal -0.33183740446351023 0.9433365979325306 0.0
  outer loop
    vertex -2.979334832704268 93.11799040875817 25.00000000000002
    vertex -2.733074564484366 93.20461735443979 2.1149748619109232e-14
    vertex -2.979334832704268 93.11799040875817 2.1149748619109232e-14
  endloop
endfacet
facet normal -0.33183740446351023 0.9433365979325306 0.0
  outer loop
    vertex -2.733074564484366 93.20461735443979 2.1149748619109232e-14
    vertex -2.979334832704268 93.11799040875817 25.00000000000002
    vertex -2.733074564484366 93.20461735443979 25.00000000000002
  endloop
endfacet
facet normal -0.5646837965871945 0.8253073426741532 0.0
  outer loop
    vertex -2.733074564484366 93.20461735443979 25.00000000000002
    vertex -2.517626114783352 93.35202940599358 2.1149748619109232e-14
    vertex -2.733074564484366 93.20461735443979 2.1149748619109232e-14
  endloop
endfacet
facet normal -0.5646837965871945 0.8253073426741532 0.0
  outer loop
    vertex -2.517626114783352 93.35202940599358 2.1149748619109232e-14
    vertex -2.733074564484366 93.20461735443979 25.00000000000002
    vertex -2.517626114783352 93.35202940599358 25.00000000000002
  endloop
endfacet
facet normal -0.07637684161287799 0.9970790229792428 0.0
  outer loop
    vertex -3.239624689128207 93.09805205213912 25.00000000000002
    vertex -2.979334832704268 93.11799040875817 2.1149748619109232e-14
    vertex -3.239624689128207 93.09805205213912 2.1149748619109232e-14
  endloop
endfacet
facet normal -0.07637684161287799 0.9970790229792428 0.0
  outer loop
    vertex -2.979334832704268 93.11799040875817 2.1149748619109232e-14
    vertex -3.239624689128207 93.09805205213912 25.00000000000002
    vertex -2.979334832704268 93.11799040875817 25.00000000000002
  endloop
endfacet
endsolid Heat Sink Bracket
