solid Puzzle
facet normal 0.4921074944125372 -0.870534441560479 1.576006935250666e-18
  outer loop
    vertex 37.29704433624583 12.82649731565531 106.36249999999997
    vertex 36.39512569103523 12.31664853372437 101.59999999999997
    vertex 37.29704433624583 12.82649731565531 101.59999999999997
  endloop
endfacet
facet normal 0.4921074944125372 -0.870534441560479 1.576006935250666e-18
  outer loop
    vertex 36.39512569103523 12.31664853372437 101.59999999999997
    vertex 37.29704433624583 12.82649731565531 106.36249999999997
    vertex 36.39512569103523 12.31664853372437 106.36249999999997
  endloop
endfacet
facet normal -0.7135049079857313 -0.7006502310570327 -4.570093713623609e-18
  outer loop
    vertex 31.739290284145376 13.609646740325383 106.36249999999997
    vertex 32.46520011262805 12.870418802590923 101.59999999999997
    vertex 32.46520011262805 12.870418802590923 106.36249999999997
  endloop
endfacet
facet normal -0.7135049079857313 -0.7006502310570327 -4.570093713623609e-18
  outer loop
    vertex 32.46520011262805 12.870418802590923 101.59999999999997
    vertex 31.739290284145376 13.609646740325383 106.36249999999997
    vertex 31.739290284145376 13.609646740325383 101.59999999999997
  endloop
endfacet
facet normal -0.26758826051199885 -0.9635333532556944 0.0
  outer loop
    vertex 34.355971753664086 12.067023475633333 106.36249999999997
    vertex 33.35770143247406 12.344258734657219 101.59999999999997
    vertex 34.355971753664086 12.067023475633333 101.59999999999997
  endloop
endfacet
facet normal -0.26758826051199885 -0.9635333532556944 0.0
  outer loop
    vertex 33.35770143247406 12.344258734657219 101.59999999999997
    vertex 34.355971753664086 12.067023475633333 106.36249999999997
    vertex 33.35770143247406 12.344258734657219 106.36249999999997
  endloop
endfacet
facet normal -0.9682384915690387 -0.2500284452699584 -3.748456681502885e-19
  outer loop
    vertex 30.970399118758873 15.514710473042483 106.36249999999997
    vertex 31.229441502214435 14.511565385535922 101.59999999999997
    vertex 31.229441502214435 14.511565385535922 106.36249999999997
  endloop
endfacet
facet normal -0.9682384915690387 -0.2500284452699584 -3.748456681502885e-19
  outer loop
    vertex 31.229441502214435 14.511565385535922 101.59999999999997
    vertex 30.970399118758873 15.514710473042483 106.36249999999997
    vertex 30.970399118758873 15.514710473042483 101.59999999999997
  endloop
endfacet
facet normal -0.9635333532556909 0.2675882605120118 -1.628414066488969e-18
  outer loop
    vertex 31.257051703147287 17.548989644097144 106.36249999999997
    vertex 30.97981644412339 16.550719322907124 101.59999999999997
    vertex 30.97981644412339 16.550719322907124 106.36249999999997
  endloop
endfacet
facet normal -0.9635333532556909 0.2675882605120118 -1.628414066488969e-18
  outer loop
    vertex 30.97981644412339 16.550719322907124 101.59999999999997
    vertex 31.257051703147287 17.548989644097144 106.36249999999997
    vertex 31.257051703147287 17.548989644097144 101.59999999999997
  endloop
endfacet
facet normal 0.7006502310570409 -0.7135049079857231 1.12193945009117e-18
  outer loop
    vertex 38.03627227398028 13.552407144137977 106.36249999999997
    vertex 37.29704433624583 12.82649731565531 101.59999999999997
    vertex 38.03627227398028 13.552407144137977 101.59999999999997
  endloop
endfacet
facet normal 0.7006502310570409 -0.7135049079857231 1.12193945009117e-18
  outer loop
    vertex 37.29704433624583 12.82649731565531 101.59999999999997
    vertex 38.03627227398028 13.552407144137977 106.36249999999997
    vertex 37.29704433624583 12.82649731565531 106.36249999999997
  endloop
endfacet
facet normal -0.7006502310570298 0.713504907985734 -1.1425234284069455e-18
  outer loop
    vertex 31.783211771080992 18.441490963943167 106.36249999999997
    vertex 32.522439708815455 19.16740079242583 101.59999999999997
    vertex 31.783211771080992 18.441490963943167 101.59999999999997
  endloop
endfacet
facet normal -0.7006502310570298 0.713504907985734 -1.1425234284069455e-18
  outer loop
    vertex 32.522439708815455 19.16740079242583 101.59999999999997
    vertex 31.783211771080992 18.441490963943167 106.36249999999997
    vertex 32.522439708815455 19.16740079242583 106.36249999999997
  endloop
endfacet
facet normal -0.4921074944125628 0.8705344415604646 7.880034676260907e-19
  outer loop
    vertex 32.522439708815455 19.16740079242583 106.36249999999997
    vertex 33.42435835402599 19.677249574356768 101.59999999999997
    vertex 32.522439708815455 19.16740079242583 101.59999999999997
  endloop
endfacet
facet normal -0.4921074944125628 0.8705344415604646 7.880034676260907e-19
  outer loop
    vertex 33.42435835402599 19.677249574356768 101.59999999999997
    vertex 32.522439708815455 19.16740079242583 106.36249999999997
    vertex 33.42435835402599 19.677249574356768 106.36249999999997
  endloop
endfacet
facet normal -0.009089629226248022 -0.9999586884669434 -2.911014130467202e-20
  outer loop
    vertex 35.391980603528715 12.057606150268803 106.36249999999997
    vertex 34.355971753664086 12.067023475633333 101.59999999999997
    vertex 35.391980603528715 12.057606150268803 101.59999999999997
  endloop
endfacet
facet normal -0.009089629226248022 -0.9999586884669434 -2.911014130467202e-20
  outer loop
    vertex 34.355971753664086 12.067023475633333 101.59999999999997
    vertex 35.391980603528715 12.057606150268803 106.36249999999997
    vertex 34.355971753664086 12.067023475633333 106.36249999999997
  endloop
endfacet
facet normal -0.8705344415604621 -0.49210749441256685 1.4849895595128482e-18
  outer loop
    vertex 31.229441502214435 14.511565385535922 106.36249999999997
    vertex 31.739290284145376 13.609646740325383 101.59999999999997
    vertex 31.739290284145376 13.609646740325383 106.36249999999997
  endloop
endfacet
facet normal -0.8705344415604621 -0.49210749441256685 1.4849895595128482e-18
  outer loop
    vertex 31.739290284145376 13.609646740325383 101.59999999999997
    vertex 31.229441502214435 14.511565385535922 106.36249999999997
    vertex 31.229441502214435 14.511565385535922 101.59999999999997
  endloop
endfacet
facet normal -0.8614448123342215 0.5078511940543783 -2.3883191274095536e-18
  outer loop
    vertex 31.783211771080992 18.441490963943167 106.36249999999997
    vertex 31.257051703147287 17.548989644097144 101.59999999999997
    vertex 31.257051703147287 17.548989644097144 106.36249999999997
  endloop
endfacet
facet normal -0.8614448123342215 0.5078511940543783 -2.3883191274095536e-18
  outer loop
    vertex 31.257051703147287 17.548989644097144 101.59999999999997
    vertex 31.783211771080992 18.441490963943167 106.36249999999997
    vertex 31.783211771080992 18.441490963943167 101.59999999999997
  endloop
endfacet
facet normal -0.507851194054383 -0.8614448123342188 -1.5029221460613123e-18
  outer loop
    vertex 33.35770143247406 12.344258734657219 106.36249999999997
    vertex 32.46520011262805 12.870418802590923 101.59999999999997
    vertex 33.35770143247406 12.344258734657219 101.59999999999997
  endloop
endfacet
facet normal -0.507851194054383 -0.8614448123342188 -1.5029221460613123e-18
  outer loop
    vertex 32.46520011262805 12.870418802590923 101.59999999999997
    vertex 33.35770143247406 12.344258734657219 106.36249999999997
    vertex 32.46520011262805 12.870418802590923 106.36249999999997
  endloop
endfacet
facet normal 0.2500284452699728 -0.9682384915690352 -1.276034146570128e-20
  outer loop
    vertex 36.39512569103523 12.31664853372437 106.36249999999997
    vertex 35.391980603528715 12.057606150268803 101.59999999999997
    vertex 36.39512569103523 12.31664853372437 101.59999999999997
  endloop
endfacet
facet normal 0.2500284452699728 -0.9682384915690352 -1.276034146570128e-20
  outer loop
    vertex 35.391980603528715 12.057606150268803 101.59999999999997
    vertex 36.39512569103523 12.31664853372437 106.36249999999997
    vertex 35.391980603528715 12.057606150268803 106.36249999999997
  endloop
endfacet
facet normal -0.9999586884669436 0.009089629226236986 -4.091124786983998e-21
  outer loop
    vertex 30.97981644412339 16.550719322907124 106.36249999999997
    vertex 30.970399118758873 15.514710473042483 101.59999999999997
    vertex 30.970399118758873 15.514710473042483 106.36249999999997
  endloop
endfacet
facet normal -0.9999586884669436 0.009089629226236986 -4.091124786983998e-21
  outer loop
    vertex 30.970399118758873 15.514710473042483 101.59999999999997
    vertex 30.97981644412339 16.550719322907124 106.36249999999997
    vertex 30.97981644412339 16.550719322907124 101.59999999999997
  endloop
endfacet
facet normal -0.25002844526996487 0.9682384915690371 2.789804116107337e-18
  outer loop
    vertex 33.42435835402599 19.677249574356768 106.36249999999997
    vertex 34.427503441532544 19.936291957812333 101.59999999999997
    vertex 33.42435835402599 19.677249574356768 101.59999999999997
  endloop
endfacet
facet normal -0.25002844526996487 0.9682384915690371 2.789804116107337e-18
  outer loop
    vertex 34.427503441532544 19.936291957812333 101.59999999999997
    vertex 33.42435835402599 19.677249574356768 106.36249999999997
    vertex 34.427503441532544 19.936291957812333 106.36249999999997
  endloop
endfacet
facet normal 0.00908962922624822 0.9999586884669434 -1.0188549456931985e-19
  outer loop
    vertex 34.427503441532544 19.936291957812333 106.36249999999997
    vertex 35.463512291397144 19.926874632447806 101.59999999999997
    vertex 34.427503441532544 19.936291957812333 101.59999999999997
  endloop
endfacet
facet normal 0.00908962922624822 0.9999586884669434 -1.0188549456931985e-19
  outer loop
    vertex 35.463512291397144 19.926874632447806 101.59999999999997
    vertex 34.427503441532544 19.936291957812333 106.36249999999997
    vertex 35.463512291397144 19.926874632447806 106.36249999999997
  endloop
endfacet
facet normal 0.2675882605120017 0.9635333532556936 -4.284845883747388e-19
  outer loop
    vertex 35.463512291397144 19.926874632447806 106.36249999999997
    vertex 36.46178261258717 19.64963937342392 101.59999999999997
    vertex 35.463512291397144 19.926874632447806 101.59999999999997
  endloop
endfacet
facet normal 0.2675882605120017 0.9635333532556936 -4.284845883747388e-19
  outer loop
    vertex 36.46178261258717 19.64963937342392 101.59999999999997
    vertex 35.463512291397144 19.926874632447806 106.36249999999997
    vertex 36.46178261258717 19.64963937342392 106.36249999999997
  endloop
endfacet
facet normal 0.9999586884669436 -0.009089629226236988 -7.914817434576724e-20
  outer loop
    vertex 38.849084926302396 16.479187635038656 101.59999999999997
    vertex 38.83966760093788 15.443178785174014 106.36249999999997
    vertex 38.83966760093788 15.443178785174014 101.59999999999997
  endloop
endfacet
facet normal 0.9999586884669436 -0.009089629226236988 -7.914817434576724e-20
  outer loop
    vertex 38.83966760093788 15.443178785174014 106.36249999999997
    vertex 38.849084926302396 16.479187635038656 101.59999999999997
    vertex 38.849084926302396 16.479187635038656 106.36249999999997
  endloop
endfacet
facet normal 0.9682384915690437 0.2500284452699394 -4.0036635108161183e-19
  outer loop
    vertex 38.59004254284686 17.48233272254521 101.59999999999997
    vertex 38.849084926302396 16.479187635038656 106.36249999999997
    vertex 38.849084926302396 16.479187635038656 101.59999999999997
  endloop
endfacet
facet normal 0.9682384915690437 0.2500284452699394 -4.0036635108161183e-19
  outer loop
    vertex 38.849084926302396 16.479187635038656 106.36249999999997
    vertex 38.59004254284686 17.48233272254521 101.59999999999997
    vertex 38.59004254284686 17.48233272254521 106.36249999999997
  endloop
endfacet
facet normal 0.9635333532556936 -0.2675882605120017 -2.3143346692377183e-18
  outer loop
    vertex 38.83966760093788 15.443178785174014 101.59999999999997
    vertex 38.562432341914 14.444908463983992 106.36249999999997
    vertex 38.562432341914 14.444908463983992 101.59999999999997
  endloop
endfacet
facet normal 0.9635333532556936 -0.2675882605120017 -2.3143346692377183e-18
  outer loop
    vertex 38.562432341914 14.444908463983992 106.36249999999997
    vertex 38.83966760093788 15.443178785174014 101.59999999999997
    vertex 38.83966760093788 15.443178785174014 106.36249999999997
  endloop
endfacet
facet normal 0.7135049079857475 0.7006502310570161 0.0
  outer loop
    vertex 37.35428393243326 19.123479305490214 101.59999999999997
    vertex 38.08019376091589 18.384251367755756 106.36249999999997
    vertex 38.08019376091589 18.384251367755756 101.59999999999997
  endloop
endfacet
facet normal 0.7135049079857475 0.7006502310570161 0.0
  outer loop
    vertex 38.08019376091589 18.384251367755756 106.36249999999997
    vertex 37.35428393243326 19.123479305490214 101.59999999999997
    vertex 37.35428393243326 19.123479305490214 106.36249999999997
  endloop
endfacet
facet normal 0.5078511940543495 0.8614448123342385 -4.827959895926727e-18
  outer loop
    vertex 36.46178261258717 19.64963937342392 106.36249999999997
    vertex 37.35428393243326 19.123479305490214 101.59999999999997
    vertex 36.46178261258717 19.64963937342392 101.59999999999997
  endloop
endfacet
facet normal 0.5078511940543495 0.8614448123342385 -4.827959895926727e-18
  outer loop
    vertex 37.35428393243326 19.123479305490214 101.59999999999997
    vertex 36.46178261258717 19.64963937342392 106.36249999999997
    vertex 37.35428393243326 19.123479305490214 106.36249999999997
  endloop
endfacet
facet normal 0.870534441560454 0.4921074944125812 -6.969860918867445e-19
  outer loop
    vertex 38.08019376091589 18.384251367755756 101.59999999999997
    vertex 38.59004254284686 17.48233272254521 106.36249999999997
    vertex 38.59004254284686 17.48233272254521 101.59999999999997
  endloop
endfacet
facet normal 0.870534441560454 0.4921074944125812 -6.969860918867445e-19
  outer loop
    vertex 38.59004254284686 17.48233272254521 106.36249999999997
    vertex 38.08019376091589 18.384251367755756 101.59999999999997
    vertex 38.08019376091589 18.384251367755756 106.36249999999997
  endloop
endfacet
facet normal 0.8614448123342154 -0.5078511940543886 1.5029221460642774e-18
  outer loop
    vertex 38.562432341914 14.444908463983992 101.59999999999997
    vertex 38.03627227398028 13.552407144137977 106.36249999999997
    vertex 38.03627227398028 13.552407144137977 101.59999999999997
  endloop
endfacet
facet normal 0.8614448123342154 -0.5078511940543886 1.5029221460642774e-18
  outer loop
    vertex 38.03627227398028 13.552407144137977 106.36249999999997
    vertex 38.562432341914 14.444908463983992 101.59999999999997
    vertex 38.562432341914 14.444908463983992 106.36249999999997
  endloop
endfacet
facet normal 0.0 0.0 -1.0
  outer loop
    vertex 31.58375363254635 16.465617848963387 100.40937499999997
    vertex 31.795017186650725 14.739833941412702 100.40937499999997
    vertex 31.575783528736004 15.588819207914534 100.40937499999997
  endloop
endfacet
facet normal 0.0 0.0 -1.0
  outer loop
    vertex 31.795017186650725 14.739833941412702 100.40937499999997
    vertex 31.58375363254635 16.465617848963387 100.40937499999997
    vertex 31.81838434867857 17.310477486150067 100.40937499999997
  endloop
endfacet
facet normal 0.0 0.0 -1.0
  outer loop
    vertex 31.795017186650725 14.739833941412702 100.40937499999997
    vertex 31.81838434867857 17.310477486150067 100.40937499999997
    vertex 32.226514194804636 13.976518992355434 100.40937499999997
  endloop
endfacet
facet normal 0.0 0.0 -1.0
  outer loop
    vertex 32.226514194804636 13.976518992355434 100.40937499999997
    vertex 31.81838434867857 17.310477486150067 100.40937499999997
    vertex 32.26368598157357 18.065822331396873 100.40937499999997
  endloop
endfacet
facet normal 0.0 0.0 -1.0
  outer loop
    vertex 32.226514194804636 13.976518992355434 100.40937499999997
    vertex 32.26368598157357 18.065822331396873 100.40937499999997
    vertex 32.84086874517431 13.350893013083564 100.40937499999997
  endloop
endfacet
facet normal 0.0 0.0 -1.0
  outer loop
    vertex 32.84086874517431 13.350893013083564 100.40937499999997
    vertex 32.26368598157357 18.065822331396873 100.40937499999997
    vertex 32.889311960845504 18.680176881766567 100.40937499999997
  endloop
endfacet
facet normal 0.0 0.0 -1.0
  outer loop
    vertex 32.84086874517431 13.350893013083564 100.40937499999997
    vertex 32.889311960845504 18.680176881766567 100.40937499999997
    vertex 33.5962135904211 12.905591380188499 100.40937499999997
  endloop
endfacet
facet normal 0.0 0.0 -1.0
  outer loop
    vertex 33.5962135904211 12.905591380188499 100.40937499999997
    vertex 32.889311960845504 18.680176881766567 100.40937499999997
    vertex 33.65262690990274 19.111673889920382 100.40937499999997
  endloop
endfacet
facet normal 0.0 0.0 -1.0
  outer loop
    vertex 33.5962135904211 12.905591380188499 100.40937499999997
    vertex 33.65262690990274 19.111673889920382 100.40937499999997
    vertex 34.44107322760772 12.67096066405638 100.40937499999997
  endloop
endfacet
facet normal 0.0 0.0 -1.0
  outer loop
    vertex 34.44107322760772 12.67096066405638 100.40937499999997
    vertex 33.65262690990274 19.111673889920382 100.40937499999997
    vertex 34.50161217640457 19.330907547835142 100.40937499999997
  endloop
endfacet
facet normal 0.0 0.0 -1.0
  outer loop
    vertex 34.44107322760772 12.67096066405638 100.40937499999997
    vertex 34.50161217640457 19.330907547835142 100.40937499999997
    vertex 35.31787186865668 12.662990560245968 100.40937499999997
  endloop
endfacet
facet normal 0.0 0.0 -1.0
  outer loop
    vertex 35.31787186865668 12.662990560245968 100.40937499999997
    vertex 34.50161217640457 19.330907547835142 100.40937499999997
    vertex 35.378410817453364 19.322937444024753 100.40937499999997
  endloop
endfacet
facet normal 0.0 0.0 -1.0
  outer loop
    vertex 35.31787186865668 12.662990560245968 100.40937499999997
    vertex 35.378410817453364 19.322937444024753 100.40937499999997
    vertex 36.16685713515843 12.882224218160697 100.40937499999997
  endloop
endfacet
facet normal 0.0 0.0 -1.0
  outer loop
    vertex 36.16685713515843 12.882224218160697 100.40937499999997
    vertex 35.378410817453364 19.322937444024753 100.40937499999997
    vertex 36.2232704546401 19.088306727892594 100.40937499999997
  endloop
endfacet
facet normal 0.0 0.0 -1.0
  outer loop
    vertex 36.16685713515843 12.882224218160697 100.40937499999997
    vertex 36.2232704546401 19.088306727892594 100.40937499999997
    vertex 36.93017208421572 13.313721226314534 100.40937499999997
  endloop
endfacet
facet normal 0.0 0.0 -1.0
  outer loop
    vertex 36.93017208421572 13.313721226314534 100.40937499999997
    vertex 36.2232704546401 19.088306727892594 100.40937499999997
    vertex 36.97861529988695 18.64300509499755 100.40937499999997
  endloop
endfacet
facet normal 0.0 0.0 -1.0
  outer loop
    vertex 36.93017208421572 13.313721226314534 100.40937499999997
    vertex 36.97861529988695 18.64300509499755 100.40937499999997
    vertex 37.555798063487686 13.928075776684219 100.40937499999997
  endloop
endfacet
facet normal 0.0 0.0 -1.0
  outer loop
    vertex 37.555798063487686 13.928075776684219 100.40937499999997
    vertex 36.97861529988695 18.64300509499755 100.40937499999997
    vertex 37.59296985025664 18.017379115725646 100.40937499999997
  endloop
endfacet
facet normal 0.0 0.0 -1.0
  outer loop
    vertex 37.555798063487686 13.928075776684219 100.40937499999997
    vertex 37.59296985025664 18.017379115725646 100.40937499999997
    vertex 38.001099696382674 14.683420621931031 100.40937499999997
  endloop
endfacet
facet normal 0.0 0.0 -1.0
  outer loop
    vertex 38.001099696382674 14.683420621931031 100.40937499999997
    vertex 37.59296985025664 18.017379115725646 100.40937499999997
    vertex 38.02446685841042 17.254064166668453 100.40937499999997
  endloop
endfacet
facet normal 0.0 0.0 -1.0
  outer loop
    vertex 38.001099696382674 14.683420621931031 100.40937499999997
    vertex 38.02446685841042 17.254064166668453 100.40937499999997
    vertex 38.23573041251479 15.528280259117677 100.40937499999997
  endloop
endfacet
facet normal 0.0 0.0 -1.0
  outer loop
    vertex 38.23573041251479 15.528280259117677 100.40937499999997
    vertex 38.02446685841042 17.254064166668453 100.40937499999997
    vertex 38.24370051632524 16.40507890016659 100.40937499999997
  endloop
endfacet
facet normal 0.0 0.0 1.0
  outer loop
    vertex 31.781486580261827 14.734372935811619 107.55312499999997
    vertex 31.569305280884443 16.467653782577138 107.55312499999997
    vertex 31.56130055432454 15.58704626019219 107.55312499999997
  endloop
endfacet
facet normal 0.0 0.0 1.0
  outer loop
    vertex 31.569305280884443 16.467653782577138 107.55312499999997
    vertex 31.781486580261827 14.734372935811619 107.55312499999997
    vertex 31.804955251054686 17.316183555588623 107.55312499999997
  endloop
endfacet
facet normal 0.0 0.0 1.0
  outer loop
    vertex 31.804955251054686 17.316183555588623 107.55312499999997
    vertex 31.781486580261827 14.734372935811619 107.55312499999997
    vertex 32.214858044903096 13.967742087382645 107.55312499999997
  endloop
endfacet
facet normal 0.0 0.0 1.0
  outer loop
    vertex 31.804955251054686 17.316183555588623 107.55312499999997
    vertex 32.214858044903096 13.967742087382645 107.55312499999997
    vertex 32.25219130879838 18.074809677457736 107.55312499999997
  endloop
endfacet
facet normal 0.0 0.0 1.0
  outer loop
    vertex 32.25219130879838 18.074809677457736 107.55312499999997
    vertex 32.214858044903096 13.967742087382645 107.55312499999997
    vertex 32.831881399113314 13.339398340308339 107.55312499999997
  endloop
endfacet
facet normal 0.0 0.0 1.0
  outer loop
    vertex 32.25219130879838 18.074809677457736 107.55312499999997
    vertex 32.831881399113314 13.339398340308339 107.55312499999997
    vertex 32.88053505587269 18.691833031668043 107.55312499999997
  endloop
endfacet
facet normal 0.0 0.0 1.0
  outer loop
    vertex 32.88053505587269 18.691833031668043 107.55312499999997
    vertex 32.831881399113314 13.339398340308339 107.55312499999997
    vertex 33.59050752098242 12.892162282564678 107.55312499999997
  endloop
endfacet
facet normal 0.0 0.0 1.0
  outer loop
    vertex 32.88053505587269 18.691833031668043 107.55312499999997
    vertex 33.59050752098242 12.892162282564678 107.55312499999997
    vertex 33.64716590430162 19.12520449630932 107.55312499999997
  endloop
endfacet
facet normal 0.0 0.0 1.0
  outer loop
    vertex 33.64716590430162 19.12520449630932 107.55312499999997
    vertex 33.59050752098242 12.892162282564678 107.55312499999997
    vertex 34.43903729399405 12.656512312394392 107.55312499999997
  endloop
endfacet
facet normal 0.0 0.0 1.0
  outer loop
    vertex 33.64716590430162 19.12520449630932 107.55312499999997
    vertex 34.43903729399405 12.656512312394392 107.55312499999997
    vertex 34.49983922868218 19.345390522246557 107.55312499999997
  endloop
endfacet
facet normal 0.0 0.0 1.0
  outer loop
    vertex 34.49983922868218 19.345390522246557 107.55312499999997
    vertex 34.43903729399405 12.656512312394392 107.55312499999997
    vertex 35.31964481637892 12.648507585834555 107.55312499999997
  endloop
endfacet
facet normal 0.0 0.0 1.0
  outer loop
    vertex 34.49983922868218 19.345390522246557 107.55312499999997
    vertex 35.31964481637892 12.648507585834555 107.55312499999997
    vertex 35.38044675106711 19.337385795686707 107.55312499999997
  endloop
endfacet
facet normal 0.0 0.0 1.0
  outer loop
    vertex 35.38044675106711 19.337385795686707 107.55312499999997
    vertex 35.31964481637892 12.648507585834555 107.55312499999997
    vertex 36.172318140759465 12.868693611771773 107.55312499999997
  endloop
endfacet
facet normal 0.0 0.0 1.0
  outer loop
    vertex 35.38044675106711 19.337385795686707 107.55312499999997
    vertex 36.172318140759465 12.868693611771773 107.55312499999997
    vertex 36.228976524078625 19.10173582551637 107.55312499999997
  endloop
endfacet
facet normal 0.0 0.0 1.0
  outer loop
    vertex 36.228976524078625 19.10173582551637 107.55312499999997
    vertex 36.172318140759465 12.868693611771773 107.55312499999997
    vertex 36.93894898918851 13.30206507641308 107.55312499999997
  endloop
endfacet
facet normal 0.0 0.0 1.0
  outer loop
    vertex 36.228976524078625 19.10173582551637 107.55312499999997
    vertex 36.93894898918851 13.30206507641308 107.55312499999997
    vertex 36.98760264594778 18.654499767772737 107.55312499999997
  endloop
endfacet
facet normal 0.0 0.0 1.0
  outer loop
    vertex 36.98760264594778 18.654499767772737 107.55312499999997
    vertex 36.93894898918851 13.30206507641308 107.55312499999997
    vertex 37.56729273626278 13.919088430623344 107.55312499999997
  endloop
endfacet
facet normal 0.0 0.0 1.0
  outer loop
    vertex 36.98760264594778 18.654499767772737 107.55312499999997
    vertex 37.56729273626278 13.919088430623344 107.55312499999997
    vertex 37.60462600015804 18.02615602069843 107.55312499999997
  endloop
endfacet
facet normal 0.0 0.0 1.0
  outer loop
    vertex 37.60462600015804 18.02615602069843 107.55312499999997
    vertex 37.56729273626278 13.919088430623344 107.55312499999997
    vertex 38.014528794006424 14.677714552492466 107.55312499999997
  endloop
endfacet
facet normal 0.0 0.0 1.0
  outer loop
    vertex 37.60462600015804 18.02615602069843 107.55312499999997
    vertex 38.014528794006424 14.677714552492466 107.55312499999997
    vertex 38.03799746479935 17.259525172269512 107.55312499999997
  endloop
endfacet
facet normal 0.0 0.0 1.0
  outer loop
    vertex 38.03799746479935 17.259525172269512 107.55312499999997
    vertex 38.014528794006424 14.677714552492466 107.55312499999997
    vertex 38.250178764176745 15.526244325503995 107.55312499999997
  endloop
endfacet
facet normal 0.0 0.0 1.0
  outer loop
    vertex 38.03799746479935 17.259525172269512 107.55312499999997
    vertex 38.250178764176745 15.526244325503995 107.55312499999997
    vertex 38.258183490736585 16.406851847888937 107.55312499999997
  endloop
endfacet
facet normal -0.22401422061577303 0.8674980593701321 0.444144960515103
  outer loop
    vertex 33.64716590430162 19.12520449630932 107.55312499999997
    vertex 34.427503441532544 19.936291957812333 106.36249999999997
    vertex 33.42435835402599 19.677249574356768 106.36249999999997
  endloop
endfacet
facet normal -0.22401422061577303 0.8674980593701321 0.444144960515103
  outer loop
    vertex 34.427503441532544 19.936291957812333 106.36249999999997
    vertex 33.64716590430162 19.12520449630932 107.55312499999997
    vertex 34.49983922868218 19.345390522246557 107.55312499999997
  endloop
endfacet
facet normal 0.22401422061577075 -0.8674980593701318 0.44414496051510505
  outer loop
    vertex 36.172318140759465 12.868693611771773 107.55312499999997
    vertex 35.391980603528715 12.057606150268803 106.36249999999997
    vertex 36.39512569103523 12.31664853372437 106.36249999999997
  endloop
endfacet
facet normal 0.22401422061577075 -0.8674980593701318 0.44414496051510505
  outer loop
    vertex 35.391980603528715 12.057606150268803 106.36249999999997
    vertex 36.172318140759465 12.868693611771773 107.55312499999997
    vertex 35.31964481637892 12.648507585834555 107.55312499999997
  endloop
endfacet
facet normal 0.23974702382284788 0.8632824674561043 0.4441449605151311
  outer loop
    vertex 35.38044675106711 19.337385795686707 107.55312499999997
    vertex 36.46178261258717 19.64963937342392 106.36249999999997
    vertex 35.463512291397144 19.926874632447806 106.36249999999997
  endloop
endfacet
facet normal 0.23974702382284788 0.8632824674561043 0.4441449605151311
  outer loop
    vertex 36.46178261258717 19.64963937342392 106.36249999999997
    vertex 35.38044675106711 19.337385795686707 107.55312499999997
    vertex 36.228976524078625 19.10173582551637 107.55312499999997
  endloop
endfacet
facet normal -0.44090614050325616 0.7799596331321054 0.4441449605150943
  outer loop
    vertex 32.88053505587269 18.691833031668043 107.55312499999997
    vertex 33.42435835402599 19.677249574356768 106.36249999999997
    vertex 32.522439708815455 19.16740079242583 106.36249999999997
  endloop
endfacet
facet normal -0.44090614050325616 0.7799596331321054 0.4441449605150943
  outer loop
    vertex 33.42435835402599 19.677249574356768 106.36249999999997
    vertex 32.88053505587269 18.691833031668043 107.55312499999997
    vertex 33.64716590430162 19.12520449630932 107.55312499999997
  endloop
endfacet
facet normal 0.7718157349264059 -0.4550117859671592 0.4441449605151321
  outer loop
    vertex 38.562432341914 14.444908463983992 106.36249999999997
    vertex 37.56729273626278 13.919088430623344 107.55312499999997
    vertex 38.03627227398028 13.552407144137977 106.36249999999997
  endloop
endfacet
facet normal 0.7718157349264059 -0.4550117859671592 0.4441449605151321
  outer loop
    vertex 37.56729273626278 13.919088430623344 107.55312499999997
    vertex 38.562432341914 14.444908463983992 106.36249999999997
    vertex 38.014528794006424 14.677714552492466 107.55312499999997
  endloop
endfacet
facet normal 0.8674980593701178 0.22401422061575146 0.44414496051514213
  outer loop
    vertex 38.849084926302396 16.479187635038656 106.36249999999997
    vertex 38.03799746479935 17.259525172269512 107.55312499999997
    vertex 38.258183490736585 16.406851847888937 107.55312499999997
  endloop
endfacet
facet normal 0.8674980593701178 0.22401422061575146 0.44414496051514213
  outer loop
    vertex 38.03799746479935 17.259525172269512 107.55312499999997
    vertex 38.849084926302396 16.479187635038656 106.36249999999997
    vertex 38.59004254284686 17.48233272254521 106.36249999999997
  endloop
endfacet
facet normal 0.45501178596712405 0.7718157349264174 0.4441449605151481
  outer loop
    vertex 36.228976524078625 19.10173582551637 107.55312499999997
    vertex 37.35428393243326 19.123479305490214 106.36249999999997
    vertex 36.46178261258717 19.64963937342392 106.36249999999997
  endloop
endfacet
facet normal 0.45501178596712405 0.7718157349264174 0.4441449605151481
  outer loop
    vertex 37.35428393243326 19.123479305490214 106.36249999999997
    vertex 36.228976524078625 19.10173582551637 107.55312499999997
    vertex 36.98760264594778 18.654499767772737 107.55312499999997
  endloop
endfacet
facet normal -0.4550117859671828 -0.7718157349264398 0.4441449605150487
  outer loop
    vertex 33.59050752098242 12.892162282564678 107.55312499999997
    vertex 32.46520011262805 12.870418802590923 106.36249999999997
    vertex 33.35770143247406 12.344258734657219 106.36249999999997
  endloop
endfacet
facet normal -0.4550117859671828 -0.7718157349264398 0.4441449605150487
  outer loop
    vertex 32.46520011262805 12.870418802590923 106.36249999999997
    vertex 33.59050752098242 12.892162282564678 107.55312499999997
    vertex 32.831881399113314 13.339398340308339 107.55312499999997
  endloop
endfacet
facet normal -0.6277510355472972 0.6392682468403552 0.4441449605150943
  outer loop
    vertex 32.25219130879838 18.074809677457736 107.55312499999997
    vertex 32.522439708815455 19.16740079242583 106.36249999999997
    vertex 31.783211771080992 18.441490963943167 106.36249999999997
  endloop
endfacet
facet normal -0.6277510355472972 0.6392682468403552 0.4441449605150943
  outer loop
    vertex 32.522439708815455 19.16740079242583 106.36249999999997
    vertex 32.25219130879838 18.074809677457736 107.55312499999997
    vertex 32.88053505587269 18.691833031668043 107.55312499999997
  endloop
endfacet
facet normal 0.8632824674561029 -0.23974702382283825 0.44414496051513863
  outer loop
    vertex 38.83966760093788 15.443178785174014 106.36249999999997
    vertex 38.014528794006424 14.677714552492466 107.55312499999997
    vertex 38.562432341914 14.444908463983992 106.36249999999997
  endloop
endfacet
facet normal 0.8632824674561029 -0.23974702382283825 0.44414496051513863
  outer loop
    vertex 38.014528794006424 14.677714552492466 107.55312499999997
    vertex 38.83966760093788 15.443178785174014 106.36249999999997
    vertex 38.250178764176745 15.526244325503995 107.55312499999997
  endloop
endfacet
facet normal 0.44090614050322613 -0.7799596331321125 0.44414496051511143
  outer loop
    vertex 36.93894898918851 13.30206507641308 107.55312499999997
    vertex 36.39512569103523 12.31664853372437 106.36249999999997
    vertex 37.29704433624583 12.82649731565531 106.36249999999997
  endloop
endfacet
facet normal 0.44090614050322613 -0.7799596331321125 0.44414496051511143
  outer loop
    vertex 36.39512569103523 12.31664853372437 106.36249999999997
    vertex 36.93894898918851 13.30206507641308 107.55312499999997
    vertex 36.172318140759465 12.868693611771773 107.55312499999997
  endloop
endfacet
facet normal -0.8632824674561413 0.23974702382282864 0.44414496051506935
  outer loop
    vertex 31.804955251054686 17.316183555588623 107.55312499999997
    vertex 30.97981644412339 16.550719322907124 106.36249999999997
    vertex 31.569305280884443 16.467653782577138 107.55312499999997
  endloop
endfacet
facet normal -0.8632824674561413 0.23974702382282864 0.44414496051506935
  outer loop
    vertex 30.97981644412339 16.550719322907124 106.36249999999997
    vertex 31.804955251054686 17.316183555588623 107.55312499999997
    vertex 31.257051703147287 17.548989644097144 106.36249999999997
  endloop
endfacet
facet normal -0.6392682468403861 -0.6277510355472943 0.444144960515054
  outer loop
    vertex 32.831881399113314 13.339398340308339 107.55312499999997
    vertex 31.739290284145376 13.609646740325383 106.36249999999997
    vertex 32.46520011262805 12.870418802590923 106.36249999999997
  endloop
endfacet
facet normal -0.6392682468403861 -0.6277510355472943 0.444144960515054
  outer loop
    vertex 31.739290284145376 13.609646740325383 106.36249999999997
    vertex 32.831881399113314 13.339398340308339 107.55312499999997
    vertex 32.214858044903096 13.967742087382645 107.55312499999997
  endloop
endfacet
facet normal 0.6392682468403483 0.6277510355472619 0.4441449605151545
  outer loop
    vertex 38.08019376091589 18.384251367755756 106.36249999999997
    vertex 36.98760264594778 18.654499767772737 107.55312499999997
    vertex 37.60462600015804 18.02615602069843 107.55312499999997
  endloop
endfacet
facet normal 0.6392682468403483 0.6277510355472619 0.4441449605151545
  outer loop
    vertex 36.98760264594778 18.654499767772737 107.55312499999997
    vertex 38.08019376091589 18.384251367755756 106.36249999999997
    vertex 37.35428393243326 19.123479305490214 106.36249999999997
  endloop
endfacet
facet normal -0.867498059370146 -0.22401422061579396 0.4441449605150654
  outer loop
    vertex 31.781486580261827 14.734372935811619 107.55312499999997
    vertex 30.970399118758873 15.514710473042483 106.36249999999997
    vertex 31.229441502214435 14.511565385535922 106.36249999999997
  endloop
endfacet
facet normal -0.867498059370146 -0.22401422061579396 0.4441449605150654
  outer loop
    vertex 30.970399118758873 15.514710473042483 106.36249999999997
    vertex 31.781486580261827 14.734372935811619 107.55312499999997
    vertex 31.56130055432454 15.58704626019219 107.55312499999997
  endloop
endfacet
facet normal 0.008143898205684771 0.8959179264704127 0.44414496051511343
  outer loop
    vertex 34.49983922868218 19.345390522246557 107.55312499999997
    vertex 35.463512291397144 19.926874632447806 106.36249999999997
    vertex 34.427503441532544 19.936291957812333 106.36249999999997
  endloop
endfacet
facet normal 0.008143898205684771 0.8959179264704127 0.44414496051511343
  outer loop
    vertex 35.463512291397144 19.926874632447806 106.36249999999997
    vertex 34.49983922868218 19.345390522246557 107.55312499999997
    vertex 35.38044675106711 19.337385795686707 107.55312499999997
  endloop
endfacet
facet normal 0.6277510355472955 -0.6392682468403398 0.444144960515119
  outer loop
    vertex 37.56729273626278 13.919088430623344 107.55312499999997
    vertex 37.29704433624583 12.82649731565531 106.36249999999997
    vertex 38.03627227398028 13.552407144137977 106.36249999999997
  endloop
endfacet
facet normal 0.6277510355472955 -0.6392682468403398 0.444144960515119
  outer loop
    vertex 37.29704433624583 12.82649731565531 106.36249999999997
    vertex 37.56729273626278 13.919088430623344 107.55312499999997
    vertex 36.93894898918851 13.30206507641308 107.55312499999997
  endloop
endfacet
facet normal -0.008143898205680204 -0.8959179264704233 0.4441449605150924
  outer loop
    vertex 35.31964481637892 12.648507585834555 107.55312499999997
    vertex 34.355971753664086 12.067023475633333 106.36249999999997
    vertex 35.391980603528715 12.057606150268803 106.36249999999997
  endloop
endfacet
facet normal -0.008143898205680204 -0.8959179264704233 0.4441449605150924
  outer loop
    vertex 34.355971753664086 12.067023475633333 106.36249999999997
    vertex 35.31964481637892 12.648507585834555 107.55312499999997
    vertex 34.43903729399405 12.656512312394392 107.55312499999997
  endloop
endfacet
facet normal 0.7799596331320701 0.4409061405032641 0.44414496051514835
  outer loop
    vertex 38.59004254284686 17.48233272254521 106.36249999999997
    vertex 37.60462600015804 18.02615602069843 107.55312499999997
    vertex 38.03799746479935 17.259525172269512 107.55312499999997
  endloop
endfacet
facet normal 0.7799596331320701 0.4409061405032641 0.44414496051514835
  outer loop
    vertex 37.60462600015804 18.02615602069843 107.55312499999997
    vertex 38.59004254284686 17.48233272254521 106.36249999999997
    vertex 38.08019376091589 18.384251367755756 106.36249999999997
  endloop
endfacet
facet normal 0.8959179264704021 -0.008143898205676401 0.44414496051513525
  outer loop
    vertex 38.849084926302396 16.479187635038656 106.36249999999997
    vertex 38.250178764176745 15.526244325503995 107.55312499999997
    vertex 38.83966760093788 15.443178785174014 106.36249999999997
  endloop
endfacet
facet normal 0.8959179264704021 -0.008143898205676401 0.44414496051513525
  outer loop
    vertex 38.250178764176745 15.526244325503995 107.55312499999997
    vertex 38.849084926302396 16.479187635038656 106.36249999999997
    vertex 38.258183490736585 16.406851847888937 107.55312499999997
  endloop
endfacet
facet normal -0.8959179264704363 0.008143898205703161 0.4441449605150653
  outer loop
    vertex 31.56130055432454 15.58704626019219 107.55312499999997
    vertex 30.97981644412339 16.550719322907124 106.36249999999997
    vertex 30.970399118758873 15.514710473042483 106.36249999999997
  endloop
endfacet
facet normal -0.8959179264704363 0.008143898205703161 0.4441449605150653
  outer loop
    vertex 30.97981644412339 16.550719322907124 106.36249999999997
    vertex 31.56130055432454 15.58704626019219 107.55312499999997
    vertex 31.569305280884443 16.467653782577138 107.55312499999997
  endloop
endfacet
facet normal -0.23974702382282265 -0.863282467456141 0.44414496051507313
  outer loop
    vertex 34.43903729399405 12.656512312394392 107.55312499999997
    vertex 33.35770143247406 12.344258734657219 106.36249999999997
    vertex 34.355971753664086 12.067023475633333 106.36249999999997
  endloop
endfacet
facet normal -0.23974702382282265 -0.863282467456141 0.44414496051507313
  outer loop
    vertex 33.35770143247406 12.344258734657219 106.36249999999997
    vertex 34.43903729399405 12.656512312394392 107.55312499999997
    vertex 33.59050752098242 12.892162282564678 107.55312499999997
  endloop
endfacet
facet normal -0.771815734926424 0.4550117859671831 0.444144960515076
  outer loop
    vertex 32.25219130879838 18.074809677457736 107.55312499999997
    vertex 31.257051703147287 17.548989644097144 106.36249999999997
    vertex 31.804955251054686 17.316183555588623 107.55312499999997
  endloop
endfacet
facet normal -0.771815734926424 0.4550117859671831 0.444144960515076
  outer loop
    vertex 31.257051703147287 17.548989644097144 106.36249999999997
    vertex 32.25219130879838 18.074809677457736 107.55312499999997
    vertex 31.783211771080992 18.441490963943167 106.36249999999997
  endloop
endfacet
facet normal -0.7799596331321188 -0.44090614050325133 0.4441449605150754
  outer loop
    vertex 32.214858044903096 13.967742087382645 107.55312499999997
    vertex 31.229441502214435 14.511565385535922 106.36249999999997
    vertex 31.739290284145376 13.609646740325383 106.36249999999997
  endloop
endfacet
facet normal -0.7799596331321188 -0.44090614050325133 0.4441449605150754
  outer loop
    vertex 31.229441502214435 14.511565385535922 106.36249999999997
    vertex 32.214858044903096 13.967742087382645 107.55312499999997
    vertex 31.781486580261827 14.734372935811619 107.55312499999997
  endloop
endfacet
facet normal -0.7680658177665504 0.45280108148557346 -0.4528201410980914
  outer loop
    vertex 31.257051703147287 17.548989644097144 101.59999999999997
    vertex 32.26368598157357 18.065822331396873 100.40937499999997
    vertex 31.81838434867857 17.310477486150067 100.40937499999997
  endloop
endfacet
facet normal -0.7680658177665504 0.45280108148557346 -0.4528201410980914
  outer loop
    vertex 32.26368598157357 18.065822331396873 100.40937499999997
    vertex 31.257051703147287 17.548989644097144 101.59999999999997
    vertex 31.783211771080992 18.441490963943167 101.59999999999997
  endloop
endfacet
facet normal 0.7761701483108451 0.43876396922148336 -0.4528201410981292
  outer loop
    vertex 37.59296985025664 18.017379115725646 100.40937499999997
    vertex 38.59004254284686 17.48233272254521 101.59999999999997
    vertex 38.02446685841042 17.254064166668453 100.40937499999997
  endloop
endfacet
facet normal 0.7761701483108451 0.43876396922148336 -0.4528201410981292
  outer loop
    vertex 38.59004254284686 17.48233272254521 101.59999999999997
    vertex 37.59296985025664 18.017379115725646 100.40937499999997
    vertex 38.08019376091589 18.384251367755756 101.59999999999997
  endloop
endfacet
facet normal -0.8915650507070972 0.008104330544291062 -0.45282014109807467
  outer loop
    vertex 30.97981644412339 16.550719322907124 101.59999999999997
    vertex 31.575783528736004 15.588819207914534 100.40937499999997
    vertex 30.970399118758873 15.514710473042483 101.59999999999997
  endloop
endfacet
facet normal -0.8915650507070972 0.008104330544291062 -0.45282014109807467
  outer loop
    vertex 31.575783528736004 15.588819207914534 100.40937499999997
    vertex 30.97981644412339 16.550719322907124 101.59999999999997
    vertex 31.58375363254635 16.465617848963387 100.40937499999997
  endloop
endfacet
facet normal -0.4387639692214825 0.7761701483108586 -0.45282014109810736
  outer loop
    vertex 32.522439708815455 19.16740079242583 101.59999999999997
    vertex 33.65262690990274 19.111673889920382 100.40937499999997
    vertex 32.889311960845504 18.680176881766567 100.40937499999997
  endloop
endfacet
facet normal -0.4387639692214825 0.7761701483108586 -0.45282014109810736
  outer loop
    vertex 33.65262690990274 19.111673889920382 100.40937499999997
    vertex 32.522439708815455 19.16740079242583 101.59999999999997
    vertex 33.42435835402599 19.677249574356768 101.59999999999997
  endloop
endfacet
facet normal 0.8590881532020109 -0.23858219724832208 -0.4528201410981199
  outer loop
    vertex 38.001099696382674 14.683420621931031 100.40937499999997
    vertex 38.83966760093788 15.443178785174014 101.59999999999997
    vertex 38.562432341914 14.444908463983992 101.59999999999997
  endloop
endfacet
facet normal 0.8590881532020109 -0.23858219724832208 -0.4528201410981199
  outer loop
    vertex 38.83966760093788 15.443178785174014 101.59999999999997
    vertex 38.001099696382674 14.683420621931031 100.40937499999997
    vertex 38.23573041251479 15.528280259117677 100.40937499999997
  endloop
endfacet
facet normal 0.6247010661390309 -0.636162320308793 -0.4528201410980865
  outer loop
    vertex 38.03627227398028 13.552407144137977 101.59999999999997
    vertex 36.93017208421572 13.313721226314534 100.40937499999997
    vertex 37.555798063487686 13.928075776684219 100.40937499999997
  endloop
endfacet
facet normal 0.6247010661390309 -0.636162320308793 -0.4528201410980865
  outer loop
    vertex 36.93017208421572 13.313721226314534 100.40937499999997
    vertex 38.03627227398028 13.552407144137977 101.59999999999997
    vertex 37.29704433624583 12.82649731565531 101.59999999999997
  endloop
endfacet
facet normal 0.8632832633873557 0.22292583289324364 -0.4528201410981307
  outer loop
    vertex 38.02446685841042 17.254064166668453 100.40937499999997
    vertex 38.849084926302396 16.479187635038656 101.59999999999997
    vertex 38.24370051632524 16.40507890016659 100.40937499999997
  endloop
endfacet
facet normal 0.8632832633873557 0.22292583289324364 -0.4528201410981307
  outer loop
    vertex 38.849084926302396 16.479187635038656 101.59999999999997
    vertex 38.02446685841042 17.254064166668453 100.40937499999997
    vertex 38.59004254284686 17.48233272254521 101.59999999999997
  endloop
endfacet
facet normal -0.6247010661390351 0.6361623203087869 -0.4528201410980891
  outer loop
    vertex 31.783211771080992 18.441490963943167 101.59999999999997
    vertex 32.889311960845504 18.680176881766567 100.40937499999997
    vertex 32.26368598157357 18.065822331396873 100.40937499999997
  endloop
endfacet
facet normal -0.6247010661390351 0.6361623203087869 -0.4528201410980891
  outer loop
    vertex 32.889311960845504 18.680176881766567 100.40937499999997
    vertex 31.783211771080992 18.441490963943167 101.59999999999997
    vertex 32.522439708815455 19.16740079242583 101.59999999999997
  endloop
endfacet
facet normal -0.2229258328932378 0.8632832633873628 -0.45282014109812024
  outer loop
    vertex 33.42435835402599 19.677249574356768 101.59999999999997
    vertex 34.50161217640457 19.330907547835142 100.40937499999997
    vertex 33.65262690990274 19.111673889920382 100.40937499999997
  endloop
endfacet
facet normal -0.2229258328932378 0.8632832633873628 -0.45282014109812024
  outer loop
    vertex 34.50161217640457 19.330907547835142 100.40937499999997
    vertex 33.42435835402599 19.677249574356768 101.59999999999997
    vertex 34.427503441532544 19.936291957812333 101.59999999999997
  endloop
endfacet
facet normal 0.6361623203087777 0.6247010661390213 -0.45282014109812097
  outer loop
    vertex 36.97861529988695 18.64300509499755 100.40937499999997
    vertex 38.08019376091589 18.384251367755756 101.59999999999997
    vertex 37.59296985025664 18.017379115725646 100.40937499999997
  endloop
endfacet
facet normal 0.6361623203087777 0.6247010661390213 -0.45282014109812097
  outer loop
    vertex 38.08019376091589 18.384251367755756 101.59999999999997
    vertex 36.97861529988695 18.64300509499755 100.40937499999997
    vertex 37.35428393243326 19.123479305490214 101.59999999999997
  endloop
endfacet
facet normal 0.008104330544316082 0.8915650507070739 -0.45282014109812013
  outer loop
    vertex 34.427503441532544 19.936291957812333 101.59999999999997
    vertex 35.378410817453364 19.322937444024753 100.40937499999997
    vertex 34.50161217640457 19.330907547835142 100.40937499999997
  endloop
endfacet
facet normal 0.008104330544316082 0.8915650507070739 -0.45282014109812013
  outer loop
    vertex 35.378410817453364 19.322937444024753 100.40937499999997
    vertex 34.427503441532544 19.936291957812333 101.59999999999997
    vertex 35.463512291397144 19.926874632447806 101.59999999999997
  endloop
endfacet
facet normal -0.008104330544324915 -0.891565050707079 -0.4528201410981096
  outer loop
    vertex 35.391980603528715 12.057606150268803 101.59999999999997
    vertex 34.44107322760772 12.67096066405638 100.40937499999997
    vertex 35.31787186865668 12.662990560245968 100.40937499999997
  endloop
endfacet
facet normal -0.008104330544324915 -0.891565050707079 -0.4528201410981096
  outer loop
    vertex 34.44107322760772 12.67096066405638 100.40937499999997
    vertex 35.391980603528715 12.057606150268803 101.59999999999997
    vertex 34.355971753664086 12.067023475633333 101.59999999999997
  endloop
endfacet
facet normal 0.45280108148555437 0.7680658177665411 -0.45282014109812596
  outer loop
    vertex 36.46178261258717 19.64963937342392 101.59999999999997
    vertex 36.97861529988695 18.64300509499755 100.40937499999997
    vertex 36.2232704546401 19.088306727892594 100.40937499999997
  endloop
endfacet
facet normal 0.45280108148555437 0.7680658177665411 -0.45282014109812596
  outer loop
    vertex 36.97861529988695 18.64300509499755 100.40937499999997
    vertex 36.46178261258717 19.64963937342392 101.59999999999997
    vertex 37.35428393243326 19.123479305490214 101.59999999999997
  endloop
endfacet
facet normal 0.43876396922147015 -0.7761701483108698 -0.45282014109809976
  outer loop
    vertex 37.29704433624583 12.82649731565531 101.59999999999997
    vertex 36.16685713515843 12.882224218160697 100.40937499999997
    vertex 36.93017208421572 13.313721226314534 100.40937499999997
  endloop
endfacet
facet normal 0.43876396922147015 -0.7761701483108698 -0.45282014109809976
  outer loop
    vertex 36.16685713515843 12.882224218160697 100.40937499999997
    vertex 37.29704433624583 12.82649731565531 101.59999999999997
    vertex 36.39512569103523 12.31664853372437 101.59999999999997
  endloop
endfacet
facet normal 0.891565050707073 -0.008104330544333673 -0.45282014109812135
  outer loop
    vertex 38.23573041251479 15.528280259117677 100.40937499999997
    vertex 38.849084926302396 16.479187635038656 101.59999999999997
    vertex 38.83966760093788 15.443178785174014 101.59999999999997
  endloop
endfacet
facet normal 0.891565050707073 -0.008104330544333673 -0.45282014109812135
  outer loop
    vertex 38.849084926302396 16.479187635038656 101.59999999999997
    vertex 38.23573041251479 15.528280259117677 100.40937499999997
    vertex 38.24370051632524 16.40507890016659 100.40937499999997
  endloop
endfacet
facet normal -0.4528010814855973 -0.7680658177665325 -0.4528201410980976
  outer loop
    vertex 33.35770143247406 12.344258734657219 101.59999999999997
    vertex 32.84086874517431 13.350893013083564 100.40937499999997
    vertex 33.5962135904211 12.905591380188499 100.40937499999997
  endloop
endfacet
facet normal -0.4528010814855973 -0.7680658177665325 -0.4528201410980976
  outer loop
    vertex 32.84086874517431 13.350893013083564 100.40937499999997
    vertex 33.35770143247406 12.344258734657219 101.59999999999997
    vertex 32.46520011262805 12.870418802590923 101.59999999999997
  endloop
endfacet
facet normal -0.7761701483108518 -0.4387639692215167 -0.45282014109808594
  outer loop
    vertex 31.229441502214435 14.511565385535922 101.59999999999997
    vertex 32.226514194804636 13.976518992355434 100.40937499999997
    vertex 31.739290284145376 13.609646740325383 101.59999999999997
  endloop
endfacet
facet normal -0.7761701483108518 -0.4387639692215167 -0.45282014109808594
  outer loop
    vertex 32.226514194804636 13.976518992355434 100.40937499999997
    vertex 31.229441502214435 14.511565385535922 101.59999999999997
    vertex 31.795017186650725 14.739833941412702 100.40937499999997
  endloop
endfacet
facet normal -0.8590881532020173 0.2385821972483706 -0.4528201410980822
  outer loop
    vertex 30.97981644412339 16.550719322907124 101.59999999999997
    vertex 31.81838434867857 17.310477486150067 100.40937499999997
    vertex 31.58375363254635 16.465617848963387 100.40937499999997
  endloop
endfacet
facet normal -0.8590881532020173 0.2385821972483706 -0.4528201410980822
  outer loop
    vertex 31.81838434867857 17.310477486150067 100.40937499999997
    vertex 30.97981644412339 16.550719322907124 101.59999999999997
    vertex 31.257051703147287 17.548989644097144 101.59999999999997
  endloop
endfacet
facet normal 0.22292583289324042 -0.863283263387373 -0.45282014109809926
  outer loop
    vertex 36.39512569103523 12.31664853372437 101.59999999999997
    vertex 35.31787186865668 12.662990560245968 100.40937499999997
    vertex 36.16685713515843 12.882224218160697 100.40937499999997
  endloop
endfacet
facet normal 0.22292583289324042 -0.863283263387373 -0.45282014109809926
  outer loop
    vertex 35.31787186865668 12.662990560245968 100.40937499999997
    vertex 36.39512569103523 12.31664853372437 101.59999999999997
    vertex 35.391980603528715 12.057606150268803 101.59999999999997
  endloop
endfacet
facet normal 0.2385821972483304 0.859088153202006 -0.4528201410981248
  outer loop
    vertex 35.463512291397144 19.926874632447806 101.59999999999997
    vertex 36.2232704546401 19.088306727892594 100.40937499999997
    vertex 35.378410817453364 19.322937444024753 100.40937499999997
  endloop
endfacet
facet normal 0.2385821972483304 0.859088153202006 -0.4528201410981248
  outer loop
    vertex 36.2232704546401 19.088306727892594 100.40937499999997
    vertex 35.463512291397144 19.926874632447806 101.59999999999997
    vertex 36.46178261258717 19.64963937342392 101.59999999999997
  endloop
endfacet
facet normal 0.7680658177665511 -0.4528010814855745 -0.45282014109808894
  outer loop
    vertex 37.555798063487686 13.928075776684219 100.40937499999997
    vertex 38.562432341914 14.444908463983992 101.59999999999997
    vertex 38.03627227398028 13.552407144137977 101.59999999999997
  endloop
endfacet
facet normal 0.7680658177665511 -0.4528010814855745 -0.45282014109808894
  outer loop
    vertex 38.562432341914 14.444908463983992 101.59999999999997
    vertex 37.555798063487686 13.928075776684219 100.40937499999997
    vertex 38.001099696382674 14.683420621931031 100.40937499999997
  endloop
endfacet
facet normal -0.8632832633873881 -0.2229258328932229 -0.4528201410980794
  outer loop
    vertex 30.970399118758873 15.514710473042483 101.59999999999997
    vertex 31.795017186650725 14.739833941412702 100.40937499999997
    vertex 31.229441502214435 14.511565385535922 101.59999999999997
  endloop
endfacet
facet normal -0.8632832633873881 -0.2229258328932229 -0.4528201410980794
  outer loop
    vertex 31.795017186650725 14.739833941412702 100.40937499999997
    vertex 30.970399118758873 15.514710473042483 101.59999999999997
    vertex 31.575783528736004 15.588819207914534 100.40937499999997
  endloop
endfacet
facet normal -0.23858219724832913 -0.8590881532020217 -0.4528201410980954
  outer loop
    vertex 34.355971753664086 12.067023475633333 101.59999999999997
    vertex 33.5962135904211 12.905591380188499 100.40937499999997
    vertex 34.44107322760772 12.67096066405638 100.40937499999997
  endloop
endfacet
facet normal -0.23858219724832913 -0.8590881532020217 -0.4528201410980954
  outer loop
    vertex 33.5962135904211 12.905591380188499 100.40937499999997
    vertex 34.355971753664086 12.067023475633333 101.59999999999997
    vertex 33.35770143247406 12.344258734657219 101.59999999999997
  endloop
endfacet
facet normal -0.6361623203087746 -0.6247010661390431 -0.4528201410980956
  outer loop
    vertex 31.739290284145376 13.609646740325383 101.59999999999997
    vertex 32.84086874517431 13.350893013083564 100.40937499999997
    vertex 32.46520011262805 12.870418802590923 101.59999999999997
  endloop
endfacet
facet normal -0.6361623203087746 -0.6247010661390431 -0.4528201410980956
  outer loop
    vertex 32.84086874517431 13.350893013083564 100.40937499999997
    vertex 31.739290284145376 13.609646740325383 101.59999999999997
    vertex 32.226514194804636 13.976518992355434 100.40937499999997
  endloop
endfacet
endsolid Puzzle
