solid Puzzle
facet normal -3.6960332087163108e-31 1.0 0.0
  outer loop
    vertex 9.625465835130141 31.75 153.98749999999993
    vertex 76.18106513425332 31.75 144.46249999999992
    vertex 9.625465835130152 31.75 144.46249999999992
  endloop
endfacet
facet normal -3.6960332087163108e-31 1.0 0.0
  outer loop
    vertex 76.18106513425332 31.75 144.46249999999992
    vertex 9.625465835130141 31.75 153.98749999999993
    vertex 76.18106513425332 31.749999999999975 153.98749999999993
  endloop
endfacet
facet normal 1.0 -2.668763959682625e-30 -1.7729919071726358e-16
  outer loop
    vertex 76.18106513425332 31.75 144.46249999999992
    vertex 76.18106513425332 0.0 153.98749999999993
    vertex 76.1810651342533 0.0 144.46249999999992
  endloop
endfacet
facet normal 1.0 -2.668763959682625e-30 -1.7729919071726358e-16
  outer loop
    vertex 76.18106513425332 0.0 153.98749999999993
    vertex 76.18106513425332 31.75 144.46249999999992
    vertex 76.18106513425332 31.749999999999975 153.98749999999993
  endloop
endfacet
facet normal -0.9042571408361897 -0.42698831745934185 0.0
  outer loop
    vertex 9.625465835130141 31.75 153.98749999999993
    vertex 24.61774896689256 0.0 144.46249999999992
    vertex 24.61774896689255 0.0 153.98749999999993
  endloop
endfacet
facet normal -0.9042571408361897 -0.42698831745934185 0.0
  outer loop
    vertex 24.61774896689256 0.0 144.46249999999992
    vertex 9.625465835130141 31.75 153.98749999999993
    vertex 9.625465835130152 31.75 144.46249999999992
  endloop
endfacet
facet normal -7.464629411839928e-17 -1.0 4.032637155301937e-16
  outer loop
    vertex 76.18106513425332 0.0 153.98749999999993
    vertex 24.61774896689256 0.0 144.46249999999992
    vertex 76.1810651342533 0.0 144.46249999999992
  endloop
endfacet
facet normal -7.464629411839928e-17 -1.0 4.032637155301937e-16
  outer loop
    vertex 24.61774896689256 0.0 144.46249999999992
    vertex 76.18106513425332 0.0 153.98749999999993
    vertex 24.61774896689255 0.0 153.98749999999993
  endloop
endfacet
facet normal 0.0 0.0 -1.0
  outer loop
    vertex 9.625465835130152 31.75 144.46249999999992
    vertex 46.49687476920627 19.66816817596885 144.4624999999999
    vertex 24.61774896689256 0.0 144.46249999999992
  endloop
endfacet
facet normal 0.0 0.0 -1.0
  outer loop
    vertex 46.49687476920627 19.66816817596885 144.4624999999999
    vertex 9.625465835130152 31.75 144.46249999999992
    vertex 47.48322081460721 20.425018116091305 144.4624999999999
  endloop
endfacet
facet normal 0.0 0.0 -1.0
  outer loop
    vertex 47.48322081460721 20.425018116091305 144.4624999999999
    vertex 9.625465835130152 31.75 144.46249999999992
    vertex 48.63184511230646 20.900793878269614 144.4624999999999
  endloop
endfacet
facet normal 0.0 0.0 -1.0
  outer loop
    vertex 48.63184511230646 20.900793878269614 144.4624999999999
    vertex 9.625465835130152 31.75 144.46249999999992
    vertex 76.18106513425332 31.75 144.46249999999992
  endloop
endfacet
facet normal 0.0 0.0 -1.0
  outer loop
    vertex 24.61774896689256 0.0 144.46249999999992
    vertex 46.49687476920627 19.66816817596885 144.4624999999999
    vertex 45.740024829083815 18.681822130567916 144.4624999999999
  endloop
endfacet
facet normal 0.0 0.0 -1.0
  outer loop
    vertex 24.61774896689256 0.0 144.46249999999992
    vertex 45.740024829083815 18.681822130567916 144.4624999999999
    vertex 45.26424906690551 17.533197832868677 144.4624999999999
  endloop
endfacet
facet normal 0.0 0.0 -1.0
  outer loop
    vertex 24.61774896689256 0.0 144.46249999999992
    vertex 45.26424906690551 17.533197832868677 144.4624999999999
    vertex 45.10197081460721 16.300572130567915 144.4624999999999
  endloop
endfacet
facet normal 0.0 0.0 -1.0
  outer loop
    vertex 48.63184511230646 20.900793878269614 144.4624999999999
    vertex 76.18106513425332 31.75 144.46249999999992
    vertex 49.8644708146072 21.063072130567917 144.4624999999999
  endloop
endfacet
facet normal 0.0 0.0 -1.0
  outer loop
    vertex 49.8644708146072 21.063072130567917 144.4624999999999
    vertex 76.18106513425332 31.75 144.46249999999992
    vertex 51.09709651690797 20.900793878269592 144.4624999999999
  endloop
endfacet
facet normal 0.0 0.0 -1.0
  outer loop
    vertex 51.09709651690797 20.900793878269592 144.4624999999999
    vertex 76.18106513425332 31.75 144.46249999999992
    vertex 52.24572081460722 20.425018116091305 144.4624999999999
  endloop
endfacet
facet normal 0.0 0.0 -1.0
  outer loop
    vertex 52.24572081460722 20.425018116091305 144.4624999999999
    vertex 76.18106513425332 31.75 144.46249999999992
    vertex 53.23206686000814 19.66816817596885 144.4624999999999
  endloop
endfacet
facet normal 0.0 0.0 -1.0
  outer loop
    vertex 53.23206686000814 19.66816817596885 144.4624999999999
    vertex 76.18106513425332 31.75 144.46249999999992
    vertex 53.9889168001306 18.681822130567916 144.4624999999999
  endloop
endfacet
facet normal 0.0 0.0 -1.0
  outer loop
    vertex 53.9889168001306 18.681822130567916 144.4624999999999
    vertex 76.18106513425332 31.75 144.46249999999992
    vertex 54.46469256230889 17.533197832868677 144.4624999999999
  endloop
endfacet
facet normal 0.0 0.0 -1.0
  outer loop
    vertex 54.46469256230889 17.533197832868677 144.4624999999999
    vertex 76.18106513425332 31.75 144.46249999999992
    vertex 54.62697081460721 16.30057213056794 144.4624999999999
  endloop
endfacet
facet normal 0.0 0.0 -1.0
  outer loop
    vertex 54.62697081460721 16.30057213056794 144.4624999999999
    vertex 76.18106513425332 31.75 144.46249999999992
    vertex 58.78956535864313 18.195666196665083 144.46249999999984
  endloop
endfacet
facet normal 0.0 0.0 -1.0
  outer loop
    vertex 54.62697081460721 16.30057213056794 144.4624999999999
    vertex 58.78956535864313 18.195666196665083 144.46249999999984
    vertex 58.24060622640731 17.724092389733254 144.46249999999984
  endloop
endfacet
facet normal 0.0 0.0 -1.0
  outer loop
    vertex 54.62697081460721 16.30057213056794 144.4624999999999
    vertex 58.24060622640731 17.724092389733254 144.46249999999984
    vertex 57.83240470540895 17.126505992210745 144.46249999999984
  endloop
endfacet
facet normal 0.0 0.0 -1.0
  outer loop
    vertex 54.62697081460721 16.30057213056794 144.4624999999999
    vertex 57.83240470540895 17.126505992210745 144.46249999999984
    vertex 57.59277905471917 16.4436315295305 144.46249999999984
  endloop
endfacet
facet normal 0.0 0.0 -1.0
  outer loop
    vertex 54.62697081460721 16.30057213056794 144.4624999999999
    vertex 57.59277905471917 16.4436315295305 144.46249999999984
    vertex 57.5380593664324 15.722005767820797 144.46249999999986
  endloop
endfacet
facet normal 0.0 0.0 -1.0
  outer loop
    vertex 58.78956535864313 18.195666196665083 144.46249999999984
    vertex 76.18106513425332 31.75 144.46249999999992
    vertex 59.44187144445242 18.509090437376404 144.46249999999984
  endloop
endfacet
facet normal 0.0 0.0 -1.0
  outer loop
    vertex 59.44187144445242 18.509090437376404 144.46249999999984
    vertex 76.18106513425332 31.75 144.46249999999992
    vertex 60.15307090207402 18.643005767820824 144.4624999999998
  endloop
endfacet
facet normal 0.0 0.0 -1.0
  outer loop
    vertex 60.15307090207402 18.643005767820824 144.4624999999998
    vertex 76.18106513425332 31.75 144.46249999999992
    vertex 60.327953054020355 18.62974474341012 144.46249999999978
  endloop
endfacet
facet normal 0.0 0.0 -1.0
  outer loop
    vertex 60.327953054020355 18.62974474341012 144.46249999999978
    vertex 76.18106513425332 31.75 144.46249999999992
    vertex 60.87469666378372 18.588286079534058 144.4624999999998
  endloop
endfacet
facet normal 0.0 0.0 -1.0
  outer loop
    vertex 60.87469666378372 18.588286079534058 144.4624999999998
    vertex 76.18106513425332 31.75 144.46249999999992
    vertex 61.55757112646395 18.348660428844262 144.4624999999998
  endloop
endfacet
facet normal 0.0 0.0 -1.0
  outer loop
    vertex 61.55757112646395 18.348660428844262 144.4624999999998
    vertex 76.18106513425332 31.75 144.46249999999992
    vertex 62.155157523986446 17.940458907845905 144.4624999999998
  endloop
endfacet
facet normal 0.0 0.0 -1.0
  outer loop
    vertex 62.155157523986446 17.940458907845905 144.4624999999998
    vertex 76.18106513425332 31.75 144.46249999999992
    vertex 62.6267313309183 17.39149977561008 144.4624999999998
  endloop
endfacet
facet normal 0.0 0.0 -1.0
  outer loop
    vertex 62.6267313309183 17.39149977561008 144.4624999999998
    vertex 76.18106513425332 31.75 144.46249999999992
    vertex 62.94015557162962 16.7391936898008 144.4624999999998
  endloop
endfacet
facet normal 0.0 0.0 -1.0
  outer loop
    vertex 62.94015557162962 16.7391936898008 144.4624999999998
    vertex 76.18106513425332 31.75 144.46249999999992
    vertex 63.07407090207401 16.02799423217918 144.4624999999998
  endloop
endfacet
facet normal 0.0 0.0 -1.0
  outer loop
    vertex 63.07407090207401 16.02799423217918 144.4624999999998
    vertex 76.18106513425332 31.75 144.46249999999992
    vertex 76.1810651342533 0.0 144.46249999999992
  endloop
endfacet
facet normal 0.0 0.0 -1.0
  outer loop
    vertex 24.61774896689256 0.0 144.46249999999992
    vertex 47.48322081460721 12.176126145044528 144.4624999999999
    vertex 76.1810651342533 0.0 144.46249999999992
  endloop
endfacet
facet normal 0.0 0.0 -1.0
  outer loop
    vertex 47.48322081460721 12.176126145044528 144.4624999999999
    vertex 24.61774896689256 0.0 144.46249999999992
    vertex 46.49687476920627 12.932976085167002 144.4624999999999
  endloop
endfacet
facet normal 0.0 0.0 -1.0
  outer loop
    vertex 46.49687476920627 12.932976085167002 144.4624999999999
    vertex 24.61774896689256 0.0 144.46249999999992
    vertex 45.740024829083815 13.919322130567917 144.4624999999999
  endloop
endfacet
facet normal 0.0 0.0 -1.0
  outer loop
    vertex 45.740024829083815 13.919322130567917 144.4624999999999
    vertex 24.61774896689256 0.0 144.46249999999992
    vertex 45.26424906690551 15.067946428267154 144.4624999999999
  endloop
endfacet
facet normal 0.0 0.0 -1.0
  outer loop
    vertex 45.26424906690551 15.067946428267154 144.4624999999999
    vertex 24.61774896689256 0.0 144.46249999999992
    vertex 45.10197081460721 16.300572130567915 144.4624999999999
  endloop
endfacet
facet normal 0.0 0.0 -1.0
  outer loop
    vertex 76.1810651342533 0.0 144.46249999999992
    vertex 47.48322081460721 12.176126145044528 144.4624999999999
    vertex 48.63184511230645 11.70035038286624 144.4624999999999
  endloop
endfacet
facet normal 0.0 0.0 -1.0
  outer loop
    vertex 76.1810651342533 0.0 144.46249999999992
    vertex 48.63184511230645 11.70035038286624 144.4624999999999
    vertex 49.8644708146072 11.538072130567917 144.4624999999999
  endloop
endfacet
facet normal 0.0 0.0 -1.0
  outer loop
    vertex 76.1810651342533 0.0 144.46249999999992
    vertex 49.8644708146072 11.538072130567917 144.4624999999999
    vertex 51.09709651690797 11.700350382866217 144.4624999999999
  endloop
endfacet
facet normal 0.0 0.0 -1.0
  outer loop
    vertex 76.1810651342533 0.0 144.46249999999992
    vertex 51.09709651690797 11.700350382866217 144.4624999999999
    vertex 52.2457208146072 12.176126145044528 144.4624999999999
  endloop
endfacet
facet normal 0.0 0.0 -1.0
  outer loop
    vertex 76.1810651342533 0.0 144.46249999999992
    vertex 52.2457208146072 12.176126145044528 144.4624999999999
    vertex 53.23206686000814 12.93297608516698 144.4624999999999
  endloop
endfacet
facet normal 0.0 0.0 -1.0
  outer loop
    vertex 76.1810651342533 0.0 144.46249999999992
    vertex 53.23206686000814 12.93297608516698 144.4624999999999
    vertex 53.988916800130596 13.919322130567917 144.4624999999999
  endloop
endfacet
facet normal 0.0 0.0 -1.0
  outer loop
    vertex 76.1810651342533 0.0 144.46249999999992
    vertex 53.988916800130596 13.919322130567917 144.4624999999999
    vertex 54.46469256230889 15.067946428267177 144.4624999999999
  endloop
endfacet
facet normal 0.0 0.0 -1.0
  outer loop
    vertex 76.1810651342533 0.0 144.46249999999992
    vertex 54.46469256230889 15.067946428267177 144.4624999999999
    vertex 54.62697081460721 16.30057213056794 144.4624999999999
  endloop
endfacet
facet normal 0.0 0.0 -1.0
  outer loop
    vertex 76.1810651342533 0.0 144.46249999999992
    vertex 54.62697081460721 16.30057213056794 144.4624999999999
    vertex 58.456972744519966 13.809541092154094 144.46249999999986
  endloop
endfacet
facet normal 0.0 0.0 -1.0
  outer loop
    vertex 58.456972744519966 13.809541092154094 144.46249999999986
    vertex 54.62697081460721 16.30057213056794 144.4624999999999
    vertex 57.98539893758813 14.35850022438992 144.46249999999986
  endloop
endfacet
facet normal 0.0 0.0 -1.0
  outer loop
    vertex 57.98539893758813 14.35850022438992 144.46249999999986
    vertex 54.62697081460721 16.30057213056794 144.4624999999999
    vertex 57.671974696876795 15.010806310199197 144.46249999999986
  endloop
endfacet
facet normal 0.0 0.0 -1.0
  outer loop
    vertex 57.671974696876795 15.010806310199197 144.46249999999986
    vertex 54.62697081460721 16.30057213056794 144.4624999999999
    vertex 57.5380593664324 15.722005767820797 144.46249999999986
  endloop
endfacet
facet normal 0.0 0.0 -1.0
  outer loop
    vertex 76.1810651342533 0.0 144.46249999999992
    vertex 58.456972744519966 13.809541092154094 144.46249999999986
    vertex 59.05455914204248 13.401339571155713 144.46249999999986
  endloop
endfacet
facet normal 0.0 0.0 -1.0
  outer loop
    vertex 76.1810651342533 0.0 144.46249999999992
    vertex 59.05455914204248 13.401339571155713 144.46249999999986
    vertex 59.7374336047227 13.161713920465964 144.46249999999986
  endloop
endfacet
facet normal 0.0 0.0 -1.0
  outer loop
    vertex 76.1810651342533 0.0 144.46249999999992
    vertex 59.7374336047227 13.161713920465964 144.46249999999986
    vertex 60.4590593664324 13.106994232179195 144.46249999999986
  endloop
endfacet
facet normal 0.0 0.0 -1.0
  outer loop
    vertex 76.1810651342533 0.0 144.46249999999992
    vertex 60.4590593664324 13.106994232179195 144.46249999999986
    vertex 61.170258824054 13.240909562623571 144.46249999999984
  endloop
endfacet
facet normal 0.0 0.0 -1.0
  outer loop
    vertex 76.1810651342533 0.0 144.46249999999992
    vertex 61.170258824054 13.240909562623571 144.46249999999984
    vertex 61.82256490986329 13.554333803334915 144.46249999999984
  endloop
endfacet
facet normal 0.0 0.0 -1.0
  outer loop
    vertex 76.1810651342533 0.0 144.46249999999992
    vertex 61.82256490986329 13.554333803334915 144.46249999999984
    vertex 62.371524042099104 14.025907610266767 144.46249999999984
  endloop
endfacet
facet normal 0.0 0.0 -1.0
  outer loop
    vertex 76.1810651342533 0.0 144.46249999999992
    vertex 62.371524042099104 14.025907610266767 144.46249999999984
    vertex 62.779725563097465 14.623494007789274 144.46249999999984
  endloop
endfacet
facet normal 0.0 0.0 -1.0
  outer loop
    vertex 76.1810651342533 0.0 144.46249999999992
    vertex 62.779725563097465 14.623494007789274 144.46249999999984
    vertex 63.019351213787246 15.306368470469499 144.46249999999984
  endloop
endfacet
facet normal 0.0 0.0 -1.0
  outer loop
    vertex 76.1810651342533 0.0 144.46249999999992
    vertex 63.019351213787246 15.306368470469499 144.46249999999984
    vertex 63.07407090207401 16.02799423217918 144.4624999999998
  endloop
endfacet
facet normal -1.189736808655135e-17 -7.392386145072499e-19 1.0
  outer loop
    vertex 24.61774896689255 0.0 153.98749999999993
    vertex 55.477178188072834 14.581103642429715 153.98749999999987
    vertex 55.306833500979465 15.874999999999977 153.98749999999993
  endloop
endfacet
facet normal -1.189736808655135e-17 -7.392386145072499e-19 1.0
  outer loop
    vertex 55.477178188072834 14.581103642429715 153.98749999999987
    vertex 24.61774896689255 0.0 153.98749999999993
    vertex 55.97660354043539 13.3753841833631 153.98749999999967
  endloop
endfacet
facet normal -1.189736808655135e-17 -7.392386145072499e-19 1.0
  outer loop
    vertex 55.97660354043539 13.3753841833631 153.98749999999967
    vertex 24.61774896689255 0.0 153.98749999999993
    vertex 56.078593301117934 13.242468539471577 153.98749999999995
  endloop
endfacet
facet normal -1.189736808655135e-17 -7.392386145072499e-19 1.0
  outer loop
    vertex 56.078593301117934 13.242468539471577 153.98749999999995
    vertex 24.61774896689255 0.0 153.98749999999993
    vertex 56.24884776015869 13.020588608610323 153.98749999999995
  endloop
endfacet
facet normal -1.189736808655135e-17 -7.392386145072499e-19 1.0
  outer loop
    vertex 56.24884776015869 13.020588608610323 153.98749999999995
    vertex 24.61774896689255 0.0 153.98749999999993
    vertex 56.771074545643096 12.34000941138977 153.98749999999995
  endloop
endfacet
facet normal -1.189736808655135e-17 -7.392386145072499e-19 1.0
  outer loop
    vertex 56.771074545643096 12.34000941138977 153.98749999999995
    vertex 24.61774896689255 0.0 153.98749999999993
    vertex 57.80644931761638 11.545538406182057 153.98749999999995
  endloop
endfacet
facet normal -1.189736808655135e-17 -7.392386145072499e-19 1.0
  outer loop
    vertex 57.80644931761638 11.545538406182057 153.98749999999995
    vertex 24.61774896689255 0.0 153.98749999999993
    vertex 76.18106513425332 0.0 153.98749999999993
  endloop
endfacet
facet normal -1.189736808655135e-17 -7.392386145072499e-19 1.0
  outer loop
    vertex 57.80644931761638 11.545538406182057 153.98749999999995
    vertex 76.18106513425332 0.0 153.98749999999993
    vertex 59.01216877668306 11.046113053819509 153.98749999999995
  endloop
endfacet
facet normal -1.189736808655135e-17 -7.392386145072499e-19 1.0
  outer loop
    vertex 59.01216877668306 11.046113053819509 153.98749999999995
    vertex 76.18106513425332 0.0 153.98749999999993
    vertex 60.30606513425331 10.875768366726154 153.98749999999993
  endloop
endfacet
facet normal -1.189736808655135e-17 -7.392386145072499e-19 1.0
  outer loop
    vertex 60.30606513425331 10.875768366726154 153.98749999999993
    vertex 76.18106513425332 0.0 153.98749999999993
    vertex 61.59996149182357 11.046113053819488 153.98749999999998
  endloop
endfacet
facet normal -1.189736808655135e-17 -7.392386145072499e-19 1.0
  outer loop
    vertex 61.59996149182357 11.046113053819488 153.98749999999998
    vertex 76.18106513425332 0.0 153.98749999999993
    vertex 62.805680950890256 11.545538406182102 153.98749999999998
  endloop
endfacet
facet normal -1.189736808655135e-17 -7.392386145072499e-19 1.0
  outer loop
    vertex 62.805680950890256 11.545538406182102 153.98749999999998
    vertex 76.18106513425332 0.0 153.98749999999993
    vertex 63.841055722863544 12.34000941138975 153.98749999999998
  endloop
endfacet
facet normal -1.189736808655135e-17 -7.392386145072499e-19 1.0
  outer loop
    vertex 63.841055722863544 12.34000941138975 153.98749999999998
    vertex 76.18106513425332 0.0 153.98749999999993
    vertex 64.63552672807123 13.375384183363076 153.98749999999993
  endloop
endfacet
facet normal -1.189736808655135e-17 -7.392386145072499e-19 1.0
  outer loop
    vertex 64.63552672807123 13.375384183363076 153.98749999999993
    vertex 76.18106513425332 0.0 153.98749999999993
    vertex 65.1349520804338 14.581103642429738 153.98749999999995
  endloop
endfacet
facet normal -1.189736808655135e-17 -7.392386145072499e-19 1.0
  outer loop
    vertex 65.1349520804338 14.581103642429738 153.98749999999995
    vertex 76.18106513425332 0.0 153.98749999999993
    vertex 65.30529676752715 15.874999999999977 153.98749999999995
  endloop
endfacet
facet normal -1.189736808655135e-17 -7.392386145072499e-19 1.0
  outer loop
    vertex 24.61774896689255 0.0 153.98749999999993
    vertex 76.18106513425332 31.749999999999975 153.98749999999993
    vertex 9.625465835130141 31.75 153.98749999999993
  endloop
endfacet
facet normal -1.189736808655135e-17 -7.392386145072499e-19 1.0
  outer loop
    vertex 76.18106513425332 31.749999999999975 153.98749999999993
    vertex 24.61774896689255 0.0 153.98749999999993
    vertex 57.80644931761638 20.204461593817896 153.98749999999987
  endloop
endfacet
facet normal -1.189736808655135e-17 -7.392386145072499e-19 1.0
  outer loop
    vertex 57.80644931761638 20.204461593817896 153.98749999999987
    vertex 24.61774896689255 0.0 153.98749999999993
    vertex 56.771074545643096 19.409990588610206 153.98749999999984
  endloop
endfacet
facet normal -1.189736808655135e-17 -7.392386145072499e-19 1.0
  outer loop
    vertex 56.771074545643096 19.409990588610206 153.98749999999984
    vertex 24.61774896689255 0.0 153.98749999999993
    vertex 56.248847760158675 18.72941139138965 153.9874999999999
  endloop
endfacet
facet normal -1.189736808655135e-17 -7.392386145072499e-19 1.0
  outer loop
    vertex 56.248847760158675 18.72941139138965 153.9874999999999
    vertex 24.61774896689255 0.0 153.98749999999993
    vertex 56.07859330111797 18.507531460528465 153.9874999999999
  endloop
endfacet
facet normal -1.189736808655135e-17 -7.392386145072499e-19 1.0
  outer loop
    vertex 56.07859330111797 18.507531460528465 153.9874999999999
    vertex 24.61774896689255 0.0 153.98749999999993
    vertex 55.97660354043539 18.374615816636922 153.9874999999996
  endloop
endfacet
facet normal -1.189736808655135e-17 -7.392386145072499e-19 1.0
  outer loop
    vertex 55.97660354043539 18.374615816636922 153.9874999999996
    vertex 24.61774896689255 0.0 153.98749999999993
    vertex 55.47717818807282 17.168896357570215 153.98749999999987
  endloop
endfacet
facet normal -1.189736808655135e-17 -7.392386145072499e-19 1.0
  outer loop
    vertex 55.47717818807282 17.168896357570215 153.98749999999987
    vertex 24.61774896689255 0.0 153.98749999999993
    vertex 55.306833500979465 15.874999999999977 153.98749999999993
  endloop
endfacet
facet normal -1.189736808655135e-17 -7.392386145072499e-19 1.0
  outer loop
    vertex 76.18106513425332 31.749999999999975 153.98749999999993
    vertex 57.80644931761638 20.204461593817896 153.98749999999987
    vertex 59.01216877668306 20.703886946180464 153.98749999999987
  endloop
endfacet
facet normal -1.189736808655135e-17 -7.392386145072499e-19 1.0
  outer loop
    vertex 76.18106513425332 31.749999999999975 153.98749999999993
    vertex 59.01216877668306 20.703886946180464 153.98749999999987
    vertex 60.30606513425331 20.874231633273823 153.98749999999995
  endloop
endfacet
facet normal -1.189736808655135e-17 -7.392386145072499e-19 1.0
  outer loop
    vertex 76.18106513425332 31.749999999999975 153.98749999999993
    vertex 60.30606513425331 20.874231633273823 153.98749999999995
    vertex 61.599961491823564 20.703886946180443 153.98749999999984
  endloop
endfacet
facet normal -1.189736808655135e-17 -7.392386145072499e-19 1.0
  outer loop
    vertex 76.18106513425332 31.749999999999975 153.98749999999993
    vertex 61.599961491823564 20.703886946180443 153.98749999999984
    vertex 62.80568095089025 20.204461593817918 153.98749999999993
  endloop
endfacet
facet normal -1.189736808655135e-17 -7.392386145072499e-19 1.0
  outer loop
    vertex 76.18106513425332 31.749999999999975 153.98749999999993
    vertex 62.80568095089025 20.204461593817918 153.98749999999993
    vertex 63.841055722863544 19.409990588610206 153.98749999999987
  endloop
endfacet
facet normal -1.189736808655135e-17 -7.392386145072499e-19 1.0
  outer loop
    vertex 76.18106513425332 31.749999999999975 153.98749999999993
    vertex 63.841055722863544 19.409990588610206 153.98749999999987
    vertex 64.63552672807123 18.374615816636922 153.98749999999993
  endloop
endfacet
facet normal -1.189736808655135e-17 -7.392386145072499e-19 1.0
  outer loop
    vertex 76.18106513425332 31.749999999999975 153.98749999999993
    vertex 64.63552672807123 18.374615816636922 153.98749999999993
    vertex 65.1349520804338 17.168896357570237 153.98749999999998
  endloop
endfacet
facet normal -1.189736808655135e-17 -7.392386145072499e-19 1.0
  outer loop
    vertex 76.18106513425332 31.749999999999975 153.98749999999993
    vertex 65.1349520804338 17.168896357570237 153.98749999999998
    vertex 65.30529676752715 15.874999999999977 153.98749999999995
  endloop
endfacet
facet normal -1.189736808655135e-17 -7.392386145072499e-19 1.0
  outer loop
    vertex 76.18106513425332 31.749999999999975 153.98749999999993
    vertex 65.30529676752715 15.874999999999977 153.98749999999995
    vertex 76.18106513425332 0.0 153.98749999999993
  endloop
endfacet
facet normal -9.991928704056809e-15 8.436999930902229e-15 1.0
  outer loop
    vertex 55.477178188072834 14.581103642429715 153.98749999999987
    vertex 55.47717818807282 17.168896357570215 153.98749999999987
    vertex 55.306833500979465 15.874999999999977 153.98749999999993
  endloop
endfacet
facet normal -9.991928704056809e-15 8.436999930902229e-15 1.0
  outer loop
    vertex 55.47717818807282 17.168896357570215 153.98749999999987
    vertex 55.477178188072834 14.581103642429715 153.98749999999987
    vertex 55.97660354043539 18.374615816636922 153.9874999999996
  endloop
endfacet
facet normal -9.991928704056809e-15 8.436999930902229e-15 1.0
  outer loop
    vertex 55.97660354043539 18.374615816636922 153.9874999999996
    vertex 55.477178188072834 14.581103642429715 153.98749999999987
    vertex 55.97660354043539 13.3753841833631 153.98749999999967
  endloop
endfacet
facet normal -9.991928704056809e-15 8.436999930902229e-15 1.0
  outer loop
    vertex 55.97660354043539 18.374615816636922 153.9874999999996
    vertex 55.97660354043539 13.3753841833631 153.98749999999967
    vertex 56.078593301117934 13.242468539471577 153.98749999999995
  endloop
endfacet
facet normal -9.991928704056809e-15 8.436999930902229e-15 1.0
  outer loop
    vertex 55.97660354043539 18.374615816636922 153.9874999999996
    vertex 56.078593301117934 13.242468539471577 153.98749999999995
    vertex 56.07859330111797 18.507531460528465 153.9874999999999
  endloop
endfacet
facet normal -9.991928704056809e-15 8.436999930902229e-15 1.0
  outer loop
    vertex 56.07859330111797 18.507531460528465 153.9874999999999
    vertex 56.078593301117934 13.242468539471577 153.98749999999995
    vertex 56.24884776015869 13.020588608610323 153.98749999999995
  endloop
endfacet
facet normal -9.991928704056809e-15 8.436999930902229e-15 1.0
  outer loop
    vertex 56.07859330111797 18.507531460528465 153.9874999999999
    vertex 56.24884776015869 13.020588608610323 153.98749999999995
    vertex 56.248847760158675 18.72941139138965 153.9874999999999
  endloop
endfacet
facet normal -9.991928704056809e-15 8.436999930902229e-15 1.0
  outer loop
    vertex 56.248847760158675 18.72941139138965 153.9874999999999
    vertex 56.24884776015869 13.020588608610323 153.98749999999995
    vertex 56.771074545643096 19.409990588610206 153.98749999999984
  endloop
endfacet
facet normal -9.991928704056809e-15 8.436999930902229e-15 1.0
  outer loop
    vertex 56.771074545643096 19.409990588610206 153.98749999999984
    vertex 56.24884776015869 13.020588608610323 153.98749999999995
    vertex 56.771074545643096 12.34000941138977 153.98749999999995
  endloop
endfacet
facet normal -9.991928704056809e-15 8.436999930902229e-15 1.0
  outer loop
    vertex 56.771074545643096 19.409990588610206 153.98749999999984
    vertex 56.771074545643096 12.34000941138977 153.98749999999995
    vertex 57.80644931761638 11.545538406182057 153.98749999999995
  endloop
endfacet
facet normal -9.991928704056809e-15 8.436999930902229e-15 1.0
  outer loop
    vertex 56.771074545643096 19.409990588610206 153.98749999999984
    vertex 57.80644931761638 11.545538406182057 153.98749999999995
    vertex 57.53805936643242 15.722005767820866 153.98749999999993
  endloop
endfacet
facet normal -9.991928704056809e-15 8.436999930902229e-15 1.0
  outer loop
    vertex 57.53805936643242 15.722005767820866 153.98749999999993
    vertex 57.80644931761638 11.545538406182057 153.98749999999995
    vertex 57.671974696876816 15.010806310199264 153.98749999999993
  endloop
endfacet
facet normal -9.991928704056809e-15 8.436999930902229e-15 1.0
  outer loop
    vertex 57.671974696876816 15.010806310199264 153.98749999999993
    vertex 57.80644931761638 11.545538406182057 153.98749999999995
    vertex 57.98539893758816 14.358500224389989 153.98749999999993
  endloop
endfacet
facet normal -9.991928704056809e-15 8.436999930902229e-15 1.0
  outer loop
    vertex 57.98539893758816 14.358500224389989 153.98749999999993
    vertex 57.80644931761638 11.545538406182057 153.98749999999995
    vertex 59.01216877668306 11.046113053819509 153.98749999999995
  endloop
endfacet
facet normal -9.991928704056809e-15 8.436999930902229e-15 1.0
  outer loop
    vertex 57.98539893758816 14.358500224389989 153.98749999999993
    vertex 59.01216877668306 11.046113053819509 153.98749999999995
    vertex 58.45697274451999 13.809541092154161 153.98749999999993
  endloop
endfacet
facet normal -9.991928704056809e-15 8.436999930902229e-15 1.0
  outer loop
    vertex 58.45697274451999 13.809541092154161 153.98749999999993
    vertex 59.01216877668306 11.046113053819509 153.98749999999995
    vertex 59.0545591420425 13.40133957115578 153.98749999999993
  endloop
endfacet
facet normal -9.991928704056809e-15 8.436999930902229e-15 1.0
  outer loop
    vertex 59.0545591420425 13.40133957115578 153.98749999999993
    vertex 59.01216877668306 11.046113053819509 153.98749999999995
    vertex 60.30606513425331 10.875768366726154 153.98749999999993
  endloop
endfacet
facet normal -9.991928704056809e-15 8.436999930902229e-15 1.0
  outer loop
    vertex 59.0545591420425 13.40133957115578 153.98749999999993
    vertex 60.30606513425331 10.875768366726154 153.98749999999993
    vertex 59.737433604722725 13.161713920466031 153.98749999999993
  endloop
endfacet
facet normal -9.991928704056809e-15 8.436999930902229e-15 1.0
  outer loop
    vertex 59.737433604722725 13.161713920466031 153.98749999999993
    vertex 60.30606513425331 10.875768366726154 153.98749999999993
    vertex 60.459059366432435 13.106994232179241 153.98749999999995
  endloop
endfacet
facet normal -9.991928704056809e-15 8.436999930902229e-15 1.0
  outer loop
    vertex 60.459059366432435 13.106994232179241 153.98749999999995
    vertex 60.30606513425331 10.875768366726154 153.98749999999993
    vertex 61.59996149182357 11.046113053819488 153.98749999999998
  endloop
endfacet
facet normal -9.991928704056809e-15 8.436999930902229e-15 1.0
  outer loop
    vertex 60.459059366432435 13.106994232179241 153.98749999999995
    vertex 61.59996149182357 11.046113053819488 153.98749999999998
    vertex 61.17025882405404 13.240909562623639 153.9874999999999
  endloop
endfacet
facet normal -9.991928704056809e-15 8.436999930902229e-15 1.0
  outer loop
    vertex 61.17025882405404 13.240909562623639 153.9874999999999
    vertex 61.59996149182357 11.046113053819488 153.98749999999998
    vertex 61.822564909863324 13.554333803334982 153.9874999999999
  endloop
endfacet
facet normal -9.991928704056809e-15 8.436999930902229e-15 1.0
  outer loop
    vertex 61.822564909863324 13.554333803334982 153.9874999999999
    vertex 61.59996149182357 11.046113053819488 153.98749999999998
    vertex 62.805680950890256 11.545538406182102 153.98749999999998
  endloop
endfacet
facet normal -9.991928704056809e-15 8.436999930902229e-15 1.0
  outer loop
    vertex 61.822564909863324 13.554333803334982 153.9874999999999
    vertex 62.805680950890256 11.545538406182102 153.98749999999998
    vertex 62.37152404209915 14.025907610266811 153.9874999999999
  endloop
endfacet
facet normal -9.991928704056809e-15 8.436999930902229e-15 1.0
  outer loop
    vertex 62.37152404209915 14.025907610266811 153.9874999999999
    vertex 62.805680950890256 11.545538406182102 153.98749999999998
    vertex 62.7797255630975 14.623494007789342 153.98749999999993
  endloop
endfacet
facet normal -9.991928704056809e-15 8.436999930902229e-15 1.0
  outer loop
    vertex 62.7797255630975 14.623494007789342 153.98749999999993
    vertex 62.805680950890256 11.545538406182102 153.98749999999998
    vertex 63.01935121378728 15.306368470469568 153.9874999999999
  endloop
endfacet
facet normal -9.991928704056809e-15 8.436999930902229e-15 1.0
  outer loop
    vertex 63.01935121378728 15.306368470469568 153.9874999999999
    vertex 62.805680950890256 11.545538406182102 153.98749999999998
    vertex 63.841055722863544 12.34000941138975 153.98749999999998
  endloop
endfacet
facet normal -9.991928704056809e-15 8.436999930902229e-15 1.0
  outer loop
    vertex 63.01935121378728 15.306368470469568 153.9874999999999
    vertex 63.841055722863544 12.34000941138975 153.98749999999998
    vertex 63.07407090207405 16.027994232179246 153.98749999999987
  endloop
endfacet
facet normal -9.991928704056809e-15 8.436999930902229e-15 1.0
  outer loop
    vertex 57.53805936643242 15.722005767820866 153.98749999999993
    vertex 57.80644931761638 20.204461593817896 153.98749999999987
    vertex 56.771074545643096 19.409990588610206 153.98749999999984
  endloop
endfacet
facet normal -9.991928704056809e-15 8.436999930902229e-15 1.0
  outer loop
    vertex 57.80644931761638 20.204461593817896 153.98749999999987
    vertex 57.53805936643242 15.722005767820866 153.98749999999993
    vertex 57.5927790547192 16.443631529530567 153.9874999999999
  endloop
endfacet
facet normal -9.991928704056809e-15 8.436999930902229e-15 1.0
  outer loop
    vertex 57.80644931761638 20.204461593817896 153.98749999999987
    vertex 57.5927790547192 16.443631529530567 153.9874999999999
    vertex 57.83240470540897 17.12650599221079 153.9874999999999
  endloop
endfacet
facet normal -9.991928704056809e-15 8.436999930902229e-15 1.0
  outer loop
    vertex 57.80644931761638 20.204461593817896 153.98749999999987
    vertex 57.83240470540897 17.12650599221079 153.9874999999999
    vertex 59.01216877668306 20.703886946180464 153.98749999999987
  endloop
endfacet
facet normal -9.991928704056809e-15 8.436999930902229e-15 1.0
  outer loop
    vertex 59.01216877668306 20.703886946180464 153.98749999999987
    vertex 57.83240470540897 17.12650599221079 153.9874999999999
    vertex 58.24060622640733 17.7240923897333 153.9874999999999
  endloop
endfacet
facet normal -9.991928704056809e-15 8.436999930902229e-15 1.0
  outer loop
    vertex 59.01216877668306 20.703886946180464 153.98749999999987
    vertex 58.24060622640733 17.7240923897333 153.9874999999999
    vertex 58.78956535864315 18.19566619666515 153.9874999999999
  endloop
endfacet
facet normal -9.991928704056809e-15 8.436999930902229e-15 1.0
  outer loop
    vertex 59.01216877668306 20.703886946180464 153.98749999999987
    vertex 58.78956535864315 18.19566619666515 153.9874999999999
    vertex 59.441871444452445 18.50909043737647 153.9874999999999
  endloop
endfacet
facet normal -9.991928704056809e-15 8.436999930902229e-15 1.0
  outer loop
    vertex 59.01216877668306 20.703886946180464 153.98749999999987
    vertex 59.441871444452445 18.50909043737647 153.9874999999999
    vertex 60.30606513425331 20.874231633273823 153.98749999999995
  endloop
endfacet
facet normal -9.991928704056809e-15 8.436999930902229e-15 1.0
  outer loop
    vertex 60.30606513425331 20.874231633273823 153.98749999999995
    vertex 59.441871444452445 18.50909043737647 153.9874999999999
    vertex 60.15307090207404 18.64300576782087 153.98749999999987
  endloop
endfacet
facet normal -9.991928704056809e-15 8.436999930902229e-15 1.0
  outer loop
    vertex 60.30606513425331 20.874231633273823 153.98749999999995
    vertex 60.15307090207404 18.64300576782087 153.98749999999987
    vertex 60.87469666378376 18.5882860795341 153.98749999999987
  endloop
endfacet
facet normal -9.991928704056809e-15 8.436999930902229e-15 1.0
  outer loop
    vertex 60.30606513425331 20.874231633273823 153.98749999999995
    vertex 60.87469666378376 18.5882860795341 153.98749999999987
    vertex 61.599961491823564 20.703886946180443 153.98749999999984
  endloop
endfacet
facet normal -9.991928704056809e-15 8.436999930902229e-15 1.0
  outer loop
    vertex 61.599961491823564 20.703886946180443 153.98749999999984
    vertex 60.87469666378376 18.5882860795341 153.98749999999987
    vertex 61.55757112646398 18.34866042884433 153.98749999999987
  endloop
endfacet
facet normal -9.991928704056809e-15 8.436999930902229e-15 1.0
  outer loop
    vertex 61.599961491823564 20.703886946180443 153.98749999999984
    vertex 61.55757112646398 18.34866042884433 153.98749999999987
    vertex 62.155157523986475 17.940458907845972 153.9874999999999
  endloop
endfacet
facet normal -9.991928704056809e-15 8.436999930902229e-15 1.0
  outer loop
    vertex 61.599961491823564 20.703886946180443 153.98749999999984
    vertex 62.155157523986475 17.940458907845972 153.9874999999999
    vertex 62.80568095089025 20.204461593817918 153.98749999999993
  endloop
endfacet
facet normal -9.991928704056809e-15 8.436999930902229e-15 1.0
  outer loop
    vertex 62.80568095089025 20.204461593817918 153.98749999999993
    vertex 62.155157523986475 17.940458907845972 153.9874999999999
    vertex 62.62673133091833 17.391499775610146 153.9874999999999
  endloop
endfacet
facet normal -9.991928704056809e-15 8.436999930902229e-15 1.0
  outer loop
    vertex 62.80568095089025 20.204461593817918 153.98749999999993
    vertex 62.62673133091833 17.391499775610146 153.9874999999999
    vertex 62.94015557162965 16.73919368980087 153.98749999999987
  endloop
endfacet
facet normal -9.991928704056809e-15 8.436999930902229e-15 1.0
  outer loop
    vertex 62.80568095089025 20.204461593817918 153.98749999999993
    vertex 62.94015557162965 16.73919368980087 153.98749999999987
    vertex 63.841055722863544 19.409990588610206 153.98749999999987
  endloop
endfacet
facet normal -9.991928704056809e-15 8.436999930902229e-15 1.0
  outer loop
    vertex 63.841055722863544 19.409990588610206 153.98749999999987
    vertex 62.94015557162965 16.73919368980087 153.98749999999987
    vertex 63.07407090207405 16.027994232179246 153.98749999999987
  endloop
endfacet
facet normal -9.991928704056809e-15 8.436999930902229e-15 1.0
  outer loop
    vertex 63.841055722863544 19.409990588610206 153.98749999999987
    vertex 63.07407090207405 16.027994232179246 153.98749999999987
    vertex 63.841055722863544 12.34000941138975 153.98749999999998
  endloop
endfacet
facet normal -9.991928704056809e-15 8.436999930902229e-15 1.0
  outer loop
    vertex 63.841055722863544 19.409990588610206 153.98749999999987
    vertex 63.841055722863544 12.34000941138975 153.98749999999998
    vertex 64.63552672807123 13.375384183363076 153.98749999999993
  endloop
endfacet
facet normal -9.991928704056809e-15 8.436999930902229e-15 1.0
  outer loop
    vertex 63.841055722863544 19.409990588610206 153.98749999999987
    vertex 64.63552672807123 13.375384183363076 153.98749999999993
    vertex 64.63552672807123 18.374615816636922 153.98749999999993
  endloop
endfacet
facet normal -9.991928704056809e-15 8.436999930902229e-15 1.0
  outer loop
    vertex 64.63552672807123 18.374615816636922 153.98749999999993
    vertex 64.63552672807123 13.375384183363076 153.98749999999993
    vertex 65.1349520804338 17.168896357570237 153.98749999999998
  endloop
endfacet
facet normal -9.991928704056809e-15 8.436999930902229e-15 1.0
  outer loop
    vertex 65.1349520804338 17.168896357570237 153.98749999999998
    vertex 64.63552672807123 13.375384183363076 153.98749999999993
    vertex 65.1349520804338 14.581103642429738 153.98749999999995
  endloop
endfacet
facet normal -9.991928704056809e-15 8.436999930902229e-15 1.0
  outer loop
    vertex 65.1349520804338 17.168896357570237 153.98749999999998
    vertex 65.1349520804338 14.581103642429738 153.98749999999995
    vertex 65.30529676752715 15.874999999999977 153.98749999999995
  endloop
endfacet
facet normal 0.0 0.0 -1.0
  outer loop
    vertex 45.26424906690551 17.533197832868677 152.3999999999999
    vertex 45.26424906690551 15.067946428267177 152.3999999999999
    vertex 45.10197081460721 16.300572130567915 152.3999999999999
  endloop
endfacet
facet normal 0.0 0.0 -1.0
  outer loop
    vertex 45.26424906690551 15.067946428267177 152.3999999999999
    vertex 45.26424906690551 17.533197832868677 152.3999999999999
    vertex 45.740024829083815 18.681822130567937 152.3999999999999
  endloop
endfacet
facet normal 0.0 0.0 -1.0
  outer loop
    vertex 45.26424906690551 15.067946428267177 152.3999999999999
    vertex 45.740024829083815 18.681822130567937 152.3999999999999
    vertex 45.740024829083815 13.919322130567938 152.3999999999999
  endloop
endfacet
facet normal 0.0 0.0 -1.0
  outer loop
    vertex 45.740024829083815 13.919322130567938 152.3999999999999
    vertex 45.740024829083815 18.681822130567937 152.3999999999999
    vertex 46.49687476920627 19.668168175968876 152.3999999999999
  endloop
endfacet
facet normal 0.0 0.0 -1.0
  outer loop
    vertex 45.740024829083815 13.919322130567938 152.3999999999999
    vertex 46.49687476920627 19.668168175968876 152.3999999999999
    vertex 46.49687476920627 12.932976085167002 152.3999999999999
  endloop
endfacet
facet normal 0.0 0.0 -1.0
  outer loop
    vertex 46.49687476920627 12.932976085167002 152.3999999999999
    vertex 46.49687476920627 19.668168175968876 152.3999999999999
    vertex 47.48322081460721 20.425018116091326 152.3999999999999
  endloop
endfacet
facet normal 0.0 0.0 -1.0
  outer loop
    vertex 46.49687476920627 12.932976085167002 152.3999999999999
    vertex 47.48322081460721 20.425018116091326 152.3999999999999
    vertex 47.48322081460721 12.17612614504455 152.3999999999999
  endloop
endfacet
facet normal 0.0 0.0 -1.0
  outer loop
    vertex 47.48322081460721 12.17612614504455 152.3999999999999
    vertex 47.48322081460721 20.425018116091326 152.3999999999999
    vertex 48.63184511230646 20.90079387826964 152.3999999999999
  endloop
endfacet
facet normal 0.0 0.0 -1.0
  outer loop
    vertex 47.48322081460721 12.17612614504455 152.3999999999999
    vertex 48.63184511230646 20.90079387826964 152.3999999999999
    vertex 48.63184511230645 11.700350382866262 152.3999999999999
  endloop
endfacet
facet normal 0.0 0.0 -1.0
  outer loop
    vertex 48.63184511230645 11.700350382866262 152.3999999999999
    vertex 48.63184511230646 20.90079387826964 152.3999999999999
    vertex 49.8644708146072 11.538072130567938 152.3999999999999
  endloop
endfacet
facet normal 0.0 0.0 -1.0
  outer loop
    vertex 49.8644708146072 11.538072130567938 152.3999999999999
    vertex 48.63184511230646 20.90079387826964 152.3999999999999
    vertex 49.8644708146072 21.06307213056794 152.3999999999999
  endloop
endfacet
facet normal 0.0 0.0 -1.0
  outer loop
    vertex 49.8644708146072 11.538072130567938 152.3999999999999
    vertex 49.8644708146072 21.06307213056794 152.3999999999999
    vertex 51.09709651690797 20.900793878269614 152.3999999999999
  endloop
endfacet
facet normal 0.0 0.0 -1.0
  outer loop
    vertex 49.8644708146072 11.538072130567938 152.3999999999999
    vertex 51.09709651690797 20.900793878269614 152.3999999999999
    vertex 51.09709651690797 11.70035038286624 152.3999999999999
  endloop
endfacet
facet normal 0.0 0.0 -1.0
  outer loop
    vertex 51.09709651690797 11.70035038286624 152.3999999999999
    vertex 51.09709651690797 20.900793878269614 152.3999999999999
    vertex 52.24572081460722 20.425018116091326 152.3999999999999
  endloop
endfacet
facet normal 0.0 0.0 -1.0
  outer loop
    vertex 51.09709651690797 11.70035038286624 152.3999999999999
    vertex 52.24572081460722 20.425018116091326 152.3999999999999
    vertex 52.2457208146072 12.17612614504455 152.3999999999999
  endloop
endfacet
facet normal 0.0 0.0 -1.0
  outer loop
    vertex 52.2457208146072 12.17612614504455 152.3999999999999
    vertex 52.24572081460722 20.425018116091326 152.3999999999999
    vertex 53.23206686000813 12.932976085167002 152.3999999999999
  endloop
endfacet
facet normal 0.0 0.0 -1.0
  outer loop
    vertex 53.23206686000813 12.932976085167002 152.3999999999999
    vertex 52.24572081460722 20.425018116091326 152.3999999999999
    vertex 53.23206686000814 19.66816817596885 152.3999999999999
  endloop
endfacet
facet normal 0.0 0.0 -1.0
  outer loop
    vertex 53.23206686000813 12.932976085167002 152.3999999999999
    vertex 53.23206686000814 19.66816817596885 152.3999999999999
    vertex 53.98891680013058 13.919322130567938 152.3999999999999
  endloop
endfacet
facet normal 0.0 0.0 -1.0
  outer loop
    vertex 53.98891680013058 13.919322130567938 152.3999999999999
    vertex 53.23206686000814 19.66816817596885 152.3999999999999
    vertex 53.9889168001306 18.681822130567937 152.3999999999999
  endloop
endfacet
facet normal 0.0 0.0 -1.0
  outer loop
    vertex 53.98891680013058 13.919322130567938 152.3999999999999
    vertex 53.9889168001306 18.681822130567937 152.3999999999999
    vertex 54.46469256230889 15.067946428267177 152.3999999999999
  endloop
endfacet
facet normal 0.0 0.0 -1.0
  outer loop
    vertex 54.46469256230889 15.067946428267177 152.3999999999999
    vertex 53.9889168001306 18.681822130567937 152.3999999999999
    vertex 54.46469256230889 17.5331978328687 152.3999999999999
  endloop
endfacet
facet normal 0.0 0.0 -1.0
  outer loop
    vertex 54.46469256230889 15.067946428267177 152.3999999999999
    vertex 54.46469256230889 17.5331978328687 152.3999999999999
    vertex 54.62697081460721 16.30057213056794 152.3999999999999
  endloop
endfacet
facet normal -0.13052619222005124 0.9914448613738106 1.5777218104420236e-30
  outer loop
    vertex 49.8644708146072 11.538072130567938 152.3999999999999
    vertex 51.09709651690797 11.700350382866217 144.4624999999999
    vertex 49.8644708146072 11.538072130567917 144.4624999999999
  endloop
endfacet
facet normal -0.13052619222005124 0.9914448613738106 1.5777218104420236e-30
  outer loop
    vertex 51.09709651690797 11.700350382866217 144.4624999999999
    vertex 49.8644708146072 11.538072130567938 152.3999999999999
    vertex 51.09709651690797 11.70035038286624 152.3999999999999
  endloop
endfacet
facet normal 0.13052619222005124 0.9914448613738106 0.0
  outer loop
    vertex 48.63184511230645 11.70035038286624 144.4624999999999
    vertex 49.8644708146072 11.538072130567938 152.3999999999999
    vertex 49.8644708146072 11.538072130567917 144.4624999999999
  endloop
endfacet
facet normal 0.13052619222005124 0.9914448613738106 0.0
  outer loop
    vertex 49.8644708146072 11.538072130567938 152.3999999999999
    vertex 48.63184511230645 11.70035038286624 144.4624999999999
    vertex 48.63184511230645 11.700350382866262 152.3999999999999
  endloop
endfacet
facet normal 0.3826834323650902 0.9238795325112865 -1.5777218104420236e-30
  outer loop
    vertex 47.48322081460721 12.17612614504455 152.3999999999999
    vertex 48.63184511230645 11.70035038286624 144.4624999999999
    vertex 47.48322081460721 12.176126145044528 144.4624999999999
  endloop
endfacet
facet normal 0.3826834323650902 0.9238795325112865 -1.5777218104420236e-30
  outer loop
    vertex 48.63184511230645 11.70035038286624 144.4624999999999
    vertex 47.48322081460721 12.17612614504455 152.3999999999999
    vertex 48.63184511230645 11.700350382866262 152.3999999999999
  endloop
endfacet
facet normal 0.6087614290087202 0.7933533402912356 0.0
  outer loop
    vertex 46.49687476920627 12.932976085167002 144.4624999999999
    vertex 47.48322081460721 12.17612614504455 152.3999999999999
    vertex 47.48322081460721 12.176126145044528 144.4624999999999
  endloop
endfacet
facet normal 0.6087614290087202 0.7933533402912356 0.0
  outer loop
    vertex 47.48322081460721 12.17612614504455 152.3999999999999
    vertex 46.49687476920627 12.932976085167002 144.4624999999999
    vertex 46.49687476920627 12.932976085167002 152.3999999999999
  endloop
endfacet
facet normal 0.7933533402912353 0.6087614290087204 0.0
  outer loop
    vertex 45.740024829083815 13.919322130567917 144.4624999999999
    vertex 46.49687476920627 12.932976085167002 152.3999999999999
    vertex 46.49687476920627 12.932976085167002 144.4624999999999
  endloop
endfacet
facet normal 0.7933533402912353 0.6087614290087204 0.0
  outer loop
    vertex 46.49687476920627 12.932976085167002 152.3999999999999
    vertex 45.740024829083815 13.919322130567917 144.4624999999999
    vertex 45.740024829083815 13.919322130567938 152.3999999999999
  endloop
endfacet
facet normal 0.9238795325112868 0.38268343236508945 -1.5777218104420233e-30
  outer loop
    vertex 45.26424906690551 15.067946428267154 144.4624999999999
    vertex 45.740024829083815 13.919322130567938 152.3999999999999
    vertex 45.740024829083815 13.919322130567917 144.4624999999999
  endloop
endfacet
facet normal 0.9238795325112868 0.38268343236508945 -1.5777218104420233e-30
  outer loop
    vertex 45.740024829083815 13.919322130567938 152.3999999999999
    vertex 45.26424906690551 15.067946428267154 144.4624999999999
    vertex 45.26424906690551 15.067946428267177 152.3999999999999
  endloop
endfacet
facet normal 0.9914448613738104 0.13052619222005152 0.0
  outer loop
    vertex 45.10197081460721 16.300572130567915 144.4624999999999
    vertex 45.26424906690551 15.067946428267177 152.3999999999999
    vertex 45.26424906690551 15.067946428267154 144.4624999999999
  endloop
endfacet
facet normal 0.9914448613738104 0.13052619222005152 0.0
  outer loop
    vertex 45.26424906690551 15.067946428267177 152.3999999999999
    vertex 45.10197081460721 16.300572130567915 144.4624999999999
    vertex 45.10197081460721 16.300572130567915 152.3999999999999
  endloop
endfacet
facet normal 0.9914448613738106 -0.13052619222005094 3.944304526105059e-31
  outer loop
    vertex 45.26424906690551 17.533197832868677 144.4624999999999
    vertex 45.10197081460721 16.300572130567915 152.3999999999999
    vertex 45.10197081460721 16.300572130567915 144.4624999999999
  endloop
endfacet
facet normal 0.9914448613738106 -0.13052619222005094 3.944304526105059e-31
  outer loop
    vertex 45.10197081460721 16.300572130567915 152.3999999999999
    vertex 45.26424906690551 17.533197832868677 144.4624999999999
    vertex 45.26424906690551 17.533197832868677 152.3999999999999
  endloop
endfacet
facet normal 0.9238795325112865 -0.3826834323650902 3.944304526105059e-31
  outer loop
    vertex 45.740024829083815 18.681822130567916 144.4624999999999
    vertex 45.26424906690551 17.533197832868677 152.3999999999999
    vertex 45.26424906690551 17.533197832868677 144.4624999999999
  endloop
endfacet
facet normal 0.9238795325112865 -0.3826834323650902 3.944304526105059e-31
  outer loop
    vertex 45.26424906690551 17.533197832868677 152.3999999999999
    vertex 45.740024829083815 18.681822130567916 144.4624999999999
    vertex 45.740024829083815 18.681822130567937 152.3999999999999
  endloop
endfacet
facet normal 0.7933533402912345 -0.6087614290087217 1.5777218104420236e-30
  outer loop
    vertex 46.49687476920627 19.66816817596885 144.4624999999999
    vertex 45.740024829083815 18.681822130567937 152.3999999999999
    vertex 45.740024829083815 18.681822130567916 144.4624999999999
  endloop
endfacet
facet normal 0.7933533402912345 -0.6087614290087217 1.5777218104420236e-30
  outer loop
    vertex 45.740024829083815 18.681822130567937 152.3999999999999
    vertex 46.49687476920627 19.66816817596885 144.4624999999999
    vertex 46.49687476920627 19.668168175968876 152.3999999999999
  endloop
endfacet
facet normal 0.6087614290087194 -0.7933533402912362 0.0
  outer loop
    vertex 47.48322081460721 20.425018116091326 152.3999999999999
    vertex 46.49687476920627 19.66816817596885 144.4624999999999
    vertex 47.48322081460721 20.425018116091305 144.4624999999999
  endloop
endfacet
facet normal 0.6087614290087194 -0.7933533402912362 0.0
  outer loop
    vertex 46.49687476920627 19.66816817596885 144.4624999999999
    vertex 47.48322081460721 20.425018116091326 152.3999999999999
    vertex 46.49687476920627 19.668168175968876 152.3999999999999
  endloop
endfacet
facet normal 0.3826834323650884 -0.9238795325112874 -1.5777218104420236e-30
  outer loop
    vertex 48.63184511230646 20.900793878269614 144.4624999999999
    vertex 47.48322081460721 20.425018116091326 152.3999999999999
    vertex 47.48322081460721 20.425018116091305 144.4624999999999
  endloop
endfacet
facet normal 0.3826834323650884 -0.9238795325112874 -1.5777218104420236e-30
  outer loop
    vertex 47.48322081460721 20.425018116091326 152.3999999999999
    vertex 48.63184511230646 20.900793878269614 144.4624999999999
    vertex 48.63184511230646 20.90079387826964 152.3999999999999
  endloop
endfacet
facet normal 0.1305261922200518 -0.9914448613738104 1.5777218104420236e-30
  outer loop
    vertex 49.8644708146072 21.06307213056794 152.3999999999999
    vertex 48.63184511230646 20.900793878269614 144.4624999999999
    vertex 49.8644708146072 21.063072130567917 144.4624999999999
  endloop
endfacet
facet normal 0.1305261922200518 -0.9914448613738104 1.5777218104420236e-30
  outer loop
    vertex 48.63184511230646 20.900793878269614 144.4624999999999
    vertex 49.8644708146072 21.06307213056794 152.3999999999999
    vertex 48.63184511230646 20.90079387826964 152.3999999999999
  endloop
endfacet
facet normal -0.13052619222005346 -0.9914448613738103 -1.5777218104420236e-30
  outer loop
    vertex 51.09709651690797 20.900793878269614 152.3999999999999
    vertex 49.8644708146072 21.063072130567917 144.4624999999999
    vertex 51.09709651690797 20.900793878269592 144.4624999999999
  endloop
endfacet
facet normal -0.13052619222005346 -0.9914448613738103 -1.5777218104420236e-30
  outer loop
    vertex 49.8644708146072 21.063072130567917 144.4624999999999
    vertex 51.09709651690797 20.900793878269614 152.3999999999999
    vertex 49.8644708146072 21.06307213056794 152.3999999999999
  endloop
endfacet
facet normal -0.38268343236508673 -0.923879532511288 1.5777218104420236e-30
  outer loop
    vertex 52.24572081460722 20.425018116091326 152.3999999999999
    vertex 51.09709651690797 20.900793878269592 144.4624999999999
    vertex 52.24572081460722 20.425018116091305 144.4624999999999
  endloop
endfacet
facet normal -0.38268343236508673 -0.923879532511288 1.5777218104420236e-30
  outer loop
    vertex 51.09709651690797 20.900793878269592 144.4624999999999
    vertex 52.24572081460722 20.425018116091326 152.3999999999999
    vertex 51.09709651690797 20.900793878269614 152.3999999999999
  endloop
endfacet
facet normal -0.6087614290087239 -0.793353340291233 -1.5777218104420236e-30
  outer loop
    vertex 53.23206686000814 19.66816817596885 152.3999999999999
    vertex 52.24572081460722 20.425018116091305 144.4624999999999
    vertex 53.23206686000814 19.66816817596885 144.4624999999999
  endloop
endfacet
facet normal -0.6087614290087239 -0.793353340291233 -1.5777218104420236e-30
  outer loop
    vertex 52.24572081460722 20.425018116091305 144.4624999999999
    vertex 53.23206686000814 19.66816817596885 152.3999999999999
    vertex 52.24572081460722 20.425018116091326 152.3999999999999
  endloop
endfacet
facet normal -0.7933533402912332 -0.6087614290087234 0.0
  outer loop
    vertex 53.9889168001306 18.681822130567937 152.3999999999999
    vertex 53.23206686000814 19.66816817596885 144.4624999999999
    vertex 53.9889168001306 18.681822130567916 144.4624999999999
  endloop
endfacet
facet normal -0.7933533402912332 -0.6087614290087234 0.0
  outer loop
    vertex 53.23206686000814 19.66816817596885 144.4624999999999
    vertex 53.9889168001306 18.681822130567937 152.3999999999999
    vertex 53.23206686000814 19.66816817596885 152.3999999999999
  endloop
endfacet
facet normal -0.9238795325112897 -0.3826834323650825 0.0
  outer loop
    vertex 54.46469256230889 17.5331978328687 152.3999999999999
    vertex 53.9889168001306 18.681822130567916 144.4624999999999
    vertex 54.46469256230889 17.533197832868677 144.4624999999999
  endloop
endfacet
facet normal -0.9238795325112897 -0.3826834323650825 0.0
  outer loop
    vertex 53.9889168001306 18.681822130567916 144.4624999999999
    vertex 54.46469256230889 17.5331978328687 152.3999999999999
    vertex 53.9889168001306 18.681822130567937 152.3999999999999
  endloop
endfacet
facet normal -0.9914448613738094 -0.13052619222006046 7.888609052210118e-31
  outer loop
    vertex 54.46469256230889 17.5331978328687 152.3999999999999
    vertex 54.62697081460721 16.30057213056794 144.4624999999999
    vertex 54.62697081460721 16.30057213056794 152.3999999999999
  endloop
endfacet
facet normal -0.9914448613738094 -0.13052619222006046 7.888609052210118e-31
  outer loop
    vertex 54.62697081460721 16.30057213056794 144.4624999999999
    vertex 54.46469256230889 17.5331978328687 152.3999999999999
    vertex 54.46469256230889 17.533197832868677 144.4624999999999
  endloop
endfacet
facet normal -0.9914448613738094 0.13052619222006015 1.9721522630525295e-31
  outer loop
    vertex 54.62697081460721 16.30057213056794 152.3999999999999
    vertex 54.46469256230889 15.067946428267177 144.4624999999999
    vertex 54.46469256230889 15.067946428267177 152.3999999999999
  endloop
endfacet
facet normal -0.9914448613738094 0.13052619222006015 1.9721522630525295e-31
  outer loop
    vertex 54.46469256230889 15.067946428267177 144.4624999999999
    vertex 54.62697081460721 16.30057213056794 152.3999999999999
    vertex 54.62697081460721 16.30057213056794 144.4624999999999
  endloop
endfacet
facet normal -0.9238795325112868 0.38268343236508945 -3.944304526105059e-31
  outer loop
    vertex 53.98891680013058 13.919322130567938 152.3999999999999
    vertex 54.46469256230889 15.067946428267177 144.4624999999999
    vertex 53.988916800130596 13.919322130567917 144.4624999999999
  endloop
endfacet
facet normal -0.9238795325112868 0.38268343236508945 -3.944304526105059e-31
  outer loop
    vertex 54.46469256230889 15.067946428267177 144.4624999999999
    vertex 53.98891680013058 13.919322130567938 152.3999999999999
    vertex 54.46469256230889 15.067946428267177 152.3999999999999
  endloop
endfacet
facet normal -0.7933533402912367 0.6087614290087188 7.888609052210118e-31
  outer loop
    vertex 53.23206686000813 12.932976085167002 152.3999999999999
    vertex 53.988916800130596 13.919322130567917 144.4624999999999
    vertex 53.23206686000814 12.93297608516698 144.4624999999999
  endloop
endfacet
facet normal -0.7933533402912367 0.6087614290087188 7.888609052210118e-31
  outer loop
    vertex 53.988916800130596 13.919322130567917 144.4624999999999
    vertex 53.23206686000813 12.932976085167002 152.3999999999999
    vertex 53.98891680013058 13.919322130567938 152.3999999999999
  endloop
endfacet
facet normal -0.608761429008718 0.7933533402912372 -1.5777218104420236e-30
  outer loop
    vertex 52.2457208146072 12.17612614504455 152.3999999999999
    vertex 53.23206686000814 12.93297608516698 144.4624999999999
    vertex 52.2457208146072 12.176126145044528 144.4624999999999
  endloop
endfacet
facet normal -0.608761429008718 0.7933533402912372 -1.5777218104420236e-30
  outer loop
    vertex 53.23206686000814 12.93297608516698 144.4624999999999
    vertex 52.2457208146072 12.17612614504455 152.3999999999999
    vertex 53.23206686000813 12.932976085167002 152.3999999999999
  endloop
endfacet
facet normal -0.38268343236509195 0.9238795325112861 1.5777218104420236e-30
  outer loop
    vertex 51.09709651690797 11.70035038286624 152.3999999999999
    vertex 52.2457208146072 12.176126145044528 144.4624999999999
    vertex 51.09709651690797 11.700350382866217 144.4624999999999
  endloop
endfacet
facet normal -0.38268343236509195 0.9238795325112861 1.5777218104420236e-30
  outer loop
    vertex 52.2457208146072 12.176126145044528 144.4624999999999
    vertex 51.09709651690797 11.70035038286624 152.3999999999999
    vertex 52.2457208146072 12.17612614504455 152.3999999999999
  endloop
endfacet
facet normal 0.5640499725401907 0.825740654489901 -8.173176230452846e-15
  outer loop
    vertex 58.45697274451999 13.809541092154161 153.98749999999993
    vertex 59.05455914204248 13.401339571155713 144.46249999999986
    vertex 58.456972744519966 13.809541092154094 144.46249999999986
  endloop
endfacet
facet normal 0.5640499725401907 0.825740654489901 -8.173176230452846e-15
  outer loop
    vertex 59.05455914204248 13.401339571155713 144.46249999999986
    vertex 58.45697274451999 13.809541092154161 153.98749999999993
    vertex 59.0545591420425 13.40133957115578 153.98749999999993
  endloop
endfacet
facet normal 0.3311130280968015 0.9435910992715897 -7.616187777159823e-15
  outer loop
    vertex 59.0545591420425 13.40133957115578 153.98749999999993
    vertex 59.7374336047227 13.161713920465964 144.46249999999986
    vertex 59.05455914204248 13.401339571155713 144.46249999999986
  endloop
endfacet
facet normal 0.3311130280968015 0.9435910992715897 -7.616187777159823e-15
  outer loop
    vertex 59.7374336047227 13.161713920465964 144.46249999999986
    vertex 59.0545591420425 13.40133957115578 153.98749999999993
    vertex 59.737433604722725 13.161713920466031 153.98749999999993
  endloop
endfacet
facet normal 0.07561127797877443 0.9971373699959383 -6.540168713198798e-15
  outer loop
    vertex 59.7374336047227 13.161713920465964 144.46249999999986
    vertex 60.459059366432435 13.106994232179241 153.98749999999995
    vertex 60.4590593664324 13.106994232179195 144.46249999999986
  endloop
endfacet
facet normal 0.07561127797877443 0.9971373699959383 -6.540168713198798e-15
  outer loop
    vertex 60.459059366432435 13.106994232179241 153.98749999999995
    vertex 59.7374336047227 13.161713920465964 144.46249999999986
    vertex 59.737433604722725 13.161713920466031 153.98749999999993
  endloop
endfacet
facet normal -0.18504325577997358 0.9827303768024815 -5.0184479595730335e-15
  outer loop
    vertex 60.4590593664324 13.106994232179195 144.46249999999986
    vertex 61.17025882405404 13.240909562623639 153.9874999999999
    vertex 61.170258824054 13.240909562623571 144.46249999999984
  endloop
endfacet
facet normal -0.18504325577997358 0.9827303768024815 -5.0184479595730335e-15
  outer loop
    vertex 61.17025882405404 13.240909562623639 153.9874999999999
    vertex 60.4590593664324 13.106994232179195 144.46249999999986
    vertex 60.459059366432435 13.106994232179241 153.98749999999995
  endloop
endfacet
facet normal -0.4330873974557441 0.9013519324686726 -3.1547282708798215e-15
  outer loop
    vertex 61.17025882405404 13.240909562623639 153.9874999999999
    vertex 61.82256490986329 13.554333803334915 144.46249999999984
    vertex 61.170258824054 13.240909562623571 144.46249999999984
  endloop
endfacet
facet normal -0.4330873974557441 0.9013519324686726 -3.1547282708798215e-15
  outer loop
    vertex 61.82256490986329 13.554333803334915 144.46249999999984
    vertex 61.17025882405404 13.240909562623639 153.9874999999999
    vertex 61.822564909863324 13.554333803334982 153.9874999999999
  endloop
endfacet
facet normal -0.6516173487056792 0.7585478434916163 -1.0760190639610377e-15
  outer loop
    vertex 61.822564909863324 13.554333803334982 153.9874999999999
    vertex 62.371524042099104 14.025907610266767 144.46249999999984
    vertex 61.82256490986329 13.554333803334915 144.46249999999984
  endloop
endfacet
facet normal -0.6516173487056792 0.7585478434916163 -1.0760190639610377e-15
  outer loop
    vertex 62.371524042099104 14.025907610266767 144.46249999999984
    vertex 61.822564909863324 13.554333803334982 153.9874999999999
    vertex 62.37152404209915 14.025907610266811 153.9874999999999
  endloop
endfacet
facet normal -0.8257406544899046 0.5640499725401854 1.076019063961119e-15
  outer loop
    vertex 62.37152404209915 14.025907610266811 153.9874999999999
    vertex 62.779725563097465 14.623494007789274 144.46249999999984
    vertex 62.371524042099104 14.025907610266767 144.46249999999984
  endloop
endfacet
facet normal -0.8257406544899046 0.5640499725401854 1.076019063961119e-15
  outer loop
    vertex 62.779725563097465 14.623494007789274 144.46249999999984
    vertex 62.37152404209915 14.025907610266811 153.9874999999999
    vertex 62.7797255630975 14.623494007789342 153.98749999999993
  endloop
endfacet
facet normal -0.9435910992715871 0.3311130280968084 3.1547282708797663e-15
  outer loop
    vertex 62.7797255630975 14.623494007789342 153.98749999999993
    vertex 63.019351213787246 15.306368470469499 144.46249999999984
    vertex 62.779725563097465 14.623494007789274 144.46249999999984
  endloop
endfacet
facet normal -0.9435910992715871 0.3311130280968084 3.1547282708797663e-15
  outer loop
    vertex 63.019351213787246 15.306368470469499 144.46249999999984
    vertex 62.7797255630975 14.623494007789342 153.98749999999993
    vertex 63.01935121378728 15.306368470469568 153.9874999999999
  endloop
endfacet
facet normal -0.9971373699959382 0.07561127797877501 5.018447959573025e-15
  outer loop
    vertex 63.01935121378728 15.306368470469568 153.9874999999999
    vertex 63.07407090207401 16.02799423217918 144.4624999999998
    vertex 63.019351213787246 15.306368470469499 144.46249999999984
  endloop
endfacet
facet normal -0.9971373699959382 0.07561127797877501 5.018447959573025e-15
  outer loop
    vertex 63.07407090207401 16.02799423217918 144.4624999999998
    vertex 63.01935121378728 15.306368470469568 153.9874999999999
    vertex 63.07407090207405 16.027994232179246 153.98749999999987
  endloop
endfacet
facet normal -0.9827303768024819 -0.18504325577997144 6.54016871319878e-15
  outer loop
    vertex 63.07407090207405 16.027994232179246 153.98749999999987
    vertex 62.94015557162962 16.7391936898008 144.4624999999998
    vertex 63.07407090207401 16.02799423217918 144.4624999999998
  endloop
endfacet
facet normal -0.9827303768024819 -0.18504325577997144 6.54016871319878e-15
  outer loop
    vertex 62.94015557162962 16.7391936898008 144.4624999999998
    vertex 63.07407090207405 16.027994232179246 153.98749999999987
    vertex 62.94015557162965 16.73919368980087 153.98749999999987
  endloop
endfacet
facet normal -0.9013519324686726 -0.433087397455744 7.616187777159825e-15
  outer loop
    vertex 62.94015557162965 16.73919368980087 153.98749999999987
    vertex 62.6267313309183 17.39149977561008 144.4624999999998
    vertex 62.94015557162962 16.7391936898008 144.4624999999998
  endloop
endfacet
facet normal -0.9013519324686726 -0.433087397455744 7.616187777159825e-15
  outer loop
    vertex 62.6267313309183 17.39149977561008 144.4624999999998
    vertex 62.94015557162965 16.73919368980087 153.98749999999987
    vertex 62.62673133091833 17.391499775610146 153.9874999999999
  endloop
endfacet
facet normal -0.7585478434916163 -0.6516173487056792 8.173176230452854e-15
  outer loop
    vertex 62.62673133091833 17.391499775610146 153.9874999999999
    vertex 62.155157523986446 17.940458907845905 144.4624999999998
    vertex 62.6267313309183 17.39149977561008 144.4624999999998
  endloop
endfacet
facet normal -0.7585478434916163 -0.6516173487056792 8.173176230452854e-15
  outer loop
    vertex 62.155157523986446 17.940458907845905 144.4624999999998
    vertex 62.62673133091833 17.391499775610146 153.9874999999999
    vertex 62.155157523986475 17.940458907845972 153.9874999999999
  endloop
endfacet
facet normal -0.5640499725401907 -0.825740654489901 8.173176230452846e-15
  outer loop
    vertex 62.155157523986475 17.940458907845972 153.9874999999999
    vertex 61.55757112646395 18.348660428844262 144.4624999999998
    vertex 62.155157523986446 17.940458907845905 144.4624999999998
  endloop
endfacet
facet normal -0.5640499725401907 -0.825740654489901 8.173176230452846e-15
  outer loop
    vertex 61.55757112646395 18.348660428844262 144.4624999999998
    vertex 62.155157523986475 17.940458907845972 153.9874999999999
    vertex 61.55757112646398 18.34866042884433 153.98749999999987
  endloop
endfacet
facet normal -0.33111302809680493 -0.9435910992715884 7.616187777159834e-15
  outer loop
    vertex 61.55757112646398 18.34866042884433 153.98749999999987
    vertex 60.87469666378372 18.588286079534058 144.4624999999998
    vertex 61.55757112646395 18.348660428844262 144.4624999999998
  endloop
endfacet
facet normal -0.33111302809680493 -0.9435910992715884 7.616187777159834e-15
  outer loop
    vertex 60.87469666378372 18.588286079534058 144.4624999999998
    vertex 61.55757112646398 18.34866042884433 153.98749999999987
    vertex 60.87469666378376 18.5882860795341 153.98749999999987
  endloop
endfacet
facet normal -0.07561127797877054 -0.9971373699959385 6.5401687131987775e-15
  outer loop
    vertex 60.87469666378372 18.588286079534058 144.4624999999998
    vertex 60.15307090207402 18.643005767820824 144.4624999999998
    vertex 60.327953054020355 18.62974474341012 144.46249999999978
  endloop
endfacet
facet normal -0.07561127797877054 -0.9971373699959385 6.5401687131987775e-15
  outer loop
    vertex 60.15307090207402 18.643005767820824 144.4624999999998
    vertex 60.87469666378372 18.588286079534058 144.4624999999998
    vertex 60.15307090207404 18.64300576782087 153.98749999999987
  endloop
endfacet
facet normal -0.07561127797877054 -0.9971373699959385 6.5401687131987775e-15
  outer loop
    vertex 60.15307090207404 18.64300576782087 153.98749999999987
    vertex 60.87469666378372 18.588286079534058 144.4624999999998
    vertex 60.87469666378376 18.5882860795341 153.98749999999987
  endloop
endfacet
facet normal 0.18504325577997358 -0.9827303768024815 5.0184479595730335e-15
  outer loop
    vertex 60.15307090207404 18.64300576782087 153.98749999999987
    vertex 59.44187144445242 18.509090437376404 144.46249999999984
    vertex 60.15307090207402 18.643005767820824 144.4624999999998
  endloop
endfacet
facet normal 0.18504325577997358 -0.9827303768024815 5.0184479595730335e-15
  outer loop
    vertex 59.44187144445242 18.509090437376404 144.46249999999984
    vertex 60.15307090207404 18.64300576782087 153.98749999999987
    vertex 59.441871444452445 18.50909043737647 153.9874999999999
  endloop
endfacet
facet normal 0.43308739745574726 -0.9013519324686712 3.154728270879793e-15
  outer loop
    vertex 59.441871444452445 18.50909043737647 153.9874999999999
    vertex 58.78956535864313 18.195666196665083 144.46249999999984
    vertex 59.44187144445242 18.509090437376404 144.46249999999984
  endloop
endfacet
facet normal 0.43308739745574726 -0.9013519324686712 3.154728270879793e-15
  outer loop
    vertex 58.78956535864313 18.195666196665083 144.46249999999984
    vertex 59.441871444452445 18.50909043737647 153.9874999999999
    vertex 58.78956535864315 18.19566619666515 153.9874999999999
  endloop
endfacet
facet normal 0.6516173487056769 -0.7585478434916181 1.0760190639610622e-15
  outer loop
    vertex 58.78956535864315 18.19566619666515 153.9874999999999
    vertex 58.24060622640731 17.724092389733254 144.46249999999984
    vertex 58.78956535864313 18.195666196665083 144.46249999999984
  endloop
endfacet
facet normal 0.6516173487056769 -0.7585478434916181 1.0760190639610622e-15
  outer loop
    vertex 58.24060622640731 17.724092389733254 144.46249999999984
    vertex 58.78956535864315 18.19566619666515 153.9874999999999
    vertex 58.24060622640733 17.7240923897333 153.9874999999999
  endloop
endfacet
facet normal 0.8257406544899034 -0.5640499725401873 -1.0760190639610984e-15
  outer loop
    vertex 58.24060622640731 17.724092389733254 144.46249999999984
    vertex 57.83240470540897 17.12650599221079 153.9874999999999
    vertex 57.83240470540895 17.126505992210745 144.46249999999984
  endloop
endfacet
facet normal 0.8257406544899034 -0.5640499725401873 -1.0760190639610984e-15
  outer loop
    vertex 57.83240470540897 17.12650599221079 153.9874999999999
    vertex 58.24060622640731 17.724092389733254 144.46249999999984
    vertex 58.24060622640733 17.7240923897333 153.9874999999999
  endloop
endfacet
facet normal 0.9435910992715876 -0.3311130280968072 -3.1547282708797765e-15
  outer loop
    vertex 57.83240470540895 17.126505992210745 144.46249999999984
    vertex 57.5927790547192 16.443631529530567 153.9874999999999
    vertex 57.59277905471917 16.4436315295305 144.46249999999984
  endloop
endfacet
facet normal 0.9435910992715876 -0.3311130280968072 -3.1547282708797765e-15
  outer loop
    vertex 57.5927790547192 16.443631529530567 153.9874999999999
    vertex 57.83240470540895 17.126505992210745 144.46249999999984
    vertex 57.83240470540897 17.12650599221079 153.9874999999999
  endloop
endfacet
facet normal 0.9971373699959382 -0.07561127797877501 -5.018447959573025e-15
  outer loop
    vertex 57.59277905471917 16.4436315295305 144.46249999999984
    vertex 57.53805936643242 15.722005767820866 153.98749999999993
    vertex 57.5380593664324 15.722005767820797 144.46249999999986
  endloop
endfacet
facet normal 0.9971373699959382 -0.07561127797877501 -5.018447959573025e-15
  outer loop
    vertex 57.53805936643242 15.722005767820866 153.98749999999993
    vertex 57.59277905471917 16.4436315295305 144.46249999999984
    vertex 57.5927790547192 16.443631529530567 153.9874999999999
  endloop
endfacet
facet normal 0.9827303768024819 0.18504325577997144 -6.54016871319878e-15
  outer loop
    vertex 57.5380593664324 15.722005767820797 144.46249999999986
    vertex 57.671974696876816 15.010806310199264 153.98749999999993
    vertex 57.671974696876795 15.010806310199197 144.46249999999986
  endloop
endfacet
facet normal 0.9827303768024819 0.18504325577997144 -6.54016871319878e-15
  outer loop
    vertex 57.671974696876816 15.010806310199264 153.98749999999993
    vertex 57.5380593664324 15.722005767820797 144.46249999999986
    vertex 57.53805936643242 15.722005767820866 153.98749999999993
  endloop
endfacet
facet normal 0.9013519324686726 0.433087397455744 -7.616187777159825e-15
  outer loop
    vertex 57.671974696876795 15.010806310199197 144.46249999999986
    vertex 57.98539893758816 14.358500224389989 153.98749999999993
    vertex 57.98539893758813 14.35850022438992 144.46249999999986
  endloop
endfacet
facet normal 0.9013519324686726 0.433087397455744 -7.616187777159825e-15
  outer loop
    vertex 57.98539893758816 14.358500224389989 153.98749999999993
    vertex 57.671974696876795 15.010806310199197 144.46249999999986
    vertex 57.671974696876816 15.010806310199264 153.98749999999993
  endloop
endfacet
facet normal 0.7585478434916163 0.6516173487056792 -8.173176230452854e-15
  outer loop
    vertex 57.98539893758813 14.35850022438992 144.46249999999986
    vertex 58.45697274451999 13.809541092154161 153.98749999999993
    vertex 58.456972744519966 13.809541092154094 144.46249999999986
  endloop
endfacet
facet normal 0.7585478434916163 0.6516173487056792 -8.173176230452854e-15
  outer loop
    vertex 58.45697274451999 13.809541092154161 153.98749999999993
    vertex 57.98539893758813 14.35850022438992 144.46249999999986
    vertex 57.98539893758816 14.358500224389989 153.98749999999993
  endloop
endfacet
endsolid Puzzle
