solid Bitcoin Address Stand
facet normal -0.4265055941153661 1.5079113645771683e-28 0.9044849242460034
  outer loop
    vertex 199.65787962080063 -30.556810848681796 29.48758231691231
    vertex 186.82629118354302 -29.29322396266579 23.43690739334893
    vertex 186.82629118354302 -30.556810848681796 23.43690739334893
  endloop
endfacet
facet normal -0.4265055941153661 1.5079113645771683e-28 0.9044849242460034
  outer loop
    vertex 186.82629118354302 -29.29322396266579 23.43690739334893
    vertex 199.65787962080063 -30.556810848681796 29.48758231691231
    vertex 199.65787962080063 -29.29322396266579 29.48758231691231
  endloop
endfacet
facet normal -0.8564390216512601 1.353214212922705e-16 0.5162481982467665
  outer loop
    vertex 199.65787962080063 -25.81823634807381 44.724096549181205
    vertex 186.82629118354302 -29.29322396266579 23.43690739334893
    vertex 199.65787962080063 -29.29322396266581 44.724096549181205
  endloop
endfacet
facet normal -0.8564390216512601 1.353214212922705e-16 0.5162481982467665
  outer loop
    vertex 186.82629118354302 -29.29322396266579 23.43690739334893
    vertex 199.65787962080063 -25.81823634807381 44.724096549181205
    vertex 186.82629118354302 -25.818236348073793 23.43690739334893
  endloop
endfacet
facet normal 0.8534473458314847 1.272944507099354e-16 0.5211790746885315
  outer loop
    vertex 212.51968465402172 -29.29322396266579 23.66248087559607
    vertex 199.65787962080063 -25.81823634807381 44.724096549181205
    vertex 199.65787962080063 -29.29322396266581 44.724096549181205
  endloop
endfacet
facet normal 0.8534473458314847 1.272944507099354e-16 0.5211790746885315
  outer loop
    vertex 199.65787962080063 -25.81823634807381 44.724096549181205
    vertex 212.51968465402172 -29.29322396266579 23.66248087559607
    vertex 212.51968465402172 -25.818236348073793 23.66248087559607
  endloop
endfacet
facet normal -0.0 -1.0 -0.0
  outer loop
    vertex 212.51968465402172 -30.556810848681796 23.66248087559607
    vertex 186.82629118354302 -30.556810848681796 23.43690739334893
    vertex 199.76616593119368 -30.556810848681796 15.964938427344968
  endloop
endfacet
facet normal -0.0 -1.0 -0.0
  outer loop
    vertex 186.82629118354302 -30.556810848681796 23.43690739334893
    vertex 212.51968465402172 -30.556810848681796 23.66248087559607
    vertex 199.65787962080063 -30.556810848681796 29.48758231691231
  endloop
endfacet
facet normal 0.5167364962200677 7.260372404425103e-16 -0.8561444933387167
  outer loop
    vertex 212.51968465402172 -25.818236348073793 23.66248087559607
    vertex 199.76616593119368 -30.556810848681796 15.964938427344968
    vertex 199.76616593119368 -25.818236348073793 15.964938427344977
  endloop
endfacet
facet normal 0.5167364962200677 7.260372404425103e-16 -0.8561444933387167
  outer loop
    vertex 199.76616593119368 -30.556810848681796 15.964938427344968
    vertex 212.51968465402172 -25.818236348073793 23.66248087559607
    vertex 212.51968465402172 -30.556810848681796 23.66248087559607
  endloop
endfacet
facet normal 0.5167364962200677 7.260372404425103e-16 -0.8561444933387167
  outer loop
    vertex 212.51968465402172 -30.556810848681796 23.66248087559607
    vertex 212.51968465402172 -25.818236348073793 23.66248087559607
    vertex 212.51968465402172 -29.29322396266579 23.66248087559607
  endloop
endfacet
facet normal -0.0 -1.0 -0.0
  outer loop
    vertex 212.61102750158406 -27.568383674793782 21.762317225977533
    vertex 199.7837398221665 -27.568383674793782 14.134969231303744
    vertex 199.73244680283105 -27.568383674793782 3.4659640132955603
  endloop
endfacet
facet normal -0.0 -1.0 -0.0
  outer loop
    vertex 186.70021484536596 -27.568383674793782 21.77329134743905
    vertex 199.73244680283105 -27.568383674793782 3.4659640132955603
    vertex 199.7837398221665 -27.568383674793782 14.134969231303744
  endloop
endfacet
facet normal -0.5110908423000787 -1.9534099749879773e-16 0.8595267016893634
  outer loop
    vertex 212.61102750158406 -27.568383674793782 21.762317225977533
    vertex 199.7837398221665 -25.818236348073793 14.134969231303744
    vertex 199.7837398221665 -27.568383674793782 14.134969231303744
  endloop
endfacet
facet normal -0.5110908423000787 -1.9534099749879773e-16 0.8595267016893634
  outer loop
    vertex 199.7837398221665 -25.818236348073793 14.134969231303744
    vertex 212.61102750158406 -27.568383674793782 21.762317225977533
    vertex 212.61102750158406 -25.818236348073793 21.762317225977533
  endloop
endfacet
facet normal -0.8146675486276121 2.2165093786075624e-16 -0.5799282586778103
  outer loop
    vertex 186.70021484536596 -25.818236348073793 21.77329134743905
    vertex 199.73244680283105 -27.568383674793782 3.4659640132955603
    vertex 186.70021484536596 -27.568383674793782 21.77329134743905
  endloop
endfacet
facet normal -0.8146675486276121 2.2165093786075624e-16 -0.5799282586778103
  outer loop
    vertex 199.73244680283105 -27.568383674793782 3.4659640132955603
    vertex 186.70021484536596 -25.818236348073793 21.77329134743905
    vertex 199.73244680283105 -25.818236348073793 3.4659640132955603
  endloop
endfacet
facet normal 0.5041795781593615 0.0 0.8635988379838455
  outer loop
    vertex 199.7837398221665 -27.568383674793782 14.134969231303744
    vertex 186.70021484536596 -25.818236348073793 21.77329134743905
    vertex 186.70021484536596 -27.568383674793782 21.77329134743905
  endloop
endfacet
facet normal 0.5041795781593615 0.0 0.8635988379838455
  outer loop
    vertex 186.70021484536596 -25.818236348073793 21.77329134743905
    vertex 199.7837398221665 -27.568383674793782 14.134969231303744
    vertex 199.7837398221665 -25.818236348073793 14.134969231303744
  endloop
endfacet
facet normal 6.7645256206858604e-18 -1.0 -7.833295507355098e-16
  outer loop
    vertex 199.65787962080063 -29.29322396266581 44.724096549181205
    vertex 199.65787962080063 -29.29322396266579 29.48758231691231
    vertex 212.51968465402172 -29.29322396266579 23.66248087559607
  endloop
endfacet
facet normal 6.7645256206858604e-18 -1.0 -7.833295507355098e-16
  outer loop
    vertex 199.65787962080063 -29.29322396266581 44.724096549181205
    vertex 186.82629118354302 -29.29322396266579 23.43690739334893
    vertex 199.65787962080063 -29.29322396266579 29.48758231691231
  endloop
endfacet
facet normal 0.4125597335579713 1.3755973021166526e-28 0.910930549628552
  outer loop
    vertex 212.51968465402172 -30.556810848681796 23.66248087559607
    vertex 199.65787962080063 -29.29322396266579 29.48758231691231
    vertex 199.65787962080063 -30.556810848681796 29.48758231691231
  endloop
endfacet
facet normal 0.4125597335579713 1.3755973021166526e-28 0.910930549628552
  outer loop
    vertex 199.65787962080063 -29.29322396266579 29.48758231691231
    vertex 212.51968465402172 -30.556810848681796 23.66248087559607
    vertex 212.51968465402172 -29.29322396266579 23.66248087559607
  endloop
endfacet
facet normal -0.5000566569414534 7.682642817982044e-16 -0.8659926904128795
  outer loop
    vertex 199.76616593119368 -25.818236348073793 15.964938427344977
    vertex 186.82629118354302 -29.29322396266579 23.43690739334893
    vertex 186.82629118354302 -25.818236348073793 23.43690739334893
  endloop
endfacet
facet normal -0.5000566569414534 7.682642817982044e-16 -0.8659926904128795
  outer loop
    vertex 186.82629118354302 -29.29322396266579 23.43690739334893
    vertex 199.76616593119368 -25.818236348073793 15.964938427344977
    vertex 186.82629118354302 -30.556810848681796 23.43690739334893
  endloop
endfacet
facet normal -0.5000566569414534 7.682642817982044e-16 -0.8659926904128795
  outer loop
    vertex 186.82629118354302 -30.556810848681796 23.43690739334893
    vertex 199.76616593119368 -25.818236348073793 15.964938427344977
    vertex 199.76616593119368 -30.556810848681796 15.964938427344968
  endloop
endfacet
facet normal 0.8177355429655424 -2.501046871918838e-29 -0.5755941120015471
  outer loop
    vertex 199.73244680283105 -25.818236348073793 3.4659640132955603
    vertex 212.61102750158406 -27.568383674793782 21.762317225977533
    vertex 199.73244680283105 -27.568383674793782 3.4659640132955603
  endloop
endfacet
facet normal 0.8177355429655424 -2.501046871918838e-29 -0.5755941120015471
  outer loop
    vertex 212.61102750158406 -27.568383674793782 21.762317225977533
    vertex 199.73244680283105 -25.818236348073793 3.4659640132955603
    vertex 212.61102750158406 -25.818236348073793 21.762317225977533
  endloop
endfacet
facet normal 1.0 0.0 0.0
  outer loop
    vertex 231.4071826 -22.450640302672873 44.22435969732711
    vertex 231.4071826 19.08304425727194 92.49323634807382
    vertex 231.4071826 -25.81823634807381 47.59195574272805
  endloop
endfacet
facet normal 1.0 0.0 0.0
  outer loop
    vertex 231.4071826 19.08304425727194 92.49323634807382
    vertex 231.4071826 -22.450640302672873 44.22435969732711
    vertex 231.4071826 22.450640302672877 89.12564030267288
  endloop
endfacet
facet normal 0.0 0.7071067811865495 0.7071067811865456
  outer loop
    vertex 171.7171826 -21.328108287539358 50.286032579048914
    vertex 227.59718259999997 -19.756563466352254 48.714487757861804
    vertex 171.7171826 -19.756563466352254 48.714487757861804
  endloop
endfacet
facet normal 0.0 0.7071067811865495 0.7071067811865456
  outer loop
    vertex 227.59718259999997 -19.756563466352254 48.714487757861804
    vertex 171.7171826 -21.328108287539358 50.286032579048914
    vertex 227.59718259999997 -21.328108287539358 50.286032579048914
  endloop
endfacet
facet normal -1.0 0.0 0.0
  outer loop
    vertex 167.9071826 19.08304425727194 92.49323634807382
    vertex 167.9071826 -22.450640302672873 44.22435969732711
    vertex 167.9071826 -25.81823634807381 47.59195574272805
  endloop
endfacet
facet normal -1.0 0.0 0.0
  outer loop
    vertex 167.9071826 -22.450640302672873 44.22435969732711
    vertex 167.9071826 19.08304425727194 92.49323634807382
    vertex 167.9071826 22.450640302672877 89.12564030267288
  endloop
endfacet
facet normal -0.0 -0.7071067811865474 -0.7071067811865478
  outer loop
    vertex 225.05718259999998 15.490941808844287 87.10508267543234
    vertex 174.2571826 14.592916196737367 88.00310828753923
    vertex 174.2571826 15.490941808844287 87.10508267543234
  endloop
endfacet
facet normal -0.0 -0.7071067811865474 -0.7071067811865478
  outer loop
    vertex 174.2571826 14.592916196737367 88.00310828753923
    vertex 225.05718259999998 15.490941808844287 87.10508267543234
    vertex 225.05718259999998 14.592916196737367 88.00310828753923
  endloop
endfacet
facet normal 0.0 1.0 0.0
  outer loop
    vertex 167.9071826 22.450640302672877 89.12564030267288
    vertex 231.4071826 22.450640302672877 0.0
    vertex 167.9071826 22.450640302672877 0.0
  endloop
endfacet
facet normal 0.0 1.0 0.0
  outer loop
    vertex 231.4071826 22.450640302672877 0.0
    vertex 167.9071826 22.450640302672877 89.12564030267288
    vertex 231.4071826 22.450640302672877 89.12564030267288
  endloop
endfacet
facet normal -1.0 0.0 0.0
  outer loop
    vertex 167.9071826 -22.450640302672873 44.22435969732711
    vertex 167.9071826 -25.81823634807381 0.0
    vertex 167.9071826 -25.81823634807381 47.59195574272805
  endloop
endfacet
facet normal -1.0 0.0 0.0
  outer loop
    vertex 167.9071826 -25.81823634807381 0.0
    vertex 167.9071826 -22.450640302672873 44.22435969732711
    vertex 167.9071826 22.450640302672877 0.0
  endloop
endfacet
facet normal -1.0 0.0 0.0
  outer loop
    vertex 167.9071826 22.450640302672877 0.0
    vertex 167.9071826 -22.450640302672873 44.22435969732711
    vertex 167.9071826 22.450640302672877 89.12564030267288
  endloop
endfacet
facet normal 0.0 0.7071067811865478 0.7071067811865472
  outer loop
    vertex 167.9071826 22.450640302672877 89.12564030267288
    vertex 171.7171826 21.552614690565964 90.0236659147798
    vertex 231.4071826 22.450640302672877 89.12564030267288
  endloop
endfacet
facet normal 0.0 0.7071067811865478 0.7071067811865472
  outer loop
    vertex 171.7171826 21.552614690565964 90.0236659147798
    vertex 167.9071826 22.450640302672877 89.12564030267288
    vertex 167.9071826 19.08304425727194 92.49323634807382
  endloop
endfacet
facet normal 0.0 0.7071067811865478 0.7071067811865472
  outer loop
    vertex 171.7171826 21.552614690565964 90.0236659147798
    vertex 167.9071826 19.08304425727194 92.49323634807382
    vertex 171.7171826 19.98106986937886 91.5952107359669
  endloop
endfacet
facet normal 0.0 0.7071067811865478 0.7071067811865472
  outer loop
    vertex 171.7171826 19.98106986937886 91.5952107359669
    vertex 167.9071826 19.08304425727194 92.49323634807382
    vertex 227.59718259999997 19.98106986937886 91.5952107359669
  endloop
endfacet
facet normal 0.0 0.7071067811865478 0.7071067811865472
  outer loop
    vertex 231.4071826 22.450640302672877 89.12564030267288
    vertex 227.59718259999997 21.552614690565964 90.0236659147798
    vertex 231.4071826 19.08304425727194 92.49323634807382
  endloop
endfacet
facet normal 0.0 0.7071067811865478 0.7071067811865472
  outer loop
    vertex 227.59718259999997 21.552614690565964 90.0236659147798
    vertex 231.4071826 22.450640302672877 89.12564030267288
    vertex 171.7171826 21.552614690565964 90.0236659147798
  endloop
endfacet
facet normal 0.0 0.7071067811865478 0.7071067811865472
  outer loop
    vertex 231.4071826 19.08304425727194 92.49323634807382
    vertex 227.59718259999997 21.552614690565964 90.0236659147798
    vertex 227.59718259999997 19.98106986937886 91.5952107359669
  endloop
endfacet
facet normal 0.0 0.7071067811865478 0.7071067811865472
  outer loop
    vertex 231.4071826 19.08304425727194 92.49323634807382
    vertex 227.59718259999997 19.98106986937886 91.5952107359669
    vertex 167.9071826 19.08304425727194 92.49323634807382
  endloop
endfacet
facet normal 0.0 -0.7071067811865477 0.7071067811865474
  outer loop
    vertex 231.4071826 -25.81823634807381 47.59195574272805
    vertex 225.05718259999998 -21.328108287539234 52.08208380326262
    vertex 167.9071826 -25.81823634807381 47.59195574272805
  endloop
endfacet
facet normal 0.0 -0.7071067811865477 0.7071067811865474
  outer loop
    vertex 225.05718259999998 -21.328108287539234 52.08208380326262
    vertex 231.4071826 -25.81823634807381 47.59195574272805
    vertex 231.4071826 19.08304425727194 92.49323634807382
  endloop
endfacet
facet normal 0.0 -0.7071067811865477 0.7071067811865474
  outer loop
    vertex 225.05718259999998 -21.328108287539234 52.08208380326262
    vertex 231.4071826 19.08304425727194 92.49323634807382
    vertex 225.05718259999998 14.592916196737367 88.00310828753923
  endloop
endfacet
facet normal 0.0 -0.7071067811865477 0.7071067811865474
  outer loop
    vertex 225.05718259999998 14.592916196737367 88.00310828753923
    vertex 231.4071826 19.08304425727194 92.49323634807382
    vertex 174.2571826 14.592916196737367 88.00310828753923
  endloop
endfacet
facet normal 0.0 -0.7071067811865477 0.7071067811865474
  outer loop
    vertex 167.9071826 -25.81823634807381 47.59195574272805
    vertex 174.2571826 -21.328108287539234 52.08208380326262
    vertex 167.9071826 19.08304425727194 92.49323634807382
  endloop
endfacet
facet normal 0.0 -0.7071067811865477 0.7071067811865474
  outer loop
    vertex 174.2571826 -21.328108287539234 52.08208380326262
    vertex 167.9071826 -25.81823634807381 47.59195574272805
    vertex 225.05718259999998 -21.328108287539234 52.08208380326262
  endloop
endfacet
facet normal 0.0 -0.7071067811865477 0.7071067811865474
  outer loop
    vertex 167.9071826 19.08304425727194 92.49323634807382
    vertex 174.2571826 -21.328108287539234 52.08208380326262
    vertex 174.2571826 14.592916196737367 88.00310828753923
  endloop
endfacet
facet normal 0.0 -0.7071067811865477 0.7071067811865474
  outer loop
    vertex 167.9071826 19.08304425727194 92.49323634807382
    vertex 174.2571826 14.592916196737367 88.00310828753923
    vertex 231.4071826 19.08304425727194 92.49323634807382
  endloop
endfacet
facet normal -1.0 -0.0 -0.0
  outer loop
    vertex 227.59718259999997 19.98106986937886 91.5952107359669
    vertex 227.59718259999997 -19.756563466352254 48.714487757861804
    vertex 227.59718259999997 -21.328108287539358 50.286032579048914
  endloop
endfacet
facet normal -1.0 -0.0 -0.0
  outer loop
    vertex 227.59718259999997 -19.756563466352254 48.714487757861804
    vertex 227.59718259999997 19.98106986937886 91.5952107359669
    vertex 227.59718259999997 21.552614690565964 90.0236659147798
  endloop
endfacet
facet normal 0.0 0.7071067811865474 0.7071067811865478
  outer loop
    vertex 225.05718259999998 -21.328108287539234 52.08208380326262
    vertex 174.2571826 -20.43008267543231 51.18405819115571
    vertex 174.2571826 -21.328108287539234 52.08208380326262
  endloop
endfacet
facet normal 0.0 0.7071067811865474 0.7071067811865478
  outer loop
    vertex 174.2571826 -20.43008267543231 51.18405819115571
    vertex 225.05718259999998 -21.328108287539234 52.08208380326262
    vertex 225.05718259999998 -20.43008267543231 51.18405819115571
  endloop
endfacet
facet normal 0.0 0.0 -1.0
  outer loop
    vertex 231.4071826 22.450640302672877 0.0
    vertex 167.9071826 -25.81823634807381 0.0
    vertex 167.9071826 22.450640302672877 0.0
  endloop
endfacet
facet normal 0.0 0.0 -1.0
  outer loop
    vertex 167.9071826 -25.81823634807381 0.0
    vertex 231.4071826 22.450640302672877 0.0
    vertex 231.4071826 -25.81823634807381 0.0
  endloop
endfacet
facet normal -1.0 0.0 0.0
  outer loop
    vertex 225.05718259999998 14.592916196737367 88.00310828753923
    vertex 225.05718259999998 -20.43008267543231 51.18405819115571
    vertex 225.05718259999998 -21.328108287539234 52.08208380326262
  endloop
endfacet
facet normal -1.0 0.0 0.0
  outer loop
    vertex 225.05718259999998 -20.43008267543231 51.18405819115571
    vertex 225.05718259999998 14.592916196737367 88.00310828753923
    vertex 225.05718259999998 15.490941808844287 87.10508267543234
  endloop
endfacet
facet normal 0.0 -0.7071067811865456 0.7071067811865495
  outer loop
    vertex 227.59718259999997 -19.756563466352254 48.714487757861804
    vertex 171.7171826 21.552614690565964 90.0236659147798
    vertex 171.7171826 -19.756563466352254 48.714487757861804
  endloop
endfacet
facet normal 0.0 -0.7071067811865456 0.7071067811865495
  outer loop
    vertex 171.7171826 21.552614690565964 90.0236659147798
    vertex 227.59718259999997 -19.756563466352254 48.714487757861804
    vertex 227.59718259999997 21.552614690565964 90.0236659147798
  endloop
endfacet
facet normal 1.0 0.0 0.0
  outer loop
    vertex 171.7171826 -19.756563466352254 48.714487757861804
    vertex 171.7171826 19.98106986937886 91.5952107359669
    vertex 171.7171826 -21.328108287539358 50.286032579048914
  endloop
endfacet
facet normal 1.0 0.0 0.0
  outer loop
    vertex 171.7171826 19.98106986937886 91.5952107359669
    vertex 171.7171826 -19.756563466352254 48.714487757861804
    vertex 171.7171826 21.552614690565964 90.0236659147798
  endloop
endfacet
facet normal 1.0 0.0 0.0
  outer loop
    vertex 174.2571826 -20.43008267543231 51.18405819115571
    vertex 174.2571826 14.592916196737367 88.00310828753923
    vertex 174.2571826 -21.328108287539234 52.08208380326262
  endloop
endfacet
facet normal 1.0 0.0 0.0
  outer loop
    vertex 174.2571826 14.592916196737367 88.00310828753923
    vertex 174.2571826 -20.43008267543231 51.18405819115571
    vertex 174.2571826 15.490941808844287 87.10508267543234
  endloop
endfacet
facet normal 0.0 0.7071067811865456 -0.7071067811865495
  outer loop
    vertex 171.7171826 19.98106986937886 91.5952107359669
    vertex 174.2571826 15.490941808844287 87.10508267543234
    vertex 171.7171826 -21.328108287539358 50.286032579048914
  endloop
endfacet
facet normal 0.0 0.7071067811865456 -0.7071067811865495
  outer loop
    vertex 174.2571826 15.490941808844287 87.10508267543234
    vertex 171.7171826 19.98106986937886 91.5952107359669
    vertex 227.59718259999997 19.98106986937886 91.5952107359669
  endloop
endfacet
facet normal 0.0 0.7071067811865456 -0.7071067811865495
  outer loop
    vertex 174.2571826 15.490941808844287 87.10508267543234
    vertex 227.59718259999997 19.98106986937886 91.5952107359669
    vertex 225.05718259999998 15.490941808844287 87.10508267543234
  endloop
endfacet
facet normal 0.0 0.7071067811865456 -0.7071067811865495
  outer loop
    vertex 225.05718259999998 15.490941808844287 87.10508267543234
    vertex 227.59718259999997 19.98106986937886 91.5952107359669
    vertex 225.05718259999998 -20.43008267543231 51.18405819115571
  endloop
endfacet
facet normal 0.0 0.7071067811865456 -0.7071067811865495
  outer loop
    vertex 171.7171826 -21.328108287539358 50.286032579048914
    vertex 174.2571826 -20.43008267543231 51.18405819115571
    vertex 227.59718259999997 -21.328108287539358 50.286032579048914
  endloop
endfacet
facet normal 0.0 0.7071067811865456 -0.7071067811865495
  outer loop
    vertex 174.2571826 -20.43008267543231 51.18405819115571
    vertex 171.7171826 -21.328108287539358 50.286032579048914
    vertex 174.2571826 15.490941808844287 87.10508267543234
  endloop
endfacet
facet normal 0.0 0.7071067811865456 -0.7071067811865495
  outer loop
    vertex 227.59718259999997 -21.328108287539358 50.286032579048914
    vertex 174.2571826 -20.43008267543231 51.18405819115571
    vertex 225.05718259999998 -20.43008267543231 51.18405819115571
  endloop
endfacet
facet normal 0.0 0.7071067811865456 -0.7071067811865495
  outer loop
    vertex 227.59718259999997 -21.328108287539358 50.286032579048914
    vertex 225.05718259999998 -20.43008267543231 51.18405819115571
    vertex 227.59718259999997 19.98106986937886 91.5952107359669
  endloop
endfacet
facet normal 1.0 0.0 0.0
  outer loop
    vertex 231.4071826 -25.81823634807381 0.0
    vertex 231.4071826 -22.450640302672873 44.22435969732711
    vertex 231.4071826 -25.81823634807381 47.59195574272805
  endloop
endfacet
facet normal 1.0 0.0 0.0
  outer loop
    vertex 231.4071826 -22.450640302672873 44.22435969732711
    vertex 231.4071826 -25.81823634807381 0.0
    vertex 231.4071826 22.450640302672877 0.0
  endloop
endfacet
facet normal 1.0 0.0 0.0
  outer loop
    vertex 231.4071826 -22.450640302672873 44.22435969732711
    vertex 231.4071826 22.450640302672877 0.0
    vertex 231.4071826 22.450640302672877 89.12564030267288
  endloop
endfacet
facet normal 6.352080184525487e-19 -1.0 -1.1158463715492575e-16
  outer loop
    vertex 199.76616593119368 -25.818236348073793 15.964938427344977
    vertex 186.70021484536596 -25.818236348073793 21.77329134743905
    vertex 199.7837398221665 -25.818236348073793 14.134969231303744
  endloop
endfacet
facet normal 6.352080184525487e-19 -1.0 -1.1158463715492575e-16
  outer loop
    vertex 186.70021484536596 -25.818236348073793 21.77329134743905
    vertex 199.76616593119368 -25.818236348073793 15.964938427344977
    vertex 186.82629118354302 -25.818236348073793 23.43690739334893
  endloop
endfacet
facet normal 6.352080184525487e-19 -1.0 -1.1158463715492575e-16
  outer loop
    vertex 231.4071826 -25.81823634807381 0.0
    vertex 199.73244680283105 -25.818236348073793 3.4659640132955603
    vertex 167.9071826 -25.81823634807381 0.0
  endloop
endfacet
facet normal 6.352080184525487e-19 -1.0 -1.1158463715492575e-16
  outer loop
    vertex 199.73244680283105 -25.818236348073793 3.4659640132955603
    vertex 231.4071826 -25.81823634807381 0.0
    vertex 231.4071826 -25.81823634807381 47.59195574272805
  endloop
endfacet
facet normal 6.352080184525487e-19 -1.0 -1.1158463715492575e-16
  outer loop
    vertex 199.73244680283105 -25.818236348073793 3.4659640132955603
    vertex 231.4071826 -25.81823634807381 47.59195574272805
    vertex 212.61102750158406 -25.818236348073793 21.762317225977533
  endloop
endfacet
facet normal 6.352080184525487e-19 -1.0 -1.1158463715492575e-16
  outer loop
    vertex 212.61102750158406 -25.818236348073793 21.762317225977533
    vertex 231.4071826 -25.81823634807381 47.59195574272805
    vertex 212.51968465402172 -25.818236348073793 23.66248087559607
  endloop
endfacet
facet normal 6.352080184525487e-19 -1.0 -1.1158463715492575e-16
  outer loop
    vertex 212.51968465402172 -25.818236348073793 23.66248087559607
    vertex 231.4071826 -25.81823634807381 47.59195574272805
    vertex 199.65787962080063 -25.81823634807381 44.724096549181205
  endloop
endfacet
facet normal 6.352080184525487e-19 -1.0 -1.1158463715492575e-16
  outer loop
    vertex 199.73244680283105 -25.818236348073793 3.4659640132955603
    vertex 167.9071826 -25.81823634807381 47.59195574272805
    vertex 167.9071826 -25.81823634807381 0.0
  endloop
endfacet
facet normal 6.352080184525487e-19 -1.0 -1.1158463715492575e-16
  outer loop
    vertex 167.9071826 -25.81823634807381 47.59195574272805
    vertex 199.73244680283105 -25.818236348073793 3.4659640132955603
    vertex 186.70021484536596 -25.818236348073793 21.77329134743905
  endloop
endfacet
facet normal 6.352080184525487e-19 -1.0 -1.1158463715492575e-16
  outer loop
    vertex 167.9071826 -25.81823634807381 47.59195574272805
    vertex 186.70021484536596 -25.818236348073793 21.77329134743905
    vertex 186.82629118354302 -25.818236348073793 23.43690739334893
  endloop
endfacet
facet normal 6.352080184525487e-19 -1.0 -1.1158463715492575e-16
  outer loop
    vertex 167.9071826 -25.81823634807381 47.59195574272805
    vertex 186.82629118354302 -25.818236348073793 23.43690739334893
    vertex 199.65787962080063 -25.81823634807381 44.724096549181205
  endloop
endfacet
facet normal 6.352080184525487e-19 -1.0 -1.1158463715492575e-16
  outer loop
    vertex 167.9071826 -25.81823634807381 47.59195574272805
    vertex 199.65787962080063 -25.81823634807381 44.724096549181205
    vertex 231.4071826 -25.81823634807381 47.59195574272805
  endloop
endfacet
facet normal 6.352080184525487e-19 -1.0 -1.1158463715492575e-16
  outer loop
    vertex 212.61102750158406 -25.818236348073793 21.762317225977533
    vertex 199.76616593119368 -25.818236348073793 15.964938427344977
    vertex 199.7837398221665 -25.818236348073793 14.134969231303744
  endloop
endfacet
facet normal 6.352080184525487e-19 -1.0 -1.1158463715492575e-16
  outer loop
    vertex 199.76616593119368 -25.818236348073793 15.964938427344977
    vertex 212.61102750158406 -25.818236348073793 21.762317225977533
    vertex 212.51968465402172 -25.818236348073793 23.66248087559607
  endloop
endfacet
endsolid Bitcoin Address Stand
