solid Untitled-5ebdba30
facet normal 0.0 0.0 -1.0
  outer loop
    vertex 22.224999999999977 22.224999999999977 0.0
    vertex 3.175 3.175 0.0
    vertex 3.175 22.224999999999977 0.0
  endloop
endfacet
facet normal 0.0 0.0 -1.0
  outer loop
    vertex 3.175 3.175 0.0
    vertex 22.224999999999977 22.224999999999977 0.0
    vertex 22.224999999999977 3.175 0.0
  endloop
endfacet
facet normal 0.0 1.0 0.0
  outer loop
    vertex 1.5875 1.5875 44.449999999999996
    vertex 17.4625 1.5875 38.099999999999994
    vertex 1.5875 1.5875 38.099999999999994
  endloop
endfacet
facet normal 0.0 1.0 0.0
  outer loop
    vertex 17.4625 1.5875 38.099999999999994
    vertex 1.5875 1.5875 44.449999999999996
    vertex 23.8125 1.5875 44.449999999999996
  endloop
endfacet
facet normal 0.0 -1.0 0.0
  outer loop
    vertex 25.4 0.0 44.449999999999996
    vertex 0.0 0.0 38.099999999999994
    vertex 25.4 0.0 38.099999999999994
  endloop
endfacet
facet normal 0.0 -1.0 0.0
  outer loop
    vertex 0.0 0.0 38.099999999999994
    vertex 25.4 0.0 44.449999999999996
    vertex 0.0 0.0 44.449999999999996
  endloop
endfacet
facet normal 0.0 -1.0 0.0
  outer loop
    vertex 23.8125 23.8125 44.449999999999996
    vertex 1.5875 23.8125 38.099999999999994
    vertex 17.4625 23.8125 38.099999999999994
  endloop
endfacet
facet normal 0.0 -1.0 0.0
  outer loop
    vertex 1.5875 23.8125 38.099999999999994
    vertex 23.8125 23.8125 44.449999999999996
    vertex 1.5875 23.8125 44.449999999999996
  endloop
endfacet
facet normal 4.92013993321576e-17 -0.9990561583550596 0.04343722427630757
  outer loop
    vertex 23.547916666666666 23.547916666666662 32.01458333333333
    vertex 3.175 22.224999999999977 1.5875
    vertex 22.224999999999977 22.224999999999977 1.5875
  endloop
endfacet
facet normal 4.92013993321576e-17 -0.9990561583550596 0.04343722427630757
  outer loop
    vertex 3.175 22.224999999999977 1.5875
    vertex 23.547916666666666 23.547916666666662 32.01458333333333
    vertex 1.5875 23.8125 38.099999999999994
  endloop
endfacet
facet normal 4.92013993321576e-17 -0.9990561583550596 0.04343722427630757
  outer loop
    vertex 1.5875 23.8125 38.099999999999994
    vertex 23.547916666666666 23.547916666666662 32.01458333333333
    vertex 17.4625 23.8125 38.099999999999994
  endloop
endfacet
facet normal -0.7071067811865476 0.0 0.7071067811865476
  outer loop
    vertex 23.8125 23.8125 44.449999999999996
    vertex 17.4625 1.5875 38.099999999999994
    vertex 23.8125 1.5875 44.449999999999996
  endloop
endfacet
facet normal -0.7071067811865476 0.0 0.7071067811865476
  outer loop
    vertex 17.4625 1.5875 38.099999999999994
    vertex 23.8125 23.8125 44.449999999999996
    vertex 17.4625 23.8125 38.099999999999994
  endloop
endfacet
facet normal -0.7071067811865477 5.55358693586578e-33 -0.7071067811865474
  outer loop
    vertex 17.4625 23.8125 38.099999999999994
    vertex 23.547916666666666 1.8520833333333333 32.01458333333333
    vertex 17.4625 1.5875 38.099999999999994
  endloop
endfacet
facet normal -0.7071067811865477 5.55358693586578e-33 -0.7071067811865474
  outer loop
    vertex 23.547916666666666 1.8520833333333333 32.01458333333333
    vertex 17.4625 23.8125 38.099999999999994
    vertex 23.547916666666666 23.547916666666662 32.01458333333333
  endloop
endfacet
facet normal 0.0 0.0 1.0
  outer loop
    vertex 0.0 0.0 44.449999999999996
    vertex 1.5875 1.5875 44.449999999999996
    vertex 0.0 25.4 44.449999999999996
  endloop
endfacet
facet normal 0.0 0.0 1.0
  outer loop
    vertex 1.5875 1.5875 44.449999999999996
    vertex 0.0 0.0 44.449999999999996
    vertex 25.4 0.0 44.449999999999996
  endloop
endfacet
facet normal 0.0 0.0 1.0
  outer loop
    vertex 1.5875 1.5875 44.449999999999996
    vertex 25.4 0.0 44.449999999999996
    vertex 23.8125 1.5875 44.449999999999996
  endloop
endfacet
facet normal 0.0 0.0 1.0
  outer loop
    vertex 23.8125 1.5875 44.449999999999996
    vertex 25.4 0.0 44.449999999999996
    vertex 23.8125 23.8125 44.449999999999996
  endloop
endfacet
facet normal 0.0 0.0 1.0
  outer loop
    vertex 0.0 25.4 44.449999999999996
    vertex 1.5875 23.8125 44.449999999999996
    vertex 25.4 25.4 44.449999999999996
  endloop
endfacet
facet normal 0.0 0.0 1.0
  outer loop
    vertex 1.5875 23.8125 44.449999999999996
    vertex 0.0 25.4 44.449999999999996
    vertex 1.5875 1.5875 44.449999999999996
  endloop
endfacet
facet normal 0.0 0.0 1.0
  outer loop
    vertex 25.4 25.4 44.449999999999996
    vertex 1.5875 23.8125 44.449999999999996
    vertex 23.8125 23.8125 44.449999999999996
  endloop
endfacet
facet normal 0.0 0.0 1.0
  outer loop
    vertex 25.4 25.4 44.449999999999996
    vertex 23.8125 23.8125 44.449999999999996
    vertex 25.4 0.0 44.449999999999996
  endloop
endfacet
facet normal -1.0 0.0 0.0
  outer loop
    vertex 0.0 25.4 44.449999999999996
    vertex 0.0 0.0 38.099999999999994
    vertex 0.0 0.0 44.449999999999996
  endloop
endfacet
facet normal -1.0 0.0 0.0
  outer loop
    vertex 0.0 0.0 38.099999999999994
    vertex 0.0 25.4 44.449999999999996
    vertex 0.0 25.4 38.099999999999994
  endloop
endfacet
facet normal 1.0 0.0 0.0
  outer loop
    vertex 1.5875 23.8125 38.099999999999994
    vertex 1.5875 1.5875 44.449999999999996
    vertex 1.5875 1.5875 38.099999999999994
  endloop
endfacet
facet normal 1.0 0.0 0.0
  outer loop
    vertex 1.5875 1.5875 44.449999999999996
    vertex 1.5875 23.8125 38.099999999999994
    vertex 1.5875 23.8125 44.449999999999996
  endloop
endfacet
facet normal 0.0 1.0 0.0
  outer loop
    vertex 0.0 25.4 44.449999999999996
    vertex 25.4 25.4 38.099999999999994
    vertex 0.0 25.4 38.099999999999994
  endloop
endfacet
facet normal 0.0 1.0 0.0
  outer loop
    vertex 25.4 25.4 38.099999999999994
    vertex 0.0 25.4 44.449999999999996
    vertex 25.4 25.4 44.449999999999996
  endloop
endfacet
facet normal 1.0 0.0 0.0
  outer loop
    vertex 25.4 25.4 38.099999999999994
    vertex 25.4 0.0 44.449999999999996
    vertex 25.4 0.0 38.099999999999994
  endloop
endfacet
facet normal 1.0 0.0 0.0
  outer loop
    vertex 25.4 0.0 44.449999999999996
    vertex 25.4 25.4 38.099999999999994
    vertex 25.4 25.4 44.449999999999996
  endloop
endfacet
facet normal 0.0 0.0 -1.0
  outer loop
    vertex 1.5874999999999997 23.812499999999975 0.0
    vertex 3.175 22.224999999999977 0.0
    vertex 1.5874999999999997 1.5874999999999997 0.0
  endloop
endfacet
facet normal 0.0 0.0 -1.0
  outer loop
    vertex 3.175 22.224999999999977 0.0
    vertex 1.5874999999999997 23.812499999999975 0.0
    vertex 23.812499999999975 23.812499999999975 0.0
  endloop
endfacet
facet normal 0.0 0.0 -1.0
  outer loop
    vertex 3.175 22.224999999999977 0.0
    vertex 23.812499999999975 23.812499999999975 0.0
    vertex 22.224999999999977 22.224999999999977 0.0
  endloop
endfacet
facet normal 0.0 0.0 -1.0
  outer loop
    vertex 22.224999999999977 22.224999999999977 0.0
    vertex 23.812499999999975 23.812499999999975 0.0
    vertex 22.224999999999977 3.175 0.0
  endloop
endfacet
facet normal 0.0 0.0 -1.0
  outer loop
    vertex 1.5874999999999997 1.5874999999999997 0.0
    vertex 3.175 3.175 0.0
    vertex 23.812499999999975 1.5874999999999997 0.0
  endloop
endfacet
facet normal 0.0 0.0 -1.0
  outer loop
    vertex 3.175 3.175 0.0
    vertex 1.5874999999999997 1.5874999999999997 0.0
    vertex 3.175 22.224999999999977 0.0
  endloop
endfacet
facet normal 0.0 0.0 -1.0
  outer loop
    vertex 23.812499999999975 1.5874999999999997 0.0
    vertex 3.175 3.175 0.0
    vertex 22.224999999999977 3.175 0.0
  endloop
endfacet
facet normal 0.0 0.0 -1.0
  outer loop
    vertex 23.812499999999975 1.5874999999999997 0.0
    vertex 22.224999999999977 3.175 0.0
    vertex 23.812499999999975 23.812499999999975 0.0
  endloop
endfacet
facet normal 0.9990561583550596 -1.815529657124247e-18 0.04343722427630694
  outer loop
    vertex 3.175 3.175 1.5875
    vertex 1.5875 23.8125 38.099999999999994
    vertex 1.5875 1.5875 38.099999999999994
  endloop
endfacet
facet normal 0.9990561583550596 -1.815529657124247e-18 0.04343722427630694
  outer loop
    vertex 1.5875 23.8125 38.099999999999994
    vertex 3.175 3.175 1.5875
    vertex 3.175 22.224999999999977 1.5875
  endloop
endfacet
facet normal 0.0 0.0 1.0
  outer loop
    vertex 22.224999999999977 3.175 1.5875
    vertex 3.175 22.224999999999977 1.5875
    vertex 3.175 3.175 1.5875
  endloop
endfacet
facet normal 0.0 0.0 1.0
  outer loop
    vertex 3.175 22.224999999999977 1.5875
    vertex 22.224999999999977 3.175 1.5875
    vertex 22.224999999999977 22.224999999999977 1.5875
  endloop
endfacet
facet normal 1.9632929954187898e-18 -0.999133073092352 -0.041630544712181326
  outer loop
    vertex 25.4 0.0 38.099999999999994
    vertex 1.5874999999999997 1.5874999999999997 0.0
    vertex 23.812499999999975 1.5874999999999997 0.0
  endloop
endfacet
facet normal 1.9632929954187898e-18 -0.999133073092352 -0.041630544712181326
  outer loop
    vertex 1.5874999999999997 1.5874999999999997 0.0
    vertex 25.4 0.0 38.099999999999994
    vertex 0.0 0.0 38.099999999999994
  endloop
endfacet
facet normal -0.999133073092352 1.9632929954187898e-18 -0.041630544712181326
  outer loop
    vertex 0.0 25.4 38.099999999999994
    vertex 1.5874999999999997 1.5874999999999997 0.0
    vertex 0.0 0.0 38.099999999999994
  endloop
endfacet
facet normal -0.999133073092352 1.9632929954187898e-18 -0.041630544712181326
  outer loop
    vertex 1.5874999999999997 1.5874999999999997 0.0
    vertex 0.0 25.4 38.099999999999994
    vertex 1.5874999999999997 23.812499999999975 0.0
  endloop
endfacet
facet normal 4.464011443403242e-31 0.999133073092352 -0.041630544712181916
  outer loop
    vertex 0.0 25.4 38.099999999999994
    vertex 23.812499999999975 23.812499999999975 0.0
    vertex 1.5874999999999997 23.812499999999975 0.0
  endloop
endfacet
facet normal 4.464011443403242e-31 0.999133073092352 -0.041630544712181916
  outer loop
    vertex 23.812499999999975 23.812499999999975 0.0
    vertex 0.0 25.4 38.099999999999994
    vertex 25.4 25.4 38.099999999999994
  endloop
endfacet
facet normal 0.999133073092352 4.464011443403242e-31 -0.041630544712181916
  outer loop
    vertex 23.812499999999975 1.5874999999999997 0.0
    vertex 25.4 25.4 38.099999999999994
    vertex 25.4 0.0 38.099999999999994
  endloop
endfacet
facet normal 0.999133073092352 4.464011443403242e-31 -0.041630544712181916
  outer loop
    vertex 25.4 25.4 38.099999999999994
    vertex 23.812499999999975 1.5874999999999997 0.0
    vertex 23.812499999999975 23.812499999999975 0.0
  endloop
endfacet
facet normal -0.9990561583550596 3.1491237040556385e-18 0.043437224276307716
  outer loop
    vertex 23.547916666666666 23.547916666666662 32.01458333333333
    vertex 22.224999999999977 3.175 1.5875
    vertex 23.547916666666666 1.8520833333333333 32.01458333333333
  endloop
endfacet
facet normal -0.9990561583550596 3.1491237040556385e-18 0.043437224276307716
  outer loop
    vertex 22.224999999999977 3.175 1.5875
    vertex 23.547916666666666 23.547916666666662 32.01458333333333
    vertex 22.224999999999977 22.224999999999977 1.5875
  endloop
endfacet
facet normal 3.308248596010597e-18 0.9990561583550596 0.04343722427630694
  outer loop
    vertex 1.5875 1.5875 38.099999999999994
    vertex 22.224999999999977 3.175 1.5875
    vertex 3.175 3.175 1.5875
  endloop
endfacet
facet normal 3.308248596010597e-18 0.9990561583550596 0.04343722427630694
  outer loop
    vertex 22.224999999999977 3.175 1.5875
    vertex 1.5875 1.5875 38.099999999999994
    vertex 23.547916666666666 1.8520833333333333 32.01458333333333
  endloop
endfacet
facet normal 3.308248596010597e-18 0.9990561583550596 0.04343722427630694
  outer loop
    vertex 23.547916666666666 1.8520833333333333 32.01458333333333
    vertex 1.5875 1.5875 38.099999999999994
    vertex 17.4625 1.5875 38.099999999999994
  endloop
endfacet
endsolid Untitled-5ebdba30
