solid B Bolt Holder
facet normal 0.9990561583550596 0.0 -0.04343722427630694
  outer loop
    vertex 36.512499999999996 1.5875 1.5875
    vertex 38.099999999999994 38.099999999999994 38.099999999999994
    vertex 38.099999999999994 0.0 38.099999999999994
  endloop
endfacet
facet normal 0.9990561583550596 0.0 -0.04343722427630694
  outer loop
    vertex 38.099999999999994 38.099999999999994 38.099999999999994
    vertex 36.512499999999996 1.5875 1.5875
    vertex 36.512499999999996 36.512499999999996 1.5875
  endloop
endfacet
facet normal -0.9990561583550596 0.0 -0.04343722427630694
  outer loop
    vertex 0.0 38.099999999999994 38.099999999999994
    vertex 1.5875 1.5875 1.5875
    vertex 0.0 0.0 38.099999999999994
  endloop
endfacet
facet normal -0.9990561583550596 0.0 -0.04343722427630694
  outer loop
    vertex 1.5875 1.5875 1.5875
    vertex 0.0 38.099999999999994 38.099999999999994
    vertex 1.5875 36.512499999999996 1.5875
  endloop
endfacet
facet normal -0.7071067811865476 0.0 0.7071067811865476
  outer loop
    vertex 36.512499999999996 31.75 44.449999999999996
    vertex 30.162499999999998 6.35 38.099999999999994
    vertex 36.512499999999996 6.35 44.449999999999996
  endloop
endfacet
facet normal -0.7071067811865476 0.0 0.7071067811865476
  outer loop
    vertex 30.162499999999998 6.35 38.099999999999994
    vertex 36.512499999999996 31.75 44.449999999999996
    vertex 30.162499999999998 31.75 38.099999999999994
  endloop
endfacet
facet normal 0.0 0.0 1.0
  outer loop
    vertex 0.0 0.0 44.449999999999996
    vertex 1.5875 1.5875 44.449999999999996
    vertex 0.0 38.099999999999994 44.449999999999996
  endloop
endfacet
facet normal 0.0 0.0 1.0
  outer loop
    vertex 1.5875 1.5875 44.449999999999996
    vertex 0.0 0.0 44.449999999999996
    vertex 38.099999999999994 0.0 44.449999999999996
  endloop
endfacet
facet normal 0.0 0.0 1.0
  outer loop
    vertex 1.5875 1.5875 44.449999999999996
    vertex 38.099999999999994 0.0 44.449999999999996
    vertex 36.512499999999996 1.5875 44.449999999999996
  endloop
endfacet
facet normal 0.0 0.0 1.0
  outer loop
    vertex 36.512499999999996 1.5875 44.449999999999996
    vertex 38.099999999999994 0.0 44.449999999999996
    vertex 36.512499999999996 6.35 44.449999999999996
  endloop
endfacet
facet normal 0.0 0.0 1.0
  outer loop
    vertex 36.512499999999996 6.35 44.449999999999996
    vertex 38.099999999999994 0.0 44.449999999999996
    vertex 36.512499999999996 31.75 44.449999999999996
  endloop
endfacet
facet normal 0.0 0.0 1.0
  outer loop
    vertex 36.512499999999996 31.75 44.449999999999996
    vertex 38.099999999999994 0.0 44.449999999999996
    vertex 36.512499999999996 36.512499999999996 44.449999999999996
  endloop
endfacet
facet normal 0.0 0.0 1.0
  outer loop
    vertex 0.0 38.099999999999994 44.449999999999996
    vertex 1.5875 36.512499999999996 44.449999999999996
    vertex 38.099999999999994 38.099999999999994 44.449999999999996
  endloop
endfacet
facet normal 0.0 0.0 1.0
  outer loop
    vertex 1.5875 36.512499999999996 44.449999999999996
    vertex 0.0 38.099999999999994 44.449999999999996
    vertex 1.5875 1.5875 44.449999999999996
  endloop
endfacet
facet normal 0.0 0.0 1.0
  outer loop
    vertex 38.099999999999994 38.099999999999994 44.449999999999996
    vertex 1.5875 36.512499999999996 44.449999999999996
    vertex 36.512499999999996 36.512499999999996 44.449999999999996
  endloop
endfacet
facet normal 0.0 0.0 1.0
  outer loop
    vertex 38.099999999999994 38.099999999999994 44.449999999999996
    vertex 36.512499999999996 36.512499999999996 44.449999999999996
    vertex 38.099999999999994 0.0 44.449999999999996
  endloop
endfacet
facet normal 0.9990561583550596 0.0 0.04343722427630694
  outer loop
    vertex 3.175 3.175 1.5875
    vertex 1.5875 36.512499999999996 38.099999999999994
    vertex 1.5875 1.5875 38.099999999999994
  endloop
endfacet
facet normal 0.9990561583550596 0.0 0.04343722427630694
  outer loop
    vertex 1.5875 36.512499999999996 38.099999999999994
    vertex 3.175 3.175 1.5875
    vertex 3.175 34.925 1.5875
  endloop
endfacet
facet normal -1.0 -0.0 -0.0
  outer loop
    vertex 1.5875 36.512499999999996 1.5875
    vertex 1.5875 1.5875 0.0
    vertex 1.5875 1.5875 1.5875
  endloop
endfacet
facet normal -1.0 -0.0 -0.0
  outer loop
    vertex 1.5875 1.5875 0.0
    vertex 1.5875 36.512499999999996 1.5875
    vertex 1.5875 36.512499999999996 0.0
  endloop
endfacet
facet normal 0.0 0.0 1.0
  outer loop
    vertex 34.925 3.175 1.5875
    vertex 3.175 34.925 1.5875
    vertex 3.175 3.175 1.5875
  endloop
endfacet
facet normal 0.0 0.0 1.0
  outer loop
    vertex 3.175 34.925 1.5875
    vertex 34.925 3.175 1.5875
    vertex 34.925 34.925 1.5875
  endloop
endfacet
facet normal -0.9990561583550596 4.3543358274565406e-33 0.043437224276306946
  outer loop
    vertex 36.512499999999996 6.35 38.099999999999994
    vertex 34.925 3.175 1.5875
    vertex 36.512499999999996 1.5875 38.099999999999994
  endloop
endfacet
facet normal -0.9990561583550596 4.3543358274565406e-33 0.043437224276306946
  outer loop
    vertex 34.925 3.175 1.5875
    vertex 36.512499999999996 6.35 38.099999999999994
    vertex 36.236933471757254 6.625566528242744 31.76196985041689
  endloop
endfacet
facet normal -0.9990561583550596 4.3543358274565406e-33 0.043437224276306946
  outer loop
    vertex 34.925 3.175 1.5875
    vertex 36.236933471757254 6.625566528242744 31.76196985041689
    vertex 34.925 34.925 1.5875
  endloop
endfacet
facet normal -0.9990561583550596 4.3543358274565406e-33 0.043437224276306946
  outer loop
    vertex 34.925 34.925 1.5875
    vertex 36.236933471757254 6.625566528242744 31.76196985041689
    vertex 36.236933471757254 31.47443347175726 31.76196985041689
  endloop
endfacet
facet normal -0.9990561583550596 4.3543358274565406e-33 0.043437224276306946
  outer loop
    vertex 34.925 34.925 1.5875
    vertex 36.236933471757254 31.47443347175726 31.76196985041689
    vertex 36.512499999999996 31.75 38.099999999999994
  endloop
endfacet
facet normal -0.9990561583550596 4.3543358274565406e-33 0.043437224276306946
  outer loop
    vertex 34.925 34.925 1.5875
    vertex 36.512499999999996 31.75 38.099999999999994
    vertex 36.512499999999996 36.512499999999996 38.099999999999994
  endloop
endfacet
facet normal 0.0 1.0 0.0
  outer loop
    vertex 1.5875 36.512499999999996 1.5875
    vertex 36.512499999999996 36.512499999999996 0.0
    vertex 1.5875 36.512499999999996 0.0
  endloop
endfacet
facet normal 0.0 1.0 0.0
  outer loop
    vertex 36.512499999999996 36.512499999999996 0.0
    vertex 1.5875 36.512499999999996 1.5875
    vertex 36.512499999999996 36.512499999999996 1.5875
  endloop
endfacet
facet normal 0.0 -1.0 0.0
  outer loop
    vertex 36.512499999999996 1.5875 1.5875
    vertex 1.5875 1.5875 0.0
    vertex 36.512499999999996 1.5875 0.0
  endloop
endfacet
facet normal 0.0 -1.0 0.0
  outer loop
    vertex 1.5875 1.5875 0.0
    vertex 36.512499999999996 1.5875 1.5875
    vertex 1.5875 1.5875 1.5875
  endloop
endfacet
facet normal 1.0 0.0 0.0
  outer loop
    vertex 36.512499999999996 36.512499999999996 0.0
    vertex 36.512499999999996 1.5875 1.5875
    vertex 36.512499999999996 1.5875 0.0
  endloop
endfacet
facet normal 1.0 0.0 0.0
  outer loop
    vertex 36.512499999999996 1.5875 1.5875
    vertex 36.512499999999996 36.512499999999996 0.0
    vertex 36.512499999999996 36.512499999999996 1.5875
  endloop
endfacet
facet normal 0.0 0.0 -1.0
  outer loop
    vertex 36.512499999999996 36.512499999999996 0.0
    vertex 1.5875 1.5875 0.0
    vertex 1.5875 36.512499999999996 0.0
  endloop
endfacet
facet normal 0.0 0.0 -1.0
  outer loop
    vertex 1.5875 1.5875 0.0
    vertex 36.512499999999996 36.512499999999996 0.0
    vertex 36.512499999999996 1.5875 0.0
  endloop
endfacet
facet normal -1.0 -0.0 -0.0
  outer loop
    vertex 0.0 38.099999999999994 44.449999999999996
    vertex 0.0 0.0 38.099999999999994
    vertex 0.0 0.0 44.449999999999996
  endloop
endfacet
facet normal -1.0 -0.0 -0.0
  outer loop
    vertex 0.0 0.0 38.099999999999994
    vertex 0.0 38.099999999999994 44.449999999999996
    vertex 0.0 38.099999999999994 38.099999999999994
  endloop
endfacet
facet normal 1.0 0.0 0.0
  outer loop
    vertex 1.5875 36.512499999999996 38.099999999999994
    vertex 1.5875 1.5875 44.449999999999996
    vertex 1.5875 1.5875 38.099999999999994
  endloop
endfacet
facet normal 1.0 0.0 0.0
  outer loop
    vertex 1.5875 1.5875 44.449999999999996
    vertex 1.5875 36.512499999999996 38.099999999999994
    vertex 1.5875 36.512499999999996 44.449999999999996
  endloop
endfacet
facet normal -1.0 0.0 0.0
  outer loop
    vertex 36.512499999999996 6.35 44.449999999999996
    vertex 36.512499999999996 1.5875 38.099999999999994
    vertex 36.512499999999996 1.5875 44.449999999999996
  endloop
endfacet
facet normal -1.0 0.0 0.0
  outer loop
    vertex 36.512499999999996 1.5875 38.099999999999994
    vertex 36.512499999999996 6.35 44.449999999999996
    vertex 36.512499999999996 6.35 38.099999999999994
  endloop
endfacet
facet normal 1.0 0.0 0.0
  outer loop
    vertex 38.099999999999994 38.099999999999994 38.099999999999994
    vertex 38.099999999999994 0.0 44.449999999999996
    vertex 38.099999999999994 0.0 38.099999999999994
  endloop
endfacet
facet normal 1.0 0.0 0.0
  outer loop
    vertex 38.099999999999994 0.0 44.449999999999996
    vertex 38.099999999999994 38.099999999999994 38.099999999999994
    vertex 38.099999999999994 38.099999999999994 44.449999999999996
  endloop
endfacet
facet normal -1.0 0.0 0.0
  outer loop
    vertex 36.512499999999996 36.512499999999996 44.449999999999996
    vertex 36.512499999999996 31.75 38.099999999999994
    vertex 36.512499999999996 31.75 44.449999999999996
  endloop
endfacet
facet normal -1.0 0.0 0.0
  outer loop
    vertex 36.512499999999996 31.75 38.099999999999994
    vertex 36.512499999999996 36.512499999999996 44.449999999999996
    vertex 36.512499999999996 36.512499999999996 38.099999999999994
  endloop
endfacet
facet normal 0.0 1.0 0.0
  outer loop
    vertex 36.512499999999996 31.75 44.449999999999996
    vertex 36.512499999999996 31.75 38.099999999999994
    vertex 30.162499999999998 31.75 38.099999999999994
  endloop
endfacet
facet normal 0.0 0.9990561583550596 -0.043437224276306564
  outer loop
    vertex 36.512499999999996 31.75 38.099999999999994
    vertex 36.236933471757254 31.47443347175726 31.76196985041689
    vertex 30.162499999999998 31.75 38.099999999999994
  endloop
endfacet
facet normal -0.7219604408453253 1.1365063103165837e-17 -0.6919343334843443
  outer loop
    vertex 30.162499999999998 31.75 38.099999999999994
    vertex 36.236933471757254 6.625566528242744 31.76196985041689
    vertex 30.162499999999998 6.35 38.099999999999994
  endloop
endfacet
facet normal -0.7219604408453253 1.1365063103165837e-17 -0.6919343334843443
  outer loop
    vertex 36.236933471757254 6.625566528242744 31.76196985041689
    vertex 30.162499999999998 31.75 38.099999999999994
    vertex 36.236933471757254 31.47443347175726 31.76196985041689
  endloop
endfacet
facet normal -9.620826848910435e-18 -0.9990561583550596 0.043437224276306946
  outer loop
    vertex 36.512499999999996 36.512499999999996 38.099999999999994
    vertex 3.175 34.925 1.5875
    vertex 34.925 34.925 1.5875
  endloop
endfacet
facet normal -9.620826848910435e-18 -0.9990561583550596 0.043437224276306946
  outer loop
    vertex 3.175 34.925 1.5875
    vertex 36.512499999999996 36.512499999999996 38.099999999999994
    vertex 1.5875 36.512499999999996 38.099999999999994
  endloop
endfacet
facet normal 0.0 -1.0 0.0
  outer loop
    vertex 36.512499999999996 36.512499999999996 44.449999999999996
    vertex 1.5875 36.512499999999996 38.099999999999994
    vertex 36.512499999999996 36.512499999999996 38.099999999999994
  endloop
endfacet
facet normal 0.0 -1.0 0.0
  outer loop
    vertex 1.5875 36.512499999999996 38.099999999999994
    vertex 36.512499999999996 36.512499999999996 44.449999999999996
    vertex 1.5875 36.512499999999996 44.449999999999996
  endloop
endfacet
facet normal 0.0 1.0 0.0
  outer loop
    vertex 1.5875 1.5875 44.449999999999996
    vertex 36.512499999999996 1.5875 38.099999999999994
    vertex 1.5875 1.5875 38.099999999999994
  endloop
endfacet
facet normal 0.0 1.0 0.0
  outer loop
    vertex 36.512499999999996 1.5875 38.099999999999994
    vertex 1.5875 1.5875 44.449999999999996
    vertex 36.512499999999996 1.5875 44.449999999999996
  endloop
endfacet
facet normal 1.2612046380072491e-18 0.9990561583550596 0.04343722427630694
  outer loop
    vertex 1.5875 1.5875 38.099999999999994
    vertex 34.925 3.175 1.5875
    vertex 3.175 3.175 1.5875
  endloop
endfacet
facet normal 1.2612046380072491e-18 0.9990561583550596 0.04343722427630694
  outer loop
    vertex 34.925 3.175 1.5875
    vertex 1.5875 1.5875 38.099999999999994
    vertex 36.512499999999996 1.5875 38.099999999999994
  endloop
endfacet
facet normal 0.0 1.0 0.0
  outer loop
    vertex 0.0 38.099999999999994 44.449999999999996
    vertex 38.099999999999994 38.099999999999994 38.099999999999994
    vertex 0.0 38.099999999999994 38.099999999999994
  endloop
endfacet
facet normal 0.0 1.0 0.0
  outer loop
    vertex 38.099999999999994 38.099999999999994 38.099999999999994
    vertex 0.0 38.099999999999994 44.449999999999996
    vertex 38.099999999999994 38.099999999999994 44.449999999999996
  endloop
endfacet
facet normal -1.7806006647373022e-17 0.9990561583550596 -0.04343722427630694
  outer loop
    vertex 0.0 38.099999999999994 38.099999999999994
    vertex 36.512499999999996 36.512499999999996 1.5875
    vertex 1.5875 36.512499999999996 1.5875
  endloop
endfacet
facet normal -1.7806006647373022e-17 0.9990561583550596 -0.04343722427630694
  outer loop
    vertex 36.512499999999996 36.512499999999996 1.5875
    vertex 0.0 38.099999999999994 38.099999999999994
    vertex 38.099999999999994 38.099999999999994 38.099999999999994
  endloop
endfacet
facet normal 0.0 -1.0 0.0
  outer loop
    vertex 38.099999999999994 0.0 44.449999999999996
    vertex 0.0 0.0 38.099999999999994
    vertex 38.099999999999994 0.0 38.099999999999994
  endloop
endfacet
facet normal 0.0 -1.0 0.0
  outer loop
    vertex 0.0 0.0 38.099999999999994
    vertex 38.099999999999994 0.0 44.449999999999996
    vertex 0.0 0.0 44.449999999999996
  endloop
endfacet
facet normal 2.1984793557479896e-18 -0.9990561583550596 -0.04343722427630693
  outer loop
    vertex 38.099999999999994 0.0 38.099999999999994
    vertex 1.5875 1.5875 1.5875
    vertex 36.512499999999996 1.5875 1.5875
  endloop
endfacet
facet normal 2.1984793557479896e-18 -0.9990561583550596 -0.04343722427630693
  outer loop
    vertex 1.5875 1.5875 1.5875
    vertex 38.099999999999994 0.0 38.099999999999994
    vertex 0.0 0.0 38.099999999999994
  endloop
endfacet
facet normal 0.0 -1.0 0.0
  outer loop
    vertex 36.512499999999996 6.35 44.449999999999996
    vertex 30.162499999999998 6.35 38.099999999999994
    vertex 36.512499999999996 6.35 38.099999999999994
  endloop
endfacet
facet normal -5.218915447157531e-18 -0.9990561583550596 -0.043437224276307
  outer loop
    vertex 30.162499999999998 6.35 38.099999999999994
    vertex 36.236933471757254 6.625566528242744 31.76196985041689
    vertex 36.512499999999996 6.35 38.099999999999994
  endloop
endfacet
endsolid B Bolt Holder
