solid Bear Skull Rack
facet normal -0.12656165196114183 -0.03192546175598975 0.9914448613738103
  outer loop
    vertex 121.8572998398163 -58.27785052095234 -11.382106116681
    vertex 121.31519884983297 -48.591226354188585 -11.139388884554567
    vertex 119.52757568213016 -49.04215832442049 -11.382106116680992
  endloop
endfacet
facet normal -0.12656165196114183 -0.03192546175598975 0.9914448613738103
  outer loop
    vertex 121.31519884983297 -48.591226354188585 -11.139388884554567
    vertex 121.8572998398163 -58.27785052095234 -11.382106116681
    vertex 123.64492300751826 -57.826918550721295 -11.139388884554572
  endloop
endfacet
facet normal -0.969626477326261 -0.24459046274919669 0.0
  outer loop
    vertex 125.98314668783108 -47.413725998656595 -4.258903829062469
    vertex 128.31287084551712 -56.64941819518849 -6.640153829062457
    vertex 128.31287084551712 -56.64941819518849 -4.258903829062469
  endloop
endfacet
facet normal -0.969626477326261 -0.24459046274919669 0.0
  outer loop
    vertex 128.31287084551712 -56.64941819518849 -6.640153829062457
    vertex 125.98314668783108 -47.413725998656595 -4.258903829062469
    vertex 125.98314668783108 -47.413725998656595 -6.640153829062457
  endloop
endfacet
facet normal 0.9696264773262083 0.2445904627494048 -6.827541935584271e-15
  outer loop
    vertex 115.40172883411668 -59.9062828467162 -6.640153829062454
    vertex 113.07200467642883 -50.67059065018484 -4.258903829062469
    vertex 115.40172883411678 -59.90628284671629 -4.258903829062469
  endloop
endfacet
facet normal 0.9696264773262083 0.2445904627494048 -6.827541935584271e-15
  outer loop
    vertex 113.07200467642883 -50.67059065018484 -4.258903829062469
    vertex 115.40172883411668 -59.9062828467162 -6.640153829062454
    vertex 113.07200467642883 -50.67059065018484 -6.640153829062454
  endloop
endfacet
facet normal -0.3710599884554511 -0.09360071780870473 -0.9238795325112121
  outer loop
    vertex 117.13720264696215 -49.645135306264855 -13.459347324465835
    vertex 117.23945374155129 -59.442712599795705 -12.50779580010926
    vertex 114.90972958386365 -50.207020403263634 -12.50779580010926
  endloop
endfacet
facet normal -0.3710599884554511 -0.09360071780870473 -0.9238795325112121
  outer loop
    vertex 117.23945374155129 -59.442712599795705 -12.50779580010926
    vertex 117.13720264696215 -49.645135306264855 -13.459347324465835
    vertex 119.46692680464828 -58.880827502797665 -13.459347324465835
  endloop
endfacet
facet normal -0.5902711999418887 -0.14889723962520404 0.7933533402911704
  outer loop
    vertex 125.31072261053009 -57.40671684905966 -10.42777796643554
    vertex 124.41145300108005 -47.810189270990456 -9.295768470401033
    vertex 122.98099845284246 -48.171024652528196 -10.427777966435537
  endloop
endfacet
facet normal -0.5902711999418887 -0.14889723962520404 0.7933533402911704
  outer loop
    vertex 124.41145300108005 -47.810189270990456 -9.295768470401033
    vertex 125.31072261053009 -57.40671684905966 -10.42777796643554
    vertex 126.74117715876687 -57.04588146752258 -9.295768470401038
  endloop
endfacet
facet normal -0.5902711999416824 -0.14889723962513463 -0.793353340291337
  outer loop
    vertex 114.90972958386365 -50.207020403263634 -12.50779580010926
    vertex 115.32667925869661 -59.92521427114726 -10.994095919864348
    vertex 112.99695510101016 -50.6895220746146 -10.994095919864343
  endloop
endfacet
facet normal -0.5902711999416824 -0.14889723962513463 -0.793353340291337
  outer loop
    vertex 115.32667925869661 -59.92521427114726 -10.994095919864348
    vertex 114.90972958386365 -50.207020403263634 -12.50779580010926
    vertex 117.23945374155129 -59.442712599795705 -12.50779580010926
  endloop
endfacet
facet normal -0.371059988455252 -0.09360071780863934 0.9238795325112986
  outer loop
    vertex 123.64492300751826 -57.826918550721295 -11.139388884554572
    vertex 122.98099845284246 -48.171024652528196 -10.427777966435537
    vertex 121.31519884983297 -48.591226354188585 -11.139388884554567
  endloop
endfacet
facet normal -0.371059988455252 -0.09360071780863934 0.9238795325112986
  outer loop
    vertex 122.98099845284246 -48.171024652528196 -10.427777966435537
    vertex 123.64492300751826 -57.826918550721295 -11.139388884554572
    vertex 125.31072261053009 -57.40671684905966 -10.42777796643554
  endloop
endfacet
facet normal 0.7692564046216029 0.19404666062553524 0.6087614290087071
  outer loop
    vertex 116.97342252086645 -59.50981957438285 -9.295768470401045
    vertex 113.54607198323988 -50.551006104322745 -7.820504972871708
    vertex 115.87579614092688 -59.786698300854106 -7.820504972871711
  endloop
endfacet
facet normal 0.7692564046216029 0.19404666062553524 0.6087614290087071
  outer loop
    vertex 113.54607198323988 -50.551006104322745 -7.820504972871708
    vertex 116.97342252086645 -59.50981957438285 -9.295768470401045
    vertex 114.64369836317964 -50.27412737785049 -9.295768470401045
  endloop
endfacet
facet normal 0.0 0.0 -1.0
  outer loop
    vertex 128.76326787866375 -46.71243416673448 -13.783903829062458
    vertex 121.8572998398163 -58.27785052095234 -13.783903829062458
    vertex 119.52757568213016 -49.04215832442049 -13.783903829062458
  endloop
endfacet
facet normal 0.0 0.0 -1.0
  outer loop
    vertex 121.8572998398163 -58.27785052095234 -13.783903829062458
    vertex 128.76326787866375 -46.71243416673448 -13.783903829062458
    vertex 131.09299203634836 -55.9481263632697 -13.783903829062458
  endloop
endfacet
facet normal -0.9613311883970795 -0.2424979574337211 -0.13052619222030554
  outer loop
    vertex 110.29188348559728 -51.37188248210657 -4.258903829062469
    vertex 112.93630622352941 -60.528191252991846 -6.724155233663972
    vertex 112.62160764328355 -60.60757467863914 -4.258903829062469
  endloop
endfacet
facet normal -0.9613311883970795 -0.2424979574337211 -0.13052619222030554
  outer loop
    vertex 112.93630622352941 -60.528191252991846 -6.724155233663972
    vertex 110.29188348559728 -51.37188248210657 -4.258903829062469
    vertex 110.6065820658435 -51.2924990564588 -6.724155233663972
  endloop
endfacet
facet normal 0.12656165196117555 0.0319254617560066 0.9914448613738054
  outer loop
    vertex 120.06967667211461 -58.72878249118477 -11.139388884554572
    vertex 119.52757568213016 -49.04215832442049 -11.382106116680992
    vertex 117.73995251442798 -49.49309029465206 -11.139388884554572
  endloop
endfacet
facet normal 0.12656165196117555 0.0319254617560066 0.9914448613738054
  outer loop
    vertex 119.52757568213016 -49.04215832442049 -11.382106116680992
    vertex 120.06967667211461 -58.72878249118477 -11.139388884554572
    vertex 121.8572998398163 -58.27785052095234 -11.382106116681
  endloop
endfacet
facet normal 0.5902711999417819 0.14889723962507678 0.7933533402912736
  outer loop
    vertex 116.97342252086645 -59.50981957438285 -9.295768470401045
    vertex 116.07415291141827 -49.91329199631247 -10.427777966435544
    vertex 114.64369836317964 -50.27412737785049 -9.295768470401045
  endloop
endfacet
facet normal 0.5902711999417819 0.14889723962507678 0.7933533402912736
  outer loop
    vertex 116.07415291141827 -49.91329199631247 -10.427777966435544
    vertex 116.97342252086645 -59.50981957438285 -9.295768470401045
    vertex 118.4038770691031 -59.14898419284565 -10.427777966435544
  endloop
endfacet
facet normal -0.126561651961104 -0.0319254617559858 -0.9914448613738152
  outer loop
    vertex 119.52757568213016 -49.04215832442049 -13.783903829062458
    vertex 119.46692680464828 -58.880827502797665 -13.459347324465835
    vertex 117.13720264696215 -49.645135306264855 -13.459347324465835
  endloop
endfacet
facet normal -0.126561651961104 -0.0319254617559858 -0.9914448613738152
  outer loop
    vertex 119.46692680464828 -58.880827502797665 -13.459347324465835
    vertex 119.52757568213016 -49.04215832442049 -13.783903829062458
    vertex 121.8572998398163 -58.27785052095234 -13.783903829062458
  endloop
endfacet
facet normal -0.8958180565826553 -0.2259721223814721 0.38268343236530034
  outer loop
    vertex 128.31287084551712 -56.64941819518849 -6.640153829062457
    vertex 125.50907938101953 -47.533310544517846 -7.820504972871708
    vertex 127.83880353870663 -56.769002741050855 -7.820504972871708
  endloop
endfacet
facet normal -0.8958180565826553 -0.2259721223814721 0.38268343236530034
  outer loop
    vertex 125.50907938101953 -47.533310544517846 -7.820504972871708
    vertex 128.31287084551712 -56.64941819518849 -6.640153829062457
    vertex 125.98314668783108 -47.413725998656595 -6.640153829062457
  endloop
endfacet
facet normal 0.0 0.0 1.0
  outer loop
    vertex 112.62160764328355 -60.60757467863914 -4.258903829062469
    vertex 113.07200467642883 -50.67059065018484 -4.258903829062469
    vertex 110.29188348559728 -51.37188248210657 -4.258903829062469
  endloop
endfacet
facet normal 0.0 0.0 1.0
  outer loop
    vertex 113.07200467642883 -50.67059065018484 -4.258903829062469
    vertex 112.62160764328355 -60.60757467863914 -4.258903829062469
    vertex 115.40172883411678 -59.90628284671629 -4.258903829062469
  endloop
endfacet
facet normal -0.7692564046216875 -0.1940466606255211 -0.6087614290086049
  outer loop
    vertex 111.52923161839955 -51.05975862878784 -9.021403829062473
    vertex 115.32667925869661 -59.92521427114726 -10.994095919864348
    vertex 113.85895577608623 -60.29545082531984 -9.021403829062473
  endloop
endfacet
facet normal -0.7692564046216875 -0.1940466606255211 -0.6087614290086049
  outer loop
    vertex 115.32667925869661 -59.92521427114726 -10.994095919864348
    vertex 111.52923161839955 -51.05975862878784 -9.021403829062473
    vertex 112.99695510101016 -50.6895220746146 -10.994095919864343
  endloop
endfacet
facet normal -0.7692564046215683 -0.19404666062551848 0.6087614290087561
  outer loop
    vertex 127.83880353870663 -56.769002741050855 -7.820504972871708
    vertex 124.41145300108005 -47.810189270990456 -9.295768470401033
    vertex 126.74117715876687 -57.04588146752258 -9.295768470401038
  endloop
endfacet
facet normal -0.7692564046215683 -0.19404666062551848 0.6087614290087561
  outer loop
    vertex 124.41145300108005 -47.810189270990456 -9.295768470401033
    vertex 127.83880353870663 -56.769002741050855 -7.820504972871708
    vertex 125.50907938101953 -47.533310544517846 -7.820504972871708
  endloop
endfacet
facet normal -0.8958180565827554 -0.22597212238146888 -0.3826834323650686
  outer loop
    vertex 110.6065820658435 -51.2924990564588 -6.724155233663972
    vertex 113.85895577608623 -60.29545082531984 -9.021403829062473
    vertex 112.93630622352941 -60.528191252991846 -6.724155233663972
  endloop
endfacet
facet normal -0.8958180565827554 -0.22597212238146888 -0.3826834323650686
  outer loop
    vertex 113.85895577608623 -60.29545082531984 -9.021403829062473
    vertex 110.6065820658435 -51.2924990564588 -6.724155233663972
    vertex 111.52923161839955 -51.05975862878784 -9.021403829062473
  endloop
endfacet
facet normal 0.8958180565827015 0.22597212238159595 0.3826834323651196
  outer loop
    vertex 115.87579614092688 -59.786698300854106 -7.820504972871711
    vertex 113.07200467642883 -50.67059065018484 -6.640153829062454
    vertex 115.40172883411668 -59.9062828467162 -6.640153829062454
  endloop
endfacet
facet normal 0.8958180565827015 0.22597212238159595 0.3826834323651196
  outer loop
    vertex 113.07200467642883 -50.67059065018484 -6.640153829062454
    vertex 115.87579614092688 -59.786698300854106 -7.820504972871711
    vertex 113.54607198323988 -50.551006104322745 -7.820504972871708
  endloop
endfacet
facet normal 0.37105998845525945 0.09360071780860459 0.9238795325112992
  outer loop
    vertex 118.4038770691031 -59.14898419284565 -10.427777966435544
    vertex 117.73995251442798 -49.49309029465206 -11.139388884554572
    vertex 116.07415291141827 -49.91329199631247 -10.427777966435544
  endloop
endfacet
facet normal 0.37105998845525945 0.09360071780860459 0.9238795325112992
  outer loop
    vertex 117.73995251442798 -49.49309029465206 -11.139388884554572
    vertex 118.4038770691031 -59.14898419284565 -10.427777966435544
    vertex 120.06967667211461 -58.72878249118477 -11.139388884554572
  endloop
endfacet
facet normal -0.24459046274921736 0.9696264773262557 1.8500490434457463e-14
  outer loop
    vertex 112.99695510101016 -50.6895220746146 -10.994095919864343
    vertex 119.52757568213016 -49.04215832442049 -11.382106116680992
    vertex 114.90972958386365 -50.207020403263634 -12.50779580010926
  endloop
endfacet
facet normal -0.24459046274921736 0.9696264773262557 1.8500490434457463e-14
  outer loop
    vertex 119.52757568213016 -49.04215832442049 -11.382106116680992
    vertex 112.99695510101016 -50.6895220746146 -10.994095919864343
    vertex 117.73995251442798 -49.49309029465206 -11.139388884554572
  endloop
endfacet
facet normal -0.24459046274921736 0.9696264773262557 1.8500490434457463e-14
  outer loop
    vertex 117.73995251442798 -49.49309029465206 -11.139388884554572
    vertex 112.99695510101016 -50.6895220746146 -10.994095919864343
    vertex 116.07415291141827 -49.91329199631247 -10.427777966435544
  endloop
endfacet
facet normal -0.24459046274921736 0.9696264773262557 1.8500490434457463e-14
  outer loop
    vertex 116.07415291141827 -49.91329199631247 -10.427777966435544
    vertex 112.99695510101016 -50.6895220746146 -10.994095919864343
    vertex 111.52923161839955 -51.05975862878784 -9.021403829062473
  endloop
endfacet
facet normal -0.24459046274921736 0.9696264773262557 1.8500490434457463e-14
  outer loop
    vertex 116.07415291141827 -49.91329199631247 -10.427777966435544
    vertex 111.52923161839955 -51.05975862878784 -9.021403829062473
    vertex 114.64369836317964 -50.27412737785049 -9.295768470401045
  endloop
endfacet
facet normal -0.24459046274921736 0.9696264773262557 1.8500490434457463e-14
  outer loop
    vertex 114.64369836317964 -50.27412737785049 -9.295768470401045
    vertex 111.52923161839955 -51.05975862878784 -9.021403829062473
    vertex 113.54607198323988 -50.551006104322745 -7.820504972871708
  endloop
endfacet
facet normal -0.24459046274921736 0.9696264773262557 1.8500490434457463e-14
  outer loop
    vertex 113.54607198323988 -50.551006104322745 -7.820504972871708
    vertex 111.52923161839955 -51.05975862878784 -9.021403829062473
    vertex 110.6065820658435 -51.2924990564588 -6.724155233663972
  endloop
endfacet
facet normal -0.24459046274921736 0.9696264773262557 1.8500490434457463e-14
  outer loop
    vertex 113.54607198323988 -50.551006104322745 -7.820504972871708
    vertex 110.6065820658435 -51.2924990564588 -6.724155233663972
    vertex 113.07200467642883 -50.67059065018484 -6.640153829062454
  endloop
endfacet
facet normal -0.24459046274921736 0.9696264773262557 1.8500490434457463e-14
  outer loop
    vertex 113.07200467642883 -50.67059065018484 -6.640153829062454
    vertex 110.6065820658435 -51.2924990564588 -6.724155233663972
    vertex 110.29188348559728 -51.37188248210657 -4.258903829062469
  endloop
endfacet
facet normal -0.24459046274921736 0.9696264773262557 1.8500490434457463e-14
  outer loop
    vertex 113.07200467642883 -50.67059065018484 -6.640153829062454
    vertex 110.29188348559728 -51.37188248210657 -4.258903829062469
    vertex 113.07200467642883 -50.67059065018484 -4.258903829062469
  endloop
endfacet
facet normal -0.24459046274921736 0.9696264773262557 1.8500490434457463e-14
  outer loop
    vertex 117.13720264696215 -49.645135306264855 -13.459347324465835
    vertex 128.76326787866375 -46.71243416673448 -13.783903829062458
    vertex 119.52757568213016 -49.04215832442049 -13.783903829062458
  endloop
endfacet
facet normal -0.24459046274921736 0.9696264773262557 1.8500490434457463e-14
  outer loop
    vertex 128.76326787866375 -46.71243416673448 -13.783903829062458
    vertex 117.13720264696215 -49.645135306264855 -13.459347324465835
    vertex 122.98099845284246 -48.171024652528196 -10.427777966435537
  endloop
endfacet
facet normal -0.24459046274921736 0.9696264773262557 1.8500490434457463e-14
  outer loop
    vertex 128.76326787866375 -46.71243416673448 -13.783903829062458
    vertex 122.98099845284246 -48.171024652528196 -10.427777966435537
    vertex 124.41145300108005 -47.810189270990456 -9.295768470401033
  endloop
endfacet
facet normal -0.24459046274921736 0.9696264773262557 1.8500490434457463e-14
  outer loop
    vertex 128.76326787866375 -46.71243416673448 -13.783903829062458
    vertex 124.41145300108005 -47.810189270990456 -9.295768470401033
    vertex 128.76326787866375 -46.71243416673448 -4.258903829062469
  endloop
endfacet
facet normal -0.24459046274921736 0.9696264773262557 1.8500490434457463e-14
  outer loop
    vertex 122.98099845284246 -48.171024652528196 -10.427777966435537
    vertex 117.13720264696215 -49.645135306264855 -13.459347324465835
    vertex 121.31519884983297 -48.591226354188585 -11.139388884554567
  endloop
endfacet
facet normal -0.24459046274921736 0.9696264773262557 1.8500490434457463e-14
  outer loop
    vertex 121.31519884983297 -48.591226354188585 -11.139388884554567
    vertex 117.13720264696215 -49.645135306264855 -13.459347324465835
    vertex 114.90972958386365 -50.207020403263634 -12.50779580010926
  endloop
endfacet
facet normal -0.24459046274921736 0.9696264773262557 1.8500490434457463e-14
  outer loop
    vertex 121.31519884983297 -48.591226354188585 -11.139388884554567
    vertex 114.90972958386365 -50.207020403263634 -12.50779580010926
    vertex 119.52757568213016 -49.04215832442049 -11.382106116680992
  endloop
endfacet
facet normal -0.24459046274921736 0.9696264773262557 1.8500490434457463e-14
  outer loop
    vertex 128.76326787866375 -46.71243416673448 -4.258903829062469
    vertex 124.41145300108005 -47.810189270990456 -9.295768470401033
    vertex 125.50907938101953 -47.533310544517846 -7.820504972871708
  endloop
endfacet
facet normal -0.24459046274921736 0.9696264773262557 1.8500490434457463e-14
  outer loop
    vertex 128.76326787866375 -46.71243416673448 -4.258903829062469
    vertex 125.50907938101953 -47.533310544517846 -7.820504972871708
    vertex 125.98314668783108 -47.413725998656595 -6.640153829062457
  endloop
endfacet
facet normal -0.24459046274921736 0.9696264773262557 1.8500490434457463e-14
  outer loop
    vertex 128.76326787866375 -46.71243416673448 -4.258903829062469
    vertex 125.98314668783108 -47.413725998656595 -6.640153829062457
    vertex 125.98314668783108 -47.413725998656595 -4.258903829062469
  endloop
endfacet
facet normal 0.24459046274898058 0.9696264773263155 2.0500693203801188e-16
  outer loop
    vertex 147.66731078862696 -46.71243416673669 -13.783903829062458
    vertex 152.01912566620956 -47.810189270991714 -9.295768470401033
    vertex 156.90300298516027 -49.04215832442071 -13.783903829062458
  endloop
endfacet
facet normal 0.24459046274898058 0.9696264773263155 2.0500693203801188e-16
  outer loop
    vertex 152.01912566620956 -47.810189270991714 -9.295768470401033
    vertex 147.66731078862696 -46.71243416673669 -13.783903829062458
    vertex 147.66731078862696 -46.71243416673669 -4.258903829062469
  endloop
endfacet
facet normal 0.24459046274898058 0.9696264773263155 2.0500693203801188e-16
  outer loop
    vertex 156.90300298516027 -49.04215832442071 -13.783903829062458
    vertex 152.01912566620956 -47.810189270991714 -9.295768470401033
    vertex 153.4495802144471 -48.171024652529134 -10.427777966435535
  endloop
endfacet
facet normal 0.24459046274898058 0.9696264773263155 2.0500693203801188e-16
  outer loop
    vertex 156.90300298516027 -49.04215832442071 -13.783903829062458
    vertex 153.4495802144471 -48.171024652529134 -10.427777966435535
    vertex 159.29337602032783 -49.64513530626473 -13.459347324465835
  endloop
endfacet
facet normal 0.24459046274898058 0.9696264773263155 2.0500693203801188e-16
  outer loop
    vertex 159.29337602032783 -49.64513530626473 -13.459347324465835
    vertex 153.4495802144471 -48.171024652529134 -10.427777966435535
    vertex 155.11537981745778 -48.59122635418945 -11.139388884554567
  endloop
endfacet
facet normal 0.24459046274898058 0.9696264773263155 2.0500693203801188e-16
  outer loop
    vertex 159.29337602032783 -49.64513530626473 -13.459347324465835
    vertex 155.11537981745778 -48.59122635418945 -11.139388884554567
    vertex 161.52084908342687 -50.2070204032627 -12.507795800109257
  endloop
endfacet
facet normal 0.24459046274898058 0.9696264773263155 2.0500693203801188e-16
  outer loop
    vertex 161.52084908342687 -50.2070204032627 -12.507795800109257
    vertex 155.11537981745778 -48.59122635418945 -11.139388884554567
    vertex 156.90300298516027 -49.04215832442071 -11.382106116680992
  endloop
endfacet
facet normal 0.24459046274898058 0.9696264773263155 2.0500693203801188e-16
  outer loop
    vertex 152.01912566620956 -47.810189270991714 -9.295768470401033
    vertex 147.66731078862696 -46.71243416673669 -4.258903829062469
    vertex 150.92149928626964 -47.53331054452044 -7.820504972871711
  endloop
endfacet
facet normal 0.24459046274898058 0.9696264773263155 2.0500693203801188e-16
  outer loop
    vertex 150.92149928626964 -47.53331054452044 -7.820504972871711
    vertex 147.66731078862696 -46.71243416673669 -4.258903829062469
    vertex 150.4474319794592 -47.413725998658286 -6.6401538290624655
  endloop
endfacet
facet normal 0.24459046274898058 0.9696264773263155 2.0500693203801188e-16
  outer loop
    vertex 150.4474319794592 -47.413725998658286 -6.6401538290624655
    vertex 147.66731078862696 -46.71243416673669 -4.258903829062469
    vertex 150.4474319794592 -47.413725998658286 -4.258903829062469
  endloop
endfacet
facet normal 0.24459046274898058 0.9696264773263155 2.0500693203801188e-16
  outer loop
    vertex 156.90300298516027 -49.04215832442071 -11.382106116680992
    vertex 163.43362356628054 -50.68952207461309 -10.994095919864339
    vertex 161.52084908342687 -50.2070204032627 -12.507795800109257
  endloop
endfacet
facet normal 0.24459046274898058 0.9696264773263155 2.0500693203801188e-16
  outer loop
    vertex 163.43362356628054 -50.68952207461309 -10.994095919864339
    vertex 156.90300298516027 -49.04215832442071 -11.382106116680992
    vertex 158.69062615286285 -49.49309029465198 -11.139388884554567
  endloop
endfacet
facet normal 0.24459046274898058 0.9696264773263155 2.0500693203801188e-16
  outer loop
    vertex 163.43362356628054 -50.68952207461309 -10.994095919864339
    vertex 158.69062615286285 -49.49309029465198 -11.139388884554567
    vertex 160.35642575587346 -49.91329199631233 -10.427777966435537
  endloop
endfacet
facet normal 0.24459046274898058 0.9696264773263155 2.0500693203801188e-16
  outer loop
    vertex 163.43362356628054 -50.68952207461309 -10.994095919864339
    vertex 160.35642575587346 -49.91329199631233 -10.427777966435537
    vertex 164.90134704889172 -51.05975862878529 -9.021403829062471
  endloop
endfacet
facet normal 0.24459046274898058 0.9696264773263155 2.0500693203801188e-16
  outer loop
    vertex 164.90134704889172 -51.05975862878529 -9.021403829062471
    vertex 160.35642575587346 -49.91329199631233 -10.427777966435537
    vertex 161.78688030411092 -50.274127377849695 -9.295768470401038
  endloop
endfacet
facet normal 0.24459046274898058 0.9696264773263155 2.0500693203801188e-16
  outer loop
    vertex 164.90134704889172 -51.05975862878529 -9.021403829062471
    vertex 161.78688030411092 -50.274127377849695 -9.295768470401038
    vertex 162.88450668405073 -50.55100610432094 -7.820504972871716
  endloop
endfacet
facet normal 0.24459046274898058 0.9696264773263155 2.0500693203801188e-16
  outer loop
    vertex 164.90134704889172 -51.05975862878529 -9.021403829062471
    vertex 162.88450668405073 -50.55100610432094 -7.820504972871716
    vertex 165.82399660144802 -51.2924990564572 -6.724155233663978
  endloop
endfacet
facet normal 0.24459046274898058 0.9696264773263155 2.0500693203801188e-16
  outer loop
    vertex 165.82399660144802 -51.2924990564572 -6.724155233663978
    vertex 162.88450668405073 -50.55100610432094 -7.820504972871716
    vertex 163.35857399086137 -50.67059065018306 -6.6401538290624655
  endloop
endfacet
facet normal 0.24459046274898058 0.9696264773263155 2.0500693203801188e-16
  outer loop
    vertex 165.82399660144802 -51.2924990564572 -6.724155233663978
    vertex 163.35857399086137 -50.67059065018306 -6.6401538290624655
    vertex 166.13869518169346 -51.37188248210465 -4.258903829062469
  endloop
endfacet
facet normal 0.24459046274898058 0.9696264773263155 2.0500693203801188e-16
  outer loop
    vertex 166.13869518169346 -51.37188248210465 -4.258903829062469
    vertex 163.35857399086137 -50.67059065018306 -6.6401538290624655
    vertex 163.35857399086137 -50.67059065018308 -4.258903829062469
  endloop
endfacet
facet normal 0.12656165196114547 -0.03192546175596443 -0.9914448613738106
  outer loop
    vertex 156.90300298516027 -49.04215832442071 -13.783903829062458
    vertex 156.96365186264373 -58.88082750279787 -13.459347324465835
    vertex 154.5732788274763 -58.277850520953784 -13.783903829062458
  endloop
endfacet
facet normal 0.12656165196114547 -0.03192546175596443 -0.9914448613738106
  outer loop
    vertex 156.96365186264373 -58.88082750279787 -13.459347324465835
    vertex 156.90300298516027 -49.04215832442071 -13.783903829062458
    vertex 159.29337602032783 -49.64513530626473 -13.459347324465835
  endloop
endfacet
facet normal 0.9696264773263152 -0.24459046274898089 0.0
  outer loop
    vertex 150.4474319794592 -47.413725998658286 -6.6401538290624655
    vertex 148.11770782177504 -56.64941819519135 -4.258903829062469
    vertex 148.11770782177504 -56.64941819519135 -6.6401538290624655
  endloop
endfacet
facet normal 0.9696264773263152 -0.24459046274898089 0.0
  outer loop
    vertex 148.11770782177504 -56.64941819519135 -4.258903829062469
    vertex 150.4474319794592 -47.413725998658286 -6.6401538290624655
    vertex 150.4474319794592 -47.413725998658286 -4.258903829062469
  endloop
endfacet
facet normal 1.3480516037614996e-16 8.049516770662185e-17 -1.0
  outer loop
    vertex 147.66731078862696 -46.71243416673669 -13.783903829062458
    vertex 154.5732788274763 -58.277850520953784 -13.783903829062458
    vertex 145.337586630943 -55.948126363269765 -13.783903829062458
  endloop
endfacet
facet normal 1.3480516037614996e-16 8.049516770662185e-17 -1.0
  outer loop
    vertex 154.5732788274763 -58.277850520953784 -13.783903829062458
    vertex 147.66731078862696 -46.71243416673669 -13.783903829062458
    vertex 156.90300298516027 -49.04215832442071 -13.783903829062458
  endloop
endfacet
facet normal 0.7692564046216531 -0.1940466606252826 0.6087614290087243
  outer loop
    vertex 152.01912566620956 -47.810189270991714 -9.295768470401033
    vertex 148.5917751285855 -56.76900274105347 -7.820504972871716
    vertex 149.68940150852558 -57.045881467524765 -9.295768470401033
  endloop
endfacet
facet normal 0.7692564046216531 -0.1940466606252826 0.6087614290087243
  outer loop
    vertex 148.5917751285855 -56.76900274105347 -7.820504972871716
    vertex 152.01912566620956 -47.810189270991714 -9.295768470401033
    vertex 150.92149928626964 -47.53331054452044 -7.820504972871711
  endloop
endfacet
facet normal 0.8958180565828096 -0.22597212238124983 0.38268343236507096
  outer loop
    vertex 150.92149928626964 -47.53331054452044 -7.820504972871711
    vertex 148.11770782177504 -56.64941819519135 -6.6401538290624655
    vertex 148.5917751285855 -56.76900274105347 -7.820504972871716
  endloop
endfacet
facet normal 0.8958180565828096 -0.22597212238124983 0.38268343236507096
  outer loop
    vertex 148.11770782177504 -56.64941819519135 -6.6401538290624655
    vertex 150.92149928626964 -47.53331054452044 -7.820504972871711
    vertex 150.4474319794592 -47.413725998658286 -6.6401538290624655
  endloop
endfacet
facet normal 0.7692564046216553 -0.19404666062528278 -0.6087614290087214
  outer loop
    vertex 161.10389940859656 -59.92521427114632 -10.994095919864343
    vertex 164.90134704889172 -51.05975862878529 -9.021403829062471
    vertex 162.5716228912077 -60.29545082531851 -9.021403829062471
  endloop
endfacet
facet normal 0.7692564046216553 -0.19404666062528278 -0.6087614290087214
  outer loop
    vertex 164.90134704889172 -51.05975862878529 -9.021403829062471
    vertex 161.10389940859656 -59.92521427114632 -10.994095919864343
    vertex 163.43362356628054 -50.68952207461309 -10.994095919864339
  endloop
endfacet
facet normal -0.5902711999418543 0.14889723962497256 0.7933533402912393
  outer loop
    vertex 159.4571561464269 -59.509819574382824 -9.295768470401038
    vertex 160.35642575587346 -49.91329199631233 -10.427777966435537
    vertex 158.02670159818936 -59.14898419284545 -10.42777796643554
  endloop
endfacet
facet normal -0.5902711999418543 0.14889723962497256 0.7933533402912393
  outer loop
    vertex 160.35642575587346 -49.91329199631233 -10.427777966435537
    vertex 159.4571561464269 -59.509819574382824 -9.295768470401038
    vertex 161.78688030411092 -50.274127377849695 -9.295768470401038
  endloop
endfacet
facet normal -0.769256404621653 0.19404666062528225 0.6087614290087243
  outer loop
    vertex 162.88450668405073 -50.55100610432094 -7.820504972871716
    vertex 159.4571561464269 -59.509819574382824 -9.295768470401038
    vertex 160.5547825263667 -59.78669830085408 -7.820504972871719
  endloop
endfacet
facet normal -0.769256404621653 0.19404666062528225 0.6087614290087243
  outer loop
    vertex 159.4571561464269 -59.509819574382824 -9.295768470401038
    vertex 162.88450668405073 -50.55100610432094 -7.820504972871716
    vertex 161.78688030411092 -50.274127377849695 -9.295768470401038
  endloop
endfacet
facet normal -0.9696264773263152 0.24459046274898089 1.7379197654248975e-15
  outer loop
    vertex 163.35857399086137 -50.67059065018308 -4.258903829062469
    vertex 161.02884983317733 -59.90628284671622 -6.6401538290624655
    vertex 161.02884983317733 -59.90628284671622 -4.258903829062469
  endloop
endfacet
facet normal -0.9696264773263152 0.24459046274898089 1.7379197654248975e-15
  outer loop
    vertex 161.02884983317733 -59.90628284671622 -6.6401538290624655
    vertex 163.35857399086137 -50.67059065018308 -4.258903829062469
    vertex 163.35857399086137 -50.67059065018306 -6.6401538290624655
  endloop
endfacet
facet normal 0.3710599884553047 -0.0936007178085453 -0.923879532511287
  outer loop
    vertex 159.29337602032783 -49.64513530626473 -13.459347324465835
    vertex 159.1911249257428 -59.442712599795776 -12.50779580010926
    vertex 156.96365186264373 -58.88082750279787 -13.459347324465835
  endloop
endfacet
facet normal 0.3710599884553047 -0.0936007178085453 -0.923879532511287
  outer loop
    vertex 159.1911249257428 -59.442712599795776 -12.50779580010926
    vertex 159.29337602032783 -49.64513530626473 -13.459347324465835
    vertex 161.52084908342687 -50.2070204032627 -12.507795800109257
  endloop
endfacet
facet normal 0.8958180565828019 -0.22597212238124778 -0.3826834323650898
  outer loop
    vertex 162.5716228912077 -60.29545082531851 -9.021403829062471
    vertex 165.82399660144802 -51.2924990564572 -6.724155233663978
    vertex 163.49427244376406 -60.528191252990375 -6.724155233663978
  endloop
endfacet
facet normal 0.8958180565828019 -0.22597212238124778 -0.3826834323650898
  outer loop
    vertex 165.82399660144802 -51.2924990564572 -6.724155233663978
    vertex 162.5716228912077 -60.29545082531851 -9.021403829062471
    vertex 164.90134704889172 -51.05975862878529 -9.021403829062471
  endloop
endfacet
facet normal 0.9613311883971655 -0.24249795743351982 -0.13052619222004672
  outer loop
    vertex 163.49427244376406 -60.528191252990375 -6.724155233663978
    vertex 166.13869518169346 -51.37188248210465 -4.258903829062469
    vertex 163.80897102400925 -60.60757467863783 -4.258903829062469
  endloop
endfacet
facet normal 0.9613311883971655 -0.24249795743351982 -0.13052619222004672
  outer loop
    vertex 166.13869518169346 -51.37188248210465 -4.258903829062469
    vertex 163.49427244376406 -60.528191252990375 -6.724155233663978
    vertex 165.82399660144802 -51.2924990564572 -6.724155233663978
  endloop
endfacet
facet normal 0.5902711999418588 -0.14889723962497334 -0.7933533402912359
  outer loop
    vertex 161.52084908342687 -50.2070204032627 -12.507795800109257
    vertex 161.10389940859656 -59.92521427114632 -10.994095919864343
    vertex 159.1911249257428 -59.442712599795776 -12.50779580010926
  endloop
endfacet
facet normal 0.5902711999418588 -0.14889723962497334 -0.7933533402912359
  outer loop
    vertex 161.10389940859656 -59.92521427114632 -10.994095919864343
    vertex 161.52084908342687 -50.2070204032627 -12.507795800109257
    vertex 163.43362356628054 -50.68952207461309 -10.994095919864339
  endloop
endfacet
facet normal 0.0 0.0 1.0
  outer loop
    vertex 163.80897102400925 -60.60757467863783 -4.258903829062469
    vertex 163.35857399086137 -50.67059065018308 -4.258903829062469
    vertex 161.02884983317733 -59.90628284671622 -4.258903829062469
  endloop
endfacet
facet normal 0.0 0.0 1.0
  outer loop
    vertex 163.35857399086137 -50.67059065018308 -4.258903829062469
    vertex 163.80897102400925 -60.60757467863783 -4.258903829062469
    vertex 166.13869518169346 -51.37188248210465 -4.258903829062469
  endloop
endfacet
facet normal -0.895818056582801 0.22597212238124748 0.38268343236509234
  outer loop
    vertex 163.35857399086137 -50.67059065018306 -6.6401538290624655
    vertex 160.5547825263667 -59.78669830085408 -7.820504972871719
    vertex 161.02884983317733 -59.90628284671622 -6.6401538290624655
  endloop
endfacet
facet normal -0.895818056582801 0.22597212238124748 0.38268343236509234
  outer loop
    vertex 160.5547825263667 -59.78669830085408 -7.820504972871719
    vertex 163.35857399086137 -50.67059065018306 -6.6401538290624655
    vertex 162.88450668405073 -50.55100610432094 -7.820504972871716
  endloop
endfacet
facet normal 0.12656165196114788 -0.03192546175596531 0.9914448613738103
  outer loop
    vertex 154.5732788274763 -58.277850520953784 -11.382106116680992
    vertex 155.11537981745778 -48.59122635418945 -11.139388884554567
    vertex 152.78565565977362 -57.82691855072249 -11.139388884554567
  endloop
endfacet
facet normal 0.12656165196114788 -0.03192546175596531 0.9914448613738103
  outer loop
    vertex 155.11537981745778 -48.59122635418945 -11.139388884554567
    vertex 154.5732788274763 -58.277850520953784 -11.382106116680992
    vertex 156.90300298516027 -49.04215832442071 -11.382106116680992
  endloop
endfacet
facet normal -0.3710599884553055 0.09360071780854558 0.9238795325112866
  outer loop
    vertex 158.02670159818936 -59.14898419284545 -10.42777796643554
    vertex 158.69062615286285 -49.49309029465198 -11.139388884554567
    vertex 156.36090199517878 -58.728782491185015 -11.139388884554567
  endloop
endfacet
facet normal -0.3710599884553055 0.09360071780854558 0.9238795325112866
  outer loop
    vertex 158.69062615286285 -49.49309029465198 -11.139388884554567
    vertex 158.02670159818936 -59.14898419284545 -10.42777796643554
    vertex 160.35642575587346 -49.91329199631233 -10.427777966435537
  endloop
endfacet
facet normal 0.5902711999418556 -0.14889723962497314 0.7933533402912382
  outer loop
    vertex 151.1198560567631 -57.40671684906219 -10.427777966435537
    vertex 152.01912566620956 -47.810189270991714 -9.295768470401033
    vertex 149.68940150852558 -57.045881467524765 -9.295768470401033
  endloop
endfacet
facet normal 0.5902711999418556 -0.14889723962497314 0.7933533402912382
  outer loop
    vertex 152.01912566620956 -47.810189270991714 -9.295768470401033
    vertex 151.1198560567631 -57.40671684906219 -10.427777966435537
    vertex 153.4495802144471 -48.171024652529134 -10.427777966435535
  endloop
endfacet
facet normal 0.37105998845530624 -0.09360071780854608 0.9238795325112864
  outer loop
    vertex 152.78565565977362 -57.82691855072249 -11.139388884554567
    vertex 153.4495802144471 -48.171024652529134 -10.427777966435535
    vertex 151.1198560567631 -57.40671684906219 -10.427777966435537
  endloop
endfacet
facet normal 0.37105998845530624 -0.09360071780854608 0.9238795325112864
  outer loop
    vertex 153.4495802144471 -48.171024652529134 -10.427777966435535
    vertex 152.78565565977362 -57.82691855072249 -11.139388884554567
    vertex 155.11537981745778 -48.59122635418945 -11.139388884554567
  endloop
endfacet
facet normal -0.12656165196114785 0.031925461755965306 0.9914448613738103
  outer loop
    vertex 156.36090199517878 -58.728782491185015 -11.139388884554567
    vertex 156.90300298516027 -49.04215832442071 -11.382106116680992
    vertex 154.5732788274763 -58.277850520953784 -11.382106116680992
  endloop
endfacet
facet normal -0.12656165196114785 0.031925461755965306 0.9914448613738103
  outer loop
    vertex 156.90300298516027 -49.04215832442071 -11.382106116680992
    vertex 156.36090199517878 -58.728782491185015 -11.139388884554567
    vertex 158.69062615286285 -49.49309029465198 -11.139388884554567
  endloop
endfacet
facet normal 3.49029255598085e-16 0.27245770596149477 -0.9621677600409398
  outer loop
    vertex 128.76326787866375 -46.71243416673448 -13.783903829062458
    vertex 119.0508749192312 1.964580950257878 -2.255973186038318e-14
    vertex 125.4008749192312 1.964580950257878 -2.255973186038318e-14
  endloop
endfacet
facet normal 4.225662779707056e-15 0.8886617916197498 -0.4585632127800664
  outer loop
    vertex 138.21528933364561 -48.835419049742136 -2.255973186038318e-14
    vertex 145.337586630943 -55.948126363269765 -13.783903829062458
    vertex 131.09299203634836 -55.9481263632697 -13.783903829062458
  endloop
endfacet
facet normal 3.4902925559805444e-16 0.2724577059614833 -0.9621677600409431
  outer loop
    vertex 157.37970374806002 1.964580950257878 -2.255973186038318e-14
    vertex 147.66731078862696 -46.71243416673669 -13.783903829062458
    vertex 151.02970374806003 1.964580950257878 -2.255973186038318e-14
  endloop
endfacet
facet normal 0.8214175471928804 0.2072044263189249 -0.5313563200691955
  outer loop
    vertex 128.76326787866375 -46.71243416673448 -13.783903829062458
    vertex 138.21528933364561 -48.835419049742136 -2.255973186038318e-14
    vertex 131.09299203634836 -55.9481263632697 -13.783903829062458
  endloop
endfacet
facet normal 0.8214175471928804 0.2072044263189249 -0.5313563200691955
  outer loop
    vertex 138.21528933364561 -48.835419049742136 -2.255973186038318e-14
    vertex 128.76326787866375 -46.71243416673448 -13.783903829062458
    vertex 125.4008749192312 1.964580950257878 -2.255973186038318e-14
  endloop
endfacet
facet normal -0.8214175471928779 0.207204426318924 -0.5313563200691999
  outer loop
    vertex 138.21528933364561 -48.835419049742136 -2.255973186038318e-14
    vertex 147.66731078862696 -46.71243416673669 -13.783903829062458
    vertex 145.337586630943 -55.948126363269765 -13.783903829062458
  endloop
endfacet
facet normal -0.8214175471928779 0.207204426318924 -0.5313563200691999
  outer loop
    vertex 147.66731078862696 -46.71243416673669 -13.783903829062458
    vertex 138.21528933364561 -48.835419049742136 -2.255973186038318e-14
    vertex 151.02970374806003 1.964580950257878 -2.255973186038318e-14
  endloop
endfacet
facet normal -0.9911017554210503 -0.1331063875300983 3.195779107994837e-16
  outer loop
    vertex 122.2258749192312 1.964580950257878 12.699999999999976
    vertex 128.76326787866375 -46.71243416673448 -13.783903829062458
    vertex 128.76326787866375 -46.71243416673448 -4.258903829062469
  endloop
endfacet
facet normal -0.9384097113535406 -0.2536708782846396 0.23460242783838497
  outer loop
    vertex 119.0508749192312 1.964580950257878 -2.255973186038318e-14
    vertex 128.76326787866375 -46.71243416673448 -13.783903829062458
    vertex 122.2258749192312 1.964580950257878 12.699999999999976
  endloop
endfacet
facet normal 0.9806697227308042 -0.19567037312553914 3.162141318591941e-16
  outer loop
    vertex 157.37970374806002 1.964580950257878 -2.255973186038318e-14
    vertex 147.66731078862696 -46.71243416673669 -4.258903829062469
    vertex 147.66731078862696 -46.71243416673669 -13.783903829062458
  endloop
endfacet
facet normal 0.9485095511153288 -0.21000055573303836 0.2371273877788319
  outer loop
    vertex 154.20470374806004 1.964580950257878 12.699999999999976
    vertex 147.66731078862696 -46.71243416673669 -4.258903829062469
    vertex 157.37970374806002 1.964580950257878 -2.255973186038318e-14
  endloop
endfacet
facet normal 0.0 1.0 0.0
  outer loop
    vertex 122.2258749192312 1.964580950257878 12.699999999999976
    vertex 125.4008749192312 1.964580950257878 -2.255973186038318e-14
    vertex 119.0508749192312 1.964580950257878 -2.255973186038318e-14
  endloop
endfacet
facet normal 0.0 1.0 0.0
  outer loop
    vertex 125.4008749192312 1.964580950257878 -2.255973186038318e-14
    vertex 122.2258749192312 1.964580950257878 12.699999999999976
    vertex 125.4008749192312 1.964580950257878 6.349999999999977
  endloop
endfacet
facet normal 0.0 1.0 0.0
  outer loop
    vertex 125.4008749192312 1.964580950257878 6.349999999999977
    vertex 122.2258749192312 1.964580950257878 12.699999999999976
    vertex 151.02970374806003 1.964580950257878 6.349999999999977
  endloop
endfacet
facet normal 0.0 1.0 0.0
  outer loop
    vertex 151.02970374806003 1.964580950257878 6.349999999999977
    vertex 157.37970374806002 1.964580950257878 -2.255973186038318e-14
    vertex 151.02970374806003 1.964580950257878 -2.255973186038318e-14
  endloop
endfacet
facet normal 0.0 1.0 0.0
  outer loop
    vertex 157.37970374806002 1.964580950257878 -2.255973186038318e-14
    vertex 151.02970374806003 1.964580950257878 6.349999999999977
    vertex 154.20470374806004 1.964580950257878 12.699999999999976
  endloop
endfacet
facet normal 0.0 1.0 0.0
  outer loop
    vertex 154.20470374806004 1.964580950257878 12.699999999999976
    vertex 151.02970374806003 1.964580950257878 6.349999999999977
    vertex 122.2258749192312 1.964580950257878 12.699999999999976
  endloop
endfacet
facet normal 0.2445904627491604 -0.9696264773262702 -1.9392547625220455e-16
  outer loop
    vertex 131.09299203634836 -55.9481263632697 -13.783903829062458
    vertex 126.74117715876687 -57.04588146752258 -9.295768470401038
    vertex 121.8572998398163 -58.27785052095234 -13.783903829062458
  endloop
endfacet
facet normal 0.2445904627491604 -0.9696264773262702 -1.9392547625220455e-16
  outer loop
    vertex 126.74117715876687 -57.04588146752258 -9.295768470401038
    vertex 131.09299203634836 -55.9481263632697 -13.783903829062458
    vertex 131.09299203634836 -55.9481263632697 -4.258903829062469
  endloop
endfacet
facet normal 0.2445904627491604 -0.9696264773262702 -1.9392547625220455e-16
  outer loop
    vertex 121.8572998398163 -58.27785052095234 -13.783903829062458
    vertex 126.74117715876687 -57.04588146752258 -9.295768470401038
    vertex 125.31072261053009 -57.40671684905966 -10.42777796643554
  endloop
endfacet
facet normal 0.2445904627491604 -0.9696264773262702 -1.9392547625220455e-16
  outer loop
    vertex 121.8572998398163 -58.27785052095234 -13.783903829062458
    vertex 125.31072261053009 -57.40671684905966 -10.42777796643554
    vertex 119.46692680464828 -58.880827502797665 -13.459347324465835
  endloop
endfacet
facet normal 0.2445904627491604 -0.9696264773262702 -1.9392547625220455e-16
  outer loop
    vertex 119.46692680464828 -58.880827502797665 -13.459347324465835
    vertex 125.31072261053009 -57.40671684905966 -10.42777796643554
    vertex 123.64492300751826 -57.826918550721295 -11.139388884554572
  endloop
endfacet
facet normal 0.2445904627491604 -0.9696264773262702 -1.9392547625220455e-16
  outer loop
    vertex 119.46692680464828 -58.880827502797665 -13.459347324465835
    vertex 123.64492300751826 -57.826918550721295 -11.139388884554572
    vertex 117.23945374155129 -59.442712599795705 -12.50779580010926
  endloop
endfacet
facet normal 0.2445904627491604 -0.9696264773262702 -1.9392547625220455e-16
  outer loop
    vertex 117.23945374155129 -59.442712599795705 -12.50779580010926
    vertex 123.64492300751826 -57.826918550721295 -11.139388884554572
    vertex 121.8572998398163 -58.27785052095234 -11.382106116681
  endloop
endfacet
facet normal 0.2445904627491604 -0.9696264773262702 -1.9392547625220455e-16
  outer loop
    vertex 126.74117715876687 -57.04588146752258 -9.295768470401038
    vertex 131.09299203634836 -55.9481263632697 -4.258903829062469
    vertex 127.83880353870663 -56.769002741050855 -7.820504972871708
  endloop
endfacet
facet normal 0.2445904627491604 -0.9696264773262702 -1.9392547625220455e-16
  outer loop
    vertex 127.83880353870663 -56.769002741050855 -7.820504972871708
    vertex 131.09299203634836 -55.9481263632697 -4.258903829062469
    vertex 128.31287084551712 -56.64941819518849 -6.640153829062457
  endloop
endfacet
facet normal 0.2445904627491604 -0.9696264773262702 -1.9392547625220455e-16
  outer loop
    vertex 128.31287084551712 -56.64941819518849 -6.640153829062457
    vertex 131.09299203634836 -55.9481263632697 -4.258903829062469
    vertex 128.31287084551712 -56.64941819518849 -4.258903829062469
  endloop
endfacet
facet normal 0.2445904627491604 -0.9696264773262702 -1.9392547625220455e-16
  outer loop
    vertex 121.8572998398163 -58.27785052095234 -11.382106116681
    vertex 115.32667925869661 -59.92521427114726 -10.994095919864348
    vertex 117.23945374155129 -59.442712599795705 -12.50779580010926
  endloop
endfacet
facet normal 0.2445904627491604 -0.9696264773262702 -1.9392547625220455e-16
  outer loop
    vertex 115.32667925869661 -59.92521427114726 -10.994095919864348
    vertex 121.8572998398163 -58.27785052095234 -11.382106116681
    vertex 120.06967667211461 -58.72878249118477 -11.139388884554572
  endloop
endfacet
facet normal 0.2445904627491604 -0.9696264773262702 -1.9392547625220455e-16
  outer loop
    vertex 115.32667925869661 -59.92521427114726 -10.994095919864348
    vertex 120.06967667211461 -58.72878249118477 -11.139388884554572
    vertex 118.4038770691031 -59.14898419284565 -10.427777966435544
  endloop
endfacet
facet normal 0.2445904627491604 -0.9696264773262702 -1.9392547625220455e-16
  outer loop
    vertex 115.32667925869661 -59.92521427114726 -10.994095919864348
    vertex 118.4038770691031 -59.14898419284565 -10.427777966435544
    vertex 113.85895577608623 -60.29545082531984 -9.021403829062473
  endloop
endfacet
facet normal 0.2445904627491604 -0.9696264773262702 -1.9392547625220455e-16
  outer loop
    vertex 113.85895577608623 -60.29545082531984 -9.021403829062473
    vertex 118.4038770691031 -59.14898419284565 -10.427777966435544
    vertex 116.97342252086645 -59.50981957438285 -9.295768470401045
  endloop
endfacet
facet normal 0.2445904627491604 -0.9696264773262702 -1.9392547625220455e-16
  outer loop
    vertex 113.85895577608623 -60.29545082531984 -9.021403829062473
    vertex 116.97342252086645 -59.50981957438285 -9.295768470401045
    vertex 115.87579614092688 -59.786698300854106 -7.820504972871711
  endloop
endfacet
facet normal 0.2445904627491604 -0.9696264773262702 -1.9392547625220455e-16
  outer loop
    vertex 113.85895577608623 -60.29545082531984 -9.021403829062473
    vertex 115.87579614092688 -59.786698300854106 -7.820504972871711
    vertex 112.93630622352941 -60.528191252991846 -6.724155233663972
  endloop
endfacet
facet normal 0.2445904627491604 -0.9696264773262702 -1.9392547625220455e-16
  outer loop
    vertex 112.93630622352941 -60.528191252991846 -6.724155233663972
    vertex 115.87579614092688 -59.786698300854106 -7.820504972871711
    vertex 115.40172883411668 -59.9062828467162 -6.640153829062454
  endloop
endfacet
facet normal 0.2445904627491604 -0.9696264773262702 -1.9392547625220455e-16
  outer loop
    vertex 112.93630622352941 -60.528191252991846 -6.724155233663972
    vertex 115.40172883411668 -59.9062828467162 -6.640153829062454
    vertex 112.62160764328355 -60.60757467863914 -4.258903829062469
  endloop
endfacet
facet normal 0.2445904627491604 -0.9696264773262702 -1.9392547625220455e-16
  outer loop
    vertex 112.62160764328355 -60.60757467863914 -4.258903829062469
    vertex 115.40172883411668 -59.9062828467162 -6.640153829062454
    vertex 115.40172883411678 -59.90628284671629 -4.258903829062469
  endloop
endfacet
facet normal -4.751219498154875e-15 -1.0 1.6658005840969702e-45
  outer loop
    vertex 145.337586630943 -55.948126363269765 -4.258903829062469
    vertex 131.09299203634836 -55.9481263632697 -13.783903829062458
    vertex 145.337586630943 -55.948126363269765 -13.783903829062458
  endloop
endfacet
facet normal -4.751219498154875e-15 -1.0 1.6658005840969702e-45
  outer loop
    vertex 131.09299203634836 -55.9481263632697 -13.783903829062458
    vertex 145.337586630943 -55.948126363269765 -4.258903829062469
    vertex 131.09299203634836 -55.9481263632697 -4.258903829062469
  endloop
endfacet
facet normal 0.0 0.0 1.0
  outer loop
    vertex 128.31287084551712 -56.64941819518849 -4.258903829062469
    vertex 128.76326787866375 -46.71243416673448 -4.258903829062469
    vertex 125.98314668783108 -47.413725998656595 -4.258903829062469
  endloop
endfacet
facet normal 0.0 0.0 1.0
  outer loop
    vertex 128.76326787866375 -46.71243416673448 -4.258903829062469
    vertex 128.31287084551712 -56.64941819518849 -4.258903829062469
    vertex 131.09299203634836 -55.9481263632697 -4.258903829062469
  endloop
endfacet
facet normal -0.24459046274898058 -0.9696264773263155 -1.8838474835925404e-16
  outer loop
    vertex 161.10389940859656 -59.92521427114632 -10.994095919864343
    vertex 154.5732788274763 -58.277850520953784 -11.382106116680992
    vertex 159.1911249257428 -59.442712599795776 -12.50779580010926
  endloop
endfacet
facet normal -0.24459046274898058 -0.9696264773263155 -1.8838474835925404e-16
  outer loop
    vertex 154.5732788274763 -58.277850520953784 -11.382106116680992
    vertex 161.10389940859656 -59.92521427114632 -10.994095919864343
    vertex 156.36090199517878 -58.728782491185015 -11.139388884554567
  endloop
endfacet
facet normal -0.24459046274898058 -0.9696264773263155 -1.8838474835925404e-16
  outer loop
    vertex 156.36090199517878 -58.728782491185015 -11.139388884554567
    vertex 161.10389940859656 -59.92521427114632 -10.994095919864343
    vertex 158.02670159818936 -59.14898419284545 -10.42777796643554
  endloop
endfacet
facet normal -0.24459046274898058 -0.9696264773263155 -1.8838474835925404e-16
  outer loop
    vertex 158.02670159818936 -59.14898419284545 -10.42777796643554
    vertex 161.10389940859656 -59.92521427114632 -10.994095919864343
    vertex 162.5716228912077 -60.29545082531851 -9.021403829062471
  endloop
endfacet
facet normal -0.24459046274898058 -0.9696264773263155 -1.8838474835925404e-16
  outer loop
    vertex 158.02670159818936 -59.14898419284545 -10.42777796643554
    vertex 162.5716228912077 -60.29545082531851 -9.021403829062471
    vertex 159.4571561464269 -59.509819574382824 -9.295768470401038
  endloop
endfacet
facet normal -0.24459046274898058 -0.9696264773263155 -1.8838474835925404e-16
  outer loop
    vertex 159.4571561464269 -59.509819574382824 -9.295768470401038
    vertex 162.5716228912077 -60.29545082531851 -9.021403829062471
    vertex 160.5547825263667 -59.78669830085408 -7.820504972871719
  endloop
endfacet
facet normal -0.24459046274898058 -0.9696264773263155 -1.8838474835925404e-16
  outer loop
    vertex 160.5547825263667 -59.78669830085408 -7.820504972871719
    vertex 162.5716228912077 -60.29545082531851 -9.021403829062471
    vertex 163.49427244376406 -60.528191252990375 -6.724155233663978
  endloop
endfacet
facet normal -0.24459046274898058 -0.9696264773263155 -1.8838474835925404e-16
  outer loop
    vertex 160.5547825263667 -59.78669830085408 -7.820504972871719
    vertex 163.49427244376406 -60.528191252990375 -6.724155233663978
    vertex 161.02884983317733 -59.90628284671622 -6.6401538290624655
  endloop
endfacet
facet normal -0.24459046274898058 -0.9696264773263155 -1.8838474835925404e-16
  outer loop
    vertex 161.02884983317733 -59.90628284671622 -6.6401538290624655
    vertex 163.49427244376406 -60.528191252990375 -6.724155233663978
    vertex 163.80897102400925 -60.60757467863783 -4.258903829062469
  endloop
endfacet
facet normal -0.24459046274898058 -0.9696264773263155 -1.8838474835925404e-16
  outer loop
    vertex 161.02884983317733 -59.90628284671622 -6.6401538290624655
    vertex 163.80897102400925 -60.60757467863783 -4.258903829062469
    vertex 161.02884983317733 -59.90628284671622 -4.258903829062469
  endloop
endfacet
facet normal -0.24459046274898058 -0.9696264773263155 -1.8838474835925404e-16
  outer loop
    vertex 156.96365186264373 -58.88082750279787 -13.459347324465835
    vertex 145.337586630943 -55.948126363269765 -13.783903829062458
    vertex 154.5732788274763 -58.277850520953784 -13.783903829062458
  endloop
endfacet
facet normal -0.24459046274898058 -0.9696264773263155 -1.8838474835925404e-16
  outer loop
    vertex 145.337586630943 -55.948126363269765 -13.783903829062458
    vertex 156.96365186264373 -58.88082750279787 -13.459347324465835
    vertex 151.1198560567631 -57.40671684906219 -10.427777966435537
  endloop
endfacet
facet normal -0.24459046274898058 -0.9696264773263155 -1.8838474835925404e-16
  outer loop
    vertex 145.337586630943 -55.948126363269765 -13.783903829062458
    vertex 151.1198560567631 -57.40671684906219 -10.427777966435537
    vertex 149.68940150852558 -57.045881467524765 -9.295768470401033
  endloop
endfacet
facet normal -0.24459046274898058 -0.9696264773263155 -1.8838474835925404e-16
  outer loop
    vertex 145.337586630943 -55.948126363269765 -13.783903829062458
    vertex 149.68940150852558 -57.045881467524765 -9.295768470401033
    vertex 145.337586630943 -55.948126363269765 -4.258903829062469
  endloop
endfacet
facet normal -0.24459046274898058 -0.9696264773263155 -1.8838474835925404e-16
  outer loop
    vertex 151.1198560567631 -57.40671684906219 -10.427777966435537
    vertex 156.96365186264373 -58.88082750279787 -13.459347324465835
    vertex 152.78565565977362 -57.82691855072249 -11.139388884554567
  endloop
endfacet
facet normal -0.24459046274898058 -0.9696264773263155 -1.8838474835925404e-16
  outer loop
    vertex 152.78565565977362 -57.82691855072249 -11.139388884554567
    vertex 156.96365186264373 -58.88082750279787 -13.459347324465835
    vertex 159.1911249257428 -59.442712599795776 -12.50779580010926
  endloop
endfacet
facet normal -0.24459046274898058 -0.9696264773263155 -1.8838474835925404e-16
  outer loop
    vertex 152.78565565977362 -57.82691855072249 -11.139388884554567
    vertex 159.1911249257428 -59.442712599795776 -12.50779580010926
    vertex 154.5732788274763 -58.277850520953784 -11.382106116680992
  endloop
endfacet
facet normal -0.24459046274898058 -0.9696264773263155 -1.8838474835925404e-16
  outer loop
    vertex 145.337586630943 -55.948126363269765 -4.258903829062469
    vertex 149.68940150852558 -57.045881467524765 -9.295768470401033
    vertex 148.5917751285855 -56.76900274105347 -7.820504972871716
  endloop
endfacet
facet normal -0.24459046274898058 -0.9696264773263155 -1.8838474835925404e-16
  outer loop
    vertex 145.337586630943 -55.948126363269765 -4.258903829062469
    vertex 148.5917751285855 -56.76900274105347 -7.820504972871716
    vertex 148.11770782177504 -56.64941819519135 -6.6401538290624655
  endloop
endfacet
facet normal -0.24459046274898058 -0.9696264773263155 -1.8838474835925404e-16
  outer loop
    vertex 145.337586630943 -55.948126363269765 -4.258903829062469
    vertex 148.11770782177504 -56.64941819519135 -6.6401538290624655
    vertex 148.11770782177504 -56.64941819519135 -4.258903829062469
  endloop
endfacet
facet normal 0.0 0.0 1.0
  outer loop
    vertex 148.11770782177504 -56.64941819519135 -4.258903829062469
    vertex 147.66731078862696 -46.71243416673669 -4.258903829062469
    vertex 145.337586630943 -55.948126363269765 -4.258903829062469
  endloop
endfacet
facet normal 0.0 0.0 1.0
  outer loop
    vertex 147.66731078862696 -46.71243416673669 -4.258903829062469
    vertex 148.11770782177504 -56.64941819519135 -4.258903829062469
    vertex 150.4474319794592 -47.413725998658286 -4.258903829062469
  endloop
endfacet
facet normal -3.1053412811321292e-15 -0.6502736134017264 0.759700090636734
  outer loop
    vertex 131.09299203634836 -55.9481263632697 -4.258903829062469
    vertex 138.21528933364561 -48.83541904974213 1.829295899806733
    vertex 136.88303488050974 -43.55398175338212 6.349999999999983
  endloop
endfacet
facet normal -3.1053412811321292e-15 -0.6502736134017264 0.759700090636734
  outer loop
    vertex 138.21528933364561 -48.83541904974213 1.829295899806733
    vertex 131.09299203634836 -55.9481263632697 -4.258903829062469
    vertex 145.337586630943 -55.948126363269765 -4.258903829062469
  endloop
endfacet
facet normal -3.1053412811321292e-15 -0.6502736134017264 0.759700090636734
  outer loop
    vertex 138.21528933364561 -48.83541904974213 1.829295899806733
    vertex 145.337586630943 -55.948126363269765 -4.258903829062469
    vertex 139.54754378678146 -43.55398175338214 6.349999999999977
  endloop
endfacet
facet normal -3.1053412811321292e-15 -0.6502736134017264 0.759700090636734
  outer loop
    vertex 136.88303488050974 -43.55398175338212 6.349999999999983
    vertex 138.21528933364561 -36.13541904974214 12.699999999999976
    vertex 131.09299203634836 -55.9481263632697 -4.258903829062469
  endloop
endfacet
facet normal -3.1053412811321292e-15 -0.6502736134017264 0.759700090636734
  outer loop
    vertex 138.21528933364561 -36.13541904974214 12.699999999999976
    vertex 136.88303488050974 -43.55398175338212 6.349999999999983
    vertex 139.54754378678146 -43.55398175338214 6.349999999999977
  endloop
endfacet
facet normal -3.1053412811321292e-15 -0.6502736134017264 0.759700090636734
  outer loop
    vertex 138.21528933364561 -36.13541904974214 12.699999999999976
    vertex 139.54754378678146 -43.55398175338214 6.349999999999977
    vertex 145.337586630943 -55.948126363269765 -4.258903829062469
  endloop
endfacet
facet normal -0.9696264773263155 0.24459046274898052 -3.757468431261883e-16
  outer loop
    vertex 138.21528933364561 -48.83541904974213 1.829295899806733
    vertex 151.02970374806003 1.964580950257878 -2.255973186038318e-14
    vertex 138.21528933364561 -48.835419049742136 -2.255973186038318e-14
  endloop
endfacet
facet normal -0.9696264773263155 0.24459046274898052 -3.757468431261883e-16
  outer loop
    vertex 151.02970374806003 1.964580950257878 -2.255973186038318e-14
    vertex 138.21528933364561 -48.83541904974213 1.829295899806733
    vertex 139.54754378678146 -43.55398175338214 6.349999999999977
  endloop
endfacet
facet normal -0.9696264773263155 0.24459046274898052 -3.757468431261883e-16
  outer loop
    vertex 151.02970374806003 1.964580950257878 -2.255973186038318e-14
    vertex 139.54754378678146 -43.55398175338214 6.349999999999977
    vertex 151.02970374806003 1.964580950257878 6.349999999999977
  endloop
endfacet
facet normal 0.9696264773263155 0.24459046274898047 9.863354632062437e-16
  outer loop
    vertex 125.4008749192312 1.964580950257878 -2.255973186038318e-14
    vertex 138.21528933364561 -48.83541904974213 1.829295899806733
    vertex 138.21528933364561 -48.835419049742136 -2.255973186038318e-14
  endloop
endfacet
facet normal 0.9696264773263155 0.24459046274898047 9.863354632062437e-16
  outer loop
    vertex 138.21528933364561 -48.83541904974213 1.829295899806733
    vertex 125.4008749192312 1.964580950257878 -2.255973186038318e-14
    vertex 136.88303488050974 -43.55398175338212 6.349999999999983
  endloop
endfacet
facet normal 0.9696264773263155 0.24459046274898047 9.863354632062437e-16
  outer loop
    vertex 136.88303488050974 -43.55398175338212 6.349999999999983
    vertex 125.4008749192312 1.964580950257878 -2.255973186038318e-14
    vertex 125.4008749192312 1.964580950257878 6.349999999999977
  endloop
endfacet
facet normal -2.2634170866558856e-17 -6.195201067546867e-17 -1.0
  outer loop
    vertex 151.02970374806003 1.964580950257878 6.349999999999977
    vertex 136.88303488050974 -43.55398175338212 6.349999999999983
    vertex 125.4008749192312 1.964580950257878 6.349999999999977
  endloop
endfacet
facet normal -2.2634170866558856e-17 -6.195201067546867e-17 -1.0
  outer loop
    vertex 136.88303488050974 -43.55398175338212 6.349999999999983
    vertex 151.02970374806003 1.964580950257878 6.349999999999977
    vertex 139.54754378678146 -43.55398175338214 6.349999999999977
  endloop
endfacet
facet normal 0.796973183686335 -0.20103828056952266 0.5695764691685546
  outer loop
    vertex 138.21528933364561 -36.13541904974214 12.699999999999976
    vertex 145.337586630943 -55.948126363269765 -4.258903829062469
    vertex 147.66731078862696 -46.71243416673669 -4.258903829062469
  endloop
endfacet
facet normal 0.7358051782178638 -0.3087951160839232 0.6026908958914962
  outer loop
    vertex 154.20470374806004 1.964580950257878 12.699999999999976
    vertex 138.21528933364561 -36.13541904974214 12.699999999999976
    vertex 147.66731078862696 -46.71243416673669 -4.258903829062469
  endloop
endfacet
facet normal -0.7969731836863332 -0.2010382805695294 0.5695764691685549
  outer loop
    vertex 138.21528933364561 -36.13541904974214 12.699999999999976
    vertex 128.76326787866375 -46.71243416673448 -4.258903829062469
    vertex 131.09299203634836 -55.9481263632697 -4.258903829062469
  endloop
endfacet
facet normal 0.0 0.0 1.0
  outer loop
    vertex 154.20470374806004 1.964580950257878 12.699999999999976
    vertex 122.2258749192312 1.964580950257878 12.699999999999976
    vertex 138.21528933364561 -36.13541904974214 12.699999999999976
  endloop
endfacet
facet normal -0.735805178217872 -0.3087951160839266 0.6026908958914844
  outer loop
    vertex 122.2258749192312 1.964580950257878 12.699999999999976
    vertex 128.76326787866375 -46.71243416673448 -4.258903829062469
    vertex 138.21528933364561 -36.13541904974214 12.699999999999976
  endloop
endfacet
endsolid Bear Skull Rack
