solid Bear Skull Rack
facet normal -0.12656165196114458 -0.03192546175600086 0.9914448613738096
  outer loop
    vertex 127.309963004426 -56.73856848819721 1.601198474920967
    vertex 126.94856234443718 -50.280819043688 1.7630099630052496
    vertex 125.75681356596856 -50.581440357175914 1.601198474920969
  endloop
endfacet
facet normal -0.12656165196114458 -0.03192546175600086 0.9914448613738096
  outer loop
    vertex 126.94856234443718 -50.280819043688 1.7630099630052496
    vertex 127.309963004426 -56.73856848819721 1.601198474920967
    vertex 128.50171178289403 -56.43794717470981 1.7630099630052476
  endloop
endfacet
facet normal 0.2445904627492201 -0.9696264773262551 -3.4017853312352075e-15
  outer loop
    vertex 133.46709113544742 -55.185419049742094 -2.255973186038318e-14
    vertex 130.56588121705965 -55.9172557859107 2.992090239107595
    vertex 127.309963004426 -56.73856848819721 -2.255973186038318e-14
  endloop
endfacet
facet normal 0.2445904627492201 -0.9696264773262551 -3.4017853312352075e-15
  outer loop
    vertex 130.56588121705965 -55.9172557859107 2.992090239107595
    vertex 133.46709113544742 -55.185419049742094 -2.255973186038318e-14
    vertex 133.46709113544742 -55.185419049742094 6.349999999999978
  endloop
endfacet
facet normal 0.2445904627492201 -0.9696264773262551 -3.4017853312352075e-15
  outer loop
    vertex 127.309963004426 -56.73856848819721 -2.255973186038318e-14
    vertex 130.56588121705965 -55.9172557859107 2.992090239107595
    vertex 129.61224485156853 -56.15781270693542 2.2374172417512703
  endloop
endfacet
facet normal 0.2445904627492201 -0.9696264773262551 -3.4017853312352075e-15
  outer loop
    vertex 127.309963004426 -56.73856848819721 -2.255973186038318e-14
    vertex 129.61224485156853 -56.15781270693542 2.2374172417512703
    vertex 125.71638098098066 -57.14055314276076 0.21637100306439294
  endloop
endfacet
facet normal 0.2445904627492201 -0.9696264773262551 -3.4017853312352075e-15
  outer loop
    vertex 125.71638098098066 -57.14055314276076 0.21637100306439294
    vertex 129.61224485156853 -56.15781270693542 2.2374172417512703
    vertex 128.50171178289403 -56.43794717470981 1.7630099630052476
  endloop
endfacet
facet normal 0.2445904627492201 -0.9696264773262551 -3.4017853312352075e-15
  outer loop
    vertex 125.71638098098066 -57.14055314276076 0.21637100306439294
    vertex 128.50171178289403 -56.43794717470981 1.7630099630052476
    vertex 124.23139893891607 -57.51514320742611 0.8507386859687894
  endloop
endfacet
facet normal 0.2445904627492201 -0.9696264773262551 -3.4017853312352075e-15
  outer loop
    vertex 124.23139893891607 -57.51514320742611 0.8507386859687894
    vertex 128.50171178289403 -56.43794717470981 1.7630099630052476
    vertex 127.309963004426 -56.73856848819721 1.601198474920967
  endloop
endfacet
facet normal 0.2445904627492201 -0.9696264773262551 -3.4017853312352075e-15
  outer loop
    vertex 130.56588121705965 -55.9172557859107 2.992090239107595
    vertex 133.46709113544742 -55.185419049742094 6.349999999999978
    vertex 131.29763213701963 -55.73266996826288 3.975599237460481
  endloop
endfacet
facet normal 0.2445904627492201 -0.9696264773262551 -3.4017853312352075e-15
  outer loop
    vertex 131.29763213701963 -55.73266996826288 3.975599237460481
    vertex 133.46709113544742 -55.185419049742094 6.349999999999978
    vertex 131.61367700822655 -55.652946937687986 4.762499999999982
  endloop
endfacet
facet normal 0.2445904627492201 -0.9696264773262551 -3.4017853312352075e-15
  outer loop
    vertex 131.61367700822655 -55.652946937687986 4.762499999999982
    vertex 133.46709113544742 -55.185419049742094 6.349999999999978
    vertex 131.61367700822655 -55.652946937687986 6.349999999999978
  endloop
endfacet
facet normal 0.2445904627492201 -0.9696264773262551 -3.4017853312352075e-15
  outer loop
    vertex 127.309963004426 -56.73856848819721 1.601198474920967
    vertex 122.9562159503462 -57.83681098832715 1.8598719394653966
    vertex 124.23139893891607 -57.51514320742611 0.8507386859687894
  endloop
endfacet
facet normal 0.2445904627492201 -0.9696264773262551 -3.4017853312352075e-15
  outer loop
    vertex 122.9562159503462 -57.83681098832715 1.8598719394653966
    vertex 127.309963004426 -56.73856848819721 1.601198474920967
    vertex 126.11821422595827 -57.03918980168548 1.7630099630052467
  endloop
endfacet
facet normal 0.2445904627492201 -0.9696264773262551 -3.4017853312352075e-15
  outer loop
    vertex 122.9562159503462 -57.83681098832715 1.8598719394653966
    vertex 126.11821422595827 -57.03918980168548 1.7630099630052467
    vertex 125.00768115728394 -57.31932426945941 2.237417241751267
  endloop
endfacet
facet normal 0.2445904627492201 -0.9696264773262551 -3.4017853312352075e-15
  outer loop
    vertex 122.9562159503462 -57.83681098832715 1.8598719394653966
    vertex 125.00768115728394 -57.31932426945941 2.237417241751267
    vertex 121.97773362860596 -58.083635357775535 3.174999999999972
  endloop
endfacet
facet normal 0.2445904627492201 -0.9696264773262551 -3.4017853312352075e-15
  outer loop
    vertex 121.97773362860596 -58.083635357775535 3.174999999999972
    vertex 125.00768115728394 -57.31932426945941 2.237417241751267
    vertex 124.05404479179283 -57.5598811904842 2.992090239107591
  endloop
endfacet
facet normal 0.2445904627492201 -0.9696264773262551 -3.4017853312352075e-15
  outer loop
    vertex 121.97773362860596 -58.083635357775535 3.174999999999972
    vertex 124.05404479179283 -57.5598811904842 2.992090239107591
    vertex 123.3222938718331 -57.744467008131714 3.975599237460479
  endloop
endfacet
facet normal 0.2445904627492201 -0.9696264773262551 -3.4017853312352075e-15
  outer loop
    vertex 121.97773362860596 -58.083635357775535 3.174999999999972
    vertex 123.3222938718331 -57.744467008131714 3.975599237460479
    vertex 121.3626339269014 -58.23879564289021 4.7064990635989705
  endloop
endfacet
facet normal 0.2445904627492201 -0.9696264773262551 -3.4017853312352075e-15
  outer loop
    vertex 121.3626339269014 -58.23879564289021 4.7064990635989705
    vertex 123.3222938718331 -57.744467008131714 3.975599237460479
    vertex 123.00624900062628 -57.82419003870645 4.762499999999982
  endloop
endfacet
facet normal 0.2445904627492201 -0.9696264773262551 -3.4017853312352075e-15
  outer loop
    vertex 121.3626339269014 -58.23879564289021 4.7064990635989705
    vertex 123.00624900062628 -57.82419003870645 4.762499999999982
    vertex 121.15283487340423 -58.29171792665508 6.349999999999978
  endloop
endfacet
facet normal 0.2445904627492201 -0.9696264773262551 -3.4017853312352075e-15
  outer loop
    vertex 121.15283487340423 -58.29171792665508 6.349999999999978
    vertex 123.00624900062628 -57.82419003870645 4.762499999999982
    vertex 123.00624900062633 -57.82419003870653 6.349999999999978
  endloop
endfacet
facet normal -0.9696264773263155 0.24459046274898047 0.0
  outer loop
    vertex 151.02970374806003 1.964580950257878 6.349999999999977
    vertex 138.21528933364561 -48.835419049742136 -2.255973186038318e-14
    vertex 138.21528933364561 -48.835419049742136 6.349999999999977
  endloop
endfacet
facet normal -0.9696264773263155 0.24459046274898047 0.0
  outer loop
    vertex 138.21528933364561 -48.835419049742136 -2.255973186038318e-14
    vertex 151.02970374806003 1.964580950257878 6.349999999999977
    vertex 151.02970374806003 1.964580950257878 -2.255973186038318e-14
  endloop
endfacet
facet normal -0.9696264773262566 -0.2445904627492137 -6.9336241460702e-30
  outer loop
    vertex 130.06052756976928 -49.49581880666665 6.349999999999978
    vertex 131.61367700822655 -55.652946937687986 4.762499999999982
    vertex 131.61367700822655 -55.652946937687986 6.349999999999978
  endloop
endfacet
facet normal -0.9696264773262566 -0.2445904627492137 -6.9336241460702e-30
  outer loop
    vertex 131.61367700822655 -55.652946937687986 4.762499999999982
    vertex 130.06052756976928 -49.49581880666665 6.349999999999978
    vertex 130.06052756976928 -49.49581880666665 4.762499999999982
  endloop
endfacet
facet normal 0.9696264773263155 0.24459046274898047 0.0
  outer loop
    vertex 125.4008749192312 1.964580950257878 -2.255973186038318e-14
    vertex 138.21528933364561 -48.835419049742136 6.349999999999977
    vertex 138.21528933364561 -48.835419049742136 -2.255973186038318e-14
  endloop
endfacet
facet normal 0.9696264773263155 0.24459046274898047 0.0
  outer loop
    vertex 138.21528933364561 -48.835419049742136 6.349999999999977
    vertex 125.4008749192312 1.964580950257878 -2.255973186038318e-14
    vertex 125.4008749192312 1.964580950257878 6.349999999999977
  endloop
endfacet
facet normal 0.0 1.0 0.0
  outer loop
    vertex 119.0508749192312 1.964580950257878 12.699999999999976
    vertex 125.4008749192312 1.964580950257878 -2.255973186038318e-14
    vertex 119.0508749192312 1.964580950257878 -2.255973186038318e-14
  endloop
endfacet
facet normal 0.0 1.0 0.0
  outer loop
    vertex 125.4008749192312 1.964580950257878 -2.255973186038318e-14
    vertex 119.0508749192312 1.964580950257878 12.699999999999976
    vertex 125.4008749192312 1.964580950257878 6.349999999999977
  endloop
endfacet
facet normal 0.0 1.0 0.0
  outer loop
    vertex 125.4008749192312 1.964580950257878 6.349999999999977
    vertex 119.0508749192312 1.964580950257878 12.699999999999976
    vertex 151.02970374806003 1.964580950257878 6.349999999999977
  endloop
endfacet
facet normal 0.0 1.0 0.0
  outer loop
    vertex 151.02970374806003 1.964580950257878 6.349999999999977
    vertex 157.37970374806002 1.964580950257878 -2.255973186038318e-14
    vertex 151.02970374806003 1.964580950257878 -2.255973186038318e-14
  endloop
endfacet
facet normal 0.0 1.0 0.0
  outer loop
    vertex 157.37970374806002 1.964580950257878 -2.255973186038318e-14
    vertex 151.02970374806003 1.964580950257878 6.349999999999977
    vertex 157.37970374806002 1.964580950257878 12.699999999999976
  endloop
endfacet
facet normal 0.0 1.0 0.0
  outer loop
    vertex 157.37970374806002 1.964580950257878 12.699999999999976
    vertex 151.02970374806003 1.964580950257878 6.349999999999977
    vertex 119.0508749192312 1.964580950257878 12.699999999999976
  endloop
endfacet
facet normal -3.403858744946789e-15 -1.0 -1.908920782639075e-15
  outer loop
    vertex 142.9634875318438 -55.185419049742144 6.349999999999977
    vertex 133.46709113544742 -55.185419049742094 -2.255973186038318e-14
    vertex 142.9634875318438 -55.185419049742144 -2.255973186038318e-14
  endloop
endfacet
facet normal -3.403858744946789e-15 -1.0 -1.908920782639075e-15
  outer loop
    vertex 133.46709113544742 -55.185419049742094 -2.255973186038318e-14
    vertex 142.9634875318438 -55.185419049742144 6.349999999999977
    vertex 133.46709113544742 -55.185419049742094 6.349999999999978
  endloop
endfacet
facet normal -3.403858744946789e-15 -1.0 -1.908920782639075e-15
  outer loop
    vertex 133.46709113544742 -55.185419049742094 6.349999999999978
    vertex 142.9634875318438 -55.185419049742144 6.349999999999977
    vertex 142.9634875318438 -55.185419049742144 12.699999999999976
  endloop
endfacet
facet normal -3.403858744946789e-15 -1.0 -1.908920782639075e-15
  outer loop
    vertex 133.46709113544742 -55.185419049742094 6.349999999999978
    vertex 142.9634875318438 -55.185419049742144 12.699999999999976
    vertex 133.46709113544742 -55.185419049742144 12.699999999999976
  endloop
endfacet
facet normal 0.9696264773262517 0.24459046274923302 1.995203100868928e-14
  outer loop
    vertex 123.00624900062628 -57.82419003870645 4.762499999999982
    vertex 121.4530995621677 -51.66706190768554 6.349999999999978
    vertex 123.00624900062633 -57.82419003870653 6.349999999999978
  endloop
endfacet
facet normal 0.9696264773262517 0.24459046274923302 1.995203100868928e-14
  outer loop
    vertex 121.4530995621677 -51.66706190768554 6.349999999999978
    vertex 123.00624900062628 -57.82419003870645 4.762499999999982
    vertex 121.4530995621677 -51.66706190768554 4.762499999999983
  endloop
endfacet
facet normal -0.3710599884552335 -0.09360071780863236 -0.9238795325113068
  outer loop
    vertex 124.1632315425232 -50.98342501173886 0.21637100306439364
    vertex 124.23139893891607 -57.51514320742611 0.8507386859687894
    vertex 122.67824950045762 -51.35801507640468 0.8507386859687894
  endloop
endfacet
facet normal -0.3710599884552335 -0.09360071780863236 -0.9238795325113068
  outer loop
    vertex 124.23139893891607 -57.51514320742611 0.8507386859687894
    vertex 124.1632315425232 -50.98342501173886 0.21637100306439364
    vertex 125.71638098098066 -57.14055314276076 0.21637100306439294
  endloop
endfacet
facet normal -0.5902711999418857 -0.1488972396251465 0.7933533402911834
  outer loop
    vertex 129.61224485156853 -56.15781270693542 2.2374172417512703
    vertex 129.01273177860182 -49.76012765488922 2.9920902391075974
    vertex 128.0590954131101 -50.00068457591437 2.237417241751273
  endloop
endfacet
facet normal -0.5902711999418857 -0.1488972396251465 0.7933533402911834
  outer loop
    vertex 129.01273177860182 -49.76012765488922 2.9920902391075974
    vertex 129.61224485156853 -56.15781270693542 2.2374172417512703
    vertex 130.56588121705965 -55.9172557859107 2.992090239107595
  endloop
endfacet
facet normal -0.5902711999418592 -0.14889723962513082 -0.7933533402912061
  outer loop
    vertex 122.67824950045762 -51.35801507640468 0.8507386859687894
    vertex 122.9562159503462 -57.83681098832715 1.8598719394653966
    vertex 121.40306651188855 -51.67968285730537 1.8598719394653982
  endloop
endfacet
facet normal -0.5902711999418592 -0.14889723962513082 -0.7933533402912061
  outer loop
    vertex 122.9562159503462 -57.83681098832715 1.8598719394653966
    vertex 122.67824950045762 -51.35801507640468 0.8507386859687894
    vertex 124.23139893891607 -57.51514320742611 0.8507386859687894
  endloop
endfacet
facet normal -0.37105998845521193 -0.09360071780862814 0.923879532511316
  outer loop
    vertex 128.50171178289403 -56.43794717470981 1.7630099630052476
    vertex 128.0590954131101 -50.00068457591437 2.237417241751273
    vertex 126.94856234443718 -50.280819043688 1.7630099630052496
  endloop
endfacet
facet normal -0.37105998845521193 -0.09360071780862814 0.923879532511316
  outer loop
    vertex 128.0590954131101 -50.00068457591437 2.237417241751273
    vertex 128.50171178289403 -56.43794717470981 1.7630099630052476
    vertex 129.61224485156853 -56.15781270693542 2.2374172417512703
  endloop
endfacet
facet normal 0.7692564046215355 0.19404666062547246 0.6087614290088124
  outer loop
    vertex 124.05404479179283 -57.5598811904842 2.992090239107591
    vertex 121.76914443337509 -51.58733887711078 3.97559923746048
    vertex 123.3222938718331 -57.744467008131714 3.975599237460479
  endloop
endfacet
facet normal 0.7692564046215355 0.19404666062547246 0.6087614290088124
  outer loop
    vertex 121.76914443337509 -51.58733887711078 3.97559923746048
    vertex 124.05404479179283 -57.5598811904842 2.992090239107591
    vertex 122.50089535333495 -51.40275305946259 2.992090239107591
  endloop
endfacet
facet normal 0.0 0.0 -1.0
  outer loop
    vertex 131.91394169699103 -49.02829091871858 -2.255973186038318e-14
    vertex 127.309963004426 -56.73856848819721 -2.255973186038318e-14
    vertex 125.75681356596856 -50.581440357175914 -2.255973186038318e-14
  endloop
endfacet
facet normal 0.0 0.0 -1.0
  outer loop
    vertex 127.309963004426 -56.73856848819721 -2.255973186038318e-14
    vertex 131.91394169699103 -49.02829091871858 -2.255973186038318e-14
    vertex 133.46709113544742 -55.185419049742094 -2.255973186038318e-14
  endloop
endfacet
facet normal -0.9613311883970964 -0.24249795743378297 -0.13052619222006664
  outer loop
    vertex 119.59968543494666 -52.13458979563338 6.349999999999978
    vertex 121.3626339269014 -58.23879564289021 4.7064990635989705
    vertex 121.15283487340423 -58.29171792665508 6.349999999999978
  endloop
endfacet
facet normal -0.9613311883970964 -0.24249795743378297 -0.13052619222006664
  outer loop
    vertex 121.3626339269014 -58.23879564289021 4.7064990635989705
    vertex 119.59968543494666 -52.13458979563338 6.349999999999978
    vertex 119.80948448844418 -52.08166751186821 4.7064990635989705
  endloop
endfacet
facet normal 0.12656165196113187 0.03192546175600032 0.9914448613738112
  outer loop
    vertex 126.11821422595827 -57.03918980168548 1.7630099630052467
    vertex 125.75681356596856 -50.581440357175914 1.601198474920969
    vertex 124.56506478750056 -50.882061670663646 1.7630099630052476
  endloop
endfacet
facet normal 0.12656165196113187 0.03192546175600032 0.9914448613738112
  outer loop
    vertex 125.75681356596856 -50.581440357175914 1.601198474920969
    vertex 126.11821422595827 -57.03918980168548 1.7630099630052467
    vertex 127.309963004426 -56.73856848819721 1.601198474920967
  endloop
endfacet
facet normal 0.5902711999418835 0.14889723962515583 0.7933533402911833
  outer loop
    vertex 124.05404479179283 -57.5598811904842 2.992090239107591
    vertex 123.45453171882733 -51.162196138437274 2.237417241751268
    vertex 122.50089535333495 -51.40275305946259 2.992090239107591
  endloop
endfacet
facet normal 0.5902711999418835 0.14889723962515583 0.7933533402911833
  outer loop
    vertex 123.45453171882733 -51.162196138437274 2.237417241751268
    vertex 124.05404479179283 -57.5598811904842 2.992090239107591
    vertex 125.00768115728394 -57.31932426945941 2.237417241751267
  endloop
endfacet
facet normal -0.1265616519611387 -0.031925461755999515 -0.9914448613738103
  outer loop
    vertex 125.75681356596856 -50.581440357175914 -2.255973186038318e-14
    vertex 125.71638098098066 -57.14055314276076 0.21637100306439294
    vertex 124.1632315425232 -50.98342501173886 0.21637100306439364
  endloop
endfacet
facet normal -0.1265616519611387 -0.031925461755999515 -0.9914448613738103
  outer loop
    vertex 125.71638098098066 -57.14055314276076 0.21637100306439294
    vertex 125.75681356596856 -50.581440357175914 -2.255973186038318e-14
    vertex 127.309963004426 -56.73856848819721 -2.255973186038318e-14
  endloop
endfacet
facet normal 0.0 0.0 1.0
  outer loop
    vertex 131.61367700822655 -55.652946937687986 6.349999999999978
    vertex 131.91394169699103 -49.02829091871858 6.349999999999978
    vertex 130.06052756976928 -49.49581880666665 6.349999999999978
  endloop
endfacet
facet normal 0.0 0.0 1.0
  outer loop
    vertex 131.91394169699103 -49.02829091871858 6.349999999999978
    vertex 131.61367700822655 -55.652946937687986 6.349999999999978
    vertex 133.46709113544742 -55.185419049742094 6.349999999999978
  endloop
endfacet
facet normal -0.8958180565827509 -0.22597212238147682 0.38268343236507407
  outer loop
    vertex 131.61367700822655 -55.652946937687986 4.762499999999982
    vertex 129.74448269856148 -49.57554183724084 3.975599237460481
    vertex 131.29763213701963 -55.73266996826288 3.975599237460481
  endloop
endfacet
facet normal -0.8958180565827509 -0.22597212238147682 0.38268343236507407
  outer loop
    vertex 129.74448269856148 -49.57554183724084 3.975599237460481
    vertex 131.61367700822655 -55.652946937687986 4.762499999999982
    vertex 130.06052756976928 -49.49581880666665 4.762499999999982
  endloop
endfacet
facet normal 0.0 0.0 1.0
  outer loop
    vertex 121.15283487340423 -58.29171792665508 6.349999999999978
    vertex 121.4530995621677 -51.66706190768554 6.349999999999978
    vertex 119.59968543494666 -52.13458979563338 6.349999999999978
  endloop
endfacet
facet normal 0.0 0.0 1.0
  outer loop
    vertex 121.4530995621677 -51.66706190768554 6.349999999999978
    vertex 121.15283487340423 -58.29171792665508 6.349999999999978
    vertex 123.00624900062633 -57.82419003870653 6.349999999999978
  endloop
endfacet
facet normal -0.7692564046216054 -0.1940466606254933 -0.6087614290087172
  outer loop
    vertex 120.42458419014815 -51.92650722675421 3.174999999999973
    vertex 122.9562159503462 -57.83681098832715 1.8598719394653966
    vertex 121.97773362860596 -58.083635357775535 3.174999999999972
  endloop
endfacet
facet normal -0.7692564046216054 -0.1940466606254933 -0.6087614290087172
  outer loop
    vertex 122.9562159503462 -57.83681098832715 1.8598719394653966
    vertex 120.42458419014815 -51.92650722675421 3.174999999999973
    vertex 121.40306651188855 -51.67968285730537 1.8598719394653982
  endloop
endfacet
facet normal -0.7692564046216169 -0.1940466606254943 0.6087614290087024
  outer loop
    vertex 131.29763213701963 -55.73266996826288 3.975599237460481
    vertex 129.01273177860182 -49.76012765488922 2.9920902391075974
    vertex 130.56588121705965 -55.9172557859107 2.992090239107595
  endloop
endfacet
facet normal -0.7692564046216169 -0.1940466606254943 0.6087614290087024
  outer loop
    vertex 129.01273177860182 -49.76012765488922 2.9920902391075974
    vertex 131.29763213701963 -55.73266996826288 3.975599237460481
    vertex 129.74448269856148 -49.57554183724084 3.975599237460481
  endloop
endfacet
facet normal -0.8958180565827362 -0.22597212238150488 -0.38268343236509217
  outer loop
    vertex 119.80948448844418 -52.08166751186821 4.7064990635989705
    vertex 121.97773362860596 -58.083635357775535 3.174999999999972
    vertex 121.3626339269014 -58.23879564289021 4.7064990635989705
  endloop
endfacet
facet normal -0.8958180565827362 -0.22597212238150488 -0.38268343236509217
  outer loop
    vertex 121.97773362860596 -58.083635357775535 3.174999999999972
    vertex 119.80948448844418 -52.08166751186821 4.7064990635989705
    vertex 120.42458419014815 -51.92650722675421 3.174999999999973
  endloop
endfacet
facet normal 0.8958180565827583 0.22597212238148473 0.38268343236505226
  outer loop
    vertex 123.3222938718331 -57.744467008131714 3.975599237460479
    vertex 121.4530995621677 -51.66706190768554 4.762499999999983
    vertex 123.00624900062628 -57.82419003870645 4.762499999999982
  endloop
endfacet
facet normal 0.8958180565827583 0.22597212238148473 0.38268343236505226
  outer loop
    vertex 121.4530995621677 -51.66706190768554 4.762499999999983
    vertex 123.3222938718331 -57.744467008131714 3.975599237460479
    vertex 121.76914443337509 -51.58733887711078 3.97559923746048
  endloop
endfacet
facet normal -0.9696264773263155 -0.24459046274898052 -7.436224888426937e-17
  outer loop
    vertex 119.0508749192312 1.964580950257878 12.699999999999976
    vertex 133.46709113544742 -55.185419049742094 6.349999999999978
    vertex 133.46709113544742 -55.185419049742144 12.699999999999976
  endloop
endfacet
facet normal -0.9696264773263155 -0.24459046274898052 -7.436224888426937e-17
  outer loop
    vertex 133.46709113544742 -55.185419049742094 6.349999999999978
    vertex 119.0508749192312 1.964580950257878 12.699999999999976
    vertex 131.91394169699103 -49.02829091871858 6.349999999999978
  endloop
endfacet
facet normal -0.9696264773263155 -0.24459046274898052 -7.436224888426937e-17
  outer loop
    vertex 131.91394169699103 -49.02829091871858 6.349999999999978
    vertex 119.0508749192312 1.964580950257878 12.699999999999976
    vertex 131.91394169699103 -49.02829091871858 -2.255973186038318e-14
  endloop
endfacet
facet normal -0.9696264773263155 -0.24459046274898052 -7.436224888426937e-17
  outer loop
    vertex 131.91394169699103 -49.02829091871858 -2.255973186038318e-14
    vertex 119.0508749192312 1.964580950257878 12.699999999999976
    vertex 119.0508749192312 1.964580950257878 -2.255973186038318e-14
  endloop
endfacet
facet normal 0.3710599884552762 0.09360071780865632 0.9238795325112872
  outer loop
    vertex 125.00768115728394 -57.31932426945941 2.237417241751267
    vertex 124.56506478750056 -50.882061670663646 1.7630099630052476
    vertex 123.45453171882733 -51.162196138437274 2.237417241751268
  endloop
endfacet
facet normal 0.3710599884552762 0.09360071780865632 0.9238795325112872
  outer loop
    vertex 124.56506478750056 -50.882061670663646 1.7630099630052476
    vertex 125.00768115728394 -57.31932426945941 2.237417241751267
    vertex 126.11821422595827 -57.03918980168548 1.7630099630052467
  endloop
endfacet
facet normal 0.12656165196114538 -0.03192546175596451 -0.9914448613738105
  outer loop
    vertex 150.67376510132192 -50.58144035717607 -2.0975149686745274e-14
    vertex 150.7141976863109 -57.14055314276088 0.21637100306439364
    vertex 149.1206156628659 -56.73856848819817 -2.1854740239746206e-14
  endloop
endfacet
facet normal 0.12656165196114538 -0.03192546175596451 -0.9914448613738105
  outer loop
    vertex 150.7141976863109 -57.14055314276088 0.21637100306439364
    vertex 150.67376510132192 -50.58144035717607 -2.0975149686745274e-14
    vertex 152.26734712476693 -50.98342501173878 0.21637100306439452
  endloop
endfacet
facet normal -0.24459046274898083 -0.9696264773263155 -1.3851819732298115e-16
  outer loop
    vertex 153.47436271694608 -57.836810988326505 1.8598719394654002
    vertex 149.1206156628659 -56.73856848819817 1.60119847492097
    vertex 152.19917972837695 -57.515143207426185 0.8507386859687902
  endloop
endfacet
facet normal -0.24459046274898083 -0.9696264773263155 -1.3851819732298115e-16
  outer loop
    vertex 149.1206156628659 -56.73856848819817 1.60119847492097
    vertex 153.47436271694608 -57.836810988326505 1.8598719394654002
    vertex 150.31236444133427 -57.03918980168566 1.7630099630052496
  endloop
endfacet
facet normal -0.24459046274898083 -0.9696264773263155 -1.3851819732298115e-16
  outer loop
    vertex 150.31236444133427 -57.03918980168566 1.7630099630052496
    vertex 153.47436271694608 -57.836810988326505 1.8598719394654002
    vertex 151.422897510008 -57.31932426945924 2.2374172417512703
  endloop
endfacet
facet normal -0.24459046274898083 -0.9696264773263155 -1.3851819732298115e-16
  outer loop
    vertex 151.422897510008 -57.31932426945924 2.2374172417512703
    vertex 153.47436271694608 -57.836810988326505 1.8598719394654002
    vertex 154.45284503868686 -58.08363535777463 3.174999999999975
  endloop
endfacet
facet normal -0.24459046274898083 -0.9696264773263155 -1.3851819732298115e-16
  outer loop
    vertex 151.422897510008 -57.31932426945924 2.2374172417512703
    vertex 154.45284503868686 -58.08363535777463 3.174999999999975
    vertex 152.37653387549963 -57.55988119048418 2.992090239107594
  endloop
endfacet
facet normal -0.24459046274898083 -0.9696264773263155 -1.3851819732298115e-16
  outer loop
    vertex 152.37653387549963 -57.55988119048418 2.992090239107594
    vertex 154.45284503868686 -58.08363535777463 3.174999999999975
    vertex 153.10828479545955 -57.744467008131686 3.975599237460474
  endloop
endfacet
facet normal -0.24459046274898083 -0.9696264773263155 -1.3851819732298115e-16
  outer loop
    vertex 153.10828479545955 -57.744467008131686 3.975599237460474
    vertex 154.45284503868686 -58.08363535777463 3.174999999999975
    vertex 155.06794474039108 -58.238795642889215 4.706499063598965
  endloop
endfacet
facet normal -0.24459046274898083 -0.9696264773263155 -1.3851819732298115e-16
  outer loop
    vertex 153.10828479545955 -57.744467008131686 3.975599237460474
    vertex 155.06794474039108 -58.238795642889215 4.706499063598965
    vertex 153.42432966666664 -57.824190038706455 4.762499999999977
  endloop
endfacet
facet normal -0.24459046274898083 -0.9696264773263155 -1.3851819732298115e-16
  outer loop
    vertex 153.42432966666664 -57.824190038706455 4.762499999999977
    vertex 155.06794474039108 -58.238795642889215 4.706499063598965
    vertex 155.277743793888 -58.2917179266542 6.349999999999977
  endloop
endfacet
facet normal -0.24459046274898083 -0.9696264773263155 -1.3851819732298115e-16
  outer loop
    vertex 153.42432966666664 -57.824190038706455 4.762499999999977
    vertex 155.277743793888 -58.2917179266542 6.349999999999977
    vertex 153.42432966666664 -57.82419003870647 6.349999999999977
  endloop
endfacet
facet normal -0.24459046274898083 -0.9696264773263155 -1.3851819732298115e-16
  outer loop
    vertex 142.9634875318438 -55.185419049742144 -2.255973186038318e-14
    vertex 145.86469745023217 -55.91725578591217 2.9920902391075983
    vertex 142.9634875318438 -55.185419049742144 6.349999999999977
  endloop
endfacet
facet normal -0.24459046274898083 -0.9696264773263155 -1.3851819732298115e-16
  outer loop
    vertex 145.86469745023217 -55.91725578591217 2.9920902391075983
    vertex 142.9634875318438 -55.185419049742144 -2.255973186038318e-14
    vertex 149.1206156628659 -56.73856848819817 -2.1854740239746206e-14
  endloop
endfacet
facet normal -0.24459046274898083 -0.9696264773263155 -1.3851819732298115e-16
  outer loop
    vertex 145.86469745023217 -55.91725578591217 2.9920902391075983
    vertex 149.1206156628659 -56.73856848819817 -2.1854740239746206e-14
    vertex 146.8183338157238 -56.15781270693709 2.2374172417512734
  endloop
endfacet
facet normal -0.24459046274898083 -0.9696264773263155 -1.3851819732298115e-16
  outer loop
    vertex 146.8183338157238 -56.15781270693709 2.2374172417512734
    vertex 149.1206156628659 -56.73856848819817 -2.1854740239746206e-14
    vertex 150.7141976863109 -57.14055314276088 0.21637100306439364
  endloop
endfacet
facet normal -0.24459046274898083 -0.9696264773263155 -1.3851819732298115e-16
  outer loop
    vertex 146.8183338157238 -56.15781270693709 2.2374172417512734
    vertex 150.7141976863109 -57.14055314276088 0.21637100306439364
    vertex 147.92886688439754 -56.43794717471068 1.7630099630052503
  endloop
endfacet
facet normal -0.24459046274898083 -0.9696264773263155 -1.3851819732298115e-16
  outer loop
    vertex 147.92886688439754 -56.43794717471068 1.7630099630052503
    vertex 150.7141976863109 -57.14055314276088 0.21637100306439364
    vertex 152.19917972837695 -57.515143207426185 0.8507386859687902
  endloop
endfacet
facet normal -0.24459046274898083 -0.9696264773263155 -1.3851819732298115e-16
  outer loop
    vertex 147.92886688439754 -56.43794717471068 1.7630099630052503
    vertex 152.19917972837695 -57.515143207426185 0.8507386859687902
    vertex 149.1206156628659 -56.73856848819817 1.60119847492097
  endloop
endfacet
facet normal -0.24459046274898083 -0.9696264773263155 -1.3851819732298115e-16
  outer loop
    vertex 142.9634875318438 -55.185419049742144 6.349999999999977
    vertex 145.86469745023217 -55.91725578591217 2.9920902391075983
    vertex 145.13294653027225 -55.73266996826465 3.9755992374604765
  endloop
endfacet
facet normal -0.24459046274898083 -0.9696264773263155 -1.3851819732298115e-16
  outer loop
    vertex 142.9634875318438 -55.185419049742144 6.349999999999977
    vertex 145.13294653027225 -55.73266996826465 3.9755992374604765
    vertex 144.8169016590652 -55.65294693768988 4.762499999999978
  endloop
endfacet
facet normal -0.24459046274898083 -0.9696264773263155 -1.3851819732298115e-16
  outer loop
    vertex 142.9634875318438 -55.185419049742144 6.349999999999977
    vertex 144.8169016590652 -55.65294693768988 4.762499999999978
    vertex 144.8169016590652 -55.65294693768988 6.349999999999977
  endloop
endfacet
facet normal 0.9696264773263155 -0.24459046274898083 0.0
  outer loop
    vertex 146.3700510975212 -49.495818806667785 4.762499999999979
    vertex 144.8169016590652 -55.65294693768988 6.349999999999977
    vertex 144.8169016590652 -55.65294693768988 4.762499999999978
  endloop
endfacet
facet normal 0.9696264773263155 -0.24459046274898083 0.0
  outer loop
    vertex 144.8169016590652 -55.65294693768988 6.349999999999977
    vertex 146.3700510975212 -49.495818806667785 4.762499999999979
    vertex 146.3700510975212 -49.495818806667785 6.349999999999977
  endloop
endfacet
facet normal 0.0 0.0 1.0
  outer loop
    vertex 133.46709113544742 -55.185419049742144 12.699999999999976
    vertex 157.37970374806002 1.964580950257878 12.699999999999976
    vertex 119.0508749192312 1.964580950257878 12.699999999999976
  endloop
endfacet
facet normal 0.0 0.0 1.0
  outer loop
    vertex 157.37970374806002 1.964580950257878 12.699999999999976
    vertex 133.46709113544742 -55.185419049742144 12.699999999999976
    vertex 142.9634875318438 -55.185419049742144 12.699999999999976
  endloop
endfacet
facet normal 0.9696264773263155 -0.24459046274898072 5.591502819743297e-17
  outer loop
    vertex 157.37970374806002 1.964580950257878 -2.255973186038318e-14
    vertex 144.51663697029983 -49.02829091872004 6.349999999999977
    vertex 144.51663697029983 -49.02829091872004 -2.1680141307382247e-14
  endloop
endfacet
facet normal 0.9696264773263155 -0.24459046274898072 5.591502819743297e-17
  outer loop
    vertex 144.51663697029983 -49.02829091872004 6.349999999999977
    vertex 142.9634875318438 -55.185419049742144 12.699999999999976
    vertex 142.9634875318438 -55.185419049742144 6.349999999999977
  endloop
endfacet
facet normal 0.9696264773263155 -0.24459046274898072 5.591502819743297e-17
  outer loop
    vertex 142.9634875318438 -55.185419049742144 12.699999999999976
    vertex 144.51663697029983 -49.02829091872004 6.349999999999977
    vertex 157.37970374806002 1.964580950257878 12.699999999999976
  endloop
endfacet
facet normal 0.9696264773263155 -0.24459046274898072 5.591502819743297e-17
  outer loop
    vertex 157.37970374806002 1.964580950257878 12.699999999999976
    vertex 144.51663697029983 -49.02829091872004 6.349999999999977
    vertex 157.37970374806002 1.964580950257878 -2.255973186038318e-14
  endloop
endfacet
facet normal 1.415303940237684e-16 1.0715591538110971e-16 -1.0
  outer loop
    vertex 144.51663697029983 -49.02829091872004 -2.1680141307382247e-14
    vertex 149.1206156628659 -56.73856848819817 -2.1854740239746206e-14
    vertex 142.9634875318438 -55.185419049742144 -2.255973186038318e-14
  endloop
endfacet
facet normal 1.415303940237684e-16 1.0715591538110971e-16 -1.0
  outer loop
    vertex 149.1206156628659 -56.73856848819817 -2.1854740239746206e-14
    vertex 144.51663697029983 -49.02829091872004 -2.1680141307382247e-14
    vertex 150.67376510132192 -50.58144035717607 -2.0975149686745274e-14
  endloop
endfacet
facet normal -3.388022998238271e-17 -1.3431091171587358e-16 1.0
  outer loop
    vertex 144.8169016590652 -55.65294693768988 6.349999999999977
    vertex 144.51663697029983 -49.02829091872004 6.349999999999977
    vertex 142.9634875318438 -55.185419049742144 6.349999999999977
  endloop
endfacet
facet normal -3.388022998238271e-17 -1.3431091171587358e-16 1.0
  outer loop
    vertex 144.51663697029983 -49.02829091872004 6.349999999999977
    vertex 144.8169016590652 -55.65294693768988 6.349999999999977
    vertex 146.3700510975212 -49.495818806667785 6.349999999999977
  endloop
endfacet
facet normal 0.0 0.0 -1.0
  outer loop
    vertex 151.02970374806003 1.964580950257878 6.349999999999977
    vertex 138.21528933364561 -48.835419049742136 6.349999999999977
    vertex 125.4008749192312 1.964580950257878 6.349999999999977
  endloop
endfacet
facet normal 4.667564748414189e-18 -2.9354850088624408e-18 -1.0
  outer loop
    vertex 125.4008749192312 1.964580950257878 -2.255973186038318e-14
    vertex 131.91394169699103 -49.02829091871858 -2.255973186038318e-14
    vertex 119.0508749192312 1.964580950257878 -2.255973186038318e-14
  endloop
endfacet
facet normal 4.667564748414189e-18 -2.9354850088624408e-18 -1.0
  outer loop
    vertex 131.91394169699103 -49.02829091871858 -2.255973186038318e-14
    vertex 125.4008749192312 1.964580950257878 -2.255973186038318e-14
    vertex 138.21528933364561 -48.835419049742136 -2.255973186038318e-14
  endloop
endfacet
facet normal 4.667564748414189e-18 -2.9354850088624408e-18 -1.0
  outer loop
    vertex 131.91394169699103 -49.02829091871858 -2.255973186038318e-14
    vertex 138.21528933364561 -48.835419049742136 -2.255973186038318e-14
    vertex 133.46709113544742 -55.185419049742094 -2.255973186038318e-14
  endloop
endfacet
facet normal 4.667564748414189e-18 -2.9354850088624408e-18 -1.0
  outer loop
    vertex 133.46709113544742 -55.185419049742094 -2.255973186038318e-14
    vertex 138.21528933364561 -48.835419049742136 -2.255973186038318e-14
    vertex 142.9634875318438 -55.185419049742144 -2.255973186038318e-14
  endloop
endfacet
facet normal 4.667564748414189e-18 -2.9354850088624408e-18 -1.0
  outer loop
    vertex 142.9634875318438 -55.185419049742144 -2.255973186038318e-14
    vertex 138.21528933364561 -48.835419049742136 -2.255973186038318e-14
    vertex 151.02970374806003 1.964580950257878 -2.255973186038318e-14
  endloop
endfacet
facet normal 4.667564748414189e-18 -2.9354850088624408e-18 -1.0
  outer loop
    vertex 142.9634875318438 -55.185419049742144 -2.255973186038318e-14
    vertex 151.02970374806003 1.964580950257878 -2.255973186038318e-14
    vertex 144.51663697029983 -49.02829091872004 -2.1680141307382247e-14
  endloop
endfacet
facet normal 4.667564748414189e-18 -2.9354850088624408e-18 -1.0
  outer loop
    vertex 144.51663697029983 -49.02829091872004 -2.1680141307382247e-14
    vertex 151.02970374806003 1.964580950257878 -2.255973186038318e-14
    vertex 157.37970374806002 1.964580950257878 -2.255973186038318e-14
  endloop
endfacet
facet normal -0.24459046274921195 0.9696264773262571 1.897234785272572e-14
  outer loop
    vertex 121.40306651188855 -51.67968285730537 1.8598719394653982
    vertex 125.75681356596856 -50.581440357175914 1.601198474920969
    vertex 122.67824950045762 -51.35801507640468 0.8507386859687894
  endloop
endfacet
facet normal -0.24459046274921195 0.9696264773262571 1.897234785272572e-14
  outer loop
    vertex 125.75681356596856 -50.581440357175914 1.601198474920969
    vertex 121.40306651188855 -51.67968285730537 1.8598719394653982
    vertex 124.56506478750056 -50.882061670663646 1.7630099630052476
  endloop
endfacet
facet normal -0.24459046274921195 0.9696264773262571 1.897234785272572e-14
  outer loop
    vertex 124.56506478750056 -50.882061670663646 1.7630099630052476
    vertex 121.40306651188855 -51.67968285730537 1.8598719394653982
    vertex 123.45453171882733 -51.162196138437274 2.237417241751268
  endloop
endfacet
facet normal -0.24459046274921195 0.9696264773262571 1.897234785272572e-14
  outer loop
    vertex 123.45453171882733 -51.162196138437274 2.237417241751268
    vertex 121.40306651188855 -51.67968285730537 1.8598719394653982
    vertex 120.42458419014815 -51.92650722675421 3.174999999999973
  endloop
endfacet
facet normal -0.24459046274921195 0.9696264773262571 1.897234785272572e-14
  outer loop
    vertex 123.45453171882733 -51.162196138437274 2.237417241751268
    vertex 120.42458419014815 -51.92650722675421 3.174999999999973
    vertex 122.50089535333495 -51.40275305946259 2.992090239107591
  endloop
endfacet
facet normal -0.24459046274921195 0.9696264773262571 1.897234785272572e-14
  outer loop
    vertex 122.50089535333495 -51.40275305946259 2.992090239107591
    vertex 120.42458419014815 -51.92650722675421 3.174999999999973
    vertex 121.76914443337509 -51.58733887711078 3.97559923746048
  endloop
endfacet
facet normal -0.24459046274921195 0.9696264773262571 1.897234785272572e-14
  outer loop
    vertex 121.76914443337509 -51.58733887711078 3.97559923746048
    vertex 120.42458419014815 -51.92650722675421 3.174999999999973
    vertex 119.80948448844418 -52.08166751186821 4.7064990635989705
  endloop
endfacet
facet normal -0.24459046274921195 0.9696264773262571 1.897234785272572e-14
  outer loop
    vertex 121.76914443337509 -51.58733887711078 3.97559923746048
    vertex 119.80948448844418 -52.08166751186821 4.7064990635989705
    vertex 121.4530995621677 -51.66706190768554 4.762499999999983
  endloop
endfacet
facet normal -0.24459046274921195 0.9696264773262571 1.897234785272572e-14
  outer loop
    vertex 121.4530995621677 -51.66706190768554 4.762499999999983
    vertex 119.80948448844418 -52.08166751186821 4.7064990635989705
    vertex 119.59968543494666 -52.13458979563338 6.349999999999978
  endloop
endfacet
facet normal -0.24459046274921195 0.9696264773262571 1.897234785272572e-14
  outer loop
    vertex 121.4530995621677 -51.66706190768554 4.762499999999983
    vertex 119.59968543494666 -52.13458979563338 6.349999999999978
    vertex 121.4530995621677 -51.66706190768554 6.349999999999978
  endloop
endfacet
facet normal -0.24459046274921195 0.9696264773262571 1.897234785272572e-14
  outer loop
    vertex 124.1632315425232 -50.98342501173886 0.21637100306439364
    vertex 131.91394169699103 -49.02829091871858 -2.255973186038318e-14
    vertex 125.75681356596856 -50.581440357175914 -2.255973186038318e-14
  endloop
endfacet
facet normal -0.24459046274921195 0.9696264773262571 1.897234785272572e-14
  outer loop
    vertex 131.91394169699103 -49.02829091871858 -2.255973186038318e-14
    vertex 124.1632315425232 -50.98342501173886 0.21637100306439364
    vertex 128.0590954131101 -50.00068457591437 2.237417241751273
  endloop
endfacet
facet normal -0.24459046274921195 0.9696264773262571 1.897234785272572e-14
  outer loop
    vertex 131.91394169699103 -49.02829091871858 -2.255973186038318e-14
    vertex 128.0590954131101 -50.00068457591437 2.237417241751273
    vertex 129.01273177860182 -49.76012765488922 2.9920902391075974
  endloop
endfacet
facet normal -0.24459046274921195 0.9696264773262571 1.897234785272572e-14
  outer loop
    vertex 131.91394169699103 -49.02829091871858 -2.255973186038318e-14
    vertex 129.01273177860182 -49.76012765488922 2.9920902391075974
    vertex 131.91394169699103 -49.02829091871858 6.349999999999978
  endloop
endfacet
facet normal -0.24459046274921195 0.9696264773262571 1.897234785272572e-14
  outer loop
    vertex 128.0590954131101 -50.00068457591437 2.237417241751273
    vertex 124.1632315425232 -50.98342501173886 0.21637100306439364
    vertex 126.94856234443718 -50.280819043688 1.7630099630052496
  endloop
endfacet
facet normal -0.24459046274921195 0.9696264773262571 1.897234785272572e-14
  outer loop
    vertex 126.94856234443718 -50.280819043688 1.7630099630052496
    vertex 124.1632315425232 -50.98342501173886 0.21637100306439364
    vertex 122.67824950045762 -51.35801507640468 0.8507386859687894
  endloop
endfacet
facet normal -0.24459046274921195 0.9696264773262571 1.897234785272572e-14
  outer loop
    vertex 126.94856234443718 -50.280819043688 1.7630099630052496
    vertex 122.67824950045762 -51.35801507640468 0.8507386859687894
    vertex 125.75681356596856 -50.581440357175914 1.601198474920969
  endloop
endfacet
facet normal -0.24459046274921195 0.9696264773262571 1.897234785272572e-14
  outer loop
    vertex 131.91394169699103 -49.02829091871858 6.349999999999978
    vertex 129.01273177860182 -49.76012765488922 2.9920902391075974
    vertex 129.74448269856148 -49.57554183724084 3.975599237460481
  endloop
endfacet
facet normal -0.24459046274921195 0.9696264773262571 1.897234785272572e-14
  outer loop
    vertex 131.91394169699103 -49.02829091871858 6.349999999999978
    vertex 129.74448269856148 -49.57554183724084 3.975599237460481
    vertex 130.06052756976928 -49.49581880666665 4.762499999999982
  endloop
endfacet
facet normal -0.24459046274921195 0.9696264773262571 1.897234785272572e-14
  outer loop
    vertex 131.91394169699103 -49.02829091871858 6.349999999999978
    vertex 130.06052756976928 -49.49581880666665 4.762499999999982
    vertex 130.06052756976928 -49.49581880666665 6.349999999999978
  endloop
endfacet
facet normal 0.769256404621653 -0.19404666062528222 0.6087614290087245
  outer loop
    vertex 147.4178468886882 -49.76012765489006 2.9920902391075987
    vertex 145.13294653027225 -55.73266996826465 3.9755992374604765
    vertex 145.86469745023217 -55.91725578591217 2.9920902391075983
  endloop
endfacet
facet normal 0.769256404621653 -0.19404666062528222 0.6087614290087245
  outer loop
    vertex 145.13294653027225 -55.73266996826465 3.9755992374604765
    vertex 147.4178468886882 -49.76012765489006 2.9920902391075987
    vertex 146.68609596872827 -49.575541837242554 3.9755992374604774
  endloop
endfacet
facet normal 0.8958180565828093 -0.22597212238124956 0.38268343236507146
  outer loop
    vertex 146.68609596872827 -49.575541837242554 3.9755992374604774
    vertex 144.8169016590652 -55.65294693768988 4.762499999999978
    vertex 145.13294653027225 -55.73266996826465 3.9755992374604765
  endloop
endfacet
facet normal 0.8958180565828093 -0.22597212238124956 0.38268343236507146
  outer loop
    vertex 144.8169016590652 -55.65294693768988 4.762499999999978
    vertex 146.68609596872827 -49.575541837242554 3.9755992374604774
    vertex 146.3700510975212 -49.495818806667785 4.762499999999979
  endloop
endfacet
facet normal 0.7692564046216546 -0.19404666062528242 -0.6087614290087228
  outer loop
    vertex 153.47436271694608 -57.836810988326505 1.8598719394654002
    vertex 156.00599447714288 -51.92650722675253 3.174999999999976
    vertex 154.45284503868686 -58.08363535777463 3.174999999999975
  endloop
endfacet
facet normal 0.7692564046216546 -0.19404666062528242 -0.6087614290087228
  outer loop
    vertex 156.00599447714288 -51.92650722675253 3.174999999999976
    vertex 153.47436271694608 -57.836810988326505 1.8598719394654002
    vertex 155.02751215540212 -51.67968285730441 1.8598719394654009
  endloop
endfacet
facet normal -0.5902711999418545 0.14889723962497242 0.7933533402912392
  outer loop
    vertex 152.37653387549963 -57.55988119048418 2.992090239107594
    vertex 152.97604694846402 -51.16219613843714 2.237417241751271
    vertex 151.422897510008 -57.31932426945924 2.2374172417512703
  endloop
endfacet
facet normal -0.5902711999418545 0.14889723962497242 0.7933533402912392
  outer loop
    vertex 152.97604694846402 -51.16219613843714 2.237417241751271
    vertex 152.37653387549963 -57.55988119048418 2.992090239107594
    vertex 153.92968331395568 -51.40275305946207 2.9920902391075948
  endloop
endfacet
facet normal -0.7692564046216532 0.1940466606252821 0.608761429008724
  outer loop
    vertex 154.66143423391557 -51.58733887710959 3.9755992374604743
    vertex 152.37653387549963 -57.55988119048418 2.992090239107594
    vertex 153.10828479545955 -57.744467008131686 3.975599237460474
  endloop
endfacet
facet normal -0.7692564046216532 0.1940466606252821 0.608761429008724
  outer loop
    vertex 152.37653387549963 -57.55988119048418 2.992090239107594
    vertex 154.66143423391557 -51.58733887710959 3.9755992374604743
    vertex 153.92968331395568 -51.40275305946207 2.9920902391075948
  endloop
endfacet
facet normal -0.9696264773263155 0.24459046274898083 1.7379197654248971e-15
  outer loop
    vertex 154.97747910512265 -51.66706190768437 6.349999999999977
    vertex 153.42432966666664 -57.824190038706455 4.762499999999977
    vertex 153.42432966666664 -57.82419003870647 6.349999999999977
  endloop
endfacet
facet normal -0.9696264773263155 0.24459046274898083 1.7379197654248971e-15
  outer loop
    vertex 153.42432966666664 -57.824190038706455 4.762499999999977
    vertex 154.97747910512265 -51.66706190768437 6.349999999999977
    vertex 154.97747910512265 -51.66706190768436 4.762499999999978
  endloop
endfacet
facet normal 0.37105998845530525 -0.09360071780854548 -0.923879532511287
  outer loop
    vertex 152.26734712476693 -50.98342501173878 0.21637100306439452
    vertex 152.19917972837695 -57.515143207426185 0.8507386859687902
    vertex 150.7141976863109 -57.14055314276088 0.21637100306439364
  endloop
endfacet
facet normal 0.37105998845530525 -0.09360071780854548 -0.923879532511287
  outer loop
    vertex 152.19917972837695 -57.515143207426185 0.8507386859687902
    vertex 152.26734712476693 -50.98342501173878 0.21637100306439452
    vertex 153.752329166833 -51.35801507640409 0.8507386859687911
  endloop
endfacet
facet normal 0.8958180565828019 -0.2259721223812476 -0.38268343236509
  outer loop
    vertex 154.45284503868686 -58.08363535777463 3.174999999999975
    vertex 156.62109417884713 -52.08166751186712 4.706499063598966
    vertex 155.06794474039108 -58.238795642889215 4.706499063598965
  endloop
endfacet
facet normal 0.8958180565828019 -0.2259721223812476 -0.38268343236509
  outer loop
    vertex 156.62109417884713 -52.08166751186712 4.706499063598966
    vertex 154.45284503868686 -58.08363535777463 3.174999999999975
    vertex 156.00599447714288 -51.92650722675253 3.174999999999976
  endloop
endfacet
facet normal 0.9613311883971655 -0.24249795743351957 -0.1305261922200466
  outer loop
    vertex 155.06794474039108 -58.238795642889215 4.706499063598965
    vertex 156.83089323234404 -52.134589795632095 6.349999999999977
    vertex 155.277743793888 -58.2917179266542 6.349999999999977
  endloop
endfacet
facet normal 0.9613311883971655 -0.24249795743351957 -0.1305261922200466
  outer loop
    vertex 156.83089323234404 -52.134589795632095 6.349999999999977
    vertex 155.06794474039108 -58.238795642889215 4.706499063598965
    vertex 156.62109417884713 -52.08166751186712 4.706499063598966
  endloop
endfacet
facet normal 0.590271199941859 -0.14889723962497353 -0.7933533402912358
  outer loop
    vertex 153.752329166833 -51.35801507640409 0.8507386859687911
    vertex 153.47436271694608 -57.836810988326505 1.8598719394654002
    vertex 152.19917972837695 -57.515143207426185 0.8507386859687902
  endloop
endfacet
facet normal 0.590271199941859 -0.14889723962497353 -0.7933533402912358
  outer loop
    vertex 153.47436271694608 -57.836810988326505 1.8598719394654002
    vertex 153.752329166833 -51.35801507640409 0.8507386859687911
    vertex 155.02751215540212 -51.67968285730441 1.8598719394654009
  endloop
endfacet
facet normal -3.388022998238233e-17 -1.343109117158737e-16 1.0
  outer loop
    vertex 155.277743793888 -58.2917179266542 6.349999999999977
    vertex 154.97747910512265 -51.66706190768437 6.349999999999977
    vertex 153.42432966666664 -57.82419003870647 6.349999999999977
  endloop
endfacet
facet normal -3.388022998238233e-17 -1.343109117158737e-16 1.0
  outer loop
    vertex 154.97747910512265 -51.66706190768437 6.349999999999977
    vertex 155.277743793888 -58.2917179266542 6.349999999999977
    vertex 156.83089323234404 -52.134589795632095 6.349999999999977
  endloop
endfacet
facet normal -0.8958180565828009 0.22597212238124736 0.3826834323650925
  outer loop
    vertex 154.97747910512265 -51.66706190768436 4.762499999999978
    vertex 153.10828479545955 -57.744467008131686 3.975599237460474
    vertex 153.42432966666664 -57.824190038706455 4.762499999999977
  endloop
endfacet
facet normal -0.8958180565828009 0.22597212238124736 0.3826834323650925
  outer loop
    vertex 153.10828479545955 -57.744467008131686 3.975599237460474
    vertex 154.97747910512265 -51.66706190768436 4.762499999999978
    vertex 154.66143423391557 -51.58733887710959 3.9755992374604743
  endloop
endfacet
facet normal 0.1265616519611474 -0.031925461755965306 0.9914448613738103
  outer loop
    vertex 149.1206156628659 -56.73856848819817 1.60119847492097
    vertex 149.48201632285355 -50.28081904368858 1.763009963005251
    vertex 147.92886688439754 -56.43794717471068 1.7630099630052503
  endloop
endfacet
facet normal 0.1265616519611474 -0.031925461755965306 0.9914448613738103
  outer loop
    vertex 149.48201632285355 -50.28081904368858 1.763009963005251
    vertex 149.1206156628659 -56.73856848819817 1.60119847492097
    vertex 150.67376510132192 -50.58144035717607 1.6011984749209707
  endloop
endfacet
facet normal -0.3710599884553037 0.09360071780854508 0.9238795325112876
  outer loop
    vertex 151.422897510008 -57.31932426945924 2.2374172417512703
    vertex 151.86551387979029 -50.88206167066356 1.7630099630052503
    vertex 150.31236444133427 -57.03918980168566 1.7630099630052496
  endloop
endfacet
facet normal -0.3710599884553037 0.09360071780854508 0.9238795325112876
  outer loop
    vertex 151.86551387979029 -50.88206167066356 1.7630099630052503
    vertex 151.422897510008 -57.31932426945924 2.2374172417512703
    vertex 152.97604694846402 -51.16219613843714 2.237417241751271
  endloop
endfacet
facet normal 0.24459046274898072 0.9696264773263155 1.7176256468049663e-16
  outer loop
    vertex 144.51663697029983 -49.02829091872004 -2.1680141307382247e-14
    vertex 147.4178468886882 -49.76012765489006 2.9920902391075987
    vertex 150.67376510132192 -50.58144035717607 -2.0975149686745274e-14
  endloop
endfacet
facet normal 0.24459046274898072 0.9696264773263155 1.7176256468049663e-16
  outer loop
    vertex 147.4178468886882 -49.76012765489006 2.9920902391075987
    vertex 144.51663697029983 -49.02829091872004 -2.1680141307382247e-14
    vertex 144.51663697029983 -49.02829091872004 6.349999999999977
  endloop
endfacet
facet normal 0.24459046274898072 0.9696264773263155 1.7176256468049663e-16
  outer loop
    vertex 150.67376510132192 -50.58144035717607 -2.0975149686745274e-14
    vertex 147.4178468886882 -49.76012765489006 2.9920902391075987
    vertex 148.37148325417985 -50.00068457591499 2.237417241751274
  endloop
endfacet
facet normal 0.24459046274898072 0.9696264773263155 1.7176256468049663e-16
  outer loop
    vertex 150.67376510132192 -50.58144035717607 -2.0975149686745274e-14
    vertex 148.37148325417985 -50.00068457591499 2.237417241751274
    vertex 152.26734712476693 -50.98342501173878 0.21637100306439452
  endloop
endfacet
facet normal 0.24459046274898072 0.9696264773263155 1.7176256468049663e-16
  outer loop
    vertex 152.26734712476693 -50.98342501173878 0.21637100306439452
    vertex 148.37148325417985 -50.00068457591499 2.237417241751274
    vertex 149.48201632285355 -50.28081904368858 1.763009963005251
  endloop
endfacet
facet normal 0.24459046274898072 0.9696264773263155 1.7176256468049663e-16
  outer loop
    vertex 152.26734712476693 -50.98342501173878 0.21637100306439452
    vertex 149.48201632285355 -50.28081904368858 1.763009963005251
    vertex 153.752329166833 -51.35801507640409 0.8507386859687911
  endloop
endfacet
facet normal 0.24459046274898072 0.9696264773263155 1.7176256468049663e-16
  outer loop
    vertex 153.752329166833 -51.35801507640409 0.8507386859687911
    vertex 149.48201632285355 -50.28081904368858 1.763009963005251
    vertex 150.67376510132192 -50.58144035717607 1.6011984749209707
  endloop
endfacet
facet normal 0.24459046274898072 0.9696264773263155 1.7176256468049663e-16
  outer loop
    vertex 147.4178468886882 -49.76012765489006 2.9920902391075987
    vertex 144.51663697029983 -49.02829091872004 6.349999999999977
    vertex 146.68609596872827 -49.575541837242554 3.9755992374604774
  endloop
endfacet
facet normal 0.24459046274898072 0.9696264773263155 1.7176256468049663e-16
  outer loop
    vertex 146.68609596872827 -49.575541837242554 3.9755992374604774
    vertex 144.51663697029983 -49.02829091872004 6.349999999999977
    vertex 146.3700510975212 -49.495818806667785 4.762499999999979
  endloop
endfacet
facet normal 0.24459046274898072 0.9696264773263155 1.7176256468049663e-16
  outer loop
    vertex 146.3700510975212 -49.495818806667785 4.762499999999979
    vertex 144.51663697029983 -49.02829091872004 6.349999999999977
    vertex 146.3700510975212 -49.495818806667785 6.349999999999977
  endloop
endfacet
facet normal 0.24459046274898072 0.9696264773263155 1.7176256468049663e-16
  outer loop
    vertex 150.67376510132192 -50.58144035717607 1.6011984749209707
    vertex 155.02751215540212 -51.67968285730441 1.8598719394654009
    vertex 153.752329166833 -51.35801507640409 0.8507386859687911
  endloop
endfacet
facet normal 0.24459046274898072 0.9696264773263155 1.7176256468049663e-16
  outer loop
    vertex 155.02751215540212 -51.67968285730441 1.8598719394654009
    vertex 150.67376510132192 -50.58144035717607 1.6011984749209707
    vertex 151.86551387979029 -50.88206167066356 1.7630099630052503
  endloop
endfacet
facet normal 0.24459046274898072 0.9696264773263155 1.7176256468049663e-16
  outer loop
    vertex 155.02751215540212 -51.67968285730441 1.8598719394654009
    vertex 151.86551387979029 -50.88206167066356 1.7630099630052503
    vertex 152.97604694846402 -51.16219613843714 2.237417241751271
  endloop
endfacet
facet normal 0.24459046274898072 0.9696264773263155 1.7176256468049663e-16
  outer loop
    vertex 155.02751215540212 -51.67968285730441 1.8598719394654009
    vertex 152.97604694846402 -51.16219613843714 2.237417241751271
    vertex 156.00599447714288 -51.92650722675253 3.174999999999976
  endloop
endfacet
facet normal 0.24459046274898072 0.9696264773263155 1.7176256468049663e-16
  outer loop
    vertex 156.00599447714288 -51.92650722675253 3.174999999999976
    vertex 152.97604694846402 -51.16219613843714 2.237417241751271
    vertex 153.92968331395568 -51.40275305946207 2.9920902391075948
  endloop
endfacet
facet normal 0.24459046274898072 0.9696264773263155 1.7176256468049663e-16
  outer loop
    vertex 156.00599447714288 -51.92650722675253 3.174999999999976
    vertex 153.92968331395568 -51.40275305946207 2.9920902391075948
    vertex 154.66143423391557 -51.58733887710959 3.9755992374604743
  endloop
endfacet
facet normal 0.24459046274898072 0.9696264773263155 1.7176256468049663e-16
  outer loop
    vertex 156.00599447714288 -51.92650722675253 3.174999999999976
    vertex 154.66143423391557 -51.58733887710959 3.9755992374604743
    vertex 156.62109417884713 -52.08166751186712 4.706499063598966
  endloop
endfacet
facet normal 0.24459046274898072 0.9696264773263155 1.7176256468049663e-16
  outer loop
    vertex 156.62109417884713 -52.08166751186712 4.706499063598966
    vertex 154.66143423391557 -51.58733887710959 3.9755992374604743
    vertex 154.97747910512265 -51.66706190768436 4.762499999999978
  endloop
endfacet
facet normal 0.24459046274898072 0.9696264773263155 1.7176256468049663e-16
  outer loop
    vertex 156.62109417884713 -52.08166751186712 4.706499063598966
    vertex 154.97747910512265 -51.66706190768436 4.762499999999978
    vertex 156.83089323234404 -52.134589795632095 6.349999999999977
  endloop
endfacet
facet normal 0.24459046274898072 0.9696264773263155 1.7176256468049663e-16
  outer loop
    vertex 156.83089323234404 -52.134589795632095 6.349999999999977
    vertex 154.97747910512265 -51.66706190768436 4.762499999999978
    vertex 154.97747910512265 -51.66706190768437 6.349999999999977
  endloop
endfacet
facet normal 0.5902711999418563 -0.1488972396249731 0.7933533402912378
  outer loop
    vertex 146.8183338157238 -56.15781270693709 2.2374172417512734
    vertex 147.4178468886882 -49.76012765489006 2.9920902391075987
    vertex 145.86469745023217 -55.91725578591217 2.9920902391075983
  endloop
endfacet
facet normal 0.5902711999418563 -0.1488972396249731 0.7933533402912378
  outer loop
    vertex 147.4178468886882 -49.76012765489006 2.9920902391075987
    vertex 146.8183338157238 -56.15781270693709 2.2374172417512734
    vertex 148.37148325417985 -50.00068457591499 2.237417241751274
  endloop
endfacet
facet normal 0.3710599884553043 -0.0936007178085455 0.9238795325112872
  outer loop
    vertex 147.92886688439754 -56.43794717471068 1.7630099630052503
    vertex 148.37148325417985 -50.00068457591499 2.237417241751274
    vertex 146.8183338157238 -56.15781270693709 2.2374172417512734
  endloop
endfacet
facet normal 0.3710599884553043 -0.0936007178085455 0.9238795325112872
  outer loop
    vertex 148.37148325417985 -50.00068457591499 2.237417241751274
    vertex 147.92886688439754 -56.43794717471068 1.7630099630052503
    vertex 149.48201632285355 -50.28081904368858 1.763009963005251
  endloop
endfacet
facet normal -0.12656165196114694 0.0319254617559649 0.9914448613738103
  outer loop
    vertex 150.31236444133427 -57.03918980168566 1.7630099630052496
    vertex 150.67376510132192 -50.58144035717607 1.6011984749209707
    vertex 149.1206156628659 -56.73856848819817 1.60119847492097
  endloop
endfacet
facet normal -0.12656165196114694 0.0319254617559649 0.9914448613738103
  outer loop
    vertex 150.67376510132192 -50.58144035717607 1.6011984749209707
    vertex 150.31236444133427 -57.03918980168566 1.7630099630052496
    vertex 151.86551387979029 -50.88206167066356 1.7630099630052503
  endloop
endfacet
endsolid Bear Skull Rack
