solid Brewing Water Mineral Rack
facet normal 1.0 4.8352886246420516e-17 -3.013217498565326e-17
  outer loop
    vertex 0.0 60.95999999999998 0.0
    vertex 0.0 33.654999999999994 3.175
    vertex 0.0 33.654999999999994 0.0
  endloop
endfacet
facet normal 1.0 4.8352886246420516e-17 -3.013217498565326e-17
  outer loop
    vertex 0.0 27.304999999999993 3.175
    vertex 5.639932965095795e-15 0.0 15.526397756695179
    vertex 0.0 0.0 3.175
  endloop
endfacet
facet normal 1.0 4.8352886246420516e-17 -3.013217498565326e-17
  outer loop
    vertex 5.639932965095795e-15 0.0 15.526397756695179
    vertex 0.0 27.304999999999993 3.175
    vertex 0.0 60.95999999999998 53.974999999999994
  endloop
endfacet
facet normal 1.0 4.8352886246420516e-17 -3.013217498565326e-17
  outer loop
    vertex 0.0 60.95999999999998 53.974999999999994
    vertex 0.0 27.304999999999993 3.175
    vertex 0.0 33.654999999999994 3.175
  endloop
endfacet
facet normal 1.0 4.8352886246420516e-17 -3.013217498565326e-17
  outer loop
    vertex 0.0 60.95999999999998 53.974999999999994
    vertex 0.0 33.654999999999994 3.175
    vertex 0.0 60.95999999999998 0.0
  endloop
endfacet
facet normal -1.0 0.0 0.0
  outer loop
    vertex 60.95999999999998 60.95999999999998 53.974999999999994
    vertex 60.95999999999998 0.0 3.175
    vertex 60.95999999999998 0.0 15.526397756695179
  endloop
endfacet
facet normal -1.0 0.0 0.0
  outer loop
    vertex 60.95999999999998 0.0 3.175
    vertex 60.95999999999998 60.95999999999998 53.974999999999994
    vertex 60.95999999999998 13.652499999999996 3.175
  endloop
endfacet
facet normal -1.0 0.0 0.0
  outer loop
    vertex 60.95999999999998 13.652499999999996 3.175
    vertex 60.95999999999998 60.95999999999998 53.974999999999994
    vertex 60.95999999999998 27.304999999999993 3.175
  endloop
endfacet
facet normal -1.0 0.0 0.0
  outer loop
    vertex 60.95999999999998 27.304999999999993 3.175
    vertex 60.95999999999998 60.95999999999998 53.974999999999994
    vertex 60.95999999999998 33.654999999999994 3.175
  endloop
endfacet
facet normal -1.0 0.0 0.0
  outer loop
    vertex 60.95999999999998 33.654999999999994 3.175
    vertex 60.95999999999998 60.95999999999998 53.974999999999994
    vertex 60.95999999999998 60.95999999999997 3.175
  endloop
endfacet
facet normal 6.252818182592003e-16 -0.5334726594070511 0.8458173098637605
  outer loop
    vertex -2.5399999999999863 0.0 15.526397756695179
    vertex 0.0 60.95999999999998 53.974999999999994
    vertex -2.539999999999992 60.95999999999998 53.974999999999994
  endloop
endfacet
facet normal 6.252818182592003e-16 -0.5334726594070511 0.8458173098637605
  outer loop
    vertex 0.0 60.95999999999998 53.974999999999994
    vertex -2.5399999999999863 0.0 15.526397756695179
    vertex 5.639932965095795e-15 0.0 15.526397756695179
  endloop
endfacet
facet normal -1.4977107498180946e-19 1.0 -3.567367609542549e-18
  outer loop
    vertex 5.639932965095795e-15 0.0 15.526397756695179
    vertex 13.652499999999996 0.0 3.175
    vertex 0.0 0.0 3.175
  endloop
endfacet
facet normal -1.4977107498180946e-19 1.0 -3.567367609542549e-18
  outer loop
    vertex 13.652499999999996 0.0 3.175
    vertex 5.639932965095795e-15 0.0 15.526397756695179
    vertex 27.304999999999993 0.0 3.175
  endloop
endfacet
facet normal -1.4977107498180946e-19 1.0 -3.567367609542549e-18
  outer loop
    vertex 27.304999999999993 0.0 3.175
    vertex 5.639932965095795e-15 0.0 15.526397756695179
    vertex 33.654999999999994 0.0 3.175
  endloop
endfacet
facet normal -1.4977107498180946e-19 1.0 -3.567367609542549e-18
  outer loop
    vertex 33.654999999999994 0.0 3.175
    vertex 5.639932965095795e-15 0.0 15.526397756695179
    vertex 60.95999999999998 0.0 3.175
  endloop
endfacet
facet normal -1.4977107498180946e-19 1.0 -3.567367609542549e-18
  outer loop
    vertex 60.95999999999998 0.0 3.175
    vertex 5.639932965095795e-15 0.0 15.526397756695179
    vertex 60.95999999999998 0.0 15.526397756695179
  endloop
endfacet
facet normal 1.0 0.0 0.0
  outer loop
    vertex 63.499999999999986 63.499999999999986 0.0
    vertex 63.499999999999986 -2.54 13.924372663224144
    vertex 63.499999999999986 -2.54 0.0
  endloop
endfacet
facet normal 1.0 0.0 0.0
  outer loop
    vertex 63.499999999999986 -2.54 13.924372663224144
    vertex 63.499999999999986 63.499999999999986 0.0
    vertex 63.499999999999986 0.0 15.526397756695179
  endloop
endfacet
facet normal 1.0 0.0 0.0
  outer loop
    vertex 63.499999999999986 0.0 15.526397756695179
    vertex 63.499999999999986 63.499999999999986 0.0
    vertex 63.499999999999986 60.95999999999998 53.974999999999994
  endloop
endfacet
facet normal 1.0 0.0 0.0
  outer loop
    vertex 63.499999999999986 60.95999999999998 53.974999999999994
    vertex 63.499999999999986 63.499999999999986 0.0
    vertex 63.499999999999986 66.67499999999998 53.97500000000002
  endloop
endfacet
facet normal 1.0 0.0 0.0
  outer loop
    vertex 63.499999999999986 66.67499999999998 53.97500000000002
    vertex 63.499999999999986 63.499999999999986 0.0
    vertex 63.499999999999986 66.67499999999998 0.0
  endloop
endfacet
facet normal -1.0 -1.1807397051103182e-16 7.773551230675702e-17
  outer loop
    vertex -2.5399999999999863 0.0 15.526397756695179
    vertex -2.54 -2.54 0.0
    vertex -2.5399999999999907 -2.54 13.924372663224144
  endloop
endfacet
facet normal -1.0 -1.1807397051103182e-16 7.773551230675702e-17
  outer loop
    vertex -2.54 -2.54 0.0
    vertex -2.5399999999999863 0.0 15.526397756695179
    vertex -2.54 63.499999999999986 0.0
  endloop
endfacet
facet normal -1.0 -1.1807397051103182e-16 7.773551230675702e-17
  outer loop
    vertex -2.54 63.499999999999986 0.0
    vertex -2.5399999999999863 0.0 15.526397756695179
    vertex -2.539999999999992 60.95999999999998 53.974999999999994
  endloop
endfacet
facet normal -1.0 -1.1807397051103182e-16 7.773551230675702e-17
  outer loop
    vertex -2.54 63.499999999999986 0.0
    vertex -2.539999999999992 60.95999999999998 53.974999999999994
    vertex -2.54 66.67499999999998 53.97500000000002
  endloop
endfacet
facet normal -1.0 -1.1807397051103182e-16 7.773551230675702e-17
  outer loop
    vertex -2.54 63.499999999999986 0.0
    vertex -2.54 66.67499999999998 53.97500000000002
    vertex -2.54 66.67499999999998 0.0
  endloop
endfacet
facet normal 0.0 -1.0 0.0
  outer loop
    vertex 63.499999999999986 -2.54 13.924372663224144
    vertex -2.54 -2.54 0.0
    vertex 63.499999999999986 -2.54 0.0
  endloop
endfacet
facet normal 0.0 -1.0 0.0
  outer loop
    vertex -2.54 -2.54 0.0
    vertex 63.499999999999986 -2.54 13.924372663224144
    vertex -2.5399999999999907 -2.54 13.924372663224144
  endloop
endfacet
facet normal 0.0 0.0 -1.0
  outer loop
    vertex -2.54 63.499999999999986 0.0
    vertex 0.0 60.95999999999998 0.0
    vertex -2.54 -2.54 0.0
  endloop
endfacet
facet normal 0.0 0.0 -1.0
  outer loop
    vertex 0.0 60.95999999999998 0.0
    vertex -2.54 63.499999999999986 0.0
    vertex 63.499999999999986 63.499999999999986 0.0
  endloop
endfacet
facet normal 0.0 0.0 -1.0
  outer loop
    vertex 0.0 60.95999999999998 0.0
    vertex 63.499999999999986 63.499999999999986 0.0
    vertex 27.304999999999993 60.95999999999994 0.0
  endloop
endfacet
facet normal 0.0 0.0 -1.0
  outer loop
    vertex 27.304999999999993 60.95999999999994 0.0
    vertex 63.499999999999986 63.499999999999986 0.0
    vertex 33.654999999999994 60.95999999999994 0.0
  endloop
endfacet
facet normal 0.0 0.0 -1.0
  outer loop
    vertex 33.654999999999994 60.95999999999994 0.0
    vertex 63.499999999999986 63.499999999999986 0.0
    vertex 60.95999999999998 60.95999999999998 0.0
  endloop
endfacet
facet normal 0.0 0.0 -1.0
  outer loop
    vertex 60.95999999999998 60.95999999999998 0.0
    vertex 63.499999999999986 63.499999999999986 0.0
    vertex 60.95999999999998 33.654999999999994 0.0
  endloop
endfacet
facet normal 0.0 0.0 -1.0
  outer loop
    vertex 60.95999999999998 33.654999999999994 0.0
    vertex 63.499999999999986 63.499999999999986 0.0
    vertex 60.95999999999998 27.304999999999993 0.0
  endloop
endfacet
facet normal 0.0 0.0 -1.0
  outer loop
    vertex 60.95999999999998 27.304999999999993 0.0
    vertex 63.499999999999986 63.499999999999986 0.0
    vertex 60.95999999999998 13.652499999999996 0.0
  endloop
endfacet
facet normal 0.0 0.0 -1.0
  outer loop
    vertex 60.95999999999998 13.652499999999996 0.0
    vertex 63.499999999999986 63.499999999999986 0.0
    vertex 60.95999999999998 0.0 0.0
  endloop
endfacet
facet normal 0.0 0.0 -1.0
  outer loop
    vertex -2.54 -2.54 0.0
    vertex 0.0 0.0 0.0
    vertex 63.499999999999986 -2.54 0.0
  endloop
endfacet
facet normal 0.0 0.0 -1.0
  outer loop
    vertex 0.0 0.0 0.0
    vertex -2.54 -2.54 0.0
    vertex 0.0 60.95999999999998 0.0
  endloop
endfacet
facet normal 0.0 0.0 -1.0
  outer loop
    vertex 0.0 0.0 0.0
    vertex 0.0 60.95999999999998 0.0
    vertex 0.0 33.654999999999994 0.0
  endloop
endfacet
facet normal 0.0 0.0 -1.0
  outer loop
    vertex 0.0 0.0 0.0
    vertex 0.0 33.654999999999994 0.0
    vertex 0.0 27.304999999999993 0.0
  endloop
endfacet
facet normal 0.0 0.0 -1.0
  outer loop
    vertex 63.499999999999986 -2.54 0.0
    vertex 0.0 0.0 0.0
    vertex 12.589321448481096 0.0 0.0
  endloop
endfacet
facet normal 0.0 0.0 -1.0
  outer loop
    vertex 63.499999999999986 -2.54 0.0
    vertex 12.589321448481096 0.0 0.0
    vertex 27.304999999999993 0.0 0.0
  endloop
endfacet
facet normal 0.0 0.0 -1.0
  outer loop
    vertex 63.499999999999986 -2.54 0.0
    vertex 27.304999999999993 0.0 0.0
    vertex 33.654999999999994 0.0 0.0
  endloop
endfacet
facet normal 0.0 0.0 -1.0
  outer loop
    vertex 63.499999999999986 -2.54 0.0
    vertex 33.654999999999994 0.0 0.0
    vertex 60.95999999999998 0.0 0.0
  endloop
endfacet
facet normal 0.0 0.0 -1.0
  outer loop
    vertex 63.499999999999986 -2.54 0.0
    vertex 60.95999999999998 0.0 0.0
    vertex 63.499999999999986 63.499999999999986 0.0
  endloop
endfacet
facet normal 0.0 -1.0 0.0
  outer loop
    vertex 27.304999999999993 27.304999999999993 3.175
    vertex 0.0 27.304999999999993 0.0
    vertex 27.304999999999993 27.304999999999993 0.0
  endloop
endfacet
facet normal 0.0 -1.0 0.0
  outer loop
    vertex 0.0 27.304999999999993 0.0
    vertex 27.304999999999993 27.304999999999993 3.175
    vertex 0.0 27.304999999999993 3.175
  endloop
endfacet
facet normal -1.0 0.0 0.0
  outer loop
    vertex 27.304999999999993 27.304999999999993 3.175
    vertex 27.304999999999993 0.0 0.0
    vertex 27.304999999999993 0.0 3.175
  endloop
endfacet
facet normal -1.0 0.0 0.0
  outer loop
    vertex 27.304999999999993 0.0 0.0
    vertex 27.304999999999993 27.304999999999993 3.175
    vertex 27.304999999999993 27.304999999999993 0.0
  endloop
endfacet
facet normal 0.0 1.0 0.0
  outer loop
    vertex 0.0 33.654999999999994 3.175
    vertex 27.304999999999993 33.654999999999994 0.0
    vertex 0.0 33.654999999999994 0.0
  endloop
endfacet
facet normal 0.0 1.0 0.0
  outer loop
    vertex 27.304999999999993 33.654999999999994 0.0
    vertex 0.0 33.654999999999994 3.175
    vertex 27.304999999999993 33.654999999999994 3.175
  endloop
endfacet
facet normal 1.0 6.4547850268904465e-18 0.0
  outer loop
    vertex 0.0 27.304999999999993 0.0
    vertex 0.0 0.0 3.175
    vertex 0.0 0.0 0.0
  endloop
endfacet
facet normal 1.0 6.4547850268904465e-18 0.0
  outer loop
    vertex 0.0 0.0 3.175
    vertex 0.0 27.304999999999993 0.0
    vertex 0.0 27.304999999999993 3.175
  endloop
endfacet
facet normal 1.0 0.0 0.0
  outer loop
    vertex 33.654999999999994 27.304999999999993 0.0
    vertex 33.654999999999994 0.0 3.175
    vertex 33.654999999999994 0.0 0.0
  endloop
endfacet
facet normal 1.0 0.0 0.0
  outer loop
    vertex 33.654999999999994 0.0 3.175
    vertex 33.654999999999994 27.304999999999993 0.0
    vertex 33.654999999999994 27.304999999999993 3.175
  endloop
endfacet
facet normal 0.0 1.0 0.0
  outer loop
    vertex 33.654999999999994 33.654999999999994 3.175
    vertex 60.95999999999998 33.654999999999994 0.0
    vertex 33.654999999999994 33.654999999999994 0.0
  endloop
endfacet
facet normal 0.0 1.0 0.0
  outer loop
    vertex 60.95999999999998 33.654999999999994 0.0
    vertex 33.654999999999994 33.654999999999994 3.175
    vertex 60.95999999999998 33.654999999999994 3.175
  endloop
endfacet
facet normal 0.0 1.0 0.0
  outer loop
    vertex 33.654999999999994 0.0 3.175
    vertex 60.95999999999998 0.0 0.0
    vertex 33.654999999999994 0.0 0.0
  endloop
endfacet
facet normal 0.0 1.0 0.0
  outer loop
    vertex 60.95999999999998 0.0 0.0
    vertex 33.654999999999994 0.0 3.175
    vertex 60.95999999999998 0.0 3.175
  endloop
endfacet
facet normal 0.0 -1.0 0.0
  outer loop
    vertex 60.95999999999998 27.304999999999993 3.175
    vertex 33.654999999999994 27.304999999999993 0.0
    vertex 60.95999999999998 27.304999999999993 0.0
  endloop
endfacet
facet normal 0.0 -1.0 0.0
  outer loop
    vertex 33.654999999999994 27.304999999999993 0.0
    vertex 60.95999999999998 27.304999999999993 3.175
    vertex 33.654999999999994 27.304999999999993 3.175
  endloop
endfacet
facet normal -1.0 0.0 0.0
  outer loop
    vertex 60.95999999999998 60.95999999999997 3.175
    vertex 60.95999999999998 33.654999999999994 0.0
    vertex 60.95999999999998 33.654999999999994 3.175
  endloop
endfacet
facet normal -1.0 0.0 0.0
  outer loop
    vertex 60.95999999999998 33.654999999999994 0.0
    vertex 60.95999999999998 60.95999999999997 3.175
    vertex 60.95999999999998 60.95999999999998 0.0
  endloop
endfacet
facet normal -1.0 0.0 0.0
  outer loop
    vertex 60.95999999999998 27.304999999999993 3.175
    vertex 60.95999999999998 13.652499999999996 0.0
    vertex 60.95999999999998 13.652499999999996 3.175
  endloop
endfacet
facet normal -1.0 0.0 0.0
  outer loop
    vertex 60.95999999999998 13.652499999999996 0.0
    vertex 60.95999999999998 27.304999999999993 3.175
    vertex 60.95999999999998 27.304999999999993 0.0
  endloop
endfacet
facet normal -1.0 0.0 0.0
  outer loop
    vertex 60.95999999999998 13.652499999999996 3.175
    vertex 60.95999999999998 0.0 0.0
    vertex 60.95999999999998 0.0 3.175
  endloop
endfacet
facet normal -1.0 0.0 0.0
  outer loop
    vertex 60.95999999999998 0.0 0.0
    vertex 60.95999999999998 13.652499999999996 3.175
    vertex 60.95999999999998 13.652499999999996 0.0
  endloop
endfacet
facet normal 6.4547850268904465e-18 1.0 1.080833840622445e-33
  outer loop
    vertex 0.0 0.0 3.175
    vertex 12.589321448481096 0.0 0.0
    vertex 0.0 0.0 0.0
  endloop
endfacet
facet normal 6.4547850268904465e-18 1.0 1.080833840622445e-33
  outer loop
    vertex 12.589321448481096 0.0 0.0
    vertex 0.0 0.0 3.175
    vertex 13.652499999999996 0.0 3.175
  endloop
endfacet
facet normal 6.454785026890446e-18 1.0 4.625478775610334e-34
  outer loop
    vertex 13.652499999999996 0.0 3.175
    vertex 27.304999999999993 0.0 0.0
    vertex 12.589321448481096 0.0 0.0
  endloop
endfacet
facet normal 6.454785026890446e-18 1.0 4.625478775610334e-34
  outer loop
    vertex 27.304999999999993 0.0 0.0
    vertex 13.652499999999996 0.0 3.175
    vertex 27.304999999999993 0.0 3.175
  endloop
endfacet
facet normal 0.0 0.0 1.0
  outer loop
    vertex 60.95999999999998 27.304999999999993 3.175
    vertex 33.654999999999994 33.654999999999994 3.175
    vertex 33.654999999999994 27.304999999999993 3.175
  endloop
endfacet
facet normal 0.0 0.0 1.0
  outer loop
    vertex 33.654999999999994 33.654999999999994 3.175
    vertex 60.95999999999998 27.304999999999993 3.175
    vertex 60.95999999999998 33.654999999999994 3.175
  endloop
endfacet
facet normal 0.0 0.0 1.0
  outer loop
    vertex 33.654999999999994 0.0 3.175
    vertex 27.304999999999993 27.304999999999993 3.175
    vertex 27.304999999999993 0.0 3.175
  endloop
endfacet
facet normal 0.0 0.0 1.0
  outer loop
    vertex 27.304999999999993 27.304999999999993 3.175
    vertex 33.654999999999994 0.0 3.175
    vertex 27.304999999999993 33.654999999999994 3.175
  endloop
endfacet
facet normal 0.0 0.0 1.0
  outer loop
    vertex 27.304999999999993 33.654999999999994 3.175
    vertex 33.654999999999994 0.0 3.175
    vertex 27.304999999999993 60.95999999999994 3.175
  endloop
endfacet
facet normal 0.0 0.0 1.0
  outer loop
    vertex 27.304999999999993 60.95999999999994 3.175
    vertex 33.654999999999994 0.0 3.175
    vertex 33.654999999999994 60.95999999999994 3.175
  endloop
endfacet
facet normal 0.0 0.0 1.0
  outer loop
    vertex 33.654999999999994 60.95999999999994 3.175
    vertex 33.654999999999994 0.0 3.175
    vertex 33.654999999999994 27.304999999999993 3.175
  endloop
endfacet
facet normal 0.0 0.0 1.0
  outer loop
    vertex 33.654999999999994 60.95999999999994 3.175
    vertex 33.654999999999994 27.304999999999993 3.175
    vertex 33.654999999999994 33.654999999999994 3.175
  endloop
endfacet
facet normal 0.0 0.0 1.0
  outer loop
    vertex 27.304999999999993 27.304999999999993 3.175
    vertex 0.0 33.654999999999994 3.175
    vertex 0.0 27.304999999999993 3.175
  endloop
endfacet
facet normal 0.0 0.0 1.0
  outer loop
    vertex 0.0 33.654999999999994 3.175
    vertex 27.304999999999993 27.304999999999993 3.175
    vertex 27.304999999999993 33.654999999999994 3.175
  endloop
endfacet
facet normal 0.0 0.0 -1.0
  outer loop
    vertex 60.95999999999998 33.654999999999994 0.0
    vertex 33.654999999999994 27.304999999999993 0.0
    vertex 33.654999999999994 33.654999999999994 0.0
  endloop
endfacet
facet normal 0.0 0.0 -1.0
  outer loop
    vertex 33.654999999999994 27.304999999999993 0.0
    vertex 60.95999999999998 33.654999999999994 0.0
    vertex 60.95999999999998 27.304999999999993 0.0
  endloop
endfacet
facet normal 0.0 0.0 -1.0
  outer loop
    vertex 33.654999999999994 60.95999999999994 0.0
    vertex 27.304999999999993 33.654999999999994 0.0
    vertex 27.304999999999993 60.95999999999994 0.0
  endloop
endfacet
facet normal 0.0 0.0 -1.0
  outer loop
    vertex 27.304999999999993 33.654999999999994 0.0
    vertex 33.654999999999994 60.95999999999994 0.0
    vertex 27.304999999999993 27.304999999999993 0.0
  endloop
endfacet
facet normal 0.0 0.0 -1.0
  outer loop
    vertex 27.304999999999993 27.304999999999993 0.0
    vertex 33.654999999999994 60.95999999999994 0.0
    vertex 27.304999999999993 0.0 0.0
  endloop
endfacet
facet normal 0.0 0.0 -1.0
  outer loop
    vertex 27.304999999999993 0.0 0.0
    vertex 33.654999999999994 60.95999999999994 0.0
    vertex 33.654999999999994 0.0 0.0
  endloop
endfacet
facet normal 0.0 0.0 -1.0
  outer loop
    vertex 33.654999999999994 0.0 0.0
    vertex 33.654999999999994 60.95999999999994 0.0
    vertex 33.654999999999994 33.654999999999994 0.0
  endloop
endfacet
facet normal 0.0 0.0 -1.0
  outer loop
    vertex 33.654999999999994 0.0 0.0
    vertex 33.654999999999994 33.654999999999994 0.0
    vertex 33.654999999999994 27.304999999999993 0.0
  endloop
endfacet
facet normal 0.0 0.0 -1.0
  outer loop
    vertex 27.304999999999993 33.654999999999994 0.0
    vertex 0.0 27.304999999999993 0.0
    vertex 0.0 33.654999999999994 0.0
  endloop
endfacet
facet normal 0.0 0.0 -1.0
  outer loop
    vertex 0.0 27.304999999999993 0.0
    vertex 27.304999999999993 33.654999999999994 0.0
    vertex 27.304999999999993 27.304999999999993 0.0
  endloop
endfacet
facet normal 2.84213269505929e-34 -0.533472659407051 0.8458173098637605
  outer loop
    vertex 63.499999999999986 -2.54 13.924372663224144
    vertex -2.5399999999999863 0.0 15.526397756695179
    vertex -2.5399999999999907 -2.54 13.924372663224144
  endloop
endfacet
facet normal 2.84213269505929e-34 -0.533472659407051 0.8458173098637605
  outer loop
    vertex -2.5399999999999863 0.0 15.526397756695179
    vertex 63.499999999999986 -2.54 13.924372663224144
    vertex 5.639932965095795e-15 0.0 15.526397756695179
  endloop
endfacet
facet normal 2.84213269505929e-34 -0.533472659407051 0.8458173098637605
  outer loop
    vertex 5.639932965095795e-15 0.0 15.526397756695179
    vertex 63.499999999999986 -2.54 13.924372663224144
    vertex 60.95999999999998 0.0 15.526397756695179
  endloop
endfacet
facet normal 2.84213269505929e-34 -0.533472659407051 0.8458173098637605
  outer loop
    vertex 60.95999999999998 0.0 15.526397756695179
    vertex 63.499999999999986 -2.54 13.924372663224144
    vertex 63.499999999999986 0.0 15.526397756695179
  endloop
endfacet
facet normal 0.0 -0.5334726594070511 0.8458173098637605
  outer loop
    vertex 63.499999999999986 0.0 15.526397756695179
    vertex 60.95999999999998 60.95999999999998 53.974999999999994
    vertex 60.95999999999998 0.0 15.526397756695179
  endloop
endfacet
facet normal 0.0 -0.5334726594070511 0.8458173098637605
  outer loop
    vertex 60.95999999999998 60.95999999999998 53.974999999999994
    vertex 63.499999999999986 0.0 15.526397756695179
    vertex 63.499999999999986 60.95999999999998 53.974999999999994
  endloop
endfacet
facet normal 1.6599560322812106e-33 -4.217833591269999e-15 1.0
  outer loop
    vertex -2.539999999999992 60.95999999999998 53.974999999999994
    vertex 63.499999999999986 66.67499999999998 53.97500000000002
    vertex -2.54 66.67499999999998 53.97500000000002
  endloop
endfacet
facet normal 1.6599560322812106e-33 -4.217833591269999e-15 1.0
  outer loop
    vertex 63.499999999999986 66.67499999999998 53.97500000000002
    vertex -2.539999999999992 60.95999999999998 53.974999999999994
    vertex 0.0 60.95999999999998 53.974999999999994
  endloop
endfacet
facet normal 1.6599560322812106e-33 -4.217833591269999e-15 1.0
  outer loop
    vertex 63.499999999999986 66.67499999999998 53.97500000000002
    vertex 0.0 60.95999999999998 53.974999999999994
    vertex 60.95999999999998 60.95999999999998 53.974999999999994
  endloop
endfacet
facet normal 1.6599560322812106e-33 -4.217833591269999e-15 1.0
  outer loop
    vertex 63.499999999999986 66.67499999999998 53.97500000000002
    vertex 60.95999999999998 60.95999999999998 53.974999999999994
    vertex 63.499999999999986 60.95999999999998 53.974999999999994
  endloop
endfacet
facet normal 0.0 1.0 0.0
  outer loop
    vertex -2.54 66.67499999999998 53.97500000000002
    vertex 63.499999999999986 66.67499999999998 0.0
    vertex -2.54 66.67499999999998 0.0
  endloop
endfacet
facet normal 0.0 1.0 0.0
  outer loop
    vertex 63.499999999999986 66.67499999999998 0.0
    vertex -2.54 66.67499999999998 53.97500000000002
    vertex 29.20999999999999 66.67500000000003 39.075295474387524
  endloop
endfacet
facet normal 0.0 1.0 0.0
  outer loop
    vertex 63.499999999999986 66.67499999999998 0.0
    vertex 29.20999999999999 66.67500000000003 39.075295474387524
    vertex 29.82259962543959 66.67500000000003 38.82154840122576
  endloop
endfacet
facet normal 0.0 1.0 0.0
  outer loop
    vertex 63.499999999999986 66.67499999999998 0.0
    vertex 29.82259962543959 66.67500000000003 38.82154840122576
    vertex 30.47999999999999 66.67500000000003 38.73499999999999
  endloop
endfacet
facet normal 0.0 1.0 0.0
  outer loop
    vertex 29.20999999999999 66.67500000000003 39.075295474387524
    vertex -2.54 66.67499999999998 53.97500000000002
    vertex 28.68394877578616 66.67500000000003 39.478948775786165
  endloop
endfacet
facet normal 0.0 1.0 0.0
  outer loop
    vertex 28.68394877578616 66.67500000000003 39.478948775786165
    vertex -2.54 66.67499999999998 53.97500000000002
    vertex 28.28029547438752 66.67500000000003 40.004999999999995
  endloop
endfacet
facet normal 0.0 1.0 0.0
  outer loop
    vertex 28.28029547438752 66.67500000000003 40.004999999999995
    vertex -2.54 66.67499999999998 53.97500000000002
    vertex 28.026548401225757 66.67500000000003 40.617599625439595
  endloop
endfacet
facet normal 0.0 1.0 0.0
  outer loop
    vertex 28.026548401225757 66.67500000000003 40.617599625439595
    vertex -2.54 66.67499999999998 53.97500000000002
    vertex 27.93999999999999 66.67500000000003 41.275
  endloop
endfacet
facet normal 0.0 1.0 0.0
  outer loop
    vertex 27.93999999999999 66.67500000000003 41.275
    vertex -2.54 66.67499999999998 53.97500000000002
    vertex 28.026548401225757 66.67500000000003 41.9324003745604
  endloop
endfacet
facet normal 0.0 1.0 0.0
  outer loop
    vertex 28.026548401225757 66.67500000000003 41.9324003745604
    vertex -2.54 66.67499999999998 53.97500000000002
    vertex 28.28029547438751 66.67500000000003 42.545
  endloop
endfacet
facet normal 0.0 1.0 0.0
  outer loop
    vertex 28.28029547438751 66.67500000000003 42.545
    vertex -2.54 66.67499999999998 53.97500000000002
    vertex 28.68394877578616 66.67500000000003 43.07105122421383
  endloop
endfacet
facet normal 0.0 1.0 0.0
  outer loop
    vertex 28.68394877578616 66.67500000000003 43.07105122421383
    vertex -2.54 66.67499999999998 53.97500000000002
    vertex 29.20999999999999 66.67500000000003 43.474704525612474
  endloop
endfacet
facet normal 0.0 1.0 0.0
  outer loop
    vertex 29.20999999999999 66.67500000000003 43.474704525612474
    vertex -2.54 66.67499999999998 53.97500000000002
    vertex 29.82259962543959 66.67500000000003 43.728451598774235
  endloop
endfacet
facet normal 0.0 1.0 0.0
  outer loop
    vertex 29.82259962543959 66.67500000000003 43.728451598774235
    vertex -2.54 66.67499999999998 53.97500000000002
    vertex 30.47999999999999 66.67500000000003 43.815
  endloop
endfacet
facet normal 0.0 1.0 0.0
  outer loop
    vertex 63.499999999999986 66.67499999999998 0.0
    vertex 31.749999999999993 66.67500000000003 39.075295474387524
    vertex 63.499999999999986 66.67499999999998 53.97500000000002
  endloop
endfacet
facet normal 0.0 1.0 0.0
  outer loop
    vertex 31.749999999999993 66.67500000000003 39.075295474387524
    vertex 63.499999999999986 66.67499999999998 0.0
    vertex 31.137400374560393 66.67500000000003 38.82154840122576
  endloop
endfacet
facet normal 0.0 1.0 0.0
  outer loop
    vertex 31.137400374560393 66.67500000000003 38.82154840122576
    vertex 63.499999999999986 66.67499999999998 0.0
    vertex 30.47999999999999 66.67500000000003 38.73499999999999
  endloop
endfacet
facet normal 0.0 1.0 0.0
  outer loop
    vertex 63.499999999999986 66.67499999999998 53.97500000000002
    vertex 31.749999999999993 66.67500000000003 39.075295474387524
    vertex 32.27605122421382 66.67500000000003 39.478948775786165
  endloop
endfacet
facet normal 0.0 1.0 0.0
  outer loop
    vertex 63.499999999999986 66.67499999999998 53.97500000000002
    vertex 32.27605122421382 66.67500000000003 39.478948775786165
    vertex 32.679704525612465 66.67500000000003 40.004999999999995
  endloop
endfacet
facet normal 0.0 1.0 0.0
  outer loop
    vertex 63.499999999999986 66.67499999999998 53.97500000000002
    vertex 32.679704525612465 66.67500000000003 40.004999999999995
    vertex 32.93345159877423 66.67500000000003 40.617599625439595
  endloop
endfacet
facet normal 0.0 1.0 0.0
  outer loop
    vertex 63.499999999999986 66.67499999999998 53.97500000000002
    vertex 32.93345159877423 66.67500000000003 40.617599625439595
    vertex 33.019999999999996 66.67500000000003 41.275
  endloop
endfacet
facet normal 0.0 1.0 0.0
  outer loop
    vertex 63.499999999999986 66.67499999999998 53.97500000000002
    vertex 33.019999999999996 66.67500000000003 41.275
    vertex 32.93345159877423 66.67500000000003 41.9324003745604
  endloop
endfacet
facet normal 0.0 1.0 0.0
  outer loop
    vertex 63.499999999999986 66.67499999999998 53.97500000000002
    vertex 32.93345159877423 66.67500000000003 41.9324003745604
    vertex 32.679704525612465 66.67500000000003 42.545
  endloop
endfacet
facet normal 0.0 1.0 0.0
  outer loop
    vertex 63.499999999999986 66.67499999999998 53.97500000000002
    vertex 32.679704525612465 66.67500000000003 42.545
    vertex 32.27605122421382 66.67500000000003 43.07105122421383
  endloop
endfacet
facet normal 0.0 1.0 0.0
  outer loop
    vertex 63.499999999999986 66.67499999999998 53.97500000000002
    vertex 32.27605122421382 66.67500000000003 43.07105122421383
    vertex 31.749999999999993 66.67500000000003 43.474704525612474
  endloop
endfacet
facet normal 0.0 1.0 0.0
  outer loop
    vertex 63.499999999999986 66.67499999999998 53.97500000000002
    vertex 31.749999999999993 66.67500000000003 43.474704525612474
    vertex 31.137400374560393 66.67500000000003 43.728451598774235
  endloop
endfacet
facet normal 0.0 1.0 0.0
  outer loop
    vertex 63.499999999999986 66.67499999999998 53.97500000000002
    vertex 31.137400374560393 66.67500000000003 43.728451598774235
    vertex 30.47999999999999 66.67500000000003 43.815
  endloop
endfacet
facet normal 0.0 1.0 0.0
  outer loop
    vertex 63.499999999999986 66.67499999999998 53.97500000000002
    vertex 30.47999999999999 66.67500000000003 43.815
    vertex -2.54 66.67499999999998 53.97500000000002
  endloop
endfacet
facet normal 0.0 0.0 -1.0
  outer loop
    vertex 63.499999999999986 66.67499999999998 0.0
    vertex -2.54 63.499999999999986 0.0
    vertex -2.54 66.67499999999998 0.0
  endloop
endfacet
facet normal 0.0 0.0 -1.0
  outer loop
    vertex -2.54 63.499999999999986 0.0
    vertex 63.499999999999986 66.67499999999998 0.0
    vertex 63.499999999999986 63.499999999999986 0.0
  endloop
endfacet
facet normal -0.13052619222005193 -0.0 -0.9914448613738104
  outer loop
    vertex 31.137400374560393 66.67500000000003 43.728451598774235
    vertex 30.47999999999999 64.13499999999998 43.815
    vertex 30.47999999999999 66.67500000000003 43.815
  endloop
endfacet
facet normal -0.13052619222005193 -0.0 -0.9914448613738104
  outer loop
    vertex 30.47999999999999 64.13499999999998 43.815
    vertex 31.137400374560393 66.67500000000003 43.728451598774235
    vertex 31.137400374560393 64.13499999999998 43.728451598774235
  endloop
endfacet
facet normal 0.13052619222005193 0.0 -0.9914448613738104
  outer loop
    vertex 30.47999999999999 66.67500000000003 43.815
    vertex 29.82259962543959 64.13499999999998 43.728451598774235
    vertex 29.82259962543959 66.67500000000003 43.728451598774235
  endloop
endfacet
facet normal 0.13052619222005193 0.0 -0.9914448613738104
  outer loop
    vertex 29.82259962543959 64.13499999999998 43.728451598774235
    vertex 30.47999999999999 66.67500000000003 43.815
    vertex 30.47999999999999 64.13499999999998 43.815
  endloop
endfacet
facet normal 0.38268343236509267 0.0 -0.9238795325112855
  outer loop
    vertex 29.82259962543959 66.67500000000003 43.728451598774235
    vertex 29.20999999999999 64.13499999999998 43.474704525612474
    vertex 29.20999999999999 66.67500000000003 43.474704525612474
  endloop
endfacet
facet normal 0.38268343236509267 0.0 -0.9238795325112855
  outer loop
    vertex 29.20999999999999 64.13499999999998 43.474704525612474
    vertex 29.82259962543959 66.67500000000003 43.728451598774235
    vertex 29.82259962543959 64.13499999999998 43.728451598774235
  endloop
endfacet
facet normal 0.6087614290087173 0.0 -0.7933533402912377
  outer loop
    vertex 29.20999999999999 66.67500000000003 43.474704525612474
    vertex 28.68394877578616 64.13499999999998 43.07105122421383
    vertex 28.68394877578616 66.67500000000003 43.07105122421383
  endloop
endfacet
facet normal 0.6087614290087173 0.0 -0.7933533402912377
  outer loop
    vertex 28.68394877578616 64.13499999999998 43.07105122421383
    vertex 29.20999999999999 66.67500000000003 43.474704525612474
    vertex 29.20999999999999 64.13499999999998 43.474704525612474
  endloop
endfacet
facet normal 0.7933533402912337 0.0 -0.6087614290087228
  outer loop
    vertex 28.28029547438751 66.67500000000003 42.545
    vertex 28.68394877578616 64.13499999999998 43.07105122421383
    vertex 28.28029547438751 64.13499999999998 42.545
  endloop
endfacet
facet normal 0.7933533402912337 0.0 -0.6087614290087228
  outer loop
    vertex 28.68394877578616 64.13499999999998 43.07105122421383
    vertex 28.28029547438751 66.67500000000003 42.545
    vertex 28.68394877578616 66.67500000000003 43.07105122421383
  endloop
endfacet
facet normal 0.9238795325112886 0.0 -0.3826834323650854
  outer loop
    vertex 28.026548401225757 66.67500000000003 41.9324003745604
    vertex 28.28029547438751 64.13499999999998 42.545
    vertex 28.026548401225757 64.13499999999998 41.9324003745604
  endloop
endfacet
facet normal 0.9238795325112886 0.0 -0.3826834323650854
  outer loop
    vertex 28.28029547438751 64.13499999999998 42.545
    vertex 28.026548401225757 66.67500000000003 41.9324003745604
    vertex 28.28029547438751 66.67500000000003 42.545
  endloop
endfacet
facet normal 0.9914448613738104 0.0 -0.13052619222005193
  outer loop
    vertex 27.93999999999999 66.67500000000003 41.275
    vertex 28.026548401225757 64.13499999999998 41.9324003745604
    vertex 27.93999999999999 64.13499999999998 41.275
  endloop
endfacet
facet normal 0.9914448613738104 0.0 -0.13052619222005193
  outer loop
    vertex 28.026548401225757 64.13499999999998 41.9324003745604
    vertex 27.93999999999999 66.67500000000003 41.275
    vertex 28.026548401225757 66.67500000000003 41.9324003745604
  endloop
endfacet
facet normal 0.9914448613738104 0.0 0.13052619222005193
  outer loop
    vertex 28.026548401225757 66.67500000000003 40.617599625439595
    vertex 27.93999999999999 64.13499999999998 41.275
    vertex 28.026548401225757 64.13499999999998 40.617599625439595
  endloop
endfacet
facet normal 0.9914448613738104 0.0 0.13052619222005193
  outer loop
    vertex 27.93999999999999 64.13499999999998 41.275
    vertex 28.026548401225757 66.67500000000003 40.617599625439595
    vertex 27.93999999999999 66.67500000000003 41.275
  endloop
endfacet
facet normal 0.9238795325112855 0.0 0.38268343236509267
  outer loop
    vertex 28.28029547438752 66.67500000000003 40.004999999999995
    vertex 28.026548401225757 64.13499999999998 40.617599625439595
    vertex 28.28029547438752 64.13499999999998 40.004999999999995
  endloop
endfacet
facet normal 0.9238795325112855 0.0 0.38268343236509267
  outer loop
    vertex 28.026548401225757 64.13499999999998 40.617599625439595
    vertex 28.28029547438752 66.67500000000003 40.004999999999995
    vertex 28.026548401225757 66.67500000000003 40.617599625439595
  endloop
endfacet
facet normal 0.7933533402912377 0.0 0.6087614290087173
  outer loop
    vertex 28.68394877578616 66.67500000000003 39.478948775786165
    vertex 28.28029547438752 64.13499999999998 40.004999999999995
    vertex 28.68394877578616 64.13499999999998 39.478948775786165
  endloop
endfacet
facet normal 0.7933533402912377 0.0 0.6087614290087173
  outer loop
    vertex 28.28029547438752 64.13499999999998 40.004999999999995
    vertex 28.68394877578616 66.67500000000003 39.478948775786165
    vertex 28.28029547438752 66.67500000000003 40.004999999999995
  endloop
endfacet
facet normal 0.6087614290087173 0.0 0.7933533402912377
  outer loop
    vertex 29.20999999999999 64.13499999999998 39.075295474387524
    vertex 28.68394877578616 66.67500000000003 39.478948775786165
    vertex 28.68394877578616 64.13499999999998 39.478948775786165
  endloop
endfacet
facet normal 0.6087614290087173 0.0 0.7933533402912377
  outer loop
    vertex 28.68394877578616 66.67500000000003 39.478948775786165
    vertex 29.20999999999999 64.13499999999998 39.075295474387524
    vertex 29.20999999999999 66.67500000000003 39.075295474387524
  endloop
endfacet
facet normal 0.38268343236509267 0.0 0.9238795325112855
  outer loop
    vertex 29.82259962543959 64.13499999999998 38.82154840122576
    vertex 29.20999999999999 66.67500000000003 39.075295474387524
    vertex 29.20999999999999 64.13499999999998 39.075295474387524
  endloop
endfacet
facet normal 0.38268343236509267 0.0 0.9238795325112855
  outer loop
    vertex 29.20999999999999 66.67500000000003 39.075295474387524
    vertex 29.82259962543959 64.13499999999998 38.82154840122576
    vertex 29.82259962543959 66.67500000000003 38.82154840122576
  endloop
endfacet
facet normal 0.13052619222005193 0.0 0.9914448613738104
  outer loop
    vertex 30.47999999999999 64.13499999999998 38.73499999999999
    vertex 29.82259962543959 66.67500000000003 38.82154840122576
    vertex 29.82259962543959 64.13499999999998 38.82154840122576
  endloop
endfacet
facet normal 0.13052619222005193 0.0 0.9914448613738104
  outer loop
    vertex 29.82259962543959 66.67500000000003 38.82154840122576
    vertex 30.47999999999999 64.13499999999998 38.73499999999999
    vertex 30.47999999999999 66.67500000000003 38.73499999999999
  endloop
endfacet
facet normal -0.13052619222005193 0.0 0.9914448613738104
  outer loop
    vertex 31.137400374560393 64.13499999999998 38.82154840122576
    vertex 30.47999999999999 66.67500000000003 38.73499999999999
    vertex 30.47999999999999 64.13499999999998 38.73499999999999
  endloop
endfacet
facet normal -0.13052619222005193 0.0 0.9914448613738104
  outer loop
    vertex 30.47999999999999 66.67500000000003 38.73499999999999
    vertex 31.137400374560393 64.13499999999998 38.82154840122576
    vertex 31.137400374560393 66.67500000000003 38.82154840122576
  endloop
endfacet
facet normal -0.38268343236509267 0.0 0.9238795325112855
  outer loop
    vertex 31.749999999999993 64.13499999999998 39.075295474387524
    vertex 31.137400374560393 66.67500000000003 38.82154840122576
    vertex 31.137400374560393 64.13499999999998 38.82154840122576
  endloop
endfacet
facet normal -0.38268343236509267 0.0 0.9238795325112855
  outer loop
    vertex 31.137400374560393 66.67500000000003 38.82154840122576
    vertex 31.749999999999993 64.13499999999998 39.075295474387524
    vertex 31.749999999999993 66.67500000000003 39.075295474387524
  endloop
endfacet
facet normal -0.6087614290087173 0.0 0.7933533402912377
  outer loop
    vertex 32.27605122421382 64.13499999999998 39.478948775786165
    vertex 31.749999999999993 66.67500000000003 39.075295474387524
    vertex 31.749999999999993 64.13499999999998 39.075295474387524
  endloop
endfacet
facet normal -0.6087614290087173 0.0 0.7933533402912377
  outer loop
    vertex 31.749999999999993 66.67500000000003 39.075295474387524
    vertex 32.27605122421382 64.13499999999998 39.478948775786165
    vertex 32.27605122421382 66.67500000000003 39.478948775786165
  endloop
endfacet
facet normal -0.7933533402912377 0.0 0.6087614290087173
  outer loop
    vertex 32.679704525612465 66.67500000000003 40.004999999999995
    vertex 32.27605122421382 64.13499999999998 39.478948775786165
    vertex 32.679704525612465 64.13499999999998 40.004999999999995
  endloop
endfacet
facet normal -0.7933533402912377 0.0 0.6087614290087173
  outer loop
    vertex 32.27605122421382 64.13499999999998 39.478948775786165
    vertex 32.679704525612465 66.67500000000003 40.004999999999995
    vertex 32.27605122421382 66.67500000000003 39.478948775786165
  endloop
endfacet
facet normal -0.9238795325112855 0.0 0.38268343236509267
  outer loop
    vertex 32.93345159877423 66.67500000000003 40.617599625439595
    vertex 32.679704525612465 64.13499999999998 40.004999999999995
    vertex 32.93345159877423 64.13499999999998 40.617599625439595
  endloop
endfacet
facet normal -0.9238795325112855 0.0 0.38268343236509267
  outer loop
    vertex 32.679704525612465 64.13499999999998 40.004999999999995
    vertex 32.93345159877423 66.67500000000003 40.617599625439595
    vertex 32.679704525612465 66.67500000000003 40.004999999999995
  endloop
endfacet
facet normal -0.9914448613738104 0.0 0.13052619222005193
  outer loop
    vertex 33.019999999999996 66.67500000000003 41.275
    vertex 32.93345159877423 64.13499999999998 40.617599625439595
    vertex 33.019999999999996 64.13499999999998 41.275
  endloop
endfacet
facet normal -0.9914448613738104 0.0 0.13052619222005193
  outer loop
    vertex 32.93345159877423 64.13499999999998 40.617599625439595
    vertex 33.019999999999996 66.67500000000003 41.275
    vertex 32.93345159877423 66.67500000000003 40.617599625439595
  endloop
endfacet
facet normal -0.9914448613738104 -0.0 -0.13052619222005193
  outer loop
    vertex 32.93345159877423 66.67500000000003 41.9324003745604
    vertex 33.019999999999996 64.13499999999998 41.275
    vertex 32.93345159877423 64.13499999999998 41.9324003745604
  endloop
endfacet
facet normal -0.9914448613738104 -0.0 -0.13052619222005193
  outer loop
    vertex 33.019999999999996 64.13499999999998 41.275
    vertex 32.93345159877423 66.67500000000003 41.9324003745604
    vertex 33.019999999999996 66.67500000000003 41.275
  endloop
endfacet
facet normal -0.9238795325112855 -0.0 -0.38268343236509267
  outer loop
    vertex 32.679704525612465 66.67500000000003 42.545
    vertex 32.93345159877423 64.13499999999998 41.9324003745604
    vertex 32.679704525612465 64.13499999999998 42.545
  endloop
endfacet
facet normal -0.9238795325112855 -0.0 -0.38268343236509267
  outer loop
    vertex 32.93345159877423 64.13499999999998 41.9324003745604
    vertex 32.679704525612465 66.67500000000003 42.545
    vertex 32.93345159877423 66.67500000000003 41.9324003745604
  endloop
endfacet
facet normal -0.7933533402912377 -0.0 -0.6087614290087173
  outer loop
    vertex 32.27605122421382 66.67500000000003 43.07105122421383
    vertex 32.679704525612465 64.13499999999998 42.545
    vertex 32.27605122421382 64.13499999999998 43.07105122421383
  endloop
endfacet
facet normal -0.7933533402912377 -0.0 -0.6087614290087173
  outer loop
    vertex 32.679704525612465 64.13499999999998 42.545
    vertex 32.27605122421382 66.67500000000003 43.07105122421383
    vertex 32.679704525612465 66.67500000000003 42.545
  endloop
endfacet
facet normal -0.6087614290087228 -0.0 -0.7933533402912337
  outer loop
    vertex 32.27605122421382 66.67500000000003 43.07105122421383
    vertex 31.749999999999993 64.13499999999998 43.474704525612474
    vertex 31.749999999999993 66.67500000000003 43.474704525612474
  endloop
endfacet
facet normal -0.6087614290087228 -0.0 -0.7933533402912337
  outer loop
    vertex 31.749999999999993 64.13499999999998 43.474704525612474
    vertex 32.27605122421382 66.67500000000003 43.07105122421383
    vertex 32.27605122421382 64.13499999999998 43.07105122421383
  endloop
endfacet
facet normal -0.3826834323650854 -0.0 -0.9238795325112886
  outer loop
    vertex 31.749999999999993 66.67500000000003 43.474704525612474
    vertex 31.137400374560393 64.13499999999998 43.728451598774235
    vertex 31.137400374560393 66.67500000000003 43.728451598774235
  endloop
endfacet
facet normal -0.3826834323650854 -0.0 -0.9238795325112886
  outer loop
    vertex 31.137400374560393 64.13499999999998 43.728451598774235
    vertex 31.749999999999993 66.67500000000003 43.474704525612474
    vertex 31.749999999999993 64.13499999999998 43.474704525612474
  endloop
endfacet
facet normal 5.5164863826513535e-17 -1.0 3.9217260554000033e-16
  outer loop
    vertex 60.95999999999998 60.95999999999997 3.175
    vertex 33.654999999999994 60.95999999999994 0.0
    vertex 60.95999999999998 60.95999999999998 0.0
  endloop
endfacet
facet normal 5.5164863826513535e-17 -1.0 3.9217260554000033e-16
  outer loop
    vertex 33.654999999999994 60.95999999999994 0.0
    vertex 60.95999999999998 60.95999999999997 3.175
    vertex 33.654999999999994 60.95999999999994 3.175
  endloop
endfacet
facet normal 5.5164863826513535e-17 -1.0 3.9217260554000033e-16
  outer loop
    vertex 33.654999999999994 60.95999999999994 3.175
    vertex 60.95999999999998 60.95999999999997 3.175
    vertex 60.95999999999998 60.95999999999998 53.974999999999994
  endloop
endfacet
facet normal 5.5164863826513535e-17 -1.0 3.9217260554000033e-16
  outer loop
    vertex 33.654999999999994 60.95999999999994 3.175
    vertex 60.95999999999998 60.95999999999998 53.974999999999994
    vertex 27.304999999999993 60.95999999999994 3.175
  endloop
endfacet
facet normal 5.5164863826513535e-17 -1.0 3.9217260554000033e-16
  outer loop
    vertex 27.304999999999993 60.95999999999994 3.175
    vertex 60.95999999999998 60.95999999999998 53.974999999999994
    vertex 34.28999999999999 60.95999999999998 34.67588642316258
  endloop
endfacet
facet normal 5.5164863826513535e-17 -1.0 3.9217260554000033e-16
  outer loop
    vertex 27.304999999999993 60.95999999999994 3.175
    vertex 34.28999999999999 60.95999999999998 34.67588642316258
    vertex 32.4522011236812 60.95999999999998 33.914645203677296
  endloop
endfacet
facet normal 5.5164863826513535e-17 -1.0 3.9217260554000033e-16
  outer loop
    vertex 27.304999999999993 60.95999999999994 3.175
    vertex 32.4522011236812 60.95999999999998 33.914645203677296
    vertex 30.47999999999999 60.95999999999998 33.654999999999994
  endloop
endfacet
facet normal 5.5164863826513535e-17 -1.0 3.9217260554000033e-16
  outer loop
    vertex 34.28999999999999 60.95999999999998 34.67588642316258
    vertex 60.95999999999998 60.95999999999998 53.974999999999994
    vertex 35.86815367264148 60.95999999999998 35.886846327358505
  endloop
endfacet
facet normal 5.5164863826513535e-17 -1.0 3.9217260554000033e-16
  outer loop
    vertex 35.86815367264148 60.95999999999998 35.886846327358505
    vertex 60.95999999999998 60.95999999999998 53.974999999999994
    vertex 37.079113576837415 60.95999999999998 37.465
  endloop
endfacet
facet normal 5.5164863826513535e-17 -1.0 3.9217260554000033e-16
  outer loop
    vertex 37.079113576837415 60.95999999999998 37.465
    vertex 60.95999999999998 60.95999999999998 53.974999999999994
    vertex 37.84035479632269 60.95999999999998 39.30279887631879
  endloop
endfacet
facet normal 5.5164863826513535e-17 -1.0 3.9217260554000033e-16
  outer loop
    vertex 37.84035479632269 60.95999999999998 39.30279887631879
    vertex 60.95999999999998 60.95999999999998 53.974999999999994
    vertex 38.099999999999994 60.95999999999998 41.275
  endloop
endfacet
facet normal 5.5164863826513535e-17 -1.0 3.9217260554000033e-16
  outer loop
    vertex 38.099999999999994 60.95999999999998 41.275
    vertex 60.95999999999998 60.95999999999998 53.974999999999994
    vertex 37.84035479632269 60.95999999999998 43.24720112368121
  endloop
endfacet
facet normal 5.5164863826513535e-17 -1.0 3.9217260554000033e-16
  outer loop
    vertex 37.84035479632269 60.95999999999998 43.24720112368121
    vertex 60.95999999999998 60.95999999999998 53.974999999999994
    vertex 37.079113576837415 60.95999999999998 45.085
  endloop
endfacet
facet normal 5.5164863826513535e-17 -1.0 3.9217260554000033e-16
  outer loop
    vertex 37.079113576837415 60.95999999999998 45.085
    vertex 60.95999999999998 60.95999999999998 53.974999999999994
    vertex 35.86815367264148 60.95999999999998 46.66315367264149
  endloop
endfacet
facet normal 5.5164863826513535e-17 -1.0 3.9217260554000033e-16
  outer loop
    vertex 35.86815367264148 60.95999999999998 46.66315367264149
    vertex 60.95999999999998 60.95999999999998 53.974999999999994
    vertex 34.28999999999999 60.95999999999998 47.87411357683742
  endloop
endfacet
facet normal 5.5164863826513535e-17 -1.0 3.9217260554000033e-16
  outer loop
    vertex 34.28999999999999 60.95999999999998 47.87411357683742
    vertex 60.95999999999998 60.95999999999998 53.974999999999994
    vertex 32.45220112368119 60.95999999999998 48.6353547963227
  endloop
endfacet
facet normal 5.5164863826513535e-17 -1.0 3.9217260554000033e-16
  outer loop
    vertex 32.45220112368119 60.95999999999998 48.6353547963227
    vertex 60.95999999999998 60.95999999999998 53.974999999999994
    vertex 30.47999999999999 60.95999999999998 48.894999999999996
  endloop
endfacet
facet normal 5.5164863826513535e-17 -1.0 3.9217260554000033e-16
  outer loop
    vertex 27.304999999999993 60.95999999999994 3.175
    vertex 0.0 60.95999999999998 0.0
    vertex 27.304999999999993 60.95999999999994 0.0
  endloop
endfacet
facet normal 5.5164863826513535e-17 -1.0 3.9217260554000033e-16
  outer loop
    vertex 0.0 60.95999999999998 0.0
    vertex 27.304999999999993 60.95999999999994 3.175
    vertex 0.0 60.95999999999998 53.974999999999994
  endloop
endfacet
facet normal 5.5164863826513535e-17 -1.0 3.9217260554000033e-16
  outer loop
    vertex 0.0 60.95999999999998 53.974999999999994
    vertex 27.304999999999993 60.95999999999994 3.175
    vertex 26.669999999999995 60.95999999999998 34.67588642316258
  endloop
endfacet
facet normal 5.5164863826513535e-17 -1.0 3.9217260554000033e-16
  outer loop
    vertex 26.669999999999995 60.95999999999998 34.67588642316258
    vertex 27.304999999999993 60.95999999999994 3.175
    vertex 28.507798876318784 60.95999999999998 33.914645203677296
  endloop
endfacet
facet normal 5.5164863826513535e-17 -1.0 3.9217260554000033e-16
  outer loop
    vertex 28.507798876318784 60.95999999999998 33.914645203677296
    vertex 27.304999999999993 60.95999999999994 3.175
    vertex 30.47999999999999 60.95999999999998 33.654999999999994
  endloop
endfacet
facet normal 5.5164863826513535e-17 -1.0 3.9217260554000033e-16
  outer loop
    vertex 0.0 60.95999999999998 53.974999999999994
    vertex 26.669999999999995 60.95999999999998 34.67588642316258
    vertex 25.091846327358503 60.95999999999998 35.886846327358505
  endloop
endfacet
facet normal 5.5164863826513535e-17 -1.0 3.9217260554000033e-16
  outer loop
    vertex 0.0 60.95999999999998 53.974999999999994
    vertex 25.091846327358503 60.95999999999998 35.886846327358505
    vertex 23.880886423162575 60.95999999999998 37.464999999999996
  endloop
endfacet
facet normal 5.5164863826513535e-17 -1.0 3.9217260554000033e-16
  outer loop
    vertex 0.0 60.95999999999998 53.974999999999994
    vertex 23.880886423162575 60.95999999999998 37.464999999999996
    vertex 23.119645203677294 60.95999999999998 39.30279887631879
  endloop
endfacet
facet normal 5.5164863826513535e-17 -1.0 3.9217260554000033e-16
  outer loop
    vertex 0.0 60.95999999999998 53.974999999999994
    vertex 23.119645203677294 60.95999999999998 39.30279887631879
    vertex 22.859999999999992 60.95999999999998 41.275
  endloop
endfacet
facet normal 5.5164863826513535e-17 -1.0 3.9217260554000033e-16
  outer loop
    vertex 0.0 60.95999999999998 53.974999999999994
    vertex 22.859999999999992 60.95999999999998 41.275
    vertex 23.119645203677294 60.95999999999998 43.24720112368121
  endloop
endfacet
facet normal 5.5164863826513535e-17 -1.0 3.9217260554000033e-16
  outer loop
    vertex 0.0 60.95999999999998 53.974999999999994
    vertex 23.119645203677294 60.95999999999998 43.24720112368121
    vertex 23.88088642316257 60.95999999999998 45.084999999999994
  endloop
endfacet
facet normal 5.5164863826513535e-17 -1.0 3.9217260554000033e-16
  outer loop
    vertex 0.0 60.95999999999998 53.974999999999994
    vertex 23.88088642316257 60.95999999999998 45.084999999999994
    vertex 25.091846327358496 60.95999999999998 46.66315367264149
  endloop
endfacet
facet normal 5.5164863826513535e-17 -1.0 3.9217260554000033e-16
  outer loop
    vertex 0.0 60.95999999999998 53.974999999999994
    vertex 25.091846327358496 60.95999999999998 46.66315367264149
    vertex 26.669999999999987 60.95999999999998 47.874113576837416
  endloop
endfacet
facet normal 5.5164863826513535e-17 -1.0 3.9217260554000033e-16
  outer loop
    vertex 0.0 60.95999999999998 53.974999999999994
    vertex 26.669999999999987 60.95999999999998 47.874113576837416
    vertex 28.507798876318777 60.95999999999998 48.6353547963227
  endloop
endfacet
facet normal 5.5164863826513535e-17 -1.0 3.9217260554000033e-16
  outer loop
    vertex 0.0 60.95999999999998 53.974999999999994
    vertex 28.507798876318777 60.95999999999998 48.6353547963227
    vertex 30.47999999999999 60.95999999999998 48.894999999999996
  endloop
endfacet
facet normal 5.5164863826513535e-17 -1.0 3.9217260554000033e-16
  outer loop
    vertex 0.0 60.95999999999998 53.974999999999994
    vertex 30.47999999999999 60.95999999999998 48.894999999999996
    vertex 60.95999999999998 60.95999999999998 53.974999999999994
  endloop
endfacet
facet normal 0.0 -1.0 0.0
  outer loop
    vertex 37.84035479632269 64.13499999999998 39.30279887631879
    vertex 30.47999999999999 64.13499999999998 38.73499999999999
    vertex 37.079113576837415 64.13499999999998 37.465
  endloop
endfacet
facet normal 0.0 -1.0 0.0
  outer loop
    vertex 30.47999999999999 64.13499999999998 38.73499999999999
    vertex 37.84035479632269 64.13499999999998 39.30279887631879
    vertex 31.137400374560393 64.13499999999998 38.82154840122576
  endloop
endfacet
facet normal 0.0 -1.0 0.0
  outer loop
    vertex 31.137400374560393 64.13499999999998 38.82154840122576
    vertex 37.84035479632269 64.13499999999998 39.30279887631879
    vertex 31.749999999999993 64.13499999999998 39.075295474387524
  endloop
endfacet
facet normal 0.0 -1.0 0.0
  outer loop
    vertex 31.749999999999993 64.13499999999998 39.075295474387524
    vertex 37.84035479632269 64.13499999999998 39.30279887631879
    vertex 32.27605122421382 64.13499999999998 39.478948775786165
  endloop
endfacet
facet normal 0.0 -1.0 0.0
  outer loop
    vertex 32.27605122421382 64.13499999999998 39.478948775786165
    vertex 37.84035479632269 64.13499999999998 39.30279887631879
    vertex 38.099999999999994 64.13499999999998 41.275
  endloop
endfacet
facet normal 0.0 -1.0 0.0
  outer loop
    vertex 32.27605122421382 64.13499999999998 39.478948775786165
    vertex 38.099999999999994 64.13499999999998 41.275
    vertex 32.679704525612465 64.13499999999998 40.004999999999995
  endloop
endfacet
facet normal 0.0 -1.0 0.0
  outer loop
    vertex 32.679704525612465 64.13499999999998 40.004999999999995
    vertex 38.099999999999994 64.13499999999998 41.275
    vertex 32.93345159877423 64.13499999999998 40.617599625439595
  endloop
endfacet
facet normal 0.0 -1.0 0.0
  outer loop
    vertex 32.93345159877423 64.13499999999998 40.617599625439595
    vertex 38.099999999999994 64.13499999999998 41.275
    vertex 33.019999999999996 64.13499999999998 41.275
  endloop
endfacet
facet normal 0.0 -1.0 0.0
  outer loop
    vertex 33.019999999999996 64.13499999999998 41.275
    vertex 38.099999999999994 64.13499999999998 41.275
    vertex 37.84035479632269 64.13499999999998 43.24720112368121
  endloop
endfacet
facet normal 0.0 -1.0 0.0
  outer loop
    vertex 33.019999999999996 64.13499999999998 41.275
    vertex 37.84035479632269 64.13499999999998 43.24720112368121
    vertex 32.93345159877423 64.13499999999998 41.9324003745604
  endloop
endfacet
facet normal 0.0 -1.0 0.0
  outer loop
    vertex 32.93345159877423 64.13499999999998 41.9324003745604
    vertex 37.84035479632269 64.13499999999998 43.24720112368121
    vertex 32.679704525612465 64.13499999999998 42.545
  endloop
endfacet
facet normal 0.0 -1.0 0.0
  outer loop
    vertex 32.679704525612465 64.13499999999998 42.545
    vertex 37.84035479632269 64.13499999999998 43.24720112368121
    vertex 32.27605122421382 64.13499999999998 43.07105122421383
  endloop
endfacet
facet normal 0.0 -1.0 0.0
  outer loop
    vertex 32.27605122421382 64.13499999999998 43.07105122421383
    vertex 37.84035479632269 64.13499999999998 43.24720112368121
    vertex 31.749999999999993 64.13499999999998 43.474704525612474
  endloop
endfacet
facet normal 0.0 -1.0 0.0
  outer loop
    vertex 31.749999999999993 64.13499999999998 43.474704525612474
    vertex 37.84035479632269 64.13499999999998 43.24720112368121
    vertex 37.079113576837415 64.13499999999998 45.085
  endloop
endfacet
facet normal 0.0 -1.0 0.0
  outer loop
    vertex 31.749999999999993 64.13499999999998 43.474704525612474
    vertex 37.079113576837415 64.13499999999998 45.085
    vertex 31.137400374560393 64.13499999999998 43.728451598774235
  endloop
endfacet
facet normal 0.0 -1.0 0.0
  outer loop
    vertex 31.137400374560393 64.13499999999998 43.728451598774235
    vertex 37.079113576837415 64.13499999999998 45.085
    vertex 30.47999999999999 64.13499999999998 43.815
  endloop
endfacet
facet normal 0.0 -1.0 0.0
  outer loop
    vertex 30.47999999999999 64.13499999999998 43.815
    vertex 37.079113576837415 64.13499999999998 45.085
    vertex 23.88088642316257 64.13499999999998 45.084999999999994
  endloop
endfacet
facet normal 0.0 -1.0 0.0
  outer loop
    vertex 23.88088642316257 64.13499999999998 45.084999999999994
    vertex 37.079113576837415 64.13499999999998 45.085
    vertex 25.091846327358496 64.13499999999998 46.66315367264149
  endloop
endfacet
facet normal 0.0 -1.0 0.0
  outer loop
    vertex 25.091846327358496 64.13499999999998 46.66315367264149
    vertex 37.079113576837415 64.13499999999998 45.085
    vertex 35.86815367264148 64.13499999999998 46.66315367264149
  endloop
endfacet
facet normal 0.0 -1.0 0.0
  outer loop
    vertex 25.091846327358496 64.13499999999998 46.66315367264149
    vertex 35.86815367264148 64.13499999999998 46.66315367264149
    vertex 34.28999999999999 64.13499999999998 47.87411357683742
  endloop
endfacet
facet normal 0.0 -1.0 0.0
  outer loop
    vertex 25.091846327358496 64.13499999999998 46.66315367264149
    vertex 34.28999999999999 64.13499999999998 47.87411357683742
    vertex 26.669999999999987 64.13499999999998 47.874113576837416
  endloop
endfacet
facet normal 0.0 -1.0 0.0
  outer loop
    vertex 26.669999999999987 64.13499999999998 47.874113576837416
    vertex 34.28999999999999 64.13499999999998 47.87411357683742
    vertex 28.507798876318777 64.13499999999998 48.6353547963227
  endloop
endfacet
facet normal 0.0 -1.0 0.0
  outer loop
    vertex 28.507798876318777 64.13499999999998 48.6353547963227
    vertex 34.28999999999999 64.13499999999998 47.87411357683742
    vertex 32.45220112368119 64.13499999999998 48.6353547963227
  endloop
endfacet
facet normal 0.0 -1.0 0.0
  outer loop
    vertex 28.507798876318777 64.13499999999998 48.6353547963227
    vertex 32.45220112368119 64.13499999999998 48.6353547963227
    vertex 30.47999999999999 64.13499999999998 48.894999999999996
  endloop
endfacet
facet normal 0.0 -1.0 0.0
  outer loop
    vertex 32.4522011236812 64.13499999999998 33.914645203677296
    vertex 28.507798876318784 64.13499999999998 33.914645203677296
    vertex 30.47999999999999 64.13499999999998 33.654999999999994
  endloop
endfacet
facet normal 0.0 -1.0 0.0
  outer loop
    vertex 28.507798876318784 64.13499999999998 33.914645203677296
    vertex 32.4522011236812 64.13499999999998 33.914645203677296
    vertex 34.28999999999999 64.13499999999998 34.67588642316258
  endloop
endfacet
facet normal 0.0 -1.0 0.0
  outer loop
    vertex 28.507798876318784 64.13499999999998 33.914645203677296
    vertex 34.28999999999999 64.13499999999998 34.67588642316258
    vertex 26.669999999999995 64.13499999999998 34.67588642316258
  endloop
endfacet
facet normal 0.0 -1.0 0.0
  outer loop
    vertex 26.669999999999995 64.13499999999998 34.67588642316258
    vertex 34.28999999999999 64.13499999999998 34.67588642316258
    vertex 35.86815367264148 64.13499999999998 35.886846327358505
  endloop
endfacet
facet normal 0.0 -1.0 0.0
  outer loop
    vertex 26.669999999999995 64.13499999999998 34.67588642316258
    vertex 35.86815367264148 64.13499999999998 35.886846327358505
    vertex 25.091846327358503 64.13499999999998 35.886846327358505
  endloop
endfacet
facet normal 0.0 -1.0 0.0
  outer loop
    vertex 25.091846327358503 64.13499999999998 35.886846327358505
    vertex 35.86815367264148 64.13499999999998 35.886846327358505
    vertex 37.079113576837415 64.13499999999998 37.465
  endloop
endfacet
facet normal 0.0 -1.0 0.0
  outer loop
    vertex 25.091846327358503 64.13499999999998 35.886846327358505
    vertex 37.079113576837415 64.13499999999998 37.465
    vertex 23.880886423162575 64.13499999999998 37.464999999999996
  endloop
endfacet
facet normal 0.0 -1.0 0.0
  outer loop
    vertex 23.880886423162575 64.13499999999998 37.464999999999996
    vertex 37.079113576837415 64.13499999999998 37.465
    vertex 23.119645203677294 64.13499999999998 39.30279887631879
  endloop
endfacet
facet normal 0.0 -1.0 0.0
  outer loop
    vertex 23.119645203677294 64.13499999999998 39.30279887631879
    vertex 37.079113576837415 64.13499999999998 37.465
    vertex 30.47999999999999 64.13499999999998 38.73499999999999
  endloop
endfacet
facet normal 0.0 -1.0 0.0
  outer loop
    vertex 23.119645203677294 64.13499999999998 39.30279887631879
    vertex 30.47999999999999 64.13499999999998 38.73499999999999
    vertex 29.82259962543959 64.13499999999998 38.82154840122576
  endloop
endfacet
facet normal 0.0 -1.0 0.0
  outer loop
    vertex 23.119645203677294 64.13499999999998 39.30279887631879
    vertex 29.82259962543959 64.13499999999998 38.82154840122576
    vertex 29.20999999999999 64.13499999999998 39.075295474387524
  endloop
endfacet
facet normal 0.0 -1.0 0.0
  outer loop
    vertex 23.119645203677294 64.13499999999998 39.30279887631879
    vertex 29.20999999999999 64.13499999999998 39.075295474387524
    vertex 28.68394877578616 64.13499999999998 39.478948775786165
  endloop
endfacet
facet normal 0.0 -1.0 0.0
  outer loop
    vertex 23.119645203677294 64.13499999999998 39.30279887631879
    vertex 28.68394877578616 64.13499999999998 39.478948775786165
    vertex 22.859999999999992 64.13499999999998 41.275
  endloop
endfacet
facet normal 0.0 -1.0 0.0
  outer loop
    vertex 22.859999999999992 64.13499999999998 41.275
    vertex 28.68394877578616 64.13499999999998 39.478948775786165
    vertex 28.28029547438752 64.13499999999998 40.004999999999995
  endloop
endfacet
facet normal 0.0 -1.0 0.0
  outer loop
    vertex 22.859999999999992 64.13499999999998 41.275
    vertex 28.28029547438752 64.13499999999998 40.004999999999995
    vertex 28.026548401225757 64.13499999999998 40.617599625439595
  endloop
endfacet
facet normal 0.0 -1.0 0.0
  outer loop
    vertex 22.859999999999992 64.13499999999998 41.275
    vertex 28.026548401225757 64.13499999999998 40.617599625439595
    vertex 27.93999999999999 64.13499999999998 41.275
  endloop
endfacet
facet normal 0.0 -1.0 0.0
  outer loop
    vertex 22.859999999999992 64.13499999999998 41.275
    vertex 27.93999999999999 64.13499999999998 41.275
    vertex 28.026548401225757 64.13499999999998 41.9324003745604
  endloop
endfacet
facet normal 0.0 -1.0 0.0
  outer loop
    vertex 22.859999999999992 64.13499999999998 41.275
    vertex 28.026548401225757 64.13499999999998 41.9324003745604
    vertex 23.119645203677294 64.13499999999998 43.24720112368121
  endloop
endfacet
facet normal 0.0 -1.0 0.0
  outer loop
    vertex 23.119645203677294 64.13499999999998 43.24720112368121
    vertex 28.026548401225757 64.13499999999998 41.9324003745604
    vertex 28.28029547438751 64.13499999999998 42.545
  endloop
endfacet
facet normal 0.0 -1.0 0.0
  outer loop
    vertex 23.119645203677294 64.13499999999998 43.24720112368121
    vertex 28.28029547438751 64.13499999999998 42.545
    vertex 28.68394877578616 64.13499999999998 43.07105122421383
  endloop
endfacet
facet normal 0.0 -1.0 0.0
  outer loop
    vertex 23.119645203677294 64.13499999999998 43.24720112368121
    vertex 28.68394877578616 64.13499999999998 43.07105122421383
    vertex 29.20999999999999 64.13499999999998 43.474704525612474
  endloop
endfacet
facet normal 0.0 -1.0 0.0
  outer loop
    vertex 23.119645203677294 64.13499999999998 43.24720112368121
    vertex 29.20999999999999 64.13499999999998 43.474704525612474
    vertex 23.88088642316257 64.13499999999998 45.084999999999994
  endloop
endfacet
facet normal 0.0 -1.0 0.0
  outer loop
    vertex 23.88088642316257 64.13499999999998 45.084999999999994
    vertex 29.20999999999999 64.13499999999998 43.474704525612474
    vertex 29.82259962543959 64.13499999999998 43.728451598774235
  endloop
endfacet
facet normal 0.0 -1.0 0.0
  outer loop
    vertex 23.88088642316257 64.13499999999998 45.084999999999994
    vertex 29.82259962543959 64.13499999999998 43.728451598774235
    vertex 30.47999999999999 64.13499999999998 43.815
  endloop
endfacet
facet normal 0.13052619222005155 0.0 -0.9914448613738104
  outer loop
    vertex 30.47999999999999 64.13499999999998 48.894999999999996
    vertex 28.507798876318777 60.95999999999998 48.6353547963227
    vertex 28.507798876318777 64.13499999999998 48.6353547963227
  endloop
endfacet
facet normal 0.13052619222005155 0.0 -0.9914448613738104
  outer loop
    vertex 28.507798876318777 60.95999999999998 48.6353547963227
    vertex 30.47999999999999 64.13499999999998 48.894999999999996
    vertex 30.47999999999999 60.95999999999998 48.894999999999996
  endloop
endfacet
facet normal 0.3826834323650913 0.0 -0.9238795325112862
  outer loop
    vertex 28.507798876318777 64.13499999999998 48.6353547963227
    vertex 26.669999999999987 60.95999999999998 47.874113576837416
    vertex 26.669999999999987 64.13499999999998 47.874113576837416
  endloop
endfacet
facet normal 0.3826834323650913 0.0 -0.9238795325112862
  outer loop
    vertex 26.669999999999987 60.95999999999998 47.874113576837416
    vertex 28.507798876318777 64.13499999999998 48.6353547963227
    vertex 28.507798876318777 60.95999999999998 48.6353547963227
  endloop
endfacet
facet normal 0.6087614290087198 0.0 -0.7933533402912359
  outer loop
    vertex 26.669999999999987 64.13499999999998 47.874113576837416
    vertex 25.091846327358496 60.95999999999998 46.66315367264149
    vertex 25.091846327358496 64.13499999999998 46.66315367264149
  endloop
endfacet
facet normal 0.6087614290087198 0.0 -0.7933533402912359
  outer loop
    vertex 25.091846327358496 60.95999999999998 46.66315367264149
    vertex 26.669999999999987 64.13499999999998 47.874113576837416
    vertex 26.669999999999987 60.95999999999998 47.874113576837416
  endloop
endfacet
facet normal 0.7933533402912364 0.0 -0.6087614290087191
  outer loop
    vertex 23.88088642316257 64.13499999999998 45.084999999999994
    vertex 25.091846327358496 60.95999999999998 46.66315367264149
    vertex 23.88088642316257 60.95999999999998 45.084999999999994
  endloop
endfacet
facet normal 0.7933533402912364 0.0 -0.6087614290087191
  outer loop
    vertex 25.091846327358496 60.95999999999998 46.66315367264149
    vertex 23.88088642316257 64.13499999999998 45.084999999999994
    vertex 25.091846327358496 64.13499999999998 46.66315367264149
  endloop
endfacet
facet normal 0.9238795325112873 0.0 -0.38268343236508884
  outer loop
    vertex 23.119645203677294 64.13499999999998 43.24720112368121
    vertex 23.88088642316257 60.95999999999998 45.084999999999994
    vertex 23.119645203677294 60.95999999999998 43.24720112368121
  endloop
endfacet
facet normal 0.9238795325112873 0.0 -0.38268343236508884
  outer loop
    vertex 23.88088642316257 60.95999999999998 45.084999999999994
    vertex 23.119645203677294 64.13499999999998 43.24720112368121
    vertex 23.88088642316257 64.13499999999998 45.084999999999994
  endloop
endfacet
facet normal 0.9914448613738102 0.0 -0.13052619222005332
  outer loop
    vertex 22.859999999999992 64.13499999999998 41.275
    vertex 23.119645203677294 60.95999999999998 43.24720112368121
    vertex 22.859999999999992 60.95999999999998 41.275
  endloop
endfacet
facet normal 0.9914448613738102 0.0 -0.13052619222005332
  outer loop
    vertex 23.119645203677294 60.95999999999998 43.24720112368121
    vertex 22.859999999999992 64.13499999999998 41.275
    vertex 23.119645203677294 64.13499999999998 43.24720112368121
  endloop
endfacet
facet normal 0.9914448613738102 0.0 0.13052619222005332
  outer loop
    vertex 23.119645203677294 64.13499999999998 39.30279887631879
    vertex 22.859999999999992 60.95999999999998 41.275
    vertex 23.119645203677294 60.95999999999998 39.30279887631879
  endloop
endfacet
facet normal 0.9914448613738102 0.0 0.13052619222005332
  outer loop
    vertex 22.859999999999992 60.95999999999998 41.275
    vertex 23.119645203677294 64.13499999999998 39.30279887631879
    vertex 22.859999999999992 64.13499999999998 41.275
  endloop
endfacet
facet normal 0.9238795325112866 0.0 0.3826834323650903
  outer loop
    vertex 23.880886423162575 64.13499999999998 37.464999999999996
    vertex 23.119645203677294 60.95999999999998 39.30279887631879
    vertex 23.880886423162575 60.95999999999998 37.464999999999996
  endloop
endfacet
facet normal 0.9238795325112866 0.0 0.3826834323650903
  outer loop
    vertex 23.119645203677294 60.95999999999998 39.30279887631879
    vertex 23.880886423162575 64.13499999999998 37.464999999999996
    vertex 23.119645203677294 64.13499999999998 39.30279887631879
  endloop
endfacet
facet normal 0.7933533402912354 0.0 0.6087614290087204
  outer loop
    vertex 25.091846327358503 64.13499999999998 35.886846327358505
    vertex 23.880886423162575 60.95999999999998 37.464999999999996
    vertex 25.091846327358503 60.95999999999998 35.886846327358505
  endloop
endfacet
facet normal 0.7933533402912354 0.0 0.6087614290087204
  outer loop
    vertex 23.880886423162575 60.95999999999998 37.464999999999996
    vertex 25.091846327358503 64.13499999999998 35.886846327358505
    vertex 23.880886423162575 64.13499999999998 37.464999999999996
  endloop
endfacet
facet normal 0.6087614290087198 0.0 0.7933533402912359
  outer loop
    vertex 26.669999999999995 60.95999999999998 34.67588642316258
    vertex 25.091846327358503 64.13499999999998 35.886846327358505
    vertex 25.091846327358503 60.95999999999998 35.886846327358505
  endloop
endfacet
facet normal 0.6087614290087198 0.0 0.7933533402912359
  outer loop
    vertex 25.091846327358503 64.13499999999998 35.886846327358505
    vertex 26.669999999999995 60.95999999999998 34.67588642316258
    vertex 26.669999999999995 64.13499999999998 34.67588642316258
  endloop
endfacet
facet normal 0.3826834323650913 0.0 0.9238795325112862
  outer loop
    vertex 28.507798876318784 60.95999999999998 33.914645203677296
    vertex 26.669999999999995 64.13499999999998 34.67588642316258
    vertex 26.669999999999995 60.95999999999998 34.67588642316258
  endloop
endfacet
facet normal 0.3826834323650913 0.0 0.9238795325112862
  outer loop
    vertex 26.669999999999995 64.13499999999998 34.67588642316258
    vertex 28.507798876318784 60.95999999999998 33.914645203677296
    vertex 28.507798876318784 64.13499999999998 33.914645203677296
  endloop
endfacet
facet normal 0.13052619222005193 0.0 0.9914448613738104
  outer loop
    vertex 30.47999999999999 60.95999999999998 33.654999999999994
    vertex 28.507798876318784 64.13499999999998 33.914645203677296
    vertex 28.507798876318784 60.95999999999998 33.914645203677296
  endloop
endfacet
facet normal 0.13052619222005193 0.0 0.9914448613738104
  outer loop
    vertex 28.507798876318784 64.13499999999998 33.914645203677296
    vertex 30.47999999999999 60.95999999999998 33.654999999999994
    vertex 30.47999999999999 64.13499999999998 33.654999999999994
  endloop
endfacet
facet normal -0.13052619222005193 0.0 0.9914448613738104
  outer loop
    vertex 32.4522011236812 60.95999999999998 33.914645203677296
    vertex 30.47999999999999 64.13499999999998 33.654999999999994
    vertex 30.47999999999999 60.95999999999998 33.654999999999994
  endloop
endfacet
facet normal -0.13052619222005193 0.0 0.9914448613738104
  outer loop
    vertex 30.47999999999999 64.13499999999998 33.654999999999994
    vertex 32.4522011236812 60.95999999999998 33.914645203677296
    vertex 32.4522011236812 64.13499999999998 33.914645203677296
  endloop
endfacet
facet normal -0.3826834323650903 0.0 0.9238795325112866
  outer loop
    vertex 34.28999999999999 60.95999999999998 34.67588642316258
    vertex 32.4522011236812 64.13499999999998 33.914645203677296
    vertex 32.4522011236812 60.95999999999998 33.914645203677296
  endloop
endfacet
facet normal -0.3826834323650903 0.0 0.9238795325112866
  outer loop
    vertex 32.4522011236812 64.13499999999998 33.914645203677296
    vertex 34.28999999999999 60.95999999999998 34.67588642316258
    vertex 34.28999999999999 64.13499999999998 34.67588642316258
  endloop
endfacet
facet normal -0.6087614290087204 0.0 0.7933533402912354
  outer loop
    vertex 35.86815367264148 60.95999999999998 35.886846327358505
    vertex 34.28999999999999 64.13499999999998 34.67588642316258
    vertex 34.28999999999999 60.95999999999998 34.67588642316258
  endloop
endfacet
facet normal -0.6087614290087204 0.0 0.7933533402912354
  outer loop
    vertex 34.28999999999999 64.13499999999998 34.67588642316258
    vertex 35.86815367264148 60.95999999999998 35.886846327358505
    vertex 35.86815367264148 64.13499999999998 35.886846327358505
  endloop
endfacet
facet normal -0.7933533402912364 0.0 0.6087614290087191
  outer loop
    vertex 37.079113576837415 64.13499999999998 37.465
    vertex 35.86815367264148 60.95999999999998 35.886846327358505
    vertex 37.079113576837415 60.95999999999998 37.465
  endloop
endfacet
facet normal -0.7933533402912364 0.0 0.6087614290087191
  outer loop
    vertex 35.86815367264148 60.95999999999998 35.886846327358505
    vertex 37.079113576837415 64.13499999999998 37.465
    vertex 35.86815367264148 64.13499999999998 35.886846327358505
  endloop
endfacet
facet normal -0.9238795325112862 0.0 0.3826834323650913
  outer loop
    vertex 37.84035479632269 64.13499999999998 39.30279887631879
    vertex 37.079113576837415 60.95999999999998 37.465
    vertex 37.84035479632269 60.95999999999998 39.30279887631879
  endloop
endfacet
facet normal -0.9238795325112862 0.0 0.3826834323650913
  outer loop
    vertex 37.079113576837415 60.95999999999998 37.465
    vertex 37.84035479632269 64.13499999999998 39.30279887631879
    vertex 37.079113576837415 64.13499999999998 37.465
  endloop
endfacet
facet normal -0.9914448613738104 0.0 0.13052619222005193
  outer loop
    vertex 38.099999999999994 64.13499999999998 41.275
    vertex 37.84035479632269 60.95999999999998 39.30279887631879
    vertex 38.099999999999994 60.95999999999998 41.275
  endloop
endfacet
facet normal -0.9914448613738104 0.0 0.13052619222005193
  outer loop
    vertex 37.84035479632269 60.95999999999998 39.30279887631879
    vertex 38.099999999999994 64.13499999999998 41.275
    vertex 37.84035479632269 64.13499999999998 39.30279887631879
  endloop
endfacet
facet normal -0.9914448613738104 -0.0 -0.13052619222005155
  outer loop
    vertex 37.84035479632269 64.13499999999998 43.24720112368121
    vertex 38.099999999999994 60.95999999999998 41.275
    vertex 37.84035479632269 60.95999999999998 43.24720112368121
  endloop
endfacet
facet normal -0.9914448613738104 -0.0 -0.13052619222005155
  outer loop
    vertex 38.099999999999994 60.95999999999998 41.275
    vertex 37.84035479632269 64.13499999999998 43.24720112368121
    vertex 38.099999999999994 64.13499999999998 41.275
  endloop
endfacet
facet normal -0.9238795325112862 -0.0 -0.3826834323650913
  outer loop
    vertex 37.079113576837415 64.13499999999998 45.085
    vertex 37.84035479632269 60.95999999999998 43.24720112368121
    vertex 37.079113576837415 60.95999999999998 45.085
  endloop
endfacet
facet normal -0.9238795325112862 -0.0 -0.3826834323650913
  outer loop
    vertex 37.84035479632269 60.95999999999998 43.24720112368121
    vertex 37.079113576837415 64.13499999999998 45.085
    vertex 37.84035479632269 64.13499999999998 43.24720112368121
  endloop
endfacet
facet normal -0.7933533402912354 -0.0 -0.6087614290087204
  outer loop
    vertex 35.86815367264148 64.13499999999998 46.66315367264149
    vertex 37.079113576837415 60.95999999999998 45.085
    vertex 35.86815367264148 60.95999999999998 46.66315367264149
  endloop
endfacet
facet normal -0.7933533402912354 -0.0 -0.6087614290087204
  outer loop
    vertex 37.079113576837415 60.95999999999998 45.085
    vertex 35.86815367264148 64.13499999999998 46.66315367264149
    vertex 37.079113576837415 64.13499999999998 45.085
  endloop
endfacet
facet normal -0.6087614290087209 -0.0 -0.7933533402912349
  outer loop
    vertex 35.86815367264148 64.13499999999998 46.66315367264149
    vertex 34.28999999999999 60.95999999999998 47.87411357683742
    vertex 34.28999999999999 64.13499999999998 47.87411357683742
  endloop
endfacet
facet normal -0.6087614290087209 -0.0 -0.7933533402912349
  outer loop
    vertex 34.28999999999999 60.95999999999998 47.87411357683742
    vertex 35.86815367264148 64.13499999999998 46.66315367264149
    vertex 35.86815367264148 60.95999999999998 46.66315367264149
  endloop
endfacet
facet normal -0.38268343236508784 -0.0 -0.9238795325112876
  outer loop
    vertex 34.28999999999999 64.13499999999998 47.87411357683742
    vertex 32.45220112368119 60.95999999999998 48.6353547963227
    vertex 32.45220112368119 64.13499999999998 48.6353547963227
  endloop
endfacet
facet normal -0.38268343236508784 -0.0 -0.9238795325112876
  outer loop
    vertex 32.45220112368119 60.95999999999998 48.6353547963227
    vertex 34.28999999999999 64.13499999999998 47.87411357683742
    vertex 34.28999999999999 60.95999999999998 47.87411357683742
  endloop
endfacet
facet normal -0.1305261922200523 -0.0 -0.9914448613738104
  outer loop
    vertex 32.45220112368119 64.13499999999998 48.6353547963227
    vertex 30.47999999999999 60.95999999999998 48.894999999999996
    vertex 30.47999999999999 64.13499999999998 48.894999999999996
  endloop
endfacet
facet normal -0.1305261922200523 -0.0 -0.9914448613738104
  outer loop
    vertex 30.47999999999999 60.95999999999998 48.894999999999996
    vertex 32.45220112368119 64.13499999999998 48.6353547963227
    vertex 32.45220112368119 60.95999999999998 48.6353547963227
  endloop
endfacet
facet normal 1.0 0.0 0.0
  outer loop
    vertex 33.654999999999994 60.95999999999994 0.0
    vertex 33.654999999999994 33.654999999999994 3.175
    vertex 33.654999999999994 33.654999999999994 0.0
  endloop
endfacet
facet normal 1.0 0.0 0.0
  outer loop
    vertex 33.654999999999994 33.654999999999994 3.175
    vertex 33.654999999999994 60.95999999999994 0.0
    vertex 33.654999999999994 60.95999999999994 3.175
  endloop
endfacet
facet normal -1.0 0.0 0.0
  outer loop
    vertex 27.304999999999993 60.95999999999994 3.175
    vertex 27.304999999999993 33.654999999999994 0.0
    vertex 27.304999999999993 33.654999999999994 3.175
  endloop
endfacet
facet normal -1.0 0.0 0.0
  outer loop
    vertex 27.304999999999993 33.654999999999994 0.0
    vertex 27.304999999999993 60.95999999999994 3.175
    vertex 27.304999999999993 60.95999999999994 0.0
  endloop
endfacet
endsolid Brewing Water Mineral Rack
