solid Untitled-62201b40
facet normal -9.997386149239185e-18 1.0 2.5748842014549204e-16
  outer loop
    vertex 6.35 6.35 203.2
    vertex 76.19999999999996 6.3500000000000085 115.47671550418846
    vertex 6.35 6.350000000000042 71.02671550418849
  endloop
endfacet
facet normal -9.997386149239185e-18 1.0 2.5748842014549204e-16
  outer loop
    vertex 76.19999999999996 6.3500000000000085 115.47671550418846
    vertex 146.04999999999998 6.35 203.2
    vertex 146.04999999999998 6.350000000000046 71.02671550418849
  endloop
endfacet
facet normal -9.997386149239185e-18 1.0 2.5748842014549204e-16
  outer loop
    vertex 146.04999999999998 6.35 203.2
    vertex 76.19999999999996 6.3500000000000085 115.47671550418846
    vertex 6.35 6.35 203.2
  endloop
endfacet
facet normal -0.5368754921931592 -7.164041180433323e-16 0.8436614877321075
  outer loop
    vertex 6.35 6.350000000000042 71.02671550418849
    vertex 76.19999999999996 57.150000000000006 115.4767155041885
    vertex 6.349999999999998 57.15000000000004 71.02671550418853
  endloop
endfacet
facet normal -0.5368754921931592 -7.164041180433323e-16 0.8436614877321075
  outer loop
    vertex 76.19999999999996 57.150000000000006 115.4767155041885
    vertex 6.35 6.350000000000042 71.02671550418849
    vertex 76.19999999999996 6.3500000000000085 115.47671550418846
  endloop
endfacet
facet normal 0.5368754921931589 -6.846884980021218e-16 0.8436614877321077
  outer loop
    vertex 146.04999999999998 6.350000000000046 71.02671550418849
    vertex 76.19999999999996 57.150000000000006 115.4767155041885
    vertex 76.19999999999996 6.3500000000000085 115.47671550418846
  endloop
endfacet
facet normal 0.5368754921931589 -6.846884980021218e-16 0.8436614877321077
  outer loop
    vertex 76.19999999999996 57.150000000000006 115.4767155041885
    vertex 146.04999999999998 6.350000000000046 71.02671550418849
    vertex 146.04999999999998 57.15000000000004 71.02671550418853
  endloop
endfacet
facet normal -2.9537220922164756e-17 1.0 8.30364213857745e-16
  outer loop
    vertex 6.349999999999998 57.15000000000004 71.02671550418853
    vertex 76.19999999999999 57.15000000000002 107.94999999999997
    vertex 6.349999999999998 57.15000000000004 63.50000000000002
  endloop
endfacet
facet normal -2.9537220922164756e-17 1.0 8.30364213857745e-16
  outer loop
    vertex 76.19999999999999 57.15000000000002 107.94999999999997
    vertex 6.349999999999998 57.15000000000004 71.02671550418853
    vertex 76.19999999999996 57.150000000000006 115.4767155041885
  endloop
endfacet
facet normal -2.9537220922164756e-17 1.0 8.30364213857745e-16
  outer loop
    vertex 76.19999999999999 57.15000000000002 107.94999999999997
    vertex 146.04999999999998 57.15000000000004 71.02671550418853
    vertex 146.04999999999998 57.150000000000055 63.50000000000002
  endloop
endfacet
facet normal -2.9537220922164756e-17 1.0 8.30364213857745e-16
  outer loop
    vertex 146.04999999999998 57.15000000000004 71.02671550418853
    vertex 76.19999999999999 57.15000000000002 107.94999999999997
    vertex 76.19999999999996 57.150000000000006 115.4767155041885
  endloop
endfacet
facet normal 0.0 -0.8155071447352175 0.5787470059411219
  outer loop
    vertex 146.04999999999998 146.04999999999998 104.77499999999998
    vertex 6.35 76.19999999999999 6.349999999999966
    vertex 146.04999999999998 76.19999999999999 6.349999999999966
  endloop
endfacet
facet normal 0.0 -0.8155071447352175 0.5787470059411219
  outer loop
    vertex 6.35 76.19999999999999 6.349999999999966
    vertex 146.04999999999998 146.04999999999998 104.77499999999998
    vertex 6.35 146.04999999999998 104.77499999999998
  endloop
endfacet
facet normal -1.0 0.0 0.0
  outer loop
    vertex 0.0 152.39999999999998 203.2
    vertex 0.0 0.0 0.0
    vertex 0.0 0.0 203.2
  endloop
endfacet
facet normal -1.0 0.0 0.0
  outer loop
    vertex 0.0 0.0 0.0
    vertex 0.0 152.39999999999998 203.2
    vertex 0.0 152.39999999999998 0.0
  endloop
endfacet
facet normal 0.0 0.0 1.0
  outer loop
    vertex 0.0 0.0 203.2
    vertex 6.35 6.35 203.2
    vertex 0.0 152.39999999999998 203.2
  endloop
endfacet
facet normal 0.0 0.0 1.0
  outer loop
    vertex 6.35 6.35 203.2
    vertex 0.0 0.0 203.2
    vertex 152.39999999999998 0.0 203.2
  endloop
endfacet
facet normal 0.0 0.0 1.0
  outer loop
    vertex 6.35 6.35 203.2
    vertex 152.39999999999998 0.0 203.2
    vertex 146.04999999999998 6.35 203.2
  endloop
endfacet
facet normal 0.0 0.0 1.0
  outer loop
    vertex 146.04999999999998 6.35 203.2
    vertex 152.39999999999998 0.0 203.2
    vertex 146.04999999999998 146.04999999999998 203.2
  endloop
endfacet
facet normal 0.0 0.0 1.0
  outer loop
    vertex 0.0 152.39999999999998 203.2
    vertex 6.35 146.04999999999998 203.2
    vertex 152.39999999999998 152.39999999999998 203.2
  endloop
endfacet
facet normal 0.0 0.0 1.0
  outer loop
    vertex 6.35 146.04999999999998 203.2
    vertex 0.0 152.39999999999998 203.2
    vertex 6.35 6.35 203.2
  endloop
endfacet
facet normal 0.0 0.0 1.0
  outer loop
    vertex 152.39999999999998 152.39999999999998 203.2
    vertex 6.35 146.04999999999998 203.2
    vertex 146.04999999999998 146.04999999999998 203.2
  endloop
endfacet
facet normal 0.0 0.0 1.0
  outer loop
    vertex 152.39999999999998 152.39999999999998 203.2
    vertex 146.04999999999998 146.04999999999998 203.2
    vertex 152.39999999999998 0.0 203.2
  endloop
endfacet
facet normal 1.0 0.0 0.0
  outer loop
    vertex 152.39999999999998 152.39999999999998 0.0
    vertex 152.39999999999998 0.0 203.2
    vertex 152.39999999999998 0.0 0.0
  endloop
endfacet
facet normal 1.0 0.0 0.0
  outer loop
    vertex 152.39999999999998 0.0 203.2
    vertex 152.39999999999998 152.39999999999998 0.0
    vertex 152.39999999999998 152.39999999999998 203.2
  endloop
endfacet
facet normal 0.0 -1.0 0.0
  outer loop
    vertex 152.39999999999998 0.0 0.0
    vertex 146.04999999999998 1.0151879337172431e-13 25.4
    vertex 0.0 0.0 0.0
  endloop
endfacet
facet normal 0.0 -1.0 0.0
  outer loop
    vertex 146.04999999999998 1.0151879337172431e-13 25.4
    vertex 152.39999999999998 0.0 0.0
    vertex 152.39999999999998 0.0 203.2
  endloop
endfacet
facet normal 0.0 -1.0 0.0
  outer loop
    vertex 146.04999999999998 1.0151879337172431e-13 25.4
    vertex 152.39999999999998 0.0 203.2
    vertex 146.04999999999998 3.3839597790574766e-14 63.5
  endloop
endfacet
facet normal 0.0 -1.0 0.0
  outer loop
    vertex 146.04999999999998 3.3839597790574766e-14 63.5
    vertex 152.39999999999998 0.0 203.2
    vertex 76.19999999999999 0.0 107.94999999999999
  endloop
endfacet
facet normal 0.0 -1.0 0.0
  outer loop
    vertex 0.0 0.0 0.0
    vertex 6.35 1.0151879337172431e-13 25.4
    vertex 0.0 0.0 203.2
  endloop
endfacet
facet normal 0.0 -1.0 0.0
  outer loop
    vertex 6.35 1.0151879337172431e-13 25.4
    vertex 0.0 0.0 0.0
    vertex 146.04999999999998 1.0151879337172431e-13 25.4
  endloop
endfacet
facet normal 0.0 -1.0 0.0
  outer loop
    vertex 0.0 0.0 203.2
    vertex 6.35 1.0151879337172431e-13 25.4
    vertex 6.35 3.3839597790574766e-14 63.5
  endloop
endfacet
facet normal 0.0 -1.0 0.0
  outer loop
    vertex 0.0 0.0 203.2
    vertex 6.35 3.3839597790574766e-14 63.5
    vertex 76.19999999999999 0.0 107.94999999999999
  endloop
endfacet
facet normal 0.0 -1.0 0.0
  outer loop
    vertex 0.0 0.0 203.2
    vertex 76.19999999999999 0.0 107.94999999999999
    vertex 152.39999999999998 0.0 203.2
  endloop
endfacet
facet normal -0.0 -0.0 -1.0
  outer loop
    vertex 152.39999999999998 152.39999999999998 0.0
    vertex 0.0 0.0 0.0
    vertex 0.0 152.39999999999998 0.0
  endloop
endfacet
facet normal -0.0 -0.0 -1.0
  outer loop
    vertex 0.0 0.0 0.0
    vertex 152.39999999999998 152.39999999999998 0.0
    vertex 152.39999999999998 0.0 0.0
  endloop
endfacet
facet normal 0.0 0.0 1.0
  outer loop
    vertex 146.04999999999998 6.35 6.349999999999966
    vertex 6.35 76.19999999999999 6.349999999999966
    vertex 6.35 6.35 6.349999999999966
  endloop
endfacet
facet normal 0.0 0.0 1.0
  outer loop
    vertex 6.35 76.19999999999999 6.349999999999966
    vertex 146.04999999999998 6.35 6.349999999999966
    vertex 146.04999999999998 76.19999999999999 6.349999999999966
  endloop
endfacet
facet normal 0.0 1.0 0.0
  outer loop
    vertex 0.0 152.39999999999998 203.2
    vertex 152.39999999999998 152.39999999999998 0.0
    vertex 0.0 152.39999999999998 0.0
  endloop
endfacet
facet normal 0.0 1.0 0.0
  outer loop
    vertex 152.39999999999998 152.39999999999998 0.0
    vertex 0.0 152.39999999999998 203.2
    vertex 35.8656774736469 152.39999999999998 181.06391788051076
  endloop
endfacet
facet normal 0.0 1.0 0.0
  outer loop
    vertex 152.39999999999998 152.39999999999998 0.0
    vertex 35.8656774736469 152.39999999999998 181.06391788051076
    vertex 36.740546994810266 152.39999999999998 180.59078835601468
  endloop
endfacet
facet normal 0.0 1.0 0.0
  outer loop
    vertex 152.39999999999998 152.39999999999998 0.0
    vertex 36.740546994810266 152.39999999999998 180.59078835601468
    vertex 37.708060991675 152.39999999999998 180.36021322318084
  endloop
endfacet
facet normal 0.0 1.0 0.0
  outer loop
    vertex 152.39999999999998 152.39999999999998 0.0
    vertex 37.708060991675 152.39999999999998 180.36021322318084
    vertex 114.3 152.39999999999998 180.33999999999997
  endloop
endfacet
facet normal 0.0 1.0 0.0
  outer loop
    vertex 35.8656774736469 152.39999999999998 181.06391788051076
    vertex 0.0 152.39999999999998 203.2
    vertex 35.143073340261935 152.39999999999998 181.7473588014582
  endloop
endfacet
facet normal 0.0 1.0 0.0
  outer loop
    vertex 35.143073340261935 152.39999999999998 181.7473588014582
    vertex 0.0 152.39999999999998 203.2
    vertex 34.62197887218577 152.39999999999998 182.59453574953395
  endloop
endfacet
facet normal 0.0 1.0 0.0
  outer loop
    vertex 34.62197887218577 152.39999999999998 182.59453574953395
    vertex 0.0 152.39999999999998 203.2
    vertex 34.33790579626848 152.39999999999998 183.54771501575274
  endloop
endfacet
facet normal 0.0 1.0 0.0
  outer loop
    vertex 34.33790579626848 152.39999999999998 183.54771501575274
    vertex 0.0 152.39999999999998 203.2
    vertex 34.31021322318085 152.39999999999998 184.541939008325
  endloop
endfacet
facet normal 0.0 1.0 0.0
  outer loop
    vertex 34.31021322318085 152.39999999999998 184.541939008325
    vertex 0.0 152.39999999999998 203.2
    vertex 34.54078835601469 152.39999999999998 185.50945300518973
  endloop
endfacet
facet normal 0.0 1.0 0.0
  outer loop
    vertex 34.54078835601469 152.39999999999998 185.50945300518973
    vertex 0.0 152.39999999999998 203.2
    vertex 35.013917880510775 152.39999999999998 186.3843225263531
  endloop
endfacet
facet normal 0.0 1.0 0.0
  outer loop
    vertex 35.013917880510775 152.39999999999998 186.3843225263531
    vertex 0.0 152.39999999999998 203.2
    vertex 35.69735880145821 152.39999999999998 187.10692665973804
  endloop
endfacet
facet normal 0.0 1.0 0.0
  outer loop
    vertex 35.69735880145821 152.39999999999998 187.10692665973804
    vertex 0.0 152.39999999999998 203.2
    vertex 36.54453574953396 152.39999999999998 187.6280211278142
  endloop
endfacet
facet normal 0.0 1.0 0.0
  outer loop
    vertex 36.54453574953396 152.39999999999998 187.6280211278142
    vertex 0.0 152.39999999999998 203.2
    vertex 37.497715015752746 152.39999999999998 187.9120942037315
  endloop
endfacet
facet normal 0.0 1.0 0.0
  outer loop
    vertex 37.497715015752746 152.39999999999998 187.9120942037315
    vertex 0.0 152.39999999999998 203.2
    vertex 38.49193900832499 152.39999999999998 187.93978677681915
  endloop
endfacet
facet normal 0.0 1.0 0.0
  outer loop
    vertex 38.49193900832499 152.39999999999998 187.93978677681915
    vertex 0.0 152.39999999999998 203.2
    vertex 114.3 152.39999999999998 187.96
  endloop
endfacet
facet normal 0.0 1.0 0.0
  outer loop
    vertex 152.39999999999998 152.39999999999998 0.0
    vertex 116.205 152.39999999999998 180.85044321158128
    vertex 152.39999999999998 152.39999999999998 203.2
  endloop
endfacet
facet normal 0.0 1.0 0.0
  outer loop
    vertex 116.205 152.39999999999998 180.85044321158128
    vertex 152.39999999999998 152.39999999999998 0.0
    vertex 115.2861005618406 152.39999999999998 180.46982260183864
  endloop
endfacet
facet normal 0.0 1.0 0.0
  outer loop
    vertex 115.2861005618406 152.39999999999998 180.46982260183864
    vertex 152.39999999999998 152.39999999999998 0.0
    vertex 114.3 152.39999999999998 180.33999999999997
  endloop
endfacet
facet normal 0.0 1.0 0.0
  outer loop
    vertex 152.39999999999998 152.39999999999998 203.2
    vertex 116.205 152.39999999999998 180.85044321158128
    vertex 116.99407683632076 152.39999999999998 181.45592316367922
  endloop
endfacet
facet normal 0.0 1.0 0.0
  outer loop
    vertex 152.39999999999998 152.39999999999998 203.2
    vertex 116.99407683632076 152.39999999999998 181.45592316367922
    vertex 117.59955678841871 152.39999999999998 182.24499999999998
  endloop
endfacet
facet normal 0.0 1.0 0.0
  outer loop
    vertex 152.39999999999998 152.39999999999998 203.2
    vertex 117.59955678841871 152.39999999999998 182.24499999999998
    vertex 117.98017739816135 152.39999999999998 183.16389943815938
  endloop
endfacet
facet normal 0.0 1.0 0.0
  outer loop
    vertex 152.39999999999998 152.39999999999998 203.2
    vertex 117.98017739816135 152.39999999999998 183.16389943815938
    vertex 118.11 152.39999999999998 184.14999999999998
  endloop
endfacet
facet normal 0.0 1.0 0.0
  outer loop
    vertex 152.39999999999998 152.39999999999998 203.2
    vertex 118.11 152.39999999999998 184.14999999999998
    vertex 117.98017739816135 152.39999999999998 185.1361005618406
  endloop
endfacet
facet normal 0.0 1.0 0.0
  outer loop
    vertex 152.39999999999998 152.39999999999998 203.2
    vertex 117.98017739816135 152.39999999999998 185.1361005618406
    vertex 117.59955678841871 152.39999999999998 186.055
  endloop
endfacet
facet normal 0.0 1.0 0.0
  outer loop
    vertex 152.39999999999998 152.39999999999998 203.2
    vertex 117.59955678841871 152.39999999999998 186.055
    vertex 116.99407683632073 152.39999999999998 186.84407683632077
  endloop
endfacet
facet normal 0.0 1.0 0.0
  outer loop
    vertex 152.39999999999998 152.39999999999998 203.2
    vertex 116.99407683632073 152.39999999999998 186.84407683632077
    vertex 116.205 152.39999999999998 187.4495567884187
  endloop
endfacet
facet normal 0.0 1.0 0.0
  outer loop
    vertex 152.39999999999998 152.39999999999998 203.2
    vertex 116.205 152.39999999999998 187.4495567884187
    vertex 115.2861005618406 152.39999999999998 187.83017739816134
  endloop
endfacet
facet normal 0.0 1.0 0.0
  outer loop
    vertex 152.39999999999998 152.39999999999998 203.2
    vertex 115.2861005618406 152.39999999999998 187.83017739816134
    vertex 114.3 152.39999999999998 187.96
  endloop
endfacet
facet normal 0.0 1.0 0.0
  outer loop
    vertex 152.39999999999998 152.39999999999998 203.2
    vertex 114.3 152.39999999999998 187.96
    vertex 0.0 152.39999999999998 203.2
  endloop
endfacet
facet normal 0.0 1.0 0.0
  outer loop
    vertex 37.708060991675 152.39999999999998 180.36021322318084
    vertex 113.31389943815938 152.39999999999998 180.46982260183864
    vertex 114.3 152.39999999999998 180.33999999999997
  endloop
endfacet
facet normal 0.0 1.0 0.0
  outer loop
    vertex 113.31389943815938 152.39999999999998 180.46982260183864
    vertex 37.708060991675 152.39999999999998 180.36021322318084
    vertex 38.70228498424724 152.39999999999998 180.38790579626846
  endloop
endfacet
facet normal 0.0 1.0 0.0
  outer loop
    vertex 113.31389943815938 152.39999999999998 180.46982260183864
    vertex 38.70228498424724 152.39999999999998 180.38790579626846
    vertex 39.65546425046604 152.39999999999998 180.67197887218578
  endloop
endfacet
facet normal 0.0 1.0 0.0
  outer loop
    vertex 113.31389943815938 152.39999999999998 180.46982260183864
    vertex 39.65546425046604 152.39999999999998 180.67197887218578
    vertex 112.395 152.39999999999998 180.85044321158128
  endloop
endfacet
facet normal 0.0 1.0 0.0
  outer loop
    vertex 112.395 152.39999999999998 180.85044321158128
    vertex 39.65546425046604 152.39999999999998 180.67197887218578
    vertex 40.50264119854179 152.39999999999998 181.19307334026195
  endloop
endfacet
facet normal 0.0 1.0 0.0
  outer loop
    vertex 112.395 152.39999999999998 180.85044321158128
    vertex 40.50264119854179 152.39999999999998 181.19307334026195
    vertex 111.60592316367924 152.39999999999998 181.45592316367922
  endloop
endfacet
facet normal 0.0 1.0 0.0
  outer loop
    vertex 111.60592316367924 152.39999999999998 181.45592316367922
    vertex 40.50264119854179 152.39999999999998 181.19307334026195
    vertex 41.18608211948922 152.39999999999998 181.9156774736469
  endloop
endfacet
facet normal 0.0 1.0 0.0
  outer loop
    vertex 111.60592316367924 152.39999999999998 181.45592316367922
    vertex 41.18608211948922 152.39999999999998 181.9156774736469
    vertex 111.00044321158128 152.39999999999998 182.24499999999998
  endloop
endfacet
facet normal 0.0 1.0 0.0
  outer loop
    vertex 111.00044321158128 152.39999999999998 182.24499999999998
    vertex 41.18608211948922 152.39999999999998 181.9156774736469
    vertex 41.65921164398531 152.39999999999998 182.79054699481028
  endloop
endfacet
facet normal 0.0 1.0 0.0
  outer loop
    vertex 111.00044321158128 152.39999999999998 182.24499999999998
    vertex 41.65921164398531 152.39999999999998 182.79054699481028
    vertex 110.61982260183865 152.39999999999998 183.16389943815938
  endloop
endfacet
facet normal 0.0 1.0 0.0
  outer loop
    vertex 110.61982260183865 152.39999999999998 183.16389943815938
    vertex 41.65921164398531 152.39999999999998 182.79054699481028
    vertex 41.88978677681914 152.39999999999998 183.758060991675
  endloop
endfacet
facet normal 0.0 1.0 0.0
  outer loop
    vertex 110.61982260183865 152.39999999999998 183.16389943815938
    vertex 41.88978677681914 152.39999999999998 183.758060991675
    vertex 110.48999999999998 152.39999999999998 184.14999999999998
  endloop
endfacet
facet normal 0.0 1.0 0.0
  outer loop
    vertex 110.48999999999998 152.39999999999998 184.14999999999998
    vertex 41.88978677681914 152.39999999999998 183.758060991675
    vertex 41.87886992134691 152.39999999999998 184.14999999999998
  endloop
endfacet
facet normal 0.0 1.0 0.0
  outer loop
    vertex 110.48999999999998 152.39999999999998 184.14999999999998
    vertex 41.87886992134691 152.39999999999998 184.14999999999998
    vertex 41.862094203731516 152.39999999999998 184.75228498424724
  endloop
endfacet
facet normal 0.0 1.0 0.0
  outer loop
    vertex 110.48999999999998 152.39999999999998 184.14999999999998
    vertex 41.862094203731516 152.39999999999998 184.75228498424724
    vertex 110.61982260183865 152.39999999999998 185.1361005618406
  endloop
endfacet
facet normal 0.0 1.0 0.0
  outer loop
    vertex 110.61982260183865 152.39999999999998 185.1361005618406
    vertex 41.862094203731516 152.39999999999998 184.75228498424724
    vertex 41.578021127814225 152.39999999999998 185.70546425046604
  endloop
endfacet
facet normal 0.0 1.0 0.0
  outer loop
    vertex 110.61982260183865 152.39999999999998 185.1361005618406
    vertex 41.578021127814225 152.39999999999998 185.70546425046604
    vertex 111.00044321158128 152.39999999999998 186.055
  endloop
endfacet
facet normal 0.0 1.0 0.0
  outer loop
    vertex 111.00044321158128 152.39999999999998 186.055
    vertex 41.578021127814225 152.39999999999998 185.70546425046604
    vertex 41.05692665973806 152.39999999999998 186.55264119854178
  endloop
endfacet
facet normal 0.0 1.0 0.0
  outer loop
    vertex 111.00044321158128 152.39999999999998 186.055
    vertex 41.05692665973806 152.39999999999998 186.55264119854178
    vertex 111.60592316367924 152.39999999999998 186.84407683632074
  endloop
endfacet
facet normal 0.0 1.0 0.0
  outer loop
    vertex 111.60592316367924 152.39999999999998 186.84407683632074
    vertex 41.05692665973806 152.39999999999998 186.55264119854178
    vertex 40.3343225263531 152.39999999999998 187.2360821194892
  endloop
endfacet
facet normal 0.0 1.0 0.0
  outer loop
    vertex 111.60592316367924 152.39999999999998 186.84407683632074
    vertex 40.3343225263531 152.39999999999998 187.2360821194892
    vertex 112.395 152.39999999999998 187.4495567884187
  endloop
endfacet
facet normal 0.0 1.0 0.0
  outer loop
    vertex 112.395 152.39999999999998 187.4495567884187
    vertex 40.3343225263531 152.39999999999998 187.2360821194892
    vertex 39.45945300518973 152.39999999999998 187.7092116439853
  endloop
endfacet
facet normal 0.0 1.0 0.0
  outer loop
    vertex 112.395 152.39999999999998 187.4495567884187
    vertex 39.45945300518973 152.39999999999998 187.7092116439853
    vertex 113.31389943815938 152.39999999999998 187.83017739816134
  endloop
endfacet
facet normal 0.0 1.0 0.0
  outer loop
    vertex 113.31389943815938 152.39999999999998 187.83017739816134
    vertex 39.45945300518973 152.39999999999998 187.7092116439853
    vertex 38.49193900832499 152.39999999999998 187.93978677681915
  endloop
endfacet
facet normal 0.0 1.0 0.0
  outer loop
    vertex 113.31389943815938 152.39999999999998 187.83017739816134
    vertex 38.49193900832499 152.39999999999998 187.93978677681915
    vertex 114.3 152.39999999999998 187.96
  endloop
endfacet
facet normal -1.0 0.0 0.0
  outer loop
    vertex 146.04999999999998 57.150000000000055 63.50000000000002
    vertex 146.04999999999998 6.350000000000101 25.399999999999963
    vertex 146.04999999999998 6.350000000000055 63.49999999999997
  endloop
endfacet
facet normal -1.0 0.0 0.0
  outer loop
    vertex 146.04999999999998 146.04999999999998 203.2
    vertex 146.04999999999998 6.350000000000046 71.02671550418849
    vertex 146.04999999999998 6.35 203.2
  endloop
endfacet
facet normal -1.0 0.0 0.0
  outer loop
    vertex 146.04999999999998 6.350000000000046 71.02671550418849
    vertex 146.04999999999998 146.04999999999998 203.2
    vertex 146.04999999999998 57.15000000000004 71.02671550418853
  endloop
endfacet
facet normal -1.0 0.0 0.0
  outer loop
    vertex 146.04999999999998 57.15000000000004 71.02671550418853
    vertex 146.04999999999998 146.04999999999998 203.2
    vertex 146.04999999999998 57.150000000000055 63.50000000000002
  endloop
endfacet
facet normal -1.0 0.0 0.0
  outer loop
    vertex 146.04999999999998 57.150000000000055 63.50000000000002
    vertex 146.04999999999998 146.04999999999998 203.2
    vertex 146.04999999999998 76.19999999999999 6.349999999999966
  endloop
endfacet
facet normal -1.0 0.0 0.0
  outer loop
    vertex 146.04999999999998 76.19999999999999 6.349999999999966
    vertex 146.04999999999998 146.04999999999998 203.2
    vertex 146.04999999999998 146.04999999999998 104.77499999999998
  endloop
endfacet
facet normal -1.0 0.0 0.0
  outer loop
    vertex 146.04999999999998 6.350000000000101 25.399999999999963
    vertex 146.04999999999998 76.19999999999999 6.349999999999966
    vertex 146.04999999999998 6.35 6.349999999999966
  endloop
endfacet
facet normal -1.0 0.0 0.0
  outer loop
    vertex 146.04999999999998 76.19999999999999 6.349999999999966
    vertex 146.04999999999998 6.350000000000101 25.399999999999963
    vertex 146.04999999999998 57.150000000000055 63.50000000000002
  endloop
endfacet
facet normal 0.0 -1.0 0.0
  outer loop
    vertex 113.31389943815938 146.04999999999998 180.46982260183864
    vertex 37.708060991675 146.04999999999998 180.36021322318084
    vertex 114.3 146.04999999999998 180.33999999999997
  endloop
endfacet
facet normal 0.0 -1.0 0.0
  outer loop
    vertex 37.708060991675 146.04999999999998 180.36021322318084
    vertex 113.31389943815938 146.04999999999998 180.46982260183864
    vertex 38.70228498424724 146.04999999999998 180.38790579626846
  endloop
endfacet
facet normal 0.0 -1.0 0.0
  outer loop
    vertex 38.70228498424724 146.04999999999998 180.38790579626846
    vertex 113.31389943815938 146.04999999999998 180.46982260183864
    vertex 39.65546425046604 146.04999999999998 180.67197887218578
  endloop
endfacet
facet normal 0.0 -1.0 0.0
  outer loop
    vertex 39.65546425046604 146.04999999999998 180.67197887218578
    vertex 113.31389943815938 146.04999999999998 180.46982260183864
    vertex 112.395 146.04999999999998 180.85044321158128
  endloop
endfacet
facet normal 0.0 -1.0 0.0
  outer loop
    vertex 39.65546425046604 146.04999999999998 180.67197887218578
    vertex 112.395 146.04999999999998 180.85044321158128
    vertex 40.50264119854179 146.04999999999998 181.19307334026195
  endloop
endfacet
facet normal 0.0 -1.0 0.0
  outer loop
    vertex 40.50264119854179 146.04999999999998 181.19307334026195
    vertex 112.395 146.04999999999998 180.85044321158128
    vertex 111.60592316367924 146.04999999999998 181.45592316367922
  endloop
endfacet
facet normal 0.0 -1.0 0.0
  outer loop
    vertex 40.50264119854179 146.04999999999998 181.19307334026195
    vertex 111.60592316367924 146.04999999999998 181.45592316367922
    vertex 41.18608211948922 146.04999999999998 181.9156774736469
  endloop
endfacet
facet normal 0.0 -1.0 0.0
  outer loop
    vertex 41.18608211948922 146.04999999999998 181.9156774736469
    vertex 111.60592316367924 146.04999999999998 181.45592316367922
    vertex 111.00044321158128 146.04999999999998 182.24499999999998
  endloop
endfacet
facet normal 0.0 -1.0 0.0
  outer loop
    vertex 41.18608211948922 146.04999999999998 181.9156774736469
    vertex 111.00044321158128 146.04999999999998 182.24499999999998
    vertex 41.65921164398531 146.04999999999998 182.79054699481028
  endloop
endfacet
facet normal 0.0 -1.0 0.0
  outer loop
    vertex 41.65921164398531 146.04999999999998 182.79054699481028
    vertex 111.00044321158128 146.04999999999998 182.24499999999998
    vertex 110.61982260183865 146.04999999999998 183.16389943815938
  endloop
endfacet
facet normal 0.0 -1.0 0.0
  outer loop
    vertex 41.65921164398531 146.04999999999998 182.79054699481028
    vertex 110.61982260183865 146.04999999999998 183.16389943815938
    vertex 41.88978677681914 146.04999999999998 183.758060991675
  endloop
endfacet
facet normal 0.0 -1.0 0.0
  outer loop
    vertex 41.88978677681914 146.04999999999998 183.758060991675
    vertex 110.61982260183865 146.04999999999998 183.16389943815938
    vertex 110.48999999999998 146.04999999999998 184.14999999999998
  endloop
endfacet
facet normal 0.0 -1.0 0.0
  outer loop
    vertex 41.88978677681914 146.04999999999998 183.758060991675
    vertex 110.48999999999998 146.04999999999998 184.14999999999998
    vertex 41.87886992134691 146.04999999999998 184.14999999999998
  endloop
endfacet
facet normal 0.0 -1.0 0.0
  outer loop
    vertex 41.87886992134691 146.04999999999998 184.14999999999998
    vertex 110.48999999999998 146.04999999999998 184.14999999999998
    vertex 110.61982260183865 146.04999999999998 185.1361005618406
  endloop
endfacet
facet normal 0.0 -1.0 0.0
  outer loop
    vertex 41.87886992134691 146.04999999999998 184.14999999999998
    vertex 110.61982260183865 146.04999999999998 185.1361005618406
    vertex 41.862094203731516 146.04999999999998 184.75228498424724
  endloop
endfacet
facet normal 0.0 -1.0 0.0
  outer loop
    vertex 41.862094203731516 146.04999999999998 184.75228498424724
    vertex 110.61982260183865 146.04999999999998 185.1361005618406
    vertex 41.578021127814225 146.04999999999998 185.70546425046604
  endloop
endfacet
facet normal 0.0 -1.0 0.0
  outer loop
    vertex 41.578021127814225 146.04999999999998 185.70546425046604
    vertex 110.61982260183865 146.04999999999998 185.1361005618406
    vertex 111.00044321158128 146.04999999999998 186.055
  endloop
endfacet
facet normal 0.0 -1.0 0.0
  outer loop
    vertex 41.578021127814225 146.04999999999998 185.70546425046604
    vertex 111.00044321158128 146.04999999999998 186.055
    vertex 41.05692665973806 146.04999999999998 186.55264119854178
  endloop
endfacet
facet normal 0.0 -1.0 0.0
  outer loop
    vertex 41.05692665973806 146.04999999999998 186.55264119854178
    vertex 111.00044321158128 146.04999999999998 186.055
    vertex 111.60592316367924 146.04999999999998 186.84407683632074
  endloop
endfacet
facet normal 0.0 -1.0 0.0
  outer loop
    vertex 41.05692665973806 146.04999999999998 186.55264119854178
    vertex 111.60592316367924 146.04999999999998 186.84407683632074
    vertex 40.3343225263531 146.04999999999998 187.2360821194892
  endloop
endfacet
facet normal 0.0 -1.0 0.0
  outer loop
    vertex 40.3343225263531 146.04999999999998 187.2360821194892
    vertex 111.60592316367924 146.04999999999998 186.84407683632074
    vertex 112.395 146.04999999999998 187.4495567884187
  endloop
endfacet
facet normal 0.0 -1.0 0.0
  outer loop
    vertex 40.3343225263531 146.04999999999998 187.2360821194892
    vertex 112.395 146.04999999999998 187.4495567884187
    vertex 39.45945300518973 146.04999999999998 187.7092116439853
  endloop
endfacet
facet normal 0.0 -1.0 0.0
  outer loop
    vertex 39.45945300518973 146.04999999999998 187.7092116439853
    vertex 112.395 146.04999999999998 187.4495567884187
    vertex 113.31389943815938 146.04999999999998 187.83017739816134
  endloop
endfacet
facet normal 0.0 -1.0 0.0
  outer loop
    vertex 39.45945300518973 146.04999999999998 187.7092116439853
    vertex 113.31389943815938 146.04999999999998 187.83017739816134
    vertex 38.49193900832499 146.04999999999998 187.93978677681915
  endloop
endfacet
facet normal 0.0 -1.0 0.0
  outer loop
    vertex 38.49193900832499 146.04999999999998 187.93978677681915
    vertex 113.31389943815938 146.04999999999998 187.83017739816134
    vertex 114.3 146.04999999999998 187.96
  endloop
endfacet
facet normal 0.0 -1.0 0.0
  outer loop
    vertex 146.04999999999998 146.04999999999998 104.77499999999998
    vertex 116.205 146.04999999999998 180.85044321158128
    vertex 6.35 146.04999999999998 104.77499999999998
  endloop
endfacet
facet normal 0.0 -1.0 0.0
  outer loop
    vertex 116.205 146.04999999999998 180.85044321158128
    vertex 146.04999999999998 146.04999999999998 104.77499999999998
    vertex 146.04999999999998 146.04999999999998 203.2
  endloop
endfacet
facet normal 0.0 -1.0 0.0
  outer loop
    vertex 6.35 146.04999999999998 104.77499999999998
    vertex 116.205 146.04999999999998 180.85044321158128
    vertex 115.2861005618406 146.04999999999998 180.46982260183864
  endloop
endfacet
facet normal 0.0 -1.0 0.0
  outer loop
    vertex 6.35 146.04999999999998 104.77499999999998
    vertex 115.2861005618406 146.04999999999998 180.46982260183864
    vertex 114.3 146.04999999999998 180.33999999999997
  endloop
endfacet
facet normal 0.0 -1.0 0.0
  outer loop
    vertex 116.205 146.04999999999998 180.85044321158128
    vertex 146.04999999999998 146.04999999999998 203.2
    vertex 116.99407683632076 146.04999999999998 181.45592316367922
  endloop
endfacet
facet normal 0.0 -1.0 0.0
  outer loop
    vertex 116.99407683632076 146.04999999999998 181.45592316367922
    vertex 146.04999999999998 146.04999999999998 203.2
    vertex 117.59955678841871 146.04999999999998 182.24499999999998
  endloop
endfacet
facet normal 0.0 -1.0 0.0
  outer loop
    vertex 117.59955678841871 146.04999999999998 182.24499999999998
    vertex 146.04999999999998 146.04999999999998 203.2
    vertex 117.98017739816135 146.04999999999998 183.16389943815938
  endloop
endfacet
facet normal 0.0 -1.0 0.0
  outer loop
    vertex 117.98017739816135 146.04999999999998 183.16389943815938
    vertex 146.04999999999998 146.04999999999998 203.2
    vertex 118.11 146.04999999999998 184.14999999999998
  endloop
endfacet
facet normal 0.0 -1.0 0.0
  outer loop
    vertex 118.11 146.04999999999998 184.14999999999998
    vertex 146.04999999999998 146.04999999999998 203.2
    vertex 117.98017739816135 146.04999999999998 185.1361005618406
  endloop
endfacet
facet normal 0.0 -1.0 0.0
  outer loop
    vertex 117.98017739816135 146.04999999999998 185.1361005618406
    vertex 146.04999999999998 146.04999999999998 203.2
    vertex 117.59955678841871 146.04999999999998 186.055
  endloop
endfacet
facet normal 0.0 -1.0 0.0
  outer loop
    vertex 117.59955678841871 146.04999999999998 186.055
    vertex 146.04999999999998 146.04999999999998 203.2
    vertex 116.99407683632073 146.04999999999998 186.84407683632077
  endloop
endfacet
facet normal 0.0 -1.0 0.0
  outer loop
    vertex 116.99407683632073 146.04999999999998 186.84407683632077
    vertex 146.04999999999998 146.04999999999998 203.2
    vertex 116.205 146.04999999999998 187.4495567884187
  endloop
endfacet
facet normal 0.0 -1.0 0.0
  outer loop
    vertex 116.205 146.04999999999998 187.4495567884187
    vertex 146.04999999999998 146.04999999999998 203.2
    vertex 115.2861005618406 146.04999999999998 187.83017739816134
  endloop
endfacet
facet normal 0.0 -1.0 0.0
  outer loop
    vertex 115.2861005618406 146.04999999999998 187.83017739816134
    vertex 146.04999999999998 146.04999999999998 203.2
    vertex 114.3 146.04999999999998 187.96
  endloop
endfacet
facet normal 0.0 -1.0 0.0
  outer loop
    vertex 6.35 146.04999999999998 104.77499999999998
    vertex 35.8656774736469 146.04999999999998 181.06391788051076
    vertex 6.35 146.04999999999998 203.2
  endloop
endfacet
facet normal 0.0 -1.0 0.0
  outer loop
    vertex 35.8656774736469 146.04999999999998 181.06391788051076
    vertex 6.35 146.04999999999998 104.77499999999998
    vertex 36.740546994810266 146.04999999999998 180.59078835601468
  endloop
endfacet
facet normal 0.0 -1.0 0.0
  outer loop
    vertex 36.740546994810266 146.04999999999998 180.59078835601468
    vertex 6.35 146.04999999999998 104.77499999999998
    vertex 37.708060991675 146.04999999999998 180.36021322318084
  endloop
endfacet
facet normal 0.0 -1.0 0.0
  outer loop
    vertex 37.708060991675 146.04999999999998 180.36021322318084
    vertex 6.35 146.04999999999998 104.77499999999998
    vertex 114.3 146.04999999999998 180.33999999999997
  endloop
endfacet
facet normal 0.0 -1.0 0.0
  outer loop
    vertex 6.35 146.04999999999998 203.2
    vertex 35.8656774736469 146.04999999999998 181.06391788051076
    vertex 35.143073340261935 146.04999999999998 181.7473588014582
  endloop
endfacet
facet normal 0.0 -1.0 0.0
  outer loop
    vertex 6.35 146.04999999999998 203.2
    vertex 35.143073340261935 146.04999999999998 181.7473588014582
    vertex 34.62197887218577 146.04999999999998 182.59453574953395
  endloop
endfacet
facet normal 0.0 -1.0 0.0
  outer loop
    vertex 6.35 146.04999999999998 203.2
    vertex 34.62197887218577 146.04999999999998 182.59453574953395
    vertex 34.33790579626848 146.04999999999998 183.54771501575274
  endloop
endfacet
facet normal 0.0 -1.0 0.0
  outer loop
    vertex 6.35 146.04999999999998 203.2
    vertex 34.33790579626848 146.04999999999998 183.54771501575274
    vertex 34.31021322318085 146.04999999999998 184.541939008325
  endloop
endfacet
facet normal 0.0 -1.0 0.0
  outer loop
    vertex 6.35 146.04999999999998 203.2
    vertex 34.31021322318085 146.04999999999998 184.541939008325
    vertex 34.54078835601469 146.04999999999998 185.50945300518973
  endloop
endfacet
facet normal 0.0 -1.0 0.0
  outer loop
    vertex 6.35 146.04999999999998 203.2
    vertex 34.54078835601469 146.04999999999998 185.50945300518973
    vertex 35.013917880510775 146.04999999999998 186.3843225263531
  endloop
endfacet
facet normal 0.0 -1.0 0.0
  outer loop
    vertex 6.35 146.04999999999998 203.2
    vertex 35.013917880510775 146.04999999999998 186.3843225263531
    vertex 35.69735880145821 146.04999999999998 187.10692665973804
  endloop
endfacet
facet normal 0.0 -1.0 0.0
  outer loop
    vertex 6.35 146.04999999999998 203.2
    vertex 35.69735880145821 146.04999999999998 187.10692665973804
    vertex 36.54453574953396 146.04999999999998 187.6280211278142
  endloop
endfacet
facet normal 0.0 -1.0 0.0
  outer loop
    vertex 6.35 146.04999999999998 203.2
    vertex 36.54453574953396 146.04999999999998 187.6280211278142
    vertex 37.497715015752746 146.04999999999998 187.9120942037315
  endloop
endfacet
facet normal 0.0 -1.0 0.0
  outer loop
    vertex 6.35 146.04999999999998 203.2
    vertex 37.497715015752746 146.04999999999998 187.9120942037315
    vertex 38.49193900832499 146.04999999999998 187.93978677681915
  endloop
endfacet
facet normal 0.0 -1.0 0.0
  outer loop
    vertex 6.35 146.04999999999998 203.2
    vertex 38.49193900832499 146.04999999999998 187.93978677681915
    vertex 114.3 146.04999999999998 187.96
  endloop
endfacet
facet normal 0.0 -1.0 0.0
  outer loop
    vertex 6.35 146.04999999999998 203.2
    vertex 114.3 146.04999999999998 187.96
    vertex 146.04999999999998 146.04999999999998 203.2
  endloop
endfacet
facet normal 1.0 1.4729587961663674e-18 -1.3804181039440234e-18
  outer loop
    vertex 6.35 76.19999999999999 6.349999999999966
    vertex 6.35 6.350000000000101 25.399999999999963
    vertex 6.35 6.35 6.349999999999966
  endloop
endfacet
facet normal 1.0 1.4729587961663674e-18 -1.3804181039440234e-18
  outer loop
    vertex 6.35 6.350000000000101 25.399999999999963
    vertex 6.35 76.19999999999999 6.349999999999966
    vertex 6.349999999999998 57.15000000000004 63.50000000000002
  endloop
endfacet
facet normal 1.0 1.4729587961663674e-18 -1.3804181039440234e-18
  outer loop
    vertex 6.349999999999998 57.15000000000004 63.50000000000002
    vertex 6.35 76.19999999999999 6.349999999999966
    vertex 6.349999999999998 57.15000000000004 71.02671550418853
  endloop
endfacet
facet normal 1.0 1.4729587961663674e-18 -1.3804181039440234e-18
  outer loop
    vertex 6.35 6.350000000000042 71.02671550418849
    vertex 6.35 146.04999999999998 203.2
    vertex 6.35 6.35 203.2
  endloop
endfacet
facet normal 1.0 1.4729587961663674e-18 -1.3804181039440234e-18
  outer loop
    vertex 6.35 146.04999999999998 203.2
    vertex 6.35 6.350000000000042 71.02671550418849
    vertex 6.349999999999998 57.15000000000004 71.02671550418853
  endloop
endfacet
facet normal 1.0 1.4729587961663674e-18 -1.3804181039440234e-18
  outer loop
    vertex 6.35 146.04999999999998 203.2
    vertex 6.349999999999998 57.15000000000004 71.02671550418853
    vertex 6.35 76.19999999999999 6.349999999999966
  endloop
endfacet
facet normal 1.0 1.4729587961663674e-18 -1.3804181039440234e-18
  outer loop
    vertex 6.35 146.04999999999998 203.2
    vertex 6.35 76.19999999999999 6.349999999999966
    vertex 6.35 146.04999999999998 104.77499999999998
  endloop
endfacet
facet normal 1.0 1.4729587961663674e-18 -1.3804181039440234e-18
  outer loop
    vertex 6.349999999999998 57.15000000000004 63.50000000000002
    vertex 6.35 6.35000000000005 63.49999999999997
    vertex 6.35 6.350000000000101 25.399999999999963
  endloop
endfacet
facet normal 0.0 5.329070518200751e-15 1.0
  outer loop
    vertex 146.04999999999998 1.0151879337172431e-13 25.4
    vertex 6.35 6.350000000000101 25.399999999999963
    vertex 6.35 1.0151879337172431e-13 25.4
  endloop
endfacet
facet normal 0.0 5.329070518200751e-15 1.0
  outer loop
    vertex 6.35 6.350000000000101 25.399999999999963
    vertex 146.04999999999998 1.0151879337172431e-13 25.4
    vertex 146.04999999999998 6.350000000000101 25.399999999999963
  endloop
endfacet
facet normal -1.0 0.0 0.0
  outer loop
    vertex 146.04999999999998 6.350000000000055 63.49999999999997
    vertex 146.04999999999998 1.0151879337172431e-13 25.4
    vertex 146.04999999999998 3.3839597790574766e-14 63.5
  endloop
endfacet
facet normal -1.0 0.0 0.0
  outer loop
    vertex 146.04999999999998 1.0151879337172431e-13 25.4
    vertex 146.04999999999998 6.350000000000055 63.49999999999997
    vertex 146.04999999999998 6.350000000000101 25.399999999999963
  endloop
endfacet
facet normal 1.0 0.0 0.0
  outer loop
    vertex 6.35 1.0151879337172431e-13 25.4
    vertex 6.35 6.35000000000005 63.49999999999997
    vertex 6.35 3.3839597790574766e-14 63.5
  endloop
endfacet
facet normal 1.0 0.0 0.0
  outer loop
    vertex 6.35 6.35000000000005 63.49999999999997
    vertex 6.35 1.0151879337172431e-13 25.4
    vertex 6.35 6.350000000000101 25.399999999999963
  endloop
endfacet
facet normal 0.0 1.0 -5.329070518200751e-15
  outer loop
    vertex 6.35 6.350000000000101 25.399999999999963
    vertex 146.04999999999998 6.35 6.349999999999966
    vertex 6.35 6.35 6.349999999999966
  endloop
endfacet
facet normal 0.0 1.0 -5.329070518200751e-15
  outer loop
    vertex 146.04999999999998 6.35 6.349999999999966
    vertex 6.35 6.350000000000101 25.399999999999963
    vertex 146.04999999999998 6.350000000000101 25.399999999999963
  endloop
endfacet
facet normal -0.536875492193159 -5.9605153278980716e-15 -0.8436614877321076
  outer loop
    vertex 146.04999999999998 57.150000000000055 63.50000000000002
    vertex 76.19999999999999 0.0 107.94999999999999
    vertex 76.19999999999999 57.15000000000002 107.94999999999997
  endloop
endfacet
facet normal -0.536875492193159 -5.9605153278980716e-15 -0.8436614877321076
  outer loop
    vertex 76.19999999999999 0.0 107.94999999999999
    vertex 146.04999999999998 57.150000000000055 63.50000000000002
    vertex 146.04999999999998 3.3839597790574766e-14 63.5
  endloop
endfacet
facet normal -0.536875492193159 -5.9605153278980716e-15 -0.8436614877321076
  outer loop
    vertex 146.04999999999998 3.3839597790574766e-14 63.5
    vertex 146.04999999999998 57.150000000000055 63.50000000000002
    vertex 146.04999999999998 6.350000000000055 63.49999999999997
  endloop
endfacet
facet normal 0.5368754921931591 -5.994575415486065e-15 -0.8436614877321076
  outer loop
    vertex 76.19999999999999 57.15000000000002 107.94999999999997
    vertex 6.35 6.35000000000005 63.49999999999997
    vertex 6.349999999999998 57.15000000000004 63.50000000000002
  endloop
endfacet
facet normal 0.5368754921931591 -5.994575415486065e-15 -0.8436614877321076
  outer loop
    vertex 6.35 6.35000000000005 63.49999999999997
    vertex 76.19999999999999 57.15000000000002 107.94999999999997
    vertex 6.35 3.3839597790574766e-14 63.5
  endloop
endfacet
facet normal 0.5368754921931591 -5.994575415486065e-15 -0.8436614877321076
  outer loop
    vertex 6.35 3.3839597790574766e-14 63.5
    vertex 76.19999999999999 57.15000000000002 107.94999999999997
    vertex 76.19999999999999 0.0 107.94999999999999
  endloop
endfacet
facet normal -0.8517683331163268 -0.0 -0.5239186069421795
  outer loop
    vertex 41.05692665973806 152.39999999999998 186.55264119854178
    vertex 41.578021127814225 146.04999999999998 185.70546425046604
    vertex 41.05692665973806 146.04999999999998 186.55264119854178
  endloop
endfacet
facet normal -0.8517683331163268 -0.0 -0.5239186069421795
  outer loop
    vertex 41.578021127814225 146.04999999999998 185.70546425046604
    vertex 41.05692665973806 152.39999999999998 186.55264119854178
    vertex 41.578021127814225 152.39999999999998 185.70546425046604
  endloop
endfacet
facet normal -0.4756937111467853 -0.0 -0.8796109896854397
  outer loop
    vertex 40.3343225263531 152.39999999999998 187.2360821194892
    vertex 39.45945300518973 146.04999999999998 187.7092116439853
    vertex 39.45945300518973 152.39999999999998 187.7092116439853
  endloop
endfacet
facet normal -0.4756937111467853 -0.0 -0.8796109896854397
  outer loop
    vertex 39.45945300518973 146.04999999999998 187.7092116439853
    vertex 40.3343225263531 152.39999999999998 187.2360821194892
    vertex 40.3343225263531 146.04999999999998 187.2360821194892
  endloop
endfacet
facet normal -0.23182476458788615 -0.0 -0.972757564105143
  outer loop
    vertex 39.45945300518973 152.39999999999998 187.7092116439853
    vertex 38.49193900832499 146.04999999999998 187.93978677681915
    vertex 38.49193900832499 152.39999999999998 187.93978677681915
  endloop
endfacet
facet normal -0.23182476458788615 -0.0 -0.972757564105143
  outer loop
    vertex 38.49193900832499 146.04999999999998 187.93978677681915
    vertex 39.45945300518973 152.39999999999998 187.7092116439853
    vertex 39.45945300518973 146.04999999999998 187.7092116439853
  endloop
endfacet
facet normal 0.027842656569130157 0.0 -0.9996123180889547
  outer loop
    vertex 38.49193900832499 152.39999999999998 187.93978677681915
    vertex 37.497715015752746 146.04999999999998 187.9120942037315
    vertex 37.497715015752746 152.39999999999998 187.9120942037315
  endloop
endfacet
facet normal 0.027842656569130157 0.0 -0.9996123180889547
  outer loop
    vertex 37.497715015752746 146.04999999999998 187.9120942037315
    vertex 38.49193900832499 152.39999999999998 187.93978677681915
    vertex 38.49193900832499 146.04999999999998 187.93978677681915
  endloop
endfacet
facet normal -0.9583451445324694 -0.0 -0.2856126466931053
  outer loop
    vertex 41.578021127814225 152.39999999999998 185.70546425046604
    vertex 41.862094203731516 146.04999999999998 184.75228498424724
    vertex 41.578021127814225 146.04999999999998 185.70546425046604
  endloop
endfacet
facet normal -0.9583451445324694 -0.0 -0.2856126466931053
  outer loop
    vertex 41.862094203731516 146.04999999999998 184.75228498424724
    vertex 41.578021127814225 152.39999999999998 185.70546425046604
    vertex 41.862094203731516 152.39999999999998 184.75228498424724
  endloop
endfacet
facet normal -0.6871449174120278 -0.0 -0.7265203799445805
  outer loop
    vertex 41.05692665973806 152.39999999999998 186.55264119854178
    vertex 40.3343225263531 146.04999999999998 187.2360821194892
    vertex 40.3343225263531 152.39999999999998 187.2360821194892
  endloop
endfacet
facet normal -0.6871449174120278 -0.0 -0.7265203799445805
  outer loop
    vertex 40.3343225263531 146.04999999999998 187.2360821194892
    vertex 41.05692665973806 152.39999999999998 186.55264119854178
    vertex 41.05692665973806 146.04999999999998 186.55264119854178
  endloop
endfacet
facet normal 0.5239186069421837 0.0 -0.8517683331163245
  outer loop
    vertex 36.54453574953396 152.39999999999998 187.6280211278142
    vertex 35.69735880145821 146.04999999999998 187.10692665973804
    vertex 35.69735880145821 152.39999999999998 187.10692665973804
  endloop
endfacet
facet normal 0.5239186069421837 0.0 -0.8517683331163245
  outer loop
    vertex 35.69735880145821 146.04999999999998 187.10692665973804
    vertex 36.54453574953396 152.39999999999998 187.6280211278142
    vertex 36.54453574953396 146.04999999999998 187.6280211278142
  endloop
endfacet
facet normal 0.28561264669309794 0.0 -0.9583451445324714
  outer loop
    vertex 37.497715015752746 152.39999999999998 187.9120942037315
    vertex 36.54453574953396 146.04999999999998 187.6280211278142
    vertex 36.54453574953396 152.39999999999998 187.6280211278142
  endloop
endfacet
facet normal 0.28561264669309794 0.0 -0.9583451445324714
  outer loop
    vertex 36.54453574953396 146.04999999999998 187.6280211278142
    vertex 37.497715015752746 152.39999999999998 187.9120942037315
    vertex 37.497715015752746 146.04999999999998 187.9120942037315
  endloop
endfacet
facet normal -0.9996123180889553 -0.0 -0.027842656569111387
  outer loop
    vertex 41.862094203731516 152.39999999999998 184.75228498424724
    vertex 41.87886992134691 146.04999999999998 184.14999999999998
    vertex 41.862094203731516 146.04999999999998 184.75228498424724
  endloop
endfacet
facet normal -0.9996123180889553 -0.0 -0.027842656569111387
  outer loop
    vertex 41.87886992134691 146.04999999999998 184.14999999999998
    vertex 41.862094203731516 152.39999999999998 184.75228498424724
    vertex 41.87886992134691 152.39999999999998 184.14999999999998
  endloop
endfacet
facet normal 0.9727575641051417 0.0 -0.2318247645878915
  outer loop
    vertex 34.31021322318085 152.39999999999998 184.541939008325
    vertex 34.54078835601469 146.04999999999998 185.50945300518973
    vertex 34.31021322318085 146.04999999999998 184.541939008325
  endloop
endfacet
facet normal 0.9727575641051417 0.0 -0.2318247645878915
  outer loop
    vertex 34.54078835601469 146.04999999999998 185.50945300518973
    vertex 34.31021322318085 152.39999999999998 184.541939008325
    vertex 34.54078835601469 152.39999999999998 185.50945300518973
  endloop
endfacet
facet normal -0.5239186069421862 0.0 0.8517683331163228
  outer loop
    vertex 40.50264119854179 146.04999999999998 181.19307334026195
    vertex 39.65546425046604 152.39999999999998 180.67197887218578
    vertex 39.65546425046604 146.04999999999998 180.67197887218578
  endloop
endfacet
facet normal -0.5239186069421862 0.0 0.8517683331163228
  outer loop
    vertex 39.65546425046604 152.39999999999998 180.67197887218578
    vertex 40.50264119854179 146.04999999999998 181.19307334026195
    vertex 40.50264119854179 152.39999999999998 181.19307334026195
  endloop
endfacet
facet normal 0.8517683331163268 0.0 0.5239186069421795
  outer loop
    vertex 35.143073340261935 152.39999999999998 181.7473588014582
    vertex 34.62197887218577 146.04999999999998 182.59453574953395
    vertex 35.143073340261935 146.04999999999998 181.7473588014582
  endloop
endfacet
facet normal 0.8517683331163268 0.0 0.5239186069421795
  outer loop
    vertex 34.62197887218577 146.04999999999998 182.59453574953395
    vertex 35.143073340261935 152.39999999999998 181.7473588014582
    vertex 34.62197887218577 152.39999999999998 182.59453574953395
  endloop
endfacet
facet normal 0.6871449174120278 0.0 0.7265203799445805
  outer loop
    vertex 35.8656774736469 146.04999999999998 181.06391788051076
    vertex 35.143073340261935 152.39999999999998 181.7473588014582
    vertex 35.143073340261935 146.04999999999998 181.7473588014582
  endloop
endfacet
facet normal 0.6871449174120278 0.0 0.7265203799445805
  outer loop
    vertex 35.143073340261935 152.39999999999998 181.7473588014582
    vertex 35.8656774736469 146.04999999999998 181.06391788051076
    vertex 35.8656774736469 152.39999999999998 181.06391788051076
  endloop
endfacet
facet normal 0.9583451445324694 0.0 0.2856126466931053
  outer loop
    vertex 34.62197887218577 152.39999999999998 182.59453574953395
    vertex 34.33790579626848 146.04999999999998 183.54771501575274
    vertex 34.62197887218577 146.04999999999998 182.59453574953395
  endloop
endfacet
facet normal 0.9583451445324694 0.0 0.2856126466931053
  outer loop
    vertex 34.33790579626848 146.04999999999998 183.54771501575274
    vertex 34.62197887218577 152.39999999999998 182.59453574953395
    vertex 34.33790579626848 152.39999999999998 183.54771501575274
  endloop
endfacet
facet normal 0.2318247645878874 0.0 0.9727575641051426
  outer loop
    vertex 37.708060991675 146.04999999999998 180.36021322318084
    vertex 36.740546994810266 152.39999999999998 180.59078835601468
    vertex 36.740546994810266 146.04999999999998 180.59078835601468
  endloop
endfacet
facet normal 0.2318247645878874 0.0 0.9727575641051426
  outer loop
    vertex 36.740546994810266 152.39999999999998 180.59078835601468
    vertex 37.708060991675 146.04999999999998 180.36021322318084
    vertex 37.708060991675 152.39999999999998 180.36021322318084
  endloop
endfacet
facet normal -0.879610989685447 0.0 0.4756937111467718
  outer loop
    vertex 41.65921164398531 152.39999999999998 182.79054699481028
    vertex 41.18608211948922 146.04999999999998 181.9156774736469
    vertex 41.65921164398531 146.04999999999998 182.79054699481028
  endloop
endfacet
facet normal -0.879610989685447 0.0 0.4756937111467718
  outer loop
    vertex 41.18608211948922 146.04999999999998 181.9156774736469
    vertex 41.65921164398531 152.39999999999998 182.79054699481028
    vertex 41.18608211948922 152.39999999999998 181.9156774736469
  endloop
endfacet
facet normal 0.4756937111467853 0.0 0.8796109896854397
  outer loop
    vertex 36.740546994810266 146.04999999999998 180.59078835601468
    vertex 35.8656774736469 152.39999999999998 181.06391788051076
    vertex 35.8656774736469 146.04999999999998 181.06391788051076
  endloop
endfacet
facet normal 0.4756937111467853 0.0 0.8796109896854397
  outer loop
    vertex 35.8656774736469 152.39999999999998 181.06391788051076
    vertex 36.740546994810266 146.04999999999998 180.59078835601468
    vertex 36.740546994810266 152.39999999999998 180.59078835601468
  endloop
endfacet
facet normal 0.7265203799445751 0.0 -0.6871449174120335
  outer loop
    vertex 35.013917880510775 152.39999999999998 186.3843225263531
    vertex 35.69735880145821 146.04999999999998 187.10692665973804
    vertex 35.013917880510775 146.04999999999998 186.3843225263531
  endloop
endfacet
facet normal 0.7265203799445751 0.0 -0.6871449174120335
  outer loop
    vertex 35.69735880145821 146.04999999999998 187.10692665973804
    vertex 35.013917880510775 152.39999999999998 186.3843225263531
    vertex 35.69735880145821 152.39999999999998 187.10692665973804
  endloop
endfacet
facet normal -0.9996123180889548 -0.0 -0.027842656569130257
  outer loop
    vertex 41.87886992134691 152.39999999999998 184.14999999999998
    vertex 41.88978677681914 146.04999999999998 183.758060991675
    vertex 41.87886992134691 146.04999999999998 184.14999999999998
  endloop
endfacet
facet normal -0.9996123180889548 -0.0 -0.027842656569130257
  outer loop
    vertex 41.88978677681914 146.04999999999998 183.758060991675
    vertex 41.87886992134691 152.39999999999998 184.14999999999998
    vertex 41.88978677681914 152.39999999999998 183.758060991675
  endloop
endfacet
facet normal -0.027842656569107487 0.0 0.9996123180889552
  outer loop
    vertex 38.70228498424724 146.04999999999998 180.38790579626846
    vertex 37.708060991675 152.39999999999998 180.36021322318084
    vertex 37.708060991675 146.04999999999998 180.36021322318084
  endloop
endfacet
facet normal -0.027842656569107487 0.0 0.9996123180889552
  outer loop
    vertex 37.708060991675 152.39999999999998 180.36021322318084
    vertex 38.70228498424724 146.04999999999998 180.38790579626846
    vertex 38.70228498424724 152.39999999999998 180.38790579626846
  endloop
endfacet
facet normal -0.7265203799445722 0.0 0.6871449174120365
  outer loop
    vertex 41.18608211948922 152.39999999999998 181.9156774736469
    vertex 40.50264119854179 146.04999999999998 181.19307334026195
    vertex 41.18608211948922 146.04999999999998 181.9156774736469
  endloop
endfacet
facet normal -0.7265203799445722 0.0 0.6871449174120365
  outer loop
    vertex 40.50264119854179 146.04999999999998 181.19307334026195
    vertex 41.18608211948922 152.39999999999998 181.9156774736469
    vertex 40.50264119854179 152.39999999999998 181.19307334026195
  endloop
endfacet
facet normal -0.9727575641051405 0.0 0.23182476458789664
  outer loop
    vertex 41.88978677681914 152.39999999999998 183.758060991675
    vertex 41.65921164398531 146.04999999999998 182.79054699481028
    vertex 41.88978677681914 146.04999999999998 183.758060991675
  endloop
endfacet
facet normal -0.9727575641051405 0.0 0.23182476458789664
  outer loop
    vertex 41.65921164398531 146.04999999999998 182.79054699481028
    vertex 41.88978677681914 152.39999999999998 183.758060991675
    vertex 41.65921164398531 152.39999999999998 182.79054699481028
  endloop
endfacet
facet normal -0.28561264669311726 0.0 0.9583451445324658
  outer loop
    vertex 39.65546425046604 146.04999999999998 180.67197887218578
    vertex 38.70228498424724 152.39999999999998 180.38790579626846
    vertex 38.70228498424724 146.04999999999998 180.38790579626846
  endloop
endfacet
facet normal -0.28561264669311726 0.0 0.9583451445324658
  outer loop
    vertex 38.70228498424724 152.39999999999998 180.38790579626846
    vertex 39.65546425046604 146.04999999999998 180.67197887218578
    vertex 39.65546425046604 152.39999999999998 180.67197887218578
  endloop
endfacet
facet normal 0.8796109896854419 0.0 -0.47569371114678133
  outer loop
    vertex 34.54078835601469 152.39999999999998 185.50945300518973
    vertex 35.013917880510775 146.04999999999998 186.3843225263531
    vertex 34.54078835601469 146.04999999999998 185.50945300518973
  endloop
endfacet
facet normal 0.8796109896854419 0.0 -0.47569371114678133
  outer loop
    vertex 35.013917880510775 146.04999999999998 186.3843225263531
    vertex 34.54078835601469 152.39999999999998 185.50945300518973
    vertex 35.013917880510775 152.39999999999998 186.3843225263531
  endloop
endfacet
facet normal 0.9996123180889551 0.0 0.027842656569118825
  outer loop
    vertex 34.33790579626848 152.39999999999998 183.54771501575274
    vertex 34.31021322318085 146.04999999999998 184.541939008325
    vertex 34.33790579626848 146.04999999999998 183.54771501575274
  endloop
endfacet
facet normal 0.9996123180889551 0.0 0.027842656569118825
  outer loop
    vertex 34.31021322318085 146.04999999999998 184.541939008325
    vertex 34.33790579626848 152.39999999999998 183.54771501575274
    vertex 34.31021322318085 152.39999999999998 184.541939008325
  endloop
endfacet
facet normal -0.793353340291235 -0.0 -0.6087614290087207
  outer loop
    vertex 116.99407683632073 152.39999999999998 186.84407683632077
    vertex 117.59955678841871 146.04999999999998 186.055
    vertex 116.99407683632073 146.04999999999998 186.84407683632077
  endloop
endfacet
facet normal -0.793353340291235 -0.0 -0.6087614290087207
  outer loop
    vertex 117.59955678841871 146.04999999999998 186.055
    vertex 116.99407683632073 152.39999999999998 186.84407683632077
    vertex 117.59955678841871 152.39999999999998 186.055
  endloop
endfacet
facet normal -0.3826834323650864 -0.0 -0.9238795325112882
  outer loop
    vertex 116.205 152.39999999999998 187.4495567884187
    vertex 115.2861005618406 146.04999999999998 187.83017739816134
    vertex 115.2861005618406 152.39999999999998 187.83017739816134
  endloop
endfacet
facet normal -0.3826834323650864 -0.0 -0.9238795325112882
  outer loop
    vertex 115.2861005618406 146.04999999999998 187.83017739816134
    vertex 116.205 152.39999999999998 187.4495567884187
    vertex 116.205 146.04999999999998 187.4495567884187
  endloop
endfacet
facet normal -0.13052619222005957 -0.0 -0.9914448613738094
  outer loop
    vertex 115.2861005618406 152.39999999999998 187.83017739816134
    vertex 114.3 146.04999999999998 187.96
    vertex 114.3 152.39999999999998 187.96
  endloop
endfacet
facet normal -0.13052619222005957 -0.0 -0.9914448613738094
  outer loop
    vertex 114.3 146.04999999999998 187.96
    vertex 115.2861005618406 152.39999999999998 187.83017739816134
    vertex 115.2861005618406 146.04999999999998 187.83017739816134
  endloop
endfacet
facet normal 0.13052619222005957 0.0 -0.9914448613738094
  outer loop
    vertex 114.3 152.39999999999998 187.96
    vertex 113.31389943815938 146.04999999999998 187.83017739816134
    vertex 113.31389943815938 152.39999999999998 187.83017739816134
  endloop
endfacet
facet normal 0.13052619222005957 0.0 -0.9914448613738094
  outer loop
    vertex 113.31389943815938 146.04999999999998 187.83017739816134
    vertex 114.3 152.39999999999998 187.96
    vertex 114.3 146.04999999999998 187.96
  endloop
endfacet
facet normal 0.3826834323650864 0.0 -0.9238795325112882
  outer loop
    vertex 113.31389943815938 152.39999999999998 187.83017739816134
    vertex 112.395 146.04999999999998 187.4495567884187
    vertex 112.395 152.39999999999998 187.4495567884187
  endloop
endfacet
facet normal 0.3826834323650864 0.0 -0.9238795325112882
  outer loop
    vertex 112.395 146.04999999999998 187.4495567884187
    vertex 113.31389943815938 152.39999999999998 187.83017739816134
    vertex 113.31389943815938 146.04999999999998 187.83017739816134
  endloop
endfacet
facet normal -0.6087614290087066 0.0 0.7933533402912462
  outer loop
    vertex 116.99407683632076 146.04999999999998 181.45592316367922
    vertex 116.205 152.39999999999998 180.85044321158128
    vertex 116.205 146.04999999999998 180.85044321158128
  endloop
endfacet
facet normal -0.6087614290087066 0.0 0.7933533402912462
  outer loop
    vertex 116.205 152.39999999999998 180.85044321158128
    vertex 116.99407683632076 146.04999999999998 181.45592316367922
    vertex 116.99407683632076 152.39999999999998 181.45592316367922
  endloop
endfacet
facet normal -0.9238795325112882 -0.0 -0.3826834323650864
  outer loop
    vertex 117.59955678841871 152.39999999999998 186.055
    vertex 117.98017739816135 146.04999999999998 185.1361005618406
    vertex 117.59955678841871 146.04999999999998 186.055
  endloop
endfacet
facet normal -0.9238795325112882 -0.0 -0.3826834323650864
  outer loop
    vertex 117.98017739816135 146.04999999999998 185.1361005618406
    vertex 117.59955678841871 152.39999999999998 186.055
    vertex 117.98017739816135 152.39999999999998 185.1361005618406
  endloop
endfacet
facet normal 0.6087614290087207 0.0 -0.793353340291235
  outer loop
    vertex 112.395 152.39999999999998 187.4495567884187
    vertex 111.60592316367924 146.04999999999998 186.84407683632074
    vertex 111.60592316367924 152.39999999999998 186.84407683632074
  endloop
endfacet
facet normal 0.6087614290087207 0.0 -0.793353340291235
  outer loop
    vertex 111.60592316367924 146.04999999999998 186.84407683632074
    vertex 112.395 152.39999999999998 187.4495567884187
    vertex 112.395 146.04999999999998 187.4495567884187
  endloop
endfacet
facet normal 0.7933533402912462 0.0 0.6087614290087066
  outer loop
    vertex 111.60592316367924 152.39999999999998 181.45592316367922
    vertex 111.00044321158128 146.04999999999998 182.24499999999998
    vertex 111.60592316367924 146.04999999999998 181.45592316367922
  endloop
endfacet
facet normal 0.7933533402912462 0.0 0.6087614290087066
  outer loop
    vertex 111.00044321158128 146.04999999999998 182.24499999999998
    vertex 111.60592316367924 152.39999999999998 181.45592316367922
    vertex 111.00044321158128 152.39999999999998 182.24499999999998
  endloop
endfacet
facet normal 0.9238795325112882 0.0 0.3826834323650864
  outer loop
    vertex 111.00044321158128 152.39999999999998 182.24499999999998
    vertex 110.61982260183865 146.04999999999998 183.16389943815938
    vertex 111.00044321158128 146.04999999999998 182.24499999999998
  endloop
endfacet
facet normal 0.9238795325112882 0.0 0.3826834323650864
  outer loop
    vertex 110.61982260183865 146.04999999999998 183.16389943815938
    vertex 111.00044321158128 152.39999999999998 182.24499999999998
    vertex 110.61982260183865 152.39999999999998 183.16389943815938
  endloop
endfacet
facet normal 0.3826834323650864 0.0 0.9238795325112882
  outer loop
    vertex 113.31389943815938 146.04999999999998 180.46982260183864
    vertex 112.395 152.39999999999998 180.85044321158128
    vertex 112.395 146.04999999999998 180.85044321158128
  endloop
endfacet
facet normal 0.3826834323650864 0.0 0.9238795325112882
  outer loop
    vertex 112.395 152.39999999999998 180.85044321158128
    vertex 113.31389943815938 146.04999999999998 180.46982260183864
    vertex 113.31389943815938 152.39999999999998 180.46982260183864
  endloop
endfacet
facet normal -0.3826834323650864 0.0 0.9238795325112882
  outer loop
    vertex 116.205 146.04999999999998 180.85044321158128
    vertex 115.2861005618406 152.39999999999998 180.46982260183864
    vertex 115.2861005618406 146.04999999999998 180.46982260183864
  endloop
endfacet
facet normal -0.3826834323650864 0.0 0.9238795325112882
  outer loop
    vertex 115.2861005618406 152.39999999999998 180.46982260183864
    vertex 116.205 146.04999999999998 180.85044321158128
    vertex 116.205 152.39999999999998 180.85044321158128
  endloop
endfacet
facet normal -0.9238795325112882 0.0 0.3826834323650864
  outer loop
    vertex 117.98017739816135 152.39999999999998 183.16389943815938
    vertex 117.59955678841871 146.04999999999998 182.24499999999998
    vertex 117.98017739816135 146.04999999999998 183.16389943815938
  endloop
endfacet
facet normal -0.9238795325112882 0.0 0.3826834323650864
  outer loop
    vertex 117.59955678841871 146.04999999999998 182.24499999999998
    vertex 117.98017739816135 152.39999999999998 183.16389943815938
    vertex 117.59955678841871 152.39999999999998 182.24499999999998
  endloop
endfacet
facet normal 0.9914448613738094 0.0 0.13052619222005957
  outer loop
    vertex 110.61982260183865 152.39999999999998 183.16389943815938
    vertex 110.48999999999998 146.04999999999998 184.14999999999998
    vertex 110.61982260183865 146.04999999999998 183.16389943815938
  endloop
endfacet
facet normal 0.9914448613738094 0.0 0.13052619222005957
  outer loop
    vertex 110.48999999999998 146.04999999999998 184.14999999999998
    vertex 110.61982260183865 152.39999999999998 183.16389943815938
    vertex 110.48999999999998 152.39999999999998 184.14999999999998
  endloop
endfacet
facet normal -0.9914448613738094 -0.0 -0.13052619222005957
  outer loop
    vertex 117.98017739816135 152.39999999999998 185.1361005618406
    vertex 118.11 146.04999999999998 184.14999999999998
    vertex 117.98017739816135 146.04999999999998 185.1361005618406
  endloop
endfacet
facet normal -0.9914448613738094 -0.0 -0.13052619222005957
  outer loop
    vertex 118.11 146.04999999999998 184.14999999999998
    vertex 117.98017739816135 152.39999999999998 185.1361005618406
    vertex 118.11 152.39999999999998 184.14999999999998
  endloop
endfacet
facet normal -0.6087614290087174 -0.0 -0.7933533402912376
  outer loop
    vertex 116.99407683632073 152.39999999999998 186.84407683632077
    vertex 116.205 146.04999999999998 187.4495567884187
    vertex 116.205 152.39999999999998 187.4495567884187
  endloop
endfacet
facet normal -0.6087614290087174 -0.0 -0.7933533402912376
  outer loop
    vertex 116.205 146.04999999999998 187.4495567884187
    vertex 116.99407683632073 152.39999999999998 186.84407683632077
    vertex 116.99407683632073 146.04999999999998 186.84407683632077
  endloop
endfacet
facet normal 0.9914448613738094 0.0 -0.13052619222005957
  outer loop
    vertex 110.48999999999998 152.39999999999998 184.14999999999998
    vertex 110.61982260183865 146.04999999999998 185.1361005618406
    vertex 110.48999999999998 146.04999999999998 184.14999999999998
  endloop
endfacet
facet normal 0.9914448613738094 0.0 -0.13052619222005957
  outer loop
    vertex 110.61982260183865 146.04999999999998 185.1361005618406
    vertex 110.48999999999998 152.39999999999998 184.14999999999998
    vertex 110.61982260183865 152.39999999999998 185.1361005618406
  endloop
endfacet
facet normal 0.6087614290087066 0.0 0.7933533402912462
  outer loop
    vertex 112.395 146.04999999999998 180.85044321158128
    vertex 111.60592316367924 152.39999999999998 181.45592316367922
    vertex 111.60592316367924 146.04999999999998 181.45592316367922
  endloop
endfacet
facet normal 0.6087614290087066 0.0 0.7933533402912462
  outer loop
    vertex 111.60592316367924 152.39999999999998 181.45592316367922
    vertex 112.395 146.04999999999998 180.85044321158128
    vertex 112.395 152.39999999999998 180.85044321158128
  endloop
endfacet
facet normal -0.9914448613738094 0.0 0.13052619222005957
  outer loop
    vertex 118.11 152.39999999999998 184.14999999999998
    vertex 117.98017739816135 146.04999999999998 183.16389943815938
    vertex 118.11 146.04999999999998 184.14999999999998
  endloop
endfacet
facet normal -0.9914448613738094 0.0 0.13052619222005957
  outer loop
    vertex 117.98017739816135 146.04999999999998 183.16389943815938
    vertex 118.11 152.39999999999998 184.14999999999998
    vertex 117.98017739816135 152.39999999999998 183.16389943815938
  endloop
endfacet
facet normal 0.13052619222005957 0.0 0.9914448613738094
  outer loop
    vertex 114.3 146.04999999999998 180.33999999999997
    vertex 113.31389943815938 152.39999999999998 180.46982260183864
    vertex 113.31389943815938 146.04999999999998 180.46982260183864
  endloop
endfacet
facet normal 0.13052619222005957 0.0 0.9914448613738094
  outer loop
    vertex 113.31389943815938 152.39999999999998 180.46982260183864
    vertex 114.3 146.04999999999998 180.33999999999997
    vertex 114.3 152.39999999999998 180.33999999999997
  endloop
endfacet
facet normal -0.7933533402912462 0.0 0.6087614290087066
  outer loop
    vertex 117.59955678841871 152.39999999999998 182.24499999999998
    vertex 116.99407683632076 146.04999999999998 181.45592316367922
    vertex 117.59955678841871 146.04999999999998 182.24499999999998
  endloop
endfacet
facet normal -0.7933533402912462 0.0 0.6087614290087066
  outer loop
    vertex 116.99407683632076 146.04999999999998 181.45592316367922
    vertex 117.59955678841871 152.39999999999998 182.24499999999998
    vertex 116.99407683632076 152.39999999999998 181.45592316367922
  endloop
endfacet
facet normal -0.13052619222005957 0.0 0.9914448613738094
  outer loop
    vertex 115.2861005618406 146.04999999999998 180.46982260183864
    vertex 114.3 152.39999999999998 180.33999999999997
    vertex 114.3 146.04999999999998 180.33999999999997
  endloop
endfacet
facet normal -0.13052619222005957 0.0 0.9914448613738094
  outer loop
    vertex 114.3 152.39999999999998 180.33999999999997
    vertex 115.2861005618406 146.04999999999998 180.46982260183864
    vertex 115.2861005618406 152.39999999999998 180.46982260183864
  endloop
endfacet
facet normal 0.7933533402912376 0.0 -0.6087614290087174
  outer loop
    vertex 111.00044321158128 152.39999999999998 186.055
    vertex 111.60592316367924 146.04999999999998 186.84407683632074
    vertex 111.00044321158128 146.04999999999998 186.055
  endloop
endfacet
facet normal 0.7933533402912376 0.0 -0.6087614290087174
  outer loop
    vertex 111.60592316367924 146.04999999999998 186.84407683632074
    vertex 111.00044321158128 152.39999999999998 186.055
    vertex 111.60592316367924 152.39999999999998 186.84407683632074
  endloop
endfacet
facet normal 0.9238795325112882 0.0 -0.3826834323650864
  outer loop
    vertex 110.61982260183865 152.39999999999998 185.1361005618406
    vertex 111.00044321158128 146.04999999999998 186.055
    vertex 110.61982260183865 146.04999999999998 185.1361005618406
  endloop
endfacet
facet normal 0.9238795325112882 0.0 -0.3826834323650864
  outer loop
    vertex 111.00044321158128 146.04999999999998 186.055
    vertex 110.61982260183865 152.39999999999998 185.1361005618406
    vertex 111.00044321158128 152.39999999999998 186.055
  endloop
endfacet
endsolid Untitled-62201b40
