solid C Bolt Holder
facet normal 0.9990561583550596 0.0 -0.04343722427630694
  outer loop
    vertex 36.512499999999996 -11.112499999999999 1.5875
    vertex 38.099999999999994 38.099999999999994 38.099999999999994
    vertex 38.099999999999994 -12.7 38.099999999999994
  endloop
endfacet
facet normal 0.9990561583550596 0.0 -0.04343722427630694
  outer loop
    vertex 38.099999999999994 38.099999999999994 38.099999999999994
    vertex 36.512499999999996 -11.112499999999999 1.5875
    vertex 36.512499999999996 36.512499999999996 1.5875
  endloop
endfacet
facet normal -0.9990561583550596 0.0 -0.04343722427630694
  outer loop
    vertex -12.7 38.099999999999994 38.099999999999994
    vertex -11.112499999999999 -11.112499999999999 1.5875
    vertex -12.7 -12.7 38.099999999999994
  endloop
endfacet
facet normal -0.9990561583550596 0.0 -0.04343722427630694
  outer loop
    vertex -11.112499999999999 -11.112499999999999 1.5875
    vertex -12.7 38.099999999999994 38.099999999999994
    vertex -11.112499999999999 36.512499999999996 1.5875
  endloop
endfacet
facet normal -0.7071067811865476 0.0 0.7071067811865476
  outer loop
    vertex 36.512499999999996 25.399999999999988 44.449999999999996
    vertex 30.162499999999998 0.0 38.099999999999994
    vertex 36.512499999999996 0.0 44.449999999999996
  endloop
endfacet
facet normal -0.7071067811865476 0.0 0.7071067811865476
  outer loop
    vertex 30.162499999999998 0.0 38.099999999999994
    vertex 36.512499999999996 25.399999999999988 44.449999999999996
    vertex 30.162499999999998 25.399999999999988 38.099999999999994
  endloop
endfacet
facet normal 0.0 0.0 1.0
  outer loop
    vertex -12.7 -12.7 44.449999999999996
    vertex -11.112499999999999 -11.112499999999999 44.449999999999996
    vertex -12.7 38.099999999999994 44.449999999999996
  endloop
endfacet
facet normal 0.0 0.0 1.0
  outer loop
    vertex -11.112499999999999 -11.112499999999999 44.449999999999996
    vertex -12.7 -12.7 44.449999999999996
    vertex 38.099999999999994 -12.7 44.449999999999996
  endloop
endfacet
facet normal 0.0 0.0 1.0
  outer loop
    vertex -11.112499999999999 -11.112499999999999 44.449999999999996
    vertex 38.099999999999994 -12.7 44.449999999999996
    vertex 36.512499999999996 -11.112499999999999 44.449999999999996
  endloop
endfacet
facet normal 0.0 0.0 1.0
  outer loop
    vertex 36.512499999999996 -11.112499999999999 44.449999999999996
    vertex 38.099999999999994 -12.7 44.449999999999996
    vertex 36.512499999999996 0.0 44.449999999999996
  endloop
endfacet
facet normal 0.0 0.0 1.0
  outer loop
    vertex 36.512499999999996 0.0 44.449999999999996
    vertex 38.099999999999994 -12.7 44.449999999999996
    vertex 36.512499999999996 25.399999999999988 44.449999999999996
  endloop
endfacet
facet normal 0.0 0.0 1.0
  outer loop
    vertex 36.512499999999996 25.399999999999988 44.449999999999996
    vertex 38.099999999999994 -12.7 44.449999999999996
    vertex 36.512499999999996 36.512499999999996 44.449999999999996
  endloop
endfacet
facet normal 0.0 0.0 1.0
  outer loop
    vertex -12.7 38.099999999999994 44.449999999999996
    vertex -11.112499999999999 36.512499999999996 44.449999999999996
    vertex 38.099999999999994 38.099999999999994 44.449999999999996
  endloop
endfacet
facet normal 0.0 0.0 1.0
  outer loop
    vertex -11.112499999999999 36.512499999999996 44.449999999999996
    vertex -12.7 38.099999999999994 44.449999999999996
    vertex -11.112499999999999 -11.112499999999999 44.449999999999996
  endloop
endfacet
facet normal 0.0 0.0 1.0
  outer loop
    vertex 38.099999999999994 38.099999999999994 44.449999999999996
    vertex -11.112499999999999 36.512499999999996 44.449999999999996
    vertex 36.512499999999996 36.512499999999996 44.449999999999996
  endloop
endfacet
facet normal 0.0 0.0 1.0
  outer loop
    vertex 38.099999999999994 38.099999999999994 44.449999999999996
    vertex 36.512499999999996 36.512499999999996 44.449999999999996
    vertex 38.099999999999994 -12.7 44.449999999999996
  endloop
endfacet
facet normal 0.9990561583550596 0.0 0.04343722427630694
  outer loop
    vertex -9.524999999999999 -9.524999999999999 1.5875
    vertex -11.112499999999999 36.512499999999996 38.099999999999994
    vertex -11.112499999999999 -11.112499999999999 38.099999999999994
  endloop
endfacet
facet normal 0.9990561583550596 0.0 0.04343722427630694
  outer loop
    vertex -11.112499999999999 36.512499999999996 38.099999999999994
    vertex -9.524999999999999 -9.524999999999999 1.5875
    vertex -9.524999999999999 34.925 1.5875
  endloop
endfacet
facet normal -1.0 0.0 0.0
  outer loop
    vertex -11.112499999999999 36.512499999999996 1.5875
    vertex -11.112499999999999 -11.112499999999999 0.0
    vertex -11.112499999999999 -11.112499999999999 1.5875
  endloop
endfacet
facet normal -1.0 0.0 0.0
  outer loop
    vertex -11.112499999999999 -11.112499999999999 0.0
    vertex -11.112499999999999 36.512499999999996 1.5875
    vertex -11.112499999999999 36.512499999999996 0.0
  endloop
endfacet
facet normal 0.0 0.0 1.0
  outer loop
    vertex 34.925 -9.524999999999999 1.5875
    vertex -9.524999999999999 34.925 1.5875
    vertex -9.524999999999999 -9.524999999999999 1.5875
  endloop
endfacet
facet normal 0.0 0.0 1.0
  outer loop
    vertex -9.524999999999999 34.925 1.5875
    vertex 34.925 -9.524999999999999 1.5875
    vertex 34.925 34.925 1.5875
  endloop
endfacet
facet normal -0.9990561583550596 1.4125330779530744e-19 0.04343722427630694
  outer loop
    vertex 36.512499999999996 0.0 38.099999999999994
    vertex 34.925 -9.524999999999999 1.5875
    vertex 36.512499999999996 -11.112499999999999 38.099999999999994
  endloop
endfacet
facet normal -0.9990561583550596 1.4125330779530744e-19 0.04343722427630694
  outer loop
    vertex 34.925 -9.524999999999999 1.5875
    vertex 36.512499999999996 0.0 38.099999999999994
    vertex 36.236933471757254 0.2755665282427443 31.76196985041689
  endloop
endfacet
facet normal -0.9990561583550596 1.4125330779530744e-19 0.04343722427630694
  outer loop
    vertex 34.925 -9.524999999999999 1.5875
    vertex 36.236933471757254 0.2755665282427443 31.76196985041689
    vertex 34.925 34.925 1.5875
  endloop
endfacet
facet normal -0.9990561583550596 1.4125330779530744e-19 0.04343722427630694
  outer loop
    vertex 34.925 34.925 1.5875
    vertex 36.236933471757254 0.2755665282427443 31.76196985041689
    vertex 36.236933471757254 25.12443347175723 31.76196985041689
  endloop
endfacet
facet normal -0.9990561583550596 1.4125330779530744e-19 0.04343722427630694
  outer loop
    vertex 34.925 34.925 1.5875
    vertex 36.236933471757254 25.12443347175723 31.76196985041689
    vertex 36.512499999999996 25.399999999999988 38.099999999999994
  endloop
endfacet
facet normal -0.9990561583550596 1.4125330779530744e-19 0.04343722427630694
  outer loop
    vertex 34.925 34.925 1.5875
    vertex 36.512499999999996 25.399999999999988 38.099999999999994
    vertex 36.512499999999996 36.512499999999996 38.099999999999994
  endloop
endfacet
facet normal 0.0 1.0 0.0
  outer loop
    vertex -11.112499999999999 36.512499999999996 1.5875
    vertex 36.512499999999996 36.512499999999996 0.0
    vertex -11.112499999999999 36.512499999999996 0.0
  endloop
endfacet
facet normal 0.0 1.0 0.0
  outer loop
    vertex 36.512499999999996 36.512499999999996 0.0
    vertex -11.112499999999999 36.512499999999996 1.5875
    vertex 36.512499999999996 36.512499999999996 1.5875
  endloop
endfacet
facet normal 0.0 -1.0 0.0
  outer loop
    vertex 36.512499999999996 -11.112499999999999 1.5875
    vertex -11.112499999999999 -11.112499999999999 0.0
    vertex 36.512499999999996 -11.112499999999999 0.0
  endloop
endfacet
facet normal 0.0 -1.0 0.0
  outer loop
    vertex -11.112499999999999 -11.112499999999999 0.0
    vertex 36.512499999999996 -11.112499999999999 1.5875
    vertex -11.112499999999999 -11.112499999999999 1.5875
  endloop
endfacet
facet normal 1.0 0.0 0.0
  outer loop
    vertex 36.512499999999996 36.512499999999996 0.0
    vertex 36.512499999999996 -11.112499999999999 1.5875
    vertex 36.512499999999996 -11.112499999999999 0.0
  endloop
endfacet
facet normal 1.0 0.0 0.0
  outer loop
    vertex 36.512499999999996 -11.112499999999999 1.5875
    vertex 36.512499999999996 36.512499999999996 0.0
    vertex 36.512499999999996 36.512499999999996 1.5875
  endloop
endfacet
facet normal 0.0 0.0 -1.0
  outer loop
    vertex 36.512499999999996 36.512499999999996 0.0
    vertex -11.112499999999999 -11.112499999999999 0.0
    vertex -11.112499999999999 36.512499999999996 0.0
  endloop
endfacet
facet normal 0.0 0.0 -1.0
  outer loop
    vertex -11.112499999999999 -11.112499999999999 0.0
    vertex 36.512499999999996 36.512499999999996 0.0
    vertex 36.512499999999996 -11.112499999999999 0.0
  endloop
endfacet
facet normal -1.0 0.0 0.0
  outer loop
    vertex -12.7 38.099999999999994 44.449999999999996
    vertex -12.7 -12.7 38.099999999999994
    vertex -12.7 -12.7 44.449999999999996
  endloop
endfacet
facet normal -1.0 0.0 0.0
  outer loop
    vertex -12.7 -12.7 38.099999999999994
    vertex -12.7 38.099999999999994 44.449999999999996
    vertex -12.7 38.099999999999994 38.099999999999994
  endloop
endfacet
facet normal 1.0 0.0 0.0
  outer loop
    vertex -11.112499999999999 36.512499999999996 38.099999999999994
    vertex -11.112499999999999 -11.112499999999999 44.449999999999996
    vertex -11.112499999999999 -11.112499999999999 38.099999999999994
  endloop
endfacet
facet normal 1.0 0.0 0.0
  outer loop
    vertex -11.112499999999999 -11.112499999999999 44.449999999999996
    vertex -11.112499999999999 36.512499999999996 38.099999999999994
    vertex -11.112499999999999 36.512499999999996 44.449999999999996
  endloop
endfacet
facet normal -1.0 0.0 0.0
  outer loop
    vertex 36.512499999999996 0.0 44.449999999999996
    vertex 36.512499999999996 -11.112499999999999 38.099999999999994
    vertex 36.512499999999996 -11.112499999999999 44.449999999999996
  endloop
endfacet
facet normal -1.0 0.0 0.0
  outer loop
    vertex 36.512499999999996 -11.112499999999999 38.099999999999994
    vertex 36.512499999999996 0.0 44.449999999999996
    vertex 36.512499999999996 0.0 38.099999999999994
  endloop
endfacet
facet normal 1.0 0.0 0.0
  outer loop
    vertex 38.099999999999994 38.099999999999994 38.099999999999994
    vertex 38.099999999999994 -12.7 44.449999999999996
    vertex 38.099999999999994 -12.7 38.099999999999994
  endloop
endfacet
facet normal 1.0 0.0 0.0
  outer loop
    vertex 38.099999999999994 -12.7 44.449999999999996
    vertex 38.099999999999994 38.099999999999994 38.099999999999994
    vertex 38.099999999999994 38.099999999999994 44.449999999999996
  endloop
endfacet
facet normal -1.0 0.0 0.0
  outer loop
    vertex 36.512499999999996 36.512499999999996 44.449999999999996
    vertex 36.512499999999996 25.399999999999988 38.099999999999994
    vertex 36.512499999999996 25.399999999999988 44.449999999999996
  endloop
endfacet
facet normal -1.0 0.0 0.0
  outer loop
    vertex 36.512499999999996 25.399999999999988 38.099999999999994
    vertex 36.512499999999996 36.512499999999996 44.449999999999996
    vertex 36.512499999999996 36.512499999999996 38.099999999999994
  endloop
endfacet
facet normal 0.0 1.0 0.0
  outer loop
    vertex 36.512499999999996 25.399999999999988 44.449999999999996
    vertex 36.512499999999996 25.399999999999988 38.099999999999994
    vertex 30.162499999999998 25.399999999999988 38.099999999999994
  endloop
endfacet
facet normal 5.2189154471575315e-18 0.9990561583550596 -0.04343722427630922
  outer loop
    vertex 36.512499999999996 25.399999999999988 38.099999999999994
    vertex 36.236933471757254 25.12443347175723 31.76196985041689
    vertex 30.162499999999998 25.399999999999988 38.099999999999994
  endloop
endfacet
facet normal -0.7219604408453252 -1.916259962562257e-18 -0.6919343334843444
  outer loop
    vertex 30.162499999999998 25.399999999999988 38.099999999999994
    vertex 36.236933471757254 0.2755665282427443 31.76196985041689
    vertex 30.162499999999998 0.0 38.099999999999994
  endloop
endfacet
facet normal -0.7219604408453252 -1.916259962562257e-18 -0.6919343334843444
  outer loop
    vertex 36.236933471757254 0.2755665282427443 31.76196985041689
    vertex 30.162499999999998 25.399999999999988 38.099999999999994
    vertex 36.236933471757254 25.12443347175723 31.76196985041689
  endloop
endfacet
facet normal 0.0 -0.9990561583550596 0.04343722427630694
  outer loop
    vertex 36.512499999999996 36.512499999999996 38.099999999999994
    vertex -9.524999999999999 34.925 1.5875
    vertex 34.925 34.925 1.5875
  endloop
endfacet
facet normal 0.0 -0.9990561583550596 0.04343722427630694
  outer loop
    vertex -9.524999999999999 34.925 1.5875
    vertex 36.512499999999996 36.512499999999996 38.099999999999994
    vertex -11.112499999999999 36.512499999999996 38.099999999999994
  endloop
endfacet
facet normal 0.0 -1.0 0.0
  outer loop
    vertex 36.512499999999996 36.512499999999996 44.449999999999996
    vertex -11.112499999999999 36.512499999999996 38.099999999999994
    vertex 36.512499999999996 36.512499999999996 38.099999999999994
  endloop
endfacet
facet normal 0.0 -1.0 0.0
  outer loop
    vertex -11.112499999999999 36.512499999999996 38.099999999999994
    vertex 36.512499999999996 36.512499999999996 44.449999999999996
    vertex -11.112499999999999 36.512499999999996 44.449999999999996
  endloop
endfacet
facet normal 0.0 1.0 0.0
  outer loop
    vertex -11.112499999999999 -11.112499999999999 44.449999999999996
    vertex 36.512499999999996 -11.112499999999999 38.099999999999994
    vertex -11.112499999999999 -11.112499999999999 38.099999999999994
  endloop
endfacet
facet normal 0.0 1.0 0.0
  outer loop
    vertex 36.512499999999996 -11.112499999999999 38.099999999999994
    vertex -11.112499999999999 -11.112499999999999 44.449999999999996
    vertex 36.512499999999996 -11.112499999999999 44.449999999999996
  endloop
endfacet
facet normal 0.0 0.9990561583550596 0.04343722427630694
  outer loop
    vertex -11.112499999999999 -11.112499999999999 38.099999999999994
    vertex 34.925 -9.524999999999999 1.5875
    vertex -9.524999999999999 -9.524999999999999 1.5875
  endloop
endfacet
facet normal 0.0 0.9990561583550596 0.04343722427630694
  outer loop
    vertex 34.925 -9.524999999999999 1.5875
    vertex -11.112499999999999 -11.112499999999999 38.099999999999994
    vertex 36.512499999999996 -11.112499999999999 38.099999999999994
  endloop
endfacet
facet normal 0.0 1.0 0.0
  outer loop
    vertex -12.7 38.099999999999994 44.449999999999996
    vertex 38.099999999999994 38.099999999999994 38.099999999999994
    vertex -12.7 38.099999999999994 38.099999999999994
  endloop
endfacet
facet normal 0.0 1.0 0.0
  outer loop
    vertex 38.099999999999994 38.099999999999994 38.099999999999994
    vertex -12.7 38.099999999999994 44.449999999999996
    vertex 38.099999999999994 38.099999999999994 44.449999999999996
  endloop
endfacet
facet normal 0.0 0.9990561583550596 -0.04343722427630694
  outer loop
    vertex -12.7 38.099999999999994 38.099999999999994
    vertex 36.512499999999996 36.512499999999996 1.5875
    vertex -11.112499999999999 36.512499999999996 1.5875
  endloop
endfacet
facet normal 0.0 0.9990561583550596 -0.04343722427630694
  outer loop
    vertex 36.512499999999996 36.512499999999996 1.5875
    vertex -12.7 38.099999999999994 38.099999999999994
    vertex 38.099999999999994 38.099999999999994 38.099999999999994
  endloop
endfacet
facet normal 0.0 -1.0 0.0
  outer loop
    vertex 38.099999999999994 -12.7 44.449999999999996
    vertex -12.7 -12.7 38.099999999999994
    vertex 38.099999999999994 -12.7 38.099999999999994
  endloop
endfacet
facet normal 0.0 -1.0 0.0
  outer loop
    vertex -12.7 -12.7 38.099999999999994
    vertex 38.099999999999994 -12.7 44.449999999999996
    vertex -12.7 -12.7 44.449999999999996
  endloop
endfacet
facet normal 0.0 -0.9990561583550596 -0.04343722427630694
  outer loop
    vertex 38.099999999999994 -12.7 38.099999999999994
    vertex -11.112499999999999 -11.112499999999999 1.5875
    vertex 36.512499999999996 -11.112499999999999 1.5875
  endloop
endfacet
facet normal 0.0 -0.9990561583550596 -0.04343722427630694
  outer loop
    vertex -11.112499999999999 -11.112499999999999 1.5875
    vertex 38.099999999999994 -12.7 38.099999999999994
    vertex -12.7 -12.7 38.099999999999994
  endloop
endfacet
facet normal 0.0 -1.0 0.0
  outer loop
    vertex 36.512499999999996 0.0 44.449999999999996
    vertex 30.162499999999998 0.0 38.099999999999994
    vertex 36.512499999999996 0.0 38.099999999999994
  endloop
endfacet
facet normal 5.218915447157531e-18 -0.9990561583550596 -0.043437224276307
  outer loop
    vertex 30.162499999999998 0.0 38.099999999999994
    vertex 36.236933471757254 0.2755665282427443 31.76196985041689
    vertex 36.512499999999996 0.0 38.099999999999994
  endloop
endfacet
endsolid C Bolt Holder
