solid Untitled-5fd2c691
facet normal 0.3557308664137417 -0.8588102822507878 -0.3686467818669395
  outer loop
    vertex 237.78139059744416 53.242296667268114 131.99999999999994
    vertex 221.91106999999994 51.871139469336995 119.88
    vertex 236.52663586678713 57.92510507311755 119.88
  endloop
endfacet
facet normal 0.7374771083499432 -0.5658860882535961 -0.3686467818669374
  outer loop
    vertex 209.36039906009512 42.24067093990478 119.88
    vertex 203.92842168820985 27.26600000000001 131.99999999999994
    vertex 199.72993053066293 29.69000000000003 119.88
  endloop
endfacet
facet normal -0.7374771083499442 -0.5658860882535952 -0.3686467818669369
  outer loop
    vertex 291.6336872647123 38.812617264712415 131.99999999999994
    vertex 304.6922094693369 29.689999999999998 119.88
    vertex 300.49371831178996 27.266 131.99999999999994
  endloop
endfacet
facet normal 0.9216169546673377 -0.1213331739008455 -0.3686467818669382
  outer loop
    vertex 193.67596492688236 15.07443413321278 119.88
    vertex 198.35877333273177 13.819679402555751 131.99999999999994
    vertex 196.4590699999999 -0.6099999999999881 131.99999999999994
  endloop
endfacet
facet normal 0.8588102822507881 -0.35573086641374224 -0.3686467818669382
  outer loop
    vertex 199.72993053066293 29.69000000000003 119.88
    vertex 198.35877333273177 13.819679402555751 131.99999999999994
    vertex 193.67596492688236 15.07443413321278 119.88
  endloop
endfacet
facet normal 0.7374771083499441 -0.5658860882535957 -0.36864678186693633
  outer loop
    vertex 209.36039906009512 42.24067093990478 119.88
    vertex 212.7884527352875 38.812617264712415 131.99999999999994
    vertex 203.92842168820985 27.26600000000001 131.99999999999994
  endloop
endfacet
facet normal -0.565886088253595 -0.7374771083499444 -0.36864678186693706
  outer loop
    vertex 280.08706999999987 47.67264831179003 131.99999999999994
    vertex 282.51106999999996 51.87113946933699 119.88
    vertex 291.6336872647123 38.812617264712415 131.99999999999994
  endloop
endfacet
facet normal 0.8588102822507891 -0.35573086641374135 -0.36864678186693695
  outer loop
    vertex 199.72993053066293 29.69000000000003 119.88
    vertex 203.92842168820985 27.26600000000001 131.99999999999994
    vertex 198.35877333273177 13.819679402555751 131.99999999999994
  endloop
endfacet
facet normal 0.35573086641373974 -0.8588102822507898 -0.36864678186693667
  outer loop
    vertex 224.33506999999992 47.67264831179004 131.99999999999994
    vertex 221.91106999999994 51.871139469336995 119.88
    vertex 237.78139059744416 53.242296667268114 131.99999999999994
  endloop
endfacet
facet normal 0.12105700891445309 0.9195192733361625 0.3739378378233763
  outer loop
    vertex 266.8812440592649 54.139834945055924 131.99999999999994
    vertex 268.1569113687662 58.9006901576695 119.88
    vertex 252.2110699999999 56.07119999999998 131.99999999999994
  endloop
endfacet
facet normal 0.5658860882535953 -0.7374771083499445 -0.36864678186693633
  outer loop
    vertex 212.7884527352875 38.812617264712415 131.99999999999994
    vertex 209.36039906009512 42.24067093990478 119.88
    vertex 224.33506999999992 47.67264831179004 131.99999999999994
  endloop
endfacet
facet normal -0.9216169546673377 -0.12133317390084498 -0.3686467818669381
  outer loop
    vertex 310.74617507311746 15.074434133212762 119.88
    vertex 312.81106999999986 -0.6099999999999949 119.88
    vertex 306.06336666726804 13.819679402555732 131.99999999999994
  endloop
endfacet
facet normal 0.12133317390084618 -0.921616954667337 -0.36864678186693967
  outer loop
    vertex 237.78139059744416 53.242296667268114 131.99999999999994
    vertex 236.52663586678713 57.92510507311755 119.88
    vertex 252.2110699999999 55.141999999999996 131.99999999999994
  endloop
endfacet
facet normal -0.858810282250789 -0.3557308664137404 -0.36864678186693833
  outer loop
    vertex 300.49371831178996 27.266 131.99999999999994
    vertex 310.74617507311746 15.074434133212762 119.88
    vertex 306.06336666726804 13.819679402555732 131.99999999999994
  endloop
endfacet
facet normal -0.921616954667338 -0.12133317390084564 -0.36864678186693745
  outer loop
    vertex 306.06336666726804 13.819679402555732 131.99999999999994
    vertex 312.81106999999986 -0.6099999999999949 119.88
    vertex 307.9630699999999 -0.6099999999999949 131.99999999999994
  endloop
endfacet
facet normal 0.5658860882535958 -0.7374771083499438 -0.36864678186693706
  outer loop
    vertex 224.33506999999992 47.67264831179004 131.99999999999994
    vertex 209.36039906009512 42.24067093990478 119.88
    vertex 221.91106999999994 51.871139469336995 119.88
  endloop
endfacet
facet normal 0.12133317390084498 -0.9216169546673377 -0.3686467818669382
  outer loop
    vertex 252.2110699999999 55.141999999999996 131.99999999999994
    vertex 236.52663586678713 57.92510507311755 119.88
    vertex 252.2110699999999 59.99000000000001 119.88
  endloop
endfacet
facet normal -0.12133317390084475 -0.9216169546673372 -0.3686467818669396
  outer loop
    vertex 266.6407494025557 53.242296667268114 131.99999999999994
    vertex 252.2110699999999 59.99000000000001 119.88
    vertex 267.8955041332126 57.92510507311755 119.88
  endloop
endfacet
facet normal 0.9195192733361636 0.1210570089144519 0.3739378378233741
  outer loop
    vertex 311.7217601576694 15.335841368766307 119.88
    vertex 306.96090494505586 14.060174059264996 131.99999999999994
    vertex 308.8922699999999 -0.6099999999999949 131.99999999999994
  endloop
endfacet
facet normal -0.5658860882535957 -0.7374771083499442 -0.36864678186693645
  outer loop
    vertex 291.6336872647123 38.812617264712415 131.99999999999994
    vertex 282.51106999999996 51.87113946933699 119.88
    vertex 295.0617409399047 42.24067093990478 119.88
  endloop
endfacet
facet normal -0.3557308664137427 -0.8588102822507885 -0.368646781866937
  outer loop
    vertex 280.08706999999987 47.67264831179003 131.99999999999994
    vertex 267.8955041332126 57.92510507311755 119.88
    vertex 282.51106999999996 51.87113946933699 119.88
  endloop
endfacet
facet normal 0.921616954667338 -0.1213331739008449 -0.3686467818669375
  outer loop
    vertex 193.67596492688236 15.07443413321278 119.88
    vertex 196.4590699999999 -0.6099999999999881 131.99999999999994
    vertex 191.6110699999999 -0.6099999999999876 119.88
  endloop
endfacet
facet normal -0.12105700891445294 0.9195192733361625 0.3739378378233762
  outer loop
    vertex 237.54089594073494 54.13983494505593 131.99999999999994
    vertex 252.2110699999999 61.000000000000014 119.88
    vertex 236.26522863123358 58.900690157669516 119.88
  endloop
endfacet
facet normal -0.12105700891445241 0.9195192733361625 0.3739378378233769
  outer loop
    vertex 252.2110699999999 56.07119999999998 131.99999999999994
    vertex 252.2110699999999 61.000000000000014 119.88
    vertex 237.54089594073494 54.13983494505593 131.99999999999994
  endloop
endfacet
facet normal -0.3826834323650901 -0.9238795325112867 -0.0
  outer loop
    vertex 282.51106999999996 51.87113946933699 119.88
    vertex 267.8955041332126 57.92510507311755 -1.3200000000000123
    vertex 282.51106999999996 51.87113946933699 -1.3200000000000123
  endloop
endfacet
facet normal -0.3826834323650901 -0.9238795325112867 -0.0
  outer loop
    vertex 267.8955041332126 57.92510507311755 -1.3200000000000123
    vertex 282.51106999999996 51.87113946933699 119.88
    vertex 267.8955041332126 57.92510507311755 119.88
  endloop
endfacet
facet normal -0.7933533402912354 -0.6087614290087207 -0.0
  outer loop
    vertex 295.0617409399047 42.24067093990478 119.88
    vertex 304.6922094693369 29.689999999999998 -1.3200000000000123
    vertex 304.6922094693369 29.689999999999998 119.88
  endloop
endfacet
facet normal -0.7933533402912354 -0.6087614290087207 -0.0
  outer loop
    vertex 304.6922094693369 29.689999999999998 -1.3200000000000123
    vertex 295.0617409399047 42.24067093990478 119.88
    vertex 295.0617409399047 42.24067093990478 -1.3200000000000123
  endloop
endfacet
facet normal -0.923879532511287 -0.3826834323650894 -0.0
  outer loop
    vertex 304.6922094693369 29.689999999999998 119.88
    vertex 310.74617507311746 15.074434133212762 -1.3200000000000123
    vertex 310.74617507311746 15.074434133212762 119.88
  endloop
endfacet
facet normal -0.923879532511287 -0.3826834323650894 -0.0
  outer loop
    vertex 310.74617507311746 15.074434133212762 -1.3200000000000123
    vertex 304.6922094693369 29.689999999999998 119.88
    vertex 304.6922094693369 29.689999999999998 -1.3200000000000123
  endloop
endfacet
facet normal 0.6087614290087207 -0.7933533402912354 0.0
  outer loop
    vertex 221.91106999999994 51.871139469336995 119.88
    vertex 209.36039906009512 42.24067093990478 -1.3200000000000123
    vertex 221.91106999999994 51.871139469336995 -1.3200000000000123
  endloop
endfacet
facet normal 0.6087614290087207 -0.7933533402912354 0.0
  outer loop
    vertex 209.36039906009512 42.24067093990478 -1.3200000000000123
    vertex 221.91106999999994 51.871139469336995 119.88
    vertex 209.36039906009512 42.24067093990478 119.88
  endloop
endfacet
facet normal -0.6087614290087204 -0.7933533402912354 -0.0
  outer loop
    vertex 295.0617409399047 42.24067093990478 119.88
    vertex 282.51106999999996 51.87113946933699 -1.3200000000000123
    vertex 295.0617409399047 42.24067093990478 -1.3200000000000123
  endloop
endfacet
facet normal -0.6087614290087204 -0.7933533402912354 -0.0
  outer loop
    vertex 282.51106999999996 51.87113946933699 -1.3200000000000123
    vertex 295.0617409399047 42.24067093990478 119.88
    vertex 282.51106999999996 51.87113946933699 119.88
  endloop
endfacet
facet normal -0.13052619222005168 -0.9914448613738105 -0.0
  outer loop
    vertex 267.8955041332126 57.92510507311755 119.88
    vertex 252.2110699999999 59.99000000000001 -1.3200000000000123
    vertex 267.8955041332126 57.92510507311755 -1.3200000000000123
  endloop
endfacet
facet normal -0.13052619222005168 -0.9914448613738105 -0.0
  outer loop
    vertex 252.2110699999999 59.99000000000001 -1.3200000000000123
    vertex 267.8955041332126 57.92510507311755 119.88
    vertex 252.2110699999999 59.99000000000001 119.88
  endloop
endfacet
facet normal 0.13052619222005177 -0.9914448613738105 0.0
  outer loop
    vertex 252.2110699999999 59.99000000000001 119.88
    vertex 236.52663586678713 57.92510507311755 -1.3200000000000123
    vertex 252.2110699999999 59.99000000000001 -1.3200000000000123
  endloop
endfacet
facet normal 0.13052619222005177 -0.9914448613738105 0.0
  outer loop
    vertex 236.52663586678713 57.92510507311755 -1.3200000000000123
    vertex 252.2110699999999 59.99000000000001 119.88
    vertex 236.52663586678713 57.92510507311755 119.88
  endloop
endfacet
facet normal 0.9238795325112867 -0.3826834323650898 0.0
  outer loop
    vertex 199.72993053066293 29.69000000000003 -1.3200000000000123
    vertex 193.67596492688236 15.07443413321278 119.88
    vertex 193.67596492688236 15.07443413321278 -1.3200000000000123
  endloop
endfacet
facet normal 0.9238795325112867 -0.3826834323650898 0.0
  outer loop
    vertex 193.67596492688236 15.07443413321278 119.88
    vertex 199.72993053066293 29.69000000000003 -1.3200000000000123
    vertex 199.72993053066293 29.69000000000003 119.88
  endloop
endfacet
facet normal 0.7933533402912347 -0.6087614290087212 0.0
  outer loop
    vertex 209.36039906009512 42.24067093990478 -1.3200000000000123
    vertex 199.72993053066293 29.69000000000003 119.88
    vertex 199.72993053066293 29.69000000000003 -1.3200000000000123
  endloop
endfacet
facet normal 0.7933533402912347 -0.6087614290087212 0.0
  outer loop
    vertex 199.72993053066293 29.69000000000003 119.88
    vertex 209.36039906009512 42.24067093990478 -1.3200000000000123
    vertex 209.36039906009512 42.24067093990478 119.88
  endloop
endfacet
facet normal 0.7933533402912355 0.6087614290087202 0.0
  outer loop
    vertex 295.7759187889031 42.954848788903206 -1.3200000000000123
    vertex 305.56689512715917 30.195000000000004 119.88
    vertex 305.56689512715917 30.195000000000004 -1.3200000000000123
  endloop
endfacet
facet normal 0.7933533402912355 0.6087614290087202 0.0
  outer loop
    vertex 305.56689512715917 30.195000000000004 119.88
    vertex 295.7759187889031 42.954848788903206 -1.3200000000000123
    vertex 295.7759187889031 42.954848788903206 119.88
  endloop
endfacet
facet normal 0.3826834323650894 -0.923879532511287 0.0
  outer loop
    vertex 236.52663586678713 57.92510507311755 119.88
    vertex 221.91106999999994 51.871139469336995 -1.3200000000000123
    vertex 236.52663586678713 57.92510507311755 -1.3200000000000123
  endloop
endfacet
facet normal 0.3826834323650894 -0.923879532511287 0.0
  outer loop
    vertex 221.91106999999994 51.871139469336995 -1.3200000000000123
    vertex 236.52663586678713 57.92510507311755 119.88
    vertex 221.91106999999994 51.871139469336995 119.88
  endloop
endfacet
facet normal -0.6087614290087204 0.7933533402912354 0.0
  outer loop
    vertex 208.64622121109673 42.954848788903206 119.88
    vertex 221.4060699999999 52.74582512715928 -1.3200000000000123
    vertex 208.64622121109673 42.954848788903206 -1.3200000000000123
  endloop
endfacet
facet normal -0.6087614290087204 0.7933533402912354 0.0
  outer loop
    vertex 221.4060699999999 52.74582512715928 -1.3200000000000123
    vertex 208.64622121109673 42.954848788903206 119.88
    vertex 221.4060699999999 52.74582512715928 119.88
  endloop
endfacet
facet normal -0.0 -1.0 -0.0
  outer loop
    vertex 313.8210699999999 -0.6099999999999949 119.88
    vertex 312.81106999999986 -0.6099999999999949 -1.3200000000000123
    vertex 313.8210699999999 -0.6099999999999949 -1.3200000000000123
  endloop
endfacet
facet normal -0.0 -1.0 -0.0
  outer loop
    vertex 312.81106999999986 -0.6099999999999949 -1.3200000000000123
    vertex 313.8210699999999 -0.6099999999999949 119.88
    vertex 312.81106999999986 -0.6099999999999949 119.88
  endloop
endfacet
facet normal 0.9238795325112868 0.3826834323650899 0.0
  outer loop
    vertex 305.56689512715917 30.195000000000004 -1.3200000000000123
    vertex 311.7217601576694 15.335841368766307 119.88
    vertex 311.7217601576694 15.335841368766307 -1.3200000000000123
  endloop
endfacet
facet normal 0.9238795325112868 0.3826834323650899 0.0
  outer loop
    vertex 311.7217601576694 15.335841368766307 119.88
    vertex 305.56689512715917 30.195000000000004 -1.3200000000000123
    vertex 305.56689512715917 30.195000000000004 119.88
  endloop
endfacet
facet normal -0.3826834323650899 0.9238795325112868 0.0
  outer loop
    vertex 221.4060699999999 52.74582512715928 119.88
    vertex 236.26522863123358 58.900690157669516 -1.3200000000000123
    vertex 221.4060699999999 52.74582512715928 -1.3200000000000123
  endloop
endfacet
facet normal -0.3826834323650899 0.9238795325112868 0.0
  outer loop
    vertex 236.26522863123358 58.900690157669516 -1.3200000000000123
    vertex 221.4060699999999 52.74582512715928 119.88
    vertex 236.26522863123358 58.900690157669516 119.88
  endloop
endfacet
facet normal -1.224646799147351e-16 -1.0 -1.507499139387687e-31
  outer loop
    vertex 196.4590699999999 -0.6099999999999881 131.99999999999994
    vertex 190.6010699999999 -0.6099999999999873 119.88
    vertex 191.6110699999999 -0.6099999999999876 119.88
  endloop
endfacet
facet normal -1.224646799147351e-16 -1.0 -1.507499139387687e-31
  outer loop
    vertex 190.6010699999999 -0.6099999999999873 119.88
    vertex 196.4590699999999 -0.6099999999999881 131.99999999999994
    vertex 195.5298699999999 -0.609999999999988 131.99999999999994
  endloop
endfacet
facet normal 0.0 -1.0 0.0
  outer loop
    vertex 308.8922699999999 -0.6099999999999949 131.99999999999994
    vertex 312.81106999999986 -0.6099999999999949 119.88
    vertex 313.8210699999999 -0.6099999999999949 119.88
  endloop
endfacet
facet normal 0.0 -1.0 0.0
  outer loop
    vertex 312.81106999999986 -0.6099999999999949 119.88
    vertex 308.8922699999999 -0.6099999999999949 131.99999999999994
    vertex 307.9630699999999 -0.6099999999999949 131.99999999999994
  endloop
endfacet
facet normal 0.5645980816941568 0.7357985455212981 0.37393783782337486
  outer loop
    vertex 280.5516699999999 48.47735911698653 131.99999999999994
    vertex 295.7759187889031 42.954848788903206 119.88
    vertex 283.01606999999996 52.74582512715927 119.88
  endloop
endfacet
facet normal -0.919519273336163 0.12105700891445233 0.3739378378233754
  outer loop
    vertex 197.46123505494396 14.060174059265016 131.99999999999994
    vertex 190.6010699999999 -0.6099999999999873 119.88
    vertex 195.5298699999999 -0.609999999999988 131.99999999999994
  endloop
endfacet
facet normal -0.7357985455212981 0.5645980816941584 0.37393783782337287
  outer loop
    vertex 208.64622121109673 42.954848788903206 119.88
    vertex 198.85524487284064 30.19500000000003 119.88
    vertex 212.13140911420896 39.46966088579097 131.99999999999994
  endloop
endfacet
facet normal 0.7357985455212993 0.5645980816941563 0.37393783782337336
  outer loop
    vertex 295.7759187889031 42.954848788903206 119.88
    vertex 292.2907308857909 39.46966088579097 131.99999999999994
    vertex 301.2984291169864 27.730599999999995 131.99999999999994
  endloop
endfacet
facet normal -0.5645980816941562 0.7357985455212988 0.3739378378233743
  outer loop
    vertex 223.8704699999999 48.47735911698655 131.99999999999994
    vertex 221.4060699999999 52.74582512715928 119.88
    vertex 212.13140911420896 39.46966088579097 131.99999999999994
  endloop
endfacet
facet normal 0.5645980816941559 0.7357985455212995 0.37393783782337314
  outer loop
    vertex 292.2907308857909 39.46966088579097 131.99999999999994
    vertex 295.7759187889031 42.954848788903206 119.88
    vertex 280.5516699999999 48.47735911698653 131.99999999999994
  endloop
endfacet
facet normal -0.8568555544357509 0.3549211916420056 0.3739378378233749
  outer loop
    vertex 198.85524487284064 30.19500000000003 119.88
    vertex 192.70037984233042 15.335841368766324 119.88
    vertex 203.1237108830134 27.730600000000006 131.99999999999994
  endloop
endfacet
facet normal 0.35492119164200564 0.8568555544357502 0.3739378378233762
  outer loop
    vertex 266.8812440592649 54.139834945055924 131.99999999999994
    vertex 283.01606999999996 52.74582512715927 119.88
    vertex 268.1569113687662 58.9006901576695 119.88
  endloop
endfacet
facet normal -0.35492119164200603 0.8568555544357511 0.37393783782337414
  outer loop
    vertex 223.8704699999999 48.47735911698655 131.99999999999994
    vertex 236.26522863123358 58.900690157669516 119.88
    vertex 221.4060699999999 52.74582512715928 119.88
  endloop
endfacet
facet normal -0.9195192733361635 0.12105700891445371 0.3739378378233741
  outer loop
    vertex 192.70037984233042 15.335841368766324 119.88
    vertex 190.6010699999999 -0.6099999999999873 119.88
    vertex 197.46123505494396 14.060174059265016 131.99999999999994
  endloop
endfacet
facet normal -0.8568555544357511 0.35492119164200625 0.37393783782337425
  outer loop
    vertex 203.1237108830134 27.730600000000006 131.99999999999994
    vertex 192.70037984233042 15.335841368766324 119.88
    vertex 197.46123505494396 14.060174059265016 131.99999999999994
  endloop
endfacet
facet normal 0.8568555544357511 0.3549211916420059 0.37393783782337425
  outer loop
    vertex 305.56689512715917 30.195000000000004 119.88
    vertex 306.96090494505586 14.060174059264996 131.99999999999994
    vertex 311.7217601576694 15.335841368766307 119.88
  endloop
endfacet
facet normal -0.35492119164200386 0.8568555544357509 0.3739378378233764
  outer loop
    vertex 237.54089594073494 54.13983494505593 131.99999999999994
    vertex 236.26522863123358 58.900690157669516 119.88
    vertex 223.8704699999999 48.47735911698655 131.99999999999994
  endloop
endfacet
facet normal 0.0 0.0 -1.0
  outer loop
    vertex 192.70037984233042 15.335841368766324 -1.3200000000000123
    vertex 191.6110699999999 -0.6099999999999876 -1.3200000000000123
    vertex 190.6010699999999 -0.6099999999999873 -1.3200000000000123
  endloop
endfacet
facet normal 0.0 0.0 -1.0
  outer loop
    vertex 191.6110699999999 -0.6099999999999876 -1.3200000000000123
    vertex 192.70037984233042 15.335841368766324 -1.3200000000000123
    vertex 193.67596492688236 15.07443413321278 -1.3200000000000123
  endloop
endfacet
facet normal 0.0 0.0 -1.0
  outer loop
    vertex 193.67596492688236 15.07443413321278 -1.3200000000000123
    vertex 192.70037984233042 15.335841368766324 -1.3200000000000123
    vertex 198.85524487284064 30.19500000000003 -1.3200000000000123
  endloop
endfacet
facet normal 0.0 0.0 -1.0
  outer loop
    vertex 193.67596492688236 15.07443413321278 -1.3200000000000123
    vertex 198.85524487284064 30.19500000000003 -1.3200000000000123
    vertex 199.72993053066293 29.69000000000003 -1.3200000000000123
  endloop
endfacet
facet normal 0.0 0.0 -1.0
  outer loop
    vertex 199.72993053066293 29.69000000000003 -1.3200000000000123
    vertex 198.85524487284064 30.19500000000003 -1.3200000000000123
    vertex 208.64622121109673 42.954848788903206 -1.3200000000000123
  endloop
endfacet
facet normal 0.0 0.0 -1.0
  outer loop
    vertex 199.72993053066293 29.69000000000003 -1.3200000000000123
    vertex 208.64622121109673 42.954848788903206 -1.3200000000000123
    vertex 209.36039906009512 42.24067093990478 -1.3200000000000123
  endloop
endfacet
facet normal 0.0 0.0 -1.0
  outer loop
    vertex 209.36039906009512 42.24067093990478 -1.3200000000000123
    vertex 208.64622121109673 42.954848788903206 -1.3200000000000123
    vertex 221.4060699999999 52.74582512715928 -1.3200000000000123
  endloop
endfacet
facet normal 0.0 0.0 -1.0
  outer loop
    vertex 209.36039906009512 42.24067093990478 -1.3200000000000123
    vertex 221.4060699999999 52.74582512715928 -1.3200000000000123
    vertex 221.91106999999994 51.871139469336995 -1.3200000000000123
  endloop
endfacet
facet normal 0.0 0.0 -1.0
  outer loop
    vertex 221.91106999999994 51.871139469336995 -1.3200000000000123
    vertex 221.4060699999999 52.74582512715928 -1.3200000000000123
    vertex 236.26522863123358 58.900690157669516 -1.3200000000000123
  endloop
endfacet
facet normal 0.0 0.0 -1.0
  outer loop
    vertex 221.91106999999994 51.871139469336995 -1.3200000000000123
    vertex 236.26522863123358 58.900690157669516 -1.3200000000000123
    vertex 236.52663586678713 57.92510507311755 -1.3200000000000123
  endloop
endfacet
facet normal 0.0 0.0 -1.0
  outer loop
    vertex 236.52663586678713 57.92510507311755 -1.3200000000000123
    vertex 236.26522863123358 58.900690157669516 -1.3200000000000123
    vertex 252.2110699999999 61.000000000000014 -1.3200000000000123
  endloop
endfacet
facet normal 0.0 0.0 -1.0
  outer loop
    vertex 236.52663586678713 57.92510507311755 -1.3200000000000123
    vertex 252.2110699999999 61.000000000000014 -1.3200000000000123
    vertex 252.2110699999999 59.99000000000001 -1.3200000000000123
  endloop
endfacet
facet normal 0.0 0.0 -1.0
  outer loop
    vertex 252.2110699999999 59.99000000000001 -1.3200000000000123
    vertex 252.2110699999999 61.000000000000014 -1.3200000000000123
    vertex 268.1569113687662 58.9006901576695 -1.3200000000000123
  endloop
endfacet
facet normal 0.0 0.0 -1.0
  outer loop
    vertex 252.2110699999999 59.99000000000001 -1.3200000000000123
    vertex 268.1569113687662 58.9006901576695 -1.3200000000000123
    vertex 267.8955041332126 57.92510507311755 -1.3200000000000123
  endloop
endfacet
facet normal 0.0 0.0 -1.0
  outer loop
    vertex 267.8955041332126 57.92510507311755 -1.3200000000000123
    vertex 268.1569113687662 58.9006901576695 -1.3200000000000123
    vertex 282.51106999999996 51.87113946933699 -1.3200000000000123
  endloop
endfacet
facet normal 0.0 0.0 -1.0
  outer loop
    vertex 282.51106999999996 51.87113946933699 -1.3200000000000123
    vertex 268.1569113687662 58.9006901576695 -1.3200000000000123
    vertex 283.01606999999996 52.74582512715927 -1.3200000000000123
  endloop
endfacet
facet normal 0.0 0.0 -1.0
  outer loop
    vertex 282.51106999999996 51.87113946933699 -1.3200000000000123
    vertex 283.01606999999996 52.74582512715927 -1.3200000000000123
    vertex 295.0617409399047 42.24067093990478 -1.3200000000000123
  endloop
endfacet
facet normal 0.0 0.0 -1.0
  outer loop
    vertex 295.0617409399047 42.24067093990478 -1.3200000000000123
    vertex 283.01606999999996 52.74582512715927 -1.3200000000000123
    vertex 295.7759187889031 42.954848788903206 -1.3200000000000123
  endloop
endfacet
facet normal 0.0 0.0 -1.0
  outer loop
    vertex 295.0617409399047 42.24067093990478 -1.3200000000000123
    vertex 295.7759187889031 42.954848788903206 -1.3200000000000123
    vertex 304.6922094693369 29.689999999999998 -1.3200000000000123
  endloop
endfacet
facet normal 0.0 0.0 -1.0
  outer loop
    vertex 304.6922094693369 29.689999999999998 -1.3200000000000123
    vertex 295.7759187889031 42.954848788903206 -1.3200000000000123
    vertex 305.56689512715917 30.195000000000004 -1.3200000000000123
  endloop
endfacet
facet normal 0.0 0.0 -1.0
  outer loop
    vertex 304.6922094693369 29.689999999999998 -1.3200000000000123
    vertex 305.56689512715917 30.195000000000004 -1.3200000000000123
    vertex 310.74617507311746 15.074434133212762 -1.3200000000000123
  endloop
endfacet
facet normal 0.0 0.0 -1.0
  outer loop
    vertex 310.74617507311746 15.074434133212762 -1.3200000000000123
    vertex 305.56689512715917 30.195000000000004 -1.3200000000000123
    vertex 311.7217601576694 15.335841368766307 -1.3200000000000123
  endloop
endfacet
facet normal 0.0 0.0 -1.0
  outer loop
    vertex 310.74617507311746 15.074434133212762 -1.3200000000000123
    vertex 311.7217601576694 15.335841368766307 -1.3200000000000123
    vertex 312.81106999999986 -0.6099999999999949 -1.3200000000000123
  endloop
endfacet
facet normal 0.0 0.0 -1.0
  outer loop
    vertex 312.81106999999986 -0.6099999999999949 -1.3200000000000123
    vertex 311.7217601576694 15.335841368766307 -1.3200000000000123
    vertex 313.8210699999999 -0.6099999999999949 -1.3200000000000123
  endloop
endfacet
facet normal 0.0 0.0 1.0
  outer loop
    vertex 196.4590699999999 -0.6099999999999881 131.99999999999994
    vertex 197.46123505494396 14.060174059265016 131.99999999999994
    vertex 195.5298699999999 -0.609999999999988 131.99999999999994
  endloop
endfacet
facet normal 0.0 0.0 1.0
  outer loop
    vertex 197.46123505494396 14.060174059265016 131.99999999999994
    vertex 196.4590699999999 -0.6099999999999881 131.99999999999994
    vertex 198.35877333273177 13.819679402555751 131.99999999999994
  endloop
endfacet
facet normal 0.0 0.0 1.0
  outer loop
    vertex 197.46123505494396 14.060174059265016 131.99999999999994
    vertex 198.35877333273177 13.819679402555751 131.99999999999994
    vertex 203.1237108830134 27.730600000000006 131.99999999999994
  endloop
endfacet
facet normal 0.0 0.0 1.0
  outer loop
    vertex 203.1237108830134 27.730600000000006 131.99999999999994
    vertex 198.35877333273177 13.819679402555751 131.99999999999994
    vertex 203.92842168820985 27.26600000000001 131.99999999999994
  endloop
endfacet
facet normal 0.0 0.0 1.0
  outer loop
    vertex 203.1237108830134 27.730600000000006 131.99999999999994
    vertex 203.92842168820985 27.26600000000001 131.99999999999994
    vertex 212.13140911420896 39.46966088579097 131.99999999999994
  endloop
endfacet
facet normal 0.0 0.0 1.0
  outer loop
    vertex 212.13140911420896 39.46966088579097 131.99999999999994
    vertex 203.92842168820985 27.26600000000001 131.99999999999994
    vertex 212.7884527352875 38.812617264712415 131.99999999999994
  endloop
endfacet
facet normal 0.0 0.0 1.0
  outer loop
    vertex 212.13140911420896 39.46966088579097 131.99999999999994
    vertex 212.7884527352875 38.812617264712415 131.99999999999994
    vertex 223.8704699999999 48.47735911698655 131.99999999999994
  endloop
endfacet
facet normal 0.0 0.0 1.0
  outer loop
    vertex 223.8704699999999 48.47735911698655 131.99999999999994
    vertex 212.7884527352875 38.812617264712415 131.99999999999994
    vertex 224.33506999999992 47.67264831179004 131.99999999999994
  endloop
endfacet
facet normal 0.0 0.0 1.0
  outer loop
    vertex 223.8704699999999 48.47735911698655 131.99999999999994
    vertex 224.33506999999992 47.67264831179004 131.99999999999994
    vertex 237.54089594073494 54.13983494505593 131.99999999999994
  endloop
endfacet
facet normal 0.0 0.0 1.0
  outer loop
    vertex 237.54089594073494 54.13983494505593 131.99999999999994
    vertex 224.33506999999992 47.67264831179004 131.99999999999994
    vertex 237.78139059744416 53.242296667268114 131.99999999999994
  endloop
endfacet
facet normal 0.0 0.0 1.0
  outer loop
    vertex 237.54089594073494 54.13983494505593 131.99999999999994
    vertex 237.78139059744416 53.242296667268114 131.99999999999994
    vertex 252.2110699999999 56.07119999999998 131.99999999999994
  endloop
endfacet
facet normal 0.0 0.0 1.0
  outer loop
    vertex 252.2110699999999 56.07119999999998 131.99999999999994
    vertex 237.78139059744416 53.242296667268114 131.99999999999994
    vertex 252.2110699999999 55.141999999999996 131.99999999999994
  endloop
endfacet
facet normal 0.0 0.0 1.0
  outer loop
    vertex 252.2110699999999 56.07119999999998 131.99999999999994
    vertex 252.2110699999999 55.141999999999996 131.99999999999994
    vertex 266.6407494025557 53.242296667268114 131.99999999999994
  endloop
endfacet
facet normal 0.0 0.0 1.0
  outer loop
    vertex 252.2110699999999 56.07119999999998 131.99999999999994
    vertex 266.6407494025557 53.242296667268114 131.99999999999994
    vertex 266.8812440592649 54.139834945055924 131.99999999999994
  endloop
endfacet
facet normal 0.0 0.0 1.0
  outer loop
    vertex 266.8812440592649 54.139834945055924 131.99999999999994
    vertex 266.6407494025557 53.242296667268114 131.99999999999994
    vertex 280.08706999999987 47.67264831179003 131.99999999999994
  endloop
endfacet
facet normal 0.0 0.0 1.0
  outer loop
    vertex 266.8812440592649 54.139834945055924 131.99999999999994
    vertex 280.08706999999987 47.67264831179003 131.99999999999994
    vertex 280.5516699999999 48.47735911698653 131.99999999999994
  endloop
endfacet
facet normal 0.0 0.0 1.0
  outer loop
    vertex 280.5516699999999 48.47735911698653 131.99999999999994
    vertex 280.08706999999987 47.67264831179003 131.99999999999994
    vertex 291.6336872647123 38.812617264712415 131.99999999999994
  endloop
endfacet
facet normal 0.0 0.0 1.0
  outer loop
    vertex 280.5516699999999 48.47735911698653 131.99999999999994
    vertex 291.6336872647123 38.812617264712415 131.99999999999994
    vertex 292.2907308857909 39.46966088579097 131.99999999999994
  endloop
endfacet
facet normal 0.0 0.0 1.0
  outer loop
    vertex 292.2907308857909 39.46966088579097 131.99999999999994
    vertex 291.6336872647123 38.812617264712415 131.99999999999994
    vertex 300.49371831178996 27.266 131.99999999999994
  endloop
endfacet
facet normal 0.0 0.0 1.0
  outer loop
    vertex 292.2907308857909 39.46966088579097 131.99999999999994
    vertex 300.49371831178996 27.266 131.99999999999994
    vertex 301.2984291169864 27.730599999999995 131.99999999999994
  endloop
endfacet
facet normal 0.0 0.0 1.0
  outer loop
    vertex 301.2984291169864 27.730599999999995 131.99999999999994
    vertex 300.49371831178996 27.266 131.99999999999994
    vertex 306.06336666726804 13.819679402555732 131.99999999999994
  endloop
endfacet
facet normal 0.0 0.0 1.0
  outer loop
    vertex 301.2984291169864 27.730599999999995 131.99999999999994
    vertex 306.06336666726804 13.819679402555732 131.99999999999994
    vertex 306.96090494505586 14.060174059264996 131.99999999999994
  endloop
endfacet
facet normal 0.0 0.0 1.0
  outer loop
    vertex 306.96090494505586 14.060174059264996 131.99999999999994
    vertex 306.06336666726804 13.819679402555732 131.99999999999994
    vertex 307.9630699999999 -0.6099999999999949 131.99999999999994
  endloop
endfacet
facet normal 0.0 0.0 1.0
  outer loop
    vertex 306.96090494505586 14.060174059264996 131.99999999999994
    vertex 307.9630699999999 -0.6099999999999949 131.99999999999994
    vertex 308.8922699999999 -0.6099999999999949 131.99999999999994
  endloop
endfacet
facet normal 0.38268343236508995 0.9238795325112868 0.0
  outer loop
    vertex 268.1569113687662 58.9006901576695 119.88
    vertex 283.01606999999996 52.74582512715927 -1.3200000000000123
    vertex 268.1569113687662 58.9006901576695 -1.3200000000000123
  endloop
endfacet
facet normal 0.38268343236508995 0.9238795325112868 0.0
  outer loop
    vertex 283.01606999999996 52.74582512715927 -1.3200000000000123
    vertex 268.1569113687662 58.9006901576695 119.88
    vertex 283.01606999999996 52.74582512715927 119.88
  endloop
endfacet
facet normal -0.7933533402912348 0.6087614290087211 0.0
  outer loop
    vertex 208.64622121109673 42.954848788903206 119.88
    vertex 198.85524487284064 30.19500000000003 -1.3200000000000123
    vertex 198.85524487284064 30.19500000000003 119.88
  endloop
endfacet
facet normal -0.7933533402912348 0.6087614290087211 0.0
  outer loop
    vertex 198.85524487284064 30.19500000000003 -1.3200000000000123
    vertex 208.64622121109673 42.954848788903206 119.88
    vertex 208.64622121109673 42.954848788903206 -1.3200000000000123
  endloop
endfacet
facet normal -1.2246467991473515e-16 -1.0 -0.0
  outer loop
    vertex 191.6110699999999 -0.6099999999999876 119.88
    vertex 190.6010699999999 -0.6099999999999873 -1.3200000000000123
    vertex 191.6110699999999 -0.6099999999999876 -1.3200000000000123
  endloop
endfacet
facet normal -1.2246467991473515e-16 -1.0 -0.0
  outer loop
    vertex 190.6010699999999 -0.6099999999999873 -1.3200000000000123
    vertex 191.6110699999999 -0.6099999999999876 119.88
    vertex 190.6010699999999 -0.6099999999999873 119.88
  endloop
endfacet
facet normal -0.9914448613738105 -0.13052619222005177 -0.0
  outer loop
    vertex 310.74617507311746 15.074434133212762 119.88
    vertex 312.81106999999986 -0.6099999999999949 -1.3200000000000123
    vertex 312.81106999999986 -0.6099999999999949 119.88
  endloop
endfacet
facet normal -0.9914448613738105 -0.13052619222005177 -0.0
  outer loop
    vertex 312.81106999999986 -0.6099999999999949 -1.3200000000000123
    vertex 310.74617507311746 15.074434133212762 119.88
    vertex 310.74617507311746 15.074434133212762 -1.3200000000000123
  endloop
endfacet
facet normal 0.9914448613738105 0.13052619222005143 0.0
  outer loop
    vertex 311.7217601576694 15.335841368766307 -1.3200000000000123
    vertex 313.8210699999999 -0.6099999999999949 119.88
    vertex 313.8210699999999 -0.6099999999999949 -1.3200000000000123
  endloop
endfacet
facet normal 0.9914448613738105 0.13052619222005143 0.0
  outer loop
    vertex 313.8210699999999 -0.6099999999999949 119.88
    vertex 311.7217601576694 15.335841368766307 -1.3200000000000123
    vertex 311.7217601576694 15.335841368766307 119.88
  endloop
endfacet
facet normal -0.9914448613738103 0.13052619222005205 0.0
  outer loop
    vertex 192.70037984233042 15.335841368766324 119.88
    vertex 190.6010699999999 -0.6099999999999873 -1.3200000000000123
    vertex 190.6010699999999 -0.6099999999999873 119.88
  endloop
endfacet
facet normal -0.9914448613738103 0.13052619222005205 0.0
  outer loop
    vertex 190.6010699999999 -0.6099999999999873 -1.3200000000000123
    vertex 192.70037984233042 15.335841368766324 119.88
    vertex 192.70037984233042 15.335841368766324 -1.3200000000000123
  endloop
endfacet
facet normal 0.13052619222005202 0.9914448613738103 0.0
  outer loop
    vertex 252.2110699999999 61.000000000000014 119.88
    vertex 268.1569113687662 58.9006901576695 -1.3200000000000123
    vertex 252.2110699999999 61.000000000000014 -1.3200000000000123
  endloop
endfacet
facet normal 0.13052619222005202 0.9914448613738103 0.0
  outer loop
    vertex 268.1569113687662 58.9006901576695 -1.3200000000000123
    vertex 252.2110699999999 61.000000000000014 119.88
    vertex 268.1569113687662 58.9006901576695 119.88
  endloop
endfacet
facet normal 0.6087614290087201 0.7933533402912356 0.0
  outer loop
    vertex 283.01606999999996 52.74582512715927 119.88
    vertex 295.7759187889031 42.954848788903206 -1.3200000000000123
    vertex 283.01606999999996 52.74582512715927 -1.3200000000000123
  endloop
endfacet
facet normal 0.6087614290087201 0.7933533402912356 0.0
  outer loop
    vertex 295.7759187889031 42.954848788903206 -1.3200000000000123
    vertex 283.01606999999996 52.74582512715927 119.88
    vertex 295.7759187889031 42.954848788903206 119.88
  endloop
endfacet
facet normal -0.13052619222005143 0.9914448613738105 0.0
  outer loop
    vertex 236.26522863123358 58.900690157669516 119.88
    vertex 252.2110699999999 61.000000000000014 -1.3200000000000123
    vertex 236.26522863123358 58.900690157669516 -1.3200000000000123
  endloop
endfacet
facet normal -0.13052619222005143 0.9914448613738105 0.0
  outer loop
    vertex 252.2110699999999 61.000000000000014 -1.3200000000000123
    vertex 236.26522863123358 58.900690157669516 119.88
    vertex 252.2110699999999 61.000000000000014 119.88
  endloop
endfacet
facet normal 0.9914448613738105 -0.1305261922200517 0.0
  outer loop
    vertex 193.67596492688236 15.07443413321278 -1.3200000000000123
    vertex 191.6110699999999 -0.6099999999999876 119.88
    vertex 191.6110699999999 -0.6099999999999876 -1.3200000000000123
  endloop
endfacet
facet normal 0.9914448613738105 -0.1305261922200517 0.0
  outer loop
    vertex 191.6110699999999 -0.6099999999999876 119.88
    vertex 193.67596492688236 15.07443413321278 -1.3200000000000123
    vertex 193.67596492688236 15.07443413321278 119.88
  endloop
endfacet
facet normal -0.9238795325112868 0.3826834323650896 0.0
  outer loop
    vertex 198.85524487284064 30.19500000000003 119.88
    vertex 192.70037984233042 15.335841368766324 -1.3200000000000123
    vertex 192.70037984233042 15.335841368766324 119.88
  endloop
endfacet
facet normal -0.9238795325112868 0.3826834323650896 0.0
  outer loop
    vertex 192.70037984233042 15.335841368766324 -1.3200000000000123
    vertex 198.85524487284064 30.19500000000003 119.88
    vertex 198.85524487284064 30.19500000000003 -1.3200000000000123
  endloop
endfacet
facet normal -0.5645980816941576 0.7357985455212985 0.3739378378233729
  outer loop
    vertex 212.13140911420896 39.46966088579097 131.99999999999994
    vertex 221.4060699999999 52.74582512715928 119.88
    vertex 208.64622121109673 42.954848788903206 119.88
  endloop
endfacet
facet normal -0.8588102822507888 -0.355730866413742 -0.3686467818669367
  outer loop
    vertex 304.6922094693369 29.689999999999998 119.88
    vertex 310.74617507311746 15.074434133212762 119.88
    vertex 300.49371831178996 27.266 131.99999999999994
  endloop
endfacet
facet normal 0.919519273336163 0.121057008914453 0.3739378378233753
  outer loop
    vertex 311.7217601576694 15.335841368766307 119.88
    vertex 308.8922699999999 -0.6099999999999949 131.99999999999994
    vertex 313.8210699999999 -0.6099999999999949 119.88
  endloop
endfacet
facet normal 0.12105700891445353 0.9195192733361622 0.3739378378233768
  outer loop
    vertex 252.2110699999999 56.07119999999998 131.99999999999994
    vertex 268.1569113687662 58.9006901576695 119.88
    vertex 252.2110699999999 61.000000000000014 119.88
  endloop
endfacet
facet normal 0.7357985455212981 0.5645980816941568 0.37393783782337486
  outer loop
    vertex 295.7759187889031 42.954848788903206 119.88
    vertex 301.2984291169864 27.730599999999995 131.99999999999994
    vertex 305.56689512715917 30.195000000000004 119.88
  endloop
endfacet
facet normal -0.12133317390084615 -0.9216169546673375 -0.3686467818669381
  outer loop
    vertex 252.2110699999999 55.141999999999996 131.99999999999994
    vertex 252.2110699999999 59.99000000000001 119.88
    vertex 266.6407494025557 53.242296667268114 131.99999999999994
  endloop
endfacet
facet normal -0.35573086641374 -0.8588102822507885 -0.36864678186693955
  outer loop
    vertex 266.6407494025557 53.242296667268114 131.99999999999994
    vertex 267.8955041332126 57.92510507311755 119.88
    vertex 280.08706999999987 47.67264831179003 131.99999999999994
  endloop
endfacet
facet normal 0.8568555544357508 0.3549211916420063 0.3739378378233747
  outer loop
    vertex 305.56689512715917 30.195000000000004 119.88
    vertex 301.2984291169864 27.730599999999995 131.99999999999994
    vertex 306.96090494505586 14.060174059264996 131.99999999999994
  endloop
endfacet
facet normal -0.7374771083499441 -0.5658860882535959 -0.3686467818669363
  outer loop
    vertex 295.0617409399047 42.24067093990478 119.88
    vertex 304.6922094693369 29.689999999999998 119.88
    vertex 291.6336872647123 38.812617264712415 131.99999999999994
  endloop
endfacet
facet normal -0.7357985455212986 0.5645980816941558 0.3739378378233754
  outer loop
    vertex 212.13140911420896 39.46966088579097 131.99999999999994
    vertex 198.85524487284064 30.19500000000003 119.88
    vertex 203.1237108830134 27.730600000000006 131.99999999999994
  endloop
endfacet
facet normal 0.3549211916420047 0.8568555544357515 0.3739378378233747
  outer loop
    vertex 280.5516699999999 48.47735911698653 131.99999999999994
    vertex 283.01606999999996 52.74582512715927 119.88
    vertex 266.8812440592649 54.139834945055924 131.99999999999994
  endloop
endfacet
endsolid Untitled-5fd2c691
