solid D Bolt Holder
facet normal 0.9990561583550596 0.0 -0.04343722427630694
  outer loop
    vertex 36.512499999999996 -23.8125 1.5875
    vertex 38.099999999999994 38.099999999999994 38.099999999999994
    vertex 38.099999999999994 -25.4 38.099999999999994
  endloop
endfacet
facet normal 0.9990561583550596 0.0 -0.04343722427630694
  outer loop
    vertex 38.099999999999994 38.099999999999994 38.099999999999994
    vertex 36.512499999999996 -23.8125 1.5875
    vertex 36.512499999999996 36.512499999999996 1.5875
  endloop
endfacet
facet normal -0.9990561583550596 0.0 -0.04343722427630694
  outer loop
    vertex -25.4 38.099999999999994 38.099999999999994
    vertex -23.8125 -23.8125 1.5875
    vertex -25.4 -25.4 38.099999999999994
  endloop
endfacet
facet normal -0.9990561583550596 0.0 -0.04343722427630694
  outer loop
    vertex -23.8125 -23.8125 1.5875
    vertex -25.4 38.099999999999994 38.099999999999994
    vertex -23.8125 36.512499999999996 1.5875
  endloop
endfacet
facet normal -0.7071067811865476 0.0 0.7071067811865476
  outer loop
    vertex 36.512499999999996 19.049999999999997 44.449999999999996
    vertex 30.162499999999998 -6.349999999999994 38.099999999999994
    vertex 36.512499999999996 -6.349999999999994 44.449999999999996
  endloop
endfacet
facet normal -0.7071067811865476 0.0 0.7071067811865476
  outer loop
    vertex 30.162499999999998 -6.349999999999994 38.099999999999994
    vertex 36.512499999999996 19.049999999999997 44.449999999999996
    vertex 30.162499999999998 19.049999999999997 38.099999999999994
  endloop
endfacet
facet normal 0.0 0.0 1.0
  outer loop
    vertex -25.4 -25.4 44.449999999999996
    vertex -23.8125 -23.8125 44.449999999999996
    vertex -25.4 38.099999999999994 44.449999999999996
  endloop
endfacet
facet normal 0.0 0.0 1.0
  outer loop
    vertex -23.8125 -23.8125 44.449999999999996
    vertex -25.4 -25.4 44.449999999999996
    vertex 38.099999999999994 -25.4 44.449999999999996
  endloop
endfacet
facet normal 0.0 0.0 1.0
  outer loop
    vertex -23.8125 -23.8125 44.449999999999996
    vertex 38.099999999999994 -25.4 44.449999999999996
    vertex 36.512499999999996 -23.8125 44.449999999999996
  endloop
endfacet
facet normal 0.0 0.0 1.0
  outer loop
    vertex 36.512499999999996 -23.8125 44.449999999999996
    vertex 38.099999999999994 -25.4 44.449999999999996
    vertex 36.512499999999996 -6.349999999999994 44.449999999999996
  endloop
endfacet
facet normal 0.0 0.0 1.0
  outer loop
    vertex 36.512499999999996 -6.349999999999994 44.449999999999996
    vertex 38.099999999999994 -25.4 44.449999999999996
    vertex 36.512499999999996 19.049999999999997 44.449999999999996
  endloop
endfacet
facet normal 0.0 0.0 1.0
  outer loop
    vertex 36.512499999999996 19.049999999999997 44.449999999999996
    vertex 38.099999999999994 -25.4 44.449999999999996
    vertex 36.512499999999996 36.512499999999996 44.449999999999996
  endloop
endfacet
facet normal 0.0 0.0 1.0
  outer loop
    vertex -25.4 38.099999999999994 44.449999999999996
    vertex -23.8125 36.512499999999996 44.449999999999996
    vertex 38.099999999999994 38.099999999999994 44.449999999999996
  endloop
endfacet
facet normal 0.0 0.0 1.0
  outer loop
    vertex -23.8125 36.512499999999996 44.449999999999996
    vertex -25.4 38.099999999999994 44.449999999999996
    vertex -23.8125 -23.8125 44.449999999999996
  endloop
endfacet
facet normal 0.0 0.0 1.0
  outer loop
    vertex 38.099999999999994 38.099999999999994 44.449999999999996
    vertex -23.8125 36.512499999999996 44.449999999999996
    vertex 36.512499999999996 36.512499999999996 44.449999999999996
  endloop
endfacet
facet normal 0.0 0.0 1.0
  outer loop
    vertex 38.099999999999994 38.099999999999994 44.449999999999996
    vertex 36.512499999999996 36.512499999999996 44.449999999999996
    vertex 38.099999999999994 -25.4 44.449999999999996
  endloop
endfacet
facet normal 0.9990561583550596 0.0 0.04343722427630694
  outer loop
    vertex -22.224999999999998 -22.224999999999998 1.5875
    vertex -23.8125 36.512499999999996 38.099999999999994
    vertex -23.8125 -23.8125 38.099999999999994
  endloop
endfacet
facet normal 0.9990561583550596 0.0 0.04343722427630694
  outer loop
    vertex -23.8125 36.512499999999996 38.099999999999994
    vertex -22.224999999999998 -22.224999999999998 1.5875
    vertex -22.224999999999998 34.925 1.5875
  endloop
endfacet
facet normal -1.0 0.0 0.0
  outer loop
    vertex -23.8125 36.512499999999996 1.5875
    vertex -23.8125 -23.8125 0.0
    vertex -23.8125 -23.8125 1.5875
  endloop
endfacet
facet normal -1.0 0.0 0.0
  outer loop
    vertex -23.8125 -23.8125 0.0
    vertex -23.8125 36.512499999999996 1.5875
    vertex -23.8125 36.512499999999996 0.0
  endloop
endfacet
facet normal 0.0 0.0 1.0
  outer loop
    vertex 34.925 -22.224999999999998 1.5875
    vertex -22.224999999999998 34.925 1.5875
    vertex -22.224999999999998 -22.224999999999998 1.5875
  endloop
endfacet
facet normal 0.0 0.0 1.0
  outer loop
    vertex -22.224999999999998 34.925 1.5875
    vertex 34.925 -22.224999999999998 1.5875
    vertex 34.925 34.925 1.5875
  endloop
endfacet
facet normal -0.9990561583550596 0.0 0.043437224276306946
  outer loop
    vertex 36.512499999999996 -6.349999999999994 38.099999999999994
    vertex 34.925 -22.224999999999998 1.5875
    vertex 36.512499999999996 -23.8125 38.099999999999994
  endloop
endfacet
facet normal -0.9990561583550596 0.0 0.043437224276306946
  outer loop
    vertex 34.925 -22.224999999999998 1.5875
    vertex 36.512499999999996 -6.349999999999994 38.099999999999994
    vertex 36.236933471757254 -6.07443347175725 31.76196985041689
  endloop
endfacet
facet normal -0.9990561583550596 0.0 0.043437224276306946
  outer loop
    vertex 34.925 -22.224999999999998 1.5875
    vertex 36.236933471757254 -6.07443347175725 31.76196985041689
    vertex 34.925 34.925 1.5875
  endloop
endfacet
facet normal -0.9990561583550596 0.0 0.043437224276306946
  outer loop
    vertex 34.925 34.925 1.5875
    vertex 36.236933471757254 -6.07443347175725 31.76196985041689
    vertex 36.236933471757254 18.774433471757238 31.76196985041689
  endloop
endfacet
facet normal -0.9990561583550596 0.0 0.043437224276306946
  outer loop
    vertex 34.925 34.925 1.5875
    vertex 36.236933471757254 18.774433471757238 31.76196985041689
    vertex 36.512499999999996 19.049999999999997 38.099999999999994
  endloop
endfacet
facet normal -0.9990561583550596 0.0 0.043437224276306946
  outer loop
    vertex 34.925 34.925 1.5875
    vertex 36.512499999999996 19.049999999999997 38.099999999999994
    vertex 36.512499999999996 36.512499999999996 38.099999999999994
  endloop
endfacet
facet normal 0.0 1.0 0.0
  outer loop
    vertex -23.8125 36.512499999999996 1.5875
    vertex 36.512499999999996 36.512499999999996 0.0
    vertex -23.8125 36.512499999999996 0.0
  endloop
endfacet
facet normal 0.0 1.0 0.0
  outer loop
    vertex 36.512499999999996 36.512499999999996 0.0
    vertex -23.8125 36.512499999999996 1.5875
    vertex 36.512499999999996 36.512499999999996 1.5875
  endloop
endfacet
facet normal 0.0 -1.0 0.0
  outer loop
    vertex 36.512499999999996 -23.8125 1.5875
    vertex -23.8125 -23.8125 0.0
    vertex 36.512499999999996 -23.8125 0.0
  endloop
endfacet
facet normal 0.0 -1.0 0.0
  outer loop
    vertex -23.8125 -23.8125 0.0
    vertex 36.512499999999996 -23.8125 1.5875
    vertex -23.8125 -23.8125 1.5875
  endloop
endfacet
facet normal 1.0 0.0 0.0
  outer loop
    vertex 36.512499999999996 36.512499999999996 0.0
    vertex 36.512499999999996 -23.8125 1.5875
    vertex 36.512499999999996 -23.8125 0.0
  endloop
endfacet
facet normal 1.0 0.0 0.0
  outer loop
    vertex 36.512499999999996 -23.8125 1.5875
    vertex 36.512499999999996 36.512499999999996 0.0
    vertex 36.512499999999996 36.512499999999996 1.5875
  endloop
endfacet
facet normal 0.0 0.0 -1.0
  outer loop
    vertex 36.512499999999996 36.512499999999996 0.0
    vertex -23.8125 -23.8125 0.0
    vertex -23.8125 36.512499999999996 0.0
  endloop
endfacet
facet normal 0.0 0.0 -1.0
  outer loop
    vertex -23.8125 -23.8125 0.0
    vertex 36.512499999999996 36.512499999999996 0.0
    vertex 36.512499999999996 -23.8125 0.0
  endloop
endfacet
facet normal -1.0 0.0 0.0
  outer loop
    vertex -25.4 38.099999999999994 44.449999999999996
    vertex -25.4 -25.4 38.099999999999994
    vertex -25.4 -25.4 44.449999999999996
  endloop
endfacet
facet normal -1.0 0.0 0.0
  outer loop
    vertex -25.4 -25.4 38.099999999999994
    vertex -25.4 38.099999999999994 44.449999999999996
    vertex -25.4 38.099999999999994 38.099999999999994
  endloop
endfacet
facet normal 1.0 0.0 0.0
  outer loop
    vertex -23.8125 36.512499999999996 38.099999999999994
    vertex -23.8125 -23.8125 44.449999999999996
    vertex -23.8125 -23.8125 38.099999999999994
  endloop
endfacet
facet normal 1.0 0.0 0.0
  outer loop
    vertex -23.8125 -23.8125 44.449999999999996
    vertex -23.8125 36.512499999999996 38.099999999999994
    vertex -23.8125 36.512499999999996 44.449999999999996
  endloop
endfacet
facet normal -1.0 0.0 0.0
  outer loop
    vertex 36.512499999999996 -6.349999999999994 44.449999999999996
    vertex 36.512499999999996 -23.8125 38.099999999999994
    vertex 36.512499999999996 -23.8125 44.449999999999996
  endloop
endfacet
facet normal -1.0 0.0 0.0
  outer loop
    vertex 36.512499999999996 -23.8125 38.099999999999994
    vertex 36.512499999999996 -6.349999999999994 44.449999999999996
    vertex 36.512499999999996 -6.349999999999994 38.099999999999994
  endloop
endfacet
facet normal 1.0 0.0 0.0
  outer loop
    vertex 38.099999999999994 38.099999999999994 38.099999999999994
    vertex 38.099999999999994 -25.4 44.449999999999996
    vertex 38.099999999999994 -25.4 38.099999999999994
  endloop
endfacet
facet normal 1.0 0.0 0.0
  outer loop
    vertex 38.099999999999994 -25.4 44.449999999999996
    vertex 38.099999999999994 38.099999999999994 38.099999999999994
    vertex 38.099999999999994 38.099999999999994 44.449999999999996
  endloop
endfacet
facet normal -1.0 0.0 0.0
  outer loop
    vertex 36.512499999999996 36.512499999999996 44.449999999999996
    vertex 36.512499999999996 19.049999999999997 38.099999999999994
    vertex 36.512499999999996 19.049999999999997 44.449999999999996
  endloop
endfacet
facet normal -1.0 0.0 0.0
  outer loop
    vertex 36.512499999999996 19.049999999999997 38.099999999999994
    vertex 36.512499999999996 36.512499999999996 44.449999999999996
    vertex 36.512499999999996 36.512499999999996 38.099999999999994
  endloop
endfacet
facet normal 0.0 1.0 0.0
  outer loop
    vertex 36.512499999999996 19.049999999999997 44.449999999999996
    vertex 36.512499999999996 19.049999999999997 38.099999999999994
    vertex 30.162499999999998 19.049999999999997 38.099999999999994
  endloop
endfacet
facet normal 5.2189154471575315e-18 0.9990561583550596 -0.04343722427630922
  outer loop
    vertex 36.512499999999996 19.049999999999997 38.099999999999994
    vertex 36.236933471757254 18.774433471757238 31.76196985041689
    vertex 30.162499999999998 19.049999999999997 38.099999999999994
  endloop
endfacet
facet normal -0.7219604408453252 -7.035745077866731e-18 -0.6919343334843444
  outer loop
    vertex 30.162499999999998 19.049999999999997 38.099999999999994
    vertex 36.236933471757254 -6.07443347175725 31.76196985041689
    vertex 30.162499999999998 -6.349999999999994 38.099999999999994
  endloop
endfacet
facet normal -0.7219604408453252 -7.035745077866731e-18 -0.6919343334843444
  outer loop
    vertex 36.236933471757254 -6.07443347175725 31.76196985041689
    vertex 30.162499999999998 19.049999999999997 38.099999999999994
    vertex 36.236933471757254 18.774433471757238 31.76196985041689
  endloop
endfacet
facet normal 0.0 -0.9990561583550596 0.04343722427630694
  outer loop
    vertex 36.512499999999996 36.512499999999996 38.099999999999994
    vertex -22.224999999999998 34.925 1.5875
    vertex 34.925 34.925 1.5875
  endloop
endfacet
facet normal 0.0 -0.9990561583550596 0.04343722427630694
  outer loop
    vertex -22.224999999999998 34.925 1.5875
    vertex 36.512499999999996 36.512499999999996 38.099999999999994
    vertex -23.8125 36.512499999999996 38.099999999999994
  endloop
endfacet
facet normal 0.0 -1.0 0.0
  outer loop
    vertex 36.512499999999996 36.512499999999996 44.449999999999996
    vertex -23.8125 36.512499999999996 38.099999999999994
    vertex 36.512499999999996 36.512499999999996 38.099999999999994
  endloop
endfacet
facet normal 0.0 -1.0 0.0
  outer loop
    vertex -23.8125 36.512499999999996 38.099999999999994
    vertex 36.512499999999996 36.512499999999996 44.449999999999996
    vertex -23.8125 36.512499999999996 44.449999999999996
  endloop
endfacet
facet normal 0.0 1.0 0.0
  outer loop
    vertex -23.8125 -23.8125 44.449999999999996
    vertex 36.512499999999996 -23.8125 38.099999999999994
    vertex -23.8125 -23.8125 38.099999999999994
  endloop
endfacet
facet normal 0.0 1.0 0.0
  outer loop
    vertex 36.512499999999996 -23.8125 38.099999999999994
    vertex -23.8125 -23.8125 44.449999999999996
    vertex 36.512499999999996 -23.8125 44.449999999999996
  endloop
endfacet
facet normal 0.0 0.9990561583550596 0.04343722427630694
  outer loop
    vertex -23.8125 -23.8125 38.099999999999994
    vertex 34.925 -22.224999999999998 1.5875
    vertex -22.224999999999998 -22.224999999999998 1.5875
  endloop
endfacet
facet normal 0.0 0.9990561583550596 0.04343722427630694
  outer loop
    vertex 34.925 -22.224999999999998 1.5875
    vertex -23.8125 -23.8125 38.099999999999994
    vertex 36.512499999999996 -23.8125 38.099999999999994
  endloop
endfacet
facet normal 0.0 1.0 0.0
  outer loop
    vertex -25.4 38.099999999999994 44.449999999999996
    vertex 38.099999999999994 38.099999999999994 38.099999999999994
    vertex -25.4 38.099999999999994 38.099999999999994
  endloop
endfacet
facet normal 0.0 1.0 0.0
  outer loop
    vertex 38.099999999999994 38.099999999999994 38.099999999999994
    vertex -25.4 38.099999999999994 44.449999999999996
    vertex 38.099999999999994 38.099999999999994 44.449999999999996
  endloop
endfacet
facet normal 0.0 0.9990561583550596 -0.04343722427630694
  outer loop
    vertex -25.4 38.099999999999994 38.099999999999994
    vertex 36.512499999999996 36.512499999999996 1.5875
    vertex -23.8125 36.512499999999996 1.5875
  endloop
endfacet
facet normal 0.0 0.9990561583550596 -0.04343722427630694
  outer loop
    vertex 36.512499999999996 36.512499999999996 1.5875
    vertex -25.4 38.099999999999994 38.099999999999994
    vertex 38.099999999999994 38.099999999999994 38.099999999999994
  endloop
endfacet
facet normal 0.0 -1.0 0.0
  outer loop
    vertex 38.099999999999994 -25.4 44.449999999999996
    vertex -25.4 -25.4 38.099999999999994
    vertex 38.099999999999994 -25.4 38.099999999999994
  endloop
endfacet
facet normal 0.0 -1.0 0.0
  outer loop
    vertex -25.4 -25.4 38.099999999999994
    vertex 38.099999999999994 -25.4 44.449999999999996
    vertex -25.4 -25.4 44.449999999999996
  endloop
endfacet
facet normal 0.0 -0.9990561583550596 -0.04343722427630694
  outer loop
    vertex 38.099999999999994 -25.4 38.099999999999994
    vertex -23.8125 -23.8125 1.5875
    vertex 36.512499999999996 -23.8125 1.5875
  endloop
endfacet
facet normal 0.0 -0.9990561583550596 -0.04343722427630694
  outer loop
    vertex -23.8125 -23.8125 1.5875
    vertex 38.099999999999994 -25.4 38.099999999999994
    vertex -25.4 -25.4 38.099999999999994
  endloop
endfacet
facet normal 0.0 -1.0 0.0
  outer loop
    vertex 36.512499999999996 -6.349999999999994 44.449999999999996
    vertex 30.162499999999998 -6.349999999999994 38.099999999999994
    vertex 36.512499999999996 -6.349999999999994 38.099999999999994
  endloop
endfacet
facet normal 0.0 -0.9990561583550596 -0.04343722427630701
  outer loop
    vertex 30.162499999999998 -6.349999999999994 38.099999999999994
    vertex 36.236933471757254 -6.07443347175725 31.76196985041689
    vertex 36.512499999999996 -6.349999999999994 38.099999999999994
  endloop
endfacet
endsolid D Bolt Holder
