solid Fermentor Stand
facet normal 0.0 0.0 -1.0
  outer loop
    vertex 306.3875 25.4 600.0749999999999
    vertex 103.1875 -0.510782069291532 600.0749999999999
    vertex 103.1875 25.4 600.0749999999999
  endloop
endfacet
facet normal 0.0 0.0 -1.0
  outer loop
    vertex 103.1875 -0.510782069291532 600.0749999999999
    vertex 306.3875 25.4 600.0749999999999
    vertex 306.3875 -0.510782069291532 600.0749999999999
  endloop
endfacet
facet normal -1.7906401816850467e-17 0.9659258262890684 -0.2588190451025207
  outer loop
    vertex 103.1875 -0.510782069291532 600.0749999999999
    vertex 306.3875 -1.3615207552603468 596.9
    vertex 103.1875 -1.3615207552603468 596.9
  endloop
endfacet
facet normal -1.7906401816850467e-17 0.9659258262890684 -0.2588190451025207
  outer loop
    vertex 306.3875 -1.3615207552603468 596.9
    vertex 103.1875 -0.510782069291532 600.0749999999999
    vertex 306.3875 -0.510782069291532 600.0749999999999
  endloop
endfacet
facet normal 0.0 0.0 -1.0
  outer loop
    vertex 306.3875 25.4 593.725
    vertex 103.1875 -2.212259441229159 593.725
    vertex 103.1875 25.4 593.725
  endloop
endfacet
facet normal 0.0 0.0 -1.0
  outer loop
    vertex 103.1875 -2.212259441229159 593.725
    vertex 306.3875 25.4 593.725
    vertex 306.3875 -2.212259441229159 593.725
  endloop
endfacet
facet normal 0.0 -0.2588190451025207 0.9659258262890684
  outer loop
    vertex 306.3875 -3.175 602.3992613140312
    vertex 103.1875 101.62287512927709 630.4797673234185
    vertex 103.1875 -3.175 602.3992613140312
  endloop
endfacet
facet normal 0.0 -0.2588190451025207 0.9659258262890684
  outer loop
    vertex 103.1875 101.62287512927709 630.4797673234185
    vertex 306.3875 -3.175 602.3992613140312
    vertex 306.3875 101.62287512927709 630.4797673234185
  endloop
endfacet
facet normal 0.0 0.0 1.0
  outer loop
    vertex 306.3875 -1.3615207552603468 596.9
    vertex 103.1875 25.4 596.9
    vertex 103.1875 -1.3615207552603468 596.9
  endloop
endfacet
facet normal 0.0 0.0 1.0
  outer loop
    vertex 103.1875 25.4 596.9
    vertex 306.3875 -1.3615207552603468 596.9
    vertex 306.3875 25.4 596.9
  endloop
endfacet
facet normal 0.0 1.0 0.0
  outer loop
    vertex 103.1875 25.4 596.9
    vertex 306.3875 25.4 593.725
    vertex 103.1875 25.4 593.725
  endloop
endfacet
facet normal 0.0 1.0 0.0
  outer loop
    vertex 306.3875 25.4 593.725
    vertex 103.1875 25.4 596.9
    vertex 306.3875 25.4 596.9
  endloop
endfacet
facet normal -6.2985709247115336e-18 0.6807898000679401 -0.7324788380038391
  outer loop
    vertex 306.3875 -2.212259441229159 593.725
    vertex 103.1875 -30.711076659663505 567.2372667445459
    vertex 103.1875 -2.212259441229159 593.725
  endloop
endfacet
facet normal -6.2985709247115336e-18 0.6807898000679401 -0.7324788380038391
  outer loop
    vertex 103.1875 -30.711076659663505 567.2372667445459
    vertex 306.3875 -2.212259441229159 593.725
    vertex 306.3875 -30.711076659663505 567.2372667445459
  endloop
endfacet
facet normal 1.0 0.0 0.0
  outer loop
    vertex 306.3875 25.4 593.725
    vertex 306.3875 -1.3615207552603468 596.9
    vertex 306.3875 -2.212259441229159 593.725
  endloop
endfacet
facet normal 1.0 0.0 0.0
  outer loop
    vertex 306.3875 -1.3615207552603468 596.9
    vertex 306.3875 25.4 593.725
    vertex 306.3875 25.4 596.9
  endloop
endfacet
facet normal 1.0 0.0 0.0
  outer loop
    vertex 306.3875 -30.711076659663505 567.2372667445459
    vertex 306.3875 -3.175 602.3992613140312
    vertex 306.3875 -33.574601481215694 567.2372667445459
  endloop
endfacet
facet normal 1.0 0.0 0.0
  outer loop
    vertex 306.3875 -3.175 602.3992613140312
    vertex 306.3875 -30.711076659663505 567.2372667445459
    vertex 306.3875 -2.212259441229159 593.725
  endloop
endfacet
facet normal 1.0 0.0 0.0
  outer loop
    vertex 306.3875 -3.175 602.3992613140312
    vertex 306.3875 -2.212259441229159 593.725
    vertex 306.3875 -1.3615207552603468 596.9
  endloop
endfacet
facet normal 1.0 0.0 0.0
  outer loop
    vertex 306.3875 -3.175 602.3992613140312
    vertex 306.3875 -1.3615207552603468 596.9
    vertex 306.3875 -0.510782069291532 600.0749999999999
  endloop
endfacet
facet normal 1.0 0.0 0.0
  outer loop
    vertex 306.3875 -3.175 602.3992613140312
    vertex 306.3875 -0.510782069291532 600.0749999999999
    vertex 306.3875 101.62287512927709 630.4797673234185
  endloop
endfacet
facet normal 1.0 0.0 0.0
  outer loop
    vertex 306.3875 101.62287512927709 630.4797673234185
    vertex 306.3875 -0.510782069291532 600.0749999999999
    vertex 306.3875 25.400000000000006 606.8809094877505
  endloop
endfacet
facet normal 1.0 0.0 0.0
  outer loop
    vertex 306.3875 25.400000000000006 606.8809094877505
    vertex 306.3875 -0.510782069291532 600.0749999999999
    vertex 306.3875 25.4 600.0749999999999
  endloop
endfacet
facet normal 1.0 0.0 0.0
  outer loop
    vertex 306.3875 101.62287512927709 630.4797673234185
    vertex 306.3875 25.400000000000006 606.8809094877505
    vertex 306.3875 101.62287512927709 627.3047673234186
  endloop
endfacet
facet normal -1.0 0.0 0.0
  outer loop
    vertex 103.1875 -3.175 602.3992613140312
    vertex 103.1875 -30.711076659663505 567.2372667445459
    vertex 103.1875 -33.574601481215694 567.2372667445459
  endloop
endfacet
facet normal -1.0 0.0 0.0
  outer loop
    vertex 103.1875 -30.711076659663505 567.2372667445459
    vertex 103.1875 -3.175 602.3992613140312
    vertex 103.1875 -2.212259441229159 593.725
  endloop
endfacet
facet normal -1.0 0.0 0.0
  outer loop
    vertex 103.1875 -2.212259441229159 593.725
    vertex 103.1875 -3.175 602.3992613140312
    vertex 103.1875 -1.3615207552603468 596.9
  endloop
endfacet
facet normal -1.0 0.0 0.0
  outer loop
    vertex 103.1875 -1.3615207552603468 596.9
    vertex 103.1875 -3.175 602.3992613140312
    vertex 103.1875 -0.510782069291532 600.0749999999999
  endloop
endfacet
facet normal -1.0 0.0 0.0
  outer loop
    vertex 103.1875 -0.510782069291532 600.0749999999999
    vertex 103.1875 -3.175 602.3992613140312
    vertex 103.1875 101.62287512927709 630.4797673234185
  endloop
endfacet
facet normal -1.0 0.0 0.0
  outer loop
    vertex 103.1875 -0.510782069291532 600.0749999999999
    vertex 103.1875 101.62287512927709 630.4797673234185
    vertex 103.1875 25.400000000000006 606.8809094877505
  endloop
endfacet
facet normal -1.0 0.0 0.0
  outer loop
    vertex 103.1875 -0.510782069291532 600.0749999999999
    vertex 103.1875 25.400000000000006 606.8809094877505
    vertex 103.1875 25.4 600.0749999999999
  endloop
endfacet
facet normal -1.0 0.0 0.0
  outer loop
    vertex 103.1875 25.400000000000006 606.8809094877505
    vertex 103.1875 101.62287512927709 630.4797673234185
    vertex 103.1875 101.62287512927709 627.3047673234186
  endloop
endfacet
facet normal -1.0 0.0 0.0
  outer loop
    vertex 103.1875 -1.3615207552603468 596.9
    vertex 103.1875 25.4 593.725
    vertex 103.1875 -2.212259441229159 593.725
  endloop
endfacet
facet normal -1.0 0.0 0.0
  outer loop
    vertex 103.1875 25.4 593.725
    vertex 103.1875 -1.3615207552603468 596.9
    vertex 103.1875 25.4 596.9
  endloop
endfacet
facet normal 0.0 1.0 -8.286817471267792e-16
  outer loop
    vertex 103.1875 25.400000000000006 606.8809094877505
    vertex 306.3875 25.4 600.0749999999999
    vertex 103.1875 25.4 600.0749999999999
  endloop
endfacet
facet normal 0.0 1.0 -8.286817471267792e-16
  outer loop
    vertex 306.3875 25.4 600.0749999999999
    vertex 103.1875 25.400000000000006 606.8809094877505
    vertex 306.3875 25.400000000000006 606.8809094877505
  endloop
endfacet
facet normal 0.0 0.2588190451025208 -0.9659258262890682
  outer loop
    vertex 306.3875 101.62287512927709 627.3047673234186
    vertex 103.1875 25.400000000000006 606.8809094877505
    vertex 103.1875 101.62287512927709 627.3047673234186
  endloop
endfacet
facet normal 0.0 0.2588190451025208 -0.9659258262890682
  outer loop
    vertex 103.1875 25.400000000000006 606.8809094877505
    vertex 306.3875 101.62287512927709 627.3047673234186
    vertex 306.3875 25.400000000000006 606.8809094877505
  endloop
endfacet
facet normal 0.0 1.0 0.0
  outer loop
    vertex 103.1875 101.62287512927709 630.4797673234185
    vertex 306.3875 101.62287512927709 627.3047673234186
    vertex 103.1875 101.62287512927709 627.3047673234186
  endloop
endfacet
facet normal 0.0 1.0 0.0
  outer loop
    vertex 306.3875 101.62287512927709 627.3047673234186
    vertex 103.1875 101.62287512927709 630.4797673234185
    vertex 306.3875 101.62287512927709 630.4797673234185
  endloop
endfacet
facet normal 2.799530337993374e-17 -0.7564778272199613 0.6540193398704403
  outer loop
    vertex 306.3875 -3.175 602.3992613140312
    vertex 103.1875 -33.574601481215694 567.2372667445459
    vertex 306.3875 -33.574601481215694 567.2372667445459
  endloop
endfacet
facet normal 2.799530337993374e-17 -0.7564778272199613 0.6540193398704403
  outer loop
    vertex 103.1875 -33.574601481215694 567.2372667445459
    vertex 306.3875 -3.175 602.3992613140312
    vertex 103.1875 -3.175 602.3992613140312
  endloop
endfacet
facet normal 0.0 0.0 -1.0
  outer loop
    vertex 306.3875 -30.711076659663505 567.2372667445459
    vertex 103.1875 -33.574601481215694 567.2372667445459
    vertex 103.1875 -30.711076659663505 567.2372667445459
  endloop
endfacet
facet normal 0.0 0.0 -1.0
  outer loop
    vertex 103.1875 -33.574601481215694 567.2372667445459
    vertex 306.3875 -30.711076659663505 567.2372667445459
    vertex 306.3875 -33.574601481215694 567.2372667445459
  endloop
endfacet
endsolid Fermentor Stand
