solid Untitled-62d47114
facet normal -0.0929861202226524 -0.7062997051075653 -0.7017793869948765
  outer loop
    vertex -2.8199664825478975e-15 -14.838679999999998 34.624975199999994
    vertex -3.0240417229778607 -11.285877354361473 31.449975199999994
    vertex -2.8199664825478975e-15 -11.684 31.449975199999994
  endloop
endfacet
facet normal -0.0929861202226524 -0.7062997051075653 -0.7017793869948765
  outer loop
    vertex -3.0240417229778607 -11.285877354361473 31.449975199999994
    vertex -2.8199664825478975e-15 -14.838679999999998 34.624975199999994
    vertex -3.840532988181884 -14.333064240039068 34.624975199999994
  endloop
endfacet
facet normal -0.5651804271972832 -0.43367819486595316 -0.7017793869948766
  outer loop
    vertex -10.118640817817383 -5.841999999999996 31.449975199999994
    vertex -10.492531251857203 -10.492531251857192 34.624975199999994
    vertex -12.850673838628076 -7.419339999999995 34.624975199999994
  endloop
endfacet
facet normal -0.5651804271972832 -0.43367819486595316 -0.7017793869948766
  outer loop
    vertex -10.492531251857203 -10.492531251857192 34.624975199999994
    vertex -10.118640817817383 -5.841999999999996 31.449975199999994
    vertex -8.261835631383626 -8.261835631383617 31.449975199999994
  endloop
endfacet
facet normal -0.09298612022265167 0.7062997051075653 -0.7017793869948767
  outer loop
    vertex -3.8405329881818697 14.33306424003907 34.624975199999994
    vertex 0.0 11.684000000000001 31.449975199999994
    vertex -3.024041722977851 11.285877354361478 31.449975199999994
  endloop
endfacet
facet normal -0.09298612022265167 0.7062997051075653 -0.7017793869948767
  outer loop
    vertex 0.0 11.684000000000001 31.449975199999994
    vertex -3.8405329881818697 14.33306424003907 34.624975199999994
    vertex 0.0 14.838679999999998 34.624975199999994
  endloop
endfacet
facet normal 0.5651804271972828 0.4336781948659535 -0.7017793869948769
  outer loop
    vertex 10.492531251857198 10.492531251857198 34.624975199999994
    vertex 10.118640817817381 5.842 31.449975199999994
    vertex 8.26183563138362 8.26183563138362 31.449975199999994
  endloop
endfacet
facet normal 0.5651804271972828 0.4336781948659535 -0.7017793869948769
  outer loop
    vertex 10.118640817817381 5.842 31.449975199999994
    vertex 10.492531251857198 10.492531251857198 34.624975199999994
    vertex 12.850673838628074 7.419339999999997 34.624975199999994
  endloop
endfacet
facet normal -0.7062997051075653 -0.09298612022265176 -0.7017793869948767
  outer loop
    vertex -14.838679999999998 2.8199664825478975e-15 34.624975199999994
    vertex -11.285877354361475 -3.024041722977848 31.449975199999994
    vertex -14.333064240039073 -3.840532988181867 34.624975199999994
  endloop
endfacet
facet normal -0.7062997051075653 -0.09298612022265176 -0.7017793869948767
  outer loop
    vertex -11.285877354361475 -3.024041722977848 31.449975199999994
    vertex -14.838679999999998 2.8199664825478975e-15 34.624975199999994
    vertex -11.684 2.8199664825478975e-15 31.449975199999994
  endloop
endfacet
facet normal 0.09298612022265208 0.7062997051075653 -0.7017793869948766
  outer loop
    vertex 0.0 14.838679999999998 34.624975199999994
    vertex 3.024041722977855 11.285877354361473 31.449975199999994
    vertex 0.0 11.684000000000001 31.449975199999994
  endloop
endfacet
facet normal 0.09298612022265208 0.7062997051075653 -0.7017793869948766
  outer loop
    vertex 3.024041722977855 11.285877354361473 31.449975199999994
    vertex 0.0 14.838679999999998 34.624975199999994
    vertex 3.8405329881818755 14.33306424003907 34.624975199999994
  endloop
endfacet
facet normal -0.4336781948659535 0.565180427197283 -0.7017793869948767
  outer loop
    vertex -7.419339999999996 12.850673838628074 34.624975199999994
    vertex -8.26183563138362 8.26183563138362 31.449975199999994
    vertex -10.492531251857196 10.492531251857198 34.624975199999994
  endloop
endfacet
facet normal -0.4336781948659535 0.565180427197283 -0.7017793869948767
  outer loop
    vertex -8.26183563138362 8.26183563138362 31.449975199999994
    vertex -7.419339999999996 12.850673838628074 34.624975199999994
    vertex -5.841999999999996 10.118640817817381 31.449975199999994
  endloop
endfacet
facet normal -0.5651804271972829 0.4336781948659538 -0.7017793869948766
  outer loop
    vertex -10.492531251857196 10.492531251857198 34.624975199999994
    vertex -10.11864081781738 5.842000000000005 31.449975199999994
    vertex -12.85067383862807 7.419340000000003 34.624975199999994
  endloop
endfacet
facet normal -0.5651804271972829 0.4336781948659538 -0.7017793869948766
  outer loop
    vertex -10.11864081781738 5.842000000000005 31.449975199999994
    vertex -10.492531251857196 10.492531251857198 34.624975199999994
    vertex -8.26183563138362 8.26183563138362 31.449975199999994
  endloop
endfacet
facet normal -0.6581665474199353 -0.27262151024161174 -0.7017793869948767
  outer loop
    vertex -11.285877354361475 -3.024041722977848 31.449975199999994
    vertex -12.850673838628076 -7.419339999999995 34.624975199999994
    vertex -14.333064240039073 -3.840532988181867 34.624975199999994
  endloop
endfacet
facet normal -0.6581665474199353 -0.27262151024161174 -0.7017793869948767
  outer loop
    vertex -12.850673838628076 -7.419339999999995 34.624975199999994
    vertex -11.285877354361475 -3.024041722977848 31.449975199999994
    vertex -10.118640817817383 -5.841999999999996 31.449975199999994
  endloop
endfacet
facet normal -0.43367819486595377 -0.5651804271972827 -0.7017793869948766
  outer loop
    vertex -8.261835631383626 -8.261835631383617 31.449975199999994
    vertex -7.419340000000006 -12.85067383862807 34.624975199999994
    vertex -10.492531251857203 -10.492531251857192 34.624975199999994
  endloop
endfacet
facet normal -0.43367819486595377 -0.5651804271972827 -0.7017793869948766
  outer loop
    vertex -7.419340000000006 -12.85067383862807 34.624975199999994
    vertex -8.261835631383626 -8.261835631383617 31.449975199999994
    vertex -5.842000000000005 -10.11864081781738 31.449975199999994
  endloop
endfacet
facet normal 0.43367819486595355 0.5651804271972828 -0.7017793869948767
  outer loop
    vertex 7.419340000000003 12.850673838628074 34.624975199999994
    vertex 8.26183563138362 8.26183563138362 31.449975199999994
    vertex 5.842000000000002 10.118640817817381 31.449975199999994
  endloop
endfacet
facet normal 0.43367819486595355 0.5651804271972828 -0.7017793869948767
  outer loop
    vertex 8.26183563138362 8.26183563138362 31.449975199999994
    vertex 7.419340000000003 12.850673838628074 34.624975199999994
    vertex 10.492531251857198 10.492531251857198 34.624975199999994
  endloop
endfacet
facet normal -0.7062997051075653 0.09298612022265208 -0.7017793869948766
  outer loop
    vertex -14.33306424003907 3.840532988181878 34.624975199999994
    vertex -11.684 2.8199664825478975e-15 31.449975199999994
    vertex -14.838679999999998 2.8199664825478975e-15 34.624975199999994
  endloop
endfacet
facet normal -0.7062997051075653 0.09298612022265208 -0.7017793869948766
  outer loop
    vertex -11.684 2.8199664825478975e-15 31.449975199999994
    vertex -14.33306424003907 3.840532988181878 34.624975199999994
    vertex -11.285877354361473 3.024041722977855 31.449975199999994
  endloop
endfacet
facet normal 0.7062997051075653 -0.09298612022265228 -0.7017793869948766
  outer loop
    vertex 11.285877354361473 -3.024041722977862 31.449975199999994
    vertex 14.838679999999998 0.0 34.624975199999994
    vertex 14.33306424003907 -3.840532988181884 34.624975199999994
  endloop
endfacet
facet normal 0.7062997051075653 -0.09298612022265228 -0.7017793869948766
  outer loop
    vertex 14.838679999999998 0.0 34.624975199999994
    vertex 11.285877354361473 -3.024041722977862 31.449975199999994
    vertex 11.684000000000001 0.0 31.449975199999994
  endloop
endfacet
facet normal 0.6581665474199353 -0.27262151024161224 -0.7017793869948766
  outer loop
    vertex 11.285877354361473 -3.024041722977862 31.449975199999994
    vertex 12.850673838628074 -7.419340000000006 34.624975199999994
    vertex 10.11864081781738 -5.842000000000005 31.449975199999994
  endloop
endfacet
facet normal 0.6581665474199353 -0.27262151024161224 -0.7017793869948766
  outer loop
    vertex 12.850673838628074 -7.419340000000006 34.624975199999994
    vertex 11.285877354361473 -3.024041722977862 31.449975199999994
    vertex 14.33306424003907 -3.840532988181884 34.624975199999994
  endloop
endfacet
facet normal -0.6581665474199351 0.27262151024161224 -0.7017793869948767
  outer loop
    vertex -12.85067383862807 7.419340000000003 34.624975199999994
    vertex -11.285877354361473 3.024041722977855 31.449975199999994
    vertex -14.33306424003907 3.840532988181878 34.624975199999994
  endloop
endfacet
facet normal -0.6581665474199351 0.27262151024161224 -0.7017793869948767
  outer loop
    vertex -11.285877354361473 3.024041722977855 31.449975199999994
    vertex -12.85067383862807 7.419340000000003 34.624975199999994
    vertex -10.11864081781738 5.842000000000005 31.449975199999994
  endloop
endfacet
facet normal 0.27262151024161146 -0.6581665474199354 -0.7017793869948769
  outer loop
    vertex 5.841999999999991 -10.118640817817386 31.449975199999994
    vertex 3.840532988181867 -14.333064240039073 34.624975199999994
    vertex 3.0240417229778465 -11.285877354361475 31.449975199999994
  endloop
endfacet
facet normal 0.27262151024161146 -0.6581665474199354 -0.7017793869948769
  outer loop
    vertex 3.840532988181867 -14.333064240039073 34.624975199999994
    vertex 5.841999999999991 -10.118640817817386 31.449975199999994
    vertex 7.419339999999992 -12.85067383862808 34.624975199999994
  endloop
endfacet
facet normal -0.27262151024161196 0.6581665474199351 -0.7017793869948769
  outer loop
    vertex -3.8405329881818697 14.33306424003907 34.624975199999994
    vertex -5.841999999999996 10.118640817817381 31.449975199999994
    vertex -7.419339999999996 12.850673838628074 34.624975199999994
  endloop
endfacet
facet normal -0.27262151024161196 0.6581665474199351 -0.7017793869948769
  outer loop
    vertex -5.841999999999996 10.118640817817381 31.449975199999994
    vertex -3.8405329881818697 14.33306424003907 34.624975199999994
    vertex -3.024041722977851 11.285877354361478 31.449975199999994
  endloop
endfacet
facet normal 0.5651804271972829 -0.43367819486595366 -0.7017793869948767
  outer loop
    vertex 10.11864081781738 -5.842000000000005 31.449975199999994
    vertex 10.492531251857194 -10.4925312518572 34.624975199999994
    vertex 8.26183563138362 -8.261835631383622 31.449975199999994
  endloop
endfacet
facet normal 0.5651804271972829 -0.43367819486595366 -0.7017793869948767
  outer loop
    vertex 10.492531251857194 -10.4925312518572 34.624975199999994
    vertex 10.11864081781738 -5.842000000000005 31.449975199999994
    vertex 12.850673838628074 -7.419340000000006 34.624975199999994
  endloop
endfacet
facet normal 0.2726215102416119 0.6581665474199352 -0.7017793869948769
  outer loop
    vertex 3.8405329881818755 14.33306424003907 34.624975199999994
    vertex 5.842000000000002 10.118640817817381 31.449975199999994
    vertex 3.024041722977855 11.285877354361473 31.449975199999994
  endloop
endfacet
facet normal 0.2726215102416119 0.6581665474199352 -0.7017793869948769
  outer loop
    vertex 5.842000000000002 10.118640817817381 31.449975199999994
    vertex 3.8405329881818755 14.33306424003907 34.624975199999994
    vertex 7.419340000000003 12.850673838628074 34.624975199999994
  endloop
endfacet
facet normal -0.2726215102416122 -0.6581665474199353 -0.7017793869948766
  outer loop
    vertex -5.842000000000005 -10.11864081781738 31.449975199999994
    vertex -3.840532988181884 -14.333064240039068 34.624975199999994
    vertex -7.419340000000006 -12.85067383862807 34.624975199999994
  endloop
endfacet
facet normal -0.2726215102416122 -0.6581665474199353 -0.7017793869948766
  outer loop
    vertex -3.840532988181884 -14.333064240039068 34.624975199999994
    vertex -5.842000000000005 -10.11864081781738 31.449975199999994
    vertex -3.0240417229778607 -11.285877354361473 31.449975199999994
  endloop
endfacet
facet normal 0.0929861202226518 -0.7062997051075653 -0.7017793869948767
  outer loop
    vertex 3.840532988181867 -14.333064240039073 34.624975199999994
    vertex -2.8199664825478975e-15 -11.684 31.449975199999994
    vertex 3.0240417229778465 -11.285877354361475 31.449975199999994
  endloop
endfacet
facet normal 0.0929861202226518 -0.7062997051075653 -0.7017793869948767
  outer loop
    vertex -2.8199664825478975e-15 -11.684 31.449975199999994
    vertex 3.840532988181867 -14.333064240039073 34.624975199999994
    vertex -2.8199664825478975e-15 -14.838679999999998 34.624975199999994
  endloop
endfacet
facet normal 0.43367819486595305 -0.5651804271972831 -0.7017793869948769
  outer loop
    vertex 8.26183563138362 -8.261835631383622 31.449975199999994
    vertex 7.419339999999992 -12.85067383862808 34.624975199999994
    vertex 5.841999999999991 -10.118640817817386 31.449975199999994
  endloop
endfacet
facet normal 0.43367819486595305 -0.5651804271972831 -0.7017793869948769
  outer loop
    vertex 7.419339999999992 -12.85067383862808 34.624975199999994
    vertex 8.26183563138362 -8.261835631383622 31.449975199999994
    vertex 10.492531251857194 -10.4925312518572 34.624975199999994
  endloop
endfacet
facet normal 0.6581665474199352 0.27262151024161185 -0.7017793869948769
  outer loop
    vertex 12.850673838628074 7.419339999999997 34.624975199999994
    vertex 11.285877354361478 3.0240417229778522 31.449975199999994
    vertex 10.118640817817381 5.842 31.449975199999994
  endloop
endfacet
facet normal 0.6581665474199352 0.27262151024161185 -0.7017793869948769
  outer loop
    vertex 11.285877354361478 3.0240417229778522 31.449975199999994
    vertex 12.850673838628074 7.419339999999997 34.624975199999994
    vertex 14.33306424003907 3.840532988181873 34.624975199999994
  endloop
endfacet
facet normal 0.7062997051075652 0.09298612022265164 -0.7017793869948769
  outer loop
    vertex 11.285877354361478 3.0240417229778522 31.449975199999994
    vertex 14.838679999999998 0.0 34.624975199999994
    vertex 11.684000000000001 0.0 31.449975199999994
  endloop
endfacet
facet normal 0.7062997051075652 0.09298612022265164 -0.7017793869948769
  outer loop
    vertex 14.838679999999998 0.0 34.624975199999994
    vertex 11.285877354361478 3.0240417229778522 31.449975199999994
    vertex 14.33306424003907 3.840532988181873 34.624975199999994
  endloop
endfacet
facet normal 0.43367819486595355 0.5651804271972828 0.7017793869948767
  outer loop
    vertex 8.26183563138362 8.26183563138362 37.79997519999999
    vertex 7.419340000000003 12.850673838628074 34.624975199999994
    vertex 5.842000000000002 10.118640817817381 37.79997519999999
  endloop
endfacet
facet normal 0.43367819486595355 0.5651804271972828 0.7017793869948767
  outer loop
    vertex 7.419340000000003 12.850673838628074 34.624975199999994
    vertex 8.26183563138362 8.26183563138362 37.79997519999999
    vertex 10.492531251857198 10.492531251857198 34.624975199999994
  endloop
endfacet
facet normal -0.7062997051075653 0.09298612022265208 0.7017793869948766
  outer loop
    vertex -11.285877354361473 3.024041722977855 37.79997519999999
    vertex -14.838679999999998 2.8199664825478975e-15 34.624975199999994
    vertex -11.684 2.8199664825478975e-15 37.79997519999999
  endloop
endfacet
facet normal -0.7062997051075653 0.09298612022265208 0.7017793869948766
  outer loop
    vertex -14.838679999999998 2.8199664825478975e-15 34.624975199999994
    vertex -11.285877354361473 3.024041722977855 37.79997519999999
    vertex -14.33306424003907 3.840532988181878 34.624975199999994
  endloop
endfacet
facet normal -0.0929861202226524 -0.7062997051075653 0.7017793869948765
  outer loop
    vertex -2.8199664825478975e-15 -11.684 37.79997519999999
    vertex -3.840532988181884 -14.333064240039068 34.624975199999994
    vertex -2.8199664825478975e-15 -14.838679999999998 34.624975199999994
  endloop
endfacet
facet normal -0.0929861202226524 -0.7062997051075653 0.7017793869948765
  outer loop
    vertex -3.840532988181884 -14.333064240039068 34.624975199999994
    vertex -2.8199664825478975e-15 -11.684 37.79997519999999
    vertex -3.0240417229778607 -11.285877354361473 37.79997519999999
  endloop
endfacet
facet normal 0.09298612022265204 0.7062997051075653 0.7017793869948766
  outer loop
    vertex 0.0 11.684000000000001 37.79997519999999
    vertex 3.8405329881818755 14.33306424003907 34.624975199999994
    vertex 0.0 14.838679999999998 34.624975199999994
  endloop
endfacet
facet normal 0.09298612022265204 0.7062997051075653 0.7017793869948766
  outer loop
    vertex 3.8405329881818755 14.33306424003907 34.624975199999994
    vertex 0.0 11.684000000000001 37.79997519999999
    vertex 3.024041722977855 11.285877354361473 37.79997519999999
  endloop
endfacet
facet normal 0.2726215102416119 0.6581665474199352 0.7017793869948769
  outer loop
    vertex 5.842000000000002 10.118640817817381 37.79997519999999
    vertex 3.8405329881818755 14.33306424003907 34.624975199999994
    vertex 3.024041722977855 11.285877354361473 37.79997519999999
  endloop
endfacet
facet normal 0.2726215102416119 0.6581665474199352 0.7017793869948769
  outer loop
    vertex 3.8405329881818755 14.33306424003907 34.624975199999994
    vertex 5.842000000000002 10.118640817817381 37.79997519999999
    vertex 7.419340000000003 12.850673838628074 34.624975199999994
  endloop
endfacet
facet normal -0.6581665474199351 0.2726215102416122 0.7017793869948767
  outer loop
    vertex -11.285877354361473 3.024041722977855 37.79997519999999
    vertex -12.85067383862807 7.419340000000003 34.624975199999994
    vertex -14.33306424003907 3.840532988181878 34.624975199999994
  endloop
endfacet
facet normal -0.6581665474199351 0.2726215102416122 0.7017793869948767
  outer loop
    vertex -12.85067383862807 7.419340000000003 34.624975199999994
    vertex -11.285877354361473 3.024041722977855 37.79997519999999
    vertex -10.11864081781738 5.842000000000005 37.79997519999999
  endloop
endfacet
facet normal -0.6581665474199353 -0.2726215102416117 0.7017793869948767
  outer loop
    vertex -12.850673838628076 -7.419339999999995 34.624975199999994
    vertex -11.285877354361475 -3.024041722977848 37.79997519999999
    vertex -14.333064240039073 -3.840532988181867 34.624975199999994
  endloop
endfacet
facet normal -0.6581665474199353 -0.2726215102416117 0.7017793869948767
  outer loop
    vertex -11.285877354361475 -3.024041722977848 37.79997519999999
    vertex -12.850673838628076 -7.419339999999995 34.624975199999994
    vertex -10.118640817817383 -5.841999999999996 37.79997519999999
  endloop
endfacet
facet normal -0.5651804271972832 -0.43367819486595316 0.7017793869948766
  outer loop
    vertex -10.492531251857203 -10.492531251857192 34.624975199999994
    vertex -10.118640817817383 -5.841999999999996 37.79997519999999
    vertex -12.850673838628076 -7.419339999999995 34.624975199999994
  endloop
endfacet
facet normal -0.5651804271972832 -0.43367819486595316 0.7017793869948766
  outer loop
    vertex -10.118640817817383 -5.841999999999996 37.79997519999999
    vertex -10.492531251857203 -10.492531251857192 34.624975199999994
    vertex -8.261835631383626 -8.261835631383617 37.79997519999999
  endloop
endfacet
facet normal -0.27262151024161185 0.6581665474199351 0.7017793869948769
  outer loop
    vertex -5.841999999999996 10.118640817817381 37.79997519999999
    vertex -3.8405329881818697 14.33306424003907 34.624975199999994
    vertex -7.419339999999996 12.850673838628074 34.624975199999994
  endloop
endfacet
facet normal -0.27262151024161185 0.6581665474199351 0.7017793869948769
  outer loop
    vertex -3.8405329881818697 14.33306424003907 34.624975199999994
    vertex -5.841999999999996 10.118640817817381 37.79997519999999
    vertex -3.024041722977851 11.285877354361478 37.79997519999999
  endloop
endfacet
facet normal 0.5651804271972828 0.4336781948659535 0.7017793869948769
  outer loop
    vertex 10.118640817817381 5.842 37.79997519999999
    vertex 10.492531251857198 10.492531251857198 34.624975199999994
    vertex 8.26183563138362 8.26183563138362 37.79997519999999
  endloop
endfacet
facet normal 0.5651804271972828 0.4336781948659535 0.7017793869948769
  outer loop
    vertex 10.492531251857198 10.492531251857198 34.624975199999994
    vertex 10.118640817817381 5.842 37.79997519999999
    vertex 12.850673838628074 7.419339999999997 34.624975199999994
  endloop
endfacet
facet normal -0.27262151024161213 -0.6581665474199353 0.7017793869948766
  outer loop
    vertex -3.840532988181884 -14.333064240039068 34.624975199999994
    vertex -5.842000000000005 -10.11864081781738 37.79997519999999
    vertex -7.419340000000006 -12.85067383862807 34.624975199999994
  endloop
endfacet
facet normal -0.27262151024161213 -0.6581665474199353 0.7017793869948766
  outer loop
    vertex -5.842000000000005 -10.11864081781738 37.79997519999999
    vertex -3.840532988181884 -14.333064240039068 34.624975199999994
    vertex -3.0240417229778607 -11.285877354361473 37.79997519999999
  endloop
endfacet
facet normal -0.4336781948659535 0.565180427197283 0.7017793869948767
  outer loop
    vertex -8.26183563138362 8.26183563138362 37.79997519999999
    vertex -7.419339999999996 12.850673838628074 34.624975199999994
    vertex -10.492531251857196 10.492531251857198 34.624975199999994
  endloop
endfacet
facet normal -0.4336781948659535 0.565180427197283 0.7017793869948767
  outer loop
    vertex -7.419339999999996 12.850673838628074 34.624975199999994
    vertex -8.26183563138362 8.26183563138362 37.79997519999999
    vertex -5.841999999999996 10.118640817817381 37.79997519999999
  endloop
endfacet
facet normal -0.4336781948659538 -0.5651804271972827 0.7017793869948766
  outer loop
    vertex -7.419340000000006 -12.85067383862807 34.624975199999994
    vertex -8.261835631383626 -8.261835631383617 37.79997519999999
    vertex -10.492531251857203 -10.492531251857192 34.624975199999994
  endloop
endfacet
facet normal -0.4336781948659538 -0.5651804271972827 0.7017793869948766
  outer loop
    vertex -8.261835631383626 -8.261835631383617 37.79997519999999
    vertex -7.419340000000006 -12.85067383862807 34.624975199999994
    vertex -5.842000000000005 -10.11864081781738 37.79997519999999
  endloop
endfacet
facet normal 0.7062997051075652 0.09298612022265164 0.7017793869948769
  outer loop
    vertex 14.33306424003907 3.840532988181873 34.624975199999994
    vertex 11.684000000000001 0.0 37.79997519999999
    vertex 14.838679999999998 0.0 34.624975199999994
  endloop
endfacet
facet normal 0.7062997051075652 0.09298612022265164 0.7017793869948769
  outer loop
    vertex 11.684000000000001 0.0 37.79997519999999
    vertex 14.33306424003907 3.840532988181873 34.624975199999994
    vertex 11.285877354361478 3.0240417229778522 37.79997519999999
  endloop
endfacet
facet normal 0.5651804271972828 -0.4336781948659536 0.7017793869948767
  outer loop
    vertex 10.492531251857194 -10.4925312518572 34.624975199999994
    vertex 10.11864081781738 -5.842000000000005 37.79997519999999
    vertex 8.26183563138362 -8.261835631383622 37.79997519999999
  endloop
endfacet
facet normal 0.5651804271972828 -0.4336781948659536 0.7017793869948767
  outer loop
    vertex 10.11864081781738 -5.842000000000005 37.79997519999999
    vertex 10.492531251857194 -10.4925312518572 34.624975199999994
    vertex 12.850673838628074 -7.419340000000006 34.624975199999994
  endloop
endfacet
facet normal 0.43367819486595316 -0.5651804271972832 0.7017793869948767
  outer loop
    vertex 7.419339999999992 -12.85067383862808 34.624975199999994
    vertex 8.26183563138362 -8.261835631383622 37.79997519999999
    vertex 5.841999999999991 -10.118640817817386 37.79997519999999
  endloop
endfacet
facet normal 0.43367819486595316 -0.5651804271972832 0.7017793869948767
  outer loop
    vertex 8.26183563138362 -8.261835631383622 37.79997519999999
    vertex 7.419339999999992 -12.85067383862808 34.624975199999994
    vertex 10.492531251857194 -10.4925312518572 34.624975199999994
  endloop
endfacet
facet normal 0.658166547419935 0.27262151024161174 0.7017793869948769
  outer loop
    vertex 11.285877354361478 3.0240417229778522 37.79997519999999
    vertex 12.850673838628074 7.419339999999997 34.624975199999994
    vertex 10.118640817817381 5.842 37.79997519999999
  endloop
endfacet
facet normal 0.658166547419935 0.27262151024161174 0.7017793869948769
  outer loop
    vertex 12.850673838628074 7.419339999999997 34.624975199999994
    vertex 11.285877354361478 3.0240417229778522 37.79997519999999
    vertex 14.33306424003907 3.840532988181873 34.624975199999994
  endloop
endfacet
facet normal 0.09298612022265176 -0.7062997051075653 0.7017793869948767
  outer loop
    vertex 3.0240417229778465 -11.285877354361475 37.79997519999999
    vertex -2.8199664825478975e-15 -14.838679999999998 34.624975199999994
    vertex 3.840532988181867 -14.333064240039073 34.624975199999994
  endloop
endfacet
facet normal 0.09298612022265176 -0.7062997051075653 0.7017793869948767
  outer loop
    vertex -2.8199664825478975e-15 -14.838679999999998 34.624975199999994
    vertex 3.0240417229778465 -11.285877354361475 37.79997519999999
    vertex -2.8199664825478975e-15 -11.684 37.79997519999999
  endloop
endfacet
facet normal -0.5651804271972827 0.4336781948659538 0.7017793869948766
  outer loop
    vertex -10.11864081781738 5.842000000000005 37.79997519999999
    vertex -10.492531251857196 10.492531251857198 34.624975199999994
    vertex -12.85067383862807 7.419340000000003 34.624975199999994
  endloop
endfacet
facet normal -0.5651804271972827 0.4336781948659538 0.7017793869948766
  outer loop
    vertex -10.492531251857196 10.492531251857198 34.624975199999994
    vertex -10.11864081781738 5.842000000000005 37.79997519999999
    vertex -8.26183563138362 8.26183563138362 37.79997519999999
  endloop
endfacet
facet normal -0.7062997051075653 -0.09298612022265176 0.7017793869948767
  outer loop
    vertex -11.285877354361475 -3.024041722977848 37.79997519999999
    vertex -14.838679999999998 2.8199664825478975e-15 34.624975199999994
    vertex -14.333064240039073 -3.840532988181867 34.624975199999994
  endloop
endfacet
facet normal -0.7062997051075653 -0.09298612022265176 0.7017793869948767
  outer loop
    vertex -14.838679999999998 2.8199664825478975e-15 34.624975199999994
    vertex -11.285877354361475 -3.024041722977848 37.79997519999999
    vertex -11.684 2.8199664825478975e-15 37.79997519999999
  endloop
endfacet
facet normal 0.2726215102416114 -0.6581665474199354 0.7017793869948769
  outer loop
    vertex 3.840532988181867 -14.333064240039073 34.624975199999994
    vertex 5.841999999999991 -10.118640817817386 37.79997519999999
    vertex 3.0240417229778465 -11.285877354361475 37.79997519999999
  endloop
endfacet
facet normal 0.2726215102416114 -0.6581665474199354 0.7017793869948769
  outer loop
    vertex 5.841999999999991 -10.118640817817386 37.79997519999999
    vertex 3.840532988181867 -14.333064240039073 34.624975199999994
    vertex 7.419339999999992 -12.85067383862808 34.624975199999994
  endloop
endfacet
facet normal -0.0929861202226517 0.7062997051075652 0.7017793869948769
  outer loop
    vertex -3.024041722977851 11.285877354361478 37.79997519999999
    vertex 0.0 14.838679999999998 34.624975199999994
    vertex -3.8405329881818697 14.33306424003907 34.624975199999994
  endloop
endfacet
facet normal -0.0929861202226517 0.7062997051075652 0.7017793869948769
  outer loop
    vertex 0.0 14.838679999999998 34.624975199999994
    vertex -3.024041722977851 11.285877354361478 37.79997519999999
    vertex 0.0 11.684000000000001 37.79997519999999
  endloop
endfacet
facet normal 0.7062997051075653 -0.09298612022265226 0.7017793869948766
  outer loop
    vertex 14.838679999999998 0.0 34.624975199999994
    vertex 11.285877354361473 -3.024041722977862 37.79997519999999
    vertex 14.33306424003907 -3.840532988181884 34.624975199999994
  endloop
endfacet
facet normal 0.7062997051075653 -0.09298612022265226 0.7017793869948766
  outer loop
    vertex 11.285877354361473 -3.024041722977862 37.79997519999999
    vertex 14.838679999999998 0.0 34.624975199999994
    vertex 11.684000000000001 0.0 37.79997519999999
  endloop
endfacet
facet normal 0.6581665474199353 -0.27262151024161224 0.7017793869948766
  outer loop
    vertex 12.850673838628074 -7.419340000000006 34.624975199999994
    vertex 11.285877354361473 -3.024041722977862 37.79997519999999
    vertex 10.11864081781738 -5.842000000000005 37.79997519999999
  endloop
endfacet
facet normal 0.6581665474199353 -0.27262151024161224 0.7017793869948766
  outer loop
    vertex 11.285877354361473 -3.024041722977862 37.79997519999999
    vertex 12.850673838628074 -7.419340000000006 34.624975199999994
    vertex 14.33306424003907 -3.840532988181884 34.624975199999994
  endloop
endfacet
facet normal 0.0 0.0 1.0
  outer loop
    vertex -0.24828930179594946 -0.0665289179055093 164.7999752
    vertex -0.24828930179594946 0.06652891790551775 164.7999752
    vertex -0.2570479999999976 2.8199664825478975e-15 164.7999752
  endloop
endfacet
facet normal 0.0 0.0 1.0
  outer loop
    vertex -0.24828930179594946 0.06652891790551775 164.7999752
    vertex -0.24828930179594946 -0.0665289179055093 164.7999752
    vertex -0.22261009799197928 -0.128523999999996 164.7999752
  endloop
endfacet
facet normal 0.0 0.0 1.0
  outer loop
    vertex -0.24828930179594946 0.06652891790551775 164.7999752
    vertex -0.22261009799197928 -0.128523999999996 164.7999752
    vertex -0.22261009799197928 0.12852400000000444 164.7999752
  endloop
endfacet
facet normal 0.0 0.0 1.0
  outer loop
    vertex -0.22261009799197928 0.12852400000000444 164.7999752
    vertex -0.22261009799197928 -0.128523999999996 164.7999752
    vertex -0.18176038389043453 -0.18176038389043453 164.7999752
  endloop
endfacet
facet normal 0.0 0.0 1.0
  outer loop
    vertex -0.22261009799197928 0.12852400000000444 164.7999752
    vertex -0.18176038389043453 -0.18176038389043453 164.7999752
    vertex -0.18176038389043453 0.181760383890443 164.7999752
  endloop
endfacet
facet normal 0.0 0.0 1.0
  outer loop
    vertex -0.18176038389043453 0.181760383890443 164.7999752
    vertex -0.18176038389043453 -0.18176038389043453 164.7999752
    vertex -0.128523999999996 -0.22261009799197928 164.7999752
  endloop
endfacet
facet normal 0.0 0.0 1.0
  outer loop
    vertex -0.18176038389043453 0.181760383890443 164.7999752
    vertex -0.128523999999996 -0.22261009799197928 164.7999752
    vertex -0.128523999999996 0.22261009799198772 164.7999752
  endloop
endfacet
facet normal 0.0 0.0 1.0
  outer loop
    vertex -0.128523999999996 0.22261009799198772 164.7999752
    vertex -0.128523999999996 -0.22261009799197928 164.7999752
    vertex -0.0665289179055093 -0.24828930179594946 164.7999752
  endloop
endfacet
facet normal 0.0 0.0 1.0
  outer loop
    vertex -0.128523999999996 0.22261009799198772 164.7999752
    vertex -0.0665289179055093 -0.24828930179594946 164.7999752
    vertex -0.0665289179055093 0.2482893017959551 164.7999752
  endloop
endfacet
facet normal 0.0 0.0 1.0
  outer loop
    vertex -0.0665289179055093 0.2482893017959551 164.7999752
    vertex -0.0665289179055093 -0.24828930179594946 164.7999752
    vertex 2.8199664825478975e-15 -0.2570479999999976 164.7999752
  endloop
endfacet
facet normal 0.0 0.0 1.0
  outer loop
    vertex -0.0665289179055093 0.2482893017959551 164.7999752
    vertex 2.8199664825478975e-15 -0.2570479999999976 164.7999752
    vertex 2.8199664825478975e-15 0.2570480000000033 164.7999752
  endloop
endfacet
facet normal 0.0 0.0 1.0
  outer loop
    vertex 2.8199664825478975e-15 0.2570480000000033 164.7999752
    vertex 2.8199664825478975e-15 -0.2570479999999976 164.7999752
    vertex 0.06652891790551775 -0.24828930179594946 164.7999752
  endloop
endfacet
facet normal 0.0 0.0 1.0
  outer loop
    vertex 2.8199664825478975e-15 0.2570480000000033 164.7999752
    vertex 0.06652891790551775 -0.24828930179594946 164.7999752
    vertex 0.06652891790551775 0.2482893017959551 164.7999752
  endloop
endfacet
facet normal 0.0 0.0 1.0
  outer loop
    vertex 0.06652891790551775 0.2482893017959551 164.7999752
    vertex 0.06652891790551775 -0.24828930179594946 164.7999752
    vertex 0.12852400000000444 -0.22261009799197928 164.7999752
  endloop
endfacet
facet normal 0.0 0.0 1.0
  outer loop
    vertex 0.06652891790551775 0.2482893017959551 164.7999752
    vertex 0.12852400000000444 -0.22261009799197928 164.7999752
    vertex 0.12852400000000444 0.22261009799198772 164.7999752
  endloop
endfacet
facet normal 0.0 0.0 1.0
  outer loop
    vertex 0.12852400000000444 0.22261009799198772 164.7999752
    vertex 0.12852400000000444 -0.22261009799197928 164.7999752
    vertex 0.181760383890443 -0.18176038389043453 164.7999752
  endloop
endfacet
facet normal 0.0 0.0 1.0
  outer loop
    vertex 0.12852400000000444 0.22261009799198772 164.7999752
    vertex 0.181760383890443 -0.18176038389043453 164.7999752
    vertex 0.181760383890443 0.181760383890443 164.7999752
  endloop
endfacet
facet normal 0.0 0.0 1.0
  outer loop
    vertex 0.181760383890443 0.181760383890443 164.7999752
    vertex 0.181760383890443 -0.18176038389043453 164.7999752
    vertex 0.22261009799198492 -0.128523999999996 164.7999752
  endloop
endfacet
facet normal 0.0 0.0 1.0
  outer loop
    vertex 0.181760383890443 0.181760383890443 164.7999752
    vertex 0.22261009799198492 -0.128523999999996 164.7999752
    vertex 0.22261009799198772 0.12852400000000444 164.7999752
  endloop
endfacet
facet normal 0.0 0.0 1.0
  outer loop
    vertex 0.22261009799198772 0.12852400000000444 164.7999752
    vertex 0.22261009799198492 -0.128523999999996 164.7999752
    vertex 0.2482893017959551 -0.0665289179055093 164.7999752
  endloop
endfacet
facet normal 0.0 0.0 1.0
  outer loop
    vertex 0.22261009799198772 0.12852400000000444 164.7999752
    vertex 0.2482893017959551 -0.0665289179055093 164.7999752
    vertex 0.2482893017959551 0.06652891790551775 164.7999752
  endloop
endfacet
facet normal 0.0 0.0 1.0
  outer loop
    vertex 0.2482893017959551 0.06652891790551775 164.7999752
    vertex 0.2482893017959551 -0.0665289179055093 164.7999752
    vertex 0.2570480000000033 2.8199664825478975e-15 164.7999752
  endloop
endfacet
facet normal -0.13000992378896076 0.9875234133150912 0.08885340663643858
  outer loop
    vertex -0.0665289179055093 0.2482893017959551 164.7999752
    vertex 0.0 11.684000000000001 37.79997519999999
    vertex -3.024041722977851 11.285877354361478 37.79997519999999
  endloop
endfacet
facet normal -0.13000992378896076 0.9875234133150912 0.08885340663643858
  outer loop
    vertex 0.0 11.684000000000001 37.79997519999999
    vertex -0.0665289179055093 0.2482893017959551 164.7999752
    vertex 2.8199664825478975e-15 0.2570480000000033 164.7999752
  endloop
endfacet
facet normal 0.13000992378896242 0.987523413315091 0.08885340663643859
  outer loop
    vertex 2.8199664825478975e-15 0.2570480000000033 164.7999752
    vertex 3.024041722977855 11.285877354361473 37.79997519999999
    vertex 0.0 11.684000000000001 37.79997519999999
  endloop
endfacet
facet normal 0.13000992378896242 0.987523413315091 0.08885340663643859
  outer loop
    vertex 3.024041722977855 11.285877354361473 37.79997519999999
    vertex 2.8199664825478975e-15 0.2570480000000033 164.7999752
    vertex 0.06652891790551775 0.2482893017959551 164.7999752
  endloop
endfacet
facet normal -0.38116980991222416 0.9202253246572704 0.08885340663643862
  outer loop
    vertex -0.128523999999996 0.22261009799198772 164.7999752
    vertex -3.024041722977851 11.285877354361478 37.79997519999999
    vertex -5.841999999999996 10.118640817817381 37.79997519999999
  endloop
endfacet
facet normal -0.38116980991222416 0.9202253246572704 0.08885340663643862
  outer loop
    vertex -3.024041722977851 11.285877354361478 37.79997519999999
    vertex -0.128523999999996 0.22261009799198772 164.7999752
    vertex -0.0665289179055093 0.2482893017959551 164.7999752
  endloop
endfacet
facet normal -0.92022532465727 -0.38116980991222477 0.08885340663643859
  outer loop
    vertex -0.22261009799197928 -0.128523999999996 164.7999752
    vertex -11.285877354361475 -3.024041722977848 37.79997519999999
    vertex -10.118640817817383 -5.841999999999996 37.79997519999999
  endloop
endfacet
facet normal -0.92022532465727 -0.38116980991222477 0.08885340663643859
  outer loop
    vertex -11.285877354361475 -3.024041722977848 37.79997519999999
    vertex -0.22261009799197928 -0.128523999999996 164.7999752
    vertex -0.24828930179594946 -0.0665289179055093 164.7999752
  endloop
endfacet
facet normal -0.987523413315091 -0.13000992378896162 0.08885340663643863
  outer loop
    vertex -0.24828930179594946 -0.0665289179055093 164.7999752
    vertex -11.684 2.8199664825478975e-15 37.79997519999999
    vertex -11.285877354361475 -3.024041722977848 37.79997519999999
  endloop
endfacet
facet normal -0.987523413315091 -0.13000992378896162 0.08885340663643863
  outer loop
    vertex -11.684 2.8199664825478975e-15 37.79997519999999
    vertex -0.24828930179594946 -0.0665289179055093 164.7999752
    vertex -0.2570479999999976 2.8199664825478975e-15 164.7999752
  endloop
endfacet
facet normal -0.6063536034028665 0.7902154008683069 0.08885340663643877
  outer loop
    vertex -0.18176038389043453 0.181760383890443 164.7999752
    vertex -5.841999999999996 10.118640817817381 37.79997519999999
    vertex -8.26183563138362 8.26183563138362 37.79997519999999
  endloop
endfacet
facet normal -0.6063536034028665 0.7902154008683069 0.08885340663643877
  outer loop
    vertex -5.841999999999996 10.118640817817381 37.79997519999999
    vertex -0.18176038389043453 0.181760383890443 164.7999752
    vertex -0.128523999999996 0.22261009799198772 164.7999752
  endloop
endfacet
facet normal -0.790215400868308 0.6063536034028654 0.08885340663643847
  outer loop
    vertex -0.18176038389043453 0.181760383890443 164.7999752
    vertex -10.11864081781738 5.842000000000005 37.79997519999999
    vertex -0.22261009799197928 0.12852400000000444 164.7999752
  endloop
endfacet
facet normal -0.790215400868308 0.6063536034028654 0.08885340663643847
  outer loop
    vertex -10.11864081781738 5.842000000000005 37.79997519999999
    vertex -0.18176038389043453 0.181760383890443 164.7999752
    vertex -8.26183563138362 8.26183563138362 37.79997519999999
  endloop
endfacet
facet normal 0.6063536034028619 0.7902154008683105 0.08885340663643881
  outer loop
    vertex 0.12852400000000444 0.22261009799198772 164.7999752
    vertex 8.26183563138362 8.26183563138362 37.79997519999999
    vertex 5.842000000000002 10.118640817817381 37.79997519999999
  endloop
endfacet
facet normal 0.6063536034028619 0.7902154008683105 0.08885340663643881
  outer loop
    vertex 8.26183563138362 8.26183563138362 37.79997519999999
    vertex 0.12852400000000444 0.22261009799198772 164.7999752
    vertex 0.181760383890443 0.181760383890443 164.7999752
  endloop
endfacet
facet normal 0.987523413315091 -0.1300099237889618 0.08885340663643858
  outer loop
    vertex 11.684000000000001 0.0 37.79997519999999
    vertex 0.2482893017959551 -0.0665289179055093 164.7999752
    vertex 11.285877354361473 -3.024041722977862 37.79997519999999
  endloop
endfacet
facet normal 0.987523413315091 -0.1300099237889618 0.08885340663643858
  outer loop
    vertex 0.2482893017959551 -0.0665289179055093 164.7999752
    vertex 11.684000000000001 0.0 37.79997519999999
    vertex 0.2570480000000033 2.8199664825478975e-15 164.7999752
  endloop
endfacet
facet normal -0.6063536034028665 -0.7902154008683069 0.08885340663643877
  outer loop
    vertex -0.128523999999996 -0.22261009799197928 164.7999752
    vertex -8.261835631383626 -8.261835631383617 37.79997519999999
    vertex -5.842000000000005 -10.11864081781738 37.79997519999999
  endloop
endfacet
facet normal -0.6063536034028665 -0.7902154008683069 0.08885340663643877
  outer loop
    vertex -8.261835631383626 -8.261835631383617 37.79997519999999
    vertex -0.128523999999996 -0.22261009799197928 164.7999752
    vertex -0.18176038389043453 -0.18176038389043453 164.7999752
  endloop
endfacet
facet normal -0.1300099237889626 -0.987523413315091 0.08885340663643865
  outer loop
    vertex 2.8199664825478975e-15 -0.2570479999999976 164.7999752
    vertex -3.0240417229778607 -11.285877354361473 37.79997519999999
    vertex -2.8199664825478975e-15 -11.684 37.79997519999999
  endloop
endfacet
facet normal -0.1300099237889626 -0.987523413315091 0.08885340663643865
  outer loop
    vertex -3.0240417229778607 -11.285877354361473 37.79997519999999
    vertex 2.8199664825478975e-15 -0.2570479999999976 164.7999752
    vertex -0.0665289179055093 -0.24828930179594946 164.7999752
  endloop
endfacet
facet normal 0.13000992378896162 -0.987523413315091 0.08885340663643862
  outer loop
    vertex 0.06652891790551775 -0.24828930179594946 164.7999752
    vertex -2.8199664825478975e-15 -11.684 37.79997519999999
    vertex 3.0240417229778465 -11.285877354361475 37.79997519999999
  endloop
endfacet
facet normal 0.13000992378896162 -0.987523413315091 0.08885340663643862
  outer loop
    vertex -2.8199664825478975e-15 -11.684 37.79997519999999
    vertex 0.06652891790551775 -0.24828930179594946 164.7999752
    vertex 2.8199664825478975e-15 -0.2570479999999976 164.7999752
  endloop
endfacet
facet normal 0.3811698099122255 0.9202253246572698 0.08885340663643856
  outer loop
    vertex 0.06652891790551775 0.2482893017959551 164.7999752
    vertex 5.842000000000002 10.118640817817381 37.79997519999999
    vertex 3.024041722977855 11.285877354361473 37.79997519999999
  endloop
endfacet
facet normal 0.3811698099122255 0.9202253246572698 0.08885340663643856
  outer loop
    vertex 5.842000000000002 10.118640817817381 37.79997519999999
    vertex 0.06652891790551775 0.2482893017959551 164.7999752
    vertex 0.12852400000000444 0.22261009799198772 164.7999752
  endloop
endfacet
facet normal -0.987523413315091 0.1300099237889618 0.08885340663643863
  outer loop
    vertex -0.24828930179594946 0.06652891790551775 164.7999752
    vertex -11.684 2.8199664825478975e-15 37.79997519999999
    vertex -0.2570479999999976 2.8199664825478975e-15 164.7999752
  endloop
endfacet
facet normal -0.987523413315091 0.1300099237889618 0.08885340663643863
  outer loop
    vertex -11.684 2.8199664825478975e-15 37.79997519999999
    vertex -0.24828930179594946 0.06652891790551775 164.7999752
    vertex -11.285877354361473 3.024041722977855 37.79997519999999
  endloop
endfacet
facet normal -0.38116980991222615 -0.9202253246572695 0.08885340663643859
  outer loop
    vertex -0.0665289179055093 -0.24828930179594946 164.7999752
    vertex -5.842000000000005 -10.11864081781738 37.79997519999999
    vertex -3.0240417229778607 -11.285877354361473 37.79997519999999
  endloop
endfacet
facet normal -0.38116980991222615 -0.9202253246572695 0.08885340663643859
  outer loop
    vertex -5.842000000000005 -10.11864081781738 37.79997519999999
    vertex -0.0665289179055093 -0.24828930179594946 164.7999752
    vertex -0.128523999999996 -0.22261009799197928 164.7999752
  endloop
endfacet
facet normal 0.7902154008683093 0.6063536034028636 0.08885340663643854
  outer loop
    vertex 10.118640817817381 5.842 37.79997519999999
    vertex 0.181760383890443 0.181760383890443 164.7999752
    vertex 0.22261009799198772 0.12852400000000444 164.7999752
  endloop
endfacet
facet normal 0.7902154008683093 0.6063536034028636 0.08885340663643854
  outer loop
    vertex 0.181760383890443 0.181760383890443 164.7999752
    vertex 10.118640817817381 5.842 37.79997519999999
    vertex 8.26183563138362 8.26183563138362 37.79997519999999
  endloop
endfacet
facet normal 0.987523413315091 0.13000992378896203 0.0888534066364386
  outer loop
    vertex 11.285877354361478 3.0240417229778522 37.79997519999999
    vertex 0.2570480000000033 2.8199664825478975e-15 164.7999752
    vertex 11.684000000000001 0.0 37.79997519999999
  endloop
endfacet
facet normal 0.987523413315091 0.13000992378896203 0.0888534066364386
  outer loop
    vertex 0.2570480000000033 2.8199664825478975e-15 164.7999752
    vertex 11.285877354361478 3.0240417229778522 37.79997519999999
    vertex 0.2482893017959551 0.06652891790551775 164.7999752
  endloop
endfacet
facet normal -0.7902154008683078 -0.6063536034028653 0.08885340663643865
  outer loop
    vertex -0.18176038389043453 -0.18176038389043453 164.7999752
    vertex -10.118640817817383 -5.841999999999996 37.79997519999999
    vertex -8.261835631383626 -8.261835631383617 37.79997519999999
  endloop
endfacet
facet normal -0.7902154008683078 -0.6063536034028653 0.08885340663643865
  outer loop
    vertex -10.118640817817383 -5.841999999999996 37.79997519999999
    vertex -0.18176038389043453 -0.18176038389043453 164.7999752
    vertex -0.22261009799197928 -0.128523999999996 164.7999752
  endloop
endfacet
facet normal 0.38116980991222205 -0.9202253246572711 0.08885340663643855
  outer loop
    vertex 0.12852400000000444 -0.22261009799197928 164.7999752
    vertex 3.0240417229778465 -11.285877354361475 37.79997519999999
    vertex 5.841999999999991 -10.118640817817386 37.79997519999999
  endloop
endfacet
facet normal 0.38116980991222205 -0.9202253246572711 0.08885340663643855
  outer loop
    vertex 3.0240417229778465 -11.285877354361475 37.79997519999999
    vertex 0.12852400000000444 -0.22261009799197928 164.7999752
    vertex 0.06652891790551775 -0.24828930179594946 164.7999752
  endloop
endfacet
facet normal -0.920225324657269 0.38116980991222704 0.08885340663643862
  outer loop
    vertex -0.22261009799197928 0.12852400000000444 164.7999752
    vertex -11.285877354361473 3.024041722977855 37.79997519999999
    vertex -0.24828930179594946 0.06652891790551775 164.7999752
  endloop
endfacet
facet normal -0.920225324657269 0.38116980991222704 0.08885340663643862
  outer loop
    vertex -11.285877354361473 3.024041722977855 37.79997519999999
    vertex -0.22261009799197928 0.12852400000000444 164.7999752
    vertex -10.11864081781738 5.842000000000005 37.79997519999999
  endloop
endfacet
facet normal 0.6063536034028628 -0.7902154008683098 0.0888534066364386
  outer loop
    vertex 0.181760383890443 -0.18176038389043453 164.7999752
    vertex 5.841999999999991 -10.118640817817386 37.79997519999999
    vertex 8.26183563138362 -8.261835631383622 37.79997519999999
  endloop
endfacet
facet normal 0.6063536034028628 -0.7902154008683098 0.0888534066364386
  outer loop
    vertex 5.841999999999991 -10.118640817817386 37.79997519999999
    vertex 0.181760383890443 -0.18176038389043453 164.7999752
    vertex 0.12852400000000444 -0.22261009799197928 164.7999752
  endloop
endfacet
facet normal 0.9202253246572685 -0.38116980991222843 0.08885340663643858
  outer loop
    vertex 11.285877354361473 -3.024041722977862 37.79997519999999
    vertex 0.22261009799198492 -0.128523999999996 164.7999752
    vertex 10.11864081781738 -5.842000000000005 37.79997519999999
  endloop
endfacet
facet normal 0.9202253246572685 -0.38116980991222843 0.08885340663643858
  outer loop
    vertex 0.22261009799198492 -0.128523999999996 164.7999752
    vertex 11.285877354361473 -3.024041722977862 37.79997519999999
    vertex 0.2482893017959551 -0.0665289179055093 164.7999752
  endloop
endfacet
facet normal 0.7902154008683078 -0.6063536034028653 0.08885340663643865
  outer loop
    vertex 10.11864081781738 -5.842000000000005 37.79997519999999
    vertex 0.181760383890443 -0.18176038389043453 164.7999752
    vertex 8.26183563138362 -8.261835631383622 37.79997519999999
  endloop
endfacet
facet normal 0.7902154008683078 -0.6063536034028653 0.08885340663643865
  outer loop
    vertex 0.181760383890443 -0.18176038389043453 164.7999752
    vertex 10.11864081781738 -5.842000000000005 37.79997519999999
    vertex 0.22261009799198492 -0.128523999999996 164.7999752
  endloop
endfacet
facet normal 0.9202253246572706 0.38116980991222393 0.08885340663643854
  outer loop
    vertex 11.285877354361478 3.0240417229778522 37.79997519999999
    vertex 0.22261009799198772 0.12852400000000444 164.7999752
    vertex 0.2482893017959551 0.06652891790551775 164.7999752
  endloop
endfacet
facet normal 0.9202253246572706 0.38116980991222393 0.08885340663643854
  outer loop
    vertex 0.22261009799198772 0.12852400000000444 164.7999752
    vertex 11.285877354361478 3.0240417229778522 37.79997519999999
    vertex 10.118640817817381 5.842 37.79997519999999
  endloop
endfacet
facet normal 0.0 0.0 -1.0
  outer loop
    vertex -11.285877354361473 3.024041722977855 0.0
    vertex -11.285877354361475 -3.024041722977848 0.0
    vertex -11.684 2.8199664825478975e-15 0.0
  endloop
endfacet
facet normal 0.0 0.0 -1.0
  outer loop
    vertex -11.285877354361475 -3.024041722977848 0.0
    vertex -11.285877354361473 3.024041722977855 0.0
    vertex -10.118640817817383 -5.841999999999996 0.0
  endloop
endfacet
facet normal 0.0 0.0 -1.0
  outer loop
    vertex -10.118640817817383 -5.841999999999996 0.0
    vertex -11.285877354361473 3.024041722977855 0.0
    vertex -10.11864081781738 5.842000000000005 0.0
  endloop
endfacet
facet normal 0.0 0.0 -1.0
  outer loop
    vertex -10.118640817817383 -5.841999999999996 0.0
    vertex -10.11864081781738 5.842000000000005 0.0
    vertex -8.261835631383626 -8.261835631383617 0.0
  endloop
endfacet
facet normal 0.0 0.0 -1.0
  outer loop
    vertex -8.261835631383626 -8.261835631383617 0.0
    vertex -10.11864081781738 5.842000000000005 0.0
    vertex -8.26183563138362 8.26183563138362 0.0
  endloop
endfacet
facet normal 0.0 0.0 -1.0
  outer loop
    vertex -8.261835631383626 -8.261835631383617 0.0
    vertex -8.26183563138362 8.26183563138362 0.0
    vertex -5.842000000000005 -10.11864081781738 0.0
  endloop
endfacet
facet normal 0.0 0.0 -1.0
  outer loop
    vertex -5.842000000000005 -10.11864081781738 0.0
    vertex -8.26183563138362 8.26183563138362 0.0
    vertex -5.841999999999996 10.118640817817381 0.0
  endloop
endfacet
facet normal 0.0 0.0 -1.0
  outer loop
    vertex -5.842000000000005 -10.11864081781738 0.0
    vertex -5.841999999999996 10.118640817817381 0.0
    vertex -3.0240417229778607 -11.285877354361473 0.0
  endloop
endfacet
facet normal 0.0 0.0 -1.0
  outer loop
    vertex -3.0240417229778607 -11.285877354361473 0.0
    vertex -5.841999999999996 10.118640817817381 0.0
    vertex -3.024041722977851 11.285877354361478 0.0
  endloop
endfacet
facet normal 0.0 0.0 -1.0
  outer loop
    vertex -3.0240417229778607 -11.285877354361473 0.0
    vertex -3.024041722977851 11.285877354361478 0.0
    vertex -2.8199664825478975e-15 -11.684 0.0
  endloop
endfacet
facet normal 0.0 0.0 -1.0
  outer loop
    vertex -2.8199664825478975e-15 -11.684 0.0
    vertex -3.024041722977851 11.285877354361478 0.0
    vertex 0.0 11.684000000000001 0.0
  endloop
endfacet
facet normal 0.0 0.0 -1.0
  outer loop
    vertex -2.8199664825478975e-15 -11.684 0.0
    vertex 0.0 11.684000000000001 0.0
    vertex 3.0240417229778465 -11.285877354361475 0.0
  endloop
endfacet
facet normal 0.0 0.0 -1.0
  outer loop
    vertex 3.0240417229778465 -11.285877354361475 0.0
    vertex 0.0 11.684000000000001 0.0
    vertex 3.024041722977855 11.285877354361473 0.0
  endloop
endfacet
facet normal 0.0 0.0 -1.0
  outer loop
    vertex 3.0240417229778465 -11.285877354361475 0.0
    vertex 3.024041722977855 11.285877354361473 0.0
    vertex 5.841999999999991 -10.118640817817386 0.0
  endloop
endfacet
facet normal 0.0 0.0 -1.0
  outer loop
    vertex 5.841999999999991 -10.118640817817386 0.0
    vertex 3.024041722977855 11.285877354361473 0.0
    vertex 5.842000000000002 10.118640817817381 0.0
  endloop
endfacet
facet normal 0.0 0.0 -1.0
  outer loop
    vertex 5.841999999999991 -10.118640817817386 0.0
    vertex 5.842000000000002 10.118640817817381 0.0
    vertex 8.26183563138362 -8.261835631383622 0.0
  endloop
endfacet
facet normal 0.0 0.0 -1.0
  outer loop
    vertex 8.26183563138362 -8.261835631383622 0.0
    vertex 5.842000000000002 10.118640817817381 0.0
    vertex 8.26183563138362 8.26183563138362 0.0
  endloop
endfacet
facet normal 0.0 0.0 -1.0
  outer loop
    vertex 8.26183563138362 -8.261835631383622 0.0
    vertex 8.26183563138362 8.26183563138362 0.0
    vertex 10.118640817817381 5.842 0.0
  endloop
endfacet
facet normal 0.0 0.0 -1.0
  outer loop
    vertex 8.26183563138362 -8.261835631383622 0.0
    vertex 10.118640817817381 5.842 0.0
    vertex 10.11864081781738 -5.842000000000005 0.0
  endloop
endfacet
facet normal 0.0 0.0 -1.0
  outer loop
    vertex 10.11864081781738 -5.842000000000005 0.0
    vertex 10.118640817817381 5.842 0.0
    vertex 11.285877354361473 -3.024041722977862 0.0
  endloop
endfacet
facet normal 0.0 0.0 -1.0
  outer loop
    vertex 11.285877354361473 -3.024041722977862 0.0
    vertex 10.118640817817381 5.842 0.0
    vertex 11.285877354361478 3.0240417229778522 0.0
  endloop
endfacet
facet normal 0.0 0.0 -1.0
  outer loop
    vertex 11.285877354361473 -3.024041722977862 0.0
    vertex 11.285877354361478 3.0240417229778522 0.0
    vertex 11.684000000000001 0.0 0.0
  endloop
endfacet
facet normal 0.7933533402912352 0.6087614290087205 0.0
  outer loop
    vertex 8.26183563138362 8.26183563138362 0.0
    vertex 10.118640817817381 5.842 31.449975199999994
    vertex 10.118640817817381 5.842 0.0
  endloop
endfacet
facet normal 0.7933533402912352 0.6087614290087205 0.0
  outer loop
    vertex 10.118640817817381 5.842 31.449975199999994
    vertex 8.26183563138362 8.26183563138362 0.0
    vertex 8.26183563138362 8.26183563138362 31.449975199999994
  endloop
endfacet
facet normal -0.7933533402912348 0.6087614290087211 0.0
  outer loop
    vertex -8.26183563138362 8.26183563138362 31.449975199999994
    vertex -10.11864081781738 5.842000000000005 0.0
    vertex -10.11864081781738 5.842000000000005 31.449975199999994
  endloop
endfacet
facet normal -0.7933533402912348 0.6087614290087211 0.0
  outer loop
    vertex -10.11864081781738 5.842000000000005 0.0
    vertex -8.26183563138362 8.26183563138362 31.449975199999994
    vertex -8.26183563138362 8.26183563138362 0.0
  endloop
endfacet
facet normal 0.13052619222005166 0.9914448613738105 0.0
  outer loop
    vertex 0.0 11.684000000000001 31.449975199999994
    vertex 3.024041722977855 11.285877354361473 0.0
    vertex 0.0 11.684000000000001 0.0
  endloop
endfacet
facet normal 0.13052619222005166 0.9914448613738105 0.0
  outer loop
    vertex 3.024041722977855 11.285877354361473 0.0
    vertex 0.0 11.684000000000001 31.449975199999994
    vertex 3.024041722977855 11.285877354361473 31.449975199999994
  endloop
endfacet
facet normal -0.6087614290087211 -0.7933533402912348 -0.0
  outer loop
    vertex -5.842000000000005 -10.11864081781738 31.449975199999994
    vertex -8.261835631383626 -8.261835631383617 0.0
    vertex -5.842000000000005 -10.11864081781738 0.0
  endloop
endfacet
facet normal -0.6087614290087211 -0.7933533402912348 -0.0
  outer loop
    vertex -8.261835631383626 -8.261835631383617 0.0
    vertex -5.842000000000005 -10.11864081781738 31.449975199999994
    vertex -8.261835631383626 -8.261835631383617 31.449975199999994
  endloop
endfacet
facet normal 0.6087614290087207 0.7933533402912352 0.0
  outer loop
    vertex 5.842000000000002 10.118640817817381 31.449975199999994
    vertex 8.26183563138362 8.26183563138362 0.0
    vertex 5.842000000000002 10.118640817817381 0.0
  endloop
endfacet
facet normal 0.6087614290087207 0.7933533402912352 0.0
  outer loop
    vertex 8.26183563138362 8.26183563138362 0.0
    vertex 5.842000000000002 10.118640817817381 31.449975199999994
    vertex 8.26183563138362 8.26183563138362 31.449975199999994
  endloop
endfacet
facet normal -0.1305261922200519 -0.9914448613738104 -0.0
  outer loop
    vertex -2.8199664825478975e-15 -11.684 31.449975199999994
    vertex -3.0240417229778607 -11.285877354361473 0.0
    vertex -2.8199664825478975e-15 -11.684 0.0
  endloop
endfacet
facet normal -0.1305261922200519 -0.9914448613738104 -0.0
  outer loop
    vertex -3.0240417229778607 -11.285877354361473 0.0
    vertex -2.8199664825478975e-15 -11.684 31.449975199999994
    vertex -3.0240417229778607 -11.285877354361473 31.449975199999994
  endloop
endfacet
facet normal -0.6087614290087205 0.7933533402912354 0.0
  outer loop
    vertex -8.26183563138362 8.26183563138362 31.449975199999994
    vertex -5.841999999999996 10.118640817817381 0.0
    vertex -8.26183563138362 8.26183563138362 0.0
  endloop
endfacet
facet normal -0.6087614290087205 0.7933533402912354 0.0
  outer loop
    vertex -5.841999999999996 10.118640817817381 0.0
    vertex -8.26183563138362 8.26183563138362 31.449975199999994
    vertex -5.841999999999996 10.118640817817381 31.449975199999994
  endloop
endfacet
facet normal -0.3826834323650901 0.9238795325112866 0.0
  outer loop
    vertex -5.841999999999996 10.118640817817381 31.449975199999994
    vertex -3.024041722977851 11.285877354361478 0.0
    vertex -5.841999999999996 10.118640817817381 0.0
  endloop
endfacet
facet normal -0.3826834323650901 0.9238795325112866 0.0
  outer loop
    vertex -3.024041722977851 11.285877354361478 0.0
    vertex -5.841999999999996 10.118640817817381 31.449975199999994
    vertex -3.024041722977851 11.285877354361478 31.449975199999994
  endloop
endfacet
facet normal -0.923879532511287 -0.3826834323650894 -0.0
  outer loop
    vertex -11.285877354361475 -3.024041722977848 31.449975199999994
    vertex -10.118640817817383 -5.841999999999996 0.0
    vertex -10.118640817817383 -5.841999999999996 31.449975199999994
  endloop
endfacet
facet normal -0.923879532511287 -0.3826834323650894 -0.0
  outer loop
    vertex -10.118640817817383 -5.841999999999996 0.0
    vertex -11.285877354361475 -3.024041722977848 31.449975199999994
    vertex -11.285877354361475 -3.024041722977848 0.0
  endloop
endfacet
facet normal -0.1305261922200513 0.9914448613738105 0.0
  outer loop
    vertex -3.024041722977851 11.285877354361478 31.449975199999994
    vertex 0.0 11.684000000000001 0.0
    vertex -3.024041722977851 11.285877354361478 0.0
  endloop
endfacet
facet normal -0.1305261922200513 0.9914448613738105 0.0
  outer loop
    vertex 0.0 11.684000000000001 0.0
    vertex -3.024041722977851 11.285877354361478 31.449975199999994
    vertex 0.0 11.684000000000001 31.449975199999994
  endloop
endfacet
facet normal 0.3826834323650901 0.9238795325112867 0.0
  outer loop
    vertex 3.024041722977855 11.285877354361473 31.449975199999994
    vertex 5.842000000000002 10.118640817817381 0.0
    vertex 3.024041722977855 11.285877354361473 0.0
  endloop
endfacet
facet normal 0.3826834323650901 0.9238795325112867 0.0
  outer loop
    vertex 5.842000000000002 10.118640817817381 0.0
    vertex 3.024041722977855 11.285877354361473 31.449975199999994
    vertex 5.842000000000002 10.118640817817381 31.449975199999994
  endloop
endfacet
facet normal 0.6087614290087202 -0.7933533402912355 0.0
  outer loop
    vertex 8.26183563138362 -8.261835631383622 31.449975199999994
    vertex 5.841999999999991 -10.118640817817386 0.0
    vertex 8.26183563138362 -8.261835631383622 0.0
  endloop
endfacet
facet normal 0.6087614290087202 -0.7933533402912355 0.0
  outer loop
    vertex 5.841999999999991 -10.118640817817386 0.0
    vertex 8.26183563138362 -8.261835631383622 31.449975199999994
    vertex 5.841999999999991 -10.118640817817386 31.449975199999994
  endloop
endfacet
facet normal 0.9238795325112867 0.38268343236509006 0.0
  outer loop
    vertex 10.118640817817381 5.842 0.0
    vertex 11.285877354361478 3.0240417229778522 31.449975199999994
    vertex 11.285877354361478 3.0240417229778522 0.0
  endloop
endfacet
facet normal 0.9238795325112867 0.38268343236509006 0.0
  outer loop
    vertex 11.285877354361478 3.0240417229778522 31.449975199999994
    vertex 10.118640817817381 5.842 0.0
    vertex 10.118640817817381 5.842 31.449975199999994
  endloop
endfacet
facet normal 0.9238795325112865 -0.3826834323650905 0.0
  outer loop
    vertex 11.285877354361473 -3.024041722977862 0.0
    vertex 10.11864081781738 -5.842000000000005 31.449975199999994
    vertex 10.11864081781738 -5.842000000000005 0.0
  endloop
endfacet
facet normal 0.9238795325112865 -0.3826834323650905 0.0
  outer loop
    vertex 10.11864081781738 -5.842000000000005 31.449975199999994
    vertex 11.285877354361473 -3.024041722977862 0.0
    vertex 11.285877354361473 -3.024041722977862 31.449975199999994
  endloop
endfacet
facet normal 0.7933533402912349 -0.608761429008721 0.0
  outer loop
    vertex 10.11864081781738 -5.842000000000005 0.0
    vertex 8.26183563138362 -8.261835631383622 31.449975199999994
    vertex 8.26183563138362 -8.261835631383622 0.0
  endloop
endfacet
facet normal 0.7933533402912349 -0.608761429008721 0.0
  outer loop
    vertex 8.26183563138362 -8.261835631383622 31.449975199999994
    vertex 10.11864081781738 -5.842000000000005 0.0
    vertex 10.11864081781738 -5.842000000000005 31.449975199999994
  endloop
endfacet
facet normal -0.38268343236509045 -0.9238795325112866 -0.0
  outer loop
    vertex -3.0240417229778607 -11.285877354361473 31.449975199999994
    vertex -5.842000000000005 -10.11864081781738 0.0
    vertex -3.0240417229778607 -11.285877354361473 0.0
  endloop
endfacet
facet normal -0.38268343236509045 -0.9238795325112866 -0.0
  outer loop
    vertex -5.842000000000005 -10.11864081781738 0.0
    vertex -3.0240417229778607 -11.285877354361473 31.449975199999994
    vertex -5.842000000000005 -10.11864081781738 31.449975199999994
  endloop
endfacet
facet normal 0.9914448613738106 0.1305261922200513 0.0
  outer loop
    vertex 11.285877354361478 3.0240417229778522 0.0
    vertex 11.684000000000001 0.0 31.449975199999994
    vertex 11.684000000000001 0.0 0.0
  endloop
endfacet
facet normal 0.9914448613738106 0.1305261922200513 0.0
  outer loop
    vertex 11.684000000000001 0.0 31.449975199999994
    vertex 11.285877354361478 3.0240417229778522 0.0
    vertex 11.285877354361478 3.0240417229778522 31.449975199999994
  endloop
endfacet
facet normal -0.9914448613738104 -0.1305261922200514 -0.0
  outer loop
    vertex -11.684 2.8199664825478975e-15 31.449975199999994
    vertex -11.285877354361475 -3.024041722977848 0.0
    vertex -11.285877354361475 -3.024041722977848 31.449975199999994
  endloop
endfacet
facet normal -0.9914448613738104 -0.1305261922200514 -0.0
  outer loop
    vertex -11.285877354361475 -3.024041722977848 0.0
    vertex -11.684 2.8199664825478975e-15 31.449975199999994
    vertex -11.684 2.8199664825478975e-15 0.0
  endloop
endfacet
facet normal 0.9914448613738105 -0.1305261922200518 0.0
  outer loop
    vertex 11.684000000000001 0.0 0.0
    vertex 11.285877354361473 -3.024041722977862 31.449975199999994
    vertex 11.285877354361473 -3.024041722977862 0.0
  endloop
endfacet
facet normal 0.9914448613738105 -0.1305261922200518 0.0
  outer loop
    vertex 11.285877354361473 -3.024041722977862 31.449975199999994
    vertex 11.684000000000001 0.0 0.0
    vertex 11.684000000000001 0.0 31.449975199999994
  endloop
endfacet
facet normal -0.9914448613738105 0.13052619222005166 0.0
  outer loop
    vertex -11.285877354361473 3.024041722977855 31.449975199999994
    vertex -11.684 2.8199664825478975e-15 0.0
    vertex -11.684 2.8199664825478975e-15 31.449975199999994
  endloop
endfacet
facet normal -0.9914448613738105 0.13052619222005166 0.0
  outer loop
    vertex -11.684 2.8199664825478975e-15 0.0
    vertex -11.285877354361473 3.024041722977855 31.449975199999994
    vertex -11.285877354361473 3.024041722977855 0.0
  endloop
endfacet
facet normal 0.3826834323650891 -0.923879532511287 0.0
  outer loop
    vertex 5.841999999999991 -10.118640817817386 31.449975199999994
    vertex 3.0240417229778465 -11.285877354361475 0.0
    vertex 5.841999999999991 -10.118640817817386 0.0
  endloop
endfacet
facet normal 0.3826834323650891 -0.923879532511287 0.0
  outer loop
    vertex 3.0240417229778465 -11.285877354361475 0.0
    vertex 5.841999999999991 -10.118640817817386 31.449975199999994
    vertex 3.0240417229778465 -11.285877354361475 31.449975199999994
  endloop
endfacet
facet normal -0.9238795325112866 0.3826834323650902 0.0
  outer loop
    vertex -10.11864081781738 5.842000000000005 31.449975199999994
    vertex -11.285877354361473 3.024041722977855 0.0
    vertex -11.285877354361473 3.024041722977855 31.449975199999994
  endloop
endfacet
facet normal -0.9238795325112866 0.3826834323650902 0.0
  outer loop
    vertex -11.285877354361473 3.024041722977855 0.0
    vertex -10.11864081781738 5.842000000000005 31.449975199999994
    vertex -10.11864081781738 5.842000000000005 0.0
  endloop
endfacet
facet normal 0.1305261922200514 -0.9914448613738105 0.0
  outer loop
    vertex 3.0240417229778465 -11.285877354361475 31.449975199999994
    vertex -2.8199664825478975e-15 -11.684 0.0
    vertex 3.0240417229778465 -11.285877354361475 0.0
  endloop
endfacet
facet normal 0.1305261922200514 -0.9914448613738105 0.0
  outer loop
    vertex -2.8199664825478975e-15 -11.684 0.0
    vertex 3.0240417229778465 -11.285877354361475 31.449975199999994
    vertex -2.8199664825478975e-15 -11.684 31.449975199999994
  endloop
endfacet
facet normal -0.7933533402912355 -0.6087614290087203 -0.0
  outer loop
    vertex -10.118640817817383 -5.841999999999996 31.449975199999994
    vertex -8.261835631383626 -8.261835631383617 0.0
    vertex -8.261835631383626 -8.261835631383617 31.449975199999994
  endloop
endfacet
facet normal -0.7933533402912355 -0.6087614290087203 -0.0
  outer loop
    vertex -8.261835631383626 -8.261835631383617 0.0
    vertex -10.118640817817383 -5.841999999999996 31.449975199999994
    vertex -10.118640817817383 -5.841999999999996 0.0
  endloop
endfacet
endsolid Untitled-62d47114
