solid MRM Tap Handle
facet normal 0.0 1.0 0.0
  outer loop
    vertex 8.703249531799493 76.19999999999999 9.633185501532209
    vertex 10.346750468200502 76.19999999999999 9.633185501532209
    vertex 9.524999999999999 76.19999999999999 9.524999999999999
  endloop
endfacet
facet normal 0.0 1.0 0.0
  outer loop
    vertex 10.346750468200502 76.19999999999999 9.633185501532209
    vertex 8.703249531799493 76.19999999999999 9.633185501532209
    vertex 7.937499999999998 76.19999999999999 9.950369342984407
  endloop
endfacet
facet normal 0.0 1.0 0.0
  outer loop
    vertex 10.346750468200502 76.19999999999999 9.633185501532209
    vertex 7.937499999999998 76.19999999999999 9.950369342984407
    vertex 11.112499999999999 76.19999999999999 9.950369342984406
  endloop
endfacet
facet normal 0.0 1.0 0.0
  outer loop
    vertex 11.112499999999999 76.19999999999999 9.950369342984406
    vertex 7.937499999999998 76.19999999999999 9.950369342984407
    vertex 11.770064030267287 76.19999999999999 10.45493596973271
  endloop
endfacet
facet normal 0.0 1.0 0.0
  outer loop
    vertex 11.770064030267287 76.19999999999999 10.45493596973271
    vertex 7.937499999999998 76.19999999999999 9.950369342984407
    vertex 7.27993596973271 76.19999999999999 10.45493596973271
  endloop
endfacet
facet normal 0.0 1.0 0.0
  outer loop
    vertex 11.770064030267287 76.19999999999999 10.45493596973271
    vertex 7.27993596973271 76.19999999999999 10.45493596973271
    vertex 6.775369342984405 76.19999999999999 11.112500000000002
  endloop
endfacet
facet normal 0.0 1.0 0.0
  outer loop
    vertex 11.770064030267287 76.19999999999999 10.45493596973271
    vertex 6.775369342984405 76.19999999999999 11.112500000000002
    vertex 12.27463065701559 76.19999999999999 11.112499999999999
  endloop
endfacet
facet normal 0.0 1.0 0.0
  outer loop
    vertex 12.27463065701559 76.19999999999999 11.112499999999999
    vertex 6.775369342984405 76.19999999999999 11.112500000000002
    vertex 12.59181449846779 76.19999999999999 11.878249531799495
  endloop
endfacet
facet normal 0.0 1.0 0.0
  outer loop
    vertex 12.59181449846779 76.19999999999999 11.878249531799495
    vertex 6.775369342984405 76.19999999999999 11.112500000000002
    vertex 6.458185501532206 76.19999999999999 11.878249531799497
  endloop
endfacet
facet normal 0.0 1.0 0.0
  outer loop
    vertex 12.59181449846779 76.19999999999999 11.878249531799495
    vertex 6.458185501532206 76.19999999999999 11.878249531799497
    vertex 12.7 76.19999999999999 12.7
  endloop
endfacet
facet normal 0.0 1.0 0.0
  outer loop
    vertex 12.7 76.19999999999999 12.7
    vertex 6.458185501532206 76.19999999999999 11.878249531799497
    vertex 6.35 76.19999999999999 12.7
  endloop
endfacet
facet normal 0.0 1.0 0.0
  outer loop
    vertex 12.7 76.19999999999999 12.7
    vertex 6.35 76.19999999999999 12.7
    vertex 6.458185501532208 76.19999999999999 13.521750468200505
  endloop
endfacet
facet normal 0.0 1.0 0.0
  outer loop
    vertex 12.7 76.19999999999999 12.7
    vertex 6.458185501532208 76.19999999999999 13.521750468200505
    vertex 12.59181449846779 76.19999999999999 13.521750468200503
  endloop
endfacet
facet normal 0.0 1.0 0.0
  outer loop
    vertex 12.59181449846779 76.19999999999999 13.521750468200503
    vertex 6.458185501532208 76.19999999999999 13.521750468200505
    vertex 12.274630657015592 76.19999999999999 14.2875
  endloop
endfacet
facet normal 0.0 1.0 0.0
  outer loop
    vertex 12.274630657015592 76.19999999999999 14.2875
    vertex 6.458185501532208 76.19999999999999 13.521750468200505
    vertex 6.7753693429844075 76.19999999999999 14.2875
  endloop
endfacet
facet normal 0.0 1.0 0.0
  outer loop
    vertex 12.274630657015592 76.19999999999999 14.2875
    vertex 6.7753693429844075 76.19999999999999 14.2875
    vertex 7.279935969732713 76.19999999999999 14.94506403026729
  endloop
endfacet
facet normal 0.0 1.0 0.0
  outer loop
    vertex 12.274630657015592 76.19999999999999 14.2875
    vertex 7.279935969732713 76.19999999999999 14.94506403026729
    vertex 11.770064030267287 76.19999999999999 14.94506403026729
  endloop
endfacet
facet normal 0.0 1.0 0.0
  outer loop
    vertex 11.770064030267287 76.19999999999999 14.94506403026729
    vertex 7.279935969732713 76.19999999999999 14.94506403026729
    vertex 7.937500000000001 76.19999999999999 15.449630657015593
  endloop
endfacet
facet normal 0.0 1.0 0.0
  outer loop
    vertex 11.770064030267287 76.19999999999999 14.94506403026729
    vertex 7.937500000000001 76.19999999999999 15.449630657015593
    vertex 11.1125 76.19999999999999 15.449630657015591
  endloop
endfacet
facet normal 0.0 1.0 0.0
  outer loop
    vertex 11.1125 76.19999999999999 15.449630657015591
    vertex 7.937500000000001 76.19999999999999 15.449630657015593
    vertex 10.346750468200504 76.19999999999999 15.76681449846779
  endloop
endfacet
facet normal 0.0 1.0 0.0
  outer loop
    vertex 10.346750468200504 76.19999999999999 15.76681449846779
    vertex 7.937500000000001 76.19999999999999 15.449630657015593
    vertex 8.703249531799498 76.19999999999999 15.766814498467792
  endloop
endfacet
facet normal 0.0 1.0 0.0
  outer loop
    vertex 10.346750468200504 76.19999999999999 15.76681449846779
    vertex 8.703249531799498 76.19999999999999 15.766814498467792
    vertex 9.524999999999999 76.19999999999999 15.875
  endloop
endfacet
facet normal 0.0 1.0 0.0
  outer loop
    vertex 27.753249531799494 76.19999999999999 9.633185501532209
    vertex 29.396750468200498 76.19999999999999 9.633185501532209
    vertex 28.575 76.19999999999999 9.524999999999999
  endloop
endfacet
facet normal 0.0 1.0 0.0
  outer loop
    vertex 29.396750468200498 76.19999999999999 9.633185501532209
    vertex 27.753249531799494 76.19999999999999 9.633185501532209
    vertex 26.987499999999997 76.19999999999999 9.950369342984407
  endloop
endfacet
facet normal 0.0 1.0 0.0
  outer loop
    vertex 29.396750468200498 76.19999999999999 9.633185501532209
    vertex 26.987499999999997 76.19999999999999 9.950369342984407
    vertex 30.162499999999998 76.19999999999999 9.950369342984406
  endloop
endfacet
facet normal 0.0 1.0 0.0
  outer loop
    vertex 30.162499999999998 76.19999999999999 9.950369342984406
    vertex 26.987499999999997 76.19999999999999 9.950369342984407
    vertex 30.82006403026729 76.19999999999999 10.45493596973271
  endloop
endfacet
facet normal 0.0 1.0 0.0
  outer loop
    vertex 30.82006403026729 76.19999999999999 10.45493596973271
    vertex 26.987499999999997 76.19999999999999 9.950369342984407
    vertex 26.32993596973271 76.19999999999999 10.45493596973271
  endloop
endfacet
facet normal 0.0 1.0 0.0
  outer loop
    vertex 30.82006403026729 76.19999999999999 10.45493596973271
    vertex 26.32993596973271 76.19999999999999 10.45493596973271
    vertex 25.825369342984406 76.19999999999999 11.112500000000002
  endloop
endfacet
facet normal 0.0 1.0 0.0
  outer loop
    vertex 30.82006403026729 76.19999999999999 10.45493596973271
    vertex 25.825369342984406 76.19999999999999 11.112500000000002
    vertex 31.324630657015593 76.19999999999999 11.112499999999999
  endloop
endfacet
facet normal 0.0 1.0 0.0
  outer loop
    vertex 31.324630657015593 76.19999999999999 11.112499999999999
    vertex 25.825369342984406 76.19999999999999 11.112500000000002
    vertex 31.641814498467788 76.19999999999999 11.878249531799495
  endloop
endfacet
facet normal 0.0 1.0 0.0
  outer loop
    vertex 31.641814498467788 76.19999999999999 11.878249531799495
    vertex 25.825369342984406 76.19999999999999 11.112500000000002
    vertex 25.508185501532207 76.19999999999999 11.878249531799497
  endloop
endfacet
facet normal 0.0 1.0 0.0
  outer loop
    vertex 31.641814498467788 76.19999999999999 11.878249531799495
    vertex 25.508185501532207 76.19999999999999 11.878249531799497
    vertex 31.75 76.19999999999999 12.7
  endloop
endfacet
facet normal 0.0 1.0 0.0
  outer loop
    vertex 31.75 76.19999999999999 12.7
    vertex 25.508185501532207 76.19999999999999 11.878249531799497
    vertex 25.4 76.19999999999999 12.7
  endloop
endfacet
facet normal 0.0 1.0 0.0
  outer loop
    vertex 31.75 76.19999999999999 12.7
    vertex 25.4 76.19999999999999 12.7
    vertex 25.508185501532207 76.19999999999999 13.521750468200505
  endloop
endfacet
facet normal 0.0 1.0 0.0
  outer loop
    vertex 31.75 76.19999999999999 12.7
    vertex 25.508185501532207 76.19999999999999 13.521750468200505
    vertex 31.641814498467788 76.19999999999999 13.521750468200503
  endloop
endfacet
facet normal 0.0 1.0 0.0
  outer loop
    vertex 31.641814498467788 76.19999999999999 13.521750468200503
    vertex 25.508185501532207 76.19999999999999 13.521750468200505
    vertex 31.324630657015593 76.19999999999999 14.2875
  endloop
endfacet
facet normal 0.0 1.0 0.0
  outer loop
    vertex 31.324630657015593 76.19999999999999 14.2875
    vertex 25.508185501532207 76.19999999999999 13.521750468200505
    vertex 25.82536934298441 76.19999999999999 14.2875
  endloop
endfacet
facet normal 0.0 1.0 0.0
  outer loop
    vertex 31.324630657015593 76.19999999999999 14.2875
    vertex 25.82536934298441 76.19999999999999 14.2875
    vertex 26.32993596973271 76.19999999999999 14.94506403026729
  endloop
endfacet
facet normal 0.0 1.0 0.0
  outer loop
    vertex 31.324630657015593 76.19999999999999 14.2875
    vertex 26.32993596973271 76.19999999999999 14.94506403026729
    vertex 30.82006403026729 76.19999999999999 14.94506403026729
  endloop
endfacet
facet normal 0.0 1.0 0.0
  outer loop
    vertex 30.82006403026729 76.19999999999999 14.94506403026729
    vertex 26.32993596973271 76.19999999999999 14.94506403026729
    vertex 26.987499999999997 76.19999999999999 15.449630657015593
  endloop
endfacet
facet normal 0.0 1.0 0.0
  outer loop
    vertex 30.82006403026729 76.19999999999999 14.94506403026729
    vertex 26.987499999999997 76.19999999999999 15.449630657015593
    vertex 30.162499999999998 76.19999999999999 15.449630657015591
  endloop
endfacet
facet normal 0.0 1.0 0.0
  outer loop
    vertex 30.162499999999998 76.19999999999999 15.449630657015591
    vertex 26.987499999999997 76.19999999999999 15.449630657015593
    vertex 29.396750468200505 76.19999999999999 15.76681449846779
  endloop
endfacet
facet normal 0.0 1.0 0.0
  outer loop
    vertex 29.396750468200505 76.19999999999999 15.76681449846779
    vertex 26.987499999999997 76.19999999999999 15.449630657015593
    vertex 27.753249531799497 76.19999999999999 15.766814498467792
  endloop
endfacet
facet normal 0.0 1.0 0.0
  outer loop
    vertex 29.396750468200505 76.19999999999999 15.76681449846779
    vertex 27.753249531799497 76.19999999999999 15.766814498467792
    vertex 28.575 76.19999999999999 15.875
  endloop
endfacet
facet normal -0.13052619222005193 0.0 0.9914448613738105
  outer loop
    vertex 10.346750468200502 76.19999999999999 9.633185501532209
    vertex 9.524999999999999 101.6 9.524999999999999
    vertex 9.524999999999999 76.19999999999999 9.524999999999999
  endloop
endfacet
facet normal -0.13052619222005193 0.0 0.9914448613738105
  outer loop
    vertex 9.524999999999999 101.6 9.524999999999999
    vertex 10.346750468200502 76.19999999999999 9.633185501532209
    vertex 10.346750468200502 101.6 9.633185501532209
  endloop
endfacet
facet normal -0.9238795325112865 0.0 0.3826834323650904
  outer loop
    vertex 12.59181449846779 101.6 11.878249531799495
    vertex 12.27463065701559 76.19999999999999 11.112499999999999
    vertex 12.59181449846779 76.19999999999999 11.878249531799495
  endloop
endfacet
facet normal -0.9238795325112865 0.0 0.3826834323650904
  outer loop
    vertex 12.27463065701559 76.19999999999999 11.112499999999999
    vertex 12.59181449846779 101.6 11.878249531799495
    vertex 12.27463065701559 101.6 11.112499999999999
  endloop
endfacet
facet normal 0.6087614290087203 0.0 0.7933533402912355
  outer loop
    vertex 7.937499999999998 76.19999999999999 9.950369342984407
    vertex 7.27993596973271 101.6 10.45493596973271
    vertex 7.27993596973271 76.19999999999999 10.45493596973271
  endloop
endfacet
facet normal 0.6087614290087203 0.0 0.7933533402912355
  outer loop
    vertex 7.27993596973271 101.6 10.45493596973271
    vertex 7.937499999999998 76.19999999999999 9.950369342984407
    vertex 7.937499999999998 101.6 9.950369342984407
  endloop
endfacet
facet normal 0.7933533402912358 0.0 0.6087614290087197
  outer loop
    vertex 7.27993596973271 101.6 10.45493596973271
    vertex 6.775369342984405 76.19999999999999 11.112500000000002
    vertex 7.27993596973271 76.19999999999999 10.45493596973271
  endloop
endfacet
facet normal 0.7933533402912358 0.0 0.6087614290087197
  outer loop
    vertex 6.775369342984405 76.19999999999999 11.112500000000002
    vertex 7.27993596973271 101.6 10.45493596973271
    vertex 6.775369342984405 101.6 11.112500000000002
  endloop
endfacet
facet normal 0.9914448613738105 0.0 0.13052619222005046
  outer loop
    vertex 6.458185501532206 101.6 11.878249531799497
    vertex 6.35 76.19999999999999 12.7
    vertex 6.458185501532206 76.19999999999999 11.878249531799497
  endloop
endfacet
facet normal 0.9914448613738105 0.0 0.13052619222005046
  outer loop
    vertex 6.35 76.19999999999999 12.7
    vertex 6.458185501532206 101.6 11.878249531799497
    vertex 6.35 101.6 12.7
  endloop
endfacet
facet normal -0.6087614290087213 0.0 0.7933533402912347
  outer loop
    vertex 11.770064030267287 76.19999999999999 10.45493596973271
    vertex 11.112499999999999 101.6 9.950369342984406
    vertex 11.112499999999999 76.19999999999999 9.950369342984406
  endloop
endfacet
facet normal -0.6087614290087213 0.0 0.7933533402912347
  outer loop
    vertex 11.112499999999999 101.6 9.950369342984406
    vertex 11.770064030267287 76.19999999999999 10.45493596973271
    vertex 11.770064030267287 101.6 10.45493596973271
  endloop
endfacet
facet normal 0.1305261922200515 0.0 0.9914448613738105
  outer loop
    vertex 9.524999999999999 76.19999999999999 9.524999999999999
    vertex 8.703249531799493 101.6 9.633185501532209
    vertex 8.703249531799493 76.19999999999999 9.633185501532209
  endloop
endfacet
facet normal 0.1305261922200515 0.0 0.9914448613738105
  outer loop
    vertex 8.703249531799493 101.6 9.633185501532209
    vertex 9.524999999999999 76.19999999999999 9.524999999999999
    vertex 9.524999999999999 101.6 9.524999999999999
  endloop
endfacet
facet normal -0.38268343236508895 -0.0 -0.9238795325112872
  outer loop
    vertex 11.1125 101.6 15.449630657015591
    vertex 10.346750468200504 76.19999999999999 15.76681449846779
    vertex 10.346750468200504 101.6 15.76681449846779
  endloop
endfacet
facet normal -0.38268343236508895 -0.0 -0.9238795325112872
  outer loop
    vertex 10.346750468200504 76.19999999999999 15.76681449846779
    vertex 11.1125 101.6 15.449630657015591
    vertex 11.1125 76.19999999999999 15.449630657015591
  endloop
endfacet
facet normal 0.38268343236508895 0.0 -0.9238795325112872
  outer loop
    vertex 8.703249531799498 101.6 15.766814498467792
    vertex 7.937500000000001 76.19999999999999 15.449630657015593
    vertex 7.937500000000001 101.6 15.449630657015593
  endloop
endfacet
facet normal 0.38268343236508895 0.0 -0.9238795325112872
  outer loop
    vertex 7.937500000000001 76.19999999999999 15.449630657015593
    vertex 8.703249531799498 101.6 15.766814498467792
    vertex 8.703249531799498 76.19999999999999 15.766814498467792
  endloop
endfacet
facet normal -0.7933533402912354 -0.0 -0.6087614290087205
  outer loop
    vertex 11.770064030267287 101.6 14.94506403026729
    vertex 12.274630657015592 76.19999999999999 14.2875
    vertex 11.770064030267287 76.19999999999999 14.94506403026729
  endloop
endfacet
facet normal -0.7933533402912354 -0.0 -0.6087614290087205
  outer loop
    vertex 12.274630657015592 76.19999999999999 14.2875
    vertex 11.770064030267287 101.6 14.94506403026729
    vertex 12.274630657015592 101.6 14.2875
  endloop
endfacet
facet normal -0.9914448613738105 -0.0 -0.13052619222005193
  outer loop
    vertex 12.59181449846779 101.6 13.521750468200503
    vertex 12.7 76.19999999999999 12.7
    vertex 12.59181449846779 76.19999999999999 13.521750468200503
  endloop
endfacet
facet normal -0.9914448613738105 -0.0 -0.13052619222005193
  outer loop
    vertex 12.7 76.19999999999999 12.7
    vertex 12.59181449846779 101.6 13.521750468200503
    vertex 12.7 101.6 12.7
  endloop
endfacet
facet normal -0.9914448613738105 0.0 0.13052619222005193
  outer loop
    vertex 12.7 101.6 12.7
    vertex 12.59181449846779 76.19999999999999 11.878249531799495
    vertex 12.7 76.19999999999999 12.7
  endloop
endfacet
facet normal -0.9914448613738105 0.0 0.13052619222005193
  outer loop
    vertex 12.59181449846779 76.19999999999999 11.878249531799495
    vertex 12.7 101.6 12.7
    vertex 12.59181449846779 101.6 11.878249531799495
  endloop
endfacet
facet normal 0.38268343236509095 0.0 0.9238795325112863
  outer loop
    vertex 8.703249531799493 76.19999999999999 9.633185501532209
    vertex 7.937499999999998 101.6 9.950369342984407
    vertex 7.937499999999998 76.19999999999999 9.950369342984407
  endloop
endfacet
facet normal 0.38268343236509095 0.0 0.9238795325112863
  outer loop
    vertex 7.937499999999998 101.6 9.950369342984407
    vertex 8.703249531799493 76.19999999999999 9.633185501532209
    vertex 8.703249531799493 101.6 9.633185501532209
  endloop
endfacet
facet normal -0.13052619222005338 -0.0 -0.9914448613738103
  outer loop
    vertex 10.346750468200504 101.6 15.76681449846779
    vertex 9.524999999999999 76.19999999999999 15.875
    vertex 9.524999999999999 101.6 15.875
  endloop
endfacet
facet normal -0.13052619222005338 -0.0 -0.9914448613738103
  outer loop
    vertex 9.524999999999999 76.19999999999999 15.875
    vertex 10.346750468200504 101.6 15.76681449846779
    vertex 10.346750468200504 76.19999999999999 15.76681449846779
  endloop
endfacet
facet normal -0.6087614290087201 -0.0 -0.7933533402912357
  outer loop
    vertex 11.770064030267287 101.6 14.94506403026729
    vertex 11.1125 76.19999999999999 15.449630657015591
    vertex 11.1125 101.6 15.449630657015591
  endloop
endfacet
facet normal -0.6087614290087201 -0.0 -0.7933533402912357
  outer loop
    vertex 11.1125 76.19999999999999 15.449630657015591
    vertex 11.770064030267287 101.6 14.94506403026729
    vertex 11.770064030267287 76.19999999999999 14.94506403026729
  endloop
endfacet
facet normal 0.6087614290087213 0.0 -0.7933533402912347
  outer loop
    vertex 7.937500000000001 101.6 15.449630657015593
    vertex 7.279935969732713 76.19999999999999 14.94506403026729
    vertex 7.279935969732713 101.6 14.94506403026729
  endloop
endfacet
facet normal 0.6087614290087213 0.0 -0.7933533402912347
  outer loop
    vertex 7.279935969732713 76.19999999999999 14.94506403026729
    vertex 7.937500000000001 101.6 15.449630657015593
    vertex 7.937500000000001 76.19999999999999 15.449630657015593
  endloop
endfacet
facet normal 0.9914448613738105 0.0 -0.1305261922200515
  outer loop
    vertex 6.35 101.6 12.7
    vertex 6.458185501532208 76.19999999999999 13.521750468200505
    vertex 6.35 76.19999999999999 12.7
  endloop
endfacet
facet normal 0.9914448613738105 0.0 -0.1305261922200515
  outer loop
    vertex 6.458185501532208 76.19999999999999 13.521750468200505
    vertex 6.35 101.6 12.7
    vertex 6.458185501532208 101.6 13.521750468200505
  endloop
endfacet
facet normal 0.9238795325112862 0.0 -0.3826834323650916
  outer loop
    vertex 6.458185501532208 101.6 13.521750468200505
    vertex 6.7753693429844075 76.19999999999999 14.2875
    vertex 6.458185501532208 76.19999999999999 13.521750468200505
  endloop
endfacet
facet normal 0.9238795325112862 0.0 -0.3826834323650916
  outer loop
    vertex 6.7753693429844075 76.19999999999999 14.2875
    vertex 6.458185501532208 101.6 13.521750468200505
    vertex 6.7753693429844075 101.6 14.2875
  endloop
endfacet
facet normal -0.9238795325112872 -0.0 -0.38268343236508895
  outer loop
    vertex 12.274630657015592 101.6 14.2875
    vertex 12.59181449846779 76.19999999999999 13.521750468200503
    vertex 12.274630657015592 76.19999999999999 14.2875
  endloop
endfacet
facet normal -0.9238795325112872 -0.0 -0.38268343236508895
  outer loop
    vertex 12.59181449846779 76.19999999999999 13.521750468200503
    vertex 12.274630657015592 101.6 14.2875
    vertex 12.59181449846779 101.6 13.521750468200503
  endloop
endfacet
facet normal -0.7933533402912355 0.0 0.6087614290087203
  outer loop
    vertex 12.27463065701559 101.6 11.112499999999999
    vertex 11.770064030267287 76.19999999999999 10.45493596973271
    vertex 12.27463065701559 76.19999999999999 11.112499999999999
  endloop
endfacet
facet normal -0.7933533402912355 0.0 0.6087614290087203
  outer loop
    vertex 11.770064030267287 76.19999999999999 10.45493596973271
    vertex 12.27463065701559 101.6 11.112499999999999
    vertex 11.770064030267287 101.6 10.45493596973271
  endloop
endfacet
facet normal -0.38268343236508895 0.0 0.9238795325112872
  outer loop
    vertex 11.112499999999999 76.19999999999999 9.950369342984406
    vertex 10.346750468200502 101.6 9.633185501532209
    vertex 10.346750468200502 76.19999999999999 9.633185501532209
  endloop
endfacet
facet normal -0.38268343236508895 0.0 0.9238795325112872
  outer loop
    vertex 10.346750468200502 101.6 9.633185501532209
    vertex 11.112499999999999 76.19999999999999 9.950369342984406
    vertex 11.112499999999999 101.6 9.950369342984406
  endloop
endfacet
facet normal 0.9238795325112868 0.0 0.3826834323650895
  outer loop
    vertex 6.775369342984405 101.6 11.112500000000002
    vertex 6.458185501532206 76.19999999999999 11.878249531799497
    vertex 6.775369342984405 76.19999999999999 11.112500000000002
  endloop
endfacet
facet normal 0.9238795325112868 0.0 0.3826834323650895
  outer loop
    vertex 6.458185501532206 76.19999999999999 11.878249531799497
    vertex 6.775369342984405 101.6 11.112500000000002
    vertex 6.458185501532206 101.6 11.878249531799497
  endloop
endfacet
facet normal 0.7933533402912354 0.0 -0.6087614290087205
  outer loop
    vertex 6.7753693429844075 101.6 14.2875
    vertex 7.279935969732713 76.19999999999999 14.94506403026729
    vertex 6.7753693429844075 76.19999999999999 14.2875
  endloop
endfacet
facet normal 0.7933533402912354 0.0 -0.6087614290087205
  outer loop
    vertex 7.279935969732713 76.19999999999999 14.94506403026729
    vertex 6.7753693429844075 101.6 14.2875
    vertex 7.279935969732713 101.6 14.94506403026729
  endloop
endfacet
facet normal 0.13052619222005046 0.0 -0.9914448613738105
  outer loop
    vertex 9.524999999999999 101.6 15.875
    vertex 8.703249531799498 76.19999999999999 15.766814498467792
    vertex 8.703249531799498 101.6 15.766814498467792
  endloop
endfacet
facet normal 0.13052619222005046 0.0 -0.9914448613738105
  outer loop
    vertex 8.703249531799498 76.19999999999999 15.766814498467792
    vertex 9.524999999999999 101.6 15.875
    vertex 9.524999999999999 76.19999999999999 15.875
  endloop
endfacet
facet normal 0.3826834323650877 0.0 -0.9238795325112876
  outer loop
    vertex 27.753249531799497 101.6 15.766814498467792
    vertex 26.987499999999997 76.19999999999999 15.449630657015593
    vertex 26.987499999999997 101.6 15.449630657015593
  endloop
endfacet
facet normal 0.3826834323650877 0.0 -0.9238795325112876
  outer loop
    vertex 26.987499999999997 76.19999999999999 15.449630657015593
    vertex 27.753249531799497 101.6 15.766814498467792
    vertex 27.753249531799497 76.19999999999999 15.766814498467792
  endloop
endfacet
facet normal -0.38268343236509017 -0.0 -0.9238795325112867
  outer loop
    vertex 30.162499999999998 101.6 15.449630657015591
    vertex 29.396750468200505 76.19999999999999 15.76681449846779
    vertex 29.396750468200505 101.6 15.76681449846779
  endloop
endfacet
facet normal -0.38268343236509017 -0.0 -0.9238795325112867
  outer loop
    vertex 29.396750468200505 76.19999999999999 15.76681449846779
    vertex 30.162499999999998 101.6 15.449630657015591
    vertex 30.162499999999998 76.19999999999999 15.449630657015591
  endloop
endfacet
facet normal -0.7933533402912354 -0.0 -0.6087614290087205
  outer loop
    vertex 30.82006403026729 101.6 14.94506403026729
    vertex 31.324630657015593 76.19999999999999 14.2875
    vertex 30.82006403026729 76.19999999999999 14.94506403026729
  endloop
endfacet
facet normal -0.7933533402912354 -0.0 -0.6087614290087205
  outer loop
    vertex 31.324630657015593 76.19999999999999 14.2875
    vertex 30.82006403026729 101.6 14.94506403026729
    vertex 31.324630657015593 101.6 14.2875
  endloop
endfacet
facet normal -0.13052619222005318 -0.0 -0.9914448613738103
  outer loop
    vertex 29.396750468200505 101.6 15.76681449846779
    vertex 28.575 76.19999999999999 15.875
    vertex 28.575 101.6 15.875
  endloop
endfacet
facet normal -0.13052619222005318 -0.0 -0.9914448613738103
  outer loop
    vertex 28.575 76.19999999999999 15.875
    vertex 29.396750468200505 101.6 15.76681449846779
    vertex 29.396750468200505 76.19999999999999 15.76681449846779
  endloop
endfacet
facet normal -0.6087614290087183 -0.0 -0.7933533402912369
  outer loop
    vertex 30.82006403026729 101.6 14.94506403026729
    vertex 30.162499999999998 76.19999999999999 15.449630657015591
    vertex 30.162499999999998 101.6 15.449630657015591
  endloop
endfacet
facet normal -0.6087614290087183 -0.0 -0.7933533402912369
  outer loop
    vertex 30.162499999999998 76.19999999999999 15.449630657015591
    vertex 30.82006403026729 101.6 14.94506403026729
    vertex 30.82006403026729 76.19999999999999 14.94506403026729
  endloop
endfacet
facet normal 0.1305261922200507 0.0 -0.9914448613738106
  outer loop
    vertex 28.575 101.6 15.875
    vertex 27.753249531799497 76.19999999999999 15.766814498467792
    vertex 27.753249531799497 101.6 15.766814498467792
  endloop
endfacet
facet normal 0.1305261922200507 0.0 -0.9914448613738106
  outer loop
    vertex 27.753249531799497 76.19999999999999 15.766814498467792
    vertex 28.575 101.6 15.875
    vertex 28.575 76.19999999999999 15.875
  endloop
endfacet
facet normal -0.9238795325112884 -0.0 -0.382683432365086
  outer loop
    vertex 31.324630657015593 101.6 14.2875
    vertex 31.641814498467788 76.19999999999999 13.521750468200503
    vertex 31.324630657015593 76.19999999999999 14.2875
  endloop
endfacet
facet normal -0.9238795325112884 -0.0 -0.382683432365086
  outer loop
    vertex 31.641814498467788 76.19999999999999 13.521750468200503
    vertex 31.324630657015593 101.6 14.2875
    vertex 31.641814498467788 101.6 13.521750468200503
  endloop
endfacet
facet normal 0.0 0.0 -1.0
  outer loop
    vertex 38.099999999999994 101.6 0.0
    vertex 0.0 0.0 0.0
    vertex 0.0 101.6 0.0
  endloop
endfacet
facet normal 0.0 0.0 -1.0
  outer loop
    vertex 0.0 0.0 0.0
    vertex 38.099999999999994 101.6 0.0
    vertex 38.099999999999994 0.0 0.0
  endloop
endfacet
facet normal 0.0 -1.0 0.0
  outer loop
    vertex 38.099999999999994 0.0 0.0
    vertex 21.12081117986527 0.0 4.971627463861167
    vertex 0.0 0.0 0.0
  endloop
endfacet
facet normal 0.0 -1.0 0.0
  outer loop
    vertex 21.12081117986527 0.0 4.971627463861167
    vertex 38.099999999999994 0.0 0.0
    vertex 23.0505 0.0 5.770930744320708
  endloop
endfacet
facet normal 0.0 -1.0 0.0
  outer loop
    vertex 23.0505 0.0 5.770930744320708
    vertex 38.099999999999994 0.0 0.0
    vertex 24.707561356273565 0.0 7.042438643726434
  endloop
endfacet
facet normal 0.0 -1.0 0.0
  outer loop
    vertex 24.707561356273565 0.0 7.042438643726434
    vertex 38.099999999999994 0.0 0.0
    vertex 25.979069255679292 0.0 8.6995
  endloop
endfacet
facet normal 0.0 -1.0 0.0
  outer loop
    vertex 25.979069255679292 0.0 8.6995
    vertex 38.099999999999994 0.0 0.0
    vertex 38.099999999999994 0.0 25.4
  endloop
endfacet
facet normal 0.0 -1.0 0.0
  outer loop
    vertex 0.0 0.0 0.0
    vertex 21.12081117986527 0.0 4.971627463861167
    vertex 19.049999999999997 0.0 4.699000000000001
  endloop
endfacet
facet normal 0.0 -1.0 0.0
  outer loop
    vertex 25.979069255679292 0.0 8.6995
    vertex 38.099999999999994 0.0 25.4
    vertex 26.77837253613883 0.0 10.62918882013473
  endloop
endfacet
facet normal 0.0 -1.0 0.0
  outer loop
    vertex 26.77837253613883 0.0 10.62918882013473
    vertex 38.099999999999994 0.0 25.4
    vertex 27.051 0.0 12.7
  endloop
endfacet
facet normal 0.0 -1.0 0.0
  outer loop
    vertex 27.051 0.0 12.7
    vertex 38.099999999999994 0.0 25.4
    vertex 26.77837253613883 0.0 14.770811179865273
  endloop
endfacet
facet normal 0.0 -1.0 0.0
  outer loop
    vertex 26.77837253613883 0.0 14.770811179865273
    vertex 38.099999999999994 0.0 25.4
    vertex 25.979069255679285 0.0 16.7005
  endloop
endfacet
facet normal 0.0 -1.0 0.0
  outer loop
    vertex 25.979069255679285 0.0 16.7005
    vertex 38.099999999999994 0.0 25.4
    vertex 24.707561356273565 0.0 18.357561356273564
  endloop
endfacet
facet normal 0.0 -1.0 0.0
  outer loop
    vertex 24.707561356273565 0.0 18.357561356273564
    vertex 38.099999999999994 0.0 25.4
    vertex 23.050499999999992 0.0 19.629069255679294
  endloop
endfacet
facet normal 0.0 -1.0 0.0
  outer loop
    vertex 23.050499999999992 0.0 19.629069255679294
    vertex 38.099999999999994 0.0 25.4
    vertex 21.120811179865264 0.0 20.428372536138834
  endloop
endfacet
facet normal 0.0 -1.0 0.0
  outer loop
    vertex 21.120811179865264 0.0 20.428372536138834
    vertex 38.099999999999994 0.0 25.4
    vertex 19.049999999999997 0.0 20.700999999999997
  endloop
endfacet
facet normal 0.0 -1.0 0.0
  outer loop
    vertex 0.0 0.0 0.0
    vertex 12.120930744320708 0.0 8.699499999999997
    vertex 0.0 0.0 25.4
  endloop
endfacet
facet normal 0.0 -1.0 0.0
  outer loop
    vertex 12.120930744320708 0.0 8.699499999999997
    vertex 0.0 0.0 0.0
    vertex 13.392438643726434 0.0 7.042438643726434
  endloop
endfacet
facet normal 0.0 -1.0 0.0
  outer loop
    vertex 13.392438643726434 0.0 7.042438643726434
    vertex 0.0 0.0 0.0
    vertex 15.049500000000002 0.0 5.770930744320706
  endloop
endfacet
facet normal 0.0 -1.0 0.0
  outer loop
    vertex 15.049500000000002 0.0 5.770930744320706
    vertex 0.0 0.0 0.0
    vertex 16.979188820134734 0.0 4.971627463861165
  endloop
endfacet
facet normal 0.0 -1.0 0.0
  outer loop
    vertex 16.979188820134734 0.0 4.971627463861165
    vertex 0.0 0.0 0.0
    vertex 19.049999999999997 0.0 4.699000000000001
  endloop
endfacet
facet normal 0.0 -1.0 0.0
  outer loop
    vertex 0.0 0.0 25.4
    vertex 12.120930744320708 0.0 8.699499999999997
    vertex 11.321627463861166 0.0 10.629188820134729
  endloop
endfacet
facet normal 0.0 -1.0 0.0
  outer loop
    vertex 0.0 0.0 25.4
    vertex 11.321627463861166 0.0 10.629188820134729
    vertex 11.049000000000001 0.0 12.699999999999998
  endloop
endfacet
facet normal 0.0 -1.0 0.0
  outer loop
    vertex 0.0 0.0 25.4
    vertex 11.049000000000001 0.0 12.699999999999998
    vertex 11.321627463861164 0.0 14.770811179865264
  endloop
endfacet
facet normal 0.0 -1.0 0.0
  outer loop
    vertex 0.0 0.0 25.4
    vertex 11.321627463861164 0.0 14.770811179865264
    vertex 12.120930744320706 0.0 16.700499999999995
  endloop
endfacet
facet normal 0.0 -1.0 0.0
  outer loop
    vertex 0.0 0.0 25.4
    vertex 12.120930744320706 0.0 16.700499999999995
    vertex 13.39243864372643 0.0 18.35756135627356
  endloop
endfacet
facet normal 0.0 -1.0 0.0
  outer loop
    vertex 0.0 0.0 25.4
    vertex 13.39243864372643 0.0 18.35756135627356
    vertex 15.049499999999997 0.0 19.62906925567929
  endloop
endfacet
facet normal 0.0 -1.0 0.0
  outer loop
    vertex 0.0 0.0 25.4
    vertex 15.049499999999997 0.0 19.62906925567929
    vertex 16.979188820134723 0.0 20.42837253613883
  endloop
endfacet
facet normal 0.0 -1.0 0.0
  outer loop
    vertex 0.0 0.0 25.4
    vertex 16.979188820134723 0.0 20.42837253613883
    vertex 19.049999999999997 0.0 20.700999999999997
  endloop
endfacet
facet normal 0.0 -1.0 0.0
  outer loop
    vertex 0.0 0.0 25.4
    vertex 19.049999999999997 0.0 20.700999999999997
    vertex 38.099999999999994 0.0 25.4
  endloop
endfacet
facet normal 1.0 0.0 0.0
  outer loop
    vertex 38.099999999999994 101.6 0.0
    vertex 38.099999999999994 0.0 25.4
    vertex 38.099999999999994 0.0 0.0
  endloop
endfacet
facet normal 1.0 0.0 0.0
  outer loop
    vertex 38.099999999999994 0.0 25.4
    vertex 38.099999999999994 101.6 0.0
    vertex 38.099999999999994 101.6 25.4
  endloop
endfacet
facet normal 0.0 1.0 0.0
  outer loop
    vertex 0.0 101.6 0.0
    vertex 8.703249531799493 101.6 9.633185501532209
    vertex 38.099999999999994 101.6 0.0
  endloop
endfacet
facet normal 0.0 1.0 0.0
  outer loop
    vertex 8.703249531799493 101.6 9.633185501532209
    vertex 0.0 101.6 0.0
    vertex 7.937499999999998 101.6 9.950369342984407
  endloop
endfacet
facet normal 0.0 1.0 0.0
  outer loop
    vertex 7.937499999999998 101.6 9.950369342984407
    vertex 0.0 101.6 0.0
    vertex 7.27993596973271 101.6 10.45493596973271
  endloop
endfacet
facet normal 0.0 1.0 0.0
  outer loop
    vertex 7.27993596973271 101.6 10.45493596973271
    vertex 0.0 101.6 0.0
    vertex 6.775369342984405 101.6 11.112500000000002
  endloop
endfacet
facet normal 0.0 1.0 0.0
  outer loop
    vertex 6.775369342984405 101.6 11.112500000000002
    vertex 0.0 101.6 0.0
    vertex 0.0 101.6 25.4
  endloop
endfacet
facet normal 0.0 1.0 0.0
  outer loop
    vertex 38.099999999999994 101.6 0.0
    vertex 8.703249531799493 101.6 9.633185501532209
    vertex 9.524999999999999 101.6 9.524999999999999
  endloop
endfacet
facet normal 0.0 1.0 0.0
  outer loop
    vertex 6.775369342984405 101.6 11.112500000000002
    vertex 0.0 101.6 25.4
    vertex 6.458185501532206 101.6 11.878249531799497
  endloop
endfacet
facet normal 0.0 1.0 0.0
  outer loop
    vertex 6.458185501532206 101.6 11.878249531799497
    vertex 0.0 101.6 25.4
    vertex 6.35 101.6 12.7
  endloop
endfacet
facet normal 0.0 1.0 0.0
  outer loop
    vertex 6.35 101.6 12.7
    vertex 0.0 101.6 25.4
    vertex 6.458185501532208 101.6 13.521750468200505
  endloop
endfacet
facet normal 0.0 1.0 0.0
  outer loop
    vertex 6.458185501532208 101.6 13.521750468200505
    vertex 0.0 101.6 25.4
    vertex 6.7753693429844075 101.6 14.2875
  endloop
endfacet
facet normal 0.0 1.0 0.0
  outer loop
    vertex 6.7753693429844075 101.6 14.2875
    vertex 0.0 101.6 25.4
    vertex 7.279935969732713 101.6 14.94506403026729
  endloop
endfacet
facet normal 0.0 1.0 0.0
  outer loop
    vertex 7.279935969732713 101.6 14.94506403026729
    vertex 0.0 101.6 25.4
    vertex 7.937500000000001 101.6 15.449630657015593
  endloop
endfacet
facet normal 0.0 1.0 0.0
  outer loop
    vertex 7.937500000000001 101.6 15.449630657015593
    vertex 0.0 101.6 25.4
    vertex 8.703249531799498 101.6 15.766814498467792
  endloop
endfacet
facet normal 0.0 1.0 0.0
  outer loop
    vertex 8.703249531799498 101.6 15.766814498467792
    vertex 0.0 101.6 25.4
    vertex 9.524999999999999 101.6 15.875
  endloop
endfacet
facet normal 0.0 1.0 0.0
  outer loop
    vertex 9.524999999999999 101.6 15.875
    vertex 0.0 101.6 25.4
    vertex 28.575 101.6 15.875
  endloop
endfacet
facet normal 0.0 1.0 0.0
  outer loop
    vertex 38.099999999999994 101.6 0.0
    vertex 31.324630657015593 101.6 11.112499999999999
    vertex 38.099999999999994 101.6 25.4
  endloop
endfacet
facet normal 0.0 1.0 0.0
  outer loop
    vertex 31.324630657015593 101.6 11.112499999999999
    vertex 38.099999999999994 101.6 0.0
    vertex 30.82006403026729 101.6 10.45493596973271
  endloop
endfacet
facet normal 0.0 1.0 0.0
  outer loop
    vertex 30.82006403026729 101.6 10.45493596973271
    vertex 38.099999999999994 101.6 0.0
    vertex 30.162499999999998 101.6 9.950369342984406
  endloop
endfacet
facet normal 0.0 1.0 0.0
  outer loop
    vertex 30.162499999999998 101.6 9.950369342984406
    vertex 38.099999999999994 101.6 0.0
    vertex 29.396750468200498 101.6 9.633185501532209
  endloop
endfacet
facet normal 0.0 1.0 0.0
  outer loop
    vertex 29.396750468200498 101.6 9.633185501532209
    vertex 38.099999999999994 101.6 0.0
    vertex 28.575 101.6 9.524999999999999
  endloop
endfacet
facet normal 0.0 1.0 0.0
  outer loop
    vertex 28.575 101.6 9.524999999999999
    vertex 38.099999999999994 101.6 0.0
    vertex 9.524999999999999 101.6 9.524999999999999
  endloop
endfacet
facet normal 0.0 1.0 0.0
  outer loop
    vertex 38.099999999999994 101.6 25.4
    vertex 31.324630657015593 101.6 11.112499999999999
    vertex 31.641814498467788 101.6 11.878249531799495
  endloop
endfacet
facet normal 0.0 1.0 0.0
  outer loop
    vertex 38.099999999999994 101.6 25.4
    vertex 31.641814498467788 101.6 11.878249531799495
    vertex 31.75 101.6 12.7
  endloop
endfacet
facet normal 0.0 1.0 0.0
  outer loop
    vertex 38.099999999999994 101.6 25.4
    vertex 31.75 101.6 12.7
    vertex 31.641814498467788 101.6 13.521750468200503
  endloop
endfacet
facet normal 0.0 1.0 0.0
  outer loop
    vertex 38.099999999999994 101.6 25.4
    vertex 31.641814498467788 101.6 13.521750468200503
    vertex 31.324630657015593 101.6 14.2875
  endloop
endfacet
facet normal 0.0 1.0 0.0
  outer loop
    vertex 38.099999999999994 101.6 25.4
    vertex 31.324630657015593 101.6 14.2875
    vertex 30.82006403026729 101.6 14.94506403026729
  endloop
endfacet
facet normal 0.0 1.0 0.0
  outer loop
    vertex 38.099999999999994 101.6 25.4
    vertex 30.82006403026729 101.6 14.94506403026729
    vertex 30.162499999999998 101.6 15.449630657015591
  endloop
endfacet
facet normal 0.0 1.0 0.0
  outer loop
    vertex 38.099999999999994 101.6 25.4
    vertex 30.162499999999998 101.6 15.449630657015591
    vertex 29.396750468200505 101.6 15.76681449846779
  endloop
endfacet
facet normal 0.0 1.0 0.0
  outer loop
    vertex 38.099999999999994 101.6 25.4
    vertex 29.396750468200505 101.6 15.76681449846779
    vertex 28.575 101.6 15.875
  endloop
endfacet
facet normal 0.0 1.0 0.0
  outer loop
    vertex 38.099999999999994 101.6 25.4
    vertex 28.575 101.6 15.875
    vertex 0.0 101.6 25.4
  endloop
endfacet
facet normal 0.0 1.0 0.0
  outer loop
    vertex 10.346750468200502 101.6 9.633185501532209
    vertex 28.575 101.6 9.524999999999999
    vertex 9.524999999999999 101.6 9.524999999999999
  endloop
endfacet
facet normal 0.0 1.0 0.0
  outer loop
    vertex 28.575 101.6 9.524999999999999
    vertex 10.346750468200502 101.6 9.633185501532209
    vertex 27.753249531799494 101.6 9.633185501532209
  endloop
endfacet
facet normal 0.0 1.0 0.0
  outer loop
    vertex 27.753249531799494 101.6 9.633185501532209
    vertex 10.346750468200502 101.6 9.633185501532209
    vertex 11.112499999999999 101.6 9.950369342984406
  endloop
endfacet
facet normal 0.0 1.0 0.0
  outer loop
    vertex 27.753249531799494 101.6 9.633185501532209
    vertex 11.112499999999999 101.6 9.950369342984406
    vertex 26.987499999999997 101.6 9.950369342984407
  endloop
endfacet
facet normal 0.0 1.0 0.0
  outer loop
    vertex 26.987499999999997 101.6 9.950369342984407
    vertex 11.112499999999999 101.6 9.950369342984406
    vertex 11.770064030267287 101.6 10.45493596973271
  endloop
endfacet
facet normal 0.0 1.0 0.0
  outer loop
    vertex 26.987499999999997 101.6 9.950369342984407
    vertex 11.770064030267287 101.6 10.45493596973271
    vertex 26.32993596973271 101.6 10.45493596973271
  endloop
endfacet
facet normal 0.0 1.0 0.0
  outer loop
    vertex 26.32993596973271 101.6 10.45493596973271
    vertex 11.770064030267287 101.6 10.45493596973271
    vertex 12.27463065701559 101.6 11.112499999999999
  endloop
endfacet
facet normal 0.0 1.0 0.0
  outer loop
    vertex 26.32993596973271 101.6 10.45493596973271
    vertex 12.27463065701559 101.6 11.112499999999999
    vertex 25.825369342984406 101.6 11.112500000000002
  endloop
endfacet
facet normal 0.0 1.0 0.0
  outer loop
    vertex 25.825369342984406 101.6 11.112500000000002
    vertex 12.27463065701559 101.6 11.112499999999999
    vertex 12.59181449846779 101.6 11.878249531799495
  endloop
endfacet
facet normal 0.0 1.0 0.0
  outer loop
    vertex 25.825369342984406 101.6 11.112500000000002
    vertex 12.59181449846779 101.6 11.878249531799495
    vertex 25.508185501532207 101.6 11.878249531799497
  endloop
endfacet
facet normal 0.0 1.0 0.0
  outer loop
    vertex 25.508185501532207 101.6 11.878249531799497
    vertex 12.59181449846779 101.6 11.878249531799495
    vertex 12.7 101.6 12.7
  endloop
endfacet
facet normal 0.0 1.0 0.0
  outer loop
    vertex 25.508185501532207 101.6 11.878249531799497
    vertex 12.7 101.6 12.7
    vertex 25.4 101.6 12.7
  endloop
endfacet
facet normal 0.0 1.0 0.0
  outer loop
    vertex 25.4 101.6 12.7
    vertex 12.7 101.6 12.7
    vertex 12.59181449846779 101.6 13.521750468200503
  endloop
endfacet
facet normal 0.0 1.0 0.0
  outer loop
    vertex 25.4 101.6 12.7
    vertex 12.59181449846779 101.6 13.521750468200503
    vertex 25.508185501532207 101.6 13.521750468200505
  endloop
endfacet
facet normal 0.0 1.0 0.0
  outer loop
    vertex 25.508185501532207 101.6 13.521750468200505
    vertex 12.59181449846779 101.6 13.521750468200503
    vertex 12.274630657015592 101.6 14.2875
  endloop
endfacet
facet normal 0.0 1.0 0.0
  outer loop
    vertex 25.508185501532207 101.6 13.521750468200505
    vertex 12.274630657015592 101.6 14.2875
    vertex 25.82536934298441 101.6 14.2875
  endloop
endfacet
facet normal 0.0 1.0 0.0
  outer loop
    vertex 25.82536934298441 101.6 14.2875
    vertex 12.274630657015592 101.6 14.2875
    vertex 11.770064030267287 101.6 14.94506403026729
  endloop
endfacet
facet normal 0.0 1.0 0.0
  outer loop
    vertex 25.82536934298441 101.6 14.2875
    vertex 11.770064030267287 101.6 14.94506403026729
    vertex 26.32993596973271 101.6 14.94506403026729
  endloop
endfacet
facet normal 0.0 1.0 0.0
  outer loop
    vertex 26.32993596973271 101.6 14.94506403026729
    vertex 11.770064030267287 101.6 14.94506403026729
    vertex 11.1125 101.6 15.449630657015591
  endloop
endfacet
facet normal 0.0 1.0 0.0
  outer loop
    vertex 26.32993596973271 101.6 14.94506403026729
    vertex 11.1125 101.6 15.449630657015591
    vertex 26.987499999999997 101.6 15.449630657015593
  endloop
endfacet
facet normal 0.0 1.0 0.0
  outer loop
    vertex 26.987499999999997 101.6 15.449630657015593
    vertex 11.1125 101.6 15.449630657015591
    vertex 10.346750468200504 101.6 15.76681449846779
  endloop
endfacet
facet normal 0.0 1.0 0.0
  outer loop
    vertex 26.987499999999997 101.6 15.449630657015593
    vertex 10.346750468200504 101.6 15.76681449846779
    vertex 27.753249531799497 101.6 15.766814498467792
  endloop
endfacet
facet normal 0.0 1.0 0.0
  outer loop
    vertex 27.753249531799497 101.6 15.766814498467792
    vertex 10.346750468200504 101.6 15.76681449846779
    vertex 9.524999999999999 101.6 15.875
  endloop
endfacet
facet normal 0.0 1.0 0.0
  outer loop
    vertex 27.753249531799497 101.6 15.766814498467792
    vertex 9.524999999999999 101.6 15.875
    vertex 28.575 101.6 15.875
  endloop
endfacet
facet normal -1.0 0.0 0.0
  outer loop
    vertex 0.0 101.6 25.4
    vertex 0.0 0.0 0.0
    vertex 0.0 0.0 25.4
  endloop
endfacet
facet normal -1.0 0.0 0.0
  outer loop
    vertex 0.0 0.0 0.0
    vertex 0.0 101.6 25.4
    vertex 0.0 101.6 0.0
  endloop
endfacet
facet normal 0.0 0.0 1.0
  outer loop
    vertex 38.099999999999994 0.0 25.4
    vertex 0.0 101.6 25.4
    vertex 0.0 0.0 25.4
  endloop
endfacet
facet normal 0.0 0.0 1.0
  outer loop
    vertex 0.0 101.6 25.4
    vertex 38.099999999999994 0.0 25.4
    vertex 38.099999999999994 101.6 25.4
  endloop
endfacet
facet normal 0.7933533402912358 0.0 0.6087614290087197
  outer loop
    vertex 26.32993596973271 101.6 10.45493596973271
    vertex 25.825369342984406 76.19999999999999 11.112500000000002
    vertex 26.32993596973271 76.19999999999999 10.45493596973271
  endloop
endfacet
facet normal 0.7933533402912358 0.0 0.6087614290087197
  outer loop
    vertex 25.825369342984406 76.19999999999999 11.112500000000002
    vertex 26.32993596973271 101.6 10.45493596973271
    vertex 25.825369342984406 101.6 11.112500000000002
  endloop
endfacet
facet normal 0.1305261922200515 0.0 0.9914448613738105
  outer loop
    vertex 28.575 76.19999999999999 9.524999999999999
    vertex 27.753249531799494 101.6 9.633185501532209
    vertex 27.753249531799494 76.19999999999999 9.633185501532209
  endloop
endfacet
facet normal 0.1305261922200515 0.0 0.9914448613738105
  outer loop
    vertex 27.753249531799494 101.6 9.633185501532209
    vertex 28.575 76.19999999999999 9.524999999999999
    vertex 28.575 101.6 9.524999999999999
  endloop
endfacet
facet normal 0.7933533402912386 0.0 -0.6087614290087162
  outer loop
    vertex 25.82536934298441 101.6 14.2875
    vertex 26.32993596973271 76.19999999999999 14.94506403026729
    vertex 25.82536934298441 76.19999999999999 14.2875
  endloop
endfacet
facet normal 0.7933533402912386 0.0 -0.6087614290087162
  outer loop
    vertex 26.32993596973271 76.19999999999999 14.94506403026729
    vertex 25.82536934298441 101.6 14.2875
    vertex 26.32993596973271 101.6 14.94506403026729
  endloop
endfacet
facet normal 0.6087614290087205 0.0 -0.7933533402912354
  outer loop
    vertex 26.987499999999997 101.6 15.449630657015593
    vertex 26.32993596973271 76.19999999999999 14.94506403026729
    vertex 26.32993596973271 101.6 14.94506403026729
  endloop
endfacet
facet normal 0.6087614290087205 0.0 -0.7933533402912354
  outer loop
    vertex 26.32993596973271 76.19999999999999 14.94506403026729
    vertex 26.987499999999997 101.6 15.449630657015593
    vertex 26.987499999999997 76.19999999999999 15.449630657015593
  endloop
endfacet
facet normal 0.9914448613738103 0.0 0.13052619222005382
  outer loop
    vertex 25.508185501532207 101.6 11.878249531799497
    vertex 25.4 76.19999999999999 12.7
    vertex 25.508185501532207 76.19999999999999 11.878249531799497
  endloop
endfacet
facet normal 0.9914448613738103 0.0 0.13052619222005382
  outer loop
    vertex 25.4 76.19999999999999 12.7
    vertex 25.508185501532207 101.6 11.878249531799497
    vertex 25.4 101.6 12.7
  endloop
endfacet
facet normal -0.6087614290087205 0.0 0.7933533402912354
  outer loop
    vertex 30.82006403026729 76.19999999999999 10.45493596973271
    vertex 30.162499999999998 101.6 9.950369342984406
    vertex 30.162499999999998 76.19999999999999 9.950369342984406
  endloop
endfacet
facet normal -0.6087614290087205 0.0 0.7933533402912354
  outer loop
    vertex 30.162499999999998 101.6 9.950369342984406
    vertex 30.82006403026729 76.19999999999999 10.45493596973271
    vertex 30.82006403026729 101.6 10.45493596973271
  endloop
endfacet
facet normal -0.9914448613738103 0.0 0.1305261922200536
  outer loop
    vertex 31.75 101.6 12.7
    vertex 31.641814498467788 76.19999999999999 11.878249531799495
    vertex 31.75 76.19999999999999 12.7
  endloop
endfacet
facet normal -0.9914448613738103 0.0 0.1305261922200536
  outer loop
    vertex 31.641814498467788 76.19999999999999 11.878249531799495
    vertex 31.75 101.6 12.7
    vertex 31.641814498467788 101.6 11.878249531799495
  endloop
endfacet
facet normal -0.3826834323650877 0.0 0.9238795325112876
  outer loop
    vertex 30.162499999999998 76.19999999999999 9.950369342984406
    vertex 29.396750468200498 101.6 9.633185501532209
    vertex 29.396750468200498 76.19999999999999 9.633185501532209
  endloop
endfacet
facet normal -0.3826834323650877 0.0 0.9238795325112876
  outer loop
    vertex 29.396750468200498 101.6 9.633185501532209
    vertex 30.162499999999998 76.19999999999999 9.950369342984406
    vertex 30.162499999999998 101.6 9.950369342984406
  endloop
endfacet
facet normal -0.9238795325112884 0.0 0.382683432365086
  outer loop
    vertex 31.641814498467788 101.6 11.878249531799495
    vertex 31.324630657015593 76.19999999999999 11.112499999999999
    vertex 31.641814498467788 76.19999999999999 11.878249531799495
  endloop
endfacet
facet normal -0.9238795325112884 0.0 0.382683432365086
  outer loop
    vertex 31.324630657015593 76.19999999999999 11.112499999999999
    vertex 31.641814498467788 101.6 11.878249531799495
    vertex 31.324630657015593 101.6 11.112499999999999
  endloop
endfacet
facet normal 0.3826834323650916 0.0 0.9238795325112862
  outer loop
    vertex 27.753249531799494 76.19999999999999 9.633185501532209
    vertex 26.987499999999997 101.6 9.950369342984407
    vertex 26.987499999999997 76.19999999999999 9.950369342984407
  endloop
endfacet
facet normal 0.3826834323650916 0.0 0.9238795325112862
  outer loop
    vertex 26.987499999999997 101.6 9.950369342984407
    vertex 27.753249531799494 76.19999999999999 9.633185501532209
    vertex 27.753249531799494 101.6 9.633185501532209
  endloop
endfacet
facet normal -0.7933533402912347 0.0 0.6087614290087213
  outer loop
    vertex 31.324630657015593 101.6 11.112499999999999
    vertex 30.82006403026729 76.19999999999999 10.45493596973271
    vertex 31.324630657015593 76.19999999999999 11.112499999999999
  endloop
endfacet
facet normal -0.7933533402912347 0.0 0.6087614290087213
  outer loop
    vertex 30.82006403026729 76.19999999999999 10.45493596973271
    vertex 31.324630657015593 101.6 11.112499999999999
    vertex 30.82006403026729 101.6 10.45493596973271
  endloop
endfacet
facet normal -0.13052619222005238 0.0 0.9914448613738104
  outer loop
    vertex 29.396750468200498 76.19999999999999 9.633185501532209
    vertex 28.575 101.6 9.524999999999999
    vertex 28.575 76.19999999999999 9.524999999999999
  endloop
endfacet
facet normal -0.13052619222005238 0.0 0.9914448613738104
  outer loop
    vertex 28.575 101.6 9.524999999999999
    vertex 29.396750468200498 76.19999999999999 9.633185501532209
    vertex 29.396750468200498 101.6 9.633185501532209
  endloop
endfacet
facet normal 0.6087614290087194 0.0 0.793353340291236
  outer loop
    vertex 26.987499999999997 76.19999999999999 9.950369342984407
    vertex 26.32993596973271 101.6 10.45493596973271
    vertex 26.32993596973271 76.19999999999999 10.45493596973271
  endloop
endfacet
facet normal 0.6087614290087194 0.0 0.793353340291236
  outer loop
    vertex 26.32993596973271 101.6 10.45493596973271
    vertex 26.987499999999997 76.19999999999999 9.950369342984407
    vertex 26.987499999999997 101.6 9.950369342984407
  endloop
endfacet
facet normal 0.9238795325112881 0.0 0.3826834323650866
  outer loop
    vertex 25.825369342984406 101.6 11.112500000000002
    vertex 25.508185501532207 76.19999999999999 11.878249531799497
    vertex 25.825369342984406 76.19999999999999 11.112500000000002
  endloop
endfacet
facet normal 0.9238795325112881 0.0 0.3826834323650866
  outer loop
    vertex 25.508185501532207 76.19999999999999 11.878249531799497
    vertex 25.825369342984406 101.6 11.112500000000002
    vertex 25.508185501532207 101.6 11.878249531799497
  endloop
endfacet
facet normal 0.9914448613738103 0.0 -0.13052619222005318
  outer loop
    vertex 25.4 101.6 12.7
    vertex 25.508185501532207 76.19999999999999 13.521750468200505
    vertex 25.4 76.19999999999999 12.7
  endloop
endfacet
facet normal 0.9914448613738103 0.0 -0.13052619222005318
  outer loop
    vertex 25.508185501532207 76.19999999999999 13.521750468200505
    vertex 25.4 101.6 12.7
    vertex 25.508185501532207 101.6 13.521750468200505
  endloop
endfacet
facet normal 0.9238795325112855 0.0 -0.38268343236509306
  outer loop
    vertex 25.508185501532207 101.6 13.521750468200505
    vertex 25.82536934298441 76.19999999999999 14.2875
    vertex 25.508185501532207 76.19999999999999 13.521750468200505
  endloop
endfacet
facet normal 0.9238795325112855 0.0 -0.38268343236509306
  outer loop
    vertex 25.82536934298441 76.19999999999999 14.2875
    vertex 25.508185501532207 101.6 13.521750468200505
    vertex 25.82536934298441 101.6 14.2875
  endloop
endfacet
facet normal -0.9914448613738103 -0.0 -0.1305261922200536
  outer loop
    vertex 31.641814498467788 101.6 13.521750468200503
    vertex 31.75 76.19999999999999 12.7
    vertex 31.641814498467788 76.19999999999999 13.521750468200503
  endloop
endfacet
facet normal -0.9914448613738103 -0.0 -0.1305261922200536
  outer loop
    vertex 31.75 76.19999999999999 12.7
    vertex 31.641814498467788 101.6 13.521750468200503
    vertex 31.75 101.6 12.7
  endloop
endfacet
facet normal -0.9238795325112873 0.0 0.3826834323650884
  outer loop
    vertex 26.77837253613883 17.145 10.62918882013473
    vertex 25.979069255679292 0.0 8.6995
    vertex 26.77837253613883 0.0 10.62918882013473
  endloop
endfacet
facet normal -0.9238795325112873 0.0 0.3826834323650884
  outer loop
    vertex 25.979069255679292 0.0 8.6995
    vertex 26.77837253613883 17.145 10.62918882013473
    vertex 25.979069255679292 17.145 8.6995
  endloop
endfacet
facet normal 0.6087614290087202 0.0 0.7933533402912356
  outer loop
    vertex 15.049500000000002 0.0 5.770930744320706
    vertex 13.392438643726434 17.145 7.042438643726434
    vertex 13.392438643726434 0.0 7.042438643726434
  endloop
endfacet
facet normal 0.6087614290087202 0.0 0.7933533402912356
  outer loop
    vertex 13.392438643726434 17.145 7.042438643726434
    vertex 15.049500000000002 0.0 5.770930744320706
    vertex 15.049500000000002 17.145 5.770930744320706
  endloop
endfacet
facet normal -0.9914448613738104 0.0 0.13052619222005288
  outer loop
    vertex 27.051 17.145 12.7
    vertex 26.77837253613883 0.0 10.62918882013473
    vertex 27.051 0.0 12.7
  endloop
endfacet
facet normal -0.9914448613738104 0.0 0.13052619222005288
  outer loop
    vertex 26.77837253613883 0.0 10.62918882013473
    vertex 27.051 17.145 12.7
    vertex 26.77837253613883 17.145 10.62918882013473
  endloop
endfacet
facet normal 0.9238795325112866 0.0 -0.38268343236509017
  outer loop
    vertex 11.321627463861164 17.145 14.770811179865264
    vertex 12.120930744320706 0.0 16.700499999999995
    vertex 11.321627463861164 0.0 14.770811179865264
  endloop
endfacet
facet normal 0.9238795325112866 0.0 -0.38268343236509017
  outer loop
    vertex 12.120930744320706 0.0 16.700499999999995
    vertex 11.321627463861164 17.145 14.770811179865264
    vertex 12.120930744320706 17.145 16.700499999999995
  endloop
endfacet
facet normal -0.7933533402912349 0.0 0.6087614290087209
  outer loop
    vertex 25.979069255679292 17.145 8.6995
    vertex 24.707561356273565 0.0 7.042438643726434
    vertex 25.979069255679292 0.0 8.6995
  endloop
endfacet
facet normal -0.7933533402912349 0.0 0.6087614290087209
  outer loop
    vertex 24.707561356273565 0.0 7.042438643726434
    vertex 25.979069255679292 17.145 8.6995
    vertex 24.707561356273565 17.145 7.042438643726434
  endloop
endfacet
facet normal 0.9914448613738103 0.0 0.13052619222005218
  outer loop
    vertex 11.321627463861166 17.145 10.629188820134729
    vertex 11.049000000000001 0.0 12.699999999999998
    vertex 11.321627463861166 0.0 10.629188820134729
  endloop
endfacet
facet normal 0.9914448613738103 0.0 0.13052619222005218
  outer loop
    vertex 11.049000000000001 0.0 12.699999999999998
    vertex 11.321627463861166 17.145 10.629188820134729
    vertex 11.049000000000001 17.145 12.699999999999998
  endloop
endfacet
facet normal 0.38268343236509006 0.0 -0.9238795325112866
  outer loop
    vertex 16.979188820134723 17.145 20.42837253613883
    vertex 15.049499999999997 0.0 19.62906925567929
    vertex 15.049499999999997 17.145 19.62906925567929
  endloop
endfacet
facet normal 0.38268343236509006 0.0 -0.9238795325112866
  outer loop
    vertex 15.049499999999997 0.0 19.62906925567929
    vertex 16.979188820134723 17.145 20.42837253613883
    vertex 16.979188820134723 0.0 20.42837253613883
  endloop
endfacet
facet normal 0.13052619222005268 0.0 -0.9914448613738104
  outer loop
    vertex 19.049999999999997 17.145 20.700999999999997
    vertex 16.979188820134723 0.0 20.42837253613883
    vertex 16.979188820134723 17.145 20.42837253613883
  endloop
endfacet
facet normal 0.13052619222005268 0.0 -0.9914448613738104
  outer loop
    vertex 16.979188820134723 0.0 20.42837253613883
    vertex 19.049999999999997 17.145 20.700999999999997
    vertex 19.049999999999997 0.0 20.700999999999997
  endloop
endfacet
facet normal 0.9238795325112868 0.0 0.3826834323650893
  outer loop
    vertex 12.120930744320708 17.145 8.699499999999997
    vertex 11.321627463861166 0.0 10.629188820134729
    vertex 12.120930744320708 0.0 8.699499999999997
  endloop
endfacet
facet normal 0.9238795325112868 0.0 0.3826834323650893
  outer loop
    vertex 11.321627463861166 0.0 10.629188820134729
    vertex 12.120930744320708 17.145 8.699499999999997
    vertex 11.321627463861166 17.145 10.629188820134729
  endloop
endfacet
facet normal 0.7933533402912349 0.0 0.6087614290087212
  outer loop
    vertex 13.392438643726434 17.145 7.042438643726434
    vertex 12.120930744320708 0.0 8.699499999999997
    vertex 13.392438643726434 0.0 7.042438643726434
  endloop
endfacet
facet normal 0.7933533402912349 0.0 0.6087614290087212
  outer loop
    vertex 12.120930744320708 0.0 8.699499999999997
    vertex 13.392438643726434 17.145 7.042438643726434
    vertex 12.120930744320708 17.145 8.699499999999997
  endloop
endfacet
facet normal 0.38268343236508956 0.0 0.9238795325112868
  outer loop
    vertex 16.979188820134734 0.0 4.971627463861165
    vertex 15.049500000000002 17.145 5.770930744320706
    vertex 15.049500000000002 0.0 5.770930744320706
  endloop
endfacet
facet normal 0.38268343236508956 0.0 0.9238795325112868
  outer loop
    vertex 15.049500000000002 17.145 5.770930744320706
    vertex 16.979188820134734 0.0 4.971627463861165
    vertex 16.979188820134734 17.145 4.971627463861165
  endloop
endfacet
facet normal 0.1305261922200517 0.0 0.9914448613738105
  outer loop
    vertex 19.049999999999997 0.0 4.699000000000001
    vertex 16.979188820134734 17.145 4.971627463861165
    vertex 16.979188820134734 0.0 4.971627463861165
  endloop
endfacet
facet normal 0.1305261922200517 0.0 0.9914448613738105
  outer loop
    vertex 16.979188820134734 17.145 4.971627463861165
    vertex 19.049999999999997 0.0 4.699000000000001
    vertex 19.049999999999997 17.145 4.699000000000001
  endloop
endfacet
facet normal -0.13052619222005202 0.0 0.9914448613738104
  outer loop
    vertex 21.12081117986527 0.0 4.971627463861167
    vertex 19.049999999999997 17.145 4.699000000000001
    vertex 19.049999999999997 0.0 4.699000000000001
  endloop
endfacet
facet normal -0.13052619222005202 0.0 0.9914448613738104
  outer loop
    vertex 19.049999999999997 17.145 4.699000000000001
    vertex 21.12081117986527 0.0 4.971627463861167
    vertex 21.12081117986527 17.145 4.971627463861167
  endloop
endfacet
facet normal 0.0 -1.0 0.0
  outer loop
    vertex 21.12081117986527 17.145 4.971627463861167
    vertex 16.979188820134734 17.145 4.971627463861165
    vertex 19.049999999999997 17.145 4.699000000000001
  endloop
endfacet
facet normal 0.0 -1.0 0.0
  outer loop
    vertex 16.979188820134734 17.145 4.971627463861165
    vertex 21.12081117986527 17.145 4.971627463861167
    vertex 15.049500000000002 17.145 5.770930744320706
  endloop
endfacet
facet normal 0.0 -1.0 0.0
  outer loop
    vertex 15.049500000000002 17.145 5.770930744320706
    vertex 21.12081117986527 17.145 4.971627463861167
    vertex 23.0505 17.145 5.770930744320708
  endloop
endfacet
facet normal 0.0 -1.0 0.0
  outer loop
    vertex 15.049500000000002 17.145 5.770930744320706
    vertex 23.0505 17.145 5.770930744320708
    vertex 13.392438643726434 17.145 7.042438643726434
  endloop
endfacet
facet normal 0.0 -1.0 0.0
  outer loop
    vertex 13.392438643726434 17.145 7.042438643726434
    vertex 23.0505 17.145 5.770930744320708
    vertex 24.707561356273565 17.145 7.042438643726434
  endloop
endfacet
facet normal 0.0 -1.0 0.0
  outer loop
    vertex 13.392438643726434 17.145 7.042438643726434
    vertex 24.707561356273565 17.145 7.042438643726434
    vertex 25.979069255679292 17.145 8.6995
  endloop
endfacet
facet normal 0.0 -1.0 0.0
  outer loop
    vertex 13.392438643726434 17.145 7.042438643726434
    vertex 25.979069255679292 17.145 8.6995
    vertex 12.120930744320708 17.145 8.699499999999997
  endloop
endfacet
facet normal 0.0 -1.0 0.0
  outer loop
    vertex 12.120930744320708 17.145 8.699499999999997
    vertex 25.979069255679292 17.145 8.6995
    vertex 11.321627463861166 17.145 10.629188820134729
  endloop
endfacet
facet normal 0.0 -1.0 0.0
  outer loop
    vertex 11.321627463861166 17.145 10.629188820134729
    vertex 25.979069255679292 17.145 8.6995
    vertex 26.77837253613883 17.145 10.62918882013473
  endloop
endfacet
facet normal 0.0 -1.0 0.0
  outer loop
    vertex 11.321627463861166 17.145 10.629188820134729
    vertex 26.77837253613883 17.145 10.62918882013473
    vertex 11.049000000000001 17.145 12.699999999999998
  endloop
endfacet
facet normal 0.0 -1.0 0.0
  outer loop
    vertex 11.049000000000001 17.145 12.699999999999998
    vertex 26.77837253613883 17.145 10.62918882013473
    vertex 27.051 17.145 12.7
  endloop
endfacet
facet normal 0.0 -1.0 0.0
  outer loop
    vertex 11.049000000000001 17.145 12.699999999999998
    vertex 27.051 17.145 12.7
    vertex 11.321627463861164 17.145 14.770811179865264
  endloop
endfacet
facet normal 0.0 -1.0 0.0
  outer loop
    vertex 11.321627463861164 17.145 14.770811179865264
    vertex 27.051 17.145 12.7
    vertex 26.77837253613883 17.145 14.770811179865273
  endloop
endfacet
facet normal 0.0 -1.0 0.0
  outer loop
    vertex 11.321627463861164 17.145 14.770811179865264
    vertex 26.77837253613883 17.145 14.770811179865273
    vertex 12.120930744320706 17.145 16.700499999999995
  endloop
endfacet
facet normal 0.0 -1.0 0.0
  outer loop
    vertex 12.120930744320706 17.145 16.700499999999995
    vertex 26.77837253613883 17.145 14.770811179865273
    vertex 25.979069255679285 17.145 16.7005
  endloop
endfacet
facet normal 0.0 -1.0 0.0
  outer loop
    vertex 12.120930744320706 17.145 16.700499999999995
    vertex 25.979069255679285 17.145 16.7005
    vertex 13.39243864372643 17.145 18.35756135627356
  endloop
endfacet
facet normal 0.0 -1.0 0.0
  outer loop
    vertex 13.39243864372643 17.145 18.35756135627356
    vertex 25.979069255679285 17.145 16.7005
    vertex 24.707561356273565 17.145 18.357561356273564
  endloop
endfacet
facet normal 0.0 -1.0 0.0
  outer loop
    vertex 13.39243864372643 17.145 18.35756135627356
    vertex 24.707561356273565 17.145 18.357561356273564
    vertex 15.049499999999997 17.145 19.62906925567929
  endloop
endfacet
facet normal 0.0 -1.0 0.0
  outer loop
    vertex 15.049499999999997 17.145 19.62906925567929
    vertex 24.707561356273565 17.145 18.357561356273564
    vertex 23.050499999999992 17.145 19.629069255679294
  endloop
endfacet
facet normal 0.0 -1.0 0.0
  outer loop
    vertex 15.049499999999997 17.145 19.62906925567929
    vertex 23.050499999999992 17.145 19.629069255679294
    vertex 16.979188820134723 17.145 20.42837253613883
  endloop
endfacet
facet normal 0.0 -1.0 0.0
  outer loop
    vertex 16.979188820134723 17.145 20.42837253613883
    vertex 23.050499999999992 17.145 19.629069255679294
    vertex 21.120811179865264 17.145 20.428372536138834
  endloop
endfacet
facet normal 0.0 -1.0 0.0
  outer loop
    vertex 16.979188820134723 17.145 20.42837253613883
    vertex 21.120811179865264 17.145 20.428372536138834
    vertex 19.049999999999997 17.145 20.700999999999997
  endloop
endfacet
facet normal 0.6087614290087209 0.0 -0.7933533402912349
  outer loop
    vertex 15.049499999999997 17.145 19.62906925567929
    vertex 13.39243864372643 0.0 18.35756135627356
    vertex 13.39243864372643 17.145 18.35756135627356
  endloop
endfacet
facet normal 0.6087614290087209 0.0 -0.7933533402912349
  outer loop
    vertex 13.39243864372643 0.0 18.35756135627356
    vertex 15.049499999999997 17.145 19.62906925567929
    vertex 15.049499999999997 0.0 19.62906925567929
  endloop
endfacet
facet normal 0.9914448613738105 0.0 -0.13052619222005094
  outer loop
    vertex 11.049000000000001 17.145 12.699999999999998
    vertex 11.321627463861164 0.0 14.770811179865264
    vertex 11.049000000000001 0.0 12.699999999999998
  endloop
endfacet
facet normal 0.9914448613738105 0.0 -0.13052619222005094
  outer loop
    vertex 11.321627463861164 0.0 14.770811179865264
    vertex 11.049000000000001 17.145 12.699999999999998
    vertex 11.321627463861164 17.145 14.770811179865264
  endloop
endfacet
facet normal -0.38268343236509006 0.0 0.9238795325112866
  outer loop
    vertex 23.0505 0.0 5.770930744320708
    vertex 21.12081117986527 17.145 4.971627463861167
    vertex 21.12081117986527 0.0 4.971627463861167
  endloop
endfacet
facet normal -0.38268343236509006 0.0 0.9238795325112866
  outer loop
    vertex 21.12081117986527 17.145 4.971627463861167
    vertex 23.0505 0.0 5.770930744320708
    vertex 23.0505 17.145 5.770930744320708
  endloop
endfacet
facet normal -0.1305261922200502 -0.0 -0.9914448613738107
  outer loop
    vertex 21.120811179865264 17.145 20.428372536138834
    vertex 19.049999999999997 0.0 20.700999999999997
    vertex 19.049999999999997 17.145 20.700999999999997
  endloop
endfacet
facet normal -0.1305261922200502 -0.0 -0.9914448613738107
  outer loop
    vertex 19.049999999999997 0.0 20.700999999999997
    vertex 21.120811179865264 17.145 20.428372536138834
    vertex 21.120811179865264 0.0 20.428372536138834
  endloop
endfacet
facet normal 0.7933533402912357 0.0 -0.6087614290087201
  outer loop
    vertex 12.120930744320706 17.145 16.700499999999995
    vertex 13.39243864372643 0.0 18.35756135627356
    vertex 12.120930744320706 0.0 16.700499999999995
  endloop
endfacet
facet normal 0.7933533402912357 0.0 -0.6087614290087201
  outer loop
    vertex 13.39243864372643 0.0 18.35756135627356
    vertex 12.120930744320706 17.145 16.700499999999995
    vertex 13.39243864372643 17.145 18.35756135627356
  endloop
endfacet
facet normal -0.6087614290087205 0.0 0.7933533402912354
  outer loop
    vertex 24.707561356273565 0.0 7.042438643726434
    vertex 23.0505 17.145 5.770930744320708
    vertex 23.0505 0.0 5.770930744320708
  endloop
endfacet
facet normal -0.6087614290087205 0.0 0.7933533402912354
  outer loop
    vertex 23.0505 17.145 5.770930744320708
    vertex 24.707561356273565 0.0 7.042438643726434
    vertex 24.707561356273565 17.145 7.042438643726434
  endloop
endfacet
facet normal -0.9914448613738104 -0.0 -0.13052619222005252
  outer loop
    vertex 26.77837253613883 17.145 14.770811179865273
    vertex 27.051 0.0 12.7
    vertex 26.77837253613883 0.0 14.770811179865273
  endloop
endfacet
facet normal -0.9914448613738104 -0.0 -0.13052619222005252
  outer loop
    vertex 27.051 0.0 12.7
    vertex 26.77837253613883 17.145 14.770811179865273
    vertex 27.051 17.145 12.7
  endloop
endfacet
facet normal -0.6087614290087204 -0.0 -0.7933533402912355
  outer loop
    vertex 24.707561356273565 17.145 18.357561356273564
    vertex 23.050499999999992 0.0 19.629069255679294
    vertex 23.050499999999992 17.145 19.629069255679294
  endloop
endfacet
facet normal -0.6087614290087204 -0.0 -0.7933533402912355
  outer loop
    vertex 23.050499999999992 0.0 19.629069255679294
    vertex 24.707561356273565 17.145 18.357561356273564
    vertex 24.707561356273565 0.0 18.357561356273564
  endloop
endfacet
facet normal -0.38268343236509006 -0.0 -0.9238795325112866
  outer loop
    vertex 23.050499999999992 17.145 19.629069255679294
    vertex 21.120811179865264 0.0 20.428372536138834
    vertex 21.120811179865264 17.145 20.428372536138834
  endloop
endfacet
facet normal -0.38268343236509006 -0.0 -0.9238795325112866
  outer loop
    vertex 21.120811179865264 0.0 20.428372536138834
    vertex 23.050499999999992 17.145 19.629069255679294
    vertex 23.050499999999992 0.0 19.629069255679294
  endloop
endfacet
facet normal -0.7933533402912358 -0.0 -0.6087614290087199
  outer loop
    vertex 24.707561356273565 17.145 18.357561356273564
    vertex 25.979069255679285 0.0 16.7005
    vertex 24.707561356273565 0.0 18.357561356273564
  endloop
endfacet
facet normal -0.7933533402912358 -0.0 -0.6087614290087199
  outer loop
    vertex 25.979069255679285 0.0 16.7005
    vertex 24.707561356273565 17.145 18.357561356273564
    vertex 25.979069255679285 17.145 16.7005
  endloop
endfacet
facet normal -0.9238795325112861 -0.0 -0.38268343236509117
  outer loop
    vertex 25.979069255679285 17.145 16.7005
    vertex 26.77837253613883 0.0 14.770811179865273
    vertex 25.979069255679285 0.0 16.7005
  endloop
endfacet
facet normal -0.9238795325112861 -0.0 -0.38268343236509117
  outer loop
    vertex 26.77837253613883 0.0 14.770811179865273
    vertex 25.979069255679285 17.145 16.7005
    vertex 26.77837253613883 17.145 14.770811179865273
  endloop
endfacet
endsolid MRM Tap Handle
