solid Untitled-5f6f7021
facet normal -0.7071067811865476 -0.7071067811865476 0.0
  outer loop
    vertex 6.35 60.86974387893084 76.19999999999999
    vertex 60.86974387893084 6.35 6.35
    vertex 60.86974387893084 6.35 76.19999999999999
  endloop
endfacet
facet normal -0.7071067811865476 -0.7071067811865476 0.0
  outer loop
    vertex 60.86974387893084 6.35 6.35
    vertex 6.35 60.86974387893084 76.19999999999999
    vertex 6.35 60.86974387893084 6.35
  endloop
endfacet
facet normal 0.7071067811865476 0.7071067811865476 0.0
  outer loop
    vertex 0.0 76.19999999999999 0.0
    vertex 76.19999999999999 0.0 76.19999999999999
    vertex 76.19999999999999 0.0 0.0
  endloop
endfacet
facet normal 0.7071067811865476 0.7071067811865476 0.0
  outer loop
    vertex 76.19999999999999 0.0 76.19999999999999
    vertex 0.0 76.19999999999999 0.0
    vertex 0.0 76.19999999999999 76.19999999999999
  endloop
endfacet
facet normal 0.0 0.0 -1.0
  outer loop
    vertex 60.86974387893084 6.35 0.0
    vertex 6.35 6.35 0.0
    vertex 6.35 60.86974387893084 0.0
  endloop
endfacet
facet normal -0.0 -1.0 -0.0
  outer loop
    vertex 76.19999999999999 0.0 76.19999999999999
    vertex 0.0 0.0 0.0
    vertex 76.19999999999999 0.0 0.0
  endloop
endfacet
facet normal -0.0 -1.0 -0.0
  outer loop
    vertex 0.0 0.0 0.0
    vertex 76.19999999999999 0.0 76.19999999999999
    vertex 0.0 0.0 76.19999999999999
  endloop
endfacet
facet normal -1.0 0.0 0.0
  outer loop
    vertex 0.0 76.19999999999999 76.19999999999999
    vertex 0.0 0.0 0.0
    vertex 0.0 0.0 76.19999999999999
  endloop
endfacet
facet normal -1.0 0.0 0.0
  outer loop
    vertex 0.0 0.0 0.0
    vertex 0.0 76.19999999999999 76.19999999999999
    vertex 0.0 76.19999999999999 0.0
  endloop
endfacet
facet normal -0.0 -0.0 1.0
  outer loop
    vertex 0.0 0.0 76.19999999999999
    vertex 6.35 6.35 76.19999999999999
    vertex 0.0 76.19999999999999 76.19999999999999
  endloop
endfacet
facet normal -0.0 -0.0 1.0
  outer loop
    vertex 6.35 6.35 76.19999999999999
    vertex 0.0 0.0 76.19999999999999
    vertex 76.19999999999999 0.0 76.19999999999999
  endloop
endfacet
facet normal -0.0 -0.0 1.0
  outer loop
    vertex 6.35 6.35 76.19999999999999
    vertex 76.19999999999999 0.0 76.19999999999999
    vertex 60.86974387893084 6.35 76.19999999999999
  endloop
endfacet
facet normal -0.0 -0.0 1.0
  outer loop
    vertex 0.0 76.19999999999999 76.19999999999999
    vertex 6.35 60.86974387893084 76.19999999999999
    vertex 76.19999999999999 0.0 76.19999999999999
  endloop
endfacet
facet normal -0.0 -0.0 1.0
  outer loop
    vertex 6.35 60.86974387893084 76.19999999999999
    vertex 0.0 76.19999999999999 76.19999999999999
    vertex 6.35 6.35 76.19999999999999
  endloop
endfacet
facet normal -0.0 -0.0 1.0
  outer loop
    vertex 76.19999999999999 0.0 76.19999999999999
    vertex 6.35 60.86974387893084 76.19999999999999
    vertex 60.86974387893084 6.35 76.19999999999999
  endloop
endfacet
facet normal 1.0 -0.0 -0.0
  outer loop
    vertex 6.35 60.86974387893084 6.35
    vertex 6.35 6.35 76.19999999999999
    vertex 6.35 6.35 6.35
  endloop
endfacet
facet normal 1.0 -0.0 -0.0
  outer loop
    vertex 6.35 6.35 76.19999999999999
    vertex 6.35 60.86974387893084 6.35
    vertex 6.35 60.86974387893084 76.19999999999999
  endloop
endfacet
facet normal -0.0 1.0 -0.0
  outer loop
    vertex 6.35 6.35 76.19999999999999
    vertex 60.86974387893084 6.35 6.35
    vertex 6.35 6.35 6.35
  endloop
endfacet
facet normal -0.0 1.0 -0.0
  outer loop
    vertex 60.86974387893084 6.35 6.35
    vertex 6.35 6.35 76.19999999999999
    vertex 60.86974387893084 6.35 76.19999999999999
  endloop
endfacet
facet normal -0.0 -0.0 1.0
  outer loop
    vertex 60.86974387893084 6.35 6.35
    vertex 6.35 60.86974387893084 6.35
    vertex 6.35 6.35 6.35
  endloop
endfacet
facet normal 0.0 0.0 -1.0
  outer loop
    vertex 0.0 76.19999999999999 0.0
    vertex 6.35 60.86974387893084 0.0
    vertex 0.0 0.0 0.0
  endloop
endfacet
facet normal 0.0 0.0 -1.0
  outer loop
    vertex 6.35 60.86974387893084 0.0
    vertex 0.0 76.19999999999999 0.0
    vertex 76.19999999999999 0.0 0.0
  endloop
endfacet
facet normal 0.0 0.0 -1.0
  outer loop
    vertex 6.35 60.86974387893084 0.0
    vertex 76.19999999999999 0.0 0.0
    vertex 60.86974387893084 6.35 0.0
  endloop
endfacet
facet normal 0.0 0.0 -1.0
  outer loop
    vertex 0.0 0.0 0.0
    vertex 6.35 6.35 0.0
    vertex 76.19999999999999 0.0 0.0
  endloop
endfacet
facet normal 0.0 0.0 -1.0
  outer loop
    vertex 6.35 6.35 0.0
    vertex 0.0 0.0 0.0
    vertex 6.35 60.86974387893084 0.0
  endloop
endfacet
facet normal 0.0 0.0 -1.0
  outer loop
    vertex 76.19999999999999 0.0 0.0
    vertex 6.35 6.35 0.0
    vertex 60.86974387893084 6.35 0.0
  endloop
endfacet
endsolid Untitled-5f6f7021
