solid Untitled-63cc1d63
facet normal 0.9238795325112865 -0.3468289747223935 0.1617290069831011
  outer loop
    vertex -14.298079416481086 14.026814899682629 50.69090545088811
    vertex -15.947435392032524 11.088896619530308 53.81249169030962
    vertex -15.94743539203252 10.417990129016953 52.37372807838898
  endloop
endfacet
facet normal 0.9238795325112865 -0.3468289747223935 0.1617290069831011
  outer loop
    vertex -15.947435392032524 11.088896619530308 53.81249169030962
    vertex -14.298079416481086 14.026814899682629 50.69090545088811
    vertex -14.298079416481086 14.697721390195982 52.12966906280878
  endloop
endfacet
facet normal -0.9238795325112862 -0.3468289747223971 0.16172900698309609
  outer loop
    vertex 15.947435392032514 11.088896619530317 53.81249169030966
    vertex 14.298079416481073 14.02681489968263 50.69090545088811
    vertex 15.947435392032514 10.417990129016955 52.37372807838898
  endloop
endfacet
facet normal -0.9238795325112862 -0.3468289747223971 0.16172900698309609
  outer loop
    vertex 14.298079416481073 14.02681489968263 50.69090545088811
    vertex 15.947435392032514 11.088896619530317 53.81249169030966
    vertex 14.298079416481073 14.697721390195984 52.129669062808844
  endloop
endfacet
facet normal -0.6087614290087204 -0.7190223101774872 0.3352856096200523
  outer loop
    vertex 11.674332957389895 17.125782985436153 49.245832900123325
    vertex 8.25499999999999 20.174611323033687 49.5757533442546
    vertex 8.25499999999999 19.50370483252032 48.13698973233387
  endloop
endfacet
facet normal -0.6087614290087204 -0.7190223101774872 0.3352856096200523
  outer loop
    vertex 8.25499999999999 20.174611323033687 49.5757533442546
    vertex 11.674332957389895 17.125782985436153 49.245832900123325
    vertex 11.674332957389884 17.796689475949513 50.68459651204403
  endloop
endfacet
facet normal -0.3826834323650905 -0.8373192145987608 0.39044836208772565
  outer loop
    vertex 8.25499999999999 19.50370483252032 48.13698973233387
    vertex 4.273102434642611 21.66943548727138 48.87870538887539
    vertex 4.273102434642611 20.998528996758026 47.439941776954726
  endloop
endfacet
facet normal -0.3826834323650905 -0.8373192145987608 0.39044836208772565
  outer loop
    vertex 4.273102434642611 21.66943548727138 48.87870538887539
    vertex 8.25499999999999 19.50370483252032 48.13698973233387
    vertex 8.25499999999999 20.174611323033687 49.5757533442546
  endloop
endfacet
facet normal -0.9914448613738107 -0.11829690442127386 0.055162752467670044
  outer loop
    vertex 16.509999999999987 7.216150608208451 55.618382813478284
    vertex 15.947435392032514 10.417990129016955 52.37372807838898
    vertex 16.509999999999987 6.545244117695095 54.17961920155762
  endloop
endfacet
facet normal -0.9914448613738107 -0.11829690442127386 0.055162752467670044
  outer loop
    vertex 15.947435392032514 10.417990129016955 52.37372807838898
    vertex 16.509999999999987 7.216150608208451 55.618382813478284
    vertex 15.947435392032514 11.088896619530317 53.81249169030966
  endloop
endfacet
facet normal -0.7933533402912349 -0.5517252235581663 0.2572736969424416
  outer loop
    vertex 14.298079416481073 14.697721390195984 52.129669062808844
    vertex 11.674332957389895 17.125782985436153 49.245832900123325
    vertex 14.298079416481073 14.02681489968263 50.69090545088811
  endloop
endfacet
facet normal -0.7933533402912349 -0.5517252235581663 0.2572736969424416
  outer loop
    vertex 11.674332957389895 17.125782985436153 49.245832900123325
    vertex 14.298079416481073 14.697721390195984 52.129669062808844
    vertex 11.674332957389884 17.796689475949513 50.68459651204403
  endloop
endfacet
facet normal -0.13052619222005193 -0.8985541982805562 0.4190027039255486
  outer loop
    vertex 4.273102434642611 20.998528996758026 47.439941776954726
    vertex -1.127986593019159e-14 22.179292172183526 48.640955312139326
    vertex -1.127986593019159e-14 21.508385681670156 47.20219170021863
  endloop
endfacet
facet normal -0.13052619222005193 -0.8985541982805562 0.4190027039255486
  outer loop
    vertex -1.127986593019159e-14 22.179292172183526 48.640955312139326
    vertex 4.273102434642611 20.998528996758026 47.439941776954726
    vertex 4.273102434642611 21.66943548727138 48.87870538887539
  endloop
endfacet
facet normal 0.13052619222005035 -0.8985541982805567 0.4190027039255479
  outer loop
    vertex -1.127986593019159e-14 22.179292172183526 48.640955312139326
    vertex -4.273102434642623 20.99852899675803 47.43994177695471
    vertex -1.127986593019159e-14 21.508385681670156 47.20219170021863
  endloop
endfacet
facet normal 0.13052619222005035 -0.8985541982805567 0.4190027039255479
  outer loop
    vertex -4.273102434642623 20.99852899675803 47.43994177695471
    vertex -1.127986593019159e-14 22.179292172183526 48.640955312139326
    vertex -4.273102434642623 21.66943548727137 48.87870538887537
  endloop
endfacet
facet normal 0.6087614290087197 -0.7190223101774851 0.3352856096200585
  outer loop
    vertex -8.255000000000004 20.174611323033677 49.57575334425456
    vertex -11.674332957389908 17.125782985436135 49.24583290012328
    vertex -8.255000000000004 19.50370483252032 48.13698973233387
  endloop
endfacet
facet normal 0.6087614290087197 -0.7190223101774851 0.3352856096200585
  outer loop
    vertex -11.674332957389908 17.125782985436135 49.24583290012328
    vertex -8.255000000000004 20.174611323033677 49.57575334425456
    vertex -11.67433295738991 17.796689475949513 50.68459651204401
  endloop
endfacet
facet normal 0.7933533402912354 -0.5517252235581624 0.25727369694244906
  outer loop
    vertex -11.674332957389908 17.125782985436135 49.24583290012328
    vertex -14.298079416481086 14.697721390195982 52.12966906280878
    vertex -14.298079416481086 14.026814899682629 50.69090545088811
  endloop
endfacet
facet normal 0.7933533402912354 -0.5517252235581624 0.25727369694244906
  outer loop
    vertex -14.298079416481086 14.697721390195982 52.12966906280878
    vertex -11.674332957389908 17.125782985436135 49.24583290012328
    vertex -11.67433295738991 17.796689475949513 50.68459651204401
  endloop
endfacet
facet normal 0.3826834323650911 -0.8373192145987596 0.3904483620877276
  outer loop
    vertex -4.273102434642623 21.66943548727137 48.87870538887537
    vertex -8.255000000000004 19.50370483252032 48.13698973233387
    vertex -4.273102434642623 20.99852899675803 47.43994177695471
  endloop
endfacet
facet normal 0.3826834323650911 -0.8373192145987596 0.3904483620877276
  outer loop
    vertex -8.255000000000004 19.50370483252032 48.13698973233387
    vertex -4.273102434642623 21.66943548727137 48.87870538887537
    vertex -8.255000000000004 20.174611323033677 49.57575334425456
  endloop
endfacet
facet normal 1.0658141036401475e-15 1.0 0.0
  outer loop
    vertex -18.097499999999993 17.732938385931085 4.808042852744174e-15
    vertex -3.175000000000025 17.732938385931003 3.1750000000000025
    vertex -3.175000000000025 17.732938385931003 2.8199664825478975e-15
  endloop
endfacet
facet normal 1.0658141036401475e-15 1.0 0.0
  outer loop
    vertex -3.175000000000025 17.732938385931003 3.1750000000000025
    vertex -18.097499999999993 17.732938385931085 4.808042852744174e-15
    vertex -18.097499999999993 17.732938385931085 3.1750000000000127
  endloop
endfacet
facet normal -1.0 1.0658141036401475e-15 1.3322676295501957e-16
  outer loop
    vertex -18.097499999999993 17.732938385931085 3.1750000000000127
    vertex -18.097499999999993 11.382938385931029 4.808042852744177e-15
    vertex -18.097499999999993 11.382938385931029 3.1750000000000127
  endloop
endfacet
facet normal -1.0 1.0658141036401475e-15 1.3322676295501957e-16
  outer loop
    vertex -18.097499999999993 11.382938385931029 4.808042852744177e-15
    vertex -18.097499999999993 17.732938385931085 3.1750000000000127
    vertex -18.097499999999993 12.97043838593109 4.808042852744174e-15
  endloop
endfacet
facet normal -1.0 1.0658141036401475e-15 1.3322676295501957e-16
  outer loop
    vertex -18.097499999999993 12.97043838593109 4.808042852744174e-15
    vertex -18.097499999999993 17.732938385931085 3.1750000000000127
    vertex -18.097499999999993 16.14543838593109 4.808042852744174e-15
  endloop
endfacet
facet normal -1.0 1.0658141036401475e-15 1.3322676295501957e-16
  outer loop
    vertex -18.097499999999993 16.14543838593109 4.808042852744174e-15
    vertex -18.097499999999993 17.732938385931085 3.1750000000000127
    vertex -18.097499999999993 17.732938385931085 4.808042852744174e-15
  endloop
endfacet
facet normal -1.0658141036401475e-15 -1.0 2.366582715663029e-31
  outer loop
    vertex -3.1750000000000336 11.382938385931006 3.1750000000000025
    vertex -18.097499999999993 11.382938385931029 4.808042852744177e-15
    vertex -3.1750000000000367 11.382938385931006 2.8199664825478994e-15
  endloop
endfacet
facet normal -1.0658141036401475e-15 -1.0 2.366582715663029e-31
  outer loop
    vertex -18.097499999999993 11.382938385931029 4.808042852744177e-15
    vertex -3.1750000000000336 11.382938385931006 3.1750000000000025
    vertex -18.097499999999993 11.382938385931029 3.1750000000000127
  endloop
endfacet
facet normal -7.549516567451027e-15 1.0 0.0
  outer loop
    vertex -3.175000000000025 16.145438385931012 39.03620644518456
    vertex 3.1750000000000025 16.145438385931058 3.175000000000001
    vertex -3.175000000000025 16.145438385931026 3.175000000000001
  endloop
endfacet
facet normal -7.549516567451027e-15 1.0 0.0
  outer loop
    vertex 3.1750000000000025 16.145438385931058 3.175000000000001
    vertex -3.175000000000025 16.145438385931012 39.03620644518456
    vertex 3.1750000000000025 16.145438385931072 39.03620644518456
  endloop
endfacet
facet normal 0.13052619222005107 -0.8985541982805565 0.41900270392554834
  outer loop
    vertex 1.6919798895287383e-14 3.637614318329826 27.509670102434036
    vertex -2.235161273505349 2.70001356186242 26.19526806911375
    vertex 1.6919798895287383e-14 2.9667078278164647 26.07090649051336
  endloop
endfacet
facet normal 0.13052619222005107 -0.8985541982805565 0.41900270392554834
  outer loop
    vertex -2.235161273505349 2.70001356186242 26.19526806911375
    vertex 1.6919798895287383e-14 3.637614318329826 27.509670102434036
    vertex -2.235161273505349 3.370920052375777 27.634031681034433
  endloop
endfacet
facet normal -0.1305261922200525 -0.8985541982805559 0.419002703925549
  outer loop
    vertex 2.235161273505386 2.700013561862417 26.19526806911376
    vertex 1.6919798895287383e-14 3.637614318329826 27.509670102434036
    vertex 1.6919798895287383e-14 2.9667078278164647 26.07090649051336
  endloop
endfacet
facet normal -0.1305261922200525 -0.8985541982805559 0.419002703925549
  outer loop
    vertex 1.6919798895287383e-14 3.637614318329826 27.509670102434036
    vertex 2.235161273505386 2.700013561862417 26.19526806911376
    vertex 2.235161273505386 3.370920052375777 27.63403168103444
  endloop
endfacet
facet normal -0.6087614290087211 0.7190223101774825 -0.3352856096200612
  outer loop
    vertex -12.796864972523544 18.143142491949728 48.77143037113927
    vertex -9.048750000000007 21.42061716099765 48.99473127990613
    vertex -9.048750000000004 20.74971067048428 47.55596766798544
  endloop
endfacet
facet normal -0.6087614290087211 0.7190223101774825 -0.3352856096200612
  outer loop
    vertex -9.048750000000007 21.42061716099765 48.99473127990613
    vertex -12.796864972523544 18.143142491949728 48.77143037113927
    vertex -12.796864972523544 18.814048982463067 50.21019398305992
  endloop
endfacet
facet normal -0.923879532511286 0.3468289747223958 -0.16172900698310017
  outer loop
    vertex -17.48084264126642 11.461276043695888 53.63884831308189
    vertex -15.672894744988877 14.74619670564298 50.35545220563146
    vertex -17.480842641266417 10.79036955318254 52.200084701161224
  endloop
endfacet
facet normal -0.923879532511286 0.3468289747223958 -0.16172900698310017
  outer loop
    vertex -15.672894744988877 14.74619670564298 50.35545220563146
    vertex -17.48084264126642 11.461276043695888 53.63884831308189
    vertex -15.672894744988877 15.417103196156328 51.7942158175521
  endloop
endfacet
facet normal 3.6297420887898465e-15 -0.422618261740698 -0.9063077870366507
  outer loop
    vertex 4.683977668742862 22.38826792743716 46.791895870742934
    vertex 3.1749999999999887 21.508385681670163 47.20219170021863
    vertex 3.1749999999999887 22.56831564769641 46.70793823995267
  endloop
endfacet
facet normal 3.6297420887898465e-15 -0.422618261740698 -0.9063077870366507
  outer loop
    vertex 3.1749999999999887 21.508385681670163 47.20219170021863
    vertex 4.683977668742862 22.38826792743716 46.791895870742934
    vertex 4.273102434642611 20.998528996758026 47.439941776954726
  endloop
endfacet
facet normal 3.6297420887898465e-15 -0.422618261740698 -0.9063077870366507
  outer loop
    vertex 4.273102434642611 20.998528996758026 47.439941776954726
    vertex 4.683977668742862 22.38826792743716 46.791895870742934
    vertex 8.25499999999999 19.50370483252032 48.13698973233387
  endloop
endfacet
facet normal 3.6297420887898465e-15 -0.422618261740698 -0.9063077870366507
  outer loop
    vertex 8.25499999999999 19.50370483252032 48.13698973233387
    vertex 4.683977668742862 22.38826792743716 46.791895870742934
    vertex 9.04874999999999 20.749710670484287 47.555967667985456
  endloop
endfacet
facet normal 3.6297420887898465e-15 -0.422618261740698 -0.9063077870366507
  outer loop
    vertex 8.25499999999999 19.50370483252032 48.13698973233387
    vertex 9.04874999999999 20.749710670484287 47.555967667985456
    vertex 11.674332957389895 17.125782985436153 49.245832900123325
  endloop
endfacet
facet normal 3.6297420887898465e-15 -0.422618261740698 -0.9063077870366507
  outer loop
    vertex 11.674332957389895 17.125782985436153 49.245832900123325
    vertex 9.04874999999999 20.749710670484287 47.555967667985456
    vertex 12.796864972523544 18.143142491949725 48.7714303711393
  endloop
endfacet
facet normal 3.6297420887898465e-15 -0.422618261740698 -0.9063077870366507
  outer loop
    vertex 11.674332957389895 17.125782985436153 49.245832900123325
    vertex 12.796864972523544 18.143142491949725 48.7714303711393
    vertex 14.298079416481073 14.02681489968263 50.69090545088811
  endloop
endfacet
facet normal 3.6297420887898465e-15 -0.422618261740698 -0.9063077870366507
  outer loop
    vertex 14.298079416481073 14.02681489968263 50.69090545088811
    vertex 12.796864972523544 18.143142491949725 48.7714303711393
    vertex 15.672894744988874 14.746196705642971 50.3554522056315
  endloop
endfacet
facet normal 3.6297420887898465e-15 -0.422618261740698 -0.9063077870366507
  outer loop
    vertex 14.298079416481073 14.02681489968263 50.69090545088811
    vertex 15.672894744988874 14.746196705642971 50.3554522056315
    vertex 15.947435392032514 10.417990129016955 52.37372807838898
  endloop
endfacet
facet normal 3.6297420887898465e-15 -0.422618261740698 -0.9063077870366507
  outer loop
    vertex 15.947435392032514 10.417990129016955 52.37372807838898
    vertex 15.672894744988874 14.746196705642971 50.3554522056315
    vertex 17.480842641266406 10.790369553182526 52.20008470116127
  endloop
endfacet
facet normal 3.6297420887898465e-15 -0.422618261740698 -0.9063077870366507
  outer loop
    vertex 15.947435392032514 10.417990129016955 52.37372807838898
    vertex 17.480842641266406 10.790369553182526 52.20008470116127
    vertex 16.509999999999987 6.545244117695095 54.17961920155762
  endloop
endfacet
facet normal 3.6297420887898465e-15 -0.422618261740698 -0.9063077870366507
  outer loop
    vertex 16.509999999999987 6.545244117695095 54.17961920155762
    vertex 17.480842641266406 10.790369553182526 52.20008470116127
    vertex 18.0975 6.545244117695092 54.17961920155764
  endloop
endfacet
facet normal 3.6297420887898465e-15 -0.422618261740698 -0.9063077870366507
  outer loop
    vertex 4.273102434642611 20.998528996758026 47.439941776954726
    vertex -1.127986593019159e-14 21.508385681670156 47.20219170021863
    vertex 3.1749999999999887 21.508385681670163 47.20219170021863
  endloop
endfacet
facet normal -0.13052619222003542 0.8985541982805619 -0.4190027039255417
  outer loop
    vertex -4.683977668742881 22.388267927437152 46.79189587074292
    vertex -3.175000000000011 23.239222138209712 48.14670185187332
    vertex -3.175000000000011 22.56831564769641 46.707938239952654
  endloop
endfacet
facet normal -0.13052619222003542 0.8985541982805619 -0.4190027039255417
  outer loop
    vertex -3.175000000000011 23.239222138209712 48.14670185187332
    vertex -4.683977668742881 22.388267927437152 46.79189587074292
    vertex -4.683977668742881 23.0591744179505 48.23065948266354
  endloop
endfacet
facet normal -0.3826834323650897 0.8373192145987558 -0.39044836208773676
  outer loop
    vertex -9.048750000000004 20.74971067048428 47.55596766798544
    vertex -4.683977668742881 23.0591744179505 48.23065948266354
    vertex -4.683977668742881 22.388267927437152 46.79189587074292
  endloop
endfacet
facet normal -0.3826834323650897 0.8373192145987558 -0.39044836208773676
  outer loop
    vertex -4.683977668742881 23.0591744179505 48.23065948266354
    vertex -9.048750000000004 20.74971067048428 47.55596766798544
    vertex -9.048750000000007 21.42061716099765 48.99473127990613
  endloop
endfacet
facet normal -0.7933533402912348 0.5517252235581629 -0.2572736969424496
  outer loop
    vertex -15.672894744988877 15.417103196156328 51.7942158175521
    vertex -12.796864972523544 18.143142491949728 48.77143037113927
    vertex -15.672894744988877 14.74619670564298 50.35545220563146
  endloop
endfacet
facet normal -0.7933533402912348 0.5517252235581629 -0.2572736969424496
  outer loop
    vertex -12.796864972523544 18.143142491949728 48.77143037113927
    vertex -15.672894744988877 15.417103196156328 51.7942158175521
    vertex -12.796864972523544 18.814048982463067 50.21019398305992
  endloop
endfacet
facet normal -0.9914448613738103 0.11829690442127569 -0.05516275246767271
  outer loop
    vertex -18.09750000000001 7.216150608208454 55.618382813478235
    vertex -17.480842641266417 10.79036955318254 52.200084701161224
    vertex -18.097500000000007 6.545244117695109 54.1796192015576
  endloop
endfacet
facet normal -0.9914448613738103 0.11829690442127569 -0.05516275246767271
  outer loop
    vertex -17.480842641266417 10.79036955318254 52.200084701161224
    vertex -18.09750000000001 7.216150608208454 55.618382813478235
    vertex -17.48084264126642 11.461276043695888 53.63884831308189
  endloop
endfacet
facet normal 0.9238795325112867 0.3468289747223934 -0.1617290069830998
  outer loop
    vertex 15.672894744988874 14.746196705642971 50.3554522056315
    vertex 17.480842641266406 11.461276043695879 53.63884831308194
    vertex 17.480842641266406 10.790369553182526 52.20008470116127
  endloop
endfacet
facet normal 0.9238795325112867 0.3468289747223934 -0.1617290069830998
  outer loop
    vertex 17.480842641266406 11.461276043695879 53.63884831308194
    vertex 15.672894744988874 14.746196705642971 50.3554522056315
    vertex 15.672894744988874 15.417103196156328 51.79421581755215
  endloop
endfacet
facet normal 0.9914448613738103 0.11829690442127674 -0.05516275246767162
  outer loop
    vertex 17.480842641266406 10.790369553182526 52.20008470116127
    vertex 18.0975 7.21615060820844 55.618382813478284
    vertex 18.0975 6.545244117695092 54.17961920155764
  endloop
endfacet
facet normal 0.9914448613738103 0.11829690442127674 -0.05516275246767162
  outer loop
    vertex 18.0975 7.21615060820844 55.618382813478284
    vertex 17.480842641266406 10.790369553182526 52.20008470116127
    vertex 17.480842641266406 11.461276043695879 53.63884831308194
  endloop
endfacet
facet normal 0.7933533402912357 0.5517252235581609 -0.2572736969424508
  outer loop
    vertex 12.796864972523544 18.143142491949725 48.7714303711393
    vertex 15.672894744988874 15.417103196156328 51.79421581755215
    vertex 15.672894744988874 14.746196705642971 50.3554522056315
  endloop
endfacet
facet normal 0.7933533402912357 0.5517252235581609 -0.2572736969424508
  outer loop
    vertex 15.672894744988874 15.417103196156328 51.79421581755215
    vertex 12.796864972523544 18.143142491949725 48.7714303711393
    vertex 12.796864972523544 18.814048982463074 50.210193983059966
  endloop
endfacet
facet normal 0.6087614290087205 0.7190223101774851 -0.33528560962005677
  outer loop
    vertex 9.04874999999999 21.420617160997644 48.99473127990615
    vertex 12.796864972523544 18.143142491949725 48.7714303711393
    vertex 9.04874999999999 20.749710670484287 47.555967667985456
  endloop
endfacet
facet normal 0.6087614290087205 0.7190223101774851 -0.33528560962005677
  outer loop
    vertex 12.796864972523544 18.143142491949725 48.7714303711393
    vertex 9.04874999999999 21.420617160997644 48.99473127990615
    vertex 12.796864972523544 18.814048982463074 50.210193983059966
  endloop
endfacet
facet normal 0.13052619222004344 0.8985541982805594 -0.4190027039255447
  outer loop
    vertex 3.1749999999999887 23.230559393604242 48.12812453611624
    vertex 4.683977668742862 22.38826792743716 46.791895870742934
    vertex 3.1749999999999887 22.56831564769641 46.70793823995267
  endloop
endfacet
facet normal 0.13052619222004344 0.8985541982805594 -0.4190027039255447
  outer loop
    vertex 4.683977668742862 22.38826792743716 46.791895870742934
    vertex 3.1749999999999887 23.230559393604242 48.12812453611624
    vertex 4.683977668742862 23.059174417950505 48.230659482663576
  endloop
endfacet
facet normal 0.3826834323650894 0.8373192145987594 -0.3904483620877294
  outer loop
    vertex 4.683977668742862 23.059174417950505 48.230659482663576
    vertex 9.04874999999999 20.749710670484287 47.555967667985456
    vertex 4.683977668742862 22.38826792743716 46.791895870742934
  endloop
endfacet
facet normal 0.3826834323650894 0.8373192145987594 -0.3904483620877294
  outer loop
    vertex 9.04874999999999 20.749710670484287 47.555967667985456
    vertex 4.683977668742862 23.059174417950505 48.230659482663576
    vertex 9.04874999999999 21.420617160997644 48.99473127990615
  endloop
endfacet
facet normal -0.7933533402912339 -0.5517252235581638 0.2572736969424506
  outer loop
    vertex 7.478995387082422 -0.2758227060944238 29.33453575663038
    vertex 6.106574162327034 0.6742694944017492 27.139888041232727
    vertex 7.478995387082422 -0.9467291966077839 27.8957721447097
  endloop
endfacet
facet normal -0.7933533402912339 -0.5517252235581638 0.2572736969424506
  outer loop
    vertex 6.106574162327034 0.6742694944017492 27.139888041232727
    vertex 7.478995387082422 -0.2758227060944238 29.33453575663038
    vertex 6.106574162327034 1.3451759849151106 28.578651653153408
  endloop
endfacet
facet normal -0.608761429008721 -0.7190223101774835 0.3352856096200592
  outer loop
    vertex 6.106574162327034 0.6742694944017492 27.139888041232727
    vertex 4.318000000000009 2.589012028005292 27.99864138077124
    vertex 4.318000000000015 1.9181055374919336 26.559877768850566
  endloop
endfacet
facet normal -0.608761429008721 -0.7190223101774835 0.3352856096200592
  outer loop
    vertex 4.318000000000009 2.589012028005292 27.99864138077124
    vertex 6.106574162327034 0.6742694944017492 27.139888041232727
    vertex 6.106574162327034 1.3451759849151106 28.578651653153408
  endloop
endfacet
facet normal 0.9914448613738105 -0.11829690442127565 0.055162752467670925
  outer loop
    vertex -8.34173543583238 -2.834422153571366 28.776017826787054
    vertex -8.635999999999987 -4.189259730518681 31.1594014108267
    vertex -8.635999999999987 -4.86016622103204 29.720637798906022
  endloop
endfacet
facet normal 0.9914448613738105 -0.11829690442127565 0.055162752467670925
  outer loop
    vertex -8.635999999999987 -4.189259730518681 31.1594014108267
    vertex -8.34173543583238 -2.834422153571366 28.776017826787054
    vertex -8.34173543583238 -2.163515663058006 30.214781438707732
  endloop
endfacet
facet normal -0.9914448613738103 -0.11829690442127717 0.05516275246767146
  outer loop
    vertex 8.636000000000015 -4.189259730518675 31.15940141082672
    vertex 8.341735435832405 -2.8344221535713645 28.77601782678708
    vertex 8.636000000000015 -4.860166221032034 29.720637798906036
  endloop
endfacet
facet normal -0.9914448613738103 -0.11829690442127717 0.05516275246767146
  outer loop
    vertex 8.341735435832405 -2.8344221535713645 28.77601782678708
    vertex 8.636000000000015 -4.189259730518675 31.15940141082672
    vertex 8.341735435832405 -2.163515663058004 30.214781438707753
  endloop
endfacet
facet normal 0.38268343236508656 -0.8373192145987601 0.39044836208773076
  outer loop
    vertex -2.235161273505349 3.370920052375777 27.634031681034433
    vertex -4.317999999999986 1.9181055374919336 26.55987776885055
    vertex -2.235161273505349 2.70001356186242 26.19526806911375
  endloop
endfacet
facet normal 0.38268343236508656 -0.8373192145987601 0.39044836208773076
  outer loop
    vertex -4.317999999999986 1.9181055374919336 26.55987776885055
    vertex -2.235161273505349 3.370920052375777 27.634031681034433
    vertex -4.317999999999986 2.5890120280052935 27.99864138077123
  endloop
endfacet
facet normal 1.0002442282937198e-15 -0.4226182617406991 -0.90630778703665
  outer loop
    vertex 3.1750000000000083 4.4054714397371475 25.39999999999999
    vertex -3.1749999999999856 3.891176964805764 25.639819452207302
    vertex -3.1749999999999856 4.405471439737137 25.4
  endloop
endfacet
facet normal 1.0002442282937198e-15 -0.4226182617406991 -0.90630778703665
  outer loop
    vertex -3.1749999999999856 3.891176964805764 25.639819452207302
    vertex 3.1750000000000083 4.4054714397371475 25.39999999999999
    vertex -2.235161273505349 2.70001356186242 26.19526806911375
  endloop
endfacet
facet normal 1.0002442282937198e-15 -0.4226182617406991 -0.90630778703665
  outer loop
    vertex -2.235161273505349 2.70001356186242 26.19526806911375
    vertex 3.1750000000000083 4.4054714397371475 25.39999999999999
    vertex 1.6919798895287383e-14 2.9667078278164647 26.07090649051336
  endloop
endfacet
facet normal 1.0002442282937198e-15 -0.4226182617406991 -0.90630778703665
  outer loop
    vertex 1.6919798895287383e-14 2.9667078278164647 26.07090649051336
    vertex 3.1750000000000083 4.4054714397371475 25.39999999999999
    vertex 2.235161273505386 2.700013561862417 26.19526806911376
  endloop
endfacet
facet normal 1.0002442282937198e-15 -0.4226182617406991 -0.90630778703665
  outer loop
    vertex 2.235161273505386 2.700013561862417 26.19526806911376
    vertex 3.1750000000000083 4.4054714397371475 25.39999999999999
    vertex 3.1750000000000083 3.8911769648057652 25.63981945220731
  endloop
endfacet
facet normal 1.0002442282937198e-15 -0.4226182617406991 -0.90630778703665
  outer loop
    vertex 2.235161273505386 2.700013561862417 26.19526806911376
    vertex 3.1750000000000083 3.8911769648057652 25.63981945220731
    vertex 4.318000000000015 1.9181055374919336 26.559877768850566
  endloop
endfacet
facet normal 1.0002442282937198e-15 -0.4226182617406991 -0.90630778703665
  outer loop
    vertex 4.318000000000015 1.9181055374919336 26.559877768850566
    vertex 3.1750000000000083 3.8911769648057652 25.63981945220731
    vertex 5.11175000000001 3.164111375455903 25.978855704502127
  endloop
endfacet
facet normal 1.0002442282937198e-15 -0.4226182617406991 -0.90630778703665
  outer loop
    vertex 4.318000000000015 1.9181055374919336 26.559877768850566
    vertex 5.11175000000001 3.164111375455903 25.978855704502127
    vertex 6.106574162327034 0.6742694944017492 27.139888041232727
  endloop
endfacet
facet normal 1.0002442282937198e-15 -0.4226182617406991 -0.90630778703665
  outer loop
    vertex 6.106574162327034 0.6742694944017492 27.139888041232727
    vertex 5.11175000000001 3.164111375455903 25.978855704502127
    vertex 7.229106177460681 1.6916290009153157 26.665485512248665
  endloop
endfacet
facet normal 1.0002442282937198e-15 -0.4226182617406991 -0.90630778703665
  outer loop
    vertex 6.106574162327034 0.6742694944017492 27.139888041232727
    vertex 7.229106177460681 1.6916290009153157 26.665485512248665
    vertex 7.478995387082422 -0.9467291966077839 27.8957721447097
  endloop
endfacet
facet normal 1.0002442282937198e-15 -0.4226182617406991 -0.90630778703665
  outer loop
    vertex 7.478995387082422 -0.9467291966077839 27.8957721447097
    vertex 7.229106177460681 1.6916290009153157 26.665485512248665
    vertex 8.853810715590223 -0.22734739064744292 27.560318899453023
  endloop
endfacet
facet normal 1.0002442282937198e-15 -0.4226182617406991 -0.90630778703665
  outer loop
    vertex 7.478995387082422 -0.9467291966077839 27.8957721447097
    vertex 8.853810715590223 -0.22734739064744292 27.560318899453023
    vertex 8.341735435832405 -2.8344221535713645 28.77601782678708
  endloop
endfacet
facet normal 1.0002442282937198e-15 -0.4226182617406991 -0.90630778703665
  outer loop
    vertex 8.341735435832405 -2.8344221535713645 28.77601782678708
    vertex 8.853810715590223 -0.22734739064744292 27.560318899453023
    vertex 8.636000000000015 -4.860166221032034 29.720637798906036
  endloop
endfacet
facet normal 1.0002442282937198e-15 -0.4226182617406991 -0.90630778703665
  outer loop
    vertex 8.636000000000015 -4.860166221032034 29.720637798906036
    vertex 8.853810715590223 -0.22734739064744292 27.560318899453023
    vertex 10.223500000000016 -4.860166221032036 29.72063779890604
  endloop
endfacet
facet normal 1.0002442282937198e-15 -0.4226182617406991 -0.90630778703665
  outer loop
    vertex 10.223500000000016 -4.860166221032036 29.72063779890604
    vertex 8.853810715590223 -0.22734739064744292 27.560318899453023
    vertex 9.875142685066297 -2.4620427294058023 28.602374449559324
  endloop
endfacet
facet normal 1.0002442282937198e-15 -0.4226182617406991 -0.90630778703665
  outer loop
    vertex -9.875142685066278 -2.46204272940581 28.602374449559306
    vertex -8.635999999999987 -4.86016622103204 29.720637798906022
    vertex -10.223499999999987 -4.860166221032041 29.72063779890602
  endloop
endfacet
facet normal 1.0002442282937198e-15 -0.4226182617406991 -0.90630778703665
  outer loop
    vertex -8.635999999999987 -4.86016622103204 29.720637798906022
    vertex -9.875142685066278 -2.46204272940581 28.602374449559306
    vertex -8.853810715590196 -0.22734739064745207 27.560318899453005
  endloop
endfacet
facet normal 1.0002442282937198e-15 -0.4226182617406991 -0.90630778703665
  outer loop
    vertex -8.635999999999987 -4.86016622103204 29.720637798906022
    vertex -8.853810715590196 -0.22734739064745207 27.560318899453005
    vertex -8.34173543583238 -2.834422153571366 28.776017826787054
  endloop
endfacet
facet normal 1.0002442282937198e-15 -0.4226182617406991 -0.90630778703665
  outer loop
    vertex -8.34173543583238 -2.834422153571366 28.776017826787054
    vertex -8.853810715590196 -0.22734739064745207 27.560318899453005
    vertex -7.229106177460658 1.6916290009153072 26.665485512248654
  endloop
endfacet
facet normal 1.0002442282937198e-15 -0.4226182617406991 -0.90630778703665
  outer loop
    vertex -8.34173543583238 -2.834422153571366 28.776017826787054
    vertex -7.229106177460658 1.6916290009153072 26.665485512248654
    vertex -7.478995387082397 -0.9467291966077866 27.89577214470969
  endloop
endfacet
facet normal 1.0002442282937198e-15 -0.4226182617406991 -0.90630778703665
  outer loop
    vertex -7.478995387082397 -0.9467291966077866 27.89577214470969
    vertex -7.229106177460658 1.6916290009153072 26.665485512248654
    vertex -6.106574162327008 0.6742694944017492 27.13988804123271
  endloop
endfacet
facet normal 1.0002442282937198e-15 -0.4226182617406991 -0.90630778703665
  outer loop
    vertex -6.106574162327008 0.6742694944017492 27.13988804123271
    vertex -7.229106177460658 1.6916290009153072 26.665485512248654
    vertex -5.111749999999993 3.164111375455897 25.978855704502116
  endloop
endfacet
facet normal 1.0002442282937198e-15 -0.4226182617406991 -0.90630778703665
  outer loop
    vertex -6.106574162327008 0.6742694944017492 27.13988804123271
    vertex -5.111749999999993 3.164111375455897 25.978855704502116
    vertex -4.317999999999986 1.9181055374919336 26.55987776885055
  endloop
endfacet
facet normal 1.0002442282937198e-15 -0.4226182617406991 -0.90630778703665
  outer loop
    vertex -4.317999999999986 1.9181055374919336 26.55987776885055
    vertex -5.111749999999993 3.164111375455897 25.978855704502116
    vertex -3.1749999999999856 3.891176964805764 25.639819452207302
  endloop
endfacet
facet normal 1.0002442282937198e-15 -0.4226182617406991 -0.90630778703665
  outer loop
    vertex -4.317999999999986 1.9181055374919336 26.55987776885055
    vertex -3.1749999999999856 3.891176964805764 25.639819452207302
    vertex -2.235161273505349 2.70001356186242 26.19526806911375
  endloop
endfacet
facet normal 0.6087614290087208 -0.7190223101774831 0.3352856096200603
  outer loop
    vertex -4.317999999999986 2.5890120280052935 27.99864138077123
    vertex -6.106574162327008 0.6742694944017492 27.13988804123271
    vertex -4.317999999999986 1.9181055374919336 26.55987776885055
  endloop
endfacet
facet normal 0.6087614290087208 -0.7190223101774831 0.3352856096200603
  outer loop
    vertex -6.106574162327008 0.6742694944017492 27.13988804123271
    vertex -4.317999999999986 2.5890120280052935 27.99864138077123
    vertex -6.106574162327011 1.3451759849151086 28.57865165315339
  endloop
endfacet
facet normal -0.9238795325112873 -0.34682897472239255 0.16172900698309847
  outer loop
    vertex 8.341735435832405 -2.163515663058004 30.214781438707753
    vertex 7.478995387082422 -0.9467291966077839 27.8957721447097
    vertex 8.341735435832405 -2.8344221535713645 28.77601782678708
  endloop
endfacet
facet normal -0.9238795325112873 -0.34682897472239255 0.16172900698309847
  outer loop
    vertex 7.478995387082422 -0.9467291966077839 27.8957721447097
    vertex 8.341735435832405 -2.163515663058004 30.214781438707753
    vertex 7.478995387082422 -0.2758227060944238 29.33453575663038
  endloop
endfacet
facet normal -0.38268343236508917 -0.8373192145987592 0.39044836208773026
  outer loop
    vertex 4.318000000000015 1.9181055374919336 26.559877768850566
    vertex 2.235161273505386 3.370920052375777 27.63403168103444
    vertex 2.235161273505386 2.700013561862417 26.19526806911376
  endloop
endfacet
facet normal -0.38268343236508917 -0.8373192145987592 0.39044836208773026
  outer loop
    vertex 2.235161273505386 3.370920052375777 27.63403168103444
    vertex 4.318000000000015 1.9181055374919336 26.559877768850566
    vertex 4.318000000000009 2.589012028005292 27.99864138077124
  endloop
endfacet
facet normal 0.7933533402912352 -0.5517252235581619 0.2572736969424509
  outer loop
    vertex -6.106574162327008 0.6742694944017492 27.13988804123271
    vertex -7.478995387082397 -0.2758227060944252 29.334535756630363
    vertex -7.478995387082397 -0.9467291966077866 27.89577214470969
  endloop
endfacet
facet normal 0.7933533402912352 -0.5517252235581619 0.2572736969424509
  outer loop
    vertex -7.478995387082397 -0.2758227060944252 29.334535756630363
    vertex -6.106574162327008 0.6742694944017492 27.13988804123271
    vertex -6.106574162327011 1.3451759849151086 28.57865165315339
  endloop
endfacet
facet normal 0.9238795325112864 -0.3468289747223949 0.16172900698309994
  outer loop
    vertex -7.478995387082397 -0.9467291966077866 27.89577214470969
    vertex -8.34173543583238 -2.163515663058006 30.214781438707732
    vertex -8.34173543583238 -2.834422153571366 28.776017826787054
  endloop
endfacet
facet normal 0.9238795325112864 -0.3468289747223949 0.16172900698309994
  outer loop
    vertex -8.34173543583238 -2.163515663058006 30.214781438707732
    vertex -7.478995387082397 -0.9467291966077866 27.89577214470969
    vertex -7.478995387082397 -0.2758227060944252 29.334535756630363
  endloop
endfacet
facet normal 1.0 1.6942773181241693e-15 1.8378289148898055e-18
  outer loop
    vertex 3.1750000000000083 12.97043838593094 3.175000000000002
    vertex 3.1750000000000025 16.145438385931072 39.03620644518456
    vertex 3.1750000000000083 12.970438385930917 35.53754626976391
  endloop
endfacet
facet normal 1.0 1.6942773181241693e-15 1.8378289148898055e-18
  outer loop
    vertex 3.1750000000000025 16.145438385931072 39.03620644518456
    vertex 3.1750000000000083 12.97043838593094 3.175000000000002
    vertex 3.1750000000000025 16.145438385931058 3.175000000000001
  endloop
endfacet
facet normal -2.664535259100473e-16 1.0 0.0
  outer loop
    vertex 3.175 17.732938385930996 2.8199664825478975e-15
    vertex 18.09749999999999 17.732938385931 3.1750000000000007
    vertex 18.09749999999999 17.732938385931 1.8259282974497574e-15
  endloop
endfacet
facet normal -2.664535259100473e-16 1.0 0.0
  outer loop
    vertex 18.09749999999999 17.732938385931 3.1750000000000007
    vertex 3.175 17.732938385930996 2.8199664825478975e-15
    vertex 3.175 17.732938385930996 3.175000000000001
  endloop
endfacet
facet normal 2.664535259100473e-16 -1.0 -2.958228394578902e-32
  outer loop
    vertex 18.09749999999999 11.382938385930997 3.175000000000001
    vertex 3.175 11.382938385930997 1.7118698223876932e-15
    vertex 18.09749999999999 11.382938385930997 7.178316372895552e-16
  endloop
endfacet
facet normal 2.664535259100473e-16 -1.0 -2.958228394578902e-32
  outer loop
    vertex 3.175 11.382938385930997 1.7118698223876932e-15
    vertex 18.09749999999999 11.382938385930997 3.175000000000001
    vertex 3.175 11.382938385930997 3.175000000000002
  endloop
endfacet
facet normal -5.494800851855055e-16 -0.9063077870366496 0.4226182617407001
  outer loop
    vertex -8.635999999999987 -4.86016622103204 29.720637798906022
    vertex -10.223499999999987 -4.189259730518681 31.1594014108267
    vertex -10.223499999999987 -4.860166221032041 29.72063779890602
  endloop
endfacet
facet normal -5.494800851855055e-16 -0.9063077870366496 0.4226182617407001
  outer loop
    vertex -10.223499999999987 -4.189259730518681 31.1594014108267
    vertex -8.635999999999987 -4.86016622103204 29.720637798906022
    vertex -8.635999999999987 -4.189259730518681 31.1594014108267
  endloop
endfacet
facet normal -6.661338147750962e-17 -3.1879829420314155e-17 -1.0
  outer loop
    vertex 3.1750000000000083 12.970438385930915 1.6612605931829465e-15
    vertex 18.09749999999999 11.382938385930997 7.178316372895552e-16
    vertex 3.175 11.382938385930997 1.7118698223876932e-15
  endloop
endfacet
facet normal -6.661338147750962e-17 -3.1879829420314155e-17 -1.0
  outer loop
    vertex 18.09749999999999 11.382938385930997 7.178316372895552e-16
    vertex 3.1750000000000083 12.970438385930915 1.6612605931829465e-15
    vertex 18.0975 12.970438385930917 6.672224080848082e-16
  endloop
endfacet
facet normal -1.756924612263697e-15 -0.9063077870366504 0.42261826174069833
  outer loop
    vertex 10.223500000000016 -4.860166221032036 29.72063779890604
    vertex 8.636000000000015 -4.189259730518675 31.15940141082672
    vertex 8.636000000000015 -4.860166221032034 29.720637798906036
  endloop
endfacet
facet normal -1.756924612263697e-15 -0.9063077870366504 0.42261826174069833
  outer loop
    vertex 8.636000000000015 -4.189259730518675 31.15940141082672
    vertex 10.223500000000016 -4.860166221032036 29.72063779890604
    vertex 10.223500000000016 -4.189259730518677 31.15940141082672
  endloop
endfacet
facet normal -6.661338147750974e-17 3.6494673680784037e-16 -1.0
  outer loop
    vertex 18.097499999999993 16.145438385931076 1.8259282974497574e-15
    vertex 3.1750000000000083 12.970438385930915 1.6612605931829465e-15
    vertex 3.1750000000000025 16.145438385931072 2.8199664825478975e-15
  endloop
endfacet
facet normal -6.661338147750974e-17 3.6494673680784037e-16 -1.0
  outer loop
    vertex 3.1750000000000083 12.970438385930915 1.6612605931829465e-15
    vertex 18.097499999999993 16.145438385931076 1.8259282974497574e-15
    vertex 18.0975 12.970438385930917 6.672224080848082e-16
  endloop
endfacet
facet normal -6.661338147750964e-17 -1.7749370367473681e-31 -1.0
  outer loop
    vertex 18.09749999999999 17.732938385931 1.8259282974497574e-15
    vertex 3.1750000000000025 16.145438385931072 2.8199664825478975e-15
    vertex 3.175 17.732938385930996 2.8199664825478975e-15
  endloop
endfacet
facet normal -6.661338147750964e-17 -1.7749370367473681e-31 -1.0
  outer loop
    vertex 3.1750000000000025 16.145438385931072 2.8199664825478975e-15
    vertex 18.09749999999999 17.732938385931 1.8259282974497574e-15
    vertex 18.097499999999993 16.145438385931076 1.8259282974497574e-15
  endloop
endfacet
facet normal 3.811935213155661e-15 0.9063077870366509 -0.42261826174069733
  outer loop
    vertex -1.4099832412739488e-14 23.618055784104218 47.970048821625966
    vertex 3.1749999999999887 22.947149293590858 46.53128520970531
    vertex -1.4099832412739488e-14 22.947149293590854 46.53128520970531
  endloop
endfacet
facet normal 3.811935213155661e-15 0.9063077870366509 -0.42261826174069733
  outer loop
    vertex 3.1749999999999887 22.947149293590858 46.53128520970531
    vertex -1.4099832412739488e-14 23.618055784104218 47.970048821625966
    vertex 3.1749999999999887 23.60939303949869 47.95147150586888
  endloop
endfacet
facet normal 0.006455865461363111 0.422609454664943 0.9062889002017758
  outer loop
    vertex 3.1749999999999887 23.60939303949869 47.95147150586888
    vertex -1.4099832412739488e-14 23.618055784104218 47.970048821625966
    vertex 3.1749999999999887 23.230559393604242 48.12812453611624
  endloop
endfacet
facet normal -1.0 -1.151549999412281e-14 2.0564509729714868e-29
  outer loop
    vertex -3.1750000000000873 23.059174417950466 3.175000000000001
    vertex -3.175000000000025 17.732938385931003 2.8199664825478975e-15
    vertex -3.175000000000025 17.732938385931003 3.1750000000000025
  endloop
endfacet
facet normal -1.0 -1.151549999412281e-14 2.0564509729714868e-29
  outer loop
    vertex -3.175000000000025 17.732938385931003 2.8199664825478975e-15
    vertex -3.1750000000000873 23.059174417950466 3.175000000000001
    vertex -3.1750000000000873 23.059174417950455 2.8199664825478975e-15
  endloop
endfacet
facet normal -1.0402716981690438e-14 0.9063077870366538 -0.42261826174069117
  outer loop
    vertex -3.175000000000011 23.618055784104154 47.97004882162597
    vertex -1.4099832412739488e-14 22.947149293590854 46.53128520970531
    vertex -3.175000000000011 22.947149293590847 46.53128520970531
  endloop
endfacet
facet normal -1.0402716981690438e-14 0.9063077870366538 -0.42261826174069117
  outer loop
    vertex -1.4099832412739488e-14 22.947149293590854 46.53128520970531
    vertex -3.175000000000011 23.618055784104154 47.97004882162597
    vertex -1.4099832412739488e-14 23.618055784104218 47.970048821625966
  endloop
endfacet
facet normal -5.047103788900236e-15 0.4226182617406742 0.9063077870366617
  outer loop
    vertex -1.4099832412739488e-14 23.618055784104218 47.970048821625966
    vertex -3.175000000000011 23.618055784104154 47.97004882162597
    vertex -3.175000000000011 23.239222138209712 48.14670185187332
  endloop
endfacet
facet normal -7.430179958080763e-15 -0.9063077870366489 0.4226182617407017
  outer loop
    vertex 18.0975 6.545244117695092 54.17961920155764
    vertex 16.509999999999987 7.216150608208451 55.618382813478284
    vertex 16.509999999999987 6.545244117695095 54.17961920155762
  endloop
endfacet
facet normal -7.430179958080763e-15 -0.9063077870366489 0.4226182617407017
  outer loop
    vertex 16.509999999999987 7.216150608208451 55.618382813478284
    vertex 18.0975 6.545244117695092 54.17961920155764
    vertex 18.0975 7.21615060820844 55.618382813478284
  endloop
endfacet
facet normal -1.5880121638455604e-15 -0.4226182617406978 -0.9063077870366507
  outer loop
    vertex -17.480842641266417 10.79036955318254 52.200084701161224
    vertex -16.510000000000005 6.545244117695078 54.17961920155757
    vertex -18.097500000000007 6.545244117695109 54.1796192015576
  endloop
endfacet
facet normal -1.5880121638455604e-15 -0.4226182617406978 -0.9063077870366507
  outer loop
    vertex -16.510000000000005 6.545244117695078 54.17961920155757
    vertex -17.480842641266417 10.79036955318254 52.200084701161224
    vertex -15.672894744988877 14.74619670564298 50.35545220563146
  endloop
endfacet
facet normal -1.5880121638455604e-15 -0.4226182617406978 -0.9063077870366507
  outer loop
    vertex -16.510000000000005 6.545244117695078 54.17961920155757
    vertex -15.672894744988877 14.74619670564298 50.35545220563146
    vertex -15.94743539203252 10.417990129016953 52.37372807838898
  endloop
endfacet
facet normal -1.5880121638455604e-15 -0.4226182617406978 -0.9063077870366507
  outer loop
    vertex -15.94743539203252 10.417990129016953 52.37372807838898
    vertex -15.672894744988877 14.74619670564298 50.35545220563146
    vertex -14.298079416481086 14.026814899682629 50.69090545088811
  endloop
endfacet
facet normal -1.5880121638455604e-15 -0.4226182617406978 -0.9063077870366507
  outer loop
    vertex -14.298079416481086 14.026814899682629 50.69090545088811
    vertex -15.672894744988877 14.74619670564298 50.35545220563146
    vertex -12.796864972523544 18.143142491949728 48.77143037113927
  endloop
endfacet
facet normal -1.5880121638455604e-15 -0.4226182617406978 -0.9063077870366507
  outer loop
    vertex -14.298079416481086 14.026814899682629 50.69090545088811
    vertex -12.796864972523544 18.143142491949728 48.77143037113927
    vertex -11.674332957389908 17.125782985436135 49.24583290012328
  endloop
endfacet
facet normal -1.5880121638455604e-15 -0.4226182617406978 -0.9063077870366507
  outer loop
    vertex -11.674332957389908 17.125782985436135 49.24583290012328
    vertex -12.796864972523544 18.143142491949728 48.77143037113927
    vertex -9.048750000000004 20.74971067048428 47.55596766798544
  endloop
endfacet
facet normal -1.5880121638455604e-15 -0.4226182617406978 -0.9063077870366507
  outer loop
    vertex -11.674332957389908 17.125782985436135 49.24583290012328
    vertex -9.048750000000004 20.74971067048428 47.55596766798544
    vertex -8.255000000000004 19.50370483252032 48.13698973233387
  endloop
endfacet
facet normal -1.5880121638455604e-15 -0.4226182617406978 -0.9063077870366507
  outer loop
    vertex -8.255000000000004 19.50370483252032 48.13698973233387
    vertex -9.048750000000004 20.74971067048428 47.55596766798544
    vertex -4.683977668742881 22.388267927437152 46.79189587074292
  endloop
endfacet
facet normal -1.5880121638455604e-15 -0.4226182617406978 -0.9063077870366507
  outer loop
    vertex -8.255000000000004 19.50370483252032 48.13698973233387
    vertex -4.683977668742881 22.388267927437152 46.79189587074292
    vertex -4.273102434642623 20.99852899675803 47.43994177695471
  endloop
endfacet
facet normal -1.5880121638455604e-15 -0.4226182617406978 -0.9063077870366507
  outer loop
    vertex -4.273102434642623 20.99852899675803 47.43994177695471
    vertex -4.683977668742881 22.388267927437152 46.79189587074292
    vertex -3.175000000000011 22.56831564769641 46.707938239952654
  endloop
endfacet
facet normal -1.5880121638455604e-15 -0.4226182617406978 -0.9063077870366507
  outer loop
    vertex -4.273102434642623 20.99852899675803 47.43994177695471
    vertex -3.175000000000011 22.56831564769641 46.707938239952654
    vertex -3.1750000000000083 21.508385681670152 47.20219170021863
  endloop
endfacet
facet normal -1.5880121638455604e-15 -0.4226182617406978 -0.9063077870366507
  outer loop
    vertex -4.273102434642623 20.99852899675803 47.43994177695471
    vertex -3.1750000000000083 21.508385681670152 47.20219170021863
    vertex -1.127986593019159e-14 21.508385681670156 47.20219170021863
  endloop
endfacet
facet normal 1.0 -1.1733147042417296e-14 -1.6653345369372916e-16
  outer loop
    vertex 3.175 11.382938385930997 1.7118698223876932e-15
    vertex 3.174999999999811 -4.86016622103194 3.175000000000002
    vertex 3.174999999999811 -4.860166221031966 1.6612605931829893e-15
  endloop
endfacet
facet normal 1.0 -1.1733147042417296e-14 -1.6653345369372916e-16
  outer loop
    vertex 3.174999999999811 -4.86016622103194 3.175000000000002
    vertex 3.175 11.382938385930997 1.7118698223876932e-15
    vertex 3.175 11.382938385930997 3.175000000000002
  endloop
endfacet
facet normal -0.3826834323650906 0.8373192145987597 -0.390448362087728
  outer loop
    vertex -5.111749999999993 3.164111375455897 25.978855704502116
    vertex -3.1749999999999856 4.562083455319124 27.078583064127983
    vertex -3.1749999999999856 3.891176964805764 25.639819452207302
  endloop
endfacet
facet normal -0.3826834323650906 0.8373192145987597 -0.390448362087728
  outer loop
    vertex -3.1749999999999856 4.562083455319124 27.078583064127983
    vertex -5.111749999999993 3.164111375455897 25.978855704502116
    vertex -5.111749999999995 3.8350178659692475 27.417619316422805
  endloop
endfacet
facet normal -1.0 -5.25456661587491e-15 4.90251740475841e-16
  outer loop
    vertex -3.1749999999999856 4.562083455319124 27.078583064127983
    vertex -3.1749999999999856 4.405471439737137 25.4
    vertex -3.1749999999999856 3.891176964805764 25.639819452207302
  endloop
endfacet
facet normal -1.0 -5.25456661587491e-15 4.90251740475841e-16
  outer loop
    vertex -3.1749999999999856 4.405471439737137 25.4
    vertex -3.1749999999999856 4.562083455319124 27.078583064127983
    vertex -3.1749999999999914 5.0763779302505005 26.838763611920673
  endloop
endfacet
facet normal -1.0 -7.458275505831153e-15 5.6302899216758224e-15
  outer loop
    vertex -3.1750000000000083 21.508385681670152 47.20219170021863
    vertex -3.1749999999999856 4.562083455319124 27.078583064127983
    vertex -3.174999999999983 3.6376143183298177 27.509670102434036
  endloop
endfacet
facet normal -1.0 -7.458275505831153e-15 5.6302899216758224e-15
  outer loop
    vertex -3.1749999999999856 4.562083455319124 27.078583064127983
    vertex -3.1750000000000083 21.508385681670152 47.20219170021863
    vertex -3.1749999999999914 5.0763779302505005 26.838763611920673
  endloop
endfacet
facet normal -1.0 -7.458275505831153e-15 5.6302899216758224e-15
  outer loop
    vertex -3.1749999999999914 5.0763779302505005 26.838763611920673
    vertex -3.1750000000000083 21.508385681670152 47.20219170021863
    vertex -3.175000000000014 12.970438385931013 35.537546269763894
  endloop
endfacet
facet normal -1.0 -7.458275505831153e-15 5.6302899216758224e-15
  outer loop
    vertex -3.175000000000014 12.970438385931013 35.537546269763894
    vertex -3.1750000000000083 21.508385681670152 47.20219170021863
    vertex -3.175000000000025 16.145438385931012 39.03620644518456
  endloop
endfacet
facet normal -1.0 -7.458275505831153e-15 5.6302899216758224e-15
  outer loop
    vertex -3.175000000000025 16.145438385931012 39.03620644518456
    vertex -3.1750000000000083 21.508385681670152 47.20219170021863
    vertex -3.175000000000011 22.947149293590847 46.53128520970531
  endloop
endfacet
facet normal -1.0 -7.458275505831153e-15 5.6302899216758224e-15
  outer loop
    vertex -3.175000000000011 22.947149293590847 46.53128520970531
    vertex -3.1750000000000083 21.508385681670152 47.20219170021863
    vertex -3.175000000000011 22.56831564769641 46.707938239952654
  endloop
endfacet
facet normal -1.0 -7.458275505831153e-15 5.6302899216758224e-15
  outer loop
    vertex -3.175000000000011 22.947149293590847 46.53128520970531
    vertex -3.175000000000011 22.56831564769641 46.707938239952654
    vertex -3.175000000000011 23.239222138209712 48.14670185187332
  endloop
endfacet
facet normal -1.0 -7.458275505831153e-15 5.6302899216758224e-15
  outer loop
    vertex -3.175000000000011 22.947149293590847 46.53128520970531
    vertex -3.175000000000011 23.239222138209712 48.14670185187332
    vertex -3.175000000000011 23.618055784104154 47.97004882162597
  endloop
endfacet
facet normal -1.1102230246251505e-14 -1.0 2.432321124431462e-30
  outer loop
    vertex 3.174999999999811 -4.86016622103194 3.175000000000002
    vertex -3.175000000000228 -4.86016622103187 2.819966482547941e-15
    vertex 3.174999999999811 -4.860166221031966 1.6612605931829893e-15
  endloop
endfacet
facet normal -1.1102230246251505e-14 -1.0 2.432321124431462e-30
  outer loop
    vertex -3.175000000000228 -4.86016622103187 2.819966482547941e-15
    vertex 3.174999999999811 -4.86016622103194 3.175000000000002
    vertex -3.175000000000228 -4.8601662210318946 3.1750000000000025
  endloop
endfacet
facet normal 3.2529968729464006e-15 0.7405297746052236 -0.6720235508694146
  outer loop
    vertex -3.175000000000014 12.970438385931013 35.537546269763894
    vertex 3.1750000000000083 5.076377930250512 26.838763611920673
    vertex -3.1749999999999914 5.0763779302505005 26.838763611920673
  endloop
endfacet
facet normal 3.2529968729464006e-15 0.7405297746052236 -0.6720235508694146
  outer loop
    vertex 3.1750000000000083 5.076377930250512 26.838763611920673
    vertex -3.175000000000014 12.970438385931013 35.537546269763894
    vertex 3.1750000000000083 12.970438385930917 35.53754626976391
  endloop
endfacet
facet normal -1.0 -3.142743368831397e-15 3.326779512304507e-16
  outer loop
    vertex -3.175000000000014 12.970438385931013 35.537546269763894
    vertex -3.175000000000025 16.145438385931026 3.175000000000001
    vertex -3.175000000000025 12.970438385930986 3.1750000000000025
  endloop
endfacet
facet normal -1.0 -3.142743368831397e-15 3.326779512304507e-16
  outer loop
    vertex -3.175000000000025 16.145438385931026 3.175000000000001
    vertex -3.175000000000014 12.970438385931013 35.537546269763894
    vertex -3.175000000000025 16.145438385931012 39.03620644518456
  endloop
endfacet
facet normal -6.082445613464258e-17 1.5541482218431785e-16 -1.0
  outer loop
    vertex 3.1750000000000025 16.145438385931072 2.8199664825478975e-15
    vertex -18.097499999999993 12.97043838593109 4.808042852744174e-15
    vertex -18.097499999999993 16.14543838593109 4.808042852744174e-15
  endloop
endfacet
facet normal -6.082445613464258e-17 1.5541482218431785e-16 -1.0
  outer loop
    vertex -18.097499999999993 12.97043838593109 4.808042852744174e-15
    vertex 3.1750000000000025 16.145438385931072 2.8199664825478975e-15
    vertex 3.1750000000000083 12.970438385930915 1.6612605931829465e-15
  endloop
endfacet
facet normal -1.8247336840392824e-16 -4.064597746019759e-31 -1.0
  outer loop
    vertex 3.1750000000000083 12.970438385930915 1.6612605931829465e-15
    vertex -18.097499999999993 11.382938385931029 4.808042852744177e-15
    vertex -18.097499999999993 12.97043838593109 4.808042852744174e-15
  endloop
endfacet
facet normal -1.8247336840392824e-16 -4.064597746019759e-31 -1.0
  outer loop
    vertex -18.097499999999993 11.382938385931029 4.808042852744177e-15
    vertex 3.1750000000000083 12.970438385930915 1.6612605931829465e-15
    vertex -3.1750000000000367 11.382938385931006 2.8199664825478994e-15
  endloop
endfacet
facet normal -1.8247336840392824e-16 -4.064597746019759e-31 -1.0
  outer loop
    vertex -3.1750000000000367 11.382938385931006 2.8199664825478994e-15
    vertex 3.1750000000000083 12.970438385930915 1.6612605931829465e-15
    vertex 3.174999999999811 -4.860166221031966 1.6612605931829893e-15
  endloop
endfacet
facet normal -1.8247336840392824e-16 -4.064597746019759e-31 -1.0
  outer loop
    vertex 3.174999999999811 -4.860166221031966 1.6612605931829893e-15
    vertex 3.1750000000000083 12.970438385930915 1.6612605931829465e-15
    vertex 3.175 11.382938385930997 1.7118698223876932e-15
  endloop
endfacet
facet normal -1.8247336840392824e-16 -4.064597746019759e-31 -1.0
  outer loop
    vertex 3.174999999999811 -4.860166221031966 1.6612605931829893e-15
    vertex -3.175000000000228 -4.86016622103187 2.819966482547941e-15
    vertex -3.1750000000000367 11.382938385931006 2.8199664825478994e-15
  endloop
endfacet
facet normal 4.912356903954482e-16 3.064236451640162e-17 1.0
  outer loop
    vertex 3.174999999999811 -4.86016622103194 3.175000000000002
    vertex -3.1750000000000336 11.382938385931006 3.1750000000000025
    vertex -3.175000000000228 -4.8601662210318946 3.1750000000000025
  endloop
endfacet
facet normal 4.912356903954482e-16 3.064236451640162e-17 1.0
  outer loop
    vertex -3.1750000000000336 11.382938385931006 3.1750000000000025
    vertex 3.174999999999811 -4.86016622103194 3.175000000000002
    vertex -3.175000000000025 12.970438385930986 3.1750000000000025
  endloop
endfacet
facet normal 4.912356903954482e-16 3.064236451640162e-17 1.0
  outer loop
    vertex -3.175000000000025 12.970438385930986 3.1750000000000025
    vertex 3.174999999999811 -4.86016622103194 3.175000000000002
    vertex 3.1750000000000083 12.97043838593094 3.175000000000002
  endloop
endfacet
facet normal 4.912356903954482e-16 3.064236451640162e-17 1.0
  outer loop
    vertex 3.1750000000000083 12.97043838593094 3.175000000000002
    vertex 3.174999999999811 -4.86016622103194 3.175000000000002
    vertex 3.175 11.382938385930997 3.175000000000002
  endloop
endfacet
facet normal 4.912356903954482e-16 3.064236451640162e-17 1.0
  outer loop
    vertex -3.1750000000000336 11.382938385931006 3.1750000000000025
    vertex -18.097499999999993 17.732938385931085 3.1750000000000127
    vertex -18.097499999999993 11.382938385931029 3.1750000000000127
  endloop
endfacet
facet normal 4.912356903954482e-16 3.064236451640162e-17 1.0
  outer loop
    vertex -18.097499999999993 17.732938385931085 3.1750000000000127
    vertex -3.1750000000000336 11.382938385931006 3.1750000000000025
    vertex -3.175000000000025 17.732938385931003 3.1750000000000025
  endloop
endfacet
facet normal 4.912356903954482e-16 3.064236451640162e-17 1.0
  outer loop
    vertex -3.175000000000025 17.732938385931003 3.1750000000000025
    vertex -3.1750000000000336 11.382938385931006 3.1750000000000025
    vertex -3.175000000000025 12.970438385930986 3.1750000000000025
  endloop
endfacet
facet normal 4.912356903954482e-16 3.064236451640162e-17 1.0
  outer loop
    vertex -3.175000000000025 17.732938385931003 3.1750000000000025
    vertex -3.175000000000025 12.970438385930986 3.1750000000000025
    vertex -3.175000000000025 16.145438385931026 3.175000000000001
  endloop
endfacet
facet normal 4.912356903954482e-16 3.064236451640162e-17 1.0
  outer loop
    vertex -3.175000000000025 17.732938385931003 3.1750000000000025
    vertex -3.175000000000025 16.145438385931026 3.175000000000001
    vertex 3.1750000000000025 16.145438385931058 3.175000000000001
  endloop
endfacet
facet normal 4.912356903954482e-16 3.064236451640162e-17 1.0
  outer loop
    vertex -3.175000000000025 17.732938385931003 3.1750000000000025
    vertex 3.1750000000000025 16.145438385931058 3.175000000000001
    vertex 3.1749999999999545 23.0591744179505 3.175000000000001
  endloop
endfacet
facet normal 4.912356903954482e-16 3.064236451640162e-17 1.0
  outer loop
    vertex 3.1749999999999545 23.0591744179505 3.175000000000001
    vertex 3.1750000000000025 16.145438385931058 3.175000000000001
    vertex 3.175 17.732938385930996 3.175000000000001
  endloop
endfacet
facet normal 4.912356903954482e-16 3.064236451640162e-17 1.0
  outer loop
    vertex 3.1749999999999545 23.0591744179505 3.175000000000001
    vertex -3.1750000000000873 23.059174417950466 3.175000000000001
    vertex -3.175000000000025 17.732938385931003 3.1750000000000025
  endloop
endfacet
facet normal 1.0 8.713836202449167e-15 1.626774344085511e-29
  outer loop
    vertex 3.1749999999999545 23.059174417950512 2.8199664825478975e-15
    vertex 3.175 17.732938385930996 3.175000000000001
    vertex 3.175 17.732938385930996 2.8199664825478975e-15
  endloop
endfacet
facet normal 1.0 8.713836202449167e-15 1.626774344085511e-29
  outer loop
    vertex 3.175 17.732938385930996 3.175000000000001
    vertex 3.1749999999999545 23.059174417950512 2.8199664825478975e-15
    vertex 3.1749999999999545 23.0591744179505 3.175000000000001
  endloop
endfacet
facet normal 0.9914448613738103 0.11829690442127613 -0.055162752467671015
  outer loop
    vertex 9.875142685066297 -2.4620427294058023 28.602374449559324
    vertex 10.223500000000016 -4.189259730518677 31.15940141082672
    vertex 10.223500000000016 -4.860166221032036 29.72063779890604
  endloop
endfacet
facet normal 0.9914448613738103 0.11829690442127613 -0.055162752467671015
  outer loop
    vertex 10.223500000000016 -4.189259730518677 31.15940141082672
    vertex 9.875142685066297 -2.4620427294058023 28.602374449559324
    vertex 9.875142685066297 -1.7911362388924426 30.041138061479998
  endloop
endfacet
facet normal 0.9238795325112868 0.3468289747223939 -0.16172900698309908
  outer loop
    vertex 8.853810715590223 -0.22734739064744292 27.560318899453023
    vertex 9.875142685066297 -1.7911362388924426 30.041138061479998
    vertex 9.875142685066297 -2.4620427294058023 28.602374449559324
  endloop
endfacet
facet normal 0.9238795325112868 0.3468289747223939 -0.16172900698309908
  outer loop
    vertex 9.875142685066297 -1.7911362388924426 30.041138061479998
    vertex 8.853810715590223 -0.22734739064744292 27.560318899453023
    vertex 8.853810715590223 0.44355909986591713 28.999082511373704
  endloop
endfacet
facet normal -0.9914448613738105 0.1182969044212754 -0.05516275246767077
  outer loop
    vertex -10.223499999999987 -4.189259730518681 31.1594014108267
    vertex -9.875142685066278 -2.46204272940581 28.602374449559306
    vertex -10.223499999999987 -4.860166221032041 29.72063779890602
  endloop
endfacet
facet normal -0.9914448613738105 0.1182969044212754 -0.05516275246767077
  outer loop
    vertex -9.875142685066278 -2.46204272940581 28.602374449559306
    vertex -10.223499999999987 -4.189259730518681 31.1594014108267
    vertex -9.875142685066278 -1.7911362388924503 30.04113806147998
  endloop
endfacet
facet normal -0.9238795325112867 0.3468289747223942 -0.1617290069830991
  outer loop
    vertex -9.875142685066278 -1.7911362388924503 30.04113806147998
    vertex -8.853810715590196 -0.22734739064745207 27.560318899453005
    vertex -9.875142685066278 -2.46204272940581 28.602374449559306
  endloop
endfacet
facet normal -0.9238795325112867 0.3468289747223942 -0.1617290069830991
  outer loop
    vertex -8.853810715590196 -0.22734739064745207 27.560318899453005
    vertex -9.875142685066278 -1.7911362388924503 30.04113806147998
    vertex -8.853810715590196 0.4435590998659073 28.999082511373686
  endloop
endfacet
facet normal -4.462484641870445e-16 0.42261826174069966 0.9063077870366498
  outer loop
    vertex 2.235161273505386 3.370920052375777 27.63403168103444
    vertex 3.175000000000011 3.6376143183298315 27.509670102434033
    vertex 1.6919798895287383e-14 3.637614318329826 27.509670102434036
  endloop
endfacet
facet normal -4.462484641870445e-16 0.42261826174069966 0.9063077870366498
  outer loop
    vertex 3.175000000000011 3.6376143183298315 27.509670102434033
    vertex 2.235161273505386 3.370920052375777 27.63403168103444
    vertex 4.318000000000009 2.589012028005292 27.99864138077124
  endloop
endfacet
facet normal -4.462484641870445e-16 0.42261826174069966 0.9063077870366498
  outer loop
    vertex 3.175000000000011 3.6376143183298315 27.509670102434033
    vertex 5.11175000000001 3.835017865969256 27.417619316422808
    vertex 3.1750000000000083 4.562083455319124 27.07858306412799
  endloop
endfacet
facet normal -4.462484641870445e-16 0.42261826174069966 0.9063077870366498
  outer loop
    vertex 5.11175000000001 3.835017865969256 27.417619316422808
    vertex 3.175000000000011 3.6376143183298315 27.509670102434033
    vertex 4.318000000000009 2.589012028005292 27.99864138077124
  endloop
endfacet
facet normal -4.462484641870445e-16 0.42261826174069966 0.9063077870366498
  outer loop
    vertex 5.11175000000001 3.835017865969256 27.417619316422808
    vertex 4.318000000000009 2.589012028005292 27.99864138077124
    vertex 6.106574162327034 1.3451759849151106 28.578651653153408
  endloop
endfacet
facet normal -4.462484641870445e-16 0.42261826174069966 0.9063077870366498
  outer loop
    vertex 5.11175000000001 3.835017865969256 27.417619316422808
    vertex 6.106574162327034 1.3451759849151106 28.578651653153408
    vertex 7.229106177460681 2.362535491428676 28.10424912416934
  endloop
endfacet
facet normal -4.462484641870445e-16 0.42261826174069966 0.9063077870366498
  outer loop
    vertex 7.229106177460681 2.362535491428676 28.10424912416934
    vertex 6.106574162327034 1.3451759849151106 28.578651653153408
    vertex 7.478995387082422 -0.2758227060944238 29.33453575663038
  endloop
endfacet
facet normal -4.462484641870445e-16 0.42261826174069966 0.9063077870366498
  outer loop
    vertex 7.229106177460681 2.362535491428676 28.10424912416934
    vertex 7.478995387082422 -0.2758227060944238 29.33453575663038
    vertex 8.853810715590223 0.44355909986591713 28.999082511373704
  endloop
endfacet
facet normal -4.462484641870445e-16 0.42261826174069966 0.9063077870366498
  outer loop
    vertex 8.853810715590223 0.44355909986591713 28.999082511373704
    vertex 7.478995387082422 -0.2758227060944238 29.33453575663038
    vertex 8.341735435832405 -2.163515663058004 30.214781438707753
  endloop
endfacet
facet normal -4.462484641870445e-16 0.42261826174069966 0.9063077870366498
  outer loop
    vertex 8.853810715590223 0.44355909986591713 28.999082511373704
    vertex 8.341735435832405 -2.163515663058004 30.214781438707753
    vertex 8.636000000000015 -4.189259730518675 31.15940141082672
  endloop
endfacet
facet normal -4.462484641870445e-16 0.42261826174069966 0.9063077870366498
  outer loop
    vertex 8.853810715590223 0.44355909986591713 28.999082511373704
    vertex 8.636000000000015 -4.189259730518675 31.15940141082672
    vertex 10.223500000000016 -4.189259730518677 31.15940141082672
  endloop
endfacet
facet normal -4.462484641870445e-16 0.42261826174069966 0.9063077870366498
  outer loop
    vertex 8.853810715590223 0.44355909986591713 28.999082511373704
    vertex 10.223500000000016 -4.189259730518677 31.15940141082672
    vertex 9.875142685066297 -1.7911362388924426 30.041138061479998
  endloop
endfacet
facet normal 1.0 -1.0762283951109604e-15 2.0434407422513153e-15
  outer loop
    vertex 3.1750000000000083 4.562083455319124 27.07858306412799
    vertex 3.1749999999999887 21.508385681670163 47.20219170021863
    vertex 3.175000000000011 3.6376143183298315 27.509670102434033
  endloop
endfacet
facet normal 1.0 -1.0762283951109604e-15 2.0434407422513153e-15
  outer loop
    vertex 3.1749999999999887 21.508385681670163 47.20219170021863
    vertex 3.1750000000000083 4.562083455319124 27.07858306412799
    vertex 3.1750000000000083 5.076377930250512 26.838763611920673
  endloop
endfacet
facet normal 1.0 -1.0762283951109604e-15 2.0434407422513153e-15
  outer loop
    vertex 3.1749999999999887 21.508385681670163 47.20219170021863
    vertex 3.1750000000000083 5.076377930250512 26.838763611920673
    vertex 3.1750000000000083 12.970438385930917 35.53754626976391
  endloop
endfacet
facet normal 1.0 -1.0762283951109604e-15 2.0434407422513153e-15
  outer loop
    vertex 3.1749999999999887 21.508385681670163 47.20219170021863
    vertex 3.1750000000000083 12.970438385930917 35.53754626976391
    vertex 3.1750000000000025 16.145438385931072 39.03620644518456
  endloop
endfacet
facet normal 1.0 -1.0762283951109604e-15 2.0434407422513153e-15
  outer loop
    vertex 3.1749999999999887 21.508385681670163 47.20219170021863
    vertex 3.1750000000000025 16.145438385931072 39.03620644518456
    vertex 3.1749999999999887 22.947149293590858 46.53128520970531
  endloop
endfacet
facet normal 1.0 -1.0762283951109604e-15 2.0434407422513153e-15
  outer loop
    vertex 3.1749999999999887 21.508385681670163 47.20219170021863
    vertex 3.1749999999999887 22.947149293590858 46.53128520970531
    vertex 3.1749999999999887 22.56831564769641 46.70793823995267
  endloop
endfacet
facet normal 1.0 -1.0762283951109604e-15 2.0434407422513153e-15
  outer loop
    vertex 3.1749999999999887 22.56831564769641 46.70793823995267
    vertex 3.1749999999999887 22.947149293590858 46.53128520970531
    vertex 3.1749999999999887 23.230559393604242 48.12812453611624
  endloop
endfacet
facet normal 1.0 -1.0762283951109604e-15 2.0434407422513153e-15
  outer loop
    vertex 3.1749999999999887 23.230559393604242 48.12812453611624
    vertex 3.1749999999999887 22.947149293590858 46.53128520970531
    vertex 3.1749999999999887 23.60939303949869 47.95147150586888
  endloop
endfacet
facet normal 1.808784233356778e-15 -0.7405297746052221 0.6720235508694163
  outer loop
    vertex 3.1749999999999887 21.508385681670163 47.20219170021863
    vertex 1.6919798895287383e-14 3.637614318329826 27.509670102434036
    vertex 3.175000000000011 3.6376143183298315 27.509670102434033
  endloop
endfacet
facet normal 1.808784233356778e-15 -0.7405297746052221 0.6720235508694163
  outer loop
    vertex 1.6919798895287383e-14 3.637614318329826 27.509670102434036
    vertex 3.1749999999999887 21.508385681670163 47.20219170021863
    vertex -1.127986593019159e-14 21.508385681670156 47.20219170021863
  endloop
endfacet
facet normal 0.0 0.0 -1.0
  outer loop
    vertex 3.1749999999999545 23.059174417950512 2.8199664825478975e-15
    vertex -3.175000000000025 17.732938385931003 2.8199664825478975e-15
    vertex -3.1750000000000873 23.059174417950455 2.8199664825478975e-15
  endloop
endfacet
facet normal 0.0 0.0 -1.0
  outer loop
    vertex -3.175000000000025 17.732938385931003 2.8199664825478975e-15
    vertex -18.097499999999993 16.14543838593109 4.808042852744174e-15
    vertex -18.097499999999993 17.732938385931085 4.808042852744174e-15
  endloop
endfacet
facet normal 0.0 0.0 -1.0
  outer loop
    vertex -18.097499999999993 16.14543838593109 4.808042852744174e-15
    vertex -3.175000000000025 17.732938385931003 2.8199664825478975e-15
    vertex 3.1750000000000025 16.145438385931072 2.8199664825478975e-15
  endloop
endfacet
facet normal 0.0 0.0 -1.0
  outer loop
    vertex 3.1750000000000025 16.145438385931072 2.8199664825478975e-15
    vertex -3.175000000000025 17.732938385931003 2.8199664825478975e-15
    vertex 3.1749999999999545 23.059174417950512 2.8199664825478975e-15
  endloop
endfacet
facet normal 0.0 0.0 -1.0
  outer loop
    vertex 3.1750000000000025 16.145438385931072 2.8199664825478975e-15
    vertex 3.1749999999999545 23.059174417950512 2.8199664825478975e-15
    vertex 3.175 17.732938385930996 2.8199664825478975e-15
  endloop
endfacet
facet normal -7.549516567451027e-15 1.0 0.0
  outer loop
    vertex -3.1750000000000873 23.059174417950466 3.175000000000001
    vertex 3.1749999999999545 23.059174417950512 2.8199664825478975e-15
    vertex -3.1750000000000873 23.059174417950455 2.8199664825478975e-15
  endloop
endfacet
facet normal -7.549516567451027e-15 1.0 0.0
  outer loop
    vertex 3.1749999999999545 23.059174417950512 2.8199664825478975e-15
    vertex -3.1750000000000873 23.059174417950466 3.175000000000001
    vertex 3.1749999999999545 23.0591744179505 3.175000000000001
  endloop
endfacet
facet normal -1.1102230246251509e-14 -1.0 8.713673080732325e-17
  outer loop
    vertex 3.1750000000000083 12.970438385930917 35.53754626976391
    vertex -3.175000000000025 12.970438385930986 3.1750000000000025
    vertex 3.1750000000000083 12.97043838593094 3.175000000000002
  endloop
endfacet
facet normal -1.1102230246251509e-14 -1.0 8.713673080732325e-17
  outer loop
    vertex -3.175000000000025 12.970438385930986 3.1750000000000025
    vertex 3.1750000000000083 12.970438385930917 35.53754626976391
    vertex -3.175000000000014 12.970438385931013 35.537546269763894
  endloop
endfacet
facet normal -3.4395248094081932e-15 0.7405297746052222 -0.6720235508694162
  outer loop
    vertex -3.175000000000011 22.947149293590847 46.53128520970531
    vertex 3.1750000000000025 16.145438385931072 39.03620644518456
    vertex -3.175000000000025 16.145438385931012 39.03620644518456
  endloop
endfacet
facet normal -3.4395248094081932e-15 0.7405297746052222 -0.6720235508694162
  outer loop
    vertex 3.1750000000000025 16.145438385931072 39.03620644518456
    vertex -3.175000000000011 22.947149293590847 46.53128520970531
    vertex 3.1749999999999887 22.947149293590858 46.53128520970531
  endloop
endfacet
facet normal -3.4395248094081932e-15 0.7405297746052222 -0.6720235508694162
  outer loop
    vertex 3.1749999999999887 22.947149293590858 46.53128520970531
    vertex -3.175000000000011 22.947149293590847 46.53128520970531
    vertex -1.4099832412739488e-14 22.947149293590854 46.53128520970531
  endloop
endfacet
facet normal -1.8510269555977785e-15 0.9063077870366486 -0.4226182617407027
  outer loop
    vertex -3.1749999999999856 4.405471439737137 25.4
    vertex 3.1750000000000083 5.076377930250512 26.838763611920673
    vertex 3.1750000000000083 4.4054714397371475 25.39999999999999
  endloop
endfacet
facet normal -1.8510269555977785e-15 0.9063077870366486 -0.4226182617407027
  outer loop
    vertex 3.1750000000000083 5.076377930250512 26.838763611920673
    vertex -3.1749999999999856 4.405471439737137 25.4
    vertex -3.1749999999999914 5.0763779302505005 26.838763611920673
  endloop
endfacet
facet normal 1.6718812968978708e-15 -0.7405297746052221 0.6720235508694165
  outer loop
    vertex -1.127986593019159e-14 21.508385681670156 47.20219170021863
    vertex -3.174999999999983 3.6376143183298177 27.509670102434036
    vertex 1.6919798895287383e-14 3.637614318329826 27.509670102434036
  endloop
endfacet
facet normal 1.6718812968978708e-15 -0.7405297746052221 0.6720235508694165
  outer loop
    vertex -3.174999999999983 3.6376143183298177 27.509670102434036
    vertex -1.127986593019159e-14 21.508385681670156 47.20219170021863
    vertex -3.1750000000000083 21.508385681670152 47.20219170021863
  endloop
endfacet
facet normal 1.541878612386511e-05 0.42274254083821955 0.9062498242360697
  outer loop
    vertex -16.51000000000001 7.216150608208434 55.618382813478235
    vertex -17.48084264126642 11.461276043695888 53.63884831308189
    vertex -18.09750000000001 7.216150608208454 55.618382813478235
  endloop
endfacet
facet normal 1.541878612386511e-05 0.42274254083821955 0.9062498242360697
  outer loop
    vertex -17.48084264126642 11.461276043695888 53.63884831308189
    vertex -16.51000000000001 7.216150608208434 55.618382813478235
    vertex -15.672894744988877 15.417103196156328 51.7942158175521
  endloop
endfacet
facet normal 1.541878612386511e-05 0.42274254083821955 0.9062498242360697
  outer loop
    vertex -15.672894744988877 15.417103196156328 51.7942158175521
    vertex -16.51000000000001 7.216150608208434 55.618382813478235
    vertex -15.947435392032524 11.088896619530308 53.81249169030962
  endloop
endfacet
facet normal 1.541878612386511e-05 0.42274254083821955 0.9062498242360697
  outer loop
    vertex -15.672894744988877 15.417103196156328 51.7942158175521
    vertex -15.947435392032524 11.088896619530308 53.81249169030962
    vertex -14.298079416481086 14.697721390195982 52.12966906280878
  endloop
endfacet
facet normal 1.541878612386511e-05 0.42274254083821955 0.9062498242360697
  outer loop
    vertex -15.672894744988877 15.417103196156328 51.7942158175521
    vertex -14.298079416481086 14.697721390195982 52.12966906280878
    vertex -12.796864972523544 18.814048982463067 50.21019398305992
  endloop
endfacet
facet normal 1.541878612386511e-05 0.42274254083821955 0.9062498242360697
  outer loop
    vertex -12.796864972523544 18.814048982463067 50.21019398305992
    vertex -14.298079416481086 14.697721390195982 52.12966906280878
    vertex -11.67433295738991 17.796689475949513 50.68459651204401
  endloop
endfacet
facet normal 1.541878612386511e-05 0.42274254083821955 0.9062498242360697
  outer loop
    vertex -12.796864972523544 18.814048982463067 50.21019398305992
    vertex -11.67433295738991 17.796689475949513 50.68459651204401
    vertex -9.048750000000007 21.42061716099765 48.99473127990613
  endloop
endfacet
facet normal 1.541878612386511e-05 0.42274254083821955 0.9062498242360697
  outer loop
    vertex -9.048750000000007 21.42061716099765 48.99473127990613
    vertex -11.67433295738991 17.796689475949513 50.68459651204401
    vertex -8.255000000000004 20.174611323033677 49.57575334425456
  endloop
endfacet
facet normal 1.541878612386511e-05 0.42274254083821955 0.9062498242360697
  outer loop
    vertex -9.048750000000007 21.42061716099765 48.99473127990613
    vertex -8.255000000000004 20.174611323033677 49.57575334425456
    vertex -4.683977668742881 23.0591744179505 48.23065948266354
  endloop
endfacet
facet normal 1.541878612386511e-05 0.42274254083821955 0.9062498242360697
  outer loop
    vertex -4.683977668742881 23.0591744179505 48.23065948266354
    vertex -8.255000000000004 20.174611323033677 49.57575334425456
    vertex -4.273102434642623 21.66943548727137 48.87870538887537
  endloop
endfacet
facet normal 1.541878612386511e-05 0.42274254083821955 0.9062498242360697
  outer loop
    vertex -4.683977668742881 23.0591744179505 48.23065948266354
    vertex -4.273102434642623 21.66943548727137 48.87870538887537
    vertex -3.175000000000011 23.239222138209712 48.14670185187332
  endloop
endfacet
facet normal 1.541878612386511e-05 0.42274254083821955 0.9062498242360697
  outer loop
    vertex -3.175000000000011 23.239222138209712 48.14670185187332
    vertex -4.273102434642623 21.66943548727137 48.87870538887537
    vertex -1.127986593019159e-14 22.179292172183526 48.640955312139326
  endloop
endfacet
facet normal 1.541878612386511e-05 0.42274254083821955 0.9062498242360697
  outer loop
    vertex -3.175000000000011 23.239222138209712 48.14670185187332
    vertex -1.127986593019159e-14 22.179292172183526 48.640955312139326
    vertex -1.4099832412739488e-14 23.618055784104218 47.970048821625966
  endloop
endfacet
facet normal 1.541878612386511e-05 0.42274254083821955 0.9062498242360697
  outer loop
    vertex -1.4099832412739488e-14 23.618055784104218 47.970048821625966
    vertex -1.127986593019159e-14 22.179292172183526 48.640955312139326
    vertex 3.1749999999999887 23.230559393604242 48.12812453611624
  endloop
endfacet
facet normal 1.541878612386511e-05 0.42274254083821955 0.9062498242360697
  outer loop
    vertex 3.1749999999999887 23.230559393604242 48.12812453611624
    vertex -1.127986593019159e-14 22.179292172183526 48.640955312139326
    vertex 4.273102434642611 21.66943548727138 48.87870538887539
  endloop
endfacet
facet normal 1.541878612386511e-05 0.42274254083821955 0.9062498242360697
  outer loop
    vertex 3.1749999999999887 23.230559393604242 48.12812453611624
    vertex 4.273102434642611 21.66943548727138 48.87870538887539
    vertex 4.683977668742862 23.059174417950505 48.230659482663576
  endloop
endfacet
facet normal 1.541878612386511e-05 0.42274254083821955 0.9062498242360697
  outer loop
    vertex 4.683977668742862 23.059174417950505 48.230659482663576
    vertex 4.273102434642611 21.66943548727138 48.87870538887539
    vertex 8.25499999999999 20.174611323033687 49.5757533442546
  endloop
endfacet
facet normal 1.541878612386511e-05 0.42274254083821955 0.9062498242360697
  outer loop
    vertex 4.683977668742862 23.059174417950505 48.230659482663576
    vertex 8.25499999999999 20.174611323033687 49.5757533442546
    vertex 9.04874999999999 21.420617160997644 48.99473127990615
  endloop
endfacet
facet normal 1.541878612386511e-05 0.42274254083821955 0.9062498242360697
  outer loop
    vertex 9.04874999999999 21.420617160997644 48.99473127990615
    vertex 8.25499999999999 20.174611323033687 49.5757533442546
    vertex 11.674332957389884 17.796689475949513 50.68459651204403
  endloop
endfacet
facet normal 1.541878612386511e-05 0.42274254083821955 0.9062498242360697
  outer loop
    vertex 9.04874999999999 21.420617160997644 48.99473127990615
    vertex 11.674332957389884 17.796689475949513 50.68459651204403
    vertex 12.796864972523544 18.814048982463074 50.210193983059966
  endloop
endfacet
facet normal 1.541878612386511e-05 0.42274254083821955 0.9062498242360697
  outer loop
    vertex 12.796864972523544 18.814048982463074 50.210193983059966
    vertex 11.674332957389884 17.796689475949513 50.68459651204403
    vertex 14.298079416481073 14.697721390195984 52.129669062808844
  endloop
endfacet
facet normal 1.541878612386511e-05 0.42274254083821955 0.9062498242360697
  outer loop
    vertex 12.796864972523544 18.814048982463074 50.210193983059966
    vertex 14.298079416481073 14.697721390195984 52.129669062808844
    vertex 15.672894744988874 15.417103196156328 51.79421581755215
  endloop
endfacet
facet normal 1.541878612386511e-05 0.42274254083821955 0.9062498242360697
  outer loop
    vertex 15.672894744988874 15.417103196156328 51.79421581755215
    vertex 14.298079416481073 14.697721390195984 52.129669062808844
    vertex 15.947435392032514 11.088896619530317 53.81249169030966
  endloop
endfacet
facet normal 1.541878612386511e-05 0.42274254083821955 0.9062498242360697
  outer loop
    vertex 15.672894744988874 15.417103196156328 51.79421581755215
    vertex 15.947435392032514 11.088896619530317 53.81249169030966
    vertex 17.480842641266406 11.461276043695879 53.63884831308194
  endloop
endfacet
facet normal 1.541878612386511e-05 0.42274254083821955 0.9062498242360697
  outer loop
    vertex 17.480842641266406 11.461276043695879 53.63884831308194
    vertex 15.947435392032514 11.088896619530317 53.81249169030966
    vertex 16.509999999999987 7.216150608208451 55.618382813478284
  endloop
endfacet
facet normal 1.541878612386511e-05 0.42274254083821955 0.9062498242360697
  outer loop
    vertex 17.480842641266406 11.461276043695879 53.63884831308194
    vertex 16.509999999999987 7.216150608208451 55.618382813478284
    vertex 18.0975 7.21615060820844 55.618382813478284
  endloop
endfacet
facet normal -1.1485297751648798e-14 -0.906307787036649 0.4226182617407014
  outer loop
    vertex -16.51000000000001 7.216150608208434 55.618382813478235
    vertex -18.097500000000007 6.545244117695109 54.1796192015576
    vertex -16.510000000000005 6.545244117695078 54.17961920155757
  endloop
endfacet
facet normal -1.1485297751648798e-14 -0.906307787036649 0.4226182617407014
  outer loop
    vertex -18.097500000000007 6.545244117695109 54.1796192015576
    vertex -16.51000000000001 7.216150608208434 55.618382813478235
    vertex -18.09750000000001 7.216150608208454 55.618382813478235
  endloop
endfacet
facet normal 0.9914448613738105 -0.11829690442127463 0.05516275246767308
  outer loop
    vertex -15.94743539203252 10.417990129016953 52.37372807838898
    vertex -16.51000000000001 7.216150608208434 55.618382813478235
    vertex -16.510000000000005 6.545244117695078 54.17961920155757
  endloop
endfacet
facet normal 0.9914448613738105 -0.11829690442127463 0.05516275246767308
  outer loop
    vertex -16.51000000000001 7.216150608208434 55.618382813478235
    vertex -15.94743539203252 10.417990129016953 52.37372807838898
    vertex -15.947435392032524 11.088896619530308 53.81249169030962
  endloop
endfacet
facet normal -1.0 1.205143216563951e-14 3.3306690738759464e-16
  outer loop
    vertex -3.1750000000000336 11.382938385931006 3.1750000000000025
    vertex -3.175000000000228 -4.86016622103187 2.819966482547941e-15
    vertex -3.175000000000228 -4.8601662210318946 3.1750000000000025
  endloop
endfacet
facet normal -1.0 1.205143216563951e-14 3.3306690738759464e-16
  outer loop
    vertex -3.175000000000228 -4.86016622103187 2.819966482547941e-15
    vertex -3.1750000000000336 11.382938385931006 3.1750000000000025
    vertex -3.1750000000000367 11.382938385931006 2.8199664825478994e-15
  endloop
endfacet
facet normal 4.3868994894003325e-17 1.2688263138573202e-16 1.0
  outer loop
    vertex 18.09749999999999 11.382938385930997 3.175000000000001
    vertex 3.1750000000000083 12.97043838593094 3.175000000000002
    vertex 3.175 11.382938385930997 3.175000000000002
  endloop
endfacet
facet normal 4.3868994894003325e-17 1.2688263138573202e-16 1.0
  outer loop
    vertex 3.1750000000000025 16.145438385931058 3.175000000000001
    vertex 18.09749999999999 17.732938385931 3.1750000000000007
    vertex 3.175 17.732938385930996 3.175000000000001
  endloop
endfacet
facet normal 4.3868994894003325e-17 1.2688263138573202e-16 1.0
  outer loop
    vertex 18.09749999999999 17.732938385931 3.1750000000000007
    vertex 3.1750000000000025 16.145438385931058 3.175000000000001
    vertex 3.1750000000000083 12.97043838593094 3.175000000000002
  endloop
endfacet
facet normal 4.3868994894003325e-17 1.2688263138573202e-16 1.0
  outer loop
    vertex 18.09749999999999 17.732938385931 3.1750000000000007
    vertex 3.1750000000000083 12.97043838593094 3.175000000000002
    vertex 18.09749999999999 11.382938385930997 3.175000000000001
  endloop
endfacet
facet normal 1.0 2.664535259100473e-16 -6.661338147750964e-17
  outer loop
    vertex 18.0975 12.970438385930917 6.672224080848082e-16
    vertex 18.09749999999999 11.382938385930997 3.175000000000001
    vertex 18.09749999999999 11.382938385930997 7.178316372895552e-16
  endloop
endfacet
facet normal 1.0 2.664535259100473e-16 -6.661338147750964e-17
  outer loop
    vertex 18.09749999999999 11.382938385930997 3.175000000000001
    vertex 18.0975 12.970438385930917 6.672224080848082e-16
    vertex 18.09749999999999 17.732938385931 3.1750000000000007
  endloop
endfacet
facet normal 1.0 2.664535259100473e-16 -6.661338147750964e-17
  outer loop
    vertex 18.09749999999999 17.732938385931 3.1750000000000007
    vertex 18.0975 12.970438385930917 6.672224080848082e-16
    vertex 18.097499999999993 16.145438385931076 1.8259282974497574e-15
  endloop
endfacet
facet normal 1.0 2.664535259100473e-16 -6.661338147750964e-17
  outer loop
    vertex 18.09749999999999 17.732938385931 3.1750000000000007
    vertex 18.097499999999993 16.145438385931076 1.8259282974497574e-15
    vertex 18.09749999999999 17.732938385931 1.8259282974497574e-15
  endloop
endfacet
facet normal -0.7933533402912356 0.5517252235581614 -0.25727369694245067
  outer loop
    vertex -8.853810715590196 0.4435590998659073 28.999082511373686
    vertex -7.229106177460658 1.6916290009153072 26.665485512248654
    vertex -8.853810715590196 -0.22734739064745207 27.560318899453005
  endloop
endfacet
facet normal -0.7933533402912356 0.5517252235581614 -0.25727369694245067
  outer loop
    vertex -7.229106177460658 1.6916290009153072 26.665485512248654
    vertex -8.853810715590196 0.4435590998659073 28.999082511373686
    vertex -7.229106177460661 2.3625354914286674 28.10424912416933
  endloop
endfacet
facet normal 0.7933533402912356 0.5517252235581618 -0.25727369694245
  outer loop
    vertex 7.229106177460681 1.6916290009153157 26.665485512248665
    vertex 8.853810715590223 0.44355909986591713 28.999082511373704
    vertex 8.853810715590223 -0.22734739064744292 27.560318899453023
  endloop
endfacet
facet normal 0.7933533402912356 0.5517252235581618 -0.25727369694245
  outer loop
    vertex 8.853810715590223 0.44355909986591713 28.999082511373704
    vertex 7.229106177460681 1.6916290009153157 26.665485512248665
    vertex 7.229106177460681 2.362535491428676 28.10424912416934
  endloop
endfacet
facet normal -0.6087614290087209 0.7190223101774839 -0.33528560962005877
  outer loop
    vertex -7.229106177460658 1.6916290009153072 26.665485512248654
    vertex -5.111749999999995 3.8350178659692475 27.417619316422805
    vertex -5.111749999999993 3.164111375455897 25.978855704502116
  endloop
endfacet
facet normal -0.6087614290087209 0.7190223101774839 -0.33528560962005877
  outer loop
    vertex -5.111749999999995 3.8350178659692475 27.417619316422805
    vertex -7.229106177460658 1.6916290009153072 26.665485512248654
    vertex -7.229106177460661 2.3625354914286674 28.10424912416933
  endloop
endfacet
facet normal 0.6087614290087198 0.7190223101774847 -0.3352856096200587
  outer loop
    vertex 5.11175000000001 3.835017865969256 27.417619316422808
    vertex 7.229106177460681 1.6916290009153157 26.665485512248665
    vertex 5.11175000000001 3.164111375455903 25.978855704502127
  endloop
endfacet
facet normal 0.6087614290087198 0.7190223101774847 -0.3352856096200587
  outer loop
    vertex 7.229106177460681 1.6916290009153157 26.665485512248665
    vertex 5.11175000000001 3.835017865969256 27.417619316422808
    vertex 7.229106177460681 2.362535491428676 28.10424912416934
  endloop
endfacet
facet normal -5.949979522493907e-16 0.4226182617406983 0.9063077870366506
  outer loop
    vertex -8.635999999999987 -4.189259730518681 31.1594014108267
    vertex -9.875142685066278 -1.7911362388924503 30.04113806147998
    vertex -10.223499999999987 -4.189259730518681 31.1594014108267
  endloop
endfacet
facet normal -5.949979522493907e-16 0.4226182617406983 0.9063077870366506
  outer loop
    vertex -9.875142685066278 -1.7911362388924503 30.04113806147998
    vertex -8.635999999999987 -4.189259730518681 31.1594014108267
    vertex -8.853810715590196 0.4435590998659073 28.999082511373686
  endloop
endfacet
facet normal -5.949979522493907e-16 0.4226182617406983 0.9063077870366506
  outer loop
    vertex -8.853810715590196 0.4435590998659073 28.999082511373686
    vertex -8.635999999999987 -4.189259730518681 31.1594014108267
    vertex -8.34173543583238 -2.163515663058006 30.214781438707732
  endloop
endfacet
facet normal -5.949979522493907e-16 0.4226182617406983 0.9063077870366506
  outer loop
    vertex -8.853810715590196 0.4435590998659073 28.999082511373686
    vertex -8.34173543583238 -2.163515663058006 30.214781438707732
    vertex -7.229106177460661 2.3625354914286674 28.10424912416933
  endloop
endfacet
facet normal -5.949979522493907e-16 0.4226182617406983 0.9063077870366506
  outer loop
    vertex -7.229106177460661 2.3625354914286674 28.10424912416933
    vertex -8.34173543583238 -2.163515663058006 30.214781438707732
    vertex -7.478995387082397 -0.2758227060944252 29.334535756630363
  endloop
endfacet
facet normal -5.949979522493907e-16 0.4226182617406983 0.9063077870366506
  outer loop
    vertex -7.229106177460661 2.3625354914286674 28.10424912416933
    vertex -7.478995387082397 -0.2758227060944252 29.334535756630363
    vertex -6.106574162327011 1.3451759849151086 28.57865165315339
  endloop
endfacet
facet normal -5.949979522493907e-16 0.4226182617406983 0.9063077870366506
  outer loop
    vertex -7.229106177460661 2.3625354914286674 28.10424912416933
    vertex -6.106574162327011 1.3451759849151086 28.57865165315339
    vertex -5.111749999999995 3.8350178659692475 27.417619316422805
  endloop
endfacet
facet normal -5.949979522493907e-16 0.4226182617406983 0.9063077870366506
  outer loop
    vertex -5.111749999999995 3.8350178659692475 27.417619316422805
    vertex -6.106574162327011 1.3451759849151086 28.57865165315339
    vertex -4.317999999999986 2.5890120280052935 27.99864138077123
  endloop
endfacet
facet normal -5.949979522493907e-16 0.4226182617406983 0.9063077870366506
  outer loop
    vertex -5.111749999999995 3.8350178659692475 27.417619316422805
    vertex -4.317999999999986 2.5890120280052935 27.99864138077123
    vertex -3.1749999999999856 4.562083455319124 27.078583064127983
  endloop
endfacet
facet normal -5.949979522493907e-16 0.4226182617406983 0.9063077870366506
  outer loop
    vertex -3.1749999999999856 4.562083455319124 27.078583064127983
    vertex -4.317999999999986 2.5890120280052935 27.99864138077123
    vertex -3.174999999999983 3.6376143183298177 27.509670102434036
  endloop
endfacet
facet normal -5.949979522493907e-16 0.4226182617406983 0.9063077870366506
  outer loop
    vertex -3.174999999999983 3.6376143183298177 27.509670102434036
    vertex -4.317999999999986 2.5890120280052935 27.99864138077123
    vertex -2.235161273505349 3.370920052375777 27.634031681034433
  endloop
endfacet
facet normal -5.949979522493907e-16 0.4226182617406983 0.9063077870366506
  outer loop
    vertex -3.174999999999983 3.6376143183298177 27.509670102434036
    vertex -2.235161273505349 3.370920052375777 27.634031681034433
    vertex 1.6919798895287383e-14 3.637614318329826 27.509670102434036
  endloop
endfacet
facet normal 0.38268343236508967 0.8373192145987599 -0.3904483620877286
  outer loop
    vertex 3.1750000000000083 4.562083455319124 27.07858306412799
    vertex 5.11175000000001 3.164111375455903 25.978855704502127
    vertex 3.1750000000000083 3.8911769648057652 25.63981945220731
  endloop
endfacet
facet normal 0.38268343236508967 0.8373192145987599 -0.3904483620877286
  outer loop
    vertex 5.11175000000001 3.164111375455903 25.978855704502127
    vertex 3.1750000000000083 4.562083455319124 27.07858306412799
    vertex 5.11175000000001 3.835017865969256 27.417619316422808
  endloop
endfacet
facet normal 1.0 0.0 0.0
  outer loop
    vertex 3.1750000000000083 4.4054714397371475 25.39999999999999
    vertex 3.1750000000000083 4.562083455319124 27.07858306412799
    vertex 3.1750000000000083 3.8911769648057652 25.63981945220731
  endloop
endfacet
facet normal 1.0 0.0 0.0
  outer loop
    vertex 3.1750000000000083 4.562083455319124 27.07858306412799
    vertex 3.1750000000000083 4.4054714397371475 25.39999999999999
    vertex 3.1750000000000083 5.076377930250512 26.838763611920673
  endloop
endfacet
endsolid Untitled-63cc1d63
