solid Ping Pong Paddle Handle Insert
facet normal -0.0 -1.0 -0.0
  outer loop
    vertex 5.715 0.0 1.0795
    vertex 0.0 0.0 0.7619999999999999
    vertex 5.715 0.0 0.7619999999999999
  endloop
endfacet
facet normal -0.0 -1.0 -0.0
  outer loop
    vertex 5.715 0.0 1.0795
    vertex 5.715 0.0 0.7619999999999999
    vertex 11.43 0.0 0.7619999999999999
  endloop
endfacet
facet normal 0.05547001962252289 0.0 0.9984603532054125
  outer loop
    vertex 11.43 0.0 0.7619999999999999
    vertex 5.715 59.69 1.0795
    vertex 5.715 0.0 1.0795
  endloop
endfacet
facet normal 0.05547001962252289 0.0 0.9984603532054125
  outer loop
    vertex 5.715 59.69 1.0795
    vertex 11.43 0.0 0.7619999999999999
    vertex 11.43 59.69 0.7619999999999999
  endloop
endfacet
facet normal -1.0 0.0 0.0
  outer loop
    vertex 0.0 59.69 0.7619999999999999
    vertex 0.0 0.0 0.0
    vertex 0.0 0.0 0.7619999999999999
  endloop
endfacet
facet normal -1.0 0.0 0.0
  outer loop
    vertex 0.0 0.0 0.0
    vertex 0.0 59.69 0.7619999999999999
    vertex 0.0 59.69 0.0
  endloop
endfacet
facet normal 0.0 1.0 0.0
  outer loop
    vertex 0.0 59.69 0.7619999999999999
    vertex 11.43 59.69 0.0
    vertex 0.0 59.69 0.0
  endloop
endfacet
facet normal 0.0 1.0 0.0
  outer loop
    vertex 11.43 59.69 0.0
    vertex 0.0 59.69 0.7619999999999999
    vertex 11.43 59.69 0.7619999999999999
  endloop
endfacet
facet normal 0.0 1.0 0.0
  outer loop
    vertex 11.43 59.69 0.7619999999999999
    vertex 0.0 59.69 0.7619999999999999
    vertex 5.715 59.69 0.7619999999999999
  endloop
endfacet
facet normal 1.0 0.0 0.0
  outer loop
    vertex 11.43 59.69 0.0
    vertex 11.43 0.0 0.7619999999999999
    vertex 11.43 0.0 0.0
  endloop
endfacet
facet normal 1.0 0.0 0.0
  outer loop
    vertex 11.43 0.0 0.7619999999999999
    vertex 11.43 59.69 0.0
    vertex 11.43 59.69 0.7619999999999999
  endloop
endfacet
facet normal -0.0 -1.0 -0.0
  outer loop
    vertex 11.43 0.0 0.7619999999999999
    vertex 0.0 0.0 0.0
    vertex 11.43 0.0 0.0
  endloop
endfacet
facet normal -0.0 -1.0 -0.0
  outer loop
    vertex 0.0 0.0 0.0
    vertex 11.43 0.0 0.7619999999999999
    vertex 0.0 0.0 0.7619999999999999
  endloop
endfacet
facet normal -0.0 -1.0 -0.0
  outer loop
    vertex 0.0 0.0 0.7619999999999999
    vertex 11.43 0.0 0.7619999999999999
    vertex 5.715 0.0 0.7619999999999999
  endloop
endfacet
facet normal 0.0 1.0 0.0
  outer loop
    vertex 5.715 59.69 1.0795
    vertex 5.715 59.69 0.7619999999999999
    vertex 0.0 59.69 0.7619999999999999
  endloop
endfacet
facet normal -0.0554700196225229 0.0 0.9984603532054125
  outer loop
    vertex 5.715 0.0 1.0795
    vertex 0.0 59.69 0.7619999999999999
    vertex 0.0 0.0 0.7619999999999999
  endloop
endfacet
facet normal -0.0554700196225229 0.0 0.9984603532054125
  outer loop
    vertex 0.0 59.69 0.7619999999999999
    vertex 5.715 0.0 1.0795
    vertex 5.715 59.69 1.0795
  endloop
endfacet
facet normal 0.0 1.0 0.0
  outer loop
    vertex 5.715 59.69 1.0795
    vertex 11.43 59.69 0.7619999999999999
    vertex 5.715 59.69 0.7619999999999999
  endloop
endfacet
facet normal -0.0 -0.0 -1.0
  outer loop
    vertex 11.43 59.69 0.0
    vertex 0.0 0.0 0.0
    vertex 0.0 59.69 0.0
  endloop
endfacet
facet normal -0.0 -0.0 -1.0
  outer loop
    vertex 0.0 0.0 0.0
    vertex 11.43 59.69 0.0
    vertex 11.43 0.0 0.0
  endloop
endfacet
endsolid Ping Pong Paddle Handle Insert
