solid Untitled-5ffced98
facet normal 0.13052619222005196 -0.9914448613738105 0.0
  outer loop
    vertex -0.15758159999990662 210.00902879999995 117.475
    vertex -10.067892246498007 208.70431165152152 15.875
    vertex -0.15758159999990662 210.00902879999995 15.875
  endloop
endfacet
facet normal 0.13052619222005196 -0.9914448613738105 0.0
  outer loop
    vertex -10.067892246498007 208.70431165152152 15.875
    vertex -0.15758159999990662 210.00902879999995 117.475
    vertex -10.067892246498007 208.70431165152152 117.475
  endloop
endfacet
facet normal -0.38268343236508956 -0.9238795325112867 -0.0
  outer loop
    vertex 18.987668400000086 204.87907452360798 117.475
    vertex 9.752729046498159 208.70431165152152 15.875
    vertex 18.987668400000086 204.87907452360798 15.875
  endloop
endfacet
facet normal -0.38268343236508956 -0.9238795325112867 -0.0
  outer loop
    vertex 9.752729046498159 208.70431165152152 15.875
    vertex 18.987668400000086 204.87907452360798 117.475
    vertex 9.752729046498159 208.70431165152152 117.475
  endloop
endfacet
facet normal -0.6087614290087199 -0.7933533402912357 -0.0
  outer loop
    vertex 26.917890605023583 198.79400100502346 117.475
    vertex 18.987668400000086 204.87907452360798 15.875
    vertex 26.917890605023583 198.79400100502346 15.875
  endloop
endfacet
facet normal -0.6087614290087199 -0.7933533402912357 -0.0
  outer loop
    vertex 18.987668400000086 204.87907452360798 15.875
    vertex 26.917890605023583 198.79400100502346 117.475
    vertex 18.987668400000086 204.87907452360798 117.475
  endloop
endfacet
facet normal 0.7933533402912348 -0.608761429008721 0.0
  outer loop
    vertex -27.233053805023395 198.79400100502346 15.875
    vertex -30.825726584677827 194.11193868226187 117.475
    vertex -30.825726584677827 194.11193868226187 15.875
  endloop
endfacet
facet normal 0.7933533402912348 -0.608761429008721 0.0
  outer loop
    vertex -30.825726584677827 194.11193868226187 117.475
    vertex -27.233053805023395 198.79400100502346 15.875
    vertex -27.233053805023395 198.79400100502346 117.475
  endloop
endfacet
facet normal 0.6087614290087207 -0.7933533402912353 0.0
  outer loop
    vertex -19.302831599999916 204.87907452360798 117.475
    vertex -27.233053805023395 198.79400100502346 15.875
    vertex -19.302831599999916 204.87907452360798 15.875
  endloop
endfacet
facet normal 0.6087614290087207 -0.7933533402912353 0.0
  outer loop
    vertex -27.233053805023395 198.79400100502346 15.875
    vertex -19.302831599999916 204.87907452360798 117.475
    vertex -27.233053805023395 198.79400100502346 117.475
  endloop
endfacet
facet normal 0.38268343236509006 -0.9238795325112866 0.0
  outer loop
    vertex -10.067892246498007 208.70431165152152 117.475
    vertex -19.302831599999916 204.87907452360798 15.875
    vertex -10.067892246498007 208.70431165152152 15.875
  endloop
endfacet
facet normal 0.38268343236509006 -0.9238795325112866 0.0
  outer loop
    vertex -19.302831599999916 204.87907452360798 15.875
    vertex -10.067892246498007 208.70431165152152 117.475
    vertex -19.302831599999916 204.87907452360798 117.475
  endloop
endfacet
facet normal -0.13052619222005235 -0.9914448613738104 -0.0
  outer loop
    vertex 9.752729046498159 208.70431165152152 117.475
    vertex -0.15758159999990662 210.00902879999995 15.875
    vertex 9.752729046498159 208.70431165152152 15.875
  endloop
endfacet
facet normal -0.13052619222005235 -0.9914448613738104 -0.0
  outer loop
    vertex -0.15758159999990662 210.00902879999995 15.875
    vertex 9.752729046498159 208.70431165152152 117.475
    vertex -0.15758159999990662 210.00902879999995 117.475
  endloop
endfacet
facet normal 0.0 0.0 1.0
  outer loop
    vertex -35.90278014120262 151.08102879999993 130.17499999999998
    vertex -38.44808159999989 171.71852879999997 130.17499999999998
    vertex -40.02617008008121 161.03577271339338 130.17499999999998
  endloop
endfacet
facet normal 0.0 0.0 1.0
  outer loop
    vertex -38.44808159999989 171.71852879999997 130.17499999999998
    vertex -35.90278014120262 151.08102879999993 130.17499999999998
    vertex -37.14336445152145 161.80821815350185 130.17499999999998
  endloop
endfacet
facet normal 0.0 0.0 1.0
  outer loop
    vertex -37.14336445152145 161.80821815350185 130.17499999999998
    vertex -35.90278014120262 151.08102879999993 130.17499999999998
    vertex -33.31812732360793 152.57327879999997 130.17499999999998
  endloop
endfacet
facet normal 0.0 0.0 1.0
  outer loop
    vertex -33.31812732360793 152.57327879999997 130.17499999999998
    vertex -35.90278014120262 151.08102879999993 130.17499999999998
    vertex -30.825726584677827 144.46448378586314 130.17499999999998
  endloop
endfacet
facet normal 0.0 0.0 1.0
  outer loop
    vertex -33.31812732360793 152.57327879999997 130.17499999999998
    vertex -30.825726584677827 144.46448378586314 130.17499999999998
    vertex -30.825726584677827 149.32511891773805 130.17499999999998
  endloop
endfacet
facet normal 0.0 0.0 1.0
  outer loop
    vertex -30.825726584677827 149.32511891773805 130.17499999999998
    vertex -30.825726584677827 144.46448378586314 130.17499999999998
    vertex -29.343413993474652 142.5326964065252 130.17499999999998
  endloop
endfacet
facet normal 0.0 0.0 1.0
  outer loop
    vertex -30.825726584677827 149.32511891773805 130.17499999999998
    vertex -29.343413993474652 142.5326964065252 130.17499999999998
    vertex -27.233053805023374 144.64305659497649 130.17499999999998
  endloop
endfacet
facet normal 0.0 0.0 1.0
  outer loop
    vertex -27.233053805023374 144.64305659497649 130.17499999999998
    vertex -29.343413993474652 142.5326964065252 130.17499999999998
    vertex -20.795081599999904 135.97333025879723 130.17499999999998
  endloop
endfacet
facet normal 0.0 0.0 1.0
  outer loop
    vertex -27.233053805023374 144.64305659497649 130.17499999999998
    vertex -20.795081599999904 135.97333025879723 130.17499999999998
    vertex -19.302831599999887 138.55798307639193 130.17499999999998
  endloop
endfacet
facet normal 0.0 0.0 1.0
  outer loop
    vertex -19.302831599999887 138.55798307639193 130.17499999999998
    vertex -20.795081599999904 135.97333025879723 130.17499999999998
    vertex -10.840337686606441 131.84994031991866 130.17499999999998
  endloop
endfacet
facet normal 0.0 0.0 1.0
  outer loop
    vertex -19.302831599999887 138.55798307639193 130.17499999999998
    vertex -10.840337686606441 131.84994031991866 130.17499999999998
    vertex -10.06789224649796 134.73274594847842 130.17499999999998
  endloop
endfacet
facet normal 0.0 0.0 1.0
  outer loop
    vertex -10.06789224649796 134.73274594847842 130.17499999999998
    vertex -10.840337686606441 131.84994031991866 130.17499999999998
    vertex -0.15758159999990096 130.44352879999994 130.17499999999998
  endloop
endfacet
facet normal 0.0 0.0 1.0
  outer loop
    vertex -10.06789224649796 134.73274594847842 130.17499999999998
    vertex -0.15758159999990096 130.44352879999994 130.17499999999998
    vertex -0.15758159999990096 133.4280288 130.17499999999998
  endloop
endfacet
facet normal 0.0 0.0 1.0
  outer loop
    vertex -0.15758159999990096 133.4280288 130.17499999999998
    vertex -0.15758159999990096 130.44352879999994 130.17499999999998
    vertex 10.525174486606655 131.84994031991866 130.17499999999998
  endloop
endfacet
facet normal 0.0 0.0 1.0
  outer loop
    vertex -0.15758159999990096 133.4280288 130.17499999999998
    vertex 10.525174486606655 131.84994031991866 130.17499999999998
    vertex 9.752729046498171 134.73274594847842 130.17499999999998
  endloop
endfacet
facet normal 0.0 0.0 1.0
  outer loop
    vertex 9.752729046498171 134.73274594847842 130.17499999999998
    vertex 10.525174486606655 131.84994031991866 130.17499999999998
    vertex 18.987668400000096 138.55798307639193 130.17499999999998
  endloop
endfacet
facet normal 0.0 0.0 1.0
  outer loop
    vertex 18.987668400000096 138.55798307639193 130.17499999999998
    vertex 10.525174486606655 131.84994031991866 130.17499999999998
    vertex 20.479918400000116 135.97333025879726 130.17499999999998
  endloop
endfacet
facet normal 0.0 0.0 1.0
  outer loop
    vertex 18.987668400000096 138.55798307639193 130.17499999999998
    vertex 20.479918400000116 135.97333025879726 130.17499999999998
    vertex 26.917890605023583 144.64305659497649 130.17499999999998
  endloop
endfacet
facet normal 0.0 0.0 1.0
  outer loop
    vertex 26.917890605023583 144.64305659497649 130.17499999999998
    vertex 20.479918400000116 135.97333025879726 130.17499999999998
    vertex 29.02825079347485 142.53269640652522 130.17499999999998
  endloop
endfacet
facet normal 0.0 0.0 1.0
  outer loop
    vertex 26.917890605023583 144.64305659497649 130.17499999999998
    vertex 29.02825079347485 142.53269640652522 130.17499999999998
    vertex 31.592418400000092 150.73501982344132 130.17499999999998
  endloop
endfacet
facet normal 0.0 0.0 1.0
  outer loop
    vertex 31.592418400000092 150.73501982344132 130.17499999999998
    vertex 29.02825079347485 142.53269640652522 130.17499999999998
    vertex 31.592418400000092 145.87438469156638 130.17499999999998
  endloop
endfacet
facet normal 0.0 0.0 1.0
  outer loop
    vertex 31.592418400000092 150.73501982344132 130.17499999999998
    vertex 31.592418400000092 145.87438469156638 130.17499999999998
    vertex 35.58761694120282 151.08102879999996 130.17499999999998
  endloop
endfacet
facet normal 0.0 0.0 1.0
  outer loop
    vertex 31.592418400000092 150.73501982344132 130.17499999999998
    vertex 35.58761694120282 151.08102879999996 130.17499999999998
    vertex 33.00296412360812 152.57327879999997 130.17499999999998
  endloop
endfacet
facet normal 0.0 0.0 1.0
  outer loop
    vertex 33.00296412360812 152.57327879999997 130.17499999999998
    vertex 35.58761694120282 151.08102879999996 130.17499999999998
    vertex 36.82820125152165 161.8082181535019 130.17499999999998
  endloop
endfacet
facet normal 0.0 0.0 1.0
  outer loop
    vertex 36.82820125152165 161.8082181535019 130.17499999999998
    vertex 35.58761694120282 151.08102879999996 130.17499999999998
    vertex 39.7110068800814 161.0357727133934 130.17499999999998
  endloop
endfacet
facet normal 0.0 0.0 1.0
  outer loop
    vertex 36.82820125152165 161.8082181535019 130.17499999999998
    vertex 39.7110068800814 161.0357727133934 130.17499999999998
    vertex 38.13291840000008 171.71852879999997 130.17499999999998
  endloop
endfacet
facet normal 0.0 0.0 1.0
  outer loop
    vertex 33.00296412360812 190.86377879999998 130.17499999999998
    vertex 31.592418400000092 197.56267290843354 130.17499999999998
    vertex 31.592418400000092 192.70203777655863 130.17499999999998
  endloop
endfacet
facet normal 0.0 0.0 1.0
  outer loop
    vertex 31.592418400000092 197.56267290843354 130.17499999999998
    vertex 33.00296412360812 190.86377879999998 130.17499999999998
    vertex 35.58761694120282 192.3560288 130.17499999999998
  endloop
endfacet
facet normal 0.0 0.0 1.0
  outer loop
    vertex 35.58761694120282 192.3560288 130.17499999999998
    vertex 33.00296412360812 190.86377879999998 130.17499999999998
    vertex 36.82820125152164 181.62883944649803 130.17499999999998
  endloop
endfacet
facet normal 0.0 0.0 1.0
  outer loop
    vertex 35.58761694120282 192.3560288 130.17499999999998
    vertex 36.82820125152164 181.62883944649803 130.17499999999998
    vertex 39.7110068800814 182.4012848866065 130.17499999999998
  endloop
endfacet
facet normal 0.0 0.0 1.0
  outer loop
    vertex 39.7110068800814 182.4012848866065 130.17499999999998
    vertex 36.82820125152164 181.62883944649803 130.17499999999998
    vertex 38.13291840000008 171.71852879999997 130.17499999999998
  endloop
endfacet
facet normal 0.0 0.0 1.0
  outer loop
    vertex 39.7110068800814 182.4012848866065 130.17499999999998
    vertex 38.13291840000008 171.71852879999997 130.17499999999998
    vertex 39.7110068800814 161.0357727133934 130.17499999999998
  endloop
endfacet
facet normal 0.0 0.0 1.0
  outer loop
    vertex 39.7110068800814 182.4012848866065 130.17499999999998
    vertex 39.7110068800814 161.0357727133934 130.17499999999998
    vertex 41.11741840000011 171.71852879999997 130.17499999999998
  endloop
endfacet
facet normal 0.0 0.0 1.0
  outer loop
    vertex -40.02617008008121 161.03577271339338 130.17499999999998
    vertex -40.02617008008123 182.4012848866065 130.17499999999998
    vertex -41.43258159999993 171.71852879999997 130.17499999999998
  endloop
endfacet
facet normal 0.0 0.0 1.0
  outer loop
    vertex -40.02617008008123 182.4012848866065 130.17499999999998
    vertex -40.02617008008121 161.03577271339338 130.17499999999998
    vertex -35.90278014120265 192.35602879999993 130.17499999999998
  endloop
endfacet
facet normal 0.0 0.0 1.0
  outer loop
    vertex -35.90278014120265 192.35602879999993 130.17499999999998
    vertex -40.02617008008121 161.03577271339338 130.17499999999998
    vertex -38.44808159999989 171.71852879999997 130.17499999999998
  endloop
endfacet
facet normal 0.0 0.0 1.0
  outer loop
    vertex -35.90278014120265 192.35602879999993 130.17499999999998
    vertex -38.44808159999989 171.71852879999997 130.17499999999998
    vertex -37.143364451521464 181.628839446498 130.17499999999998
  endloop
endfacet
facet normal 0.0 0.0 1.0
  outer loop
    vertex -35.90278014120265 192.35602879999993 130.17499999999998
    vertex -37.143364451521464 181.628839446498 130.17499999999998
    vertex -33.31812732360796 190.86377879999992 130.17499999999998
  endloop
endfacet
facet normal 0.0 0.0 1.0
  outer loop
    vertex -35.90278014120265 192.35602879999993 130.17499999999998
    vertex -33.31812732360796 190.86377879999992 130.17499999999998
    vertex -30.825726584677827 198.97257381413678 130.17499999999998
  endloop
endfacet
facet normal 0.0 0.0 1.0
  outer loop
    vertex -30.825726584677827 198.97257381413678 130.17499999999998
    vertex -33.31812732360796 190.86377879999992 130.17499999999998
    vertex -30.825726584677827 194.11193868226187 130.17499999999998
  endloop
endfacet
facet normal -0.9914448613738104 0.13052619222005138 0.0
  outer loop
    vertex 38.13291840000008 171.71852879999997 130.17499999999998
    vertex 36.82820125152165 161.8082181535019 3.175
    vertex 36.82820125152165 161.8082181535019 130.17499999999998
  endloop
endfacet
facet normal -0.9914448613738104 0.13052619222005138 0.0
  outer loop
    vertex 36.82820125152165 161.8082181535019 3.175
    vertex 38.13291840000008 171.71852879999997 130.17499999999998
    vertex 38.13291840000008 171.71852879999997 3.175
  endloop
endfacet
facet normal 0.9914448613738104 -0.13052619222005143 0.0
  outer loop
    vertex 41.11741840000011 171.71852879999997 3.175
    vertex 39.7110068800814 161.0357727133934 130.17499999999998
    vertex 39.7110068800814 161.0357727133934 3.175
  endloop
endfacet
facet normal 0.9914448613738104 -0.13052619222005143 0.0
  outer loop
    vertex 39.7110068800814 161.0357727133934 130.17499999999998
    vertex 41.11741840000011 171.71852879999997 3.175
    vertex 41.11741840000011 171.71852879999997 130.17499999999998
  endloop
endfacet
facet normal 0.9914448613738104 0.13052619222005196 0.0
  outer loop
    vertex 39.7110068800814 182.4012848866065 3.175
    vertex 41.11741840000011 171.71852879999997 130.17499999999998
    vertex 41.11741840000011 171.71852879999997 3.175
  endloop
endfacet
facet normal 0.9914448613738104 0.13052619222005196 0.0
  outer loop
    vertex 41.11741840000011 171.71852879999997 130.17499999999998
    vertex 39.7110068800814 182.4012848866065 3.175
    vertex 39.7110068800814 182.4012848866065 130.17499999999998
  endloop
endfacet
facet normal 0.9238795325112866 -0.38268343236509034 0.0
  outer loop
    vertex 39.7110068800814 161.0357727133934 3.175
    vertex 35.58761694120282 151.08102879999996 130.17499999999998
    vertex 35.58761694120282 151.08102879999996 3.175
  endloop
endfacet
facet normal 0.9238795325112866 -0.38268343236509034 0.0
  outer loop
    vertex 35.58761694120282 151.08102879999996 130.17499999999998
    vertex 39.7110068800814 161.0357727133934 3.175
    vertex 39.7110068800814 161.0357727133934 130.17499999999998
  endloop
endfacet
facet normal -0.7933533402912368 -0.6087614290087187 0.0
  outer loop
    vertex 31.592418400000092 192.70203777655863 130.17499999999998
    vertex 33.00296412360812 190.86377879999998 3.175
    vertex 33.00296412360812 190.86377879999998 130.17499999999998
  endloop
endfacet
facet normal -0.7933533402912368 -0.6087614290087187 0.0
  outer loop
    vertex 33.00296412360812 190.86377879999998 3.175
    vertex 31.592418400000092 192.70203777655863 130.17499999999998
    vertex 31.592418400000092 192.70203777655863 3.175
  endloop
endfacet
facet normal -0.7933533402912368 -0.6087614290087187 0.0
  outer loop
    vertex 31.592418400000092 192.70203777655863 3.175
    vertex 31.592418400000092 192.70203777655863 130.17499999999998
    vertex 31.592418400000092 192.70203777655863 117.475
  endloop
endfacet
facet normal -0.7933533402912368 -0.6087614290087187 0.0
  outer loop
    vertex 31.592418400000092 192.70203777655863 3.175
    vertex 31.592418400000092 192.70203777655863 117.475
    vertex 31.592418400000092 192.70203777655863 15.875
  endloop
endfacet
facet normal -0.923879532511287 -0.3826834323650895 -0.0
  outer loop
    vertex 33.00296412360812 190.86377879999998 130.17499999999998
    vertex 36.82820125152164 181.62883944649803 3.175
    vertex 36.82820125152164 181.62883944649803 130.17499999999998
  endloop
endfacet
facet normal -0.923879532511287 -0.3826834323650895 -0.0
  outer loop
    vertex 36.82820125152164 181.62883944649803 3.175
    vertex 33.00296412360812 190.86377879999998 130.17499999999998
    vertex 33.00296412360812 190.86377879999998 3.175
  endloop
endfacet
facet normal -0.7933533402912368 0.6087614290087187 0.0
  outer loop
    vertex 33.00296412360812 152.57327879999997 130.17499999999998
    vertex 31.592418400000092 150.73501982344132 3.175
    vertex 31.592418400000092 150.73501982344132 130.17499999999998
  endloop
endfacet
facet normal -0.7933533402912368 0.6087614290087187 0.0
  outer loop
    vertex 31.592418400000092 150.73501982344132 3.175
    vertex 33.00296412360812 152.57327879999997 130.17499999999998
    vertex 33.00296412360812 152.57327879999997 3.175
  endloop
endfacet
facet normal -0.7933533402912354 0.6087614290087203 0.0
  outer loop
    vertex 31.592418400000092 150.73501982344132 130.17499999999998
    vertex 26.917890605023583 144.64305659497649 3.175
    vertex 26.917890605023583 144.64305659497649 130.17499999999998
  endloop
endfacet
facet normal -0.7933533402912354 0.6087614290087203 0.0
  outer loop
    vertex 26.917890605023583 144.64305659497649 3.175
    vertex 31.592418400000092 150.73501982344132 130.17499999999998
    vertex 31.592418400000092 150.73501982344132 3.175
  endloop
endfacet
facet normal 0.7933533402912342 -0.6087614290087219 0.0
  outer loop
    vertex 31.592418400000092 145.87438469156638 3.175
    vertex 29.02825079347485 142.53269640652522 130.17499999999998
    vertex 29.02825079347485 142.53269640652522 3.175
  endloop
endfacet
facet normal 0.7933533402912342 -0.6087614290087219 0.0
  outer loop
    vertex 29.02825079347485 142.53269640652522 130.17499999999998
    vertex 31.592418400000092 145.87438469156638 3.175
    vertex 31.592418400000092 145.87438469156638 130.17499999999998
  endloop
endfacet
facet normal -0.9238795325112867 0.38268343236509 0.0
  outer loop
    vertex 36.82820125152165 161.8082181535019 130.17499999999998
    vertex 33.00296412360812 152.57327879999997 3.175
    vertex 33.00296412360812 152.57327879999997 130.17499999999998
  endloop
endfacet
facet normal -0.9238795325112867 0.38268343236509 0.0
  outer loop
    vertex 33.00296412360812 152.57327879999997 3.175
    vertex 36.82820125152165 161.8082181535019 130.17499999999998
    vertex 36.82820125152165 161.8082181535019 3.175
  endloop
endfacet
facet normal 0.7933533402912362 -0.6087614290087195 0.0
  outer loop
    vertex 35.58761694120282 151.08102879999996 3.175
    vertex 31.592418400000092 145.87438469156638 130.17499999999998
    vertex 31.592418400000092 145.87438469156638 3.175
  endloop
endfacet
facet normal 0.7933533402912362 -0.6087614290087195 0.0
  outer loop
    vertex 31.592418400000092 145.87438469156638 130.17499999999998
    vertex 35.58761694120282 151.08102879999996 3.175
    vertex 35.58761694120282 151.08102879999996 130.17499999999998
  endloop
endfacet
facet normal 0.9238795325112871 0.38268343236508917 0.0
  outer loop
    vertex 35.58761694120282 192.3560288 3.175
    vertex 39.7110068800814 182.4012848866065 130.17499999999998
    vertex 39.7110068800814 182.4012848866065 3.175
  endloop
endfacet
facet normal 0.9238795325112871 0.38268343236508917 0.0
  outer loop
    vertex 39.7110068800814 182.4012848866065 130.17499999999998
    vertex 35.58761694120282 192.3560288 3.175
    vertex 35.58761694120282 192.3560288 130.17499999999998
  endloop
endfacet
facet normal -0.9914448613738105 -0.13052619222005166 -0.0
  outer loop
    vertex 36.82820125152164 181.62883944649803 130.17499999999998
    vertex 38.13291840000008 171.71852879999997 3.175
    vertex 38.13291840000008 171.71852879999997 130.17499999999998
  endloop
endfacet
facet normal -0.9914448613738105 -0.13052619222005166 -0.0
  outer loop
    vertex 38.13291840000008 171.71852879999997 3.175
    vertex 36.82820125152164 181.62883944649803 130.17499999999998
    vertex 36.82820125152164 181.62883944649803 3.175
  endloop
endfacet
facet normal 0.9914448613738105 0.13052619222005193 0.0
  outer loop
    vertex -38.44808159999989 171.71852879999997 3.175
    vertex -37.14336445152145 161.80821815350185 130.17499999999998
    vertex -37.14336445152145 161.80821815350185 3.175
  endloop
endfacet
facet normal 0.9914448613738105 0.13052619222005193 0.0
  outer loop
    vertex -37.14336445152145 161.80821815350185 130.17499999999998
    vertex -38.44808159999989 171.71852879999997 3.175
    vertex -38.44808159999989 171.71852879999997 130.17499999999998
  endloop
endfacet
facet normal -0.9238795325112866 -0.38268343236509034 -0.0
  outer loop
    vertex -40.02617008008121 161.03577271339338 130.17499999999998
    vertex -35.90278014120262 151.08102879999993 3.175
    vertex -35.90278014120262 151.08102879999993 130.17499999999998
  endloop
endfacet
facet normal -0.9238795325112866 -0.38268343236509034 -0.0
  outer loop
    vertex -35.90278014120262 151.08102879999993 3.175
    vertex -40.02617008008121 161.03577271339338 130.17499999999998
    vertex -40.02617008008121 161.03577271339338 3.175
  endloop
endfacet
facet normal -0.6087614290087208 0.793353340291235 0.0
  outer loop
    vertex 18.987668400000096 138.55798307639193 130.17499999999998
    vertex 26.917890605023583 144.64305659497649 3.175
    vertex 18.987668400000096 138.55798307639193 3.175
  endloop
endfacet
facet normal -0.6087614290087208 0.793353340291235 0.0
  outer loop
    vertex 26.917890605023583 144.64305659497649 3.175
    vertex 18.987668400000096 138.55798307639193 130.17499999999998
    vertex 26.917890605023583 144.64305659497649 130.17499999999998
  endloop
endfacet
facet normal 0.6087614290087203 0.7933533402912354 0.0
  outer loop
    vertex -27.233053805023374 144.64305659497649 130.17499999999998
    vertex -19.302831599999887 138.55798307639193 3.175
    vertex -27.233053805023374 144.64305659497649 3.175
  endloop
endfacet
facet normal 0.6087614290087203 0.7933533402912354 0.0
  outer loop
    vertex -19.302831599999887 138.55798307639193 3.175
    vertex -27.233053805023374 144.64305659497649 130.17499999999998
    vertex -19.302831599999887 138.55798307639193 130.17499999999998
  endloop
endfacet
facet normal 0.9914448613738104 -0.13052619222005138 0.0
  outer loop
    vertex -37.143364451521464 181.628839446498 3.175
    vertex -38.44808159999989 171.71852879999997 130.17499999999998
    vertex -38.44808159999989 171.71852879999997 3.175
  endloop
endfacet
facet normal 0.9914448613738104 -0.13052619222005138 0.0
  outer loop
    vertex -38.44808159999989 171.71852879999997 130.17499999999998
    vertex -37.143364451521464 181.628839446498 3.175
    vertex -37.143364451521464 181.628839446498 130.17499999999998
  endloop
endfacet
facet normal -0.3826834323650894 0.9238795325112868 0.0
  outer loop
    vertex 9.752729046498171 134.73274594847842 130.17499999999998
    vertex 18.987668400000096 138.55798307639193 3.175
    vertex 9.752729046498171 134.73274594847842 3.175
  endloop
endfacet
facet normal -0.3826834323650894 0.9238795325112868 0.0
  outer loop
    vertex 18.987668400000096 138.55798307639193 3.175
    vertex 9.752729046498171 134.73274594847842 130.17499999999998
    vertex 18.987668400000096 138.55798307639193 130.17499999999998
  endloop
endfacet
facet normal -0.9914448613738105 0.1305261922200512 0.0
  outer loop
    vertex -40.02617008008123 182.4012848866065 130.17499999999998
    vertex -41.43258159999993 171.71852879999997 3.175
    vertex -41.43258159999993 171.71852879999997 130.17499999999998
  endloop
endfacet
facet normal -0.9914448613738105 0.1305261922200512 0.0
  outer loop
    vertex -41.43258159999993 171.71852879999997 3.175
    vertex -40.02617008008123 182.4012848866065 130.17499999999998
    vertex -40.02617008008123 182.4012848866065 3.175
  endloop
endfacet
facet normal 0.608761429008721 -0.7933533402912348 0.0
  outer loop
    vertex 29.02825079347485 142.53269640652522 130.17499999999998
    vertex 20.479918400000116 135.97333025879726 3.175
    vertex 29.02825079347485 142.53269640652522 3.175
  endloop
endfacet
facet normal 0.608761429008721 -0.7933533402912348 0.0
  outer loop
    vertex 20.479918400000116 135.97333025879726 3.175
    vertex 29.02825079347485 142.53269640652522 130.17499999999998
    vertex 20.479918400000116 135.97333025879726 130.17499999999998
  endloop
endfacet
facet normal 0.1305261922200525 0.9914448613738104 0.0
  outer loop
    vertex -10.06789224649796 134.73274594847842 130.17499999999998
    vertex -0.15758159999990096 133.4280288 3.175
    vertex -10.06789224649796 134.73274594847842 3.175
  endloop
endfacet
facet normal 0.1305261922200525 0.9914448613738104 0.0
  outer loop
    vertex -0.15758159999990096 133.4280288 3.175
    vertex -10.06789224649796 134.73274594847842 130.17499999999998
    vertex -0.15758159999990096 133.4280288 130.17499999999998
  endloop
endfacet
facet normal 0.7933533402912369 0.6087614290087185 0.0
  outer loop
    vertex -33.31812732360793 152.57327879999997 3.175
    vertex -30.825726584677827 149.32511891773805 130.17499999999998
    vertex -30.825726584677827 149.32511891773805 3.175
  endloop
endfacet
facet normal 0.7933533402912369 0.6087614290087185 0.0
  outer loop
    vertex -30.825726584677827 149.32511891773805 130.17499999999998
    vertex -33.31812732360793 152.57327879999997 3.175
    vertex -33.31812732360793 152.57327879999997 130.17499999999998
  endloop
endfacet
facet normal 0.38268343236509017 -0.9238795325112866 0.0
  outer loop
    vertex 20.479918400000116 135.97333025879726 130.17499999999998
    vertex 10.525174486606655 131.84994031991866 3.175
    vertex 20.479918400000116 135.97333025879726 3.175
  endloop
endfacet
facet normal 0.38268343236509017 -0.9238795325112866 0.0
  outer loop
    vertex 10.525174486606655 131.84994031991866 3.175
    vertex 20.479918400000116 135.97333025879726 130.17499999999998
    vertex 10.525174486606655 131.84994031991866 130.17499999999998
  endloop
endfacet
facet normal 0.9238795325112863 0.3826834323650907 0.0
  outer loop
    vertex -37.14336445152145 161.80821815350185 3.175
    vertex -33.31812732360793 152.57327879999997 130.17499999999998
    vertex -33.31812732360793 152.57327879999997 3.175
  endloop
endfacet
facet normal 0.9238795325112863 0.3826834323650907 0.0
  outer loop
    vertex -33.31812732360793 152.57327879999997 130.17499999999998
    vertex -37.14336445152145 161.80821815350185 3.175
    vertex -37.14336445152145 161.80821815350185 130.17499999999998
  endloop
endfacet
facet normal 0.793353340291233 0.6087614290087234 0.0
  outer loop
    vertex -30.825726584677827 149.32511891773805 3.175
    vertex -27.233053805023374 144.64305659497649 130.17499999999998
    vertex -27.233053805023374 144.64305659497649 3.175
  endloop
endfacet
facet normal 0.793353340291233 0.6087614290087234 0.0
  outer loop
    vertex -27.233053805023374 144.64305659497649 130.17499999999998
    vertex -30.825726584677827 149.32511891773805 3.175
    vertex -30.825726584677827 149.32511891773805 130.17499999999998
  endloop
endfacet
facet normal -0.6087614290087207 -0.7933533402912352 -0.0
  outer loop
    vertex -20.795081599999904 135.97333025879723 130.17499999999998
    vertex -29.343413993474652 142.5326964065252 3.175
    vertex -20.795081599999904 135.97333025879723 3.175
  endloop
endfacet
facet normal -0.6087614290087207 -0.7933533402912352 -0.0
  outer loop
    vertex -29.343413993474652 142.5326964065252 3.175
    vertex -20.795081599999904 135.97333025879723 130.17499999999998
    vertex -29.343413993474652 142.5326964065252 130.17499999999998
  endloop
endfacet
facet normal -0.923879532511287 0.3826834323650894 0.0
  outer loop
    vertex -35.90278014120265 192.35602879999993 130.17499999999998
    vertex -40.02617008008123 182.4012848866065 3.175
    vertex -40.02617008008123 182.4012848866065 130.17499999999998
  endloop
endfacet
facet normal -0.923879532511287 0.3826834323650894 0.0
  outer loop
    vertex -40.02617008008123 182.4012848866065 3.175
    vertex -35.90278014120265 192.35602879999993 130.17499999999998
    vertex -35.90278014120265 192.35602879999993 3.175
  endloop
endfacet
facet normal -0.7933533402912353 -0.6087614290087205 -0.0
  outer loop
    vertex -35.90278014120262 151.08102879999993 130.17499999999998
    vertex -30.825726584677827 144.46448378586314 3.175
    vertex -30.825726584677827 144.46448378586314 130.17499999999998
  endloop
endfacet
facet normal -0.7933533402912353 -0.6087614290087205 -0.0
  outer loop
    vertex -30.825726584677827 144.46448378586314 3.175
    vertex -35.90278014120262 151.08102879999993 130.17499999999998
    vertex -35.90278014120262 151.08102879999993 3.175
  endloop
endfacet
facet normal -0.9914448613738104 -0.1305261922200522 -0.0
  outer loop
    vertex -41.43258159999993 171.71852879999997 130.17499999999998
    vertex -40.02617008008121 161.03577271339338 3.175
    vertex -40.02617008008121 161.03577271339338 130.17499999999998
  endloop
endfacet
facet normal -0.9914448613738104 -0.1305261922200522 -0.0
  outer loop
    vertex -40.02617008008121 161.03577271339338 3.175
    vertex -41.43258159999993 171.71852879999997 130.17499999999998
    vertex -41.43258159999993 171.71852879999997 3.175
  endloop
endfacet
facet normal -0.13052619222005213 -0.9914448613738105 -0.0
  outer loop
    vertex -0.15758159999990096 130.44352879999994 130.17499999999998
    vertex -10.840337686606441 131.84994031991866 3.175
    vertex -0.15758159999990096 130.44352879999994 3.175
  endloop
endfacet
facet normal -0.13052619222005213 -0.9914448613738105 -0.0
  outer loop
    vertex -10.840337686606441 131.84994031991866 3.175
    vertex -0.15758159999990096 130.44352879999994 130.17499999999998
    vertex -10.840337686606441 131.84994031991866 130.17499999999998
  endloop
endfacet
facet normal 0.7933533402912376 -0.6087614290087175 0.0
  outer loop
    vertex -30.825726584677827 194.11193868226187 3.175
    vertex -33.31812732360796 190.86377879999992 130.17499999999998
    vertex -33.31812732360796 190.86377879999992 3.175
  endloop
endfacet
facet normal 0.7933533402912376 -0.6087614290087175 0.0
  outer loop
    vertex -33.31812732360796 190.86377879999992 130.17499999999998
    vertex -30.825726584677827 194.11193868226187 3.175
    vertex -30.825726584677827 194.11193868226187 130.17499999999998
  endloop
endfacet
facet normal 0.7933533402912376 -0.6087614290087175 0.0
  outer loop
    vertex -30.825726584677827 194.11193868226187 130.17499999999998
    vertex -30.825726584677827 194.11193868226187 3.175
    vertex -30.825726584677827 194.11193868226187 15.875
  endloop
endfacet
facet normal 0.7933533402912376 -0.6087614290087175 0.0
  outer loop
    vertex -30.825726584677827 194.11193868226187 130.17499999999998
    vertex -30.825726584677827 194.11193868226187 15.875
    vertex -30.825726584677827 194.11193868226187 117.475
  endloop
endfacet
facet normal -0.7933533402912345 -0.6087614290087217 -0.0
  outer loop
    vertex -30.825726584677827 144.46448378586314 130.17499999999998
    vertex -29.343413993474652 142.5326964065252 3.175
    vertex -29.343413993474652 142.5326964065252 130.17499999999998
  endloop
endfacet
facet normal -0.7933533402912345 -0.6087614290087217 -0.0
  outer loop
    vertex -29.343413993474652 142.5326964065252 3.175
    vertex -30.825726584677827 144.46448378586314 130.17499999999998
    vertex -30.825726584677827 144.46448378586314 3.175
  endloop
endfacet
facet normal 0.3826834323650894 0.9238795325112868 0.0
  outer loop
    vertex -19.302831599999887 138.55798307639193 130.17499999999998
    vertex -10.06789224649796 134.73274594847842 3.175
    vertex -19.302831599999887 138.55798307639193 3.175
  endloop
endfacet
facet normal 0.3826834323650894 0.9238795325112868 0.0
  outer loop
    vertex -10.06789224649796 134.73274594847842 3.175
    vertex -19.302831599999887 138.55798307639193 130.17499999999998
    vertex -10.06789224649796 134.73274594847842 130.17499999999998
  endloop
endfacet
facet normal 0.923879532511287 -0.3826834323650893 0.0
  outer loop
    vertex -33.31812732360796 190.86377879999992 3.175
    vertex -37.143364451521464 181.628839446498 130.17499999999998
    vertex -37.143364451521464 181.628839446498 3.175
  endloop
endfacet
facet normal 0.923879532511287 -0.3826834323650893 0.0
  outer loop
    vertex -37.143364451521464 181.628839446498 130.17499999999998
    vertex -33.31812732360796 190.86377879999992 3.175
    vertex -33.31812732360796 190.86377879999992 130.17499999999998
  endloop
endfacet
facet normal 0.13052619222005193 -0.9914448613738105 0.0
  outer loop
    vertex 10.525174486606655 131.84994031991866 130.17499999999998
    vertex -0.15758159999990096 130.44352879999994 3.175
    vertex 10.525174486606655 131.84994031991866 3.175
  endloop
endfacet
facet normal 0.13052619222005193 -0.9914448613738105 0.0
  outer loop
    vertex -0.15758159999990096 130.44352879999994 3.175
    vertex 10.525174486606655 131.84994031991866 130.17499999999998
    vertex -0.15758159999990096 130.44352879999994 130.17499999999998
  endloop
endfacet
facet normal -0.13052619222005227 0.9914448613738104 0.0
  outer loop
    vertex -0.15758159999990096 133.4280288 130.17499999999998
    vertex 9.752729046498171 134.73274594847842 3.175
    vertex -0.15758159999990096 133.4280288 3.175
  endloop
endfacet
facet normal -0.13052619222005227 0.9914448613738104 0.0
  outer loop
    vertex 9.752729046498171 134.73274594847842 3.175
    vertex -0.15758159999990096 133.4280288 130.17499999999998
    vertex 9.752729046498171 134.73274594847842 130.17499999999998
  endloop
endfacet
facet normal -0.3826834323650884 -0.9238795325112874 -0.0
  outer loop
    vertex -10.840337686606441 131.84994031991866 130.17499999999998
    vertex -20.795081599999904 135.97333025879723 3.175
    vertex -10.840337686606441 131.84994031991866 3.175
  endloop
endfacet
facet normal -0.3826834323650884 -0.9238795325112874 -0.0
  outer loop
    vertex -20.795081599999904 135.97333025879723 3.175
    vertex -10.840337686606441 131.84994031991866 130.17499999999998
    vertex -20.795081599999904 135.97333025879723 130.17499999999998
  endloop
endfacet
facet normal 0.0 0.0 -1.0
  outer loop
    vertex -40.02617008008123 182.4012848866065 3.175
    vertex -40.02617008008121 161.03577271339338 3.175
    vertex -41.43258159999993 171.71852879999997 3.175
  endloop
endfacet
facet normal 0.0 0.0 -1.0
  outer loop
    vertex -40.02617008008121 161.03577271339338 3.175
    vertex -40.02617008008123 182.4012848866065 3.175
    vertex -35.90278014120265 192.35602879999993 3.175
  endloop
endfacet
facet normal 0.0 0.0 -1.0
  outer loop
    vertex -40.02617008008121 161.03577271339338 3.175
    vertex -35.90278014120265 192.35602879999993 3.175
    vertex -38.44808159999989 171.71852879999997 3.175
  endloop
endfacet
facet normal 0.0 0.0 -1.0
  outer loop
    vertex -38.44808159999989 171.71852879999997 3.175
    vertex -35.90278014120265 192.35602879999993 3.175
    vertex -37.143364451521464 181.628839446498 3.175
  endloop
endfacet
facet normal 0.0 0.0 -1.0
  outer loop
    vertex -37.143364451521464 181.628839446498 3.175
    vertex -35.90278014120265 192.35602879999993 3.175
    vertex -33.31812732360796 190.86377879999992 3.175
  endloop
endfacet
facet normal 0.0 0.0 -1.0
  outer loop
    vertex -33.31812732360796 190.86377879999992 3.175
    vertex -35.90278014120265 192.35602879999993 3.175
    vertex -30.825726584677827 198.97257381413678 3.175
  endloop
endfacet
facet normal 0.0 0.0 -1.0
  outer loop
    vertex -33.31812732360796 190.86377879999992 3.175
    vertex -30.825726584677827 198.97257381413678 3.175
    vertex -30.825726584677827 194.11193868226187 3.175
  endloop
endfacet
facet normal 0.0 0.0 -1.0
  outer loop
    vertex 35.58761694120282 192.3560288 3.175
    vertex 31.592418400000092 192.70203777655863 3.175
    vertex 31.592418400000092 197.56267290843354 3.175
  endloop
endfacet
facet normal 0.0 0.0 -1.0
  outer loop
    vertex 31.592418400000092 192.70203777655863 3.175
    vertex 35.58761694120282 192.3560288 3.175
    vertex 33.00296412360812 190.86377879999998 3.175
  endloop
endfacet
facet normal 0.0 0.0 -1.0
  outer loop
    vertex 33.00296412360812 190.86377879999998 3.175
    vertex 35.58761694120282 192.3560288 3.175
    vertex 36.82820125152164 181.62883944649803 3.175
  endloop
endfacet
facet normal 0.0 0.0 -1.0
  outer loop
    vertex 36.82820125152164 181.62883944649803 3.175
    vertex 35.58761694120282 192.3560288 3.175
    vertex 39.7110068800814 182.4012848866065 3.175
  endloop
endfacet
facet normal 0.0 0.0 -1.0
  outer loop
    vertex 36.82820125152164 181.62883944649803 3.175
    vertex 39.7110068800814 182.4012848866065 3.175
    vertex 38.13291840000008 171.71852879999997 3.175
  endloop
endfacet
facet normal 0.0 0.0 -1.0
  outer loop
    vertex -38.44808159999989 171.71852879999997 3.175
    vertex -35.90278014120262 151.08102879999993 3.175
    vertex -40.02617008008121 161.03577271339338 3.175
  endloop
endfacet
facet normal 0.0 0.0 -1.0
  outer loop
    vertex -35.90278014120262 151.08102879999993 3.175
    vertex -38.44808159999989 171.71852879999997 3.175
    vertex -37.14336445152145 161.80821815350185 3.175
  endloop
endfacet
facet normal 0.0 0.0 -1.0
  outer loop
    vertex -35.90278014120262 151.08102879999993 3.175
    vertex -37.14336445152145 161.80821815350185 3.175
    vertex -33.31812732360793 152.57327879999997 3.175
  endloop
endfacet
facet normal 0.0 0.0 -1.0
  outer loop
    vertex -35.90278014120262 151.08102879999993 3.175
    vertex -33.31812732360793 152.57327879999997 3.175
    vertex -30.825726584677827 144.46448378586314 3.175
  endloop
endfacet
facet normal 0.0 0.0 -1.0
  outer loop
    vertex -30.825726584677827 144.46448378586314 3.175
    vertex -33.31812732360793 152.57327879999997 3.175
    vertex -30.825726584677827 149.32511891773805 3.175
  endloop
endfacet
facet normal 0.0 0.0 -1.0
  outer loop
    vertex -30.825726584677827 144.46448378586314 3.175
    vertex -30.825726584677827 149.32511891773805 3.175
    vertex -27.233053805023374 144.64305659497649 3.175
  endloop
endfacet
facet normal 0.0 0.0 -1.0
  outer loop
    vertex -30.825726584677827 144.46448378586314 3.175
    vertex -27.233053805023374 144.64305659497649 3.175
    vertex -29.343413993474652 142.5326964065252 3.175
  endloop
endfacet
facet normal 0.0 0.0 -1.0
  outer loop
    vertex -29.343413993474652 142.5326964065252 3.175
    vertex -27.233053805023374 144.64305659497649 3.175
    vertex -20.795081599999904 135.97333025879723 3.175
  endloop
endfacet
facet normal 0.0 0.0 -1.0
  outer loop
    vertex -20.795081599999904 135.97333025879723 3.175
    vertex -27.233053805023374 144.64305659497649 3.175
    vertex -19.302831599999887 138.55798307639193 3.175
  endloop
endfacet
facet normal 0.0 0.0 -1.0
  outer loop
    vertex -20.795081599999904 135.97333025879723 3.175
    vertex -19.302831599999887 138.55798307639193 3.175
    vertex -10.840337686606441 131.84994031991866 3.175
  endloop
endfacet
facet normal 0.0 0.0 -1.0
  outer loop
    vertex -10.840337686606441 131.84994031991866 3.175
    vertex -19.302831599999887 138.55798307639193 3.175
    vertex -10.06789224649796 134.73274594847842 3.175
  endloop
endfacet
facet normal 0.0 0.0 -1.0
  outer loop
    vertex -10.840337686606441 131.84994031991866 3.175
    vertex -10.06789224649796 134.73274594847842 3.175
    vertex -0.15758159999990096 130.44352879999994 3.175
  endloop
endfacet
facet normal 0.0 0.0 -1.0
  outer loop
    vertex -0.15758159999990096 130.44352879999994 3.175
    vertex -10.06789224649796 134.73274594847842 3.175
    vertex -0.15758159999990096 133.4280288 3.175
  endloop
endfacet
facet normal 0.0 0.0 -1.0
  outer loop
    vertex -0.15758159999990096 130.44352879999994 3.175
    vertex -0.15758159999990096 133.4280288 3.175
    vertex 9.752729046498171 134.73274594847842 3.175
  endloop
endfacet
facet normal 0.0 0.0 -1.0
  outer loop
    vertex -0.15758159999990096 130.44352879999994 3.175
    vertex 9.752729046498171 134.73274594847842 3.175
    vertex 10.525174486606655 131.84994031991866 3.175
  endloop
endfacet
facet normal 0.0 0.0 -1.0
  outer loop
    vertex 10.525174486606655 131.84994031991866 3.175
    vertex 9.752729046498171 134.73274594847842 3.175
    vertex 18.987668400000096 138.55798307639193 3.175
  endloop
endfacet
facet normal 0.0 0.0 -1.0
  outer loop
    vertex 10.525174486606655 131.84994031991866 3.175
    vertex 18.987668400000096 138.55798307639193 3.175
    vertex 20.479918400000116 135.97333025879726 3.175
  endloop
endfacet
facet normal 0.0 0.0 -1.0
  outer loop
    vertex 20.479918400000116 135.97333025879726 3.175
    vertex 18.987668400000096 138.55798307639193 3.175
    vertex 26.917890605023583 144.64305659497649 3.175
  endloop
endfacet
facet normal 0.0 0.0 -1.0
  outer loop
    vertex 20.479918400000116 135.97333025879726 3.175
    vertex 26.917890605023583 144.64305659497649 3.175
    vertex 29.02825079347485 142.53269640652522 3.175
  endloop
endfacet
facet normal 0.0 0.0 -1.0
  outer loop
    vertex 29.02825079347485 142.53269640652522 3.175
    vertex 26.917890605023583 144.64305659497649 3.175
    vertex 31.592418400000092 150.73501982344132 3.175
  endloop
endfacet
facet normal 0.0 0.0 -1.0
  outer loop
    vertex 29.02825079347485 142.53269640652522 3.175
    vertex 31.592418400000092 150.73501982344132 3.175
    vertex 31.592418400000092 145.87438469156638 3.175
  endloop
endfacet
facet normal 0.0 0.0 -1.0
  outer loop
    vertex 31.592418400000092 145.87438469156638 3.175
    vertex 31.592418400000092 150.73501982344132 3.175
    vertex 33.00296412360812 152.57327879999997 3.175
  endloop
endfacet
facet normal 0.0 0.0 -1.0
  outer loop
    vertex 31.592418400000092 145.87438469156638 3.175
    vertex 33.00296412360812 152.57327879999997 3.175
    vertex 35.58761694120282 151.08102879999996 3.175
  endloop
endfacet
facet normal 0.0 0.0 -1.0
  outer loop
    vertex 35.58761694120282 151.08102879999996 3.175
    vertex 33.00296412360812 152.57327879999997 3.175
    vertex 36.82820125152165 161.8082181535019 3.175
  endloop
endfacet
facet normal 0.0 0.0 -1.0
  outer loop
    vertex 35.58761694120282 151.08102879999996 3.175
    vertex 36.82820125152165 161.8082181535019 3.175
    vertex 39.7110068800814 161.0357727133934 3.175
  endloop
endfacet
facet normal 0.0 0.0 -1.0
  outer loop
    vertex 39.7110068800814 161.0357727133934 3.175
    vertex 36.82820125152165 161.8082181535019 3.175
    vertex 38.13291840000008 171.71852879999997 3.175
  endloop
endfacet
facet normal 0.0 0.0 -1.0
  outer loop
    vertex 39.7110068800814 161.0357727133934 3.175
    vertex 38.13291840000008 171.71852879999997 3.175
    vertex 39.7110068800814 182.4012848866065 3.175
  endloop
endfacet
facet normal 0.0 0.0 -1.0
  outer loop
    vertex 39.7110068800814 161.0357727133934 3.175
    vertex 39.7110068800814 182.4012848866065 3.175
    vertex 41.11741840000011 171.71852879999997 3.175
  endloop
endfacet
facet normal -0.7933533402912343 -0.6087614290087218 0.0
  outer loop
    vertex 26.917890605023583 198.79400100502346 117.475
    vertex 31.592418400000092 192.70203777655863 15.875
    vertex 31.592418400000092 192.70203777655863 117.475
  endloop
endfacet
facet normal -0.7933533402912343 -0.6087614290087218 0.0
  outer loop
    vertex 31.592418400000092 192.70203777655863 15.875
    vertex 26.917890605023583 198.79400100502346 117.475
    vertex 26.917890605023583 198.79400100502346 15.875
  endloop
endfacet
facet normal 1.0 0.0 0.0
  outer loop
    vertex -30.825726584677827 198.97257381413678 114.3
    vertex -30.825726584677827 194.11193868226187 130.17499999999998
    vertex -30.825726584677827 194.11193868226187 117.475
  endloop
endfacet
facet normal 1.0 0.0 0.0
  outer loop
    vertex -30.825726584677827 194.11193868226187 130.17499999999998
    vertex -30.825726584677827 198.97257381413678 114.3
    vertex -30.825726584677827 198.97257381413678 130.17499999999998
  endloop
endfacet
facet normal -0.580383095122535 0.44534361225428093 0.6817804118044866
  outer loop
    vertex -27.233053805023395 198.79400100502346 117.475
    vertex -30.825726584677827 198.97257381413678 114.3
    vertex -30.825726584677827 194.11193868226187 117.475
  endloop
endfacet
facet normal -0.580383095122535 0.44534361225428093 0.6817804118044866
  outer loop
    vertex -30.825726584677827 198.97257381413678 114.3
    vertex -27.233053805023395 198.79400100502346 117.475
    vertex -29.343413993474677 200.90436119347476 114.3
  endloop
endfacet
facet normal -0.4453436122542803 0.5803830951225347 0.6817804118044871
  outer loop
    vertex -27.233053805023395 198.79400100502346 117.475
    vertex -20.795081599999936 207.46372734120268 114.3
    vertex -29.343413993474677 200.90436119347476 114.3
  endloop
endfacet
facet normal -0.4453436122542803 0.5803830951225347 0.6817804118044871
  outer loop
    vertex -20.795081599999936 207.46372734120268 114.3
    vertex -27.233053805023395 198.79400100502346 117.475
    vertex -19.302831599999916 204.87907452360798 117.475
  endloop
endfacet
facet normal -0.27995469817601537 0.6758704291866013 0.6817804118044867
  outer loop
    vertex -19.302831599999916 204.87907452360798 117.475
    vertex -10.840337686606492 211.58711728008126 114.3
    vertex -20.795081599999936 207.46372734120268 114.3
  endloop
endfacet
facet normal -0.27995469817601537 0.6758704291866013 0.6817804118044867
  outer loop
    vertex -10.840337686606492 211.58711728008126 114.3
    vertex -19.302831599999916 204.87907452360798 117.475
    vertex -10.067892246498007 208.70431165152152 117.475
  endloop
endfacet
facet normal -0.09548733406406688 0.7252983104302956 0.681780411804487
  outer loop
    vertex -10.067892246498007 208.70431165152152 117.475
    vertex -0.15758159999990662 212.99352879999998 114.3
    vertex -10.840337686606492 211.58711728008126 114.3
  endloop
endfacet
facet normal -0.09548733406406688 0.7252983104302956 0.681780411804487
  outer loop
    vertex -0.15758159999990662 212.99352879999998 114.3
    vertex -10.067892246498007 208.70431165152152 117.475
    vertex -0.15758159999990662 210.00902879999995 117.475
  endloop
endfacet
facet normal 0.0954873340640672 0.7252983104302956 0.681780411804487
  outer loop
    vertex -0.15758159999990662 210.00902879999995 117.475
    vertex 10.525174486606645 211.58711728008126 114.3
    vertex -0.15758159999990662 212.99352879999998 114.3
  endloop
endfacet
facet normal 0.0954873340640672 0.7252983104302956 0.681780411804487
  outer loop
    vertex 10.525174486606645 211.58711728008126 114.3
    vertex -0.15758159999990662 210.00902879999995 117.475
    vertex 9.752729046498159 208.70431165152152 117.475
  endloop
endfacet
facet normal 0.27995469817601487 0.6758704291866013 0.681780411804487
  outer loop
    vertex 18.987668400000086 204.87907452360798 117.475
    vertex 10.525174486606645 211.58711728008126 114.3
    vertex 9.752729046498159 208.70431165152152 117.475
  endloop
endfacet
facet normal 0.27995469817601487 0.6758704291866013 0.681780411804487
  outer loop
    vertex 10.525174486606645 211.58711728008126 114.3
    vertex 18.987668400000086 204.87907452360798 117.475
    vertex 20.479918400000102 207.46372734120268 114.3
  endloop
endfacet
facet normal 0.44534361225428004 0.5803830951225352 0.6817804118044869
  outer loop
    vertex 26.917890605023583 198.79400100502346 117.475
    vertex 20.479918400000102 207.46372734120268 114.3
    vertex 18.987668400000086 204.87907452360798 117.475
  endloop
endfacet
facet normal 0.44534361225428004 0.5803830951225352 0.6817804118044869
  outer loop
    vertex 20.479918400000102 207.46372734120268 114.3
    vertex 26.917890605023583 198.79400100502346 117.475
    vertex 29.02825079347485 200.90436119347476 114.3
  endloop
endfacet
facet normal 0.5803830951225348 0.4453436122542815 0.6817804118044862
  outer loop
    vertex 31.592418400000092 192.70203777655863 117.475
    vertex 29.02825079347485 200.90436119347476 114.3
    vertex 26.917890605023583 198.79400100502346 117.475
  endloop
endfacet
facet normal 0.5803830951225348 0.4453436122542815 0.6817804118044862
  outer loop
    vertex 29.02825079347485 200.90436119347476 114.3
    vertex 31.592418400000092 192.70203777655863 117.475
    vertex 31.592418400000092 197.56267290843354 114.3
  endloop
endfacet
facet normal -1.0 0.0 0.0
  outer loop
    vertex 31.592418400000092 197.56267290843354 130.17499999999998
    vertex 31.592418400000092 192.70203777655863 117.475
    vertex 31.592418400000092 192.70203777655863 130.17499999999998
  endloop
endfacet
facet normal -1.0 0.0 0.0
  outer loop
    vertex 31.592418400000092 192.70203777655863 117.475
    vertex 31.592418400000092 197.56267290843354 130.17499999999998
    vertex 31.592418400000092 197.56267290843354 114.3
  endloop
endfacet
facet normal -0.5803830951225357 0.44534361225428293 -0.6817804118044847
  outer loop
    vertex -30.825726584677824 198.97257381413678 19.049999999999997
    vertex -27.233053805023395 198.79400100502346 15.875
    vertex -30.825726584677827 194.11193868226187 15.875
  endloop
endfacet
facet normal -0.5803830951225357 0.44534361225428293 -0.6817804118044847
  outer loop
    vertex -27.233053805023395 198.79400100502346 15.875
    vertex -30.825726584677824 198.97257381413678 19.049999999999997
    vertex -29.34341399347467 200.9043611934747 19.049999999999997
  endloop
endfacet
facet normal -0.44534361225428293 0.5803830951225356 -0.6817804118044848
  outer loop
    vertex -20.795081599999936 207.46372734120268 19.049999999999997
    vertex -27.233053805023395 198.79400100502346 15.875
    vertex -29.34341399347467 200.9043611934747 19.049999999999997
  endloop
endfacet
facet normal -0.44534361225428293 0.5803830951225356 -0.6817804118044848
  outer loop
    vertex -27.233053805023395 198.79400100502346 15.875
    vertex -20.795081599999936 207.46372734120268 19.049999999999997
    vertex -19.302831599999916 204.87907452360798 15.875
  endloop
endfacet
facet normal -0.27995469817601554 0.6758704291866016 -0.6817804118044866
  outer loop
    vertex -10.840337686606492 211.58711728008126 19.049999999999997
    vertex -19.302831599999916 204.87907452360798 15.875
    vertex -20.795081599999936 207.46372734120268 19.049999999999997
  endloop
endfacet
facet normal -0.27995469817601554 0.6758704291866016 -0.6817804118044866
  outer loop
    vertex -19.302831599999916 204.87907452360798 15.875
    vertex -10.840337686606492 211.58711728008126 19.049999999999997
    vertex -10.067892246498007 208.70431165152152 15.875
  endloop
endfacet
facet normal -0.09548733406406688 0.7252983104302956 -0.681780411804487
  outer loop
    vertex -10.840337686606492 211.58711728008126 19.049999999999997
    vertex -0.15758159999990662 210.00902879999995 15.875
    vertex -10.067892246498007 208.70431165152152 15.875
  endloop
endfacet
facet normal -0.09548733406406688 0.7252983104302956 -0.681780411804487
  outer loop
    vertex -0.15758159999990662 210.00902879999995 15.875
    vertex -10.840337686606492 211.58711728008126 19.049999999999997
    vertex -0.15758159999990662 212.99352879999998 19.049999999999997
  endloop
endfacet
facet normal 0.0954873340640672 0.7252983104302956 -0.681780411804487
  outer loop
    vertex -0.15758159999990662 212.99352879999998 19.049999999999997
    vertex 9.752729046498159 208.70431165152152 15.875
    vertex -0.15758159999990662 210.00902879999995 15.875
  endloop
endfacet
facet normal 0.0954873340640672 0.7252983104302956 -0.681780411804487
  outer loop
    vertex 9.752729046498159 208.70431165152152 15.875
    vertex -0.15758159999990662 212.99352879999998 19.049999999999997
    vertex 10.525174486606645 211.58711728008126 19.049999999999997
  endloop
endfacet
facet normal 0.2799546981760151 0.6758704291866017 -0.6817804118044866
  outer loop
    vertex 10.525174486606645 211.58711728008126 19.049999999999997
    vertex 18.987668400000086 204.87907452360798 15.875
    vertex 9.752729046498159 208.70431165152152 15.875
  endloop
endfacet
facet normal 0.2799546981760151 0.6758704291866017 -0.6817804118044866
  outer loop
    vertex 18.987668400000086 204.87907452360798 15.875
    vertex 10.525174486606645 211.58711728008126 19.049999999999997
    vertex 20.479918400000102 207.46372734120268 19.049999999999997
  endloop
endfacet
facet normal 0.4453436122542822 0.5803830951225359 -0.681780411804485
  outer loop
    vertex 20.479918400000102 207.46372734120268 19.049999999999997
    vertex 26.917890605023583 198.79400100502346 15.875
    vertex 18.987668400000086 204.87907452360798 15.875
  endloop
endfacet
facet normal 0.4453436122542822 0.5803830951225359 -0.681780411804485
  outer loop
    vertex 26.917890605023583 198.79400100502346 15.875
    vertex 20.479918400000102 207.46372734120268 19.049999999999997
    vertex 29.02825079347485 200.9043611934747 19.049999999999997
  endloop
endfacet
facet normal 0.5803830951225346 0.4453436122542828 -0.6817804118044856
  outer loop
    vertex 29.02825079347485 200.9043611934747 19.049999999999997
    vertex 31.592418400000092 192.70203777655863 15.875
    vertex 26.917890605023583 198.79400100502346 15.875
  endloop
endfacet
facet normal 0.5803830951225346 0.4453436122542828 -0.6817804118044856
  outer loop
    vertex 31.592418400000092 192.70203777655863 15.875
    vertex 29.02825079347485 200.9043611934747 19.049999999999997
    vertex 31.592418400000092 197.56267290843354 19.049999999999997
  endloop
endfacet
facet normal -1.0 5.094124664450099e-16 2.1662888285368905e-16
  outer loop
    vertex 31.592418400000092 197.56267290843354 19.049999999999997
    vertex 31.592418400000092 192.70203777655863 3.175
    vertex 31.592418400000092 192.70203777655863 15.875
  endloop
endfacet
facet normal -1.0 5.094124664450099e-16 2.1662888285368905e-16
  outer loop
    vertex 31.592418400000092 192.70203777655863 3.175
    vertex 31.592418400000092 197.56267290843354 19.049999999999997
    vertex 31.592418400000092 197.56267290843354 3.175
  endloop
endfacet
facet normal 1.0 -5.094124664450099e-16 -2.1662888285368905e-16
  outer loop
    vertex -30.825726584677827 198.97257381413678 3.175
    vertex -30.825726584677827 194.11193868226187 15.875
    vertex -30.825726584677827 194.11193868226187 3.175
  endloop
endfacet
facet normal 1.0 -5.094124664450099e-16 -2.1662888285368905e-16
  outer loop
    vertex -30.825726584677827 194.11193868226187 15.875
    vertex -30.825726584677827 198.97257381413678 3.175
    vertex -30.825726584677824 198.97257381413678 19.049999999999997
  endloop
endfacet
facet normal 0.13052619222005196 0.9914448613738105 0.0
  outer loop
    vertex -0.15758159999990662 212.99352879999998 114.3
    vertex 10.525174486606645 211.58711728008126 19.049999999999997
    vertex -0.15758159999990662 212.99352879999998 19.049999999999997
  endloop
endfacet
facet normal 0.13052619222005196 0.9914448613738105 0.0
  outer loop
    vertex 10.525174486606645 211.58711728008126 19.049999999999997
    vertex -0.15758159999990662 212.99352879999998 114.3
    vertex 10.525174486606645 211.58711728008126 114.3
  endloop
endfacet
facet normal 0.6087614290087204 0.7933533402912354 -1.6867932822529004e-16
  outer loop
    vertex 20.479918400000102 207.46372734120268 114.3
    vertex 29.02825079347485 200.9043611934747 19.049999999999997
    vertex 20.479918400000102 207.46372734120268 19.049999999999997
  endloop
endfacet
facet normal 0.6087614290087204 0.7933533402912354 -1.6867932822529004e-16
  outer loop
    vertex 29.02825079347485 200.9043611934747 19.049999999999997
    vertex 20.479918400000102 207.46372734120268 114.3
    vertex 29.02825079347485 200.90436119347476 114.3
  endloop
endfacet
facet normal 0.3826834323650904 0.9238795325112865 0.0
  outer loop
    vertex 10.525174486606645 211.58711728008126 114.3
    vertex 20.479918400000102 207.46372734120268 19.049999999999997
    vertex 10.525174486606645 211.58711728008126 19.049999999999997
  endloop
endfacet
facet normal 0.3826834323650904 0.9238795325112865 0.0
  outer loop
    vertex 20.479918400000102 207.46372734120268 19.049999999999997
    vertex 10.525174486606645 211.58711728008126 114.3
    vertex 20.479918400000102 207.46372734120268 114.3
  endloop
endfacet
facet normal -0.13052619222005155 0.9914448613738105 0.0
  outer loop
    vertex -10.840337686606492 211.58711728008126 114.3
    vertex -0.15758159999990662 212.99352879999998 19.049999999999997
    vertex -10.840337686606492 211.58711728008126 19.049999999999997
  endloop
endfacet
facet normal -0.13052619222005155 0.9914448613738105 0.0
  outer loop
    vertex -0.15758159999990662 212.99352879999998 19.049999999999997
    vertex -10.840337686606492 211.58711728008126 114.3
    vertex -0.15758159999990662 212.99352879999998 114.3
  endloop
endfacet
facet normal 0.7933533402912336 0.6087614290087227 -9.720771599478305e-17
  outer loop
    vertex 29.02825079347485 200.9043611934747 19.049999999999997
    vertex 31.592418400000092 197.56267290843354 114.3
    vertex 31.592418400000092 197.56267290843354 19.049999999999997
  endloop
endfacet
facet normal 0.7933533402912336 0.6087614290087227 -9.720771599478305e-17
  outer loop
    vertex 31.592418400000092 197.56267290843354 114.3
    vertex 29.02825079347485 200.9043611934747 19.049999999999997
    vertex 29.02825079347485 200.90436119347476 114.3
  endloop
endfacet
facet normal -0.6087614290087211 0.7933533402912347 -2.0472524582471362e-16
  outer loop
    vertex -29.343413993474677 200.90436119347476 114.3
    vertex -20.795081599999936 207.46372734120268 19.049999999999997
    vertex -29.34341399347467 200.9043611934747 19.049999999999997
  endloop
endfacet
facet normal -0.6087614290087211 0.7933533402912347 -2.0472524582471362e-16
  outer loop
    vertex -20.795081599999936 207.46372734120268 19.049999999999997
    vertex -29.343413993474677 200.90436119347476 114.3
    vertex -20.795081599999936 207.46372734120268 114.3
  endloop
endfacet
facet normal -0.38268343236509084 0.9238795325112863 0.0
  outer loop
    vertex -20.795081599999936 207.46372734120268 114.3
    vertex -10.840337686606492 211.58711728008126 19.049999999999997
    vertex -20.795081599999936 207.46372734120268 19.049999999999997
  endloop
endfacet
facet normal -0.38268343236509084 0.9238795325112863 0.0
  outer loop
    vertex -10.840337686606492 211.58711728008126 19.049999999999997
    vertex -20.795081599999936 207.46372734120268 114.3
    vertex -10.840337686606492 211.58711728008126 114.3
  endloop
endfacet
facet normal 0.7933533402912348 0.608761429008721 1.09992478601941e-17
  outer loop
    vertex 31.592418400000092 197.56267290843354 3.175
    vertex 35.58761694120282 192.3560288 130.17499999999998
    vertex 35.58761694120282 192.3560288 3.175
  endloop
endfacet
facet normal 0.7933533402912348 0.608761429008721 1.09992478601941e-17
  outer loop
    vertex 35.58761694120282 192.3560288 130.17499999999998
    vertex 31.592418400000092 197.56267290843354 3.175
    vertex 31.592418400000092 197.56267290843354 130.17499999999998
  endloop
endfacet
facet normal 0.7933533402912348 0.608761429008721 1.09992478601941e-17
  outer loop
    vertex 31.592418400000092 197.56267290843354 130.17499999999998
    vertex 31.592418400000092 197.56267290843354 3.175
    vertex 31.592418400000092 197.56267290843354 19.049999999999997
  endloop
endfacet
facet normal 0.7933533402912348 0.608761429008721 1.09992478601941e-17
  outer loop
    vertex 31.592418400000092 197.56267290843354 130.17499999999998
    vertex 31.592418400000092 197.56267290843354 19.049999999999997
    vertex 31.592418400000092 197.56267290843354 114.3
  endloop
endfacet
facet normal -0.7933533402912355 0.6087614290087201 -1.9115962480060703e-16
  outer loop
    vertex -29.343413993474677 200.90436119347476 114.3
    vertex -30.825726584677824 198.97257381413678 19.049999999999997
    vertex -30.825726584677827 198.97257381413678 114.3
  endloop
endfacet
facet normal -0.7933533402912355 0.6087614290087201 -1.9115962480060703e-16
  outer loop
    vertex -30.825726584677824 198.97257381413678 19.049999999999997
    vertex -29.343413993474677 200.90436119347476 114.3
    vertex -29.34341399347467 200.9043611934747 19.049999999999997
  endloop
endfacet
facet normal -0.7933533402912355 0.6087614290087202 -1.0999247860194111e-17
  outer loop
    vertex -30.825726584677827 198.97257381413678 130.17499999999998
    vertex -35.90278014120265 192.35602879999993 3.175
    vertex -35.90278014120265 192.35602879999993 130.17499999999998
  endloop
endfacet
facet normal -0.7933533402912355 0.6087614290087202 -1.0999247860194111e-17
  outer loop
    vertex -35.90278014120265 192.35602879999993 3.175
    vertex -30.825726584677827 198.97257381413678 130.17499999999998
    vertex -30.825726584677827 198.97257381413678 3.175
  endloop
endfacet
facet normal -0.7933533402912355 0.6087614290087202 -1.0999247860194111e-17
  outer loop
    vertex -30.825726584677827 198.97257381413678 3.175
    vertex -30.825726584677827 198.97257381413678 130.17499999999998
    vertex -30.825726584677827 198.97257381413678 114.3
  endloop
endfacet
facet normal -0.7933533402912355 0.6087614290087202 -1.0999247860194111e-17
  outer loop
    vertex -30.825726584677827 198.97257381413678 3.175
    vertex -30.825726584677827 198.97257381413678 114.3
    vertex -30.825726584677824 198.97257381413678 19.049999999999997
  endloop
endfacet
endsolid Untitled-5ffced98
