solid Untitled-629ff16b
facet normal -0.9914448613738104 -0.13052619222005152 -0.0
  outer loop
    vertex 15.456745072277673 4.141622359730537 47.425432199999996
    vertex 16.001999999999995 0.0 0.0
    vertex 16.001999999999995 0.0 47.425432199999996
  endloop
endfacet
facet normal -0.9914448613738104 -0.13052619222005152 -0.0
  outer loop
    vertex 16.001999999999995 0.0 0.0
    vertex 15.456745072277673 4.141622359730537 47.425432199999996
    vertex 15.456745072277673 4.141622359730537 0.0
  endloop
endfacet
facet normal -0.9238795325112864 0.38268343236509056 0.0
  outer loop
    vertex 15.456745072277663 -4.141622359730551 47.425432199999996
    vertex 13.858138511358586 -8.001000000000007 0.0
    vertex 13.858138511358586 -8.001000000000007 47.425432199999996
  endloop
endfacet
facet normal -0.9238795325112864 0.38268343236509056 0.0
  outer loop
    vertex 13.858138511358586 -8.001000000000007 0.0
    vertex 15.456745072277663 -4.141622359730551 47.425432199999996
    vertex 15.456745072277663 -4.141622359730551 0.0
  endloop
endfacet
facet normal -0.7933533402912349 0.6087614290087209 0.0
  outer loop
    vertex 13.858138511358586 -8.001000000000007 47.425432199999996
    vertex 11.315122712547131 -11.315122712547137 0.0
    vertex 11.315122712547131 -11.315122712547137 47.425432199999996
  endloop
endfacet
facet normal -0.7933533402912349 0.6087614290087209 0.0
  outer loop
    vertex 11.315122712547131 -11.315122712547137 0.0
    vertex 13.858138511358586 -8.001000000000007 47.425432199999996
    vertex 13.858138511358586 -8.001000000000007 0.0
  endloop
endfacet
facet normal -0.3826834323650893 0.9238795325112871 0.0
  outer loop
    vertex 4.141622359730531 -15.456745072277673 47.425432199999996
    vertex 8.000999999999987 -13.858138511358593 0.0
    vertex 4.141622359730531 -15.456745072277673 0.0
  endloop
endfacet
facet normal -0.3826834323650893 0.9238795325112871 0.0
  outer loop
    vertex 8.000999999999987 -13.858138511358593 0.0
    vertex 4.141622359730531 -15.456745072277673 47.425432199999996
    vertex 8.000999999999987 -13.858138511358593 47.425432199999996
  endloop
endfacet
facet normal -0.13052619222005102 0.9914448613738106 0.0
  outer loop
    vertex -5.639932965095795e-15 -16.002 47.425432199999996
    vertex 4.141622359730531 -15.456745072277673 0.0
    vertex -5.639932965095795e-15 -16.002 0.0
  endloop
endfacet
facet normal -0.13052619222005102 0.9914448613738106 0.0
  outer loop
    vertex 4.141622359730531 -15.456745072277673 0.0
    vertex -5.639932965095795e-15 -16.002 47.425432199999996
    vertex 4.141622359730531 -15.456745072277673 47.425432199999996
  endloop
endfacet
facet normal -0.9914448613738105 0.1305261922200518 0.0
  outer loop
    vertex 16.001999999999995 0.0 47.425432199999996
    vertex 15.456745072277663 -4.141622359730551 0.0
    vertex 15.456745072277663 -4.141622359730551 47.425432199999996
  endloop
endfacet
facet normal -0.9914448613738105 0.1305261922200518 0.0
  outer loop
    vertex 15.456745072277663 -4.141622359730551 0.0
    vertex 16.001999999999995 0.0 47.425432199999996
    vertex 16.001999999999995 0.0 0.0
  endloop
endfacet
facet normal 0.13052619222005188 0.9914448613738104 0.0
  outer loop
    vertex -4.1416223597305475 -15.456745072277668 47.425432199999996
    vertex -5.639932965095795e-15 -16.002 0.0
    vertex -4.1416223597305475 -15.456745072277668 0.0
  endloop
endfacet
facet normal 0.13052619222005188 0.9914448613738104 0.0
  outer loop
    vertex -5.639932965095795e-15 -16.002 0.0
    vertex -4.1416223597305475 -15.456745072277668 47.425432199999996
    vertex -5.639932965095795e-15 -16.002 47.425432199999996
  endloop
endfacet
facet normal -0.9238795325112868 -0.38268343236508956 -0.0
  outer loop
    vertex 13.858138511358586 8.000999999999998 47.425432199999996
    vertex 15.456745072277673 4.141622359730537 0.0
    vertex 15.456745072277673 4.141622359730537 47.425432199999996
  endloop
endfacet
facet normal -0.9238795325112868 -0.38268343236508956 -0.0
  outer loop
    vertex 15.456745072277673 4.141622359730537 0.0
    vertex 13.858138511358586 8.000999999999998 47.425432199999996
    vertex 13.858138511358586 8.000999999999998 0.0
  endloop
endfacet
facet normal 0.3826834323650905 0.9238795325112864 0.0
  outer loop
    vertex -8.00100000000001 -13.858138511358582 47.425432199999996
    vertex -4.1416223597305475 -15.456745072277668 0.0
    vertex -8.00100000000001 -13.858138511358582 0.0
  endloop
endfacet
facet normal 0.3826834323650905 0.9238795325112864 0.0
  outer loop
    vertex -4.1416223597305475 -15.456745072277668 0.0
    vertex -8.00100000000001 -13.858138511358582 47.425432199999996
    vertex -4.1416223597305475 -15.456745072277668 47.425432199999996
  endloop
endfacet
facet normal -0.6087614290087203 0.7933533402912354 0.0
  outer loop
    vertex 8.000999999999987 -13.858138511358593 47.425432199999996
    vertex 11.315122712547131 -11.315122712547137 0.0
    vertex 8.000999999999987 -13.858138511358593 0.0
  endloop
endfacet
facet normal -0.6087614290087203 0.7933533402912354 0.0
  outer loop
    vertex 11.315122712547131 -11.315122712547137 0.0
    vertex 8.000999999999987 -13.858138511358593 47.425432199999996
    vertex 11.315122712547131 -11.315122712547137 47.425432199999996
  endloop
endfacet
facet normal 0.6087614290087211 0.7933533402912348 0.0
  outer loop
    vertex -11.315122712547142 -11.315122712547126 47.425432199999996
    vertex -8.00100000000001 -13.858138511358582 0.0
    vertex -11.315122712547142 -11.315122712547126 0.0
  endloop
endfacet
facet normal 0.6087614290087211 0.7933533402912348 0.0
  outer loop
    vertex -8.00100000000001 -13.858138511358582 0.0
    vertex -11.315122712547142 -11.315122712547126 47.425432199999996
    vertex -8.00100000000001 -13.858138511358582 47.425432199999996
  endloop
endfacet
facet normal -0.7933533402912352 -0.6087614290087205 -0.0
  outer loop
    vertex 11.315122712547131 11.315122712547131 47.425432199999996
    vertex 13.858138511358586 8.000999999999998 0.0
    vertex 13.858138511358586 8.000999999999998 47.425432199999996
  endloop
endfacet
facet normal -0.7933533402912352 -0.6087614290087205 -0.0
  outer loop
    vertex 13.858138511358586 8.000999999999998 0.0
    vertex 11.315122712547131 11.315122712547131 47.425432199999996
    vertex 11.315122712547131 11.315122712547131 0.0
  endloop
endfacet
facet normal 0.0 0.0 -1.0
  outer loop
    vertex -15.456745072277668 4.141622359730542 47.425432199999996
    vertex -15.456745072277673 -4.141622359730531 47.425432199999996
    vertex -16.002 0.0 47.425432199999996
  endloop
endfacet
facet normal 0.0 0.0 -1.0
  outer loop
    vertex -15.456745072277673 -4.141622359730531 47.425432199999996
    vertex -15.456745072277668 4.141622359730542 47.425432199999996
    vertex -13.858138511358588 -8.000999999999996 47.425432199999996
  endloop
endfacet
facet normal 0.0 0.0 -1.0
  outer loop
    vertex -13.858138511358588 -8.000999999999996 47.425432199999996
    vertex -15.456745072277668 4.141622359730542 47.425432199999996
    vertex -13.858138511358582 8.001000000000003 47.425432199999996
  endloop
endfacet
facet normal 0.0 0.0 -1.0
  outer loop
    vertex -13.858138511358588 -8.000999999999996 47.425432199999996
    vertex -13.858138511358582 8.001000000000003 47.425432199999996
    vertex -11.315122712547142 -11.315122712547126 47.425432199999996
  endloop
endfacet
facet normal 0.0 0.0 -1.0
  outer loop
    vertex -11.315122712547142 -11.315122712547126 47.425432199999996
    vertex -13.858138511358582 8.001000000000003 47.425432199999996
    vertex -11.315122712547131 11.315122712547131 47.425432199999996
  endloop
endfacet
facet normal 0.0 0.0 -1.0
  outer loop
    vertex -11.315122712547142 -11.315122712547126 47.425432199999996
    vertex -11.315122712547131 11.315122712547131 47.425432199999996
    vertex -8.00100000000001 -13.858138511358582 47.425432199999996
  endloop
endfacet
facet normal 0.0 0.0 -1.0
  outer loop
    vertex -8.00100000000001 -13.858138511358582 47.425432199999996
    vertex -11.315122712547131 11.315122712547131 47.425432199999996
    vertex -8.000999999999998 13.858138511358586 47.425432199999996
  endloop
endfacet
facet normal 0.0 0.0 -1.0
  outer loop
    vertex -8.00100000000001 -13.858138511358582 47.425432199999996
    vertex -8.000999999999998 13.858138511358586 47.425432199999996
    vertex -4.1416223597305475 -15.456745072277668 47.425432199999996
  endloop
endfacet
facet normal 0.0 0.0 -1.0
  outer loop
    vertex -4.1416223597305475 -15.456745072277668 47.425432199999996
    vertex -8.000999999999998 13.858138511358586 47.425432199999996
    vertex -4.141622359730537 15.456745072277673 47.425432199999996
  endloop
endfacet
facet normal 0.0 0.0 -1.0
  outer loop
    vertex -4.1416223597305475 -15.456745072277668 47.425432199999996
    vertex -4.141622359730537 15.456745072277673 47.425432199999996
    vertex -5.639932965095795e-15 -16.002 47.425432199999996
  endloop
endfacet
facet normal 0.0 0.0 -1.0
  outer loop
    vertex -5.639932965095795e-15 -16.002 47.425432199999996
    vertex -4.141622359730537 15.456745072277673 47.425432199999996
    vertex 0.0 16.001999999999995 47.425432199999996
  endloop
endfacet
facet normal 0.0 0.0 -1.0
  outer loop
    vertex -5.639932965095795e-15 -16.002 47.425432199999996
    vertex 0.0 16.001999999999995 47.425432199999996
    vertex 4.141622359730531 -15.456745072277673 47.425432199999996
  endloop
endfacet
facet normal 0.0 0.0 -1.0
  outer loop
    vertex 4.141622359730531 -15.456745072277673 47.425432199999996
    vertex 0.0 16.001999999999995 47.425432199999996
    vertex 4.141622359730542 15.456745072277668 47.425432199999996
  endloop
endfacet
facet normal 0.0 0.0 -1.0
  outer loop
    vertex 4.141622359730531 -15.456745072277673 47.425432199999996
    vertex 4.141622359730542 15.456745072277668 47.425432199999996
    vertex 8.000999999999987 -13.858138511358593 47.425432199999996
  endloop
endfacet
facet normal 0.0 0.0 -1.0
  outer loop
    vertex 8.000999999999987 -13.858138511358593 47.425432199999996
    vertex 4.141622359730542 15.456745072277668 47.425432199999996
    vertex 8.000999999999998 13.858138511358586 47.425432199999996
  endloop
endfacet
facet normal 0.0 0.0 -1.0
  outer loop
    vertex 8.000999999999987 -13.858138511358593 47.425432199999996
    vertex 8.000999999999998 13.858138511358586 47.425432199999996
    vertex 11.315122712547131 -11.315122712547137 47.425432199999996
  endloop
endfacet
facet normal 0.0 0.0 -1.0
  outer loop
    vertex 11.315122712547131 -11.315122712547137 47.425432199999996
    vertex 8.000999999999998 13.858138511358586 47.425432199999996
    vertex 11.315122712547131 11.315122712547131 47.425432199999996
  endloop
endfacet
facet normal 0.0 0.0 -1.0
  outer loop
    vertex 11.315122712547131 -11.315122712547137 47.425432199999996
    vertex 11.315122712547131 11.315122712547131 47.425432199999996
    vertex 13.858138511358586 8.000999999999998 47.425432199999996
  endloop
endfacet
facet normal 0.0 0.0 -1.0
  outer loop
    vertex 11.315122712547131 -11.315122712547137 47.425432199999996
    vertex 13.858138511358586 8.000999999999998 47.425432199999996
    vertex 13.858138511358586 -8.001000000000007 47.425432199999996
  endloop
endfacet
facet normal 0.0 0.0 -1.0
  outer loop
    vertex 13.858138511358586 -8.001000000000007 47.425432199999996
    vertex 13.858138511358586 8.000999999999998 47.425432199999996
    vertex 15.456745072277673 4.141622359730537 47.425432199999996
  endloop
endfacet
facet normal 0.0 0.0 -1.0
  outer loop
    vertex 13.858138511358586 -8.001000000000007 47.425432199999996
    vertex 15.456745072277673 4.141622359730537 47.425432199999996
    vertex 15.456745072277663 -4.141622359730551 47.425432199999996
  endloop
endfacet
facet normal 0.0 0.0 -1.0
  outer loop
    vertex 15.456745072277663 -4.141622359730551 47.425432199999996
    vertex 15.456745072277673 4.141622359730537 47.425432199999996
    vertex 16.001999999999995 0.0 47.425432199999996
  endloop
endfacet
facet normal 0.0 0.0 -1.0
  outer loop
    vertex -16.164461017924474 16.164461017924477 0.0
    vertex -15.456745072277668 4.141622359730542 0.0
    vertex -16.002 0.0 0.0
  endloop
endfacet
facet normal 0.0 0.0 -1.0
  outer loop
    vertex -15.456745072277668 4.141622359730542 0.0
    vertex -16.164461017924474 16.164461017924477 0.0
    vertex -11.429999999999993 19.79734073051227 0.0
  endloop
endfacet
facet normal 0.0 0.0 -1.0
  outer loop
    vertex -15.456745072277668 4.141622359730542 0.0
    vertex -11.429999999999993 19.79734073051227 0.0
    vertex -13.858138511358582 8.001000000000003 0.0
  endloop
endfacet
facet normal 0.0 0.0 -1.0
  outer loop
    vertex -13.858138511358582 8.001000000000003 0.0
    vertex -11.429999999999993 19.79734073051227 0.0
    vertex -11.315122712547131 11.315122712547131 0.0
  endloop
endfacet
facet normal 0.0 0.0 -1.0
  outer loop
    vertex -11.315122712547131 11.315122712547131 0.0
    vertex -11.429999999999993 19.79734073051227 0.0
    vertex -5.916603371043624 22.0810643889681 0.0
  endloop
endfacet
facet normal 0.0 0.0 -1.0
  outer loop
    vertex -11.315122712547131 11.315122712547131 0.0
    vertex -5.916603371043624 22.0810643889681 0.0
    vertex -8.000999999999998 13.858138511358586 0.0
  endloop
endfacet
facet normal 0.0 0.0 -1.0
  outer loop
    vertex -8.000999999999998 13.858138511358586 0.0
    vertex -5.916603371043624 22.0810643889681 0.0
    vertex -4.141622359730537 15.456745072277673 0.0
  endloop
endfacet
facet normal 0.0 0.0 -1.0
  outer loop
    vertex -4.141622359730537 15.456745072277673 0.0
    vertex -5.916603371043624 22.0810643889681 0.0
    vertex 0.0 22.859999999999996 0.0
  endloop
endfacet
facet normal 0.0 0.0 -1.0
  outer loop
    vertex -4.141622359730537 15.456745072277673 0.0
    vertex 0.0 22.859999999999996 0.0
    vertex 0.0 16.001999999999995 0.0
  endloop
endfacet
facet normal 0.0 0.0 -1.0
  outer loop
    vertex 0.0 16.001999999999995 0.0
    vertex 0.0 22.859999999999996 0.0
    vertex 5.916603371043629 22.0810643889681 0.0
  endloop
endfacet
facet normal 0.0 0.0 -1.0
  outer loop
    vertex 0.0 16.001999999999995 0.0
    vertex 5.916603371043629 22.0810643889681 0.0
    vertex 4.141622359730542 15.456745072277668 0.0
  endloop
endfacet
facet normal 0.0 0.0 -1.0
  outer loop
    vertex 4.141622359730542 15.456745072277668 0.0
    vertex 5.916603371043629 22.0810643889681 0.0
    vertex 8.000999999999998 13.858138511358586 0.0
  endloop
endfacet
facet normal 0.0 0.0 -1.0
  outer loop
    vertex 8.000999999999998 13.858138511358586 0.0
    vertex 5.916603371043629 22.0810643889681 0.0
    vertex 11.430000000000003 19.797340730512264 0.0
  endloop
endfacet
facet normal 0.0 0.0 -1.0
  outer loop
    vertex 8.000999999999998 13.858138511358586 0.0
    vertex 11.430000000000003 19.797340730512264 0.0
    vertex 11.315122712547131 11.315122712547131 0.0
  endloop
endfacet
facet normal 0.0 0.0 -1.0
  outer loop
    vertex 11.315122712547131 11.315122712547131 0.0
    vertex 11.430000000000003 19.797340730512264 0.0
    vertex 13.858138511358586 8.000999999999998 0.0
  endloop
endfacet
facet normal 0.0 0.0 -1.0
  outer loop
    vertex 13.858138511358586 8.000999999999998 0.0
    vertex 11.430000000000003 19.797340730512264 0.0
    vertex 16.164461017924477 16.164461017924477 0.0
  endloop
endfacet
facet normal 0.0 0.0 -1.0
  outer loop
    vertex 13.858138511358586 8.000999999999998 0.0
    vertex 16.164461017924477 16.164461017924477 0.0
    vertex 15.456745072277673 4.141622359730537 0.0
  endloop
endfacet
facet normal 0.0 0.0 -1.0
  outer loop
    vertex 15.456745072277673 4.141622359730537 0.0
    vertex 16.164461017924477 16.164461017924477 0.0
    vertex 16.001999999999995 0.0 0.0
  endloop
endfacet
facet normal 0.0 0.0 -1.0
  outer loop
    vertex 16.001999999999995 0.0 0.0
    vertex 16.164461017924477 16.164461017924477 0.0
    vertex 16.164461017924467 -16.16446101792448 0.0
  endloop
endfacet
facet normal 0.0 0.0 -1.0
  outer loop
    vertex 16.164461017924467 -16.16446101792448 0.0
    vertex 16.164461017924477 16.164461017924477 0.0
    vertex 19.79734073051226 -11.43000000000001 0.0
  endloop
endfacet
facet normal 0.0 0.0 -1.0
  outer loop
    vertex 19.79734073051226 -11.43000000000001 0.0
    vertex 16.164461017924477 16.164461017924477 0.0
    vertex 19.79734073051227 11.429999999999998 0.0
  endloop
endfacet
facet normal 0.0 0.0 -1.0
  outer loop
    vertex 19.79734073051226 -11.43000000000001 0.0
    vertex 19.79734073051227 11.429999999999998 0.0
    vertex 22.0810643889681 -5.916603371043643 0.0
  endloop
endfacet
facet normal 0.0 0.0 -1.0
  outer loop
    vertex 22.0810643889681 -5.916603371043643 0.0
    vertex 19.79734073051227 11.429999999999998 0.0
    vertex 22.0810643889681 5.916603371043624 0.0
  endloop
endfacet
facet normal 0.0 0.0 -1.0
  outer loop
    vertex 22.0810643889681 -5.916603371043643 0.0
    vertex 22.0810643889681 5.916603371043624 0.0
    vertex 22.859999999999996 0.0 0.0
  endloop
endfacet
facet normal 0.0 0.0 -1.0
  outer loop
    vertex -22.081064388968098 5.916603371043629 0.0
    vertex -22.081064388968105 -5.916603371043616 0.0
    vertex -22.86 0.0 0.0
  endloop
endfacet
facet normal 0.0 0.0 -1.0
  outer loop
    vertex -22.081064388968105 -5.916603371043616 0.0
    vertex -22.081064388968098 5.916603371043629 0.0
    vertex -19.79734073051227 -11.429999999999993 0.0
  endloop
endfacet
facet normal 0.0 0.0 -1.0
  outer loop
    vertex -19.79734073051227 -11.429999999999993 0.0
    vertex -22.081064388968098 5.916603371043629 0.0
    vertex -19.797340730512264 11.430000000000003 0.0
  endloop
endfacet
facet normal 0.0 0.0 -1.0
  outer loop
    vertex -19.79734073051227 -11.429999999999993 0.0
    vertex -19.797340730512264 11.430000000000003 0.0
    vertex -16.164461017924484 -16.164461017924467 0.0
  endloop
endfacet
facet normal 0.0 0.0 -1.0
  outer loop
    vertex -16.164461017924484 -16.164461017924467 0.0
    vertex -19.797340730512264 11.430000000000003 0.0
    vertex -16.164461017924474 16.164461017924477 0.0
  endloop
endfacet
facet normal 0.0 0.0 -1.0
  outer loop
    vertex -16.164461017924484 -16.164461017924467 0.0
    vertex -16.164461017924474 16.164461017924477 0.0
    vertex -16.002 0.0 0.0
  endloop
endfacet
facet normal 0.0 0.0 -1.0
  outer loop
    vertex -16.164461017924484 -16.164461017924467 0.0
    vertex -16.002 0.0 0.0
    vertex -15.456745072277673 -4.141622359730531 0.0
  endloop
endfacet
facet normal 0.0 0.0 -1.0
  outer loop
    vertex -16.164461017924484 -16.164461017924467 0.0
    vertex -15.456745072277673 -4.141622359730531 0.0
    vertex -11.43000000000001 -19.79734073051226 0.0
  endloop
endfacet
facet normal 0.0 0.0 -1.0
  outer loop
    vertex -11.43000000000001 -19.79734073051226 0.0
    vertex -15.456745072277673 -4.141622359730531 0.0
    vertex -13.858138511358588 -8.000999999999996 0.0
  endloop
endfacet
facet normal 0.0 0.0 -1.0
  outer loop
    vertex -11.43000000000001 -19.79734073051226 0.0
    vertex -13.858138511358588 -8.000999999999996 0.0
    vertex -11.315122712547142 -11.315122712547126 0.0
  endloop
endfacet
facet normal 0.0 0.0 -1.0
  outer loop
    vertex -11.43000000000001 -19.79734073051226 0.0
    vertex -11.315122712547142 -11.315122712547126 0.0
    vertex -5.9166033710436405 -22.081064388968095 0.0
  endloop
endfacet
facet normal 0.0 0.0 -1.0
  outer loop
    vertex -5.9166033710436405 -22.081064388968095 0.0
    vertex -11.315122712547142 -11.315122712547126 0.0
    vertex -8.00100000000001 -13.858138511358582 0.0
  endloop
endfacet
facet normal 0.0 0.0 -1.0
  outer loop
    vertex -5.9166033710436405 -22.081064388968095 0.0
    vertex -8.00100000000001 -13.858138511358582 0.0
    vertex -4.1416223597305475 -15.456745072277668 0.0
  endloop
endfacet
facet normal 0.0 0.0 -1.0
  outer loop
    vertex -5.9166033710436405 -22.081064388968095 0.0
    vertex -4.1416223597305475 -15.456745072277668 0.0
    vertex -5.639932965095795e-15 -22.86 0.0
  endloop
endfacet
facet normal 0.0 0.0 -1.0
  outer loop
    vertex -5.639932965095795e-15 -22.86 0.0
    vertex -4.1416223597305475 -15.456745072277668 0.0
    vertex -5.639932965095795e-15 -16.002 0.0
  endloop
endfacet
facet normal 0.0 0.0 -1.0
  outer loop
    vertex -5.639932965095795e-15 -22.86 0.0
    vertex -5.639932965095795e-15 -16.002 0.0
    vertex 4.141622359730531 -15.456745072277673 0.0
  endloop
endfacet
facet normal 0.0 0.0 -1.0
  outer loop
    vertex -5.639932965095795e-15 -22.86 0.0
    vertex 4.141622359730531 -15.456745072277673 0.0
    vertex 5.916603371043612 -22.081064388968105 0.0
  endloop
endfacet
facet normal 0.0 0.0 -1.0
  outer loop
    vertex 5.916603371043612 -22.081064388968105 0.0
    vertex 4.141622359730531 -15.456745072277673 0.0
    vertex 8.000999999999987 -13.858138511358593 0.0
  endloop
endfacet
facet normal 0.0 0.0 -1.0
  outer loop
    vertex 5.916603371043612 -22.081064388968105 0.0
    vertex 8.000999999999987 -13.858138511358593 0.0
    vertex 11.429999999999982 -19.79734073051228 0.0
  endloop
endfacet
facet normal 0.0 0.0 -1.0
  outer loop
    vertex 11.429999999999982 -19.79734073051228 0.0
    vertex 8.000999999999987 -13.858138511358593 0.0
    vertex 11.315122712547131 -11.315122712547137 0.0
  endloop
endfacet
facet normal 0.0 0.0 -1.0
  outer loop
    vertex 11.429999999999982 -19.79734073051228 0.0
    vertex 11.315122712547131 -11.315122712547137 0.0
    vertex 13.858138511358586 -8.001000000000007 0.0
  endloop
endfacet
facet normal 0.0 0.0 -1.0
  outer loop
    vertex 11.429999999999982 -19.79734073051228 0.0
    vertex 13.858138511358586 -8.001000000000007 0.0
    vertex 16.164461017924467 -16.16446101792448 0.0
  endloop
endfacet
facet normal 0.0 0.0 -1.0
  outer loop
    vertex 16.164461017924467 -16.16446101792448 0.0
    vertex 13.858138511358586 -8.001000000000007 0.0
    vertex 15.456745072277663 -4.141622359730551 0.0
  endloop
endfacet
facet normal 0.0 0.0 -1.0
  outer loop
    vertex 16.164461017924467 -16.16446101792448 0.0
    vertex 15.456745072277663 -4.141622359730551 0.0
    vertex 16.001999999999995 0.0 0.0
  endloop
endfacet
facet normal 0.3826834323650897 -0.9238795325112868 0.0
  outer loop
    vertex -4.141622359730537 15.456745072277673 47.425432199999996
    vertex -8.000999999999998 13.858138511358586 0.0
    vertex -4.141622359730537 15.456745072277673 0.0
  endloop
endfacet
facet normal 0.3826834323650897 -0.9238795325112868 0.0
  outer loop
    vertex -8.000999999999998 13.858138511358586 0.0
    vertex -4.141622359730537 15.456745072277673 47.425432199999996
    vertex -8.000999999999998 13.858138511358586 47.425432199999996
  endloop
endfacet
facet normal 0.13052619222005155 -0.9914448613738104 0.0
  outer loop
    vertex 0.0 16.001999999999995 47.425432199999996
    vertex -4.141622359730537 15.456745072277673 0.0
    vertex 0.0 16.001999999999995 0.0
  endloop
endfacet
facet normal 0.13052619222005155 -0.9914448613738104 0.0
  outer loop
    vertex -4.141622359730537 15.456745072277673 0.0
    vertex 0.0 16.001999999999995 47.425432199999996
    vertex -4.141622359730537 15.456745072277673 47.425432199999996
  endloop
endfacet
facet normal 0.6087614290087204 -0.7933533402912355 0.0
  outer loop
    vertex -8.000999999999998 13.858138511358586 47.425432199999996
    vertex -11.315122712547131 11.315122712547131 0.0
    vertex -8.000999999999998 13.858138511358586 0.0
  endloop
endfacet
facet normal 0.6087614290087204 -0.7933533402912355 0.0
  outer loop
    vertex -11.315122712547131 11.315122712547131 0.0
    vertex -8.000999999999998 13.858138511358586 47.425432199999996
    vertex -11.315122712547131 11.315122712547131 47.425432199999996
  endloop
endfacet
facet normal -0.1305261922200521 -0.9914448613738104 -0.0
  outer loop
    vertex 4.141622359730542 15.456745072277668 47.425432199999996
    vertex 0.0 16.001999999999995 0.0
    vertex 4.141622359730542 15.456745072277668 0.0
  endloop
endfacet
facet normal -0.1305261922200521 -0.9914448613738104 -0.0
  outer loop
    vertex 0.0 16.001999999999995 0.0
    vertex 4.141622359730542 15.456745072277668 47.425432199999996
    vertex 0.0 16.001999999999995 47.425432199999996
  endloop
endfacet
facet normal 0.9914448613738104 -0.13052619222005213 0.0
  outer loop
    vertex -15.456745072277668 4.141622359730542 0.0
    vertex -16.002 0.0 47.425432199999996
    vertex -16.002 0.0 0.0
  endloop
endfacet
facet normal 0.9914448613738104 -0.13052619222005213 0.0
  outer loop
    vertex -16.002 0.0 47.425432199999996
    vertex -15.456745072277668 4.141622359730542 0.0
    vertex -15.456745072277668 4.141622359730542 47.425432199999996
  endloop
endfacet
facet normal -0.3826834323650896 -0.9238795325112868 -0.0
  outer loop
    vertex 8.000999999999998 13.858138511358586 47.425432199999996
    vertex 4.141622359730542 15.456745072277668 0.0
    vertex 8.000999999999998 13.858138511358586 0.0
  endloop
endfacet
facet normal -0.3826834323650896 -0.9238795325112868 -0.0
  outer loop
    vertex 4.141622359730542 15.456745072277668 0.0
    vertex 8.000999999999998 13.858138511358586 47.425432199999996
    vertex 4.141622359730542 15.456745072277668 47.425432199999996
  endloop
endfacet
facet normal -0.6087614290087205 -0.7933533402912354 -0.0
  outer loop
    vertex 11.315122712547131 11.315122712547131 47.425432199999996
    vertex 8.000999999999998 13.858138511358586 0.0
    vertex 11.315122712547131 11.315122712547131 0.0
  endloop
endfacet
facet normal -0.6087614290087205 -0.7933533402912354 -0.0
  outer loop
    vertex 8.000999999999998 13.858138511358586 0.0
    vertex 11.315122712547131 11.315122712547131 47.425432199999996
    vertex 8.000999999999998 13.858138511358586 47.425432199999996
  endloop
endfacet
facet normal 0.7933533402912355 0.6087614290087201 0.0
  outer loop
    vertex -13.858138511358588 -8.000999999999996 0.0
    vertex -11.315122712547142 -11.315122712547126 47.425432199999996
    vertex -11.315122712547142 -11.315122712547126 0.0
  endloop
endfacet
facet normal 0.7933533402912355 0.6087614290087201 0.0
  outer loop
    vertex -11.315122712547142 -11.315122712547126 47.425432199999996
    vertex -13.858138511358588 -8.000999999999996 0.0
    vertex -13.858138511358588 -8.000999999999996 47.425432199999996
  endloop
endfacet
facet normal 0.9914448613738106 0.13052619222005102 0.0
  outer loop
    vertex -16.002 0.0 0.0
    vertex -15.456745072277673 -4.141622359730531 47.425432199999996
    vertex -15.456745072277673 -4.141622359730531 0.0
  endloop
endfacet
facet normal 0.9914448613738106 0.13052619222005102 0.0
  outer loop
    vertex -15.456745072277673 -4.141622359730531 47.425432199999996
    vertex -16.002 0.0 0.0
    vertex -16.002 0.0 47.425432199999996
  endloop
endfacet
facet normal 0.793353340291235 -0.6087614290087207 0.0
  outer loop
    vertex -11.315122712547131 11.315122712547131 0.0
    vertex -13.858138511358582 8.001000000000003 47.425432199999996
    vertex -13.858138511358582 8.001000000000003 0.0
  endloop
endfacet
facet normal 0.793353340291235 -0.6087614290087207 0.0
  outer loop
    vertex -13.858138511358582 8.001000000000003 47.425432199999996
    vertex -11.315122712547131 11.315122712547131 0.0
    vertex -11.315122712547131 11.315122712547131 47.425432199999996
  endloop
endfacet
facet normal 0.9238795325112867 -0.38268343236508995 0.0
  outer loop
    vertex -13.858138511358582 8.001000000000003 0.0
    vertex -15.456745072277668 4.141622359730542 47.425432199999996
    vertex -15.456745072277668 4.141622359730542 0.0
  endloop
endfacet
facet normal 0.9238795325112867 -0.38268343236508995 0.0
  outer loop
    vertex -15.456745072277668 4.141622359730542 47.425432199999996
    vertex -13.858138511358582 8.001000000000003 0.0
    vertex -13.858138511358582 8.001000000000003 47.425432199999996
  endloop
endfacet
facet normal 0.9238795325112867 0.3826834323650899 0.0
  outer loop
    vertex -15.456745072277673 -4.141622359730531 0.0
    vertex -13.858138511358588 -8.000999999999996 47.425432199999996
    vertex -13.858138511358588 -8.000999999999996 0.0
  endloop
endfacet
facet normal 0.9238795325112867 0.3826834323650899 0.0
  outer loop
    vertex -13.858138511358588 -8.000999999999996 47.425432199999996
    vertex -15.456745072277673 -4.141622359730531 0.0
    vertex -15.456745072277673 -4.141622359730531 47.425432199999996
  endloop
endfacet
facet normal 1.0 0.0 0.0
  outer loop
    vertex 38.099999999999994 25.4 50.8
    vertex 38.099999999999994 -25.4 101.6
    vertex 38.099999999999994 -25.4 50.8
  endloop
endfacet
facet normal 1.0 0.0 0.0
  outer loop
    vertex 38.099999999999994 -25.4 101.6
    vertex 38.099999999999994 25.4 50.8
    vertex 38.099999999999994 25.4 101.6
  endloop
endfacet
facet normal -1.0 0.0 0.0
  outer loop
    vertex -38.099999999999994 25.4 101.6
    vertex -38.099999999999994 -25.4 50.8
    vertex -38.099999999999994 -25.4 101.6
  endloop
endfacet
facet normal -1.0 0.0 0.0
  outer loop
    vertex -38.099999999999994 -25.4 50.8
    vertex -38.099999999999994 25.4 101.6
    vertex -38.099999999999994 25.4 50.8
  endloop
endfacet
facet normal 0.0 -1.0 0.0
  outer loop
    vertex 38.099999999999994 -25.4 50.8
    vertex 12.70000000000001 -25.4 79.60295474387526
    vertex -38.099999999999994 -25.4 50.8
  endloop
endfacet
facet normal 0.0 -1.0 0.0
  outer loop
    vertex 12.70000000000001 -25.4 79.60295474387526
    vertex 38.099999999999994 -25.4 50.8
    vertex 17.960512242138314 -25.4 83.63948775786169
  endloop
endfacet
facet normal 0.0 -1.0 0.0
  outer loop
    vertex 17.960512242138314 -25.4 83.63948775786169
    vertex 38.099999999999994 -25.4 50.8
    vertex 38.099999999999994 -25.4 101.6
  endloop
endfacet
facet normal 0.0 -1.0 0.0
  outer loop
    vertex -38.099999999999994 -25.4 50.8
    vertex 12.70000000000001 -25.4 79.60295474387526
    vertex 6.574003745604049 -25.4 77.06548401225767
  endloop
endfacet
facet normal 0.0 -1.0 0.0
  outer loop
    vertex -38.099999999999994 -25.4 50.8
    vertex 6.574003745604049 -25.4 77.06548401225767
    vertex 0.0 -25.4 76.19999999999999
  endloop
endfacet
facet normal 0.0 -1.0 0.0
  outer loop
    vertex 17.960512242138314 -25.4 83.63948775786169
    vertex 38.099999999999994 -25.4 101.6
    vertex 21.997045256124757 -25.4 88.90000000000002
  endloop
endfacet
facet normal 0.0 -1.0 0.0
  outer loop
    vertex 21.997045256124757 -25.4 88.90000000000002
    vertex 38.099999999999994 -25.4 101.6
    vertex 24.534515987742342 -25.4 95.02599625439598
  endloop
endfacet
facet normal 0.0 -1.0 0.0
  outer loop
    vertex 24.534515987742342 -25.4 95.02599625439598
    vertex 38.099999999999994 -25.4 101.6
    vertex 25.4 -25.4 101.6
  endloop
endfacet
facet normal 0.0 -1.0 0.0
  outer loop
    vertex -38.099999999999994 -25.4 50.8
    vertex -17.960512242138307 -25.4 83.63948775786169
    vertex -38.099999999999994 -25.4 101.6
  endloop
endfacet
facet normal 0.0 -1.0 0.0
  outer loop
    vertex -17.960512242138307 -25.4 83.63948775786169
    vertex -38.099999999999994 -25.4 50.8
    vertex -12.7 -25.4 79.60295474387524
  endloop
endfacet
facet normal 0.0 -1.0 0.0
  outer loop
    vertex -12.7 -25.4 79.60295474387524
    vertex -38.099999999999994 -25.4 50.8
    vertex -6.574003745604027 -25.4 77.06548401225767
  endloop
endfacet
facet normal 0.0 -1.0 0.0
  outer loop
    vertex -6.574003745604027 -25.4 77.06548401225767
    vertex -38.099999999999994 -25.4 50.8
    vertex 0.0 -25.4 76.19999999999999
  endloop
endfacet
facet normal 0.0 -1.0 0.0
  outer loop
    vertex -38.099999999999994 -25.4 101.6
    vertex -17.960512242138307 -25.4 83.63948775786169
    vertex -21.99704525612474 -25.4 88.89999999999999
  endloop
endfacet
facet normal 0.0 -1.0 0.0
  outer loop
    vertex -38.099999999999994 -25.4 101.6
    vertex -21.99704525612474 -25.4 88.89999999999999
    vertex -24.53451598774233 -25.4 95.02599625439596
  endloop
endfacet
facet normal 0.0 -1.0 0.0
  outer loop
    vertex -38.099999999999994 -25.4 101.6
    vertex -24.53451598774233 -25.4 95.02599625439596
    vertex -25.4 -25.4 101.6
  endloop
endfacet
facet normal 0.0 1.0 5.551115123125783e-17
  outer loop
    vertex -38.099999999999994 25.4 50.8
    vertex -12.7 25.39999999999999 79.60295474387524
    vertex 38.099999999999994 25.4 50.8
  endloop
endfacet
facet normal 0.0 1.0 5.551115123125783e-17
  outer loop
    vertex -12.7 25.39999999999999 79.60295474387524
    vertex -38.099999999999994 25.4 50.8
    vertex -17.960512242138307 25.39999999999999 83.63948775786169
  endloop
endfacet
facet normal 0.0 1.0 5.551115123125783e-17
  outer loop
    vertex -17.960512242138307 25.39999999999999 83.63948775786169
    vertex -38.099999999999994 25.4 50.8
    vertex -38.099999999999994 25.4 101.6
  endloop
endfacet
facet normal 0.0 1.0 5.551115123125783e-17
  outer loop
    vertex 38.099999999999994 25.4 50.8
    vertex -12.7 25.39999999999999 79.60295474387524
    vertex -6.574003745604027 25.39999999999999 77.06548401225767
  endloop
endfacet
facet normal 0.0 1.0 5.551115123125783e-17
  outer loop
    vertex 38.099999999999994 25.4 50.8
    vertex -6.574003745604027 25.39999999999999 77.06548401225767
    vertex 0.0 25.39999999999999 76.19999999999999
  endloop
endfacet
facet normal 0.0 1.0 5.551115123125783e-17
  outer loop
    vertex -17.960512242138307 25.39999999999999 83.63948775786169
    vertex -38.099999999999994 25.4 101.6
    vertex -21.99704525612474 25.39999999999999 88.89999999999999
  endloop
endfacet
facet normal 0.0 1.0 5.551115123125783e-17
  outer loop
    vertex -21.99704525612474 25.39999999999999 88.89999999999999
    vertex -38.099999999999994 25.4 101.6
    vertex -24.53451598774233 25.39999999999999 95.02599625439596
  endloop
endfacet
facet normal 0.0 1.0 5.551115123125783e-17
  outer loop
    vertex -24.53451598774233 25.39999999999999 95.02599625439596
    vertex -38.099999999999994 25.4 101.6
    vertex -25.4 25.39999999999999 101.6
  endloop
endfacet
facet normal 0.0 1.0 5.551115123125783e-17
  outer loop
    vertex 38.099999999999994 25.4 50.8
    vertex 17.960512242138314 25.39999999999999 83.63948775786169
    vertex 38.099999999999994 25.4 101.6
  endloop
endfacet
facet normal 0.0 1.0 5.551115123125783e-17
  outer loop
    vertex 17.960512242138314 25.39999999999999 83.63948775786169
    vertex 38.099999999999994 25.4 50.8
    vertex 12.70000000000001 25.39999999999999 79.60295474387526
  endloop
endfacet
facet normal 0.0 1.0 5.551115123125783e-17
  outer loop
    vertex 12.70000000000001 25.39999999999999 79.60295474387526
    vertex 38.099999999999994 25.4 50.8
    vertex 6.574003745604049 25.39999999999999 77.06548401225767
  endloop
endfacet
facet normal 0.0 1.0 5.551115123125783e-17
  outer loop
    vertex 6.574003745604049 25.39999999999999 77.06548401225767
    vertex 38.099999999999994 25.4 50.8
    vertex 0.0 25.39999999999999 76.19999999999999
  endloop
endfacet
facet normal 0.0 1.0 5.551115123125783e-17
  outer loop
    vertex 38.099999999999994 25.4 101.6
    vertex 17.960512242138314 25.39999999999999 83.63948775786169
    vertex 21.997045256124757 25.39999999999999 88.90000000000002
  endloop
endfacet
facet normal 0.0 1.0 5.551115123125783e-17
  outer loop
    vertex 38.099999999999994 25.4 101.6
    vertex 21.997045256124757 25.39999999999999 88.90000000000002
    vertex 24.534515987742342 25.39999999999999 95.02599625439598
  endloop
endfacet
facet normal 0.0 1.0 5.551115123125783e-17
  outer loop
    vertex 38.099999999999994 25.4 101.6
    vertex 24.534515987742342 25.39999999999999 95.02599625439598
    vertex 25.4 25.39999999999999 101.6
  endloop
endfacet
facet normal 0.0 0.0 1.0
  outer loop
    vertex 38.099999999999994 -25.4 101.6
    vertex 25.4 25.39999999999999 101.6
    vertex 25.4 -25.4 101.6
  endloop
endfacet
facet normal 0.0 0.0 1.0
  outer loop
    vertex 25.4 25.39999999999999 101.6
    vertex 38.099999999999994 -25.4 101.6
    vertex 38.099999999999994 25.4 101.6
  endloop
endfacet
facet normal 0.0 0.0 -1.0
  outer loop
    vertex -38.099999999999994 25.4 50.8
    vertex -19.797340730512264 11.430000000000003 50.8
    vertex -38.099999999999994 -25.4 50.8
  endloop
endfacet
facet normal 0.0 0.0 -1.0
  outer loop
    vertex -19.797340730512264 11.430000000000003 50.8
    vertex -38.099999999999994 25.4 50.8
    vertex -16.164461017924474 16.164461017924477 50.8
  endloop
endfacet
facet normal 0.0 0.0 -1.0
  outer loop
    vertex -16.164461017924474 16.164461017924477 50.8
    vertex -38.099999999999994 25.4 50.8
    vertex -11.429999999999993 19.79734073051227 50.8
  endloop
endfacet
facet normal 0.0 0.0 -1.0
  outer loop
    vertex -11.429999999999993 19.79734073051227 50.8
    vertex -38.099999999999994 25.4 50.8
    vertex -5.916603371043624 22.0810643889681 50.8
  endloop
endfacet
facet normal 0.0 0.0 -1.0
  outer loop
    vertex -5.916603371043624 22.0810643889681 50.8
    vertex -38.099999999999994 25.4 50.8
    vertex 0.0 22.859999999999996 50.8
  endloop
endfacet
facet normal 0.0 0.0 -1.0
  outer loop
    vertex 0.0 22.859999999999996 50.8
    vertex -38.099999999999994 25.4 50.8
    vertex 38.099999999999994 25.4 50.8
  endloop
endfacet
facet normal 0.0 0.0 -1.0
  outer loop
    vertex -38.099999999999994 -25.4 50.8
    vertex -19.797340730512264 11.430000000000003 50.8
    vertex -22.081064388968098 5.916603371043629 50.8
  endloop
endfacet
facet normal 0.0 0.0 -1.0
  outer loop
    vertex -38.099999999999994 -25.4 50.8
    vertex -22.081064388968098 5.916603371043629 50.8
    vertex -22.86 0.0 50.8
  endloop
endfacet
facet normal 0.0 0.0 -1.0
  outer loop
    vertex 0.0 22.859999999999996 50.8
    vertex 38.099999999999994 25.4 50.8
    vertex 5.916603371043629 22.0810643889681 50.8
  endloop
endfacet
facet normal 0.0 0.0 -1.0
  outer loop
    vertex 5.916603371043629 22.0810643889681 50.8
    vertex 38.099999999999994 25.4 50.8
    vertex 11.430000000000003 19.797340730512264 50.8
  endloop
endfacet
facet normal 0.0 0.0 -1.0
  outer loop
    vertex 11.430000000000003 19.797340730512264 50.8
    vertex 38.099999999999994 25.4 50.8
    vertex 16.164461017924477 16.164461017924477 50.8
  endloop
endfacet
facet normal 0.0 0.0 -1.0
  outer loop
    vertex 16.164461017924477 16.164461017924477 50.8
    vertex 38.099999999999994 25.4 50.8
    vertex 19.79734073051227 11.429999999999998 50.8
  endloop
endfacet
facet normal 0.0 0.0 -1.0
  outer loop
    vertex 19.79734073051227 11.429999999999998 50.8
    vertex 38.099999999999994 25.4 50.8
    vertex 22.0810643889681 5.916603371043624 50.8
  endloop
endfacet
facet normal 0.0 0.0 -1.0
  outer loop
    vertex 22.0810643889681 5.916603371043624 50.8
    vertex 38.099999999999994 25.4 50.8
    vertex 22.859999999999996 0.0 50.8
  endloop
endfacet
facet normal 0.0 0.0 -1.0
  outer loop
    vertex -38.099999999999994 -25.4 50.8
    vertex -5.639932965095795e-15 -22.86 50.8
    vertex 38.099999999999994 -25.4 50.8
  endloop
endfacet
facet normal 0.0 0.0 -1.0
  outer loop
    vertex -5.639932965095795e-15 -22.86 50.8
    vertex -38.099999999999994 -25.4 50.8
    vertex -5.9166033710436405 -22.081064388968095 50.8
  endloop
endfacet
facet normal 0.0 0.0 -1.0
  outer loop
    vertex -5.9166033710436405 -22.081064388968095 50.8
    vertex -38.099999999999994 -25.4 50.8
    vertex -11.43000000000001 -19.79734073051226 50.8
  endloop
endfacet
facet normal 0.0 0.0 -1.0
  outer loop
    vertex -11.43000000000001 -19.79734073051226 50.8
    vertex -38.099999999999994 -25.4 50.8
    vertex -16.164461017924484 -16.164461017924467 50.8
  endloop
endfacet
facet normal 0.0 0.0 -1.0
  outer loop
    vertex -16.164461017924484 -16.164461017924467 50.8
    vertex -38.099999999999994 -25.4 50.8
    vertex -19.79734073051227 -11.429999999999993 50.8
  endloop
endfacet
facet normal 0.0 0.0 -1.0
  outer loop
    vertex -19.79734073051227 -11.429999999999993 50.8
    vertex -38.099999999999994 -25.4 50.8
    vertex -22.081064388968105 -5.916603371043616 50.8
  endloop
endfacet
facet normal 0.0 0.0 -1.0
  outer loop
    vertex -22.081064388968105 -5.916603371043616 50.8
    vertex -38.099999999999994 -25.4 50.8
    vertex -22.86 0.0 50.8
  endloop
endfacet
facet normal 0.0 0.0 -1.0
  outer loop
    vertex 38.099999999999994 -25.4 50.8
    vertex -5.639932965095795e-15 -22.86 50.8
    vertex 5.916603371043612 -22.081064388968105 50.8
  endloop
endfacet
facet normal 0.0 0.0 -1.0
  outer loop
    vertex 38.099999999999994 -25.4 50.8
    vertex 5.916603371043612 -22.081064388968105 50.8
    vertex 11.429999999999982 -19.79734073051228 50.8
  endloop
endfacet
facet normal 0.0 0.0 -1.0
  outer loop
    vertex 38.099999999999994 -25.4 50.8
    vertex 11.429999999999982 -19.79734073051228 50.8
    vertex 16.164461017924467 -16.16446101792448 50.8
  endloop
endfacet
facet normal 0.0 0.0 -1.0
  outer loop
    vertex 38.099999999999994 -25.4 50.8
    vertex 16.164461017924467 -16.16446101792448 50.8
    vertex 19.79734073051226 -11.43000000000001 50.8
  endloop
endfacet
facet normal 0.0 0.0 -1.0
  outer loop
    vertex 38.099999999999994 -25.4 50.8
    vertex 19.79734073051226 -11.43000000000001 50.8
    vertex 22.0810643889681 -5.916603371043643 50.8
  endloop
endfacet
facet normal 0.0 0.0 -1.0
  outer loop
    vertex 38.099999999999994 -25.4 50.8
    vertex 22.0810643889681 -5.916603371043643 50.8
    vertex 22.859999999999996 0.0 50.8
  endloop
endfacet
facet normal 0.0 0.0 -1.0
  outer loop
    vertex 38.099999999999994 -25.4 50.8
    vertex 22.859999999999996 0.0 50.8
    vertex 38.099999999999994 25.4 50.8
  endloop
endfacet
facet normal 0.0 0.0 1.0
  outer loop
    vertex -25.4 -25.4 101.6
    vertex -38.099999999999994 25.4 101.6
    vertex -38.099999999999994 -25.4 101.6
  endloop
endfacet
facet normal 0.0 0.0 1.0
  outer loop
    vertex -38.099999999999994 25.4 101.6
    vertex -25.4 -25.4 101.6
    vertex -25.4 25.39999999999999 101.6
  endloop
endfacet
facet normal 0.9238795325112864 -0.38268343236509056 0.0
  outer loop
    vertex 22.0810643889681 -5.916603371043643 0.0
    vertex 19.79734073051226 -11.43000000000001 50.8
    vertex 19.79734073051226 -11.43000000000001 0.0
  endloop
endfacet
facet normal 0.9238795325112864 -0.38268343236509056 0.0
  outer loop
    vertex 19.79734073051226 -11.43000000000001 50.8
    vertex 22.0810643889681 -5.916603371043643 0.0
    vertex 22.0810643889681 -5.916603371043643 50.8
  endloop
endfacet
facet normal 0.9238795325112867 0.38268343236508967 0.0
  outer loop
    vertex 19.79734073051227 11.429999999999998 0.0
    vertex 22.0810643889681 5.916603371043624 50.8
    vertex 22.0810643889681 5.916603371043624 0.0
  endloop
endfacet
facet normal 0.9238795325112867 0.38268343236508967 0.0
  outer loop
    vertex 22.0810643889681 5.916603371043624 50.8
    vertex 19.79734073051227 11.429999999999998 0.0
    vertex 19.79734073051227 11.429999999999998 50.8
  endloop
endfacet
facet normal 0.7933533402912353 0.6087614290087204 0.0
  outer loop
    vertex 16.164461017924477 16.164461017924477 0.0
    vertex 19.79734073051227 11.429999999999998 50.8
    vertex 19.79734073051227 11.429999999999998 0.0
  endloop
endfacet
facet normal 0.7933533402912353 0.6087614290087204 0.0
  outer loop
    vertex 19.79734073051227 11.429999999999998 50.8
    vertex 16.164461017924477 16.164461017924477 0.0
    vertex 16.164461017924477 16.164461017924477 50.8
  endloop
endfacet
facet normal 0.9914448613738105 0.13052619222005146 0.0
  outer loop
    vertex 22.0810643889681 5.916603371043624 0.0
    vertex 22.859999999999996 0.0 50.8
    vertex 22.859999999999996 0.0 0.0
  endloop
endfacet
facet normal 0.9914448613738105 0.13052619222005146 0.0
  outer loop
    vertex 22.859999999999996 0.0 50.8
    vertex 22.0810643889681 5.916603371043624 0.0
    vertex 22.0810643889681 5.916603371043624 50.8
  endloop
endfacet
facet normal 0.9914448613738105 -0.130526192220052 0.0
  outer loop
    vertex 22.859999999999996 0.0 0.0
    vertex 22.0810643889681 -5.916603371043643 50.8
    vertex 22.0810643889681 -5.916603371043643 0.0
  endloop
endfacet
facet normal 0.9914448613738105 -0.130526192220052 0.0
  outer loop
    vertex 22.0810643889681 -5.916603371043643 50.8
    vertex 22.859999999999996 0.0 0.0
    vertex 22.859999999999996 0.0 50.8
  endloop
endfacet
facet normal 0.9914448613738105 -3.209344765246536e-19 0.1305261922200519
  outer loop
    vertex -24.53451598774233 25.39999999999999 95.02599625439596
    vertex -25.4 -25.4 101.6
    vertex -24.53451598774233 -25.4 95.02599625439596
  endloop
endfacet
facet normal 0.9914448613738105 -3.209344765246536e-19 0.1305261922200519
  outer loop
    vertex -25.4 -25.4 101.6
    vertex -24.53451598774233 25.39999999999999 95.02599625439596
    vertex -25.4 25.39999999999999 101.6
  endloop
endfacet
facet normal 0.608761429008721 0.0 0.7933533402912348
  outer loop
    vertex -12.7 -25.4 79.60295474387524
    vertex -17.960512242138307 25.39999999999999 83.63948775786169
    vertex -17.960512242138307 -25.4 83.63948775786169
  endloop
endfacet
facet normal 0.608761429008721 0.0 0.7933533402912348
  outer loop
    vertex -17.960512242138307 25.39999999999999 83.63948775786169
    vertex -12.7 -25.4 79.60295474387524
    vertex -12.7 25.39999999999999 79.60295474387524
  endloop
endfacet
facet normal 0.9238795325112867 0.0 0.3826834323650896
  outer loop
    vertex -21.99704525612474 25.39999999999999 88.89999999999999
    vertex -24.53451598774233 -25.4 95.02599625439596
    vertex -21.99704525612474 -25.4 88.89999999999999
  endloop
endfacet
facet normal 0.9238795325112867 0.0 0.3826834323650896
  outer loop
    vertex -24.53451598774233 -25.4 95.02599625439596
    vertex -21.99704525612474 25.39999999999999 88.89999999999999
    vertex -24.53451598774233 25.39999999999999 95.02599625439596
  endloop
endfacet
facet normal 0.7933533402912353 0.0 0.6087614290087205
  outer loop
    vertex -17.960512242138307 25.39999999999999 83.63948775786169
    vertex -21.99704525612474 -25.4 88.89999999999999
    vertex -17.960512242138307 -25.4 83.63948775786169
  endloop
endfacet
facet normal 0.7933533402912353 0.0 0.6087614290087205
  outer loop
    vertex -21.99704525612474 -25.4 88.89999999999999
    vertex -17.960512242138307 25.39999999999999 83.63948775786169
    vertex -21.99704525612474 25.39999999999999 88.89999999999999
  endloop
endfacet
facet normal 0.382683432365089 0.0 0.9238795325112872
  outer loop
    vertex -6.574003745604027 -25.4 77.06548401225767
    vertex -12.7 25.39999999999999 79.60295474387524
    vertex -12.7 -25.4 79.60295474387524
  endloop
endfacet
facet normal 0.382683432365089 0.0 0.9238795325112872
  outer loop
    vertex -12.7 25.39999999999999 79.60295474387524
    vertex -6.574003745604027 -25.4 77.06548401225767
    vertex -6.574003745604027 25.39999999999999 77.06548401225767
  endloop
endfacet
facet normal 0.6087614290087204 0.7933533402912353 0.0
  outer loop
    vertex 11.430000000000003 19.797340730512264 50.8
    vertex 16.164461017924477 16.164461017924477 0.0
    vertex 11.430000000000003 19.797340730512264 0.0
  endloop
endfacet
facet normal 0.6087614290087204 0.7933533402912353 0.0
  outer loop
    vertex 16.164461017924477 16.164461017924477 0.0
    vertex 11.430000000000003 19.797340730512264 50.8
    vertex 16.164461017924477 16.164461017924477 50.8
  endloop
endfacet
facet normal 0.793353340291235 -0.6087614290087208 0.0
  outer loop
    vertex 19.79734073051226 -11.43000000000001 0.0
    vertex 16.164461017924467 -16.16446101792448 50.8
    vertex 16.164461017924467 -16.16446101792448 0.0
  endloop
endfacet
facet normal 0.793353340291235 -0.6087614290087208 0.0
  outer loop
    vertex 16.164461017924467 -16.16446101792448 50.8
    vertex 19.79734073051226 -11.43000000000001 0.0
    vertex 19.79734073051226 -11.43000000000001 50.8
  endloop
endfacet
facet normal -0.608761429008721 -0.793353340291235 -0.0
  outer loop
    vertex -11.43000000000001 -19.79734073051226 50.8
    vertex -16.164461017924484 -16.164461017924467 0.0
    vertex -11.43000000000001 -19.79734073051226 0.0
  endloop
endfacet
facet normal -0.608761429008721 -0.793353340291235 -0.0
  outer loop
    vertex -16.164461017924484 -16.164461017924467 0.0
    vertex -11.43000000000001 -19.79734073051226 50.8
    vertex -16.164461017924484 -16.164461017924467 50.8
  endloop
endfacet
facet normal -0.9238795325112868 -0.38268343236508956 -0.0
  outer loop
    vertex -22.081064388968105 -5.916603371043616 50.8
    vertex -19.79734073051227 -11.429999999999993 0.0
    vertex -19.79734073051227 -11.429999999999993 50.8
  endloop
endfacet
facet normal -0.9238795325112868 -0.38268343236508956 -0.0
  outer loop
    vertex -19.79734073051227 -11.429999999999993 0.0
    vertex -22.081064388968105 -5.916603371043616 50.8
    vertex -22.081064388968105 -5.916603371043616 0.0
  endloop
endfacet
facet normal -0.1305261922200521 -0.9914448613738105 -0.0
  outer loop
    vertex -5.639932965095795e-15 -22.86 50.8
    vertex -5.9166033710436405 -22.081064388968095 0.0
    vertex -5.639932965095795e-15 -22.86 0.0
  endloop
endfacet
facet normal -0.1305261922200521 -0.9914448613738105 -0.0
  outer loop
    vertex -5.9166033710436405 -22.081064388968095 0.0
    vertex -5.639932965095795e-15 -22.86 50.8
    vertex -5.9166033710436405 -22.081064388968095 50.8
  endloop
endfacet
facet normal 0.13052619222005113 -0.9914448613738106 0.0
  outer loop
    vertex 5.916603371043612 -22.081064388968105 50.8
    vertex -5.639932965095795e-15 -22.86 0.0
    vertex 5.916603371043612 -22.081064388968105 0.0
  endloop
endfacet
facet normal 0.13052619222005113 -0.9914448613738106 0.0
  outer loop
    vertex -5.639932965095795e-15 -22.86 0.0
    vertex 5.916603371043612 -22.081064388968105 50.8
    vertex -5.639932965095795e-15 -22.86 50.8
  endloop
endfacet
facet normal -0.7933533402912355 -0.6087614290087203 -0.0
  outer loop
    vertex -19.79734073051227 -11.429999999999993 50.8
    vertex -16.164461017924484 -16.164461017924467 0.0
    vertex -16.164461017924484 -16.164461017924467 50.8
  endloop
endfacet
facet normal -0.7933533402912355 -0.6087614290087203 -0.0
  outer loop
    vertex -16.164461017924484 -16.164461017924467 0.0
    vertex -19.79734073051227 -11.429999999999993 50.8
    vertex -19.79734073051227 -11.429999999999993 0.0
  endloop
endfacet
facet normal -0.3826834323650905 -0.9238795325112865 -0.0
  outer loop
    vertex -5.9166033710436405 -22.081064388968095 50.8
    vertex -11.43000000000001 -19.79734073051226 0.0
    vertex -5.9166033710436405 -22.081064388968095 0.0
  endloop
endfacet
facet normal -0.3826834323650905 -0.9238795325112865 -0.0
  outer loop
    vertex -11.43000000000001 -19.79734073051226 0.0
    vertex -5.9166033710436405 -22.081064388968095 50.8
    vertex -11.43000000000001 -19.79734073051226 50.8
  endloop
endfacet
facet normal -0.9914448613738105 -0.13052619222005113 0.0
  outer loop
    vertex -22.86 0.0 50.8
    vertex -22.081064388968105 -5.916603371043616 0.0
    vertex -22.081064388968105 -5.916603371043616 50.8
  endloop
endfacet
facet normal -0.9914448613738105 -0.13052619222005113 0.0
  outer loop
    vertex -22.081064388968105 -5.916603371043616 0.0
    vertex -22.86 0.0 50.8
    vertex -22.86 0.0 0.0
  endloop
endfacet
facet normal 0.6087614290087202 -0.7933533402912355 0.0
  outer loop
    vertex 16.164461017924467 -16.16446101792448 50.8
    vertex 11.429999999999982 -19.79734073051228 0.0
    vertex 16.164461017924467 -16.16446101792448 0.0
  endloop
endfacet
facet normal 0.6087614290087202 -0.7933533402912355 0.0
  outer loop
    vertex 11.429999999999982 -19.79734073051228 0.0
    vertex 16.164461017924467 -16.16446101792448 50.8
    vertex 11.429999999999982 -19.79734073051228 50.8
  endloop
endfacet
facet normal -0.9914448613738105 0.13052619222005188 0.0
  outer loop
    vertex -22.081064388968098 5.916603371043629 50.8
    vertex -22.86 0.0 0.0
    vertex -22.86 0.0 50.8
  endloop
endfacet
facet normal -0.9914448613738105 0.13052619222005188 0.0
  outer loop
    vertex -22.86 0.0 0.0
    vertex -22.081064388968098 5.916603371043629 50.8
    vertex -22.081064388968098 5.916603371043629 0.0
  endloop
endfacet
facet normal 0.3826834323650892 -0.923879532511287 0.0
  outer loop
    vertex 11.429999999999982 -19.79734073051228 50.8
    vertex 5.916603371043612 -22.081064388968105 0.0
    vertex 11.429999999999982 -19.79734073051228 0.0
  endloop
endfacet
facet normal 0.3826834323650892 -0.923879532511287 0.0
  outer loop
    vertex 5.916603371043612 -22.081064388968105 0.0
    vertex 11.429999999999982 -19.79734073051228 50.8
    vertex 5.916603371043612 -22.081064388968105 50.8
  endloop
endfacet
facet normal -0.793353340291235 0.6087614290087208 0.0
  outer loop
    vertex -16.164461017924474 16.164461017924477 50.8
    vertex -19.797340730512264 11.430000000000003 0.0
    vertex -19.797340730512264 11.430000000000003 50.8
  endloop
endfacet
facet normal -0.793353340291235 0.6087614290087208 0.0
  outer loop
    vertex -19.797340730512264 11.430000000000003 0.0
    vertex -16.164461017924474 16.164461017924477 50.8
    vertex -16.164461017924474 16.164461017924477 0.0
  endloop
endfacet
facet normal -0.9238795325112867 0.38268343236509006 0.0
  outer loop
    vertex -19.797340730512264 11.430000000000003 50.8
    vertex -22.081064388968098 5.916603371043629 0.0
    vertex -22.081064388968098 5.916603371043629 50.8
  endloop
endfacet
facet normal -0.9238795325112867 0.38268343236509006 0.0
  outer loop
    vertex -22.081064388968098 5.916603371043629 0.0
    vertex -19.797340730512264 11.430000000000003 50.8
    vertex -19.797340730512264 11.430000000000003 0.0
  endloop
endfacet
facet normal -0.6087614290087203 0.7933533402912354 0.0
  outer loop
    vertex -16.164461017924474 16.164461017924477 50.8
    vertex -11.429999999999993 19.79734073051227 0.0
    vertex -16.164461017924474 16.164461017924477 0.0
  endloop
endfacet
facet normal -0.6087614290087203 0.7933533402912354 0.0
  outer loop
    vertex -11.429999999999993 19.79734073051227 0.0
    vertex -16.164461017924474 16.164461017924477 50.8
    vertex -11.429999999999993 19.79734073051227 50.8
  endloop
endfacet
facet normal 0.13052619222005185 0.9914448613738105 0.0
  outer loop
    vertex 0.0 22.859999999999996 50.8
    vertex 5.916603371043629 22.0810643889681 0.0
    vertex 0.0 22.859999999999996 0.0
  endloop
endfacet
facet normal 0.13052619222005185 0.9914448613738105 0.0
  outer loop
    vertex 5.916603371043629 22.0810643889681 0.0
    vertex 0.0 22.859999999999996 50.8
    vertex 5.916603371043629 22.0810643889681 50.8
  endloop
endfacet
facet normal -0.3826834323650899 0.9238795325112868 0.0
  outer loop
    vertex -11.429999999999993 19.79734073051227 50.8
    vertex -5.916603371043624 22.0810643889681 0.0
    vertex -11.429999999999993 19.79734073051227 0.0
  endloop
endfacet
facet normal -0.3826834323650899 0.9238795325112868 0.0
  outer loop
    vertex -5.916603371043624 22.0810643889681 0.0
    vertex -11.429999999999993 19.79734073051227 50.8
    vertex -5.916603371043624 22.0810643889681 50.8
  endloop
endfacet
facet normal 0.3826834323650898 0.9238795325112868 0.0
  outer loop
    vertex 5.916603371043629 22.0810643889681 50.8
    vertex 11.430000000000003 19.797340730512264 0.0
    vertex 5.916603371043629 22.0810643889681 0.0
  endloop
endfacet
facet normal 0.3826834323650898 0.9238795325112868 0.0
  outer loop
    vertex 11.430000000000003 19.797340730512264 0.0
    vertex 5.916603371043629 22.0810643889681 50.8
    vertex 11.430000000000003 19.797340730512264 50.8
  endloop
endfacet
facet normal -0.13052619222005146 0.9914448613738104 0.0
  outer loop
    vertex -5.916603371043624 22.0810643889681 50.8
    vertex 0.0 22.859999999999996 0.0
    vertex -5.916603371043624 22.0810643889681 0.0
  endloop
endfacet
facet normal -0.13052619222005146 0.9914448613738104 0.0
  outer loop
    vertex 0.0 22.859999999999996 0.0
    vertex -5.916603371043624 22.0810643889681 50.8
    vertex 0.0 22.859999999999996 50.8
  endloop
endfacet
facet normal -0.9914448613738105 0.0 0.13052619222005135
  outer loop
    vertex 25.4 25.39999999999999 101.6
    vertex 24.534515987742342 -25.4 95.02599625439598
    vertex 25.4 -25.4 101.6
  endloop
endfacet
facet normal -0.9914448613738105 0.0 0.13052619222005135
  outer loop
    vertex 24.534515987742342 -25.4 95.02599625439598
    vertex 25.4 25.39999999999999 101.6
    vertex 24.534515987742342 25.39999999999999 95.02599625439598
  endloop
endfacet
facet normal -0.7933533402912358 0.0 0.6087614290087197
  outer loop
    vertex 21.997045256124757 25.39999999999999 88.90000000000002
    vertex 17.960512242138314 -25.4 83.63948775786169
    vertex 21.997045256124757 -25.4 88.90000000000002
  endloop
endfacet
facet normal -0.7933533402912358 0.0 0.6087614290087197
  outer loop
    vertex 17.960512242138314 -25.4 83.63948775786169
    vertex 21.997045256124757 25.39999999999999 88.90000000000002
    vertex 17.960512242138314 25.39999999999999 83.63948775786169
  endloop
endfacet
facet normal -0.9238795325112868 0.0 0.3826834323650895
  outer loop
    vertex 24.534515987742342 25.39999999999999 95.02599625439598
    vertex 21.997045256124757 -25.4 88.90000000000002
    vertex 24.534515987742342 -25.4 95.02599625439598
  endloop
endfacet
facet normal -0.9238795325112868 0.0 0.3826834323650895
  outer loop
    vertex 21.997045256124757 -25.4 88.90000000000002
    vertex 24.534515987742342 25.39999999999999 95.02599625439598
    vertex 21.997045256124757 25.39999999999999 88.90000000000002
  endloop
endfacet
facet normal 0.13052619222005193 0.0 0.9914448613738105
  outer loop
    vertex 0.0 -25.4 76.19999999999999
    vertex -6.574003745604027 25.39999999999999 77.06548401225767
    vertex -6.574003745604027 -25.4 77.06548401225767
  endloop
endfacet
facet normal 0.13052619222005193 0.0 0.9914448613738105
  outer loop
    vertex -6.574003745604027 25.39999999999999 77.06548401225767
    vertex 0.0 -25.4 76.19999999999999
    vertex 0.0 25.39999999999999 76.19999999999999
  endloop
endfacet
facet normal -0.38268343236509084 0.0 0.9238795325112863
  outer loop
    vertex 12.70000000000001 -25.4 79.60295474387526
    vertex 6.574003745604049 25.39999999999999 77.06548401225767
    vertex 6.574003745604049 -25.4 77.06548401225767
  endloop
endfacet
facet normal -0.38268343236509084 0.0 0.9238795325112863
  outer loop
    vertex 6.574003745604049 25.39999999999999 77.06548401225767
    vertex 12.70000000000001 -25.4 79.60295474387526
    vertex 12.70000000000001 25.39999999999999 79.60295474387526
  endloop
endfacet
facet normal -0.6087614290087207 0.0 0.7933533402912352
  outer loop
    vertex 17.960512242138314 -25.4 83.63948775786169
    vertex 12.70000000000001 25.39999999999999 79.60295474387526
    vertex 12.70000000000001 -25.4 79.60295474387526
  endloop
endfacet
facet normal -0.6087614290087207 0.0 0.7933533402912352
  outer loop
    vertex 12.70000000000001 25.39999999999999 79.60295474387526
    vertex 17.960512242138314 -25.4 83.63948775786169
    vertex 17.960512242138314 25.39999999999999 83.63948775786169
  endloop
endfacet
facet normal -0.13052619222005152 0.0 0.9914448613738105
  outer loop
    vertex 6.574003745604049 -25.4 77.06548401225767
    vertex 0.0 25.39999999999999 76.19999999999999
    vertex 0.0 -25.4 76.19999999999999
  endloop
endfacet
facet normal -0.13052619222005152 0.0 0.9914448613738105
  outer loop
    vertex 0.0 25.39999999999999 76.19999999999999
    vertex 6.574003745604049 -25.4 77.06548401225767
    vertex 6.574003745604049 25.39999999999999 77.06548401225767
  endloop
endfacet
endsolid Untitled-629ff16b
