solid Untitled-622520e6
facet normal 1.0 0.0 0.0
  outer loop
    vertex 398.82132579999995 152.39999999999998 228.6
    vertex 398.82132579999995 0.0 330.2
    vertex 398.82132579999995 0.0 228.6
  endloop
endfacet
facet normal 1.0 0.0 0.0
  outer loop
    vertex 398.82132579999995 0.0 330.2
    vertex 398.82132579999995 152.39999999999998 228.6
    vertex 398.82132579999995 152.39999999999998 330.2
  endloop
endfacet
facet normal 0.0 1.0 0.0
  outer loop
    vertex 253.53332580000003 145.28799999999995 228.6
    vertex 391.70932579999993 145.28799999999995 203.2
    vertex 253.53332580000003 145.28799999999995 203.2
  endloop
endfacet
facet normal 0.0 1.0 0.0
  outer loop
    vertex 391.70932579999993 145.28799999999995 203.2
    vertex 253.53332580000003 145.28799999999995 228.6
    vertex 391.70932579999993 145.28799999999995 228.6
  endloop
endfacet
facet normal 0.0 1.0 0.0
  outer loop
    vertex 246.42132580000003 152.39999999999998 228.6
    vertex 282.8703258 152.39999999999998 301.94038411670374
    vertex 398.82132579999995 152.39999999999998 228.6
  endloop
endfacet
facet normal 0.0 1.0 0.0
  outer loop
    vertex 282.8703258 152.39999999999998 301.94038411670374
    vertex 246.42132580000003 152.39999999999998 228.6
    vertex 282.186459208522 152.39999999999998 302.465133408522
  endloop
endfacet
facet normal 0.0 1.0 0.0
  outer loop
    vertex 282.186459208522 152.39999999999998 302.465133408522
    vertex 246.42132580000003 152.39999999999998 228.6
    vertex 246.42132580000003 152.39999999999998 330.2
  endloop
endfacet
facet normal 0.0 1.0 0.0
  outer loop
    vertex 398.82132579999995 152.39999999999998 228.6
    vertex 282.8703258 152.39999999999998 301.94038411670374
    vertex 283.6667053130715 152.39999999999998 301.61051292159345
  endloop
endfacet
facet normal 0.0 1.0 0.0
  outer loop
    vertex 398.82132579999995 152.39999999999998 228.6
    vertex 283.6667053130715 152.39999999999998 301.61051292159345
    vertex 284.52132580000006 152.39999999999998 301.498
  endloop
endfacet
facet normal 0.0 1.0 0.0
  outer loop
    vertex 282.186459208522 152.39999999999998 302.465133408522
    vertex 246.42132580000003 152.39999999999998 330.2
    vertex 281.66170991670384 152.39999999999998 303.149
  endloop
endfacet
facet normal 0.0 1.0 0.0
  outer loop
    vertex 281.66170991670384 152.39999999999998 303.149
    vertex 246.42132580000003 152.39999999999998 330.2
    vertex 281.3318387215935 152.39999999999998 303.94537951307143
  endloop
endfacet
facet normal 0.0 1.0 0.0
  outer loop
    vertex 281.3318387215935 152.39999999999998 303.94537951307143
    vertex 246.42132580000003 152.39999999999998 330.2
    vertex 281.21932580000004 152.39999999999998 304.79999999999995
  endloop
endfacet
facet normal 0.0 1.0 0.0
  outer loop
    vertex 281.21932580000004 152.39999999999998 304.79999999999995
    vertex 246.42132580000003 152.39999999999998 330.2
    vertex 281.3318387215935 152.39999999999998 305.65462048692854
  endloop
endfacet
facet normal 0.0 1.0 0.0
  outer loop
    vertex 281.3318387215935 152.39999999999998 305.65462048692854
    vertex 246.42132580000003 152.39999999999998 330.2
    vertex 281.66170991670384 152.39999999999998 306.451
  endloop
endfacet
facet normal 0.0 1.0 0.0
  outer loop
    vertex 281.66170991670384 152.39999999999998 306.451
    vertex 246.42132580000003 152.39999999999998 330.2
    vertex 282.186459208522 152.39999999999998 307.134866591478
  endloop
endfacet
facet normal 0.0 1.0 0.0
  outer loop
    vertex 282.186459208522 152.39999999999998 307.134866591478
    vertex 246.42132580000003 152.39999999999998 330.2
    vertex 282.87032580000005 152.39999999999998 307.6596158832962
  endloop
endfacet
facet normal 0.0 1.0 0.0
  outer loop
    vertex 282.87032580000005 152.39999999999998 307.6596158832962
    vertex 246.42132580000003 152.39999999999998 330.2
    vertex 283.6667053130715 152.39999999999998 307.9894870784065
  endloop
endfacet
facet normal 0.0 1.0 0.0
  outer loop
    vertex 283.6667053130715 152.39999999999998 307.9894870784065
    vertex 246.42132580000003 152.39999999999998 330.2
    vertex 284.52132580000006 152.39999999999998 308.102
  endloop
endfacet
facet normal 0.0 1.0 0.0
  outer loop
    vertex 284.52132580000006 152.39999999999998 308.102
    vertex 246.42132580000003 152.39999999999998 330.2
    vertex 360.72132579999993 152.39999999999998 308.102
  endloop
endfacet
facet normal 0.0 1.0 0.0
  outer loop
    vertex 398.82132579999995 152.39999999999998 228.6
    vertex 363.0561923914779 152.39999999999998 302.465133408522
    vertex 398.82132579999995 152.39999999999998 330.2
  endloop
endfacet
facet normal 0.0 1.0 0.0
  outer loop
    vertex 363.0561923914779 152.39999999999998 302.465133408522
    vertex 398.82132579999995 152.39999999999998 228.6
    vertex 362.37232579999994 152.39999999999998 301.94038411670374
  endloop
endfacet
facet normal 0.0 1.0 0.0
  outer loop
    vertex 362.37232579999994 152.39999999999998 301.94038411670374
    vertex 398.82132579999995 152.39999999999998 228.6
    vertex 361.57594628692846 152.39999999999998 301.61051292159345
  endloop
endfacet
facet normal 0.0 1.0 0.0
  outer loop
    vertex 361.57594628692846 152.39999999999998 301.61051292159345
    vertex 398.82132579999995 152.39999999999998 228.6
    vertex 360.72132579999993 152.39999999999998 301.498
  endloop
endfacet
facet normal 0.0 1.0 0.0
  outer loop
    vertex 360.72132579999993 152.39999999999998 301.498
    vertex 398.82132579999995 152.39999999999998 228.6
    vertex 284.52132580000006 152.39999999999998 301.498
  endloop
endfacet
facet normal 0.0 1.0 0.0
  outer loop
    vertex 398.82132579999995 152.39999999999998 330.2
    vertex 363.0561923914779 152.39999999999998 302.465133408522
    vertex 363.58094168329615 152.39999999999998 303.14899999999994
  endloop
endfacet
facet normal 0.0 1.0 0.0
  outer loop
    vertex 398.82132579999995 152.39999999999998 330.2
    vertex 363.58094168329615 152.39999999999998 303.14899999999994
    vertex 363.9108128784065 152.39999999999998 303.94537951307143
  endloop
endfacet
facet normal 0.0 1.0 0.0
  outer loop
    vertex 398.82132579999995 152.39999999999998 330.2
    vertex 363.9108128784065 152.39999999999998 303.94537951307143
    vertex 364.02332579999995 152.39999999999998 304.79999999999995
  endloop
endfacet
facet normal 0.0 1.0 0.0
  outer loop
    vertex 398.82132579999995 152.39999999999998 330.2
    vertex 364.02332579999995 152.39999999999998 304.79999999999995
    vertex 363.9108128784065 152.39999999999998 305.65462048692854
  endloop
endfacet
facet normal 0.0 1.0 0.0
  outer loop
    vertex 398.82132579999995 152.39999999999998 330.2
    vertex 363.9108128784065 152.39999999999998 305.65462048692854
    vertex 363.58094168329615 152.39999999999998 306.45099999999996
  endloop
endfacet
facet normal 0.0 1.0 0.0
  outer loop
    vertex 398.82132579999995 152.39999999999998 330.2
    vertex 363.58094168329615 152.39999999999998 306.45099999999996
    vertex 363.0561923914779 152.39999999999998 307.134866591478
  endloop
endfacet
facet normal 0.0 1.0 0.0
  outer loop
    vertex 398.82132579999995 152.39999999999998 330.2
    vertex 363.0561923914779 152.39999999999998 307.134866591478
    vertex 362.3723258 152.39999999999998 307.6596158832962
  endloop
endfacet
facet normal 0.0 1.0 0.0
  outer loop
    vertex 398.82132579999995 152.39999999999998 330.2
    vertex 362.3723258 152.39999999999998 307.6596158832962
    vertex 361.57594628692846 152.39999999999998 307.9894870784065
  endloop
endfacet
facet normal 0.0 1.0 0.0
  outer loop
    vertex 398.82132579999995 152.39999999999998 330.2
    vertex 361.57594628692846 152.39999999999998 307.9894870784065
    vertex 360.72132579999993 152.39999999999998 308.102
  endloop
endfacet
facet normal 0.0 1.0 0.0
  outer loop
    vertex 398.82132579999995 152.39999999999998 330.2
    vertex 360.72132579999993 152.39999999999998 308.102
    vertex 246.42132580000003 152.39999999999998 330.2
  endloop
endfacet
facet normal 0.0 1.0 0.0
  outer loop
    vertex 285.3759462869286 152.39999999999998 301.61051292159345
    vertex 360.72132579999993 152.39999999999998 301.498
    vertex 284.52132580000006 152.39999999999998 301.498
  endloop
endfacet
facet normal 0.0 1.0 0.0
  outer loop
    vertex 360.72132579999993 152.39999999999998 301.498
    vertex 285.3759462869286 152.39999999999998 301.61051292159345
    vertex 359.8667053130714 152.39999999999998 301.61051292159345
  endloop
endfacet
facet normal 0.0 1.0 0.0
  outer loop
    vertex 359.8667053130714 152.39999999999998 301.61051292159345
    vertex 285.3759462869286 152.39999999999998 301.61051292159345
    vertex 286.1723258 152.39999999999998 301.94038411670374
  endloop
endfacet
facet normal 0.0 1.0 0.0
  outer loop
    vertex 359.8667053130714 152.39999999999998 301.61051292159345
    vertex 286.1723258 152.39999999999998 301.94038411670374
    vertex 359.0703257999999 152.39999999999998 301.94038411670374
  endloop
endfacet
facet normal 0.0 1.0 0.0
  outer loop
    vertex 359.0703257999999 152.39999999999998 301.94038411670374
    vertex 286.1723258 152.39999999999998 301.94038411670374
    vertex 286.85619239147803 152.39999999999998 302.465133408522
  endloop
endfacet
facet normal 0.0 1.0 0.0
  outer loop
    vertex 359.0703257999999 152.39999999999998 301.94038411670374
    vertex 286.85619239147803 152.39999999999998 302.465133408522
    vertex 358.38645920852196 152.39999999999998 302.465133408522
  endloop
endfacet
facet normal 0.0 1.0 0.0
  outer loop
    vertex 358.38645920852196 152.39999999999998 302.465133408522
    vertex 286.85619239147803 152.39999999999998 302.465133408522
    vertex 287.38094168329627 152.39999999999998 303.14899999999994
  endloop
endfacet
facet normal 0.0 1.0 0.0
  outer loop
    vertex 358.38645920852196 152.39999999999998 302.465133408522
    vertex 287.38094168329627 152.39999999999998 303.14899999999994
    vertex 357.8617099167037 152.39999999999998 303.149
  endloop
endfacet
facet normal 0.0 1.0 0.0
  outer loop
    vertex 357.8617099167037 152.39999999999998 303.149
    vertex 287.38094168329627 152.39999999999998 303.14899999999994
    vertex 287.71081287840656 152.39999999999998 303.94537951307143
  endloop
endfacet
facet normal 0.0 1.0 0.0
  outer loop
    vertex 357.8617099167037 152.39999999999998 303.149
    vertex 287.71081287840656 152.39999999999998 303.94537951307143
    vertex 357.53183872159343 152.39999999999998 303.94537951307143
  endloop
endfacet
facet normal 0.0 1.0 0.0
  outer loop
    vertex 357.53183872159343 152.39999999999998 303.94537951307143
    vertex 287.71081287840656 152.39999999999998 303.94537951307143
    vertex 287.8233258000001 152.39999999999998 304.79999999999995
  endloop
endfacet
facet normal 0.0 1.0 0.0
  outer loop
    vertex 357.53183872159343 152.39999999999998 303.94537951307143
    vertex 287.8233258000001 152.39999999999998 304.79999999999995
    vertex 357.4193257999999 152.39999999999998 304.79999999999995
  endloop
endfacet
facet normal 0.0 1.0 0.0
  outer loop
    vertex 357.4193257999999 152.39999999999998 304.79999999999995
    vertex 287.8233258000001 152.39999999999998 304.79999999999995
    vertex 287.71081287840656 152.39999999999998 305.65462048692854
  endloop
endfacet
facet normal 0.0 1.0 0.0
  outer loop
    vertex 357.4193257999999 152.39999999999998 304.79999999999995
    vertex 287.71081287840656 152.39999999999998 305.65462048692854
    vertex 357.53183872159343 152.39999999999998 305.65462048692854
  endloop
endfacet
facet normal 0.0 1.0 0.0
  outer loop
    vertex 357.53183872159343 152.39999999999998 305.65462048692854
    vertex 287.71081287840656 152.39999999999998 305.65462048692854
    vertex 287.38094168329627 152.39999999999998 306.45099999999996
  endloop
endfacet
facet normal 0.0 1.0 0.0
  outer loop
    vertex 357.53183872159343 152.39999999999998 305.65462048692854
    vertex 287.38094168329627 152.39999999999998 306.45099999999996
    vertex 357.8617099167037 152.39999999999998 306.451
  endloop
endfacet
facet normal 0.0 1.0 0.0
  outer loop
    vertex 357.8617099167037 152.39999999999998 306.451
    vertex 287.38094168329627 152.39999999999998 306.45099999999996
    vertex 286.85619239147803 152.39999999999998 307.134866591478
  endloop
endfacet
facet normal 0.0 1.0 0.0
  outer loop
    vertex 357.8617099167037 152.39999999999998 306.451
    vertex 286.85619239147803 152.39999999999998 307.134866591478
    vertex 358.38645920852196 152.39999999999998 307.134866591478
  endloop
endfacet
facet normal 0.0 1.0 0.0
  outer loop
    vertex 358.38645920852196 152.39999999999998 307.134866591478
    vertex 286.85619239147803 152.39999999999998 307.134866591478
    vertex 286.17232580000007 152.39999999999998 307.6596158832962
  endloop
endfacet
facet normal 0.0 1.0 0.0
  outer loop
    vertex 358.38645920852196 152.39999999999998 307.134866591478
    vertex 286.17232580000007 152.39999999999998 307.6596158832962
    vertex 359.0703258 152.39999999999998 307.6596158832962
  endloop
endfacet
facet normal 0.0 1.0 0.0
  outer loop
    vertex 359.0703258 152.39999999999998 307.6596158832962
    vertex 286.17232580000007 152.39999999999998 307.6596158832962
    vertex 285.3759462869286 152.39999999999998 307.9894870784065
  endloop
endfacet
facet normal 0.0 1.0 0.0
  outer loop
    vertex 359.0703258 152.39999999999998 307.6596158832962
    vertex 285.3759462869286 152.39999999999998 307.9894870784065
    vertex 359.8667053130714 152.39999999999998 307.9894870784065
  endloop
endfacet
facet normal 0.0 1.0 0.0
  outer loop
    vertex 359.8667053130714 152.39999999999998 307.9894870784065
    vertex 285.3759462869286 152.39999999999998 307.9894870784065
    vertex 284.52132580000006 152.39999999999998 308.102
  endloop
endfacet
facet normal 0.0 1.0 0.0
  outer loop
    vertex 359.8667053130714 152.39999999999998 307.9894870784065
    vertex 284.52132580000006 152.39999999999998 308.102
    vertex 360.72132579999993 152.39999999999998 308.102
  endloop
endfacet
facet normal -1.0 0.0 0.0
  outer loop
    vertex 246.42132580000003 152.39999999999998 330.2
    vertex 246.42132580000003 0.0 228.6
    vertex 246.42132580000003 0.0 330.2
  endloop
endfacet
facet normal -1.0 0.0 0.0
  outer loop
    vertex 246.42132580000003 0.0 228.6
    vertex 246.42132580000003 152.39999999999998 330.2
    vertex 246.42132580000003 152.39999999999998 228.6
  endloop
endfacet
facet normal -1.0 0.0 0.0
  outer loop
    vertex 253.53332580000003 145.28799999999995 228.6
    vertex 253.53332580000003 7.112000000000006 203.2
    vertex 253.53332580000003 7.112000000000006 228.6
  endloop
endfacet
facet normal -1.0 0.0 0.0
  outer loop
    vertex 253.53332580000003 7.112000000000006 203.2
    vertex 253.53332580000003 145.28799999999995 228.6
    vertex 253.53332580000003 145.28799999999995 203.2
  endloop
endfacet
facet normal 0.0 -1.0 0.0
  outer loop
    vertex 398.82132579999995 0.0 330.2
    vertex 246.42132580000003 0.0 228.6
    vertex 398.82132579999995 0.0 228.6
  endloop
endfacet
facet normal 0.0 -1.0 0.0
  outer loop
    vertex 246.42132580000003 0.0 228.6
    vertex 398.82132579999995 0.0 330.2
    vertex 246.42132580000003 0.0 330.2
  endloop
endfacet
facet normal 1.0 0.0 0.0
  outer loop
    vertex 391.70932579999993 145.28799999999995 203.2
    vertex 391.70932579999993 7.112000000000006 228.6
    vertex 391.70932579999993 7.112000000000006 203.2
  endloop
endfacet
facet normal 1.0 0.0 0.0
  outer loop
    vertex 391.70932579999993 7.112000000000006 228.6
    vertex 391.70932579999993 145.28799999999995 203.2
    vertex 391.70932579999993 145.28799999999995 228.6
  endloop
endfacet
facet normal 0.0 -1.0 0.0
  outer loop
    vertex 391.70932579999993 145.28799999999995 234.94999999999976
    vertex 362.37232579999994 145.28799999999984 301.94038411670374
    vertex 259.8833258 145.28799999999995 234.94999999999976
  endloop
endfacet
facet normal 0.0 -1.0 0.0
  outer loop
    vertex 362.37232579999994 145.28799999999984 301.94038411670374
    vertex 391.70932579999993 145.28799999999995 234.94999999999976
    vertex 363.0561923914779 145.28799999999984 302.465133408522
  endloop
endfacet
facet normal 0.0 -1.0 0.0
  outer loop
    vertex 363.0561923914779 145.28799999999984 302.465133408522
    vertex 391.70932579999993 145.28799999999995 234.94999999999976
    vertex 391.70932579999993 145.28799999999995 330.2
  endloop
endfacet
facet normal 0.0 -1.0 0.0
  outer loop
    vertex 259.8833258 145.28799999999995 234.94999999999976
    vertex 362.37232579999994 145.28799999999984 301.94038411670374
    vertex 253.53332580000003 145.28799999999995 234.94999999999976
  endloop
endfacet
facet normal 0.0 -1.0 0.0
  outer loop
    vertex 253.53332580000003 145.28799999999995 234.94999999999976
    vertex 362.37232579999994 145.28799999999984 301.94038411670374
    vertex 361.57594628692846 145.28799999999984 301.61051292159345
  endloop
endfacet
facet normal 0.0 -1.0 0.0
  outer loop
    vertex 253.53332580000003 145.28799999999995 234.94999999999976
    vertex 361.57594628692846 145.28799999999984 301.61051292159345
    vertex 360.72132579999993 145.28799999999984 301.498
  endloop
endfacet
facet normal 0.0 -1.0 0.0
  outer loop
    vertex 363.0561923914779 145.28799999999984 302.465133408522
    vertex 391.70932579999993 145.28799999999995 330.2
    vertex 363.58094168329615 145.28799999999984 303.14899999999994
  endloop
endfacet
facet normal 0.0 -1.0 0.0
  outer loop
    vertex 363.58094168329615 145.28799999999984 303.14899999999994
    vertex 391.70932579999993 145.28799999999995 330.2
    vertex 363.9108128784065 145.28799999999984 303.94537951307143
  endloop
endfacet
facet normal 0.0 -1.0 0.0
  outer loop
    vertex 363.9108128784065 145.28799999999984 303.94537951307143
    vertex 391.70932579999993 145.28799999999995 330.2
    vertex 364.02332579999995 145.28799999999984 304.79999999999995
  endloop
endfacet
facet normal 0.0 -1.0 0.0
  outer loop
    vertex 364.02332579999995 145.28799999999984 304.79999999999995
    vertex 391.70932579999993 145.28799999999995 330.2
    vertex 363.9108128784065 145.28799999999984 305.65462048692854
  endloop
endfacet
facet normal 0.0 -1.0 0.0
  outer loop
    vertex 363.9108128784065 145.28799999999984 305.65462048692854
    vertex 391.70932579999993 145.28799999999995 330.2
    vertex 363.58094168329615 145.28799999999984 306.45099999999996
  endloop
endfacet
facet normal 0.0 -1.0 0.0
  outer loop
    vertex 363.58094168329615 145.28799999999984 306.45099999999996
    vertex 391.70932579999993 145.28799999999995 330.2
    vertex 363.0561923914779 145.28799999999984 307.134866591478
  endloop
endfacet
facet normal 0.0 -1.0 0.0
  outer loop
    vertex 363.0561923914779 145.28799999999984 307.134866591478
    vertex 391.70932579999993 145.28799999999995 330.2
    vertex 362.3723258 145.28799999999984 307.6596158832962
  endloop
endfacet
facet normal 0.0 -1.0 0.0
  outer loop
    vertex 362.3723258 145.28799999999984 307.6596158832962
    vertex 391.70932579999993 145.28799999999995 330.2
    vertex 361.57594628692846 145.28799999999984 307.9894870784065
  endloop
endfacet
facet normal 0.0 -1.0 0.0
  outer loop
    vertex 361.57594628692846 145.28799999999984 307.9894870784065
    vertex 391.70932579999993 145.28799999999995 330.2
    vertex 360.72132579999993 145.28799999999984 308.102
  endloop
endfacet
facet normal 0.0 -1.0 0.0
  outer loop
    vertex 360.72132579999993 145.28799999999984 308.102
    vertex 391.70932579999993 145.28799999999995 330.2
    vertex 284.52132580000006 145.28799999999995 308.102
  endloop
endfacet
facet normal 0.0 -1.0 0.0
  outer loop
    vertex 253.53332580000003 145.28799999999995 234.94999999999976
    vertex 282.186459208522 145.28799999999995 302.465133408522
    vertex 253.53332580000003 145.28799999999995 330.2
  endloop
endfacet
facet normal 0.0 -1.0 0.0
  outer loop
    vertex 282.186459208522 145.28799999999995 302.465133408522
    vertex 253.53332580000003 145.28799999999995 234.94999999999976
    vertex 282.8703258 145.28799999999995 301.94038411670374
  endloop
endfacet
facet normal 0.0 -1.0 0.0
  outer loop
    vertex 282.8703258 145.28799999999995 301.94038411670374
    vertex 253.53332580000003 145.28799999999995 234.94999999999976
    vertex 283.6667053130715 145.28799999999995 301.61051292159345
  endloop
endfacet
facet normal 0.0 -1.0 0.0
  outer loop
    vertex 283.6667053130715 145.28799999999995 301.61051292159345
    vertex 253.53332580000003 145.28799999999995 234.94999999999976
    vertex 284.52132580000006 145.28799999999995 301.498
  endloop
endfacet
facet normal 0.0 -1.0 0.0
  outer loop
    vertex 284.52132580000006 145.28799999999995 301.498
    vertex 253.53332580000003 145.28799999999995 234.94999999999976
    vertex 360.72132579999993 145.28799999999984 301.498
  endloop
endfacet
facet normal 0.0 -1.0 0.0
  outer loop
    vertex 253.53332580000003 145.28799999999995 330.2
    vertex 282.186459208522 145.28799999999995 302.465133408522
    vertex 281.66170991670384 145.28799999999995 303.149
  endloop
endfacet
facet normal 0.0 -1.0 0.0
  outer loop
    vertex 253.53332580000003 145.28799999999995 330.2
    vertex 281.66170991670384 145.28799999999995 303.149
    vertex 281.3318387215935 145.28799999999995 303.94537951307143
  endloop
endfacet
facet normal 0.0 -1.0 0.0
  outer loop
    vertex 253.53332580000003 145.28799999999995 330.2
    vertex 281.3318387215935 145.28799999999995 303.94537951307143
    vertex 281.21932580000004 145.28799999999995 304.79999999999995
  endloop
endfacet
facet normal 0.0 -1.0 0.0
  outer loop
    vertex 253.53332580000003 145.28799999999995 330.2
    vertex 281.21932580000004 145.28799999999995 304.79999999999995
    vertex 281.3318387215935 145.28799999999995 305.65462048692854
  endloop
endfacet
facet normal 0.0 -1.0 0.0
  outer loop
    vertex 253.53332580000003 145.28799999999995 330.2
    vertex 281.3318387215935 145.28799999999995 305.65462048692854
    vertex 281.66170991670384 145.28799999999995 306.451
  endloop
endfacet
facet normal 0.0 -1.0 0.0
  outer loop
    vertex 253.53332580000003 145.28799999999995 330.2
    vertex 281.66170991670384 145.28799999999995 306.451
    vertex 282.186459208522 145.28799999999995 307.134866591478
  endloop
endfacet
facet normal 0.0 -1.0 0.0
  outer loop
    vertex 253.53332580000003 145.28799999999995 330.2
    vertex 282.186459208522 145.28799999999995 307.134866591478
    vertex 282.87032580000005 145.28799999999995 307.6596158832962
  endloop
endfacet
facet normal 0.0 -1.0 0.0
  outer loop
    vertex 253.53332580000003 145.28799999999995 330.2
    vertex 282.87032580000005 145.28799999999995 307.6596158832962
    vertex 283.6667053130715 145.28799999999995 307.9894870784065
  endloop
endfacet
facet normal 0.0 -1.0 0.0
  outer loop
    vertex 253.53332580000003 145.28799999999995 330.2
    vertex 283.6667053130715 145.28799999999995 307.9894870784065
    vertex 284.52132580000006 145.28799999999995 308.102
  endloop
endfacet
facet normal 0.0 -1.0 0.0
  outer loop
    vertex 253.53332580000003 145.28799999999995 330.2
    vertex 284.52132580000006 145.28799999999995 308.102
    vertex 391.70932579999993 145.28799999999995 330.2
  endloop
endfacet
facet normal 0.0 -1.0 0.0
  outer loop
    vertex 359.8667053130714 145.28799999999984 301.61051292159345
    vertex 284.52132580000006 145.28799999999995 301.498
    vertex 360.72132579999993 145.28799999999984 301.498
  endloop
endfacet
facet normal 0.0 -1.0 0.0
  outer loop
    vertex 284.52132580000006 145.28799999999995 301.498
    vertex 359.8667053130714 145.28799999999984 301.61051292159345
    vertex 285.3759462869286 145.28799999999995 301.61051292159345
  endloop
endfacet
facet normal 0.0 -1.0 0.0
  outer loop
    vertex 285.3759462869286 145.28799999999995 301.61051292159345
    vertex 359.8667053130714 145.28799999999984 301.61051292159345
    vertex 359.0703257999999 145.28799999999984 301.94038411670374
  endloop
endfacet
facet normal 0.0 -1.0 0.0
  outer loop
    vertex 285.3759462869286 145.28799999999995 301.61051292159345
    vertex 359.0703257999999 145.28799999999984 301.94038411670374
    vertex 286.1723258 145.28799999999995 301.94038411670374
  endloop
endfacet
facet normal 0.0 -1.0 0.0
  outer loop
    vertex 286.1723258 145.28799999999995 301.94038411670374
    vertex 359.0703257999999 145.28799999999984 301.94038411670374
    vertex 358.38645920852196 145.28799999999984 302.465133408522
  endloop
endfacet
facet normal 0.0 -1.0 0.0
  outer loop
    vertex 286.1723258 145.28799999999995 301.94038411670374
    vertex 358.38645920852196 145.28799999999984 302.465133408522
    vertex 286.85619239147803 145.28799999999995 302.465133408522
  endloop
endfacet
facet normal 0.0 -1.0 0.0
  outer loop
    vertex 286.85619239147803 145.28799999999995 302.465133408522
    vertex 358.38645920852196 145.28799999999984 302.465133408522
    vertex 357.8617099167037 145.28799999999984 303.149
  endloop
endfacet
facet normal 0.0 -1.0 0.0
  outer loop
    vertex 286.85619239147803 145.28799999999995 302.465133408522
    vertex 357.8617099167037 145.28799999999984 303.149
    vertex 287.38094168329627 145.28799999999995 303.14899999999994
  endloop
endfacet
facet normal 0.0 -1.0 0.0
  outer loop
    vertex 287.38094168329627 145.28799999999995 303.14899999999994
    vertex 357.8617099167037 145.28799999999984 303.149
    vertex 287.71081287840656 145.28799999999995 303.94537951307143
  endloop
endfacet
facet normal 0.0 -1.0 0.0
  outer loop
    vertex 287.71081287840656 145.28799999999995 303.94537951307143
    vertex 357.8617099167037 145.28799999999984 303.149
    vertex 357.53183872159343 145.28799999999984 303.94537951307143
  endloop
endfacet
facet normal 0.0 -1.0 0.0
  outer loop
    vertex 287.71081287840656 145.28799999999995 303.94537951307143
    vertex 357.53183872159343 145.28799999999984 303.94537951307143
    vertex 357.4193257999999 145.28799999999984 304.79999999999995
  endloop
endfacet
facet normal 0.0 -1.0 0.0
  outer loop
    vertex 287.71081287840656 145.28799999999995 303.94537951307143
    vertex 357.4193257999999 145.28799999999984 304.79999999999995
    vertex 287.8233258000001 145.28799999999995 304.79999999999995
  endloop
endfacet
facet normal 0.0 -1.0 0.0
  outer loop
    vertex 287.8233258000001 145.28799999999995 304.79999999999995
    vertex 357.4193257999999 145.28799999999984 304.79999999999995
    vertex 357.53183872159343 145.28799999999984 305.65462048692854
  endloop
endfacet
facet normal 0.0 -1.0 0.0
  outer loop
    vertex 287.8233258000001 145.28799999999995 304.79999999999995
    vertex 357.53183872159343 145.28799999999984 305.65462048692854
    vertex 287.71081287840656 145.28799999999995 305.65462048692854
  endloop
endfacet
facet normal 0.0 -1.0 0.0
  outer loop
    vertex 287.71081287840656 145.28799999999995 305.65462048692854
    vertex 357.53183872159343 145.28799999999984 305.65462048692854
    vertex 357.8617099167037 145.28799999999984 306.451
  endloop
endfacet
facet normal 0.0 -1.0 0.0
  outer loop
    vertex 287.71081287840656 145.28799999999995 305.65462048692854
    vertex 357.8617099167037 145.28799999999984 306.451
    vertex 287.38094168329627 145.28799999999995 306.45099999999996
  endloop
endfacet
facet normal 0.0 -1.0 0.0
  outer loop
    vertex 287.38094168329627 145.28799999999995 306.45099999999996
    vertex 357.8617099167037 145.28799999999984 306.451
    vertex 286.85619239147803 145.28799999999995 307.134866591478
  endloop
endfacet
facet normal 0.0 -1.0 0.0
  outer loop
    vertex 286.85619239147803 145.28799999999995 307.134866591478
    vertex 357.8617099167037 145.28799999999984 306.451
    vertex 358.38645920852196 145.28799999999984 307.134866591478
  endloop
endfacet
facet normal 0.0 -1.0 0.0
  outer loop
    vertex 286.85619239147803 145.28799999999995 307.134866591478
    vertex 358.38645920852196 145.28799999999984 307.134866591478
    vertex 359.0703258 145.28799999999984 307.6596158832962
  endloop
endfacet
facet normal 0.0 -1.0 0.0
  outer loop
    vertex 286.85619239147803 145.28799999999995 307.134866591478
    vertex 359.0703258 145.28799999999984 307.6596158832962
    vertex 286.17232580000007 145.28799999999995 307.6596158832962
  endloop
endfacet
facet normal 0.0 -1.0 0.0
  outer loop
    vertex 286.17232580000007 145.28799999999995 307.6596158832962
    vertex 359.0703258 145.28799999999984 307.6596158832962
    vertex 359.8667053130714 145.28799999999984 307.9894870784065
  endloop
endfacet
facet normal 0.0 -1.0 0.0
  outer loop
    vertex 286.17232580000007 145.28799999999995 307.6596158832962
    vertex 359.8667053130714 145.28799999999984 307.9894870784065
    vertex 285.3759462869286 145.28799999999995 307.9894870784065
  endloop
endfacet
facet normal 0.0 -1.0 0.0
  outer loop
    vertex 285.3759462869286 145.28799999999995 307.9894870784065
    vertex 359.8667053130714 145.28799999999984 307.9894870784065
    vertex 360.72132579999993 145.28799999999984 308.102
  endloop
endfacet
facet normal 0.0 -1.0 0.0
  outer loop
    vertex 285.3759462869286 145.28799999999995 307.9894870784065
    vertex 360.72132579999993 145.28799999999984 308.102
    vertex 284.52132580000006 145.28799999999995 308.102
  endloop
endfacet
facet normal 0.0 0.0 1.0
  outer loop
    vertex 246.42132580000003 0.0 330.2
    vertex 253.53332580000003 7.112000000000006 330.2
    vertex 246.42132580000003 152.39999999999998 330.2
  endloop
endfacet
facet normal 0.0 0.0 1.0
  outer loop
    vertex 253.53332580000003 7.112000000000006 330.2
    vertex 246.42132580000003 0.0 330.2
    vertex 398.82132579999995 0.0 330.2
  endloop
endfacet
facet normal 0.0 0.0 1.0
  outer loop
    vertex 253.53332580000003 7.112000000000006 330.2
    vertex 398.82132579999995 0.0 330.2
    vertex 391.70932579999993 7.112000000000006 330.2
  endloop
endfacet
facet normal 0.0 0.0 1.0
  outer loop
    vertex 391.70932579999993 7.112000000000006 330.2
    vertex 398.82132579999995 0.0 330.2
    vertex 391.70932579999993 145.28799999999995 330.2
  endloop
endfacet
facet normal 0.0 0.0 1.0
  outer loop
    vertex 246.42132580000003 152.39999999999998 330.2
    vertex 253.53332580000003 145.28799999999995 330.2
    vertex 398.82132579999995 152.39999999999998 330.2
  endloop
endfacet
facet normal 0.0 0.0 1.0
  outer loop
    vertex 253.53332580000003 145.28799999999995 330.2
    vertex 246.42132580000003 152.39999999999998 330.2
    vertex 253.53332580000003 7.112000000000006 330.2
  endloop
endfacet
facet normal 0.0 0.0 1.0
  outer loop
    vertex 398.82132579999995 152.39999999999998 330.2
    vertex 253.53332580000003 145.28799999999995 330.2
    vertex 391.70932579999993 145.28799999999995 330.2
  endloop
endfacet
facet normal 0.0 0.0 1.0
  outer loop
    vertex 398.82132579999995 152.39999999999998 330.2
    vertex 391.70932579999993 145.28799999999995 330.2
    vertex 398.82132579999995 0.0 330.2
  endloop
endfacet
facet normal 0.0 -1.0 0.0
  outer loop
    vertex 391.70932579999993 7.112000000000006 228.6
    vertex 253.53332580000003 7.112000000000006 203.2
    vertex 391.70932579999993 7.112000000000006 203.2
  endloop
endfacet
facet normal 0.0 -1.0 0.0
  outer loop
    vertex 253.53332580000003 7.112000000000006 203.2
    vertex 391.70932579999993 7.112000000000006 228.6
    vertex 253.53332580000003 7.112000000000006 228.6
  endloop
endfacet
facet normal 0.0 0.0 1.0
  outer loop
    vertex 391.70932579999993 7.112000000000006 234.94999999999976
    vertex 253.53332580000003 13.462000000000005 234.94999999999976
    vertex 253.53332580000003 7.112000000000006 234.94999999999976
  endloop
endfacet
facet normal 0.0 0.0 1.0
  outer loop
    vertex 253.53332580000003 13.462000000000005 234.94999999999976
    vertex 391.70932579999993 7.112000000000006 234.94999999999976
    vertex 259.8833258 13.462000000000005 234.94999999999976
  endloop
endfacet
facet normal 0.0 0.0 1.0
  outer loop
    vertex 259.8833258 13.462000000000005 234.94999999999976
    vertex 391.70932579999993 7.112000000000006 234.94999999999976
    vertex 385.3593257999999 13.462000000000005 234.94999999999976
  endloop
endfacet
facet normal 0.0 0.0 1.0
  outer loop
    vertex 385.3593257999999 13.462000000000005 234.94999999999976
    vertex 391.70932579999993 7.112000000000006 234.94999999999976
    vertex 391.70932579999993 13.462000000000005 234.94999999999976
  endloop
endfacet
facet normal 0.0 0.0 1.0
  outer loop
    vertex 391.70932579999993 13.462000000000005 234.94999999999976
    vertex 385.3593257999999 138.93799999999996 234.94999999999976
    vertex 385.3593257999999 13.462000000000005 234.94999999999976
  endloop
endfacet
facet normal 0.0 0.0 1.0
  outer loop
    vertex 385.3593257999999 138.93799999999996 234.94999999999976
    vertex 391.70932579999993 13.462000000000005 234.94999999999976
    vertex 391.70932579999993 138.93799999999996 234.94999999999976
  endloop
endfacet
facet normal -1.0 0.0 0.0
  outer loop
    vertex 391.70932579999993 145.28799999999995 330.2
    vertex 391.70932579999993 7.112000000000006 234.94999999999976
    vertex 391.70932579999993 7.112000000000006 330.2
  endloop
endfacet
facet normal -1.0 0.0 0.0
  outer loop
    vertex 391.70932579999993 7.112000000000006 234.94999999999976
    vertex 391.70932579999993 145.28799999999995 330.2
    vertex 391.70932579999993 13.462000000000005 234.94999999999976
  endloop
endfacet
facet normal -1.0 0.0 0.0
  outer loop
    vertex 391.70932579999993 13.462000000000005 234.94999999999976
    vertex 391.70932579999993 145.28799999999995 330.2
    vertex 391.70932579999993 138.93799999999996 234.94999999999976
  endloop
endfacet
facet normal -1.0 0.0 0.0
  outer loop
    vertex 391.70932579999993 138.93799999999996 234.94999999999976
    vertex 391.70932579999993 145.28799999999995 330.2
    vertex 391.70932579999993 145.28799999999995 234.94999999999976
  endloop
endfacet
facet normal 0.0 1.0 0.0
  outer loop
    vertex 253.53332580000003 7.112000000000006 330.2
    vertex 391.70932579999993 7.112000000000006 234.94999999999976
    vertex 253.53332580000003 7.112000000000006 234.94999999999976
  endloop
endfacet
facet normal 0.0 1.0 0.0
  outer loop
    vertex 391.70932579999993 7.112000000000006 234.94999999999976
    vertex 253.53332580000003 7.112000000000006 330.2
    vertex 391.70932579999993 7.112000000000006 330.2
  endloop
endfacet
facet normal 0.0 1.0 0.0
  outer loop
    vertex 259.8833258 13.462000000000005 234.94999999999976
    vertex 385.3593257999999 13.462000000000005 203.2
    vertex 259.8833258 13.462000000000005 203.2
  endloop
endfacet
facet normal 0.0 1.0 0.0
  outer loop
    vertex 385.3593257999999 13.462000000000005 203.2
    vertex 259.8833258 13.462000000000005 234.94999999999976
    vertex 385.3593257999999 13.462000000000005 234.94999999999976
  endloop
endfacet
facet normal 1.0 0.0 0.0
  outer loop
    vertex 259.8833258 138.93799999999996 203.2
    vertex 259.8833258 13.462000000000005 234.94999999999976
    vertex 259.8833258 13.462000000000005 203.2
  endloop
endfacet
facet normal 1.0 0.0 0.0
  outer loop
    vertex 259.8833258 13.462000000000005 234.94999999999976
    vertex 259.8833258 138.93799999999996 203.2
    vertex 259.8833258 138.93799999999996 234.94999999999976
  endloop
endfacet
facet normal 0.0 -1.0 0.0
  outer loop
    vertex 385.3593257999999 138.93799999999996 234.94999999999976
    vertex 259.8833258 138.93799999999996 203.2
    vertex 385.3593257999999 138.93799999999996 203.2
  endloop
endfacet
facet normal 0.0 -1.0 0.0
  outer loop
    vertex 259.8833258 138.93799999999996 203.2
    vertex 385.3593257999999 138.93799999999996 234.94999999999976
    vertex 259.8833258 138.93799999999996 234.94999999999976
  endloop
endfacet
facet normal -1.0 -0.0 -0.0
  outer loop
    vertex 385.3593257999999 138.93799999999996 234.94999999999976
    vertex 385.3593257999999 13.462000000000005 203.2
    vertex 385.3593257999999 13.462000000000005 234.94999999999976
  endloop
endfacet
facet normal -1.0 -0.0 -0.0
  outer loop
    vertex 385.3593257999999 13.462000000000005 203.2
    vertex 385.3593257999999 138.93799999999996 234.94999999999976
    vertex 385.3593257999999 138.93799999999996 203.2
  endloop
endfacet
facet normal 0.0 0.0 -1.0
  outer loop
    vertex 253.53332580000003 145.28799999999995 203.2
    vertex 259.8833258 138.93799999999996 203.2
    vertex 253.53332580000003 7.112000000000006 203.2
  endloop
endfacet
facet normal 0.0 0.0 -1.0
  outer loop
    vertex 259.8833258 138.93799999999996 203.2
    vertex 253.53332580000003 145.28799999999995 203.2
    vertex 391.70932579999993 145.28799999999995 203.2
  endloop
endfacet
facet normal 0.0 0.0 -1.0
  outer loop
    vertex 259.8833258 138.93799999999996 203.2
    vertex 391.70932579999993 145.28799999999995 203.2
    vertex 385.3593257999999 138.93799999999996 203.2
  endloop
endfacet
facet normal 0.0 0.0 -1.0
  outer loop
    vertex 385.3593257999999 138.93799999999996 203.2
    vertex 391.70932579999993 145.28799999999995 203.2
    vertex 385.3593257999999 13.462000000000005 203.2
  endloop
endfacet
facet normal 0.0 0.0 -1.0
  outer loop
    vertex 253.53332580000003 7.112000000000006 203.2
    vertex 259.8833258 13.462000000000005 203.2
    vertex 391.70932579999993 7.112000000000006 203.2
  endloop
endfacet
facet normal 0.0 0.0 -1.0
  outer loop
    vertex 259.8833258 13.462000000000005 203.2
    vertex 253.53332580000003 7.112000000000006 203.2
    vertex 259.8833258 138.93799999999996 203.2
  endloop
endfacet
facet normal 0.0 0.0 -1.0
  outer loop
    vertex 391.70932579999993 7.112000000000006 203.2
    vertex 259.8833258 13.462000000000005 203.2
    vertex 385.3593257999999 13.462000000000005 203.2
  endloop
endfacet
facet normal 0.0 0.0 -1.0
  outer loop
    vertex 391.70932579999993 7.112000000000006 203.2
    vertex 385.3593257999999 13.462000000000005 203.2
    vertex 391.70932579999993 145.28799999999995 203.2
  endloop
endfacet
facet normal 1.0 0.0 0.0
  outer loop
    vertex 253.53332580000003 13.462000000000005 234.94999999999976
    vertex 253.53332580000003 7.112000000000006 330.2
    vertex 253.53332580000003 7.112000000000006 234.94999999999976
  endloop
endfacet
facet normal 1.0 0.0 0.0
  outer loop
    vertex 253.53332580000003 7.112000000000006 330.2
    vertex 253.53332580000003 13.462000000000005 234.94999999999976
    vertex 253.53332580000003 145.28799999999995 330.2
  endloop
endfacet
facet normal 1.0 0.0 0.0
  outer loop
    vertex 253.53332580000003 145.28799999999995 330.2
    vertex 253.53332580000003 13.462000000000005 234.94999999999976
    vertex 253.53332580000003 145.28799999999995 234.94999999999976
  endloop
endfacet
facet normal 0.0 0.0 1.0
  outer loop
    vertex 259.8833258 13.462000000000005 234.94999999999976
    vertex 253.53332580000003 145.28799999999995 234.94999999999976
    vertex 253.53332580000003 13.462000000000005 234.94999999999976
  endloop
endfacet
facet normal 0.0 0.0 1.0
  outer loop
    vertex 253.53332580000003 145.28799999999995 234.94999999999976
    vertex 259.8833258 13.462000000000005 234.94999999999976
    vertex 259.8833258 145.28799999999995 234.94999999999976
  endloop
endfacet
facet normal 0.0 0.0 1.0
  outer loop
    vertex 259.8833258 145.28799999999995 234.94999999999976
    vertex 259.8833258 13.462000000000005 234.94999999999976
    vertex 259.8833258 138.93799999999996 234.94999999999976
  endloop
endfacet
facet normal 0.0 0.0 1.0
  outer loop
    vertex 385.3593257999999 138.93799999999996 234.94999999999976
    vertex 259.8833258 145.28799999999995 234.94999999999976
    vertex 259.8833258 138.93799999999996 234.94999999999976
  endloop
endfacet
facet normal 0.0 0.0 1.0
  outer loop
    vertex 259.8833258 145.28799999999995 234.94999999999976
    vertex 385.3593257999999 138.93799999999996 234.94999999999976
    vertex 391.70932579999993 145.28799999999995 234.94999999999976
  endloop
endfacet
facet normal 0.0 0.0 1.0
  outer loop
    vertex 391.70932579999993 145.28799999999995 234.94999999999976
    vertex 385.3593257999999 138.93799999999996 234.94999999999976
    vertex 391.70932579999993 138.93799999999996 234.94999999999976
  endloop
endfacet
facet normal 0.0 0.0 -1.0
  outer loop
    vertex 246.42132580000003 152.39999999999998 228.6
    vertex 253.53332580000003 145.28799999999995 228.6
    vertex 246.42132580000003 0.0 228.6
  endloop
endfacet
facet normal 0.0 0.0 -1.0
  outer loop
    vertex 253.53332580000003 145.28799999999995 228.6
    vertex 246.42132580000003 152.39999999999998 228.6
    vertex 398.82132579999995 152.39999999999998 228.6
  endloop
endfacet
facet normal 0.0 0.0 -1.0
  outer loop
    vertex 253.53332580000003 145.28799999999995 228.6
    vertex 398.82132579999995 152.39999999999998 228.6
    vertex 391.70932579999993 145.28799999999995 228.6
  endloop
endfacet
facet normal 0.0 0.0 -1.0
  outer loop
    vertex 391.70932579999993 145.28799999999995 228.6
    vertex 398.82132579999995 152.39999999999998 228.6
    vertex 391.70932579999993 7.112000000000006 228.6
  endloop
endfacet
facet normal 0.0 0.0 -1.0
  outer loop
    vertex 246.42132580000003 0.0 228.6
    vertex 253.53332580000003 7.112000000000006 228.6
    vertex 398.82132579999995 0.0 228.6
  endloop
endfacet
facet normal 0.0 0.0 -1.0
  outer loop
    vertex 253.53332580000003 7.112000000000006 228.6
    vertex 246.42132580000003 0.0 228.6
    vertex 253.53332580000003 145.28799999999995 228.6
  endloop
endfacet
facet normal 0.0 0.0 -1.0
  outer loop
    vertex 398.82132579999995 0.0 228.6
    vertex 253.53332580000003 7.112000000000006 228.6
    vertex 391.70932579999993 7.112000000000006 228.6
  endloop
endfacet
facet normal 0.0 0.0 -1.0
  outer loop
    vertex 398.82132579999995 0.0 228.6
    vertex 391.70932579999993 7.112000000000006 228.6
    vertex 398.82132579999995 152.39999999999998 228.6
  endloop
endfacet
facet normal 0.9914448613738109 0.0 0.13052619222004744
  outer loop
    vertex 357.53183872159343 152.39999999999998 303.94537951307143
    vertex 357.4193257999999 145.28799999999984 304.79999999999995
    vertex 357.53183872159343 145.28799999999984 303.94537951307143
  endloop
endfacet
facet normal 0.9914448613738109 0.0 0.13052619222004744
  outer loop
    vertex 357.4193257999999 145.28799999999984 304.79999999999995
    vertex 357.53183872159343 152.39999999999998 303.94537951307143
    vertex 357.4193257999999 152.39999999999998 304.79999999999995
  endloop
endfacet
facet normal 0.9914448613738109 0.0 -0.13052619222004744
  outer loop
    vertex 357.4193257999999 152.39999999999998 304.79999999999995
    vertex 357.53183872159343 145.28799999999984 305.65462048692854
    vertex 357.4193257999999 145.28799999999984 304.79999999999995
  endloop
endfacet
facet normal 0.9914448613738109 0.0 -0.13052619222004744
  outer loop
    vertex 357.53183872159343 145.28799999999984 305.65462048692854
    vertex 357.4193257999999 152.39999999999998 304.79999999999995
    vertex 357.53183872159343 152.39999999999998 305.65462048692854
  endloop
endfacet
facet normal 0.9238795325112816 0.0 -0.38268343236510194
  outer loop
    vertex 357.53183872159343 152.39999999999998 305.65462048692854
    vertex 357.8617099167037 145.28799999999984 306.451
    vertex 357.53183872159343 145.28799999999984 305.65462048692854
  endloop
endfacet
facet normal 0.9238795325112816 0.0 -0.38268343236510194
  outer loop
    vertex 357.8617099167037 145.28799999999984 306.451
    vertex 357.53183872159343 152.39999999999998 305.65462048692854
    vertex 357.8617099167037 152.39999999999998 306.451
  endloop
endfacet
facet normal 0.7933533402912242 0.0 -0.608761429008735
  outer loop
    vertex 357.8617099167037 152.39999999999998 306.451
    vertex 358.38645920852196 145.28799999999984 307.134866591478
    vertex 357.8617099167037 145.28799999999984 306.451
  endloop
endfacet
facet normal 0.7933533402912242 0.0 -0.608761429008735
  outer loop
    vertex 358.38645920852196 145.28799999999984 307.134866591478
    vertex 357.8617099167037 152.39999999999998 306.451
    vertex 358.38645920852196 152.39999999999998 307.134866591478
  endloop
endfacet
facet normal 0.6087614290087097 0.0 -0.7933533402912436
  outer loop
    vertex 359.0703258 152.39999999999998 307.6596158832962
    vertex 358.38645920852196 145.28799999999984 307.134866591478
    vertex 358.38645920852196 152.39999999999998 307.134866591478
  endloop
endfacet
facet normal 0.6087614290087097 0.0 -0.7933533402912436
  outer loop
    vertex 358.38645920852196 145.28799999999984 307.134866591478
    vertex 359.0703258 152.39999999999998 307.6596158832962
    vertex 359.0703258 145.28799999999984 307.6596158832962
  endloop
endfacet
facet normal 0.3826834323651205 0.0 -0.9238795325112741
  outer loop
    vertex 359.8667053130714 152.39999999999998 307.9894870784065
    vertex 359.0703258 145.28799999999984 307.6596158832962
    vertex 359.0703258 152.39999999999998 307.6596158832962
  endloop
endfacet
facet normal 0.3826834323651205 0.0 -0.9238795325112741
  outer loop
    vertex 359.0703258 145.28799999999984 307.6596158832962
    vertex 359.8667053130714 152.39999999999998 307.9894870784065
    vertex 359.8667053130714 145.28799999999984 307.9894870784065
  endloop
endfacet
facet normal 0.13052619222004744 0.0 -0.9914448613738109
  outer loop
    vertex 360.72132579999993 152.39999999999998 308.102
    vertex 359.8667053130714 145.28799999999984 307.9894870784065
    vertex 359.8667053130714 152.39999999999998 307.9894870784065
  endloop
endfacet
facet normal 0.13052619222004744 0.0 -0.9914448613738109
  outer loop
    vertex 359.8667053130714 145.28799999999984 307.9894870784065
    vertex 360.72132579999993 152.39999999999998 308.102
    vertex 360.72132579999993 145.28799999999984 308.102
  endloop
endfacet
facet normal -0.13052619222004744 -0.0 -0.9914448613738109
  outer loop
    vertex 361.57594628692846 152.39999999999998 307.9894870784065
    vertex 360.72132579999993 145.28799999999984 308.102
    vertex 360.72132579999993 152.39999999999998 308.102
  endloop
endfacet
facet normal -0.13052619222004744 -0.0 -0.9914448613738109
  outer loop
    vertex 360.72132579999993 145.28799999999984 308.102
    vertex 361.57594628692846 152.39999999999998 307.9894870784065
    vertex 361.57594628692846 145.28799999999984 307.9894870784065
  endloop
endfacet
facet normal -0.38268343236510194 -0.0 -0.9238795325112816
  outer loop
    vertex 362.3723258 152.39999999999998 307.6596158832962
    vertex 361.57594628692846 145.28799999999984 307.9894870784065
    vertex 361.57594628692846 152.39999999999998 307.9894870784065
  endloop
endfacet
facet normal -0.38268343236510194 -0.0 -0.9238795325112816
  outer loop
    vertex 361.57594628692846 145.28799999999984 307.9894870784065
    vertex 362.3723258 152.39999999999998 307.6596158832962
    vertex 362.3723258 145.28799999999984 307.6596158832962
  endloop
endfacet
facet normal -0.608761429008735 -0.0 -0.7933533402912242
  outer loop
    vertex 363.0561923914779 152.39999999999998 307.134866591478
    vertex 362.3723258 145.28799999999984 307.6596158832962
    vertex 362.3723258 152.39999999999998 307.6596158832962
  endloop
endfacet
facet normal -0.608761429008735 -0.0 -0.7933533402912242
  outer loop
    vertex 362.3723258 145.28799999999984 307.6596158832962
    vertex 363.0561923914779 152.39999999999998 307.134866591478
    vertex 363.0561923914779 145.28799999999984 307.134866591478
  endloop
endfacet
facet normal -0.7933533402912436 -0.0 -0.6087614290087097
  outer loop
    vertex 363.0561923914779 152.39999999999998 307.134866591478
    vertex 363.58094168329615 145.28799999999984 306.45099999999996
    vertex 363.0561923914779 145.28799999999984 307.134866591478
  endloop
endfacet
facet normal -0.7933533402912436 -0.0 -0.6087614290087097
  outer loop
    vertex 363.58094168329615 145.28799999999984 306.45099999999996
    vertex 363.0561923914779 152.39999999999998 307.134866591478
    vertex 363.58094168329615 152.39999999999998 306.45099999999996
  endloop
endfacet
facet normal -0.9238795325112741 -0.0 -0.3826834323651205
  outer loop
    vertex 363.58094168329615 152.39999999999998 306.45099999999996
    vertex 363.9108128784065 145.28799999999984 305.65462048692854
    vertex 363.58094168329615 145.28799999999984 306.45099999999996
  endloop
endfacet
facet normal -0.9238795325112741 -0.0 -0.3826834323651205
  outer loop
    vertex 363.9108128784065 145.28799999999984 305.65462048692854
    vertex 363.58094168329615 152.39999999999998 306.45099999999996
    vertex 363.9108128784065 152.39999999999998 305.65462048692854
  endloop
endfacet
facet normal -0.9914448613738109 -0.0 -0.13052619222004744
  outer loop
    vertex 363.9108128784065 152.39999999999998 305.65462048692854
    vertex 364.02332579999995 145.28799999999984 304.79999999999995
    vertex 363.9108128784065 145.28799999999984 305.65462048692854
  endloop
endfacet
facet normal -0.9914448613738109 -0.0 -0.13052619222004744
  outer loop
    vertex 364.02332579999995 145.28799999999984 304.79999999999995
    vertex 363.9108128784065 152.39999999999998 305.65462048692854
    vertex 364.02332579999995 152.39999999999998 304.79999999999995
  endloop
endfacet
facet normal -0.9914448613738109 0.0 0.13052619222004744
  outer loop
    vertex 364.02332579999995 152.39999999999998 304.79999999999995
    vertex 363.9108128784065 145.28799999999984 303.94537951307143
    vertex 364.02332579999995 145.28799999999984 304.79999999999995
  endloop
endfacet
facet normal -0.9914448613738109 0.0 0.13052619222004744
  outer loop
    vertex 363.9108128784065 145.28799999999984 303.94537951307143
    vertex 364.02332579999995 152.39999999999998 304.79999999999995
    vertex 363.9108128784065 152.39999999999998 303.94537951307143
  endloop
endfacet
facet normal -0.9238795325112816 0.0 0.38268343236510194
  outer loop
    vertex 363.9108128784065 152.39999999999998 303.94537951307143
    vertex 363.58094168329615 145.28799999999984 303.14899999999994
    vertex 363.9108128784065 145.28799999999984 303.94537951307143
  endloop
endfacet
facet normal -0.9238795325112816 0.0 0.38268343236510194
  outer loop
    vertex 363.58094168329615 145.28799999999984 303.14899999999994
    vertex 363.9108128784065 152.39999999999998 303.94537951307143
    vertex 363.58094168329615 152.39999999999998 303.14899999999994
  endloop
endfacet
facet normal -0.7933533402912242 0.0 0.608761429008735
  outer loop
    vertex 363.58094168329615 152.39999999999998 303.14899999999994
    vertex 363.0561923914779 145.28799999999984 302.465133408522
    vertex 363.58094168329615 145.28799999999984 303.14899999999994
  endloop
endfacet
facet normal -0.7933533402912242 0.0 0.608761429008735
  outer loop
    vertex 363.0561923914779 145.28799999999984 302.465133408522
    vertex 363.58094168329615 152.39999999999998 303.14899999999994
    vertex 363.0561923914779 152.39999999999998 302.465133408522
  endloop
endfacet
facet normal -0.6087614290087097 0.0 0.7933533402912436
  outer loop
    vertex 363.0561923914779 145.28799999999984 302.465133408522
    vertex 362.37232579999994 152.39999999999998 301.94038411670374
    vertex 362.37232579999994 145.28799999999984 301.94038411670374
  endloop
endfacet
facet normal -0.6087614290087097 0.0 0.7933533402912436
  outer loop
    vertex 362.37232579999994 152.39999999999998 301.94038411670374
    vertex 363.0561923914779 145.28799999999984 302.465133408522
    vertex 363.0561923914779 152.39999999999998 302.465133408522
  endloop
endfacet
facet normal -0.3826834323651205 0.0 0.9238795325112741
  outer loop
    vertex 362.37232579999994 145.28799999999984 301.94038411670374
    vertex 361.57594628692846 152.39999999999998 301.61051292159345
    vertex 361.57594628692846 145.28799999999984 301.61051292159345
  endloop
endfacet
facet normal -0.3826834323651205 0.0 0.9238795325112741
  outer loop
    vertex 361.57594628692846 152.39999999999998 301.61051292159345
    vertex 362.37232579999994 145.28799999999984 301.94038411670374
    vertex 362.37232579999994 152.39999999999998 301.94038411670374
  endloop
endfacet
facet normal -0.13052619222004744 0.0 0.9914448613738109
  outer loop
    vertex 361.57594628692846 145.28799999999984 301.61051292159345
    vertex 360.72132579999993 152.39999999999998 301.498
    vertex 360.72132579999993 145.28799999999984 301.498
  endloop
endfacet
facet normal -0.13052619222004744 0.0 0.9914448613738109
  outer loop
    vertex 360.72132579999993 152.39999999999998 301.498
    vertex 361.57594628692846 145.28799999999984 301.61051292159345
    vertex 361.57594628692846 152.39999999999998 301.61051292159345
  endloop
endfacet
facet normal 0.13052619222004744 0.0 0.9914448613738109
  outer loop
    vertex 360.72132579999993 145.28799999999984 301.498
    vertex 359.8667053130714 152.39999999999998 301.61051292159345
    vertex 359.8667053130714 145.28799999999984 301.61051292159345
  endloop
endfacet
facet normal 0.13052619222004744 0.0 0.9914448613738109
  outer loop
    vertex 359.8667053130714 152.39999999999998 301.61051292159345
    vertex 360.72132579999993 145.28799999999984 301.498
    vertex 360.72132579999993 152.39999999999998 301.498
  endloop
endfacet
facet normal 0.38268343236510194 0.0 0.9238795325112816
  outer loop
    vertex 359.8667053130714 145.28799999999984 301.61051292159345
    vertex 359.0703257999999 152.39999999999998 301.94038411670374
    vertex 359.0703257999999 145.28799999999984 301.94038411670374
  endloop
endfacet
facet normal 0.38268343236510194 0.0 0.9238795325112816
  outer loop
    vertex 359.0703257999999 152.39999999999998 301.94038411670374
    vertex 359.8667053130714 145.28799999999984 301.61051292159345
    vertex 359.8667053130714 152.39999999999998 301.61051292159345
  endloop
endfacet
facet normal 0.608761429008735 0.0 0.7933533402912242
  outer loop
    vertex 359.0703257999999 145.28799999999984 301.94038411670374
    vertex 358.38645920852196 152.39999999999998 302.465133408522
    vertex 358.38645920852196 145.28799999999984 302.465133408522
  endloop
endfacet
facet normal 0.608761429008735 0.0 0.7933533402912242
  outer loop
    vertex 358.38645920852196 152.39999999999998 302.465133408522
    vertex 359.0703257999999 145.28799999999984 301.94038411670374
    vertex 359.0703257999999 152.39999999999998 301.94038411670374
  endloop
endfacet
facet normal 0.7933533402912436 0.0 0.6087614290087097
  outer loop
    vertex 358.38645920852196 152.39999999999998 302.465133408522
    vertex 357.8617099167037 145.28799999999984 303.149
    vertex 358.38645920852196 145.28799999999984 302.465133408522
  endloop
endfacet
facet normal 0.7933533402912436 0.0 0.6087614290087097
  outer loop
    vertex 357.8617099167037 145.28799999999984 303.149
    vertex 358.38645920852196 152.39999999999998 302.465133408522
    vertex 357.8617099167037 152.39999999999998 303.149
  endloop
endfacet
facet normal 0.9238795325112741 0.0 0.3826834323651205
  outer loop
    vertex 357.8617099167037 152.39999999999998 303.149
    vertex 357.53183872159343 145.28799999999984 303.94537951307143
    vertex 357.8617099167037 145.28799999999984 303.149
  endloop
endfacet
facet normal 0.9238795325112741 0.0 0.3826834323651205
  outer loop
    vertex 357.53183872159343 145.28799999999984 303.94537951307143
    vertex 357.8617099167037 152.39999999999998 303.149
    vertex 357.53183872159343 152.39999999999998 303.94537951307143
  endloop
endfacet
facet normal -0.9914448613738109 -0.0 -0.13052619222004744
  outer loop
    vertex 287.71081287840656 152.39999999999998 305.65462048692854
    vertex 287.8233258000001 145.28799999999995 304.79999999999995
    vertex 287.71081287840656 145.28799999999995 305.65462048692854
  endloop
endfacet
facet normal -0.9914448613738109 -0.0 -0.13052619222004744
  outer loop
    vertex 287.8233258000001 145.28799999999995 304.79999999999995
    vertex 287.71081287840656 152.39999999999998 305.65462048692854
    vertex 287.8233258000001 152.39999999999998 304.79999999999995
  endloop
endfacet
facet normal -0.9914448613738109 0.0 0.13052619222004744
  outer loop
    vertex 287.8233258000001 152.39999999999998 304.79999999999995
    vertex 287.71081287840656 145.28799999999995 303.94537951307143
    vertex 287.8233258000001 145.28799999999995 304.79999999999995
  endloop
endfacet
facet normal -0.9914448613738109 0.0 0.13052619222004744
  outer loop
    vertex 287.71081287840656 145.28799999999995 303.94537951307143
    vertex 287.8233258000001 152.39999999999998 304.79999999999995
    vertex 287.71081287840656 152.39999999999998 303.94537951307143
  endloop
endfacet
facet normal -0.9238795325112816 0.0 0.38268343236510194
  outer loop
    vertex 287.71081287840656 152.39999999999998 303.94537951307143
    vertex 287.38094168329627 145.28799999999995 303.14899999999994
    vertex 287.71081287840656 145.28799999999995 303.94537951307143
  endloop
endfacet
facet normal -0.9238795325112816 0.0 0.38268343236510194
  outer loop
    vertex 287.38094168329627 145.28799999999995 303.14899999999994
    vertex 287.71081287840656 152.39999999999998 303.94537951307143
    vertex 287.38094168329627 152.39999999999998 303.14899999999994
  endloop
endfacet
facet normal -0.7933533402912242 0.0 0.608761429008735
  outer loop
    vertex 287.38094168329627 152.39999999999998 303.14899999999994
    vertex 286.85619239147803 145.28799999999995 302.465133408522
    vertex 287.38094168329627 145.28799999999995 303.14899999999994
  endloop
endfacet
facet normal -0.7933533402912242 0.0 0.608761429008735
  outer loop
    vertex 286.85619239147803 145.28799999999995 302.465133408522
    vertex 287.38094168329627 152.39999999999998 303.14899999999994
    vertex 286.85619239147803 152.39999999999998 302.465133408522
  endloop
endfacet
facet normal -0.6087614290087097 0.0 0.7933533402912436
  outer loop
    vertex 286.85619239147803 145.28799999999995 302.465133408522
    vertex 286.1723258 152.39999999999998 301.94038411670374
    vertex 286.1723258 145.28799999999995 301.94038411670374
  endloop
endfacet
facet normal -0.6087614290087097 0.0 0.7933533402912436
  outer loop
    vertex 286.1723258 152.39999999999998 301.94038411670374
    vertex 286.85619239147803 145.28799999999995 302.465133408522
    vertex 286.85619239147803 152.39999999999998 302.465133408522
  endloop
endfacet
facet normal -0.3826834323651205 0.0 0.9238795325112741
  outer loop
    vertex 286.1723258 145.28799999999995 301.94038411670374
    vertex 285.3759462869286 152.39999999999998 301.61051292159345
    vertex 285.3759462869286 145.28799999999995 301.61051292159345
  endloop
endfacet
facet normal -0.3826834323651205 0.0 0.9238795325112741
  outer loop
    vertex 285.3759462869286 152.39999999999998 301.61051292159345
    vertex 286.1723258 145.28799999999995 301.94038411670374
    vertex 286.1723258 152.39999999999998 301.94038411670374
  endloop
endfacet
facet normal -0.13052619222004744 0.0 0.9914448613738109
  outer loop
    vertex 285.3759462869286 145.28799999999995 301.61051292159345
    vertex 284.52132580000006 152.39999999999998 301.498
    vertex 284.52132580000006 145.28799999999995 301.498
  endloop
endfacet
facet normal -0.13052619222004744 0.0 0.9914448613738109
  outer loop
    vertex 284.52132580000006 152.39999999999998 301.498
    vertex 285.3759462869286 145.28799999999995 301.61051292159345
    vertex 285.3759462869286 152.39999999999998 301.61051292159345
  endloop
endfacet
facet normal 0.13052619222004744 0.0 0.9914448613738109
  outer loop
    vertex 284.52132580000006 145.28799999999995 301.498
    vertex 283.6667053130715 152.39999999999998 301.61051292159345
    vertex 283.6667053130715 145.28799999999995 301.61051292159345
  endloop
endfacet
facet normal 0.13052619222004744 0.0 0.9914448613738109
  outer loop
    vertex 283.6667053130715 152.39999999999998 301.61051292159345
    vertex 284.52132580000006 145.28799999999995 301.498
    vertex 284.52132580000006 152.39999999999998 301.498
  endloop
endfacet
facet normal 0.38268343236510194 0.0 0.9238795325112816
  outer loop
    vertex 283.6667053130715 145.28799999999995 301.61051292159345
    vertex 282.8703258 152.39999999999998 301.94038411670374
    vertex 282.8703258 145.28799999999995 301.94038411670374
  endloop
endfacet
facet normal 0.38268343236510194 0.0 0.9238795325112816
  outer loop
    vertex 282.8703258 152.39999999999998 301.94038411670374
    vertex 283.6667053130715 145.28799999999995 301.61051292159345
    vertex 283.6667053130715 152.39999999999998 301.61051292159345
  endloop
endfacet
facet normal 0.608761429008735 0.0 0.7933533402912242
  outer loop
    vertex 282.8703258 145.28799999999995 301.94038411670374
    vertex 282.186459208522 152.39999999999998 302.465133408522
    vertex 282.186459208522 145.28799999999995 302.465133408522
  endloop
endfacet
facet normal 0.608761429008735 0.0 0.7933533402912242
  outer loop
    vertex 282.186459208522 152.39999999999998 302.465133408522
    vertex 282.8703258 145.28799999999995 301.94038411670374
    vertex 282.8703258 152.39999999999998 301.94038411670374
  endloop
endfacet
facet normal 0.7933533402912436 0.0 0.6087614290087097
  outer loop
    vertex 282.186459208522 152.39999999999998 302.465133408522
    vertex 281.66170991670384 145.28799999999995 303.149
    vertex 282.186459208522 145.28799999999995 302.465133408522
  endloop
endfacet
facet normal 0.7933533402912436 0.0 0.6087614290087097
  outer loop
    vertex 281.66170991670384 145.28799999999995 303.149
    vertex 282.186459208522 152.39999999999998 302.465133408522
    vertex 281.66170991670384 152.39999999999998 303.149
  endloop
endfacet
facet normal 0.9238795325112741 0.0 0.3826834323651205
  outer loop
    vertex 281.66170991670384 152.39999999999998 303.149
    vertex 281.3318387215935 145.28799999999995 303.94537951307143
    vertex 281.66170991670384 145.28799999999995 303.149
  endloop
endfacet
facet normal 0.9238795325112741 0.0 0.3826834323651205
  outer loop
    vertex 281.3318387215935 145.28799999999995 303.94537951307143
    vertex 281.66170991670384 152.39999999999998 303.149
    vertex 281.3318387215935 152.39999999999998 303.94537951307143
  endloop
endfacet
facet normal 0.9914448613738109 0.0 0.13052619222004744
  outer loop
    vertex 281.3318387215935 152.39999999999998 303.94537951307143
    vertex 281.21932580000004 145.28799999999995 304.79999999999995
    vertex 281.3318387215935 145.28799999999995 303.94537951307143
  endloop
endfacet
facet normal 0.9914448613738109 0.0 0.13052619222004744
  outer loop
    vertex 281.21932580000004 145.28799999999995 304.79999999999995
    vertex 281.3318387215935 152.39999999999998 303.94537951307143
    vertex 281.21932580000004 152.39999999999998 304.79999999999995
  endloop
endfacet
facet normal 0.9914448613738109 0.0 -0.13052619222004744
  outer loop
    vertex 281.21932580000004 152.39999999999998 304.79999999999995
    vertex 281.3318387215935 145.28799999999995 305.65462048692854
    vertex 281.21932580000004 145.28799999999995 304.79999999999995
  endloop
endfacet
facet normal 0.9914448613738109 0.0 -0.13052619222004744
  outer loop
    vertex 281.3318387215935 145.28799999999995 305.65462048692854
    vertex 281.21932580000004 152.39999999999998 304.79999999999995
    vertex 281.3318387215935 152.39999999999998 305.65462048692854
  endloop
endfacet
facet normal 0.9238795325112816 0.0 -0.38268343236510194
  outer loop
    vertex 281.3318387215935 152.39999999999998 305.65462048692854
    vertex 281.66170991670384 145.28799999999995 306.451
    vertex 281.3318387215935 145.28799999999995 305.65462048692854
  endloop
endfacet
facet normal 0.9238795325112816 0.0 -0.38268343236510194
  outer loop
    vertex 281.66170991670384 145.28799999999995 306.451
    vertex 281.3318387215935 152.39999999999998 305.65462048692854
    vertex 281.66170991670384 152.39999999999998 306.451
  endloop
endfacet
facet normal 0.7933533402912242 0.0 -0.608761429008735
  outer loop
    vertex 281.66170991670384 152.39999999999998 306.451
    vertex 282.186459208522 145.28799999999995 307.134866591478
    vertex 281.66170991670384 145.28799999999995 306.451
  endloop
endfacet
facet normal 0.7933533402912242 0.0 -0.608761429008735
  outer loop
    vertex 282.186459208522 145.28799999999995 307.134866591478
    vertex 281.66170991670384 152.39999999999998 306.451
    vertex 282.186459208522 152.39999999999998 307.134866591478
  endloop
endfacet
facet normal 0.6087614290087097 0.0 -0.7933533402912436
  outer loop
    vertex 282.87032580000005 152.39999999999998 307.6596158832962
    vertex 282.186459208522 145.28799999999995 307.134866591478
    vertex 282.186459208522 152.39999999999998 307.134866591478
  endloop
endfacet
facet normal 0.6087614290087097 0.0 -0.7933533402912436
  outer loop
    vertex 282.186459208522 145.28799999999995 307.134866591478
    vertex 282.87032580000005 152.39999999999998 307.6596158832962
    vertex 282.87032580000005 145.28799999999995 307.6596158832962
  endloop
endfacet
facet normal 0.3826834323651205 0.0 -0.9238795325112741
  outer loop
    vertex 283.6667053130715 152.39999999999998 307.9894870784065
    vertex 282.87032580000005 145.28799999999995 307.6596158832962
    vertex 282.87032580000005 152.39999999999998 307.6596158832962
  endloop
endfacet
facet normal 0.3826834323651205 0.0 -0.9238795325112741
  outer loop
    vertex 282.87032580000005 145.28799999999995 307.6596158832962
    vertex 283.6667053130715 152.39999999999998 307.9894870784065
    vertex 283.6667053130715 145.28799999999995 307.9894870784065
  endloop
endfacet
facet normal 0.13052619222004744 0.0 -0.9914448613738109
  outer loop
    vertex 284.52132580000006 152.39999999999998 308.102
    vertex 283.6667053130715 145.28799999999995 307.9894870784065
    vertex 283.6667053130715 152.39999999999998 307.9894870784065
  endloop
endfacet
facet normal 0.13052619222004744 0.0 -0.9914448613738109
  outer loop
    vertex 283.6667053130715 145.28799999999995 307.9894870784065
    vertex 284.52132580000006 152.39999999999998 308.102
    vertex 284.52132580000006 145.28799999999995 308.102
  endloop
endfacet
facet normal -0.13052619222004744 -0.0 -0.9914448613738109
  outer loop
    vertex 285.3759462869286 152.39999999999998 307.9894870784065
    vertex 284.52132580000006 145.28799999999995 308.102
    vertex 284.52132580000006 152.39999999999998 308.102
  endloop
endfacet
facet normal -0.13052619222004744 -0.0 -0.9914448613738109
  outer loop
    vertex 284.52132580000006 145.28799999999995 308.102
    vertex 285.3759462869286 152.39999999999998 307.9894870784065
    vertex 285.3759462869286 145.28799999999995 307.9894870784065
  endloop
endfacet
facet normal -0.38268343236510194 -0.0 -0.9238795325112816
  outer loop
    vertex 286.17232580000007 152.39999999999998 307.6596158832962
    vertex 285.3759462869286 145.28799999999995 307.9894870784065
    vertex 285.3759462869286 152.39999999999998 307.9894870784065
  endloop
endfacet
facet normal -0.38268343236510194 -0.0 -0.9238795325112816
  outer loop
    vertex 285.3759462869286 145.28799999999995 307.9894870784065
    vertex 286.17232580000007 152.39999999999998 307.6596158832962
    vertex 286.17232580000007 145.28799999999995 307.6596158832962
  endloop
endfacet
facet normal -0.608761429008735 -0.0 -0.7933533402912242
  outer loop
    vertex 286.85619239147803 152.39999999999998 307.134866591478
    vertex 286.17232580000007 145.28799999999995 307.6596158832962
    vertex 286.17232580000007 152.39999999999998 307.6596158832962
  endloop
endfacet
facet normal -0.608761429008735 -0.0 -0.7933533402912242
  outer loop
    vertex 286.17232580000007 145.28799999999995 307.6596158832962
    vertex 286.85619239147803 152.39999999999998 307.134866591478
    vertex 286.85619239147803 145.28799999999995 307.134866591478
  endloop
endfacet
facet normal -0.7933533402912436 -0.0 -0.6087614290087097
  outer loop
    vertex 286.85619239147803 152.39999999999998 307.134866591478
    vertex 287.38094168329627 145.28799999999995 306.45099999999996
    vertex 286.85619239147803 145.28799999999995 307.134866591478
  endloop
endfacet
facet normal -0.7933533402912436 -0.0 -0.6087614290087097
  outer loop
    vertex 287.38094168329627 145.28799999999995 306.45099999999996
    vertex 286.85619239147803 152.39999999999998 307.134866591478
    vertex 287.38094168329627 152.39999999999998 306.45099999999996
  endloop
endfacet
facet normal -0.9238795325112741 -0.0 -0.3826834323651205
  outer loop
    vertex 287.38094168329627 152.39999999999998 306.45099999999996
    vertex 287.71081287840656 145.28799999999995 305.65462048692854
    vertex 287.38094168329627 145.28799999999995 306.45099999999996
  endloop
endfacet
facet normal -0.9238795325112741 -0.0 -0.3826834323651205
  outer loop
    vertex 287.71081287840656 145.28799999999995 305.65462048692854
    vertex 287.38094168329627 152.39999999999998 306.45099999999996
    vertex 287.71081287840656 152.39999999999998 305.65462048692854
  endloop
endfacet
endsolid Untitled-622520e6
