solid Untitled-60f1c23a
facet normal 0.0 0.0 -1.0
  outer loop
    vertex 9.525 37.24926131403119 1.762479051592436e-16
    vertex 9.524999999999999 31.75 1.762479051592436e-16
    vertex 8.209871939465426 36.24012806053458 1.762479051592436e-16
  endloop
endfacet
facet normal 0.0 0.0 -1.0
  outer loop
    vertex 9.524999999999999 31.75 1.762479051592436e-16
    vertex 9.525 37.24926131403119 1.762479051592436e-16
    vertex 9.633185501532209 32.5717504682005 1.762479051592436e-16
  endloop
endfacet
facet normal 0.0 0.0 -1.0
  outer loop
    vertex 9.633185501532209 32.5717504682005 1.762479051592436e-16
    vertex 9.525 37.24926131403119 1.762479051592436e-16
    vertex 11.056499063598995 37.883628996935585 1.762479051592436e-16
  endloop
endfacet
facet normal 0.0 0.0 -1.0
  outer loop
    vertex 9.633185501532209 32.5717504682005 1.762479051592436e-16
    vertex 11.056499063598995 37.883628996935585 1.762479051592436e-16
    vertex 9.950369342984406 33.3375 1.762479051592436e-16
  endloop
endfacet
facet normal 0.0 0.0 -1.0
  outer loop
    vertex 9.950369342984406 33.3375 1.762479051592436e-16
    vertex 11.056499063598995 37.883628996935585 1.762479051592436e-16
    vertex 10.45493596973271 33.99506403026729 1.762479051592436e-16
  endloop
endfacet
facet normal 0.0 0.0 -1.0
  outer loop
    vertex 10.45493596973271 33.99506403026729 1.762479051592436e-16
    vertex 11.056499063598995 37.883628996935585 1.762479051592436e-16
    vertex 11.112499999999999 34.499630657015594 1.762479051592436e-16
  endloop
endfacet
facet normal 0.0 0.0 -1.0
  outer loop
    vertex 11.112499999999999 34.499630657015594 1.762479051592436e-16
    vertex 11.056499063598995 37.883628996935585 1.762479051592436e-16
    vertex 12.7 38.099999999999994 1.762479051592436e-16
  endloop
endfacet
facet normal 0.0 0.0 -1.0
  outer loop
    vertex 11.112499999999999 34.499630657015594 1.762479051592436e-16
    vertex 12.7 38.099999999999994 1.762479051592436e-16
    vertex 11.878249531799495 34.816814498467785 1.762479051592436e-16
  endloop
endfacet
facet normal 0.0 0.0 -1.0
  outer loop
    vertex 11.878249531799495 34.816814498467785 1.762479051592436e-16
    vertex 12.7 38.099999999999994 1.762479051592436e-16
    vertex 12.7 34.925 1.762479051592436e-16
  endloop
endfacet
facet normal 0.0 0.0 -1.0
  outer loop
    vertex 12.7 34.925 1.762479051592436e-16
    vertex 12.7 38.099999999999994 1.762479051592436e-16
    vertex 14.343500936401009 37.88362899693558 1.762479051592436e-16
  endloop
endfacet
facet normal 0.0 0.0 -1.0
  outer loop
    vertex 12.7 34.925 1.762479051592436e-16
    vertex 14.343500936401009 37.88362899693558 1.762479051592436e-16
    vertex 13.521750468200503 34.816814498467785 1.762479051592436e-16
  endloop
endfacet
facet normal 0.0 0.0 -1.0
  outer loop
    vertex 13.521750468200503 34.816814498467785 1.762479051592436e-16
    vertex 14.343500936401009 37.88362899693558 1.762479051592436e-16
    vertex 14.2875 34.499630657015594 1.762479051592436e-16
  endloop
endfacet
facet normal 0.0 0.0 -1.0
  outer loop
    vertex 14.2875 34.499630657015594 1.762479051592436e-16
    vertex 14.343500936401009 37.88362899693558 1.762479051592436e-16
    vertex 14.94506403026729 33.99506403026729 1.762479051592436e-16
  endloop
endfacet
facet normal 0.0 0.0 -1.0
  outer loop
    vertex 14.94506403026729 33.99506403026729 1.762479051592436e-16
    vertex 14.343500936401009 37.88362899693558 1.762479051592436e-16
    vertex 15.875000000000002 37.24926131403118 1.762479051592436e-16
  endloop
endfacet
facet normal 0.0 0.0 -1.0
  outer loop
    vertex 14.94506403026729 33.99506403026729 1.762479051592436e-16
    vertex 15.875000000000002 37.24926131403118 1.762479051592436e-16
    vertex 15.449630657015591 33.3375 1.762479051592436e-16
  endloop
endfacet
facet normal 0.0 0.0 -1.0
  outer loop
    vertex 15.449630657015591 33.3375 1.762479051592436e-16
    vertex 15.875000000000002 37.24926131403118 1.762479051592436e-16
    vertex 15.76681449846779 32.571750468200506 1.762479051592436e-16
  endloop
endfacet
facet normal 0.0 0.0 -1.0
  outer loop
    vertex 15.76681449846779 32.571750468200506 1.762479051592436e-16
    vertex 15.875000000000002 37.24926131403118 1.762479051592436e-16
    vertex 15.875 31.75 1.762479051592436e-16
  endloop
endfacet
facet normal 0.0 0.0 -1.0
  outer loop
    vertex 6.5663710030644165 33.39350093640101 1.762479051592436e-16
    vertex 6.35 25.4 1.762479051592436e-16
    vertex 6.35 31.75 1.762479051592436e-16
  endloop
endfacet
facet normal 0.0 0.0 -1.0
  outer loop
    vertex 6.35 25.4 1.762479051592436e-16
    vertex 6.5663710030644165 33.39350093640101 1.762479051592436e-16
    vertex 10.45493596973271 29.50493596973271 1.762479051592436e-16
  endloop
endfacet
facet normal 0.0 0.0 -1.0
  outer loop
    vertex 6.35 25.4 1.762479051592436e-16
    vertex 10.45493596973271 29.50493596973271 1.762479051592436e-16
    vertex 11.112500000000002 29.000369342984403 1.762479051592436e-16
  endloop
endfacet
facet normal 0.0 0.0 -1.0
  outer loop
    vertex 6.35 25.4 1.762479051592436e-16
    vertex 11.112500000000002 29.000369342984403 1.762479051592436e-16
    vertex 19.049999999999997 25.4 1.762479051592436e-16
  endloop
endfacet
facet normal 0.0 0.0 -1.0
  outer loop
    vertex 10.45493596973271 29.50493596973271 1.762479051592436e-16
    vertex 6.5663710030644165 33.39350093640101 1.762479051592436e-16
    vertex 9.950369342984407 30.162499999999998 1.762479051592436e-16
  endloop
endfacet
facet normal 0.0 0.0 -1.0
  outer loop
    vertex 9.950369342984407 30.162499999999998 1.762479051592436e-16
    vertex 6.5663710030644165 33.39350093640101 1.762479051592436e-16
    vertex 7.200738685968816 34.925 1.762479051592436e-16
  endloop
endfacet
facet normal 0.0 0.0 -1.0
  outer loop
    vertex 9.950369342984407 30.162499999999998 1.762479051592436e-16
    vertex 7.200738685968816 34.925 1.762479051592436e-16
    vertex 9.633185501532209 30.92824953179949 1.762479051592436e-16
  endloop
endfacet
facet normal 0.0 0.0 -1.0
  outer loop
    vertex 9.633185501532209 30.92824953179949 1.762479051592436e-16
    vertex 7.200738685968816 34.925 1.762479051592436e-16
    vertex 8.209871939465426 36.24012806053458 1.762479051592436e-16
  endloop
endfacet
facet normal 0.0 0.0 -1.0
  outer loop
    vertex 9.633185501532209 30.92824953179949 1.762479051592436e-16
    vertex 8.209871939465426 36.24012806053458 1.762479051592436e-16
    vertex 9.524999999999999 31.75 1.762479051592436e-16
  endloop
endfacet
facet normal 0.0 0.0 -1.0
  outer loop
    vertex 19.049999999999997 25.4 1.762479051592436e-16
    vertex 11.112500000000002 29.000369342984403 1.762479051592436e-16
    vertex 11.878249531799497 28.683185501532208 1.762479051592436e-16
  endloop
endfacet
facet normal 0.0 0.0 -1.0
  outer loop
    vertex 19.049999999999997 25.4 1.762479051592436e-16
    vertex 11.878249531799497 28.683185501532208 1.762479051592436e-16
    vertex 12.7 28.575 1.762479051592436e-16
  endloop
endfacet
facet normal 0.0 0.0 -1.0
  outer loop
    vertex 19.049999999999997 25.4 1.762479051592436e-16
    vertex 12.7 28.575 1.762479051592436e-16
    vertex 13.521750468200505 28.683185501532208 1.762479051592436e-16
  endloop
endfacet
facet normal 0.0 0.0 -1.0
  outer loop
    vertex 19.049999999999997 25.4 1.762479051592436e-16
    vertex 13.521750468200505 28.683185501532208 1.762479051592436e-16
    vertex 14.2875 29.00036934298441 1.762479051592436e-16
  endloop
endfacet
facet normal 0.0 0.0 -1.0
  outer loop
    vertex 19.049999999999997 25.4 1.762479051592436e-16
    vertex 14.2875 29.00036934298441 1.762479051592436e-16
    vertex 14.94506403026729 29.50493596973271 1.762479051592436e-16
  endloop
endfacet
facet normal 0.0 0.0 -1.0
  outer loop
    vertex 19.049999999999997 25.4 1.762479051592436e-16
    vertex 14.94506403026729 29.50493596973271 1.762479051592436e-16
    vertex 15.449630657015593 30.162499999999998 1.762479051592436e-16
  endloop
endfacet
facet normal 0.0 0.0 -1.0
  outer loop
    vertex 19.049999999999997 25.4 1.762479051592436e-16
    vertex 15.449630657015593 30.162499999999998 1.762479051592436e-16
    vertex 15.766814498467792 30.928249531799498 1.762479051592436e-16
  endloop
endfacet
facet normal 0.0 0.0 -1.0
  outer loop
    vertex 19.049999999999997 25.4 1.762479051592436e-16
    vertex 15.766814498467792 30.928249531799498 1.762479051592436e-16
    vertex 15.875 31.75 1.762479051592436e-16
  endloop
endfacet
facet normal 0.0 0.0 -1.0
  outer loop
    vertex 19.049999999999997 25.4 1.762479051592436e-16
    vertex 15.875 31.75 1.762479051592436e-16
    vertex 15.875000000000002 37.24926131403118 1.762479051592436e-16
  endloop
endfacet
facet normal 0.0 0.0 -1.0
  outer loop
    vertex 19.049999999999997 25.4 1.762479051592436e-16
    vertex 15.875000000000002 37.24926131403118 1.762479051592436e-16
    vertex 17.190128060534576 36.24012806053458 1.762479051592436e-16
  endloop
endfacet
facet normal 0.0 0.0 -1.0
  outer loop
    vertex 19.049999999999997 25.4 1.762479051592436e-16
    vertex 17.190128060534576 36.24012806053458 1.762479051592436e-16
    vertex 18.199261314031187 34.925 1.762479051592436e-16
  endloop
endfacet
facet normal 0.0 0.0 -1.0
  outer loop
    vertex 19.049999999999997 25.4 1.762479051592436e-16
    vertex 18.199261314031187 34.925 1.762479051592436e-16
    vertex 18.83362899693558 33.393500936401004 1.762479051592436e-16
  endloop
endfacet
facet normal 0.0 0.0 -1.0
  outer loop
    vertex 19.049999999999997 25.4 1.762479051592436e-16
    vertex 18.83362899693558 33.393500936401004 1.762479051592436e-16
    vertex 19.049999999999997 31.75 1.762479051592436e-16
  endloop
endfacet
facet normal -0.7933533402912369 -0.6087614290087183 -0.0
  outer loop
    vertex 14.94506403026729 33.99506403026729 3.175
    vertex 15.449630657015591 33.3375 1.762479051592436e-16
    vertex 15.449630657015591 33.3375 3.175
  endloop
endfacet
facet normal -0.7933533402912369 -0.6087614290087183 -0.0
  outer loop
    vertex 15.449630657015591 33.3375 1.762479051592436e-16
    vertex 14.94506403026729 33.99506403026729 3.175
    vertex 14.94506403026729 33.99506403026729 1.762479051592436e-16
  endloop
endfacet
facet normal -0.9238795325112876 0.3826834323650877 0.0
  outer loop
    vertex 15.766814498467792 30.928249531799498 3.175
    vertex 15.449630657015593 30.162499999999998 1.762479051592436e-16
    vertex 15.449630657015593 30.162499999999998 3.175
  endloop
endfacet
facet normal -0.9238795325112876 0.3826834323650877 0.0
  outer loop
    vertex 15.449630657015593 30.162499999999998 1.762479051592436e-16
    vertex 15.766814498467792 30.928249531799498 3.175
    vertex 15.766814498467792 30.928249531799498 1.762479051592436e-16
  endloop
endfacet
facet normal 0.1305261922200536 -0.9914448613738103 0.0
  outer loop
    vertex 12.7 34.925 3.175
    vertex 11.878249531799495 34.816814498467785 1.762479051592436e-16
    vertex 12.7 34.925 1.762479051592436e-16
  endloop
endfacet
facet normal 0.1305261922200536 -0.9914448613738103 0.0
  outer loop
    vertex 11.878249531799495 34.816814498467785 1.762479051592436e-16
    vertex 12.7 34.925 3.175
    vertex 11.878249531799495 34.816814498467785 3.175
  endloop
endfacet
facet normal -0.6087614290087205 -0.7933533402912354 -0.0
  outer loop
    vertex 14.94506403026729 33.99506403026729 3.175
    vertex 14.2875 34.499630657015594 1.762479051592436e-16
    vertex 14.94506403026729 33.99506403026729 1.762479051592436e-16
  endloop
endfacet
facet normal -0.6087614290087205 -0.7933533402912354 -0.0
  outer loop
    vertex 14.2875 34.499630657015594 1.762479051592436e-16
    vertex 14.94506403026729 33.99506403026729 3.175
    vertex 14.2875 34.499630657015594 3.175
  endloop
endfacet
facet normal -0.13052619222005318 0.9914448613738103 0.0
  outer loop
    vertex 12.7 28.575 3.175
    vertex 13.521750468200505 28.683185501532208 1.762479051592436e-16
    vertex 12.7 28.575 1.762479051592436e-16
  endloop
endfacet
facet normal -0.13052619222005318 0.9914448613738103 0.0
  outer loop
    vertex 13.521750468200505 28.683185501532208 1.762479051592436e-16
    vertex 12.7 28.575 3.175
    vertex 13.521750468200505 28.683185501532208 3.175
  endloop
endfacet
facet normal -0.9914448613738106 0.1305261922200507 0.0
  outer loop
    vertex 15.875 31.75 3.175
    vertex 15.766814498467792 30.928249531799498 1.762479051592436e-16
    vertex 15.766814498467792 30.928249531799498 3.175
  endloop
endfacet
facet normal -0.9914448613738106 0.1305261922200507 0.0
  outer loop
    vertex 15.766814498467792 30.928249531799498 1.762479051592436e-16
    vertex 15.875 31.75 3.175
    vertex 15.875 31.75 1.762479051592436e-16
  endloop
endfacet
facet normal -0.9914448613738103 -0.13052619222005318 -0.0
  outer loop
    vertex 15.76681449846779 32.571750468200506 3.175
    vertex 15.875 31.75 1.762479051592436e-16
    vertex 15.875 31.75 3.175
  endloop
endfacet
facet normal -0.9914448613738103 -0.13052619222005318 -0.0
  outer loop
    vertex 15.875 31.75 1.762479051592436e-16
    vertex 15.76681449846779 32.571750468200506 3.175
    vertex 15.76681449846779 32.571750468200506 1.762479051592436e-16
  endloop
endfacet
facet normal -0.382683432365086 -0.9238795325112884 -0.0
  outer loop
    vertex 14.2875 34.499630657015594 3.175
    vertex 13.521750468200503 34.816814498467785 1.762479051592436e-16
    vertex 14.2875 34.499630657015594 1.762479051592436e-16
  endloop
endfacet
facet normal -0.382683432365086 -0.9238795325112884 -0.0
  outer loop
    vertex 13.521750468200503 34.816814498467785 1.762479051592436e-16
    vertex 14.2875 34.499630657015594 3.175
    vertex 13.521750468200503 34.816814498467785 3.175
  endloop
endfacet
facet normal -0.7933533402912354 0.6087614290087205 0.0
  outer loop
    vertex 15.449630657015593 30.162499999999998 3.175
    vertex 14.94506403026729 29.50493596973271 1.762479051592436e-16
    vertex 14.94506403026729 29.50493596973271 3.175
  endloop
endfacet
facet normal -0.7933533402912354 0.6087614290087205 0.0
  outer loop
    vertex 14.94506403026729 29.50493596973271 1.762479051592436e-16
    vertex 15.449630657015593 30.162499999999998 3.175
    vertex 15.449630657015593 30.162499999999998 1.762479051592436e-16
  endloop
endfacet
facet normal -0.38268343236509306 0.9238795325112855 0.0
  outer loop
    vertex 13.521750468200505 28.683185501532208 3.175
    vertex 14.2875 29.00036934298441 1.762479051592436e-16
    vertex 13.521750468200505 28.683185501532208 1.762479051592436e-16
  endloop
endfacet
facet normal -0.38268343236509306 0.9238795325112855 0.0
  outer loop
    vertex 14.2875 29.00036934298441 1.762479051592436e-16
    vertex 13.521750468200505 28.683185501532208 3.175
    vertex 14.2875 29.00036934298441 3.175
  endloop
endfacet
facet normal -0.9238795325112867 -0.38268343236509017 -0.0
  outer loop
    vertex 15.449630657015591 33.3375 3.175
    vertex 15.76681449846779 32.571750468200506 1.762479051592436e-16
    vertex 15.76681449846779 32.571750468200506 3.175
  endloop
endfacet
facet normal -0.9238795325112867 -0.38268343236509017 -0.0
  outer loop
    vertex 15.76681449846779 32.571750468200506 1.762479051592436e-16
    vertex 15.449630657015591 33.3375 3.175
    vertex 15.449630657015591 33.3375 1.762479051592436e-16
  endloop
endfacet
facet normal 0.6087614290087213 -0.7933533402912347 0.0
  outer loop
    vertex 11.112499999999999 34.499630657015594 3.175
    vertex 10.45493596973271 33.99506403026729 1.762479051592436e-16
    vertex 11.112499999999999 34.499630657015594 1.762479051592436e-16
  endloop
endfacet
facet normal 0.6087614290087213 -0.7933533402912347 0.0
  outer loop
    vertex 10.45493596973271 33.99506403026729 1.762479051592436e-16
    vertex 11.112499999999999 34.499630657015594 3.175
    vertex 10.45493596973271 33.99506403026729 3.175
  endloop
endfacet
facet normal -0.1305261922200536 -0.9914448613738103 -0.0
  outer loop
    vertex 13.521750468200503 34.816814498467785 3.175
    vertex 12.7 34.925 1.762479051592436e-16
    vertex 13.521750468200503 34.816814498467785 1.762479051592436e-16
  endloop
endfacet
facet normal -0.1305261922200536 -0.9914448613738103 -0.0
  outer loop
    vertex 12.7 34.925 1.762479051592436e-16
    vertex 13.521750468200503 34.816814498467785 3.175
    vertex 12.7 34.925 3.175
  endloop
endfacet
facet normal 0.0 1.0 0.0
  outer loop
    vertex 19.049999999999997 25.4 1.762479051592436e-16
    vertex 25.4 25.4 3.175
    vertex 25.4 25.4 0.0
  endloop
endfacet
facet normal 0.0 1.0 0.0
  outer loop
    vertex 25.4 25.4 3.175
    vertex 19.049999999999997 25.4 1.762479051592436e-16
    vertex 19.049999999999997 25.4 3.175
  endloop
endfacet
facet normal -0.6087614290087162 0.7933533402912386 0.0
  outer loop
    vertex 14.2875 29.00036934298441 3.175
    vertex 14.94506403026729 29.50493596973271 1.762479051592436e-16
    vertex 14.2875 29.00036934298441 1.762479051592436e-16
  endloop
endfacet
facet normal -0.6087614290087162 0.7933533402912386 0.0
  outer loop
    vertex 14.94506403026729 29.50493596973271 1.762479051592436e-16
    vertex 14.2875 29.00036934298441 3.175
    vertex 14.94506403026729 29.50493596973271 3.175
  endloop
endfacet
facet normal 0.382683432365086 -0.9238795325112884 0.0
  outer loop
    vertex 11.878249531799495 34.816814498467785 3.175
    vertex 11.112499999999999 34.499630657015594 1.762479051592436e-16
    vertex 11.878249531799495 34.816814498467785 1.762479051592436e-16
  endloop
endfacet
facet normal 0.382683432365086 -0.9238795325112884 0.0
  outer loop
    vertex 11.112499999999999 34.499630657015594 1.762479051592436e-16
    vertex 11.878249531799495 34.816814498467785 3.175
    vertex 11.112499999999999 34.499630657015594 3.175
  endloop
endfacet
facet normal 0.0 0.0 1.0
  outer loop
    vertex 0.0 0.0 3.175
    vertex 1.27 1.27 3.175
    vertex 0.0 25.4 3.175
  endloop
endfacet
facet normal 0.0 0.0 1.0
  outer loop
    vertex 1.27 1.27 3.175
    vertex 0.0 0.0 3.175
    vertex 25.4 0.0 3.175
  endloop
endfacet
facet normal 0.0 0.0 1.0
  outer loop
    vertex 1.27 1.27 3.175
    vertex 25.4 0.0 3.175
    vertex 24.13 1.27 3.175
  endloop
endfacet
facet normal 0.0 0.0 1.0
  outer loop
    vertex 24.13 1.27 3.175
    vertex 25.4 0.0 3.175
    vertex 24.13 24.13 3.175
  endloop
endfacet
facet normal 0.0 0.0 1.0
  outer loop
    vertex 0.0 25.4 3.175
    vertex 1.27 24.13 3.175
    vertex 6.35 25.4 3.175
  endloop
endfacet
facet normal 0.0 0.0 1.0
  outer loop
    vertex 1.27 24.13 3.175
    vertex 0.0 25.4 3.175
    vertex 1.27 1.27 3.175
  endloop
endfacet
facet normal 0.0 0.0 1.0
  outer loop
    vertex 6.35 25.4 3.175
    vertex 1.27 24.13 3.175
    vertex 24.13 24.13 3.175
  endloop
endfacet
facet normal 0.0 0.0 1.0
  outer loop
    vertex 6.35 25.4 3.175
    vertex 24.13 24.13 3.175
    vertex 19.049999999999997 25.4 3.175
  endloop
endfacet
facet normal 0.0 0.0 1.0
  outer loop
    vertex 19.049999999999997 25.4 3.175
    vertex 24.13 24.13 3.175
    vertex 25.4 25.4 3.175
  endloop
endfacet
facet normal 0.0 0.0 1.0
  outer loop
    vertex 25.4 25.4 3.175
    vertex 24.13 24.13 3.175
    vertex 25.4 0.0 3.175
  endloop
endfacet
facet normal -1.0 0.0 0.0
  outer loop
    vertex 0.0 25.4 3.175
    vertex 0.0 0.0 0.0
    vertex 0.0 0.0 3.175
  endloop
endfacet
facet normal -1.0 0.0 0.0
  outer loop
    vertex 0.0 0.0 0.0
    vertex 0.0 25.4 3.175
    vertex 0.0 25.4 0.0
  endloop
endfacet
facet normal 0.0 1.0 0.0
  outer loop
    vertex 0.0 25.4 3.175
    vertex 6.35 25.4 1.762479051592436e-16
    vertex 0.0 25.4 0.0
  endloop
endfacet
facet normal 0.0 1.0 0.0
  outer loop
    vertex 6.35 25.4 1.762479051592436e-16
    vertex 0.0 25.4 3.175
    vertex 6.35 25.4 3.175
  endloop
endfacet
facet normal 1.0 0.0 0.0
  outer loop
    vertex 25.4 25.4 0.0
    vertex 25.4 0.0 3.175
    vertex 25.4 0.0 0.0
  endloop
endfacet
facet normal 1.0 0.0 0.0
  outer loop
    vertex 25.4 0.0 3.175
    vertex 25.4 25.4 0.0
    vertex 25.4 25.4 3.175
  endloop
endfacet
facet normal 0.0 3.469446951953614e-18 -1.0
  outer loop
    vertex 6.35 25.4 1.762479051592436e-16
    vertex 0.0 0.0 0.0
    vertex 0.0 25.4 0.0
  endloop
endfacet
facet normal 0.0 3.469446951953614e-18 -1.0
  outer loop
    vertex 0.0 0.0 0.0
    vertex 6.35 25.4 1.762479051592436e-16
    vertex 25.4 0.0 0.0
  endloop
endfacet
facet normal 0.0 3.469446951953614e-18 -1.0
  outer loop
    vertex 25.4 0.0 0.0
    vertex 6.35 25.4 1.762479051592436e-16
    vertex 19.049999999999997 25.4 1.762479051592436e-16
  endloop
endfacet
facet normal 0.0 3.469446951953614e-18 -1.0
  outer loop
    vertex 25.4 0.0 0.0
    vertex 19.049999999999997 25.4 1.762479051592436e-16
    vertex 25.4 25.4 0.0
  endloop
endfacet
facet normal -0.0 -1.0 -0.0
  outer loop
    vertex 25.4 0.0 3.175
    vertex 0.0 0.0 0.0
    vertex 25.4 0.0 0.0
  endloop
endfacet
facet normal -0.0 -1.0 -0.0
  outer loop
    vertex 0.0 0.0 0.0
    vertex 25.4 0.0 3.175
    vertex 0.0 0.0 3.175
  endloop
endfacet
facet normal -0.0 -1.0 -0.0
  outer loop
    vertex 24.13 24.13 3.175
    vertex 1.27 24.13 1.5875
    vertex 24.13 24.13 1.5875
  endloop
endfacet
facet normal -0.0 -1.0 -0.0
  outer loop
    vertex 1.27 24.13 1.5875
    vertex 24.13 24.13 3.175
    vertex 1.27 24.13 3.175
  endloop
endfacet
facet normal 1.0 0.0 0.0
  outer loop
    vertex 1.27 24.13 1.5875
    vertex 1.27 1.27 3.175
    vertex 1.27 1.27 1.5875
  endloop
endfacet
facet normal 1.0 0.0 0.0
  outer loop
    vertex 1.27 1.27 3.175
    vertex 1.27 24.13 1.5875
    vertex 1.27 24.13 3.175
  endloop
endfacet
facet normal 0.0 1.0 0.0
  outer loop
    vertex 1.27 1.27 3.175
    vertex 24.13 1.27 1.5875
    vertex 1.27 1.27 1.5875
  endloop
endfacet
facet normal 0.0 1.0 0.0
  outer loop
    vertex 24.13 1.27 1.5875
    vertex 1.27 1.27 3.175
    vertex 24.13 1.27 3.175
  endloop
endfacet
facet normal 0.0 0.0 1.0
  outer loop
    vertex 24.13 1.27 1.5875
    vertex 1.27 24.13 1.5875
    vertex 1.27 1.27 1.5875
  endloop
endfacet
facet normal 0.0 0.0 1.0
  outer loop
    vertex 1.27 24.13 1.5875
    vertex 24.13 1.27 1.5875
    vertex 24.13 24.13 1.5875
  endloop
endfacet
facet normal -1.0 0.0 0.0
  outer loop
    vertex 24.13 24.13 3.175
    vertex 24.13 1.27 1.5875
    vertex 24.13 1.27 3.175
  endloop
endfacet
facet normal -1.0 0.0 0.0
  outer loop
    vertex 24.13 1.27 1.5875
    vertex 24.13 24.13 3.175
    vertex 24.13 24.13 1.5875
  endloop
endfacet
facet normal 0.0 0.0 1.0
  outer loop
    vertex 6.35 25.4 3.175
    vertex 11.112500000000002 29.000369342984403 3.175
    vertex 6.35 31.75 3.175
  endloop
endfacet
facet normal 0.0 0.0 1.0
  outer loop
    vertex 11.112500000000002 29.000369342984403 3.175
    vertex 6.35 25.4 3.175
    vertex 19.049999999999997 25.4 3.175
  endloop
endfacet
facet normal 0.0 0.0 1.0
  outer loop
    vertex 6.35 31.75 3.175
    vertex 11.112500000000002 29.000369342984403 3.175
    vertex 10.45493596973271 29.50493596973271 3.175
  endloop
endfacet
facet normal 0.0 0.0 1.0
  outer loop
    vertex 6.35 31.75 3.175
    vertex 10.45493596973271 29.50493596973271 3.175
    vertex 6.5663710030644165 33.39350093640101 3.175
  endloop
endfacet
facet normal 0.0 0.0 1.0
  outer loop
    vertex 6.5663710030644165 33.39350093640101 3.175
    vertex 10.45493596973271 29.50493596973271 3.175
    vertex 9.950369342984407 30.162499999999998 3.175
  endloop
endfacet
facet normal 0.0 0.0 1.0
  outer loop
    vertex 6.5663710030644165 33.39350093640101 3.175
    vertex 9.950369342984407 30.162499999999998 3.175
    vertex 7.200738685968816 34.925 3.175
  endloop
endfacet
facet normal 0.0 0.0 1.0
  outer loop
    vertex 7.200738685968816 34.925 3.175
    vertex 9.950369342984407 30.162499999999998 3.175
    vertex 9.633185501532209 30.92824953179949 3.175
  endloop
endfacet
facet normal 0.0 0.0 1.0
  outer loop
    vertex 7.200738685968816 34.925 3.175
    vertex 9.633185501532209 30.92824953179949 3.175
    vertex 8.209871939465426 36.24012806053458 3.175
  endloop
endfacet
facet normal 0.0 0.0 1.0
  outer loop
    vertex 8.209871939465426 36.24012806053458 3.175
    vertex 9.633185501532209 30.92824953179949 3.175
    vertex 9.524999999999999 31.75 3.175
  endloop
endfacet
facet normal 0.0 0.0 1.0
  outer loop
    vertex 11.112500000000002 29.000369342984403 3.175
    vertex 19.049999999999997 25.4 3.175
    vertex 11.878249531799497 28.683185501532208 3.175
  endloop
endfacet
facet normal 0.0 0.0 1.0
  outer loop
    vertex 11.878249531799497 28.683185501532208 3.175
    vertex 19.049999999999997 25.4 3.175
    vertex 12.7 28.575 3.175
  endloop
endfacet
facet normal 0.0 0.0 1.0
  outer loop
    vertex 12.7 28.575 3.175
    vertex 19.049999999999997 25.4 3.175
    vertex 13.521750468200505 28.683185501532208 3.175
  endloop
endfacet
facet normal 0.0 0.0 1.0
  outer loop
    vertex 13.521750468200505 28.683185501532208 3.175
    vertex 19.049999999999997 25.4 3.175
    vertex 14.2875 29.00036934298441 3.175
  endloop
endfacet
facet normal 0.0 0.0 1.0
  outer loop
    vertex 14.2875 29.00036934298441 3.175
    vertex 19.049999999999997 25.4 3.175
    vertex 14.94506403026729 29.50493596973271 3.175
  endloop
endfacet
facet normal 0.0 0.0 1.0
  outer loop
    vertex 14.94506403026729 29.50493596973271 3.175
    vertex 19.049999999999997 25.4 3.175
    vertex 15.449630657015593 30.162499999999998 3.175
  endloop
endfacet
facet normal 0.0 0.0 1.0
  outer loop
    vertex 15.449630657015593 30.162499999999998 3.175
    vertex 19.049999999999997 25.4 3.175
    vertex 15.766814498467792 30.928249531799498 3.175
  endloop
endfacet
facet normal 0.0 0.0 1.0
  outer loop
    vertex 15.766814498467792 30.928249531799498 3.175
    vertex 19.049999999999997 25.4 3.175
    vertex 15.875 31.75 3.175
  endloop
endfacet
facet normal 0.0 0.0 1.0
  outer loop
    vertex 15.875 31.75 3.175
    vertex 19.049999999999997 25.4 3.175
    vertex 15.875000000000002 37.24926131403118 3.175
  endloop
endfacet
facet normal 0.0 0.0 1.0
  outer loop
    vertex 15.875000000000002 37.24926131403118 3.175
    vertex 19.049999999999997 25.4 3.175
    vertex 17.190128060534576 36.24012806053458 3.175
  endloop
endfacet
facet normal 0.0 0.0 1.0
  outer loop
    vertex 17.190128060534576 36.24012806053458 3.175
    vertex 19.049999999999997 25.4 3.175
    vertex 18.199261314031187 34.925 3.175
  endloop
endfacet
facet normal 0.0 0.0 1.0
  outer loop
    vertex 18.199261314031187 34.925 3.175
    vertex 19.049999999999997 25.4 3.175
    vertex 18.83362899693558 33.393500936401004 3.175
  endloop
endfacet
facet normal 0.0 0.0 1.0
  outer loop
    vertex 18.83362899693558 33.393500936401004 3.175
    vertex 19.049999999999997 25.4 3.175
    vertex 19.049999999999997 31.75 3.175
  endloop
endfacet
facet normal 0.0 0.0 1.0
  outer loop
    vertex 9.524999999999999 31.75 3.175
    vertex 9.525 37.24926131403119 3.175
    vertex 8.209871939465426 36.24012806053458 3.175
  endloop
endfacet
facet normal 0.0 0.0 1.0
  outer loop
    vertex 9.525 37.24926131403119 3.175
    vertex 9.524999999999999 31.75 3.175
    vertex 9.633185501532209 32.5717504682005 3.175
  endloop
endfacet
facet normal 0.0 0.0 1.0
  outer loop
    vertex 9.525 37.24926131403119 3.175
    vertex 9.633185501532209 32.5717504682005 3.175
    vertex 11.056499063598995 37.883628996935585 3.175
  endloop
endfacet
facet normal 0.0 0.0 1.0
  outer loop
    vertex 11.056499063598995 37.883628996935585 3.175
    vertex 9.633185501532209 32.5717504682005 3.175
    vertex 9.950369342984406 33.3375 3.175
  endloop
endfacet
facet normal 0.0 0.0 1.0
  outer loop
    vertex 11.056499063598995 37.883628996935585 3.175
    vertex 9.950369342984406 33.3375 3.175
    vertex 10.45493596973271 33.99506403026729 3.175
  endloop
endfacet
facet normal 0.0 0.0 1.0
  outer loop
    vertex 11.056499063598995 37.883628996935585 3.175
    vertex 10.45493596973271 33.99506403026729 3.175
    vertex 11.112499999999999 34.499630657015594 3.175
  endloop
endfacet
facet normal 0.0 0.0 1.0
  outer loop
    vertex 11.056499063598995 37.883628996935585 3.175
    vertex 11.112499999999999 34.499630657015594 3.175
    vertex 12.7 38.099999999999994 3.175
  endloop
endfacet
facet normal 0.0 0.0 1.0
  outer loop
    vertex 12.7 38.099999999999994 3.175
    vertex 11.112499999999999 34.499630657015594 3.175
    vertex 11.878249531799495 34.816814498467785 3.175
  endloop
endfacet
facet normal 0.0 0.0 1.0
  outer loop
    vertex 12.7 38.099999999999994 3.175
    vertex 11.878249531799495 34.816814498467785 3.175
    vertex 12.7 34.925 3.175
  endloop
endfacet
facet normal 0.0 0.0 1.0
  outer loop
    vertex 12.7 38.099999999999994 3.175
    vertex 12.7 34.925 3.175
    vertex 13.521750468200503 34.816814498467785 3.175
  endloop
endfacet
facet normal 0.0 0.0 1.0
  outer loop
    vertex 12.7 38.099999999999994 3.175
    vertex 13.521750468200503 34.816814498467785 3.175
    vertex 14.343500936401009 37.88362899693558 3.175
  endloop
endfacet
facet normal 0.0 0.0 1.0
  outer loop
    vertex 14.343500936401009 37.88362899693558 3.175
    vertex 13.521750468200503 34.816814498467785 3.175
    vertex 14.2875 34.499630657015594 3.175
  endloop
endfacet
facet normal 0.0 0.0 1.0
  outer loop
    vertex 14.343500936401009 37.88362899693558 3.175
    vertex 14.2875 34.499630657015594 3.175
    vertex 14.94506403026729 33.99506403026729 3.175
  endloop
endfacet
facet normal 0.0 0.0 1.0
  outer loop
    vertex 14.343500936401009 37.88362899693558 3.175
    vertex 14.94506403026729 33.99506403026729 3.175
    vertex 15.875000000000002 37.24926131403118 3.175
  endloop
endfacet
facet normal 0.0 0.0 1.0
  outer loop
    vertex 15.875000000000002 37.24926131403118 3.175
    vertex 14.94506403026729 33.99506403026729 3.175
    vertex 15.449630657015591 33.3375 3.175
  endloop
endfacet
facet normal 0.0 0.0 1.0
  outer loop
    vertex 15.875000000000002 37.24926131403118 3.175
    vertex 15.449630657015591 33.3375 3.175
    vertex 15.76681449846779 32.571750468200506 3.175
  endloop
endfacet
facet normal 0.0 0.0 1.0
  outer loop
    vertex 15.875000000000002 37.24926131403118 3.175
    vertex 15.76681449846779 32.571750468200506 3.175
    vertex 15.875 31.75 3.175
  endloop
endfacet
facet normal 1.0 0.0 0.0
  outer loop
    vertex 19.049999999999997 31.75 1.762479051592436e-16
    vertex 19.049999999999997 25.4 3.175
    vertex 19.049999999999997 25.4 1.762479051592436e-16
  endloop
endfacet
facet normal 1.0 0.0 0.0
  outer loop
    vertex 19.049999999999997 25.4 3.175
    vertex 19.049999999999997 31.75 1.762479051592436e-16
    vertex 19.049999999999997 31.75 3.175
  endloop
endfacet
facet normal 0.9238795325112872 0.38268343236508895 0.0
  outer loop
    vertex 18.199261314031187 34.925 1.762479051592436e-16
    vertex 18.83362899693558 33.393500936401004 3.175
    vertex 18.83362899693558 33.393500936401004 1.762479051592436e-16
  endloop
endfacet
facet normal 0.9238795325112872 0.38268343236508895 0.0
  outer loop
    vertex 18.83362899693558 33.393500936401004 3.175
    vertex 18.199261314031187 34.925 1.762479051592436e-16
    vertex 18.199261314031187 34.925 3.175
  endloop
endfacet
facet normal 0.9914448613738105 0.13052619222005193 0.0
  outer loop
    vertex 18.83362899693558 33.393500936401004 1.762479051592436e-16
    vertex 19.049999999999997 31.75 3.175
    vertex 19.049999999999997 31.75 1.762479051592436e-16
  endloop
endfacet
facet normal 0.9914448613738105 0.13052619222005193 0.0
  outer loop
    vertex 19.049999999999997 31.75 3.175
    vertex 18.83362899693558 33.393500936401004 1.762479051592436e-16
    vertex 18.83362899693558 33.393500936401004 3.175
  endloop
endfacet
facet normal 0.38268343236508895 0.9238795325112872 0.0
  outer loop
    vertex 14.343500936401009 37.88362899693558 3.175
    vertex 15.875000000000002 37.24926131403118 1.762479051592436e-16
    vertex 14.343500936401009 37.88362899693558 1.762479051592436e-16
  endloop
endfacet
facet normal 0.38268343236508895 0.9238795325112872 0.0
  outer loop
    vertex 15.875000000000002 37.24926131403118 1.762479051592436e-16
    vertex 14.343500936401009 37.88362899693558 3.175
    vertex 15.875000000000002 37.24926131403118 3.175
  endloop
endfacet
facet normal -0.7933533402912354 0.6087614290087205 0.0
  outer loop
    vertex 8.209871939465426 36.24012806053458 3.175
    vertex 7.200738685968816 34.925 1.762479051592436e-16
    vertex 7.200738685968816 34.925 3.175
  endloop
endfacet
facet normal -0.7933533402912354 0.6087614290087205 0.0
  outer loop
    vertex 7.200738685968816 34.925 1.762479051592436e-16
    vertex 8.209871939465426 36.24012806053458 3.175
    vertex 8.209871939465426 36.24012806053458 1.762479051592436e-16
  endloop
endfacet
facet normal 0.7933533402912354 0.6087614290087205 0.0
  outer loop
    vertex 17.190128060534576 36.24012806053458 1.762479051592436e-16
    vertex 18.199261314031187 34.925 3.175
    vertex 18.199261314031187 34.925 1.762479051592436e-16
  endloop
endfacet
facet normal 0.7933533402912354 0.6087614290087205 0.0
  outer loop
    vertex 18.199261314031187 34.925 3.175
    vertex 17.190128060534576 36.24012806053458 1.762479051592436e-16
    vertex 17.190128060534576 36.24012806053458 3.175
  endloop
endfacet
facet normal -0.9238795325112862 0.3826834323650916 0.0
  outer loop
    vertex 7.200738685968816 34.925 3.175
    vertex 6.5663710030644165 33.39350093640101 1.762479051592436e-16
    vertex 6.5663710030644165 33.39350093640101 3.175
  endloop
endfacet
facet normal -0.9238795325112862 0.3826834323650916 0.0
  outer loop
    vertex 6.5663710030644165 33.39350093640101 1.762479051592436e-16
    vertex 7.200738685968816 34.925 3.175
    vertex 7.200738685968816 34.925 1.762479051592436e-16
  endloop
endfacet
facet normal -0.38268343236508856 0.9238795325112872 0.0
  outer loop
    vertex 9.525 37.24926131403119 3.175
    vertex 11.056499063598995 37.883628996935585 1.762479051592436e-16
    vertex 9.525 37.24926131403119 1.762479051592436e-16
  endloop
endfacet
facet normal -0.38268343236508856 0.9238795325112872 0.0
  outer loop
    vertex 11.056499063598995 37.883628996935585 1.762479051592436e-16
    vertex 9.525 37.24926131403119 3.175
    vertex 11.056499063598995 37.883628996935585 3.175
  endloop
endfacet
facet normal -0.9914448613738105 0.1305261922200515 0.0
  outer loop
    vertex 6.5663710030644165 33.39350093640101 3.175
    vertex 6.35 31.75 1.762479051592436e-16
    vertex 6.35 31.75 3.175
  endloop
endfacet
facet normal -0.9914448613738105 0.1305261922200515 0.0
  outer loop
    vertex 6.35 31.75 1.762479051592436e-16
    vertex 6.5663710030644165 33.39350093640101 3.175
    vertex 6.5663710030644165 33.39350093640101 1.762479051592436e-16
  endloop
endfacet
facet normal 0.6087614290087201 0.7933533402912357 0.0
  outer loop
    vertex 15.875000000000002 37.24926131403118 3.175
    vertex 17.190128060534576 36.24012806053458 1.762479051592436e-16
    vertex 15.875000000000002 37.24926131403118 1.762479051592436e-16
  endloop
endfacet
facet normal 0.6087614290087201 0.7933533402912357 0.0
  outer loop
    vertex 17.190128060534576 36.24012806053458 1.762479051592436e-16
    vertex 15.875000000000002 37.24926131403118 3.175
    vertex 17.190128060534576 36.24012806053458 3.175
  endloop
endfacet
facet normal -0.6087614290087218 0.7933533402912344 0.0
  outer loop
    vertex 8.209871939465426 36.24012806053458 3.175
    vertex 9.525 37.24926131403119 1.762479051592436e-16
    vertex 8.209871939465426 36.24012806053458 1.762479051592436e-16
  endloop
endfacet
facet normal -0.6087614290087218 0.7933533402912344 0.0
  outer loop
    vertex 9.525 37.24926131403119 1.762479051592436e-16
    vertex 8.209871939465426 36.24012806053458 3.175
    vertex 9.525 37.24926131403119 3.175
  endloop
endfacet
facet normal -0.13052619222005046 0.9914448613738105 0.0
  outer loop
    vertex 11.056499063598995 37.883628996935585 3.175
    vertex 12.7 38.099999999999994 1.762479051592436e-16
    vertex 11.056499063598995 37.883628996935585 1.762479051592436e-16
  endloop
endfacet
facet normal -0.13052619222005046 0.9914448613738105 0.0
  outer loop
    vertex 12.7 38.099999999999994 1.762479051592436e-16
    vertex 11.056499063598995 37.883628996935585 3.175
    vertex 12.7 38.099999999999994 3.175
  endloop
endfacet
facet normal 0.6087614290087197 0.7933533402912358 0.0
  outer loop
    vertex 10.45493596973271 29.50493596973271 3.175
    vertex 11.112500000000002 29.000369342984403 1.762479051592436e-16
    vertex 10.45493596973271 29.50493596973271 1.762479051592436e-16
  endloop
endfacet
facet normal 0.6087614290087197 0.7933533402912358 0.0
  outer loop
    vertex 11.112500000000002 29.000369342984403 1.762479051592436e-16
    vertex 10.45493596973271 29.50493596973271 3.175
    vertex 11.112500000000002 29.000369342984403 3.175
  endloop
endfacet
facet normal 0.793353340291236 0.6087614290087194 0.0
  outer loop
    vertex 9.950369342984407 30.162499999999998 1.762479051592436e-16
    vertex 10.45493596973271 29.50493596973271 3.175
    vertex 10.45493596973271 29.50493596973271 1.762479051592436e-16
  endloop
endfacet
facet normal 0.793353340291236 0.6087614290087194 0.0
  outer loop
    vertex 10.45493596973271 29.50493596973271 3.175
    vertex 9.950369342984407 30.162499999999998 1.762479051592436e-16
    vertex 9.950369342984407 30.162499999999998 3.175
  endloop
endfacet
facet normal 0.9238795325112862 0.3826834323650916 0.0
  outer loop
    vertex 9.633185501532209 30.92824953179949 1.762479051592436e-16
    vertex 9.950369342984407 30.162499999999998 3.175
    vertex 9.950369342984407 30.162499999999998 1.762479051592436e-16
  endloop
endfacet
facet normal 0.9238795325112862 0.3826834323650916 0.0
  outer loop
    vertex 9.950369342984407 30.162499999999998 3.175
    vertex 9.633185501532209 30.92824953179949 1.762479051592436e-16
    vertex 9.633185501532209 30.92824953179949 3.175
  endloop
endfacet
facet normal 0.13052619222005338 0.9914448613738103 0.0
  outer loop
    vertex 12.7 38.099999999999994 3.175
    vertex 14.343500936401009 37.88362899693558 1.762479051592436e-16
    vertex 12.7 38.099999999999994 1.762479051592436e-16
  endloop
endfacet
facet normal 0.13052619222005338 0.9914448613738103 0.0
  outer loop
    vertex 14.343500936401009 37.88362899693558 1.762479051592436e-16
    vertex 12.7 38.099999999999994 3.175
    vertex 14.343500936401009 37.88362899693558 3.175
  endloop
endfacet
facet normal 0.9914448613738105 0.1305261922200515 0.0
  outer loop
    vertex 9.524999999999999 31.75 1.762479051592436e-16
    vertex 9.633185501532209 30.92824953179949 3.175
    vertex 9.633185501532209 30.92824953179949 1.762479051592436e-16
  endloop
endfacet
facet normal 0.9914448613738105 0.1305261922200515 0.0
  outer loop
    vertex 9.633185501532209 30.92824953179949 3.175
    vertex 9.524999999999999 31.75 1.762479051592436e-16
    vertex 9.524999999999999 31.75 3.175
  endloop
endfacet
facet normal 0.3826834323650866 0.9238795325112881 0.0
  outer loop
    vertex 11.112500000000002 29.000369342984403 3.175
    vertex 11.878249531799497 28.683185501532208 1.762479051592436e-16
    vertex 11.112500000000002 29.000369342984403 1.762479051592436e-16
  endloop
endfacet
facet normal 0.3826834323650866 0.9238795325112881 0.0
  outer loop
    vertex 11.878249531799497 28.683185501532208 1.762479051592436e-16
    vertex 11.112500000000002 29.000369342984403 3.175
    vertex 11.878249531799497 28.683185501532208 3.175
  endloop
endfacet
facet normal 0.13052619222005382 0.9914448613738103 0.0
  outer loop
    vertex 11.878249531799497 28.683185501532208 3.175
    vertex 12.7 28.575 1.762479051592436e-16
    vertex 11.878249531799497 28.683185501532208 1.762479051592436e-16
  endloop
endfacet
facet normal 0.13052619222005382 0.9914448613738103 0.0
  outer loop
    vertex 12.7 28.575 1.762479051592436e-16
    vertex 11.878249531799497 28.683185501532208 3.175
    vertex 12.7 28.575 3.175
  endloop
endfacet
facet normal 0.9914448613738104 -0.13052619222005238 0.0
  outer loop
    vertex 9.633185501532209 32.5717504682005 1.762479051592436e-16
    vertex 9.524999999999999 31.75 3.175
    vertex 9.524999999999999 31.75 1.762479051592436e-16
  endloop
endfacet
facet normal 0.9914448613738104 -0.13052619222005238 0.0
  outer loop
    vertex 9.524999999999999 31.75 3.175
    vertex 9.633185501532209 32.5717504682005 1.762479051592436e-16
    vertex 9.633185501532209 32.5717504682005 3.175
  endloop
endfacet
facet normal 0.9238795325112876 -0.3826834323650877 0.0
  outer loop
    vertex 9.950369342984406 33.3375 1.762479051592436e-16
    vertex 9.633185501532209 32.5717504682005 3.175
    vertex 9.633185501532209 32.5717504682005 1.762479051592436e-16
  endloop
endfacet
facet normal 0.9238795325112876 -0.3826834323650877 0.0
  outer loop
    vertex 9.633185501532209 32.5717504682005 3.175
    vertex 9.950369342984406 33.3375 1.762479051592436e-16
    vertex 9.950369342984406 33.3375 3.175
  endloop
endfacet
facet normal 0.7933533402912354 -0.6087614290087205 0.0
  outer loop
    vertex 10.45493596973271 33.99506403026729 1.762479051592436e-16
    vertex 9.950369342984406 33.3375 3.175
    vertex 9.950369342984406 33.3375 1.762479051592436e-16
  endloop
endfacet
facet normal 0.7933533402912354 -0.6087614290087205 0.0
  outer loop
    vertex 9.950369342984406 33.3375 3.175
    vertex 10.45493596973271 33.99506403026729 1.762479051592436e-16
    vertex 10.45493596973271 33.99506403026729 3.175
  endloop
endfacet
facet normal -1.0 0.0 0.0
  outer loop
    vertex 6.35 31.75 3.175
    vertex 6.35 25.4 1.762479051592436e-16
    vertex 6.35 25.4 3.175
  endloop
endfacet
facet normal -1.0 0.0 0.0
  outer loop
    vertex 6.35 25.4 1.762479051592436e-16
    vertex 6.35 31.75 3.175
    vertex 6.35 31.75 1.762479051592436e-16
  endloop
endfacet
endsolid Untitled-60f1c23a
