solid Untitled-5fb1cb85
facet normal -0.608761429008721 -0.7933533402912349 -0.0
  outer loop
    vertex -1.3970000000000011 -2.419674978173721 16.509999999999998
    vertex -1.9756563466352148 -1.9756563466352126 0.0
    vertex -1.3970000000000011 -2.419674978173721 0.0
  endloop
endfacet
facet normal -0.608761429008721 -0.7933533402912349 -0.0
  outer loop
    vertex -1.9756563466352148 -1.9756563466352126 0.0
    vertex -1.3970000000000011 -2.419674978173721 16.509999999999998
    vertex -1.9756563466352148 -1.9756563466352126 16.509999999999998
  endloop
endfacet
facet normal -0.923879532511287 0.3826834323650897 0.0
  outer loop
    vertex -2.4196749781737212 1.397000000000001 16.509999999999998
    vertex -2.6987967586516564 0.7231404120164437 0.0
    vertex -2.6987967586516564 0.7231404120164437 16.509999999999998
  endloop
endfacet
facet normal -0.923879532511287 0.3826834323650897 0.0
  outer loop
    vertex -2.6987967586516564 0.7231404120164437 0.0
    vertex -2.4196749781737212 1.397000000000001 16.509999999999998
    vertex -2.4196749781737212 1.397000000000001 0.0
  endloop
endfacet
facet normal -0.9914448613738105 -0.1305261922200513 -0.0
  outer loop
    vertex -2.794 3.4216631568177044e-16 16.509999999999998
    vertex -2.698796758651657 -0.7231404120164419 0.0
    vertex -2.698796758651657 -0.7231404120164419 16.509999999999998
  endloop
endfacet
facet normal -0.9914448613738105 -0.1305261922200513 -0.0
  outer loop
    vertex -2.698796758651657 -0.7231404120164419 0.0
    vertex -2.794 3.4216631568177044e-16 16.509999999999998
    vertex -2.794 3.4216631568177044e-16 0.0
  endloop
endfacet
facet normal -0.38268343236509067 -0.9238795325112866 -0.0
  outer loop
    vertex -0.7231404120164451 -2.6987967586516564 16.509999999999998
    vertex -1.3970000000000011 -2.419674978173721 0.0
    vertex -0.7231404120164451 -2.6987967586516564 0.0
  endloop
endfacet
facet normal -0.38268343236509067 -0.9238795325112866 -0.0
  outer loop
    vertex -1.3970000000000011 -2.419674978173721 0.0
    vertex -0.7231404120164451 -2.6987967586516564 16.509999999999998
    vertex -1.3970000000000011 -2.419674978173721 16.509999999999998
  endloop
endfacet
facet normal -0.7933533402912355 -0.6087614290087202 -0.0
  outer loop
    vertex -2.4196749781737217 -1.3969999999999991 16.509999999999998
    vertex -1.9756563466352148 -1.9756563466352126 0.0
    vertex -1.9756563466352148 -1.9756563466352126 16.509999999999998
  endloop
endfacet
facet normal -0.7933533402912355 -0.6087614290087202 -0.0
  outer loop
    vertex -1.9756563466352148 -1.9756563466352126 0.0
    vertex -2.4196749781737217 -1.3969999999999991 16.509999999999998
    vertex -2.4196749781737217 -1.3969999999999991 0.0
  endloop
endfacet
facet normal -0.9238795325112868 -0.38268343236508956 -0.0
  outer loop
    vertex -2.698796758651657 -0.7231404120164419 16.509999999999998
    vertex -2.4196749781737217 -1.3969999999999991 0.0
    vertex -2.4196749781737217 -1.3969999999999991 16.509999999999998
  endloop
endfacet
facet normal -0.9238795325112868 -0.38268343236508956 -0.0
  outer loop
    vertex -2.4196749781737217 -1.3969999999999991 0.0
    vertex -2.698796758651657 -0.7231404120164419 16.509999999999998
    vertex -2.698796758651657 -0.7231404120164419 0.0
  endloop
endfacet
facet normal -0.9914448613738104 0.13052619222005205 0.0
  outer loop
    vertex -2.6987967586516564 0.7231404120164437 16.509999999999998
    vertex -2.794 3.4216631568177044e-16 0.0
    vertex -2.794 3.4216631568177044e-16 16.509999999999998
  endloop
endfacet
facet normal -0.9914448613738104 0.13052619222005205 0.0
  outer loop
    vertex -2.794 3.4216631568177044e-16 0.0
    vertex -2.6987967586516564 0.7231404120164437 16.509999999999998
    vertex -2.6987967586516564 0.7231404120164437 0.0
  endloop
endfacet
facet normal 0.0 0.0 1.0
  outer loop
    vertex -2.698796758651657 -0.7231404120164419 16.509999999999998
    vertex -2.6987967586516564 0.7231404120164437 16.509999999999998
    vertex -2.794 3.4216631568177044e-16 16.509999999999998
  endloop
endfacet
facet normal 0.0 0.0 1.0
  outer loop
    vertex -2.6987967586516564 0.7231404120164437 16.509999999999998
    vertex -2.698796758651657 -0.7231404120164419 16.509999999999998
    vertex -2.4196749781737217 -1.3969999999999991 16.509999999999998
  endloop
endfacet
facet normal 0.0 0.0 1.0
  outer loop
    vertex -2.6987967586516564 0.7231404120164437 16.509999999999998
    vertex -2.4196749781737217 -1.3969999999999991 16.509999999999998
    vertex -2.4196749781737212 1.397000000000001 16.509999999999998
  endloop
endfacet
facet normal 0.0 0.0 1.0
  outer loop
    vertex -2.4196749781737212 1.397000000000001 16.509999999999998
    vertex -2.4196749781737217 -1.3969999999999991 16.509999999999998
    vertex -1.9756563466352148 -1.9756563466352126 16.509999999999998
  endloop
endfacet
facet normal 0.0 0.0 1.0
  outer loop
    vertex -2.4196749781737212 1.397000000000001 16.509999999999998
    vertex -1.9756563466352148 -1.9756563466352126 16.509999999999998
    vertex -1.9756563466352133 1.9756563466352137 16.509999999999998
  endloop
endfacet
facet normal 0.0 0.0 1.0
  outer loop
    vertex -1.9756563466352133 1.9756563466352137 16.509999999999998
    vertex -1.9756563466352148 -1.9756563466352126 16.509999999999998
    vertex -1.3970000000000011 -2.419674978173721 16.509999999999998
  endloop
endfacet
facet normal 0.0 0.0 1.0
  outer loop
    vertex -1.9756563466352133 1.9756563466352137 16.509999999999998
    vertex -1.3970000000000011 -2.419674978173721 16.509999999999998
    vertex -1.5875 1.944126793646423e-16 16.509999999999998
  endloop
endfacet
facet normal 0.0 0.0 1.0
  outer loop
    vertex -1.5875 1.944126793646423e-16 16.509999999999998
    vertex -1.3970000000000011 -2.419674978173721 16.509999999999998
    vertex -1.533407249233896 -0.410875234100251 16.509999999999998
  endloop
endfacet
facet normal 0.0 0.0 1.0
  outer loop
    vertex -1.533407249233896 -0.410875234100251 16.509999999999998
    vertex -1.3970000000000011 -2.419674978173721 16.509999999999998
    vertex -1.3748153285077966 -0.7937499999999995 16.509999999999998
  endloop
endfacet
facet normal 0.0 0.0 1.0
  outer loop
    vertex -1.3748153285077966 -0.7937499999999995 16.509999999999998
    vertex -1.3970000000000011 -2.419674978173721 16.509999999999998
    vertex -0.7231404120164451 -2.6987967586516564 16.509999999999998
  endloop
endfacet
facet normal 0.0 0.0 1.0
  outer loop
    vertex -1.3748153285077966 -0.7937499999999995 16.509999999999998
    vertex -0.7231404120164451 -2.6987967586516564 16.509999999999998
    vertex -1.1225320151336446 -1.1225320151336435 16.509999999999998
  endloop
endfacet
facet normal 0.0 0.0 1.0
  outer loop
    vertex -1.1225320151336446 -1.1225320151336435 16.509999999999998
    vertex -0.7231404120164451 -2.6987967586516564 16.509999999999998
    vertex -0.7937500000000006 -1.3748153285077958 16.509999999999998
  endloop
endfacet
facet normal 0.0 0.0 1.0
  outer loop
    vertex -0.7937500000000006 -1.3748153285077958 16.509999999999998
    vertex -0.7231404120164451 -2.6987967586516564 16.509999999999998
    vertex -0.4108752341002529 -1.5334072492338955 16.509999999999998
  endloop
endfacet
facet normal 0.0 0.0 1.0
  outer loop
    vertex -0.4108752341002529 -1.5334072492338955 16.509999999999998
    vertex -0.7231404120164451 -2.6987967586516564 16.509999999999998
    vertex -5.132494735226556e-16 -2.794 16.509999999999998
  endloop
endfacet
facet normal 0.0 0.0 1.0
  outer loop
    vertex -0.4108752341002529 -1.5334072492338955 16.509999999999998
    vertex -5.132494735226556e-16 -2.794 16.509999999999998
    vertex -2.9161901904696346e-16 -1.5875 16.509999999999998
  endloop
endfacet
facet normal 0.0 0.0 1.0
  outer loop
    vertex -2.9161901904696346e-16 -1.5875 16.509999999999998
    vertex -5.132494735226556e-16 -2.794 16.509999999999998
    vertex 0.7231404120164416 -2.698796758651657 16.509999999999998
  endloop
endfacet
facet normal 0.0 0.0 1.0
  outer loop
    vertex -2.9161901904696346e-16 -1.5875 16.509999999999998
    vertex 0.7231404120164416 -2.698796758651657 16.509999999999998
    vertex 0.41087523410025095 -1.533407249233896 16.509999999999998
  endloop
endfacet
facet normal 0.0 0.0 1.0
  outer loop
    vertex 0.41087523410025095 -1.533407249233896 16.509999999999998
    vertex 0.7231404120164416 -2.698796758651657 16.509999999999998
    vertex 0.7937499999999988 -1.3748153285077969 16.509999999999998
  endloop
endfacet
facet normal 0.0 0.0 1.0
  outer loop
    vertex 0.7937499999999988 -1.3748153285077969 16.509999999999998
    vertex 0.7231404120164416 -2.698796758651657 16.509999999999998
    vertex 1.396999999999998 -2.4196749781737226 16.509999999999998
  endloop
endfacet
facet normal 0.0 0.0 1.0
  outer loop
    vertex 0.7937499999999988 -1.3748153285077969 16.509999999999998
    vertex 1.396999999999998 -2.4196749781737226 16.509999999999998
    vertex 1.1225320151336438 -1.1225320151336444 16.509999999999998
  endloop
endfacet
facet normal 0.0 0.0 1.0
  outer loop
    vertex 1.1225320151336438 -1.1225320151336444 16.509999999999998
    vertex 1.396999999999998 -2.4196749781737226 16.509999999999998
    vertex 1.3748153285077958 -0.7937500000000006 16.509999999999998
  endloop
endfacet
facet normal 0.0 0.0 1.0
  outer loop
    vertex 1.3748153285077958 -0.7937500000000006 16.509999999999998
    vertex 1.396999999999998 -2.4196749781737226 16.509999999999998
    vertex 1.5334072492338955 -0.41087523410025295 16.509999999999998
  endloop
endfacet
facet normal 0.0 0.0 1.0
  outer loop
    vertex 1.5334072492338955 -0.41087523410025295 16.509999999999998
    vertex 1.396999999999998 -2.4196749781737226 16.509999999999998
    vertex 1.9756563466352133 -1.9756563466352142 16.509999999999998
  endloop
endfacet
facet normal 0.0 0.0 1.0
  outer loop
    vertex 1.5334072492338955 -0.41087523410025295 16.509999999999998
    vertex 1.9756563466352133 -1.9756563466352142 16.509999999999998
    vertex 1.5875 0.0 16.509999999999998
  endloop
endfacet
facet normal 0.0 0.0 1.0
  outer loop
    vertex -1.5875 1.944126793646423e-16 16.509999999999998
    vertex -1.3969999999999991 2.4196749781737217 16.509999999999998
    vertex -1.9756563466352133 1.9756563466352137 16.509999999999998
  endloop
endfacet
facet normal 0.0 0.0 1.0
  outer loop
    vertex -1.3969999999999991 2.4196749781737217 16.509999999999998
    vertex -1.5875 1.944126793646423e-16 16.509999999999998
    vertex -1.5334072492338957 0.4108752341002521 16.509999999999998
  endloop
endfacet
facet normal 0.0 0.0 1.0
  outer loop
    vertex -1.3969999999999991 2.4196749781737217 16.509999999999998
    vertex -1.5334072492338957 0.4108752341002521 16.509999999999998
    vertex -1.374815328507796 0.7937500000000005 16.509999999999998
  endloop
endfacet
facet normal 0.0 0.0 1.0
  outer loop
    vertex -1.3969999999999991 2.4196749781737217 16.509999999999998
    vertex -1.374815328507796 0.7937500000000005 16.509999999999998
    vertex -0.7231404120164426 2.698796758651657 16.509999999999998
  endloop
endfacet
facet normal 0.0 0.0 1.0
  outer loop
    vertex -0.7231404120164426 2.698796758651657 16.509999999999998
    vertex -1.374815328507796 0.7937500000000005 16.509999999999998
    vertex -1.122532015133644 1.1225320151336442 16.509999999999998
  endloop
endfacet
facet normal 0.0 0.0 1.0
  outer loop
    vertex -0.7231404120164426 2.698796758651657 16.509999999999998
    vertex -1.122532015133644 1.1225320151336442 16.509999999999998
    vertex -0.7937499999999996 1.3748153285077964 16.509999999999998
  endloop
endfacet
facet normal 0.0 0.0 1.0
  outer loop
    vertex -0.7231404120164426 2.698796758651657 16.509999999999998
    vertex -0.7937499999999996 1.3748153285077964 16.509999999999998
    vertex -0.41087523410025145 1.533407249233896 16.509999999999998
  endloop
endfacet
facet normal 0.0 0.0 1.0
  outer loop
    vertex -0.7231404120164426 2.698796758651657 16.509999999999998
    vertex -0.41087523410025145 1.533407249233896 16.509999999999998
    vertex 1.7108315784088522e-16 2.794 16.509999999999998
  endloop
endfacet
facet normal 0.0 0.0 1.0
  outer loop
    vertex 1.7108315784088522e-16 2.794 16.509999999999998
    vertex -0.41087523410025145 1.533407249233896 16.509999999999998
    vertex 9.720633968232115e-17 1.5875 16.509999999999998
  endloop
endfacet
facet normal 0.0 0.0 1.0
  outer loop
    vertex 1.7108315784088522e-16 2.794 16.509999999999998
    vertex 9.720633968232115e-17 1.5875 16.509999999999998
    vertex 0.410875234100252 1.5334072492338957 16.509999999999998
  endloop
endfacet
facet normal 0.0 0.0 1.0
  outer loop
    vertex 1.7108315784088522e-16 2.794 16.509999999999998
    vertex 0.410875234100252 1.5334072492338957 16.509999999999998
    vertex 0.7231404120164435 2.6987967586516564 16.509999999999998
  endloop
endfacet
facet normal 0.0 0.0 1.0
  outer loop
    vertex 0.7231404120164435 2.6987967586516564 16.509999999999998
    vertex 0.410875234100252 1.5334072492338957 16.509999999999998
    vertex 0.7937500000000002 1.3748153285077962 16.509999999999998
  endloop
endfacet
facet normal 0.0 0.0 1.0
  outer loop
    vertex 0.7231404120164435 2.6987967586516564 16.509999999999998
    vertex 0.7937500000000002 1.3748153285077962 16.509999999999998
    vertex 1.3970000000000002 2.4196749781737217 16.509999999999998
  endloop
endfacet
facet normal 0.0 0.0 1.0
  outer loop
    vertex 1.3970000000000002 2.4196749781737217 16.509999999999998
    vertex 0.7937500000000002 1.3748153285077962 16.509999999999998
    vertex 1.1225320151336442 1.1225320151336442 16.509999999999998
  endloop
endfacet
facet normal 0.0 0.0 1.0
  outer loop
    vertex 1.3970000000000002 2.4196749781737217 16.509999999999998
    vertex 1.1225320151336442 1.1225320151336442 16.509999999999998
    vertex 1.3748153285077964 0.7937499999999998 16.509999999999998
  endloop
endfacet
facet normal 0.0 0.0 1.0
  outer loop
    vertex 1.3970000000000002 2.4196749781737217 16.509999999999998
    vertex 1.3748153285077964 0.7937499999999998 16.509999999999998
    vertex 1.533407249233896 0.4108752341002517 16.509999999999998
  endloop
endfacet
facet normal 0.0 0.0 1.0
  outer loop
    vertex 1.3970000000000002 2.4196749781737217 16.509999999999998
    vertex 1.533407249233896 0.4108752341002517 16.509999999999998
    vertex 1.9756563466352137 1.9756563466352137 16.509999999999998
  endloop
endfacet
facet normal 0.0 0.0 1.0
  outer loop
    vertex 1.9756563466352137 1.9756563466352137 16.509999999999998
    vertex 1.533407249233896 0.4108752341002517 16.509999999999998
    vertex 1.5875 0.0 16.509999999999998
  endloop
endfacet
facet normal 0.0 0.0 1.0
  outer loop
    vertex 1.9756563466352137 1.9756563466352137 16.509999999999998
    vertex 1.5875 0.0 16.509999999999998
    vertex 1.9756563466352133 -1.9756563466352142 16.509999999999998
  endloop
endfacet
facet normal 0.0 0.0 1.0
  outer loop
    vertex 1.9756563466352137 1.9756563466352137 16.509999999999998
    vertex 1.9756563466352133 -1.9756563466352142 16.509999999999998
    vertex 2.419674978173721 -1.3970000000000011 16.509999999999998
  endloop
endfacet
facet normal 0.0 0.0 1.0
  outer loop
    vertex 1.9756563466352137 1.9756563466352137 16.509999999999998
    vertex 2.419674978173721 -1.3970000000000011 16.509999999999998
    vertex 2.4196749781737217 1.3969999999999998 16.509999999999998
  endloop
endfacet
facet normal 0.0 0.0 1.0
  outer loop
    vertex 2.4196749781737217 1.3969999999999998 16.509999999999998
    vertex 2.419674978173721 -1.3970000000000011 16.509999999999998
    vertex 2.6987967586516564 -0.7231404120164452 16.509999999999998
  endloop
endfacet
facet normal 0.0 0.0 1.0
  outer loop
    vertex 2.4196749781737217 1.3969999999999998 16.509999999999998
    vertex 2.6987967586516564 -0.7231404120164452 16.509999999999998
    vertex 2.698796758651657 0.7231404120164429 16.509999999999998
  endloop
endfacet
facet normal 0.0 0.0 1.0
  outer loop
    vertex 2.698796758651657 0.7231404120164429 16.509999999999998
    vertex 2.6987967586516564 -0.7231404120164452 16.509999999999998
    vertex 2.794 0.0 16.509999999999998
  endloop
endfacet
facet normal 0.9914448613738104 0.13052619222005166 0.0
  outer loop
    vertex 2.698796758651657 0.7231404120164429 0.0
    vertex 2.794 0.0 16.509999999999998
    vertex 2.794 0.0 0.0
  endloop
endfacet
facet normal 0.9914448613738104 0.13052619222005166 0.0
  outer loop
    vertex 2.794 0.0 16.509999999999998
    vertex 2.698796758651657 0.7231404120164429 0.0
    vertex 2.698796758651657 0.7231404120164429 16.509999999999998
  endloop
endfacet
facet normal 0.3826834323650895 0.923879532511287 0.0
  outer loop
    vertex 0.7231404120164435 2.6987967586516564 16.509999999999998
    vertex 1.3970000000000002 2.4196749781737217 0.0
    vertex 0.7231404120164435 2.6987967586516564 0.0
  endloop
endfacet
facet normal 0.3826834323650895 0.923879532511287 0.0
  outer loop
    vertex 1.3970000000000002 2.4196749781737217 0.0
    vertex 0.7231404120164435 2.6987967586516564 16.509999999999998
    vertex 1.3970000000000002 2.4196749781737217 16.509999999999998
  endloop
endfacet
facet normal -0.6087614290087202 0.7933533402912355 0.0
  outer loop
    vertex 0.7937499999999988 -1.3748153285077969 16.509999999999998
    vertex 1.1225320151336438 -1.1225320151336444 0.0
    vertex 0.7937499999999988 -1.3748153285077969 0.0
  endloop
endfacet
facet normal -0.6087614290087202 0.7933533402912355 0.0
  outer loop
    vertex 1.1225320151336438 -1.1225320151336444 0.0
    vertex 0.7937499999999988 -1.3748153285077969 16.509999999999998
    vertex 1.1225320151336438 -1.1225320151336444 16.509999999999998
  endloop
endfacet
facet normal 0.7933533402912353 0.6087614290087204 0.0
  outer loop
    vertex 1.9756563466352137 1.9756563466352137 0.0
    vertex 2.4196749781737217 1.3969999999999998 16.509999999999998
    vertex 2.4196749781737217 1.3969999999999998 0.0
  endloop
endfacet
facet normal 0.7933533402912353 0.6087614290087204 0.0
  outer loop
    vertex 2.4196749781737217 1.3969999999999998 16.509999999999998
    vertex 1.9756563466352137 1.9756563466352137 0.0
    vertex 1.9756563466352137 1.9756563466352137 16.509999999999998
  endloop
endfacet
facet normal -0.6087614290087205 -0.7933533402912353 -0.0
  outer loop
    vertex 1.1225320151336442 1.1225320151336442 16.509999999999998
    vertex 0.7937500000000002 1.3748153285077962 0.0
    vertex 1.1225320151336442 1.1225320151336442 0.0
  endloop
endfacet
facet normal -0.6087614290087205 -0.7933533402912353 -0.0
  outer loop
    vertex 0.7937500000000002 1.3748153285077962 0.0
    vertex 1.1225320151336442 1.1225320151336442 16.509999999999998
    vertex 0.7937500000000002 1.3748153285077962 16.509999999999998
  endloop
endfacet
facet normal 0.3826834323650898 -0.9238795325112867 0.0
  outer loop
    vertex -0.41087523410025145 1.533407249233896 16.509999999999998
    vertex -0.7937499999999996 1.3748153285077964 0.0
    vertex -0.41087523410025145 1.533407249233896 0.0
  endloop
endfacet
facet normal 0.3826834323650898 -0.9238795325112867 0.0
  outer loop
    vertex -0.7937499999999996 1.3748153285077964 0.0
    vertex -0.41087523410025145 1.533407249233896 16.509999999999998
    vertex -0.7937499999999996 1.3748153285077964 16.509999999999998
  endloop
endfacet
facet normal -0.9238795325112866 0.3826834323650906 0.0
  outer loop
    vertex 1.5334072492338955 -0.41087523410025295 16.509999999999998
    vertex 1.3748153285077958 -0.7937500000000006 0.0
    vertex 1.3748153285077958 -0.7937500000000006 16.509999999999998
  endloop
endfacet
facet normal -0.9238795325112866 0.3826834323650906 0.0
  outer loop
    vertex 1.3748153285077958 -0.7937500000000006 0.0
    vertex 1.5334072492338955 -0.41087523410025295 16.509999999999998
    vertex 1.5334072492338955 -0.41087523410025295 0.0
  endloop
endfacet
facet normal 0.6087614290087203 -0.7933533402912354 0.0
  outer loop
    vertex -0.7937499999999996 1.3748153285077964 16.509999999999998
    vertex -1.122532015133644 1.1225320151336442 0.0
    vertex -0.7937499999999996 1.3748153285077964 0.0
  endloop
endfacet
facet normal 0.6087614290087203 -0.7933533402912354 0.0
  outer loop
    vertex -1.122532015133644 1.1225320151336442 0.0
    vertex -0.7937499999999996 1.3748153285077964 16.509999999999998
    vertex -1.122532015133644 1.1225320151336442 16.509999999999998
  endloop
endfacet
facet normal 0.6087614290087209 0.7933533402912352 0.0
  outer loop
    vertex 1.3970000000000002 2.4196749781737217 16.509999999999998
    vertex 1.9756563466352137 1.9756563466352137 0.0
    vertex 1.3970000000000002 2.4196749781737217 0.0
  endloop
endfacet
facet normal 0.6087614290087209 0.7933533402912352 0.0
  outer loop
    vertex 1.9756563466352137 1.9756563466352137 0.0
    vertex 1.3970000000000002 2.4196749781737217 16.509999999999998
    vertex 1.9756563466352137 1.9756563466352137 16.509999999999998
  endloop
endfacet
facet normal 0.9238795325112867 0.3826834323650898 0.0
  outer loop
    vertex 2.4196749781737217 1.3969999999999998 0.0
    vertex 2.698796758651657 0.7231404120164429 16.509999999999998
    vertex 2.698796758651657 0.7231404120164429 0.0
  endloop
endfacet
facet normal 0.9238795325112867 0.3826834323650898 0.0
  outer loop
    vertex 2.698796758651657 0.7231404120164429 16.509999999999998
    vertex 2.4196749781737217 1.3969999999999998 0.0
    vertex 2.4196749781737217 1.3969999999999998 16.509999999999998
  endloop
endfacet
facet normal 0.1305261922200513 -0.9914448613738105 0.0
  outer loop
    vertex 0.7231404120164416 -2.698796758651657 16.509999999999998
    vertex -5.132494735226556e-16 -2.794 0.0
    vertex 0.7231404120164416 -2.698796758651657 0.0
  endloop
endfacet
facet normal 0.1305261922200513 -0.9914448613738105 0.0
  outer loop
    vertex -5.132494735226556e-16 -2.794 0.0
    vertex 0.7231404120164416 -2.698796758651657 16.509999999999998
    vertex -5.132494735226556e-16 -2.794 16.509999999999998
  endloop
endfacet
facet normal 0.3826834323650893 -0.9238795325112871 0.0
  outer loop
    vertex 1.396999999999998 -2.4196749781737226 16.509999999999998
    vertex 0.7231404120164416 -2.698796758651657 0.0
    vertex 1.396999999999998 -2.4196749781737226 0.0
  endloop
endfacet
facet normal 0.3826834323650893 -0.9238795325112871 0.0
  outer loop
    vertex 0.7231404120164416 -2.698796758651657 0.0
    vertex 1.396999999999998 -2.4196749781737226 16.509999999999998
    vertex 0.7231404120164416 -2.698796758651657 16.509999999999998
  endloop
endfacet
facet normal -0.9914448613738105 -0.13052619222005152 -0.0
  outer loop
    vertex 1.533407249233896 0.4108752341002517 16.509999999999998
    vertex 1.5875 0.0 0.0
    vertex 1.5875 0.0 16.509999999999998
  endloop
endfacet
facet normal -0.9914448613738105 -0.13052619222005152 -0.0
  outer loop
    vertex 1.5875 0.0 0.0
    vertex 1.533407249233896 0.4108752341002517 16.509999999999998
    vertex 1.533407249233896 0.4108752341002517 0.0
  endloop
endfacet
facet normal -0.38268343236508995 0.9238795325112867 0.0
  outer loop
    vertex -1.3969999999999991 2.4196749781737217 16.509999999999998
    vertex -0.7231404120164426 2.698796758651657 0.0
    vertex -1.3969999999999991 2.4196749781737217 0.0
  endloop
endfacet
facet normal -0.38268343236508995 0.9238795325112867 0.0
  outer loop
    vertex -0.7231404120164426 2.698796758651657 0.0
    vertex -1.3969999999999991 2.4196749781737217 16.509999999999998
    vertex -0.7231404120164426 2.698796758651657 16.509999999999998
  endloop
endfacet
facet normal -0.13052619222005182 -0.9914448613738105 -0.0
  outer loop
    vertex -5.132494735226556e-16 -2.794 16.509999999999998
    vertex -0.7231404120164451 -2.6987967586516564 0.0
    vertex -5.132494735226556e-16 -2.794 0.0
  endloop
endfacet
facet normal -0.13052619222005182 -0.9914448613738105 -0.0
  outer loop
    vertex -0.7231404120164451 -2.6987967586516564 0.0
    vertex -5.132494735226556e-16 -2.794 16.509999999999998
    vertex -0.7231404120164451 -2.6987967586516564 16.509999999999998
  endloop
endfacet
facet normal 0.6087614290087202 -0.7933533402912357 0.0
  outer loop
    vertex 1.9756563466352133 -1.9756563466352142 16.509999999999998
    vertex 1.396999999999998 -2.4196749781737226 0.0
    vertex 1.9756563466352133 -1.9756563466352142 0.0
  endloop
endfacet
facet normal 0.6087614290087202 -0.7933533402912357 0.0
  outer loop
    vertex 1.396999999999998 -2.4196749781737226 0.0
    vertex 1.9756563466352133 -1.9756563466352142 16.509999999999998
    vertex 1.396999999999998 -2.4196749781737226 16.509999999999998
  endloop
endfacet
facet normal -0.9914448613738105 0.13052619222005193 0.0
  outer loop
    vertex 1.5875 0.0 16.509999999999998
    vertex 1.5334072492338955 -0.41087523410025295 0.0
    vertex 1.5334072492338955 -0.41087523410025295 16.509999999999998
  endloop
endfacet
facet normal -0.9914448613738105 0.13052619222005193 0.0
  outer loop
    vertex 1.5334072492338955 -0.41087523410025295 0.0
    vertex 1.5875 0.0 16.509999999999998
    vertex 1.5875 0.0 0.0
  endloop
endfacet
facet normal 0.13052619222005155 -0.9914448613738105 0.0
  outer loop
    vertex 9.720633968232115e-17 1.5875 16.509999999999998
    vertex -0.41087523410025145 1.533407249233896 0.0
    vertex 9.720633968232115e-17 1.5875 0.0
  endloop
endfacet
facet normal 0.13052619222005155 -0.9914448613738105 0.0
  outer loop
    vertex -0.41087523410025145 1.533407249233896 0.0
    vertex 9.720633968232115e-17 1.5875 16.509999999999998
    vertex -0.41087523410025145 1.533407249233896 16.509999999999998
  endloop
endfacet
facet normal 0.793353340291235 -0.608761429008721 0.0
  outer loop
    vertex -1.122532015133644 1.1225320151336442 0.0
    vertex -1.374815328507796 0.7937500000000005 16.509999999999998
    vertex -1.374815328507796 0.7937500000000005 0.0
  endloop
endfacet
facet normal 0.793353340291235 -0.608761429008721 0.0
  outer loop
    vertex -1.374815328507796 0.7937500000000005 16.509999999999998
    vertex -1.122532015133644 1.1225320151336442 0.0
    vertex -1.122532015133644 1.1225320151336442 16.509999999999998
  endloop
endfacet
facet normal -0.923879532511287 -0.3826834323650898 -0.0
  outer loop
    vertex 1.3748153285077964 0.7937499999999998 16.509999999999998
    vertex 1.533407249233896 0.4108752341002517 0.0
    vertex 1.533407249233896 0.4108752341002517 16.509999999999998
  endloop
endfacet
facet normal -0.923879532511287 -0.3826834323650898 -0.0
  outer loop
    vertex 1.533407249233896 0.4108752341002517 0.0
    vertex 1.3748153285077964 0.7937499999999998 16.509999999999998
    vertex 1.3748153285077964 0.7937499999999998 0.0
  endloop
endfacet
facet normal -0.13052619222005166 0.9914448613738105 0.0
  outer loop
    vertex -0.7231404120164426 2.698796758651657 16.509999999999998
    vertex 1.7108315784088522e-16 2.794 0.0
    vertex -0.7231404120164426 2.698796758651657 0.0
  endloop
endfacet
facet normal -0.13052619222005166 0.9914448613738105 0.0
  outer loop
    vertex 1.7108315784088522e-16 2.794 0.0
    vertex -0.7231404120164426 2.698796758651657 16.509999999999998
    vertex 1.7108315784088522e-16 2.794 16.509999999999998
  endloop
endfacet
facet normal 0.9238795325112867 -0.38268343236508995 0.0
  outer loop
    vertex -1.374815328507796 0.7937500000000005 0.0
    vertex -1.5334072492338957 0.4108752341002521 16.509999999999998
    vertex -1.5334072492338957 0.4108752341002521 0.0
  endloop
endfacet
facet normal 0.9238795325112867 -0.38268343236508995 0.0
  outer loop
    vertex -1.5334072492338957 0.4108752341002521 16.509999999999998
    vertex -1.374815328507796 0.7937500000000005 0.0
    vertex -1.374815328507796 0.7937500000000005 16.509999999999998
  endloop
endfacet
facet normal 0.9914448613738104 -0.1305261922200517 0.0
  outer loop
    vertex 2.794 0.0 0.0
    vertex 2.6987967586516564 -0.7231404120164452 16.509999999999998
    vertex 2.6987967586516564 -0.7231404120164452 0.0
  endloop
endfacet
facet normal 0.9914448613738104 -0.1305261922200517 0.0
  outer loop
    vertex 2.6987967586516564 -0.7231404120164452 16.509999999999998
    vertex 2.794 0.0 0.0
    vertex 2.794 0.0 16.509999999999998
  endloop
endfacet
facet normal -0.6087614290087204 0.7933533402912355 0.0
  outer loop
    vertex -1.9756563466352133 1.9756563466352137 16.509999999999998
    vertex -1.3969999999999991 2.4196749781737217 0.0
    vertex -1.9756563466352133 1.9756563466352137 0.0
  endloop
endfacet
facet normal -0.6087614290087204 0.7933533402912355 0.0
  outer loop
    vertex -1.3969999999999991 2.4196749781737217 0.0
    vertex -1.9756563466352133 1.9756563466352137 16.509999999999998
    vertex -1.3969999999999991 2.4196749781737217 16.509999999999998
  endloop
endfacet
facet normal -0.793353340291235 0.608761429008721 0.0
  outer loop
    vertex 1.3748153285077958 -0.7937500000000006 16.509999999999998
    vertex 1.1225320151336438 -1.1225320151336444 0.0
    vertex 1.1225320151336438 -1.1225320151336444 16.509999999999998
  endloop
endfacet
facet normal -0.793353340291235 0.608761429008721 0.0
  outer loop
    vertex 1.1225320151336438 -1.1225320151336444 0.0
    vertex 1.3748153285077958 -0.7937500000000006 16.509999999999998
    vertex 1.3748153285077958 -0.7937500000000006 0.0
  endloop
endfacet
facet normal 0.793353340291235 -0.6087614290087209 0.0
  outer loop
    vertex 2.419674978173721 -1.3970000000000011 0.0
    vertex 1.9756563466352133 -1.9756563466352142 16.509999999999998
    vertex 1.9756563466352133 -1.9756563466352142 0.0
  endloop
endfacet
facet normal 0.793353340291235 -0.6087614290087209 0.0
  outer loop
    vertex 1.9756563466352133 -1.9756563466352142 16.509999999999998
    vertex 2.419674978173721 -1.3970000000000011 0.0
    vertex 2.419674978173721 -1.3970000000000011 16.509999999999998
  endloop
endfacet
facet normal -0.7933533402912353 -0.6087614290087205 -0.0
  outer loop
    vertex 1.1225320151336442 1.1225320151336442 16.509999999999998
    vertex 1.3748153285077964 0.7937499999999998 0.0
    vertex 1.3748153285077964 0.7937499999999998 16.509999999999998
  endloop
endfacet
facet normal -0.7933533402912353 -0.6087614290087205 -0.0
  outer loop
    vertex 1.3748153285077964 0.7937499999999998 0.0
    vertex 1.1225320151336442 1.1225320151336442 16.509999999999998
    vertex 1.1225320151336442 1.1225320151336442 0.0
  endloop
endfacet
facet normal -0.3826834323650898 -0.9238795325112867 -0.0
  outer loop
    vertex 0.7937500000000002 1.3748153285077962 16.509999999999998
    vertex 0.410875234100252 1.5334072492338957 0.0
    vertex 0.7937500000000002 1.3748153285077962 0.0
  endloop
endfacet
facet normal -0.3826834323650898 -0.9238795325112867 -0.0
  outer loop
    vertex 0.410875234100252 1.5334072492338957 0.0
    vertex 0.7937500000000002 1.3748153285077962 16.509999999999998
    vertex 0.410875234100252 1.5334072492338957 16.509999999999998
  endloop
endfacet
facet normal -0.13052619222005185 -0.9914448613738105 -0.0
  outer loop
    vertex 0.410875234100252 1.5334072492338957 16.509999999999998
    vertex 9.720633968232115e-17 1.5875 0.0
    vertex 0.410875234100252 1.5334072492338957 0.0
  endloop
endfacet
facet normal -0.13052619222005185 -0.9914448613738105 -0.0
  outer loop
    vertex 9.720633968232115e-17 1.5875 0.0
    vertex 0.410875234100252 1.5334072492338957 16.509999999999998
    vertex 9.720633968232115e-17 1.5875 16.509999999999998
  endloop
endfacet
facet normal -0.7933533402912349 0.6087614290087212 0.0
  outer loop
    vertex -1.9756563466352133 1.9756563466352137 16.509999999999998
    vertex -2.4196749781737212 1.397000000000001 0.0
    vertex -2.4196749781737212 1.397000000000001 16.509999999999998
  endloop
endfacet
facet normal -0.7933533402912349 0.6087614290087212 0.0
  outer loop
    vertex -2.4196749781737212 1.397000000000001 0.0
    vertex -1.9756563466352133 1.9756563466352137 16.509999999999998
    vertex -1.9756563466352133 1.9756563466352137 0.0
  endloop
endfacet
facet normal 0.9238795325112864 -0.38268343236509067 0.0
  outer loop
    vertex 2.6987967586516564 -0.7231404120164452 0.0
    vertex 2.419674978173721 -1.3970000000000011 16.509999999999998
    vertex 2.419674978173721 -1.3970000000000011 0.0
  endloop
endfacet
facet normal 0.9238795325112864 -0.38268343236509067 0.0
  outer loop
    vertex 2.419674978173721 -1.3970000000000011 16.509999999999998
    vertex 2.6987967586516564 -0.7231404120164452 0.0
    vertex 2.6987967586516564 -0.7231404120164452 16.509999999999998
  endloop
endfacet
facet normal 0.13052619222005205 0.9914448613738104 0.0
  outer loop
    vertex 1.7108315784088522e-16 2.794 16.509999999999998
    vertex 0.7231404120164435 2.6987967586516564 0.0
    vertex 1.7108315784088522e-16 2.794 0.0
  endloop
endfacet
facet normal 0.13052619222005205 0.9914448613738104 0.0
  outer loop
    vertex 0.7231404120164435 2.6987967586516564 0.0
    vertex 1.7108315784088522e-16 2.794 16.509999999999998
    vertex 0.7231404120164435 2.6987967586516564 16.509999999999998
  endloop
endfacet
facet normal 0.7933533402912355 0.6087614290087204 0.0
  outer loop
    vertex -1.3748153285077966 -0.7937499999999995 0.0
    vertex -1.1225320151336446 -1.1225320151336435 16.509999999999998
    vertex -1.1225320151336446 -1.1225320151336435 0.0
  endloop
endfacet
facet normal 0.7933533402912355 0.6087614290087204 0.0
  outer loop
    vertex -1.1225320151336446 -1.1225320151336435 16.509999999999998
    vertex -1.3748153285077966 -0.7937499999999995 0.0
    vertex -1.3748153285077966 -0.7937499999999995 16.509999999999998
  endloop
endfacet
facet normal 0.6087614290087211 0.7933533402912348 0.0
  outer loop
    vertex -1.1225320151336446 -1.1225320151336435 16.509999999999998
    vertex -0.7937500000000006 -1.3748153285077958 0.0
    vertex -1.1225320151336446 -1.1225320151336435 0.0
  endloop
endfacet
facet normal 0.6087614290087211 0.7933533402912348 0.0
  outer loop
    vertex -0.7937500000000006 -1.3748153285077958 0.0
    vertex -1.1225320151336446 -1.1225320151336435 16.509999999999998
    vertex -0.7937500000000006 -1.3748153285077958 16.509999999999998
  endloop
endfacet
facet normal 0.9914448613738105 0.1305261922200512 0.0
  outer loop
    vertex -1.5875 1.944126793646423e-16 0.0
    vertex -1.533407249233896 -0.410875234100251 16.509999999999998
    vertex -1.533407249233896 -0.410875234100251 0.0
  endloop
endfacet
facet normal 0.9914448613738105 0.1305261922200512 0.0
  outer loop
    vertex -1.533407249233896 -0.410875234100251 16.509999999999998
    vertex -1.5875 1.944126793646423e-16 0.0
    vertex -1.5875 1.944126793646423e-16 16.509999999999998
  endloop
endfacet
facet normal -0.1305261922200512 0.9914448613738105 0.0
  outer loop
    vertex -2.9161901904696346e-16 -1.5875 16.509999999999998
    vertex 0.41087523410025095 -1.533407249233896 0.0
    vertex -2.9161901904696346e-16 -1.5875 0.0
  endloop
endfacet
facet normal -0.1305261922200512 0.9914448613738105 0.0
  outer loop
    vertex 0.41087523410025095 -1.533407249233896 0.0
    vertex -2.9161901904696346e-16 -1.5875 16.509999999999998
    vertex 0.41087523410025095 -1.533407249233896 16.509999999999998
  endloop
endfacet
facet normal 0.9914448613738105 -0.13052619222005185 0.0
  outer loop
    vertex -1.5334072492338957 0.4108752341002521 0.0
    vertex -1.5875 1.944126793646423e-16 16.509999999999998
    vertex -1.5875 1.944126793646423e-16 0.0
  endloop
endfacet
facet normal 0.9914448613738105 -0.13052619222005185 0.0
  outer loop
    vertex -1.5875 1.944126793646423e-16 16.509999999999998
    vertex -1.5334072492338957 0.4108752341002521 0.0
    vertex -1.5334072492338957 0.4108752341002521 16.509999999999998
  endloop
endfacet
facet normal 0.923879532511287 0.38268343236508956 0.0
  outer loop
    vertex -1.533407249233896 -0.410875234100251 0.0
    vertex -1.3748153285077966 -0.7937499999999995 16.509999999999998
    vertex -1.3748153285077966 -0.7937499999999995 0.0
  endloop
endfacet
facet normal 0.923879532511287 0.38268343236508956 0.0
  outer loop
    vertex -1.3748153285077966 -0.7937499999999995 16.509999999999998
    vertex -1.533407249233896 -0.410875234100251 0.0
    vertex -1.533407249233896 -0.410875234100251 16.509999999999998
  endloop
endfacet
facet normal 0.38268343236509056 0.9238795325112866 0.0
  outer loop
    vertex -0.7937500000000006 -1.3748153285077958 16.509999999999998
    vertex -0.4108752341002529 -1.5334072492338955 0.0
    vertex -0.7937500000000006 -1.3748153285077958 0.0
  endloop
endfacet
facet normal 0.38268343236509056 0.9238795325112866 0.0
  outer loop
    vertex -0.4108752341002529 -1.5334072492338955 0.0
    vertex -0.7937500000000006 -1.3748153285077958 16.509999999999998
    vertex -0.4108752341002529 -1.5334072492338955 16.509999999999998
  endloop
endfacet
facet normal 0.13052619222005207 0.9914448613738105 0.0
  outer loop
    vertex -0.4108752341002529 -1.5334072492338955 16.509999999999998
    vertex -2.9161901904696346e-16 -1.5875 0.0
    vertex -0.4108752341002529 -1.5334072492338955 0.0
  endloop
endfacet
facet normal 0.13052619222005207 0.9914448613738105 0.0
  outer loop
    vertex -2.9161901904696346e-16 -1.5875 0.0
    vertex -0.4108752341002529 -1.5334072492338955 16.509999999999998
    vertex -2.9161901904696346e-16 -1.5875 16.509999999999998
  endloop
endfacet
facet normal -0.38268343236508934 0.9238795325112871 0.0
  outer loop
    vertex 0.41087523410025095 -1.533407249233896 16.509999999999998
    vertex 0.7937499999999988 -1.3748153285077969 0.0
    vertex 0.41087523410025095 -1.533407249233896 0.0
  endloop
endfacet
facet normal -0.38268343236508934 0.9238795325112871 0.0
  outer loop
    vertex 0.7937499999999988 -1.3748153285077969 0.0
    vertex 0.41087523410025095 -1.533407249233896 16.509999999999998
    vertex 0.7937499999999988 -1.3748153285077969 16.509999999999998
  endloop
endfacet
facet normal 0.0 0.0 -1.0
  outer loop
    vertex -1.3969999999999991 2.4196749781737217 0.0
    vertex -1.5875 1.944126793646423e-16 0.0
    vertex -1.9756563466352133 1.9756563466352137 0.0
  endloop
endfacet
facet normal 0.0 0.0 -1.0
  outer loop
    vertex -1.5875 1.944126793646423e-16 0.0
    vertex -1.3969999999999991 2.4196749781737217 0.0
    vertex -1.5334072492338957 0.4108752341002521 0.0
  endloop
endfacet
facet normal 0.0 0.0 -1.0
  outer loop
    vertex -1.5334072492338957 0.4108752341002521 0.0
    vertex -1.3969999999999991 2.4196749781737217 0.0
    vertex -1.374815328507796 0.7937500000000005 0.0
  endloop
endfacet
facet normal 0.0 0.0 -1.0
  outer loop
    vertex -1.374815328507796 0.7937500000000005 0.0
    vertex -1.3969999999999991 2.4196749781737217 0.0
    vertex -0.7231404120164426 2.698796758651657 0.0
  endloop
endfacet
facet normal 0.0 0.0 -1.0
  outer loop
    vertex -1.374815328507796 0.7937500000000005 0.0
    vertex -0.7231404120164426 2.698796758651657 0.0
    vertex -1.122532015133644 1.1225320151336442 0.0
  endloop
endfacet
facet normal 0.0 0.0 -1.0
  outer loop
    vertex -1.122532015133644 1.1225320151336442 0.0
    vertex -0.7231404120164426 2.698796758651657 0.0
    vertex -0.7937499999999996 1.3748153285077964 0.0
  endloop
endfacet
facet normal 0.0 0.0 -1.0
  outer loop
    vertex -0.7937499999999996 1.3748153285077964 0.0
    vertex -0.7231404120164426 2.698796758651657 0.0
    vertex -0.41087523410025145 1.533407249233896 0.0
  endloop
endfacet
facet normal 0.0 0.0 -1.0
  outer loop
    vertex -0.41087523410025145 1.533407249233896 0.0
    vertex -0.7231404120164426 2.698796758651657 0.0
    vertex 1.7108315784088522e-16 2.794 0.0
  endloop
endfacet
facet normal 0.0 0.0 -1.0
  outer loop
    vertex -0.41087523410025145 1.533407249233896 0.0
    vertex 1.7108315784088522e-16 2.794 0.0
    vertex 9.720633968232115e-17 1.5875 0.0
  endloop
endfacet
facet normal 0.0 0.0 -1.0
  outer loop
    vertex 9.720633968232115e-17 1.5875 0.0
    vertex 1.7108315784088522e-16 2.794 0.0
    vertex 0.410875234100252 1.5334072492338957 0.0
  endloop
endfacet
facet normal 0.0 0.0 -1.0
  outer loop
    vertex 0.410875234100252 1.5334072492338957 0.0
    vertex 1.7108315784088522e-16 2.794 0.0
    vertex 0.7231404120164435 2.6987967586516564 0.0
  endloop
endfacet
facet normal 0.0 0.0 -1.0
  outer loop
    vertex 0.410875234100252 1.5334072492338957 0.0
    vertex 0.7231404120164435 2.6987967586516564 0.0
    vertex 0.7937500000000002 1.3748153285077962 0.0
  endloop
endfacet
facet normal 0.0 0.0 -1.0
  outer loop
    vertex 0.7937500000000002 1.3748153285077962 0.0
    vertex 0.7231404120164435 2.6987967586516564 0.0
    vertex 1.3970000000000002 2.4196749781737217 0.0
  endloop
endfacet
facet normal 0.0 0.0 -1.0
  outer loop
    vertex 0.7937500000000002 1.3748153285077962 0.0
    vertex 1.3970000000000002 2.4196749781737217 0.0
    vertex 1.1225320151336442 1.1225320151336442 0.0
  endloop
endfacet
facet normal 0.0 0.0 -1.0
  outer loop
    vertex 1.1225320151336442 1.1225320151336442 0.0
    vertex 1.3970000000000002 2.4196749781737217 0.0
    vertex 1.3748153285077964 0.7937499999999998 0.0
  endloop
endfacet
facet normal 0.0 0.0 -1.0
  outer loop
    vertex 1.3748153285077964 0.7937499999999998 0.0
    vertex 1.3970000000000002 2.4196749781737217 0.0
    vertex 1.533407249233896 0.4108752341002517 0.0
  endloop
endfacet
facet normal 0.0 0.0 -1.0
  outer loop
    vertex 1.533407249233896 0.4108752341002517 0.0
    vertex 1.3970000000000002 2.4196749781737217 0.0
    vertex 1.9756563466352137 1.9756563466352137 0.0
  endloop
endfacet
facet normal 0.0 0.0 -1.0
  outer loop
    vertex 1.533407249233896 0.4108752341002517 0.0
    vertex 1.9756563466352137 1.9756563466352137 0.0
    vertex 1.5875 0.0 0.0
  endloop
endfacet
facet normal 0.0 0.0 -1.0
  outer loop
    vertex 1.5875 0.0 0.0
    vertex 1.9756563466352137 1.9756563466352137 0.0
    vertex 1.9756563466352133 -1.9756563466352142 0.0
  endloop
endfacet
facet normal 0.0 0.0 -1.0
  outer loop
    vertex 1.9756563466352133 -1.9756563466352142 0.0
    vertex 1.9756563466352137 1.9756563466352137 0.0
    vertex 2.419674978173721 -1.3970000000000011 0.0
  endloop
endfacet
facet normal 0.0 0.0 -1.0
  outer loop
    vertex 2.419674978173721 -1.3970000000000011 0.0
    vertex 1.9756563466352137 1.9756563466352137 0.0
    vertex 2.4196749781737217 1.3969999999999998 0.0
  endloop
endfacet
facet normal 0.0 0.0 -1.0
  outer loop
    vertex 2.419674978173721 -1.3970000000000011 0.0
    vertex 2.4196749781737217 1.3969999999999998 0.0
    vertex 2.6987967586516564 -0.7231404120164452 0.0
  endloop
endfacet
facet normal 0.0 0.0 -1.0
  outer loop
    vertex 2.6987967586516564 -0.7231404120164452 0.0
    vertex 2.4196749781737217 1.3969999999999998 0.0
    vertex 2.698796758651657 0.7231404120164429 0.0
  endloop
endfacet
facet normal 0.0 0.0 -1.0
  outer loop
    vertex 2.6987967586516564 -0.7231404120164452 0.0
    vertex 2.698796758651657 0.7231404120164429 0.0
    vertex 2.794 0.0 0.0
  endloop
endfacet
facet normal 0.0 0.0 -1.0
  outer loop
    vertex -2.6987967586516564 0.7231404120164437 0.0
    vertex -2.698796758651657 -0.7231404120164419 0.0
    vertex -2.794 3.4216631568177044e-16 0.0
  endloop
endfacet
facet normal 0.0 0.0 -1.0
  outer loop
    vertex -2.698796758651657 -0.7231404120164419 0.0
    vertex -2.6987967586516564 0.7231404120164437 0.0
    vertex -2.4196749781737217 -1.3969999999999991 0.0
  endloop
endfacet
facet normal 0.0 0.0 -1.0
  outer loop
    vertex -2.4196749781737217 -1.3969999999999991 0.0
    vertex -2.6987967586516564 0.7231404120164437 0.0
    vertex -2.4196749781737212 1.397000000000001 0.0
  endloop
endfacet
facet normal 0.0 0.0 -1.0
  outer loop
    vertex -2.4196749781737217 -1.3969999999999991 0.0
    vertex -2.4196749781737212 1.397000000000001 0.0
    vertex -1.9756563466352148 -1.9756563466352126 0.0
  endloop
endfacet
facet normal 0.0 0.0 -1.0
  outer loop
    vertex -1.9756563466352148 -1.9756563466352126 0.0
    vertex -2.4196749781737212 1.397000000000001 0.0
    vertex -1.9756563466352133 1.9756563466352137 0.0
  endloop
endfacet
facet normal 0.0 0.0 -1.0
  outer loop
    vertex -1.9756563466352148 -1.9756563466352126 0.0
    vertex -1.9756563466352133 1.9756563466352137 0.0
    vertex -1.3970000000000011 -2.419674978173721 0.0
  endloop
endfacet
facet normal 0.0 0.0 -1.0
  outer loop
    vertex -1.3970000000000011 -2.419674978173721 0.0
    vertex -1.9756563466352133 1.9756563466352137 0.0
    vertex -1.5875 1.944126793646423e-16 0.0
  endloop
endfacet
facet normal 0.0 0.0 -1.0
  outer loop
    vertex -1.3970000000000011 -2.419674978173721 0.0
    vertex -1.5875 1.944126793646423e-16 0.0
    vertex -1.533407249233896 -0.410875234100251 0.0
  endloop
endfacet
facet normal 0.0 0.0 -1.0
  outer loop
    vertex -1.3970000000000011 -2.419674978173721 0.0
    vertex -1.533407249233896 -0.410875234100251 0.0
    vertex -1.3748153285077966 -0.7937499999999995 0.0
  endloop
endfacet
facet normal 0.0 0.0 -1.0
  outer loop
    vertex -1.3970000000000011 -2.419674978173721 0.0
    vertex -1.3748153285077966 -0.7937499999999995 0.0
    vertex -0.7231404120164451 -2.6987967586516564 0.0
  endloop
endfacet
facet normal 0.0 0.0 -1.0
  outer loop
    vertex -0.7231404120164451 -2.6987967586516564 0.0
    vertex -1.3748153285077966 -0.7937499999999995 0.0
    vertex -1.1225320151336446 -1.1225320151336435 0.0
  endloop
endfacet
facet normal 0.0 0.0 -1.0
  outer loop
    vertex -0.7231404120164451 -2.6987967586516564 0.0
    vertex -1.1225320151336446 -1.1225320151336435 0.0
    vertex -0.7937500000000006 -1.3748153285077958 0.0
  endloop
endfacet
facet normal 0.0 0.0 -1.0
  outer loop
    vertex -0.7231404120164451 -2.6987967586516564 0.0
    vertex -0.7937500000000006 -1.3748153285077958 0.0
    vertex -0.4108752341002529 -1.5334072492338955 0.0
  endloop
endfacet
facet normal 0.0 0.0 -1.0
  outer loop
    vertex -0.7231404120164451 -2.6987967586516564 0.0
    vertex -0.4108752341002529 -1.5334072492338955 0.0
    vertex -5.132494735226556e-16 -2.794 0.0
  endloop
endfacet
facet normal 0.0 0.0 -1.0
  outer loop
    vertex -5.132494735226556e-16 -2.794 0.0
    vertex -0.4108752341002529 -1.5334072492338955 0.0
    vertex -2.9161901904696346e-16 -1.5875 0.0
  endloop
endfacet
facet normal 0.0 0.0 -1.0
  outer loop
    vertex -5.132494735226556e-16 -2.794 0.0
    vertex -2.9161901904696346e-16 -1.5875 0.0
    vertex 0.7231404120164416 -2.698796758651657 0.0
  endloop
endfacet
facet normal 0.0 0.0 -1.0
  outer loop
    vertex 0.7231404120164416 -2.698796758651657 0.0
    vertex -2.9161901904696346e-16 -1.5875 0.0
    vertex 0.41087523410025095 -1.533407249233896 0.0
  endloop
endfacet
facet normal 0.0 0.0 -1.0
  outer loop
    vertex 0.7231404120164416 -2.698796758651657 0.0
    vertex 0.41087523410025095 -1.533407249233896 0.0
    vertex 0.7937499999999988 -1.3748153285077969 0.0
  endloop
endfacet
facet normal 0.0 0.0 -1.0
  outer loop
    vertex 0.7231404120164416 -2.698796758651657 0.0
    vertex 0.7937499999999988 -1.3748153285077969 0.0
    vertex 1.396999999999998 -2.4196749781737226 0.0
  endloop
endfacet
facet normal 0.0 0.0 -1.0
  outer loop
    vertex 1.396999999999998 -2.4196749781737226 0.0
    vertex 0.7937499999999988 -1.3748153285077969 0.0
    vertex 1.1225320151336438 -1.1225320151336444 0.0
  endloop
endfacet
facet normal 0.0 0.0 -1.0
  outer loop
    vertex 1.396999999999998 -2.4196749781737226 0.0
    vertex 1.1225320151336438 -1.1225320151336444 0.0
    vertex 1.3748153285077958 -0.7937500000000006 0.0
  endloop
endfacet
facet normal 0.0 0.0 -1.0
  outer loop
    vertex 1.396999999999998 -2.4196749781737226 0.0
    vertex 1.3748153285077958 -0.7937500000000006 0.0
    vertex 1.5334072492338955 -0.41087523410025295 0.0
  endloop
endfacet
facet normal 0.0 0.0 -1.0
  outer loop
    vertex 1.396999999999998 -2.4196749781737226 0.0
    vertex 1.5334072492338955 -0.41087523410025295 0.0
    vertex 1.9756563466352133 -1.9756563466352142 0.0
  endloop
endfacet
facet normal 0.0 0.0 -1.0
  outer loop
    vertex 1.9756563466352133 -1.9756563466352142 0.0
    vertex 1.5334072492338955 -0.41087523410025295 0.0
    vertex 1.5875 0.0 0.0
  endloop
endfacet
endsolid Untitled-5fb1cb85
