solid Untitled-5f5e912c
facet normal 0.6087614290087203 0.7933533402912355 0.0
  outer loop
    vertex 7.14375 12.373337956570166 4.762499999999999
    vertex 10.1027881362028 10.1027881362028 -1.5875
    vertex 7.14375 12.373337956570166 -1.5875
  endloop
endfacet
facet normal 0.6087614290087203 0.7933533402912355 0.0
  outer loop
    vertex 10.1027881362028 10.1027881362028 -1.5875
    vertex 7.14375 12.373337956570166 4.762499999999999
    vertex 10.1027881362028 10.1027881362028 4.762499999999999
  endloop
endfacet
facet normal 0.6087614290087204 -0.7933533402912355 -9.437133697013623e-18
  outer loop
    vertex -6.349999999999997 10.998522628062373 4.762499999999999
    vertex -8.980256121069152 8.980256121069152 1.5875
    vertex -6.349999999999997 10.998522628062373 1.5875
  endloop
endfacet
facet normal 0.6087614290087204 -0.7933533402912355 -9.437133697013623e-18
  outer loop
    vertex -8.980256121069152 8.980256121069152 1.5875
    vertex -6.349999999999997 10.998522628062373 4.762499999999999
    vertex -8.980256121069152 8.980256121069152 4.762499999999999
  endloop
endfacet
facet normal 0.7933533402912348 -0.608761429008721 2.3756351344658083e-17
  outer loop
    vertex -8.980256121069152 8.980256121069152 1.5875
    vertex -10.998522628062368 6.350000000000005 4.762499999999999
    vertex -10.998522628062368 6.350000000000005 1.5875
  endloop
endfacet
facet normal 0.7933533402912348 -0.608761429008721 2.3756351344658083e-17
  outer loop
    vertex -10.998522628062368 6.350000000000005 4.762499999999999
    vertex -8.980256121069152 8.980256121069152 1.5875
    vertex -8.980256121069152 8.980256121069152 4.762499999999999
  endloop
endfacet
facet normal -0.9914448613738105 0.13052619222005202 0.0
  outer loop
    vertex -13.80066524310506 3.697877106902269 4.762499999999999
    vertex -14.2875 2.8199664825478975e-15 -1.5875
    vertex -14.2875 2.8199664825478975e-15 4.762499999999999
  endloop
endfacet
facet normal -0.9914448613738105 0.13052619222005202 0.0
  outer loop
    vertex -14.2875 2.8199664825478975e-15 -1.5875
    vertex -13.80066524310506 3.697877106902269 4.762499999999999
    vertex -13.80066524310506 3.697877106902269 -1.5875
  endloop
endfacet
facet normal 0.9238795325112867 -0.38268343236508995 6.828170749622757e-18
  outer loop
    vertex -10.998522628062368 6.350000000000005 1.5875
    vertex -12.267257993871166 3.287001872802016 4.762499999999999
    vertex -12.267257993871166 3.287001872802016 1.5875
  endloop
endfacet
facet normal 0.9238795325112867 -0.38268343236508995 6.828170749622757e-18
  outer loop
    vertex -12.267257993871166 3.287001872802016 4.762499999999999
    vertex -10.998522628062368 6.350000000000005 1.5875
    vertex -10.998522628062368 6.350000000000005 4.762499999999999
  endloop
endfacet
facet normal -0.9914448613738105 -0.13052619222005152 -0.0
  outer loop
    vertex -14.2875 2.8199664825478975e-15 4.762499999999999
    vertex -13.800665243105064 -3.697877106902259 -1.5875
    vertex -13.800665243105064 -3.697877106902259 4.762499999999999
  endloop
endfacet
facet normal -0.9914448613738105 -0.13052619222005152 -0.0
  outer loop
    vertex -13.800665243105064 -3.697877106902259 -1.5875
    vertex -14.2875 2.8199664825478975e-15 4.762499999999999
    vertex -14.2875 2.8199664825478975e-15 -1.5875
  endloop
endfacet
facet normal 0.13052619222005207 0.9914448613738105 7.645522123469306e-18
  outer loop
    vertex -3.287001872802023 -12.267257993871164 4.762499999999999
    vertex -2.8199664825478975e-15 -12.7 1.5875
    vertex -3.287001872802023 -12.267257993871164 1.5875
  endloop
endfacet
facet normal 0.13052619222005207 0.9914448613738105 7.645522123469306e-18
  outer loop
    vertex -2.8199664825478975e-15 -12.7 1.5875
    vertex -3.287001872802023 -12.267257993871164 4.762499999999999
    vertex -2.8199664825478975e-15 -12.7 4.762499999999999
  endloop
endfacet
facet normal -0.7933533402912348 0.608761429008721 -6.914333170636213e-18
  outer loop
    vertex 10.998522628062366 -6.350000000000005 4.762499999999999
    vertex 8.980256121069152 -8.980256121069155 1.5875
    vertex 8.980256121069152 -8.980256121069155 4.762499999999999
  endloop
endfacet
facet normal -0.7933533402912348 0.608761429008721 -6.914333170636213e-18
  outer loop
    vertex 8.980256121069152 -8.980256121069155 1.5875
    vertex 10.998522628062366 -6.350000000000005 4.762499999999999
    vertex 10.998522628062366 -6.350000000000005 1.5875
  endloop
endfacet
facet normal -0.38268343236509 0.9238795325112866 0.0
  outer loop
    vertex -7.143749999999997 12.373337956570166 4.762499999999999
    vertex -3.6978771069022636 13.800665243105064 -1.5875
    vertex -7.143749999999997 12.373337956570166 -1.5875
  endloop
endfacet
facet normal -0.38268343236509 0.9238795325112866 0.0
  outer loop
    vertex -3.6978771069022636 13.800665243105064 -1.5875
    vertex -7.143749999999997 12.373337956570166 4.762499999999999
    vertex -3.6978771069022636 13.800665243105064 4.762499999999999
  endloop
endfacet
facet normal -0.13052619222005138 0.9914448613738104 0.0
  outer loop
    vertex -3.6978771069022636 13.800665243105064 4.762499999999999
    vertex 0.0 14.2875 -1.5875
    vertex -3.6978771069022636 13.800665243105064 -1.5875
  endloop
endfacet
facet normal -0.13052619222005138 0.9914448613738104 0.0
  outer loop
    vertex 0.0 14.2875 -1.5875
    vertex -3.6978771069022636 13.800665243105064 4.762499999999999
    vertex 0.0 14.2875 4.762499999999999
  endloop
endfacet
facet normal -0.9238795325112867 -0.38268343236508967 1.3332832729765491e-18
  outer loop
    vertex 10.998522628062373 6.35 4.762499999999999
    vertex 12.267257993871166 3.2870018728020134 1.5875
    vertex 12.267257993871166 3.2870018728020134 4.762499999999999
  endloop
endfacet
facet normal -0.9238795325112867 -0.38268343236508967 1.3332832729765491e-18
  outer loop
    vertex 12.267257993871166 3.2870018728020134 1.5875
    vertex 10.998522628062373 6.35 4.762499999999999
    vertex 10.998522628062373 6.35 1.5875
  endloop
endfacet
facet normal 0.13052619222005205 0.9914448613738105 0.0
  outer loop
    vertex 0.0 14.2875 4.762499999999999
    vertex 3.697877106902269 13.800665243105064 -1.5875
    vertex 0.0 14.2875 -1.5875
  endloop
endfacet
facet normal 0.13052619222005205 0.9914448613738105 0.0
  outer loop
    vertex 3.697877106902269 13.800665243105064 -1.5875
    vertex 0.0 14.2875 4.762499999999999
    vertex 3.697877106902269 13.800665243105064 4.762499999999999
  endloop
endfacet
facet normal -0.9238795325112865 0.38268343236509056 2.55888900961023e-17
  outer loop
    vertex 12.267257993871166 -3.2870018728020245 4.762499999999999
    vertex 10.998522628062366 -6.350000000000005 1.5875
    vertex 10.998522628062366 -6.350000000000005 4.762499999999999
  endloop
endfacet
facet normal -0.9238795325112865 0.38268343236509056 2.55888900961023e-17
  outer loop
    vertex 10.998522628062366 -6.350000000000005 1.5875
    vertex 12.267257993871166 -3.2870018728020245 4.762499999999999
    vertex 12.267257993871166 -3.2870018728020245 1.5875
  endloop
endfacet
facet normal -0.9914448613738105 -0.13052619222005155 5.159648028485149e-18
  outer loop
    vertex 12.267257993871166 3.2870018728020134 4.762499999999999
    vertex 12.7 0.0 1.5875
    vertex 12.7 0.0 4.762499999999999
  endloop
endfacet
facet normal -0.9914448613738105 -0.13052619222005155 5.159648028485149e-18
  outer loop
    vertex 12.7 0.0 1.5875
    vertex 12.267257993871166 3.2870018728020134 4.762499999999999
    vertex 12.267257993871166 3.2870018728020134 1.5875
  endloop
endfacet
facet normal -0.6087614290087204 -0.7933533402912355 -7.241367374884262e-18
  outer loop
    vertex 8.980256121069152 8.980256121069152 4.762499999999999
    vertex 6.35 10.99852262806237 1.5875
    vertex 8.980256121069152 8.980256121069152 1.5875
  endloop
endfacet
facet normal -0.6087614290087204 -0.7933533402912355 -7.241367374884262e-18
  outer loop
    vertex 6.35 10.99852262806237 1.5875
    vertex 8.980256121069152 8.980256121069152 4.762499999999999
    vertex 6.35 10.99852262806237 4.762499999999999
  endloop
endfacet
facet normal 0.9914448613738105 0.13052619222005124 -4.540239610911743e-18
  outer loop
    vertex -12.7 2.8199664825478975e-15 1.5875
    vertex -12.267257993871167 -3.2870018728020076 4.762499999999999
    vertex -12.267257993871167 -3.2870018728020076 1.5875
  endloop
endfacet
facet normal 0.9914448613738105 0.13052619222005124 -4.540239610911743e-18
  outer loop
    vertex -12.267257993871167 -3.2870018728020076 4.762499999999999
    vertex -12.7 2.8199664825478975e-15 1.5875
    vertex -12.7 2.8199664825478975e-15 4.762499999999999
  endloop
endfacet
facet normal 0.9914448613738105 -0.13052619222005188 4.697151821477766e-18
  outer loop
    vertex -12.267257993871166 3.287001872802016 1.5875
    vertex -12.7 2.8199664825478975e-15 4.762499999999999
    vertex -12.7 2.8199664825478975e-15 1.5875
  endloop
endfacet
facet normal 0.9914448613738105 -0.13052619222005188 4.697151821477766e-18
  outer loop
    vertex -12.7 2.8199664825478975e-15 4.762499999999999
    vertex -12.267257993871166 3.287001872802016 1.5875
    vertex -12.267257993871166 3.287001872802016 4.762499999999999
  endloop
endfacet
facet normal 0.7933533402912356 0.6087614290087202 0.0
  outer loop
    vertex 10.1027881362028 10.1027881362028 -1.5875
    vertex 12.373337956570166 7.14375 4.762499999999999
    vertex 12.373337956570166 7.14375 -1.5875
  endloop
endfacet
facet normal 0.7933533402912356 0.6087614290087202 0.0
  outer loop
    vertex 12.373337956570166 7.14375 4.762499999999999
    vertex 10.1027881362028 10.1027881362028 -1.5875
    vertex 10.1027881362028 10.1027881362028 4.762499999999999
  endloop
endfacet
facet normal -0.6087614290087203 0.7933533402912356 -1.0862051062326337e-17
  outer loop
    vertex 6.349999999999991 -10.998522628062375 4.762499999999999
    vertex 8.980256121069152 -8.980256121069155 1.5875
    vertex 6.349999999999991 -10.998522628062375 1.5875
  endloop
endfacet
facet normal -0.6087614290087203 0.7933533402912356 -1.0862051062326337e-17
  outer loop
    vertex 8.980256121069152 -8.980256121069155 1.5875
    vertex 6.349999999999991 -10.998522628062375 4.762499999999999
    vertex 8.980256121069152 -8.980256121069155 4.762499999999999
  endloop
endfacet
facet normal -0.9914448613738105 0.13052619222005193 7.645522123469298e-18
  outer loop
    vertex 12.7 0.0 4.762499999999999
    vertex 12.267257993871166 -3.2870018728020245 1.5875
    vertex 12.267257993871166 -3.2870018728020245 4.762499999999999
  endloop
endfacet
facet normal -0.9914448613738105 0.13052619222005193 7.645522123469298e-18
  outer loop
    vertex 12.267257993871166 -3.2870018728020245 1.5875
    vertex 12.7 0.0 4.762499999999999
    vertex 12.7 0.0 1.5875
  endloop
endfacet
facet normal -0.7933533402912353 -0.6087614290087205 -9.437133697013626e-18
  outer loop
    vertex 8.980256121069152 8.980256121069152 4.762499999999999
    vertex 10.998522628062373 6.35 1.5875
    vertex 10.998522628062373 6.35 4.762499999999999
  endloop
endfacet
facet normal -0.7933533402912353 -0.6087614290087205 -9.437133697013626e-18
  outer loop
    vertex 10.998522628062373 6.35 1.5875
    vertex 8.980256121069152 8.980256121069152 4.762499999999999
    vertex 8.980256121069152 8.980256121069152 1.5875
  endloop
endfacet
facet normal -0.7933533402912352 0.6087614290087207 0.0
  outer loop
    vertex -10.102788136202797 10.1027881362028 4.762499999999999
    vertex -12.373337956570165 7.143750000000005 -1.5875
    vertex -12.373337956570165 7.143750000000005 4.762499999999999
  endloop
endfacet
facet normal -0.7933533402912352 0.6087614290087207 0.0
  outer loop
    vertex -12.373337956570165 7.143750000000005 -1.5875
    vertex -10.102788136202797 10.1027881362028 4.762499999999999
    vertex -10.102788136202797 10.1027881362028 -1.5875
  endloop
endfacet
facet normal 0.38268343236509045 0.9238795325112865 3.241706084572509e-17
  outer loop
    vertex -6.350000000000005 -10.998522628062366 4.762499999999999
    vertex -3.287001872802023 -12.267257993871164 1.5875
    vertex -6.350000000000005 -10.998522628062366 1.5875
  endloop
endfacet
facet normal 0.38268343236509045 0.9238795325112865 3.241706084572509e-17
  outer loop
    vertex -3.287001872802023 -12.267257993871164 1.5875
    vertex -6.350000000000005 -10.998522628062366 4.762499999999999
    vertex -3.287001872802023 -12.267257993871164 4.762499999999999
  endloop
endfacet
facet normal 0.38268343236508967 0.9238795325112867 0.0
  outer loop
    vertex 3.697877106902269 13.800665243105064 4.762499999999999
    vertex 7.14375 12.373337956570166 -1.5875
    vertex 3.697877106902269 13.800665243105064 -1.5875
  endloop
endfacet
facet normal 0.38268343236508967 0.9238795325112867 0.0
  outer loop
    vertex 7.14375 12.373337956570166 -1.5875
    vertex 3.697877106902269 13.800665243105064 4.762499999999999
    vertex 7.14375 12.373337956570166 4.762499999999999
  endloop
endfacet
facet normal -0.3826834323650897 -0.9238795325112867 6.828170749622738e-18
  outer loop
    vertex 6.35 10.99852262806237 4.762499999999999
    vertex 3.287001872802016 12.267257993871166 1.5875
    vertex 6.35 10.99852262806237 1.5875
  endloop
endfacet
facet normal -0.3826834323650897 -0.9238795325112867 6.828170749622738e-18
  outer loop
    vertex 3.287001872802016 12.267257993871166 1.5875
    vertex 6.35 10.99852262806237 4.762499999999999
    vertex 3.287001872802016 12.267257993871166 4.762499999999999
  endloop
endfacet
facet normal -0.13052619222005182 -0.9914448613738105 -7.370925754978801e-19
  outer loop
    vertex 3.287001872802016 12.267257993871166 4.762499999999999
    vertex 0.0 12.7 1.5875
    vertex 3.287001872802016 12.267257993871166 1.5875
  endloop
endfacet
facet normal -0.13052619222005182 -0.9914448613738105 -7.370925754978801e-19
  outer loop
    vertex 0.0 12.7 1.5875
    vertex 3.287001872802016 12.267257993871166 4.762499999999999
    vertex 0.0 12.7 4.762499999999999
  endloop
endfacet
facet normal -0.6087614290087202 0.7933533402912356 0.0
  outer loop
    vertex -10.102788136202797 10.1027881362028 4.762499999999999
    vertex -7.143749999999997 12.373337956570166 -1.5875
    vertex -10.102788136202797 10.1027881362028 -1.5875
  endloop
endfacet
facet normal -0.6087614290087202 0.7933533402912356 0.0
  outer loop
    vertex -7.143749999999997 12.373337956570166 -1.5875
    vertex -10.102788136202797 10.1027881362028 4.762499999999999
    vertex -7.143749999999997 12.373337956570166 4.762499999999999
  endloop
endfacet
facet normal -0.3826834323650893 0.9238795325112868 -6.8281707496227754e-18
  outer loop
    vertex 3.2870018728020076 -12.267257993871167 4.762499999999999
    vertex 6.349999999999991 -10.998522628062375 1.5875
    vertex 3.2870018728020076 -12.267257993871167 1.5875
  endloop
endfacet
facet normal -0.3826834323650893 0.9238795325112868 -6.8281707496227754e-18
  outer loop
    vertex 6.349999999999991 -10.998522628062375 1.5875
    vertex 3.2870018728020076 -12.267257993871167 4.762499999999999
    vertex 6.349999999999991 -10.998522628062375 4.762499999999999
  endloop
endfacet
facet normal 0.13052619222005157 -0.9914448613738105 2.0543655159276447e-18
  outer loop
    vertex 0.0 12.7 4.762499999999999
    vertex -3.2870018728020116 12.267257993871166 1.5875
    vertex 0.0 12.7 1.5875
  endloop
endfacet
facet normal 0.13052619222005157 -0.9914448613738105 2.0543655159276447e-18
  outer loop
    vertex -3.2870018728020116 12.267257993871166 1.5875
    vertex 0.0 12.7 4.762499999999999
    vertex -3.2870018728020116 12.267257993871166 4.762499999999999
  endloop
endfacet
facet normal -0.13052619222005124 0.9914448613738105 3.222966670482e-18
  outer loop
    vertex -2.8199664825478975e-15 -12.7 4.762499999999999
    vertex 3.2870018728020076 -12.267257993871167 1.5875
    vertex -2.8199664825478975e-15 -12.7 1.5875
  endloop
endfacet
facet normal -0.13052619222005124 0.9914448613738105 3.222966670482e-18
  outer loop
    vertex 3.2870018728020076 -12.267257993871167 1.5875
    vertex -2.8199664825478975e-15 -12.7 4.762499999999999
    vertex 3.2870018728020076 -12.267257993871167 4.762499999999999
  endloop
endfacet
facet normal -0.9238795325112867 0.3826834323650899 0.0
  outer loop
    vertex -12.373337956570165 7.143750000000005 4.762499999999999
    vertex -13.80066524310506 3.697877106902269 -1.5875
    vertex -13.80066524310506 3.697877106902269 4.762499999999999
  endloop
endfacet
facet normal -0.9238795325112867 0.3826834323650899 0.0
  outer loop
    vertex -13.80066524310506 3.697877106902269 -1.5875
    vertex -12.373337956570165 7.143750000000005 4.762499999999999
    vertex -12.373337956570165 7.143750000000005 -1.5875
  endloop
endfacet
facet normal 0.3826834323650897 -0.9238795325112867 -7.770944393187161e-18
  outer loop
    vertex -3.2870018728020116 12.267257993871166 4.762499999999999
    vertex -6.349999999999997 10.998522628062373 1.5875
    vertex -3.2870018728020116 12.267257993871166 1.5875
  endloop
endfacet
facet normal 0.3826834323650897 -0.9238795325112867 -7.770944393187161e-18
  outer loop
    vertex -6.349999999999997 10.998522628062373 1.5875
    vertex -3.2870018728020116 12.267257993871166 4.762499999999999
    vertex -6.349999999999997 10.998522628062373 4.762499999999999
  endloop
endfacet
facet normal 0.7933533402912352 -0.6087614290087209 0.0
  outer loop
    vertex 12.373337956570161 -7.143750000000005 -1.5875
    vertex 10.102788136202793 -10.1027881362028 4.762499999999999
    vertex 10.102788136202793 -10.1027881362028 -1.5875
  endloop
endfacet
facet normal 0.7933533402912352 -0.6087614290087209 0.0
  outer loop
    vertex 10.102788136202793 -10.1027881362028 4.762499999999999
    vertex 12.373337956570161 -7.143750000000005 -1.5875
    vertex 12.373337956570161 -7.143750000000005 4.762499999999999
  endloop
endfacet
facet normal 0.6087614290087203 -0.7933533402912355 0.0
  outer loop
    vertex 10.102788136202793 -10.1027881362028 4.762499999999999
    vertex 7.143749999999988 -12.373337956570172 -1.5875
    vertex 10.102788136202793 -10.1027881362028 -1.5875
  endloop
endfacet
facet normal 0.6087614290087203 -0.7933533402912355 0.0
  outer loop
    vertex 7.143749999999988 -12.373337956570172 -1.5875
    vertex 10.102788136202793 -10.1027881362028 4.762499999999999
    vertex 7.143749999999988 -12.373337956570172 4.762499999999999
  endloop
endfacet
facet normal -0.3826834323650907 -0.9238795325112863 -0.0
  outer loop
    vertex -3.697877106902276 -13.80066524310506 4.762499999999999
    vertex -7.143750000000005 -12.373337956570163 -1.5875
    vertex -3.697877106902276 -13.80066524310506 -1.5875
  endloop
endfacet
facet normal -0.3826834323650907 -0.9238795325112863 -0.0
  outer loop
    vertex -7.143750000000005 -12.373337956570163 -1.5875
    vertex -3.697877106902276 -13.80066524310506 4.762499999999999
    vertex -7.143750000000005 -12.373337956570163 4.762499999999999
  endloop
endfacet
facet normal -0.13052619222005185 -0.9914448613738105 -0.0
  outer loop
    vertex -2.8199664825478975e-15 -14.2875 4.762499999999999
    vertex -3.697877106902276 -13.80066524310506 -1.5875
    vertex -2.8199664825478975e-15 -14.2875 -1.5875
  endloop
endfacet
facet normal -0.13052619222005185 -0.9914448613738105 -0.0
  outer loop
    vertex -3.697877106902276 -13.80066524310506 -1.5875
    vertex -2.8199664825478975e-15 -14.2875 4.762499999999999
    vertex -3.697877106902276 -13.80066524310506 4.762499999999999
  endloop
endfacet
facet normal 0.9238795325112864 -0.3826834323650908 0.0
  outer loop
    vertex 13.800665243105064 -3.6978771069022773 -1.5875
    vertex 12.373337956570161 -7.143750000000005 4.762499999999999
    vertex 12.373337956570161 -7.143750000000005 -1.5875
  endloop
endfacet
facet normal 0.9238795325112864 -0.3826834323650908 0.0
  outer loop
    vertex 12.373337956570161 -7.143750000000005 4.762499999999999
    vertex 13.800665243105064 -3.6978771069022773 -1.5875
    vertex 13.800665243105064 -3.6978771069022773 4.762499999999999
  endloop
endfacet
facet normal -0.608761429008721 -0.7933533402912349 -0.0
  outer loop
    vertex -7.143750000000005 -12.373337956570163 4.762499999999999
    vertex -10.102788136202802 -10.102788136202792 -1.5875
    vertex -7.143750000000005 -12.373337956570163 -1.5875
  endloop
endfacet
facet normal -0.608761429008721 -0.7933533402912349 -0.0
  outer loop
    vertex -10.102788136202802 -10.102788136202792 -1.5875
    vertex -7.143750000000005 -12.373337956570163 4.762499999999999
    vertex -10.102788136202802 -10.102788136202792 4.762499999999999
  endloop
endfacet
facet normal -0.7933533402912353 -0.6087614290087204 -0.0
  outer loop
    vertex -12.37333795657017 -7.143749999999995 4.762499999999999
    vertex -10.102788136202802 -10.102788136202792 -1.5875
    vertex -10.102788136202802 -10.102788136202792 4.762499999999999
  endloop
endfacet
facet normal -0.7933533402912353 -0.6087614290087204 -0.0
  outer loop
    vertex -10.102788136202802 -10.102788136202792 -1.5875
    vertex -12.37333795657017 -7.143749999999995 4.762499999999999
    vertex -12.37333795657017 -7.143749999999995 -1.5875
  endloop
endfacet
facet normal -0.9238795325112872 -0.38268343236508917 -0.0
  outer loop
    vertex -13.800665243105064 -3.697877106902259 4.762499999999999
    vertex -12.37333795657017 -7.143749999999995 -1.5875
    vertex -12.37333795657017 -7.143749999999995 4.762499999999999
  endloop
endfacet
facet normal -0.9238795325112872 -0.38268343236508917 -0.0
  outer loop
    vertex -12.37333795657017 -7.143749999999995 -1.5875
    vertex -13.800665243105064 -3.697877106902259 4.762499999999999
    vertex -13.800665243105064 -3.697877106902259 -1.5875
  endloop
endfacet
facet normal 0.9914448613738105 0.13052619222005138 0.0
  outer loop
    vertex 13.800665243105064 3.6978771069022636 -1.5875
    vertex 14.2875 0.0 4.762499999999999
    vertex 14.2875 0.0 -1.5875
  endloop
endfacet
facet normal 0.9914448613738105 0.13052619222005138 0.0
  outer loop
    vertex 14.2875 0.0 4.762499999999999
    vertex 13.800665243105064 3.6978771069022636 -1.5875
    vertex 13.800665243105064 3.6978771069022636 4.762499999999999
  endloop
endfacet
facet normal 0.9238795325112866 0.38268343236509 0.0
  outer loop
    vertex 12.373337956570166 7.14375 -1.5875
    vertex 13.800665243105064 3.6978771069022636 4.762499999999999
    vertex 13.800665243105064 3.6978771069022636 -1.5875
  endloop
endfacet
facet normal 0.9238795325112866 0.38268343236509 0.0
  outer loop
    vertex 13.800665243105064 3.6978771069022636 4.762499999999999
    vertex 12.373337956570166 7.14375 -1.5875
    vertex 12.373337956570166 7.14375 4.762499999999999
  endloop
endfacet
facet normal 0.9914448613738105 -0.1305261922200517 0.0
  outer loop
    vertex 14.2875 0.0 -1.5875
    vertex 13.800665243105064 -3.6978771069022773 4.762499999999999
    vertex 13.800665243105064 -3.6978771069022773 -1.5875
  endloop
endfacet
facet normal 0.9914448613738105 -0.1305261922200517 0.0
  outer loop
    vertex 13.800665243105064 -3.6978771069022773 4.762499999999999
    vertex 14.2875 0.0 -1.5875
    vertex 14.2875 0.0 4.762499999999999
  endloop
endfacet
facet normal 0.1305261922200515 -0.9914448613738104 0.0
  outer loop
    vertex 3.697877106902258 -13.800665243105064 4.762499999999999
    vertex -2.8199664825478975e-15 -14.2875 -1.5875
    vertex 3.697877106902258 -13.800665243105064 -1.5875
  endloop
endfacet
facet normal 0.1305261922200515 -0.9914448613738104 0.0
  outer loop
    vertex -2.8199664825478975e-15 -14.2875 -1.5875
    vertex 3.697877106902258 -13.800665243105064 4.762499999999999
    vertex -2.8199664825478975e-15 -14.2875 4.762499999999999
  endloop
endfacet
facet normal 0.3826834323650889 -0.9238795325112871 0.0
  outer loop
    vertex 7.143749999999988 -12.373337956570172 4.762499999999999
    vertex 3.697877106902258 -13.800665243105064 -1.5875
    vertex 7.143749999999988 -12.373337956570172 -1.5875
  endloop
endfacet
facet normal 0.3826834323650889 -0.9238795325112871 0.0
  outer loop
    vertex 3.697877106902258 -13.800665243105064 -1.5875
    vertex 7.143749999999988 -12.373337956570172 4.762499999999999
    vertex 3.697877106902258 -13.800665243105064 4.762499999999999
  endloop
endfacet
facet normal 0.0 0.0 -1.0
  outer loop
    vertex -12.267257993871166 3.287001872802016 0.0
    vertex -12.267257993871167 -3.2870018728020076 0.0
    vertex -12.7 2.8199664825478975e-15 0.0
  endloop
endfacet
facet normal 0.0 0.0 -1.0
  outer loop
    vertex -12.267257993871167 -3.2870018728020076 0.0
    vertex -12.267257993871166 3.287001872802016 0.0
    vertex -10.998522628062373 -6.349999999999997 0.0
  endloop
endfacet
facet normal 0.0 0.0 -1.0
  outer loop
    vertex -10.998522628062373 -6.349999999999997 0.0
    vertex -12.267257993871166 3.287001872802016 0.0
    vertex -10.998522628062368 6.350000000000005 0.0
  endloop
endfacet
facet normal 0.0 0.0 -1.0
  outer loop
    vertex -10.998522628062373 -6.349999999999997 0.0
    vertex -10.998522628062368 6.350000000000005 0.0
    vertex -8.980256121069157 -8.980256121069148 0.0
  endloop
endfacet
facet normal 0.0 0.0 -1.0
  outer loop
    vertex -8.980256121069157 -8.980256121069148 0.0
    vertex -10.998522628062368 6.350000000000005 0.0
    vertex -8.980256121069152 8.980256121069152 0.0
  endloop
endfacet
facet normal 0.0 0.0 -1.0
  outer loop
    vertex -8.980256121069157 -8.980256121069148 0.0
    vertex -8.980256121069152 8.980256121069152 0.0
    vertex -6.350000000000005 -10.998522628062366 0.0
  endloop
endfacet
facet normal 0.0 0.0 -1.0
  outer loop
    vertex -6.350000000000005 -10.998522628062366 0.0
    vertex -8.980256121069152 8.980256121069152 0.0
    vertex -6.349999999999997 10.998522628062373 0.0
  endloop
endfacet
facet normal 0.0 0.0 -1.0
  outer loop
    vertex -6.350000000000005 -10.998522628062366 0.0
    vertex -6.349999999999997 10.998522628062373 0.0
    vertex -3.287001872802023 -12.267257993871164 0.0
  endloop
endfacet
facet normal 0.0 0.0 -1.0
  outer loop
    vertex -3.287001872802023 -12.267257993871164 0.0
    vertex -6.349999999999997 10.998522628062373 0.0
    vertex -3.2870018728020116 12.267257993871166 0.0
  endloop
endfacet
facet normal 0.0 0.0 -1.0
  outer loop
    vertex -3.287001872802023 -12.267257993871164 0.0
    vertex -3.2870018728020116 12.267257993871166 0.0
    vertex -2.8199664825478975e-15 -12.7 0.0
  endloop
endfacet
facet normal 0.0 0.0 -1.0
  outer loop
    vertex -2.8199664825478975e-15 -12.7 0.0
    vertex -3.2870018728020116 12.267257993871166 0.0
    vertex 0.0 12.7 0.0
  endloop
endfacet
facet normal 0.0 0.0 -1.0
  outer loop
    vertex -2.8199664825478975e-15 -12.7 0.0
    vertex 0.0 12.7 0.0
    vertex 3.2870018728020076 -12.267257993871167 0.0
  endloop
endfacet
facet normal 0.0 0.0 -1.0
  outer loop
    vertex 3.2870018728020076 -12.267257993871167 0.0
    vertex 0.0 12.7 0.0
    vertex 3.287001872802016 12.267257993871166 0.0
  endloop
endfacet
facet normal 0.0 0.0 -1.0
  outer loop
    vertex 3.2870018728020076 -12.267257993871167 0.0
    vertex 3.287001872802016 12.267257993871166 0.0
    vertex 6.349999999999991 -10.998522628062375 0.0
  endloop
endfacet
facet normal 0.0 0.0 -1.0
  outer loop
    vertex 6.349999999999991 -10.998522628062375 0.0
    vertex 3.287001872802016 12.267257993871166 0.0
    vertex 6.35 10.99852262806237 0.0
  endloop
endfacet
facet normal 0.0 0.0 -1.0
  outer loop
    vertex 6.349999999999991 -10.998522628062375 0.0
    vertex 6.35 10.99852262806237 0.0
    vertex 8.980256121069152 -8.980256121069155 0.0
  endloop
endfacet
facet normal 0.0 0.0 -1.0
  outer loop
    vertex 8.980256121069152 -8.980256121069155 0.0
    vertex 6.35 10.99852262806237 0.0
    vertex 8.980256121069152 8.980256121069152 0.0
  endloop
endfacet
facet normal 0.0 0.0 -1.0
  outer loop
    vertex 8.980256121069152 -8.980256121069155 0.0
    vertex 8.980256121069152 8.980256121069152 0.0
    vertex 10.998522628062373 6.35 0.0
  endloop
endfacet
facet normal 0.0 0.0 -1.0
  outer loop
    vertex 8.980256121069152 -8.980256121069155 0.0
    vertex 10.998522628062373 6.35 0.0
    vertex 10.998522628062366 -6.350000000000005 0.0
  endloop
endfacet
facet normal 0.0 0.0 -1.0
  outer loop
    vertex 10.998522628062366 -6.350000000000005 0.0
    vertex 10.998522628062373 6.35 0.0
    vertex 12.267257993871166 -3.2870018728020245 0.0
  endloop
endfacet
facet normal 0.0 0.0 -1.0
  outer loop
    vertex 12.267257993871166 -3.2870018728020245 0.0
    vertex 10.998522628062373 6.35 0.0
    vertex 12.267257993871166 3.2870018728020134 0.0
  endloop
endfacet
facet normal 0.0 0.0 -1.0
  outer loop
    vertex 12.267257993871166 -3.2870018728020245 0.0
    vertex 12.267257993871166 3.2870018728020134 0.0
    vertex 12.7 0.0 0.0
  endloop
endfacet
facet normal 0.0 0.0 1.0
  outer loop
    vertex -13.800665243105064 -3.697877106902259 4.762499999999999
    vertex -13.80066524310506 3.697877106902269 4.762499999999999
    vertex -14.2875 2.8199664825478975e-15 4.762499999999999
  endloop
endfacet
facet normal 0.0 0.0 1.0
  outer loop
    vertex -13.80066524310506 3.697877106902269 4.762499999999999
    vertex -13.800665243105064 -3.697877106902259 4.762499999999999
    vertex -12.37333795657017 -7.143749999999995 4.762499999999999
  endloop
endfacet
facet normal 0.0 0.0 1.0
  outer loop
    vertex -13.80066524310506 3.697877106902269 4.762499999999999
    vertex -12.37333795657017 -7.143749999999995 4.762499999999999
    vertex -12.7 2.8199664825478975e-15 4.762499999999999
  endloop
endfacet
facet normal 0.0 0.0 1.0
  outer loop
    vertex -12.7 2.8199664825478975e-15 4.762499999999999
    vertex -12.37333795657017 -7.143749999999995 4.762499999999999
    vertex -12.267257993871167 -3.2870018728020076 4.762499999999999
  endloop
endfacet
facet normal 0.0 0.0 1.0
  outer loop
    vertex -12.267257993871167 -3.2870018728020076 4.762499999999999
    vertex -12.37333795657017 -7.143749999999995 4.762499999999999
    vertex -10.102788136202802 -10.102788136202792 4.762499999999999
  endloop
endfacet
facet normal 0.0 0.0 1.0
  outer loop
    vertex -12.267257993871167 -3.2870018728020076 4.762499999999999
    vertex -10.102788136202802 -10.102788136202792 4.762499999999999
    vertex -10.998522628062373 -6.349999999999997 4.762499999999999
  endloop
endfacet
facet normal 0.0 0.0 1.0
  outer loop
    vertex -10.998522628062373 -6.349999999999997 4.762499999999999
    vertex -10.102788136202802 -10.102788136202792 4.762499999999999
    vertex -8.980256121069157 -8.980256121069148 4.762499999999999
  endloop
endfacet
facet normal 0.0 0.0 1.0
  outer loop
    vertex -8.980256121069157 -8.980256121069148 4.762499999999999
    vertex -10.102788136202802 -10.102788136202792 4.762499999999999
    vertex -7.143750000000005 -12.373337956570163 4.762499999999999
  endloop
endfacet
facet normal 0.0 0.0 1.0
  outer loop
    vertex -8.980256121069157 -8.980256121069148 4.762499999999999
    vertex -7.143750000000005 -12.373337956570163 4.762499999999999
    vertex -6.350000000000005 -10.998522628062366 4.762499999999999
  endloop
endfacet
facet normal 0.0 0.0 1.0
  outer loop
    vertex -6.350000000000005 -10.998522628062366 4.762499999999999
    vertex -7.143750000000005 -12.373337956570163 4.762499999999999
    vertex -3.697877106902276 -13.80066524310506 4.762499999999999
  endloop
endfacet
facet normal 0.0 0.0 1.0
  outer loop
    vertex -6.350000000000005 -10.998522628062366 4.762499999999999
    vertex -3.697877106902276 -13.80066524310506 4.762499999999999
    vertex -3.287001872802023 -12.267257993871164 4.762499999999999
  endloop
endfacet
facet normal 0.0 0.0 1.0
  outer loop
    vertex -3.287001872802023 -12.267257993871164 4.762499999999999
    vertex -3.697877106902276 -13.80066524310506 4.762499999999999
    vertex -2.8199664825478975e-15 -14.2875 4.762499999999999
  endloop
endfacet
facet normal 0.0 0.0 1.0
  outer loop
    vertex -3.287001872802023 -12.267257993871164 4.762499999999999
    vertex -2.8199664825478975e-15 -14.2875 4.762499999999999
    vertex -2.8199664825478975e-15 -12.7 4.762499999999999
  endloop
endfacet
facet normal 0.0 0.0 1.0
  outer loop
    vertex -2.8199664825478975e-15 -12.7 4.762499999999999
    vertex -2.8199664825478975e-15 -14.2875 4.762499999999999
    vertex 3.697877106902258 -13.800665243105064 4.762499999999999
  endloop
endfacet
facet normal 0.0 0.0 1.0
  outer loop
    vertex -2.8199664825478975e-15 -12.7 4.762499999999999
    vertex 3.697877106902258 -13.800665243105064 4.762499999999999
    vertex 3.2870018728020076 -12.267257993871167 4.762499999999999
  endloop
endfacet
facet normal 0.0 0.0 1.0
  outer loop
    vertex 3.2870018728020076 -12.267257993871167 4.762499999999999
    vertex 3.697877106902258 -13.800665243105064 4.762499999999999
    vertex 6.349999999999991 -10.998522628062375 4.762499999999999
  endloop
endfacet
facet normal 0.0 0.0 1.0
  outer loop
    vertex 6.349999999999991 -10.998522628062375 4.762499999999999
    vertex 3.697877106902258 -13.800665243105064 4.762499999999999
    vertex 7.143749999999988 -12.373337956570172 4.762499999999999
  endloop
endfacet
facet normal 0.0 0.0 1.0
  outer loop
    vertex 6.349999999999991 -10.998522628062375 4.762499999999999
    vertex 7.143749999999988 -12.373337956570172 4.762499999999999
    vertex 8.980256121069152 -8.980256121069155 4.762499999999999
  endloop
endfacet
facet normal 0.0 0.0 1.0
  outer loop
    vertex 8.980256121069152 -8.980256121069155 4.762499999999999
    vertex 7.143749999999988 -12.373337956570172 4.762499999999999
    vertex 10.102788136202793 -10.1027881362028 4.762499999999999
  endloop
endfacet
facet normal 0.0 0.0 1.0
  outer loop
    vertex 8.980256121069152 -8.980256121069155 4.762499999999999
    vertex 10.102788136202793 -10.1027881362028 4.762499999999999
    vertex 10.998522628062366 -6.350000000000005 4.762499999999999
  endloop
endfacet
facet normal 0.0 0.0 1.0
  outer loop
    vertex 10.998522628062366 -6.350000000000005 4.762499999999999
    vertex 10.102788136202793 -10.1027881362028 4.762499999999999
    vertex 12.373337956570161 -7.143750000000005 4.762499999999999
  endloop
endfacet
facet normal 0.0 0.0 1.0
  outer loop
    vertex 10.998522628062366 -6.350000000000005 4.762499999999999
    vertex 12.373337956570161 -7.143750000000005 4.762499999999999
    vertex 12.267257993871166 -3.2870018728020245 4.762499999999999
  endloop
endfacet
facet normal 0.0 0.0 1.0
  outer loop
    vertex 12.267257993871166 -3.2870018728020245 4.762499999999999
    vertex 12.373337956570161 -7.143750000000005 4.762499999999999
    vertex 12.7 0.0 4.762499999999999
  endloop
endfacet
facet normal 0.0 0.0 1.0
  outer loop
    vertex 12.7 0.0 4.762499999999999
    vertex 12.373337956570161 -7.143750000000005 4.762499999999999
    vertex 13.800665243105064 -3.6978771069022773 4.762499999999999
  endloop
endfacet
facet normal 0.0 0.0 1.0
  outer loop
    vertex -12.7 2.8199664825478975e-15 4.762499999999999
    vertex -12.373337956570165 7.143750000000005 4.762499999999999
    vertex -13.80066524310506 3.697877106902269 4.762499999999999
  endloop
endfacet
facet normal 0.0 0.0 1.0
  outer loop
    vertex -12.373337956570165 7.143750000000005 4.762499999999999
    vertex -12.7 2.8199664825478975e-15 4.762499999999999
    vertex -12.267257993871166 3.287001872802016 4.762499999999999
  endloop
endfacet
facet normal 0.0 0.0 1.0
  outer loop
    vertex -12.373337956570165 7.143750000000005 4.762499999999999
    vertex -12.267257993871166 3.287001872802016 4.762499999999999
    vertex -10.102788136202797 10.1027881362028 4.762499999999999
  endloop
endfacet
facet normal 0.0 0.0 1.0
  outer loop
    vertex -10.102788136202797 10.1027881362028 4.762499999999999
    vertex -12.267257993871166 3.287001872802016 4.762499999999999
    vertex -10.998522628062368 6.350000000000005 4.762499999999999
  endloop
endfacet
facet normal 0.0 0.0 1.0
  outer loop
    vertex -10.102788136202797 10.1027881362028 4.762499999999999
    vertex -10.998522628062368 6.350000000000005 4.762499999999999
    vertex -8.980256121069152 8.980256121069152 4.762499999999999
  endloop
endfacet
facet normal 0.0 0.0 1.0
  outer loop
    vertex -10.102788136202797 10.1027881362028 4.762499999999999
    vertex -8.980256121069152 8.980256121069152 4.762499999999999
    vertex -7.143749999999997 12.373337956570166 4.762499999999999
  endloop
endfacet
facet normal 0.0 0.0 1.0
  outer loop
    vertex -7.143749999999997 12.373337956570166 4.762499999999999
    vertex -8.980256121069152 8.980256121069152 4.762499999999999
    vertex -6.349999999999997 10.998522628062373 4.762499999999999
  endloop
endfacet
facet normal 0.0 0.0 1.0
  outer loop
    vertex -7.143749999999997 12.373337956570166 4.762499999999999
    vertex -6.349999999999997 10.998522628062373 4.762499999999999
    vertex -3.6978771069022636 13.800665243105064 4.762499999999999
  endloop
endfacet
facet normal 0.0 0.0 1.0
  outer loop
    vertex -3.6978771069022636 13.800665243105064 4.762499999999999
    vertex -6.349999999999997 10.998522628062373 4.762499999999999
    vertex -3.2870018728020116 12.267257993871166 4.762499999999999
  endloop
endfacet
facet normal 0.0 0.0 1.0
  outer loop
    vertex -3.6978771069022636 13.800665243105064 4.762499999999999
    vertex -3.2870018728020116 12.267257993871166 4.762499999999999
    vertex 0.0 14.2875 4.762499999999999
  endloop
endfacet
facet normal 0.0 0.0 1.0
  outer loop
    vertex 0.0 14.2875 4.762499999999999
    vertex -3.2870018728020116 12.267257993871166 4.762499999999999
    vertex 0.0 12.7 4.762499999999999
  endloop
endfacet
facet normal 0.0 0.0 1.0
  outer loop
    vertex 0.0 14.2875 4.762499999999999
    vertex 0.0 12.7 4.762499999999999
    vertex 3.287001872802016 12.267257993871166 4.762499999999999
  endloop
endfacet
facet normal 0.0 0.0 1.0
  outer loop
    vertex 0.0 14.2875 4.762499999999999
    vertex 3.287001872802016 12.267257993871166 4.762499999999999
    vertex 3.697877106902269 13.800665243105064 4.762499999999999
  endloop
endfacet
facet normal 0.0 0.0 1.0
  outer loop
    vertex 3.697877106902269 13.800665243105064 4.762499999999999
    vertex 3.287001872802016 12.267257993871166 4.762499999999999
    vertex 6.35 10.99852262806237 4.762499999999999
  endloop
endfacet
facet normal 0.0 0.0 1.0
  outer loop
    vertex 3.697877106902269 13.800665243105064 4.762499999999999
    vertex 6.35 10.99852262806237 4.762499999999999
    vertex 7.14375 12.373337956570166 4.762499999999999
  endloop
endfacet
facet normal 0.0 0.0 1.0
  outer loop
    vertex 7.14375 12.373337956570166 4.762499999999999
    vertex 6.35 10.99852262806237 4.762499999999999
    vertex 8.980256121069152 8.980256121069152 4.762499999999999
  endloop
endfacet
facet normal 0.0 0.0 1.0
  outer loop
    vertex 7.14375 12.373337956570166 4.762499999999999
    vertex 8.980256121069152 8.980256121069152 4.762499999999999
    vertex 10.1027881362028 10.1027881362028 4.762499999999999
  endloop
endfacet
facet normal 0.0 0.0 1.0
  outer loop
    vertex 10.1027881362028 10.1027881362028 4.762499999999999
    vertex 8.980256121069152 8.980256121069152 4.762499999999999
    vertex 10.998522628062373 6.35 4.762499999999999
  endloop
endfacet
facet normal 0.0 0.0 1.0
  outer loop
    vertex 10.1027881362028 10.1027881362028 4.762499999999999
    vertex 10.998522628062373 6.35 4.762499999999999
    vertex 12.373337956570166 7.14375 4.762499999999999
  endloop
endfacet
facet normal 0.0 0.0 1.0
  outer loop
    vertex 12.373337956570166 7.14375 4.762499999999999
    vertex 10.998522628062373 6.35 4.762499999999999
    vertex 12.267257993871166 3.2870018728020134 4.762499999999999
  endloop
endfacet
facet normal 0.0 0.0 1.0
  outer loop
    vertex 12.373337956570166 7.14375 4.762499999999999
    vertex 12.267257993871166 3.2870018728020134 4.762499999999999
    vertex 12.7 0.0 4.762499999999999
  endloop
endfacet
facet normal 0.0 0.0 1.0
  outer loop
    vertex 12.373337956570166 7.14375 4.762499999999999
    vertex 12.7 0.0 4.762499999999999
    vertex 13.800665243105064 3.6978771069022636 4.762499999999999
  endloop
endfacet
facet normal 0.0 0.0 1.0
  outer loop
    vertex 13.800665243105064 3.6978771069022636 4.762499999999999
    vertex 12.7 0.0 4.762499999999999
    vertex 13.800665243105064 -3.6978771069022773 4.762499999999999
  endloop
endfacet
facet normal 0.0 0.0 1.0
  outer loop
    vertex 13.800665243105064 3.6978771069022636 4.762499999999999
    vertex 13.800665243105064 -3.6978771069022773 4.762499999999999
    vertex 14.2875 0.0 4.762499999999999
  endloop
endfacet
facet normal -0.3826834323650898 -0.9238795325112867 -0.0
  outer loop
    vertex 6.35 10.99852262806237 0.0
    vertex 3.287001872802016 12.267257993871166 -1.5875
    vertex 6.35 10.99852262806237 -1.5875
  endloop
endfacet
facet normal -0.3826834323650898 -0.9238795325112867 -0.0
  outer loop
    vertex 3.287001872802016 12.267257993871166 -1.5875
    vertex 6.35 10.99852262806237 0.0
    vertex 3.287001872802016 12.267257993871166 0.0
  endloop
endfacet
facet normal 0.0 0.0 1.0
  outer loop
    vertex -12.267257993871167 -3.2870018728020076 1.5875
    vertex -12.267257993871166 3.287001872802016 1.5875
    vertex -12.7 2.8199664825478975e-15 1.5875
  endloop
endfacet
facet normal 0.0 0.0 1.0
  outer loop
    vertex -12.267257993871166 3.287001872802016 1.5875
    vertex -12.267257993871167 -3.2870018728020076 1.5875
    vertex -10.998522628062373 -6.349999999999997 1.5875
  endloop
endfacet
facet normal 0.0 0.0 1.0
  outer loop
    vertex -12.267257993871166 3.287001872802016 1.5875
    vertex -10.998522628062373 -6.349999999999997 1.5875
    vertex -10.998522628062368 6.350000000000005 1.5875
  endloop
endfacet
facet normal 0.0 0.0 1.0
  outer loop
    vertex -10.998522628062368 6.350000000000005 1.5875
    vertex -10.998522628062373 -6.349999999999997 1.5875
    vertex -8.980256121069157 -8.980256121069148 1.5875
  endloop
endfacet
facet normal 0.0 0.0 1.0
  outer loop
    vertex -10.998522628062368 6.350000000000005 1.5875
    vertex -8.980256121069157 -8.980256121069148 1.5875
    vertex -8.980256121069152 8.980256121069152 1.5875
  endloop
endfacet
facet normal 0.0 0.0 1.0
  outer loop
    vertex -8.980256121069152 8.980256121069152 1.5875
    vertex -8.980256121069157 -8.980256121069148 1.5875
    vertex -6.350000000000005 -10.998522628062366 1.5875
  endloop
endfacet
facet normal 0.0 0.0 1.0
  outer loop
    vertex -8.980256121069152 8.980256121069152 1.5875
    vertex -6.350000000000005 -10.998522628062366 1.5875
    vertex -6.349999999999997 10.998522628062373 1.5875
  endloop
endfacet
facet normal 0.0 0.0 1.0
  outer loop
    vertex -6.349999999999997 10.998522628062373 1.5875
    vertex -6.350000000000005 -10.998522628062366 1.5875
    vertex -3.287001872802023 -12.267257993871164 1.5875
  endloop
endfacet
facet normal 0.0 0.0 1.0
  outer loop
    vertex -6.349999999999997 10.998522628062373 1.5875
    vertex -3.287001872802023 -12.267257993871164 1.5875
    vertex -3.2870018728020116 12.267257993871166 1.5875
  endloop
endfacet
facet normal 0.0 0.0 1.0
  outer loop
    vertex -3.2870018728020116 12.267257993871166 1.5875
    vertex -3.287001872802023 -12.267257993871164 1.5875
    vertex -2.8199664825478975e-15 -12.7 1.5875
  endloop
endfacet
facet normal 0.0 0.0 1.0
  outer loop
    vertex -3.2870018728020116 12.267257993871166 1.5875
    vertex -2.8199664825478975e-15 -12.7 1.5875
    vertex 0.0 12.7 1.5875
  endloop
endfacet
facet normal 0.0 0.0 1.0
  outer loop
    vertex 0.0 12.7 1.5875
    vertex -2.8199664825478975e-15 -12.7 1.5875
    vertex 3.2870018728020076 -12.267257993871167 1.5875
  endloop
endfacet
facet normal 0.0 0.0 1.0
  outer loop
    vertex 0.0 12.7 1.5875
    vertex 3.2870018728020076 -12.267257993871167 1.5875
    vertex 3.287001872802016 12.267257993871166 1.5875
  endloop
endfacet
facet normal 0.0 0.0 1.0
  outer loop
    vertex 3.287001872802016 12.267257993871166 1.5875
    vertex 3.2870018728020076 -12.267257993871167 1.5875
    vertex 6.349999999999991 -10.998522628062375 1.5875
  endloop
endfacet
facet normal 0.0 0.0 1.0
  outer loop
    vertex 3.287001872802016 12.267257993871166 1.5875
    vertex 6.349999999999991 -10.998522628062375 1.5875
    vertex 6.35 10.99852262806237 1.5875
  endloop
endfacet
facet normal 0.0 0.0 1.0
  outer loop
    vertex 6.35 10.99852262806237 1.5875
    vertex 6.349999999999991 -10.998522628062375 1.5875
    vertex 8.980256121069152 -8.980256121069155 1.5875
  endloop
endfacet
facet normal 0.0 0.0 1.0
  outer loop
    vertex 6.35 10.99852262806237 1.5875
    vertex 8.980256121069152 -8.980256121069155 1.5875
    vertex 8.980256121069152 8.980256121069152 1.5875
  endloop
endfacet
facet normal 0.0 0.0 1.0
  outer loop
    vertex 8.980256121069152 8.980256121069152 1.5875
    vertex 8.980256121069152 -8.980256121069155 1.5875
    vertex 10.998522628062366 -6.350000000000005 1.5875
  endloop
endfacet
facet normal 0.0 0.0 1.0
  outer loop
    vertex 8.980256121069152 8.980256121069152 1.5875
    vertex 10.998522628062366 -6.350000000000005 1.5875
    vertex 10.998522628062373 6.35 1.5875
  endloop
endfacet
facet normal 0.0 0.0 1.0
  outer loop
    vertex 10.998522628062373 6.35 1.5875
    vertex 10.998522628062366 -6.350000000000005 1.5875
    vertex 12.267257993871166 -3.2870018728020245 1.5875
  endloop
endfacet
facet normal 0.0 0.0 1.0
  outer loop
    vertex 10.998522628062373 6.35 1.5875
    vertex 12.267257993871166 -3.2870018728020245 1.5875
    vertex 12.267257993871166 3.2870018728020134 1.5875
  endloop
endfacet
facet normal 0.0 0.0 1.0
  outer loop
    vertex 12.267257993871166 3.2870018728020134 1.5875
    vertex 12.267257993871166 -3.2870018728020245 1.5875
    vertex 12.7 0.0 1.5875
  endloop
endfacet
facet normal 0.6087614290087211 0.7933533402912347 -3.620683687442123e-18
  outer loop
    vertex -8.980256121069157 -8.980256121069148 4.762499999999999
    vertex -6.350000000000005 -10.998522628062366 1.5875
    vertex -8.980256121069157 -8.980256121069148 1.5875
  endloop
endfacet
facet normal 0.6087614290087211 0.7933533402912347 -3.620683687442123e-18
  outer loop
    vertex -6.350000000000005 -10.998522628062366 1.5875
    vertex -8.980256121069157 -8.980256121069148 4.762499999999999
    vertex -6.350000000000005 -10.998522628062366 4.762499999999999
  endloop
endfacet
facet normal 0.9238795325112868 0.38268343236508945 1.3332832729765965e-18
  outer loop
    vertex -12.267257993871167 -3.2870018728020076 1.5875
    vertex -10.998522628062373 -6.349999999999997 4.762499999999999
    vertex -10.998522628062373 -6.349999999999997 1.5875
  endloop
endfacet
facet normal 0.9238795325112868 0.38268343236508945 1.3332832729765965e-18
  outer loop
    vertex -10.998522628062373 -6.349999999999997 4.762499999999999
    vertex -12.267257993871167 -3.2870018728020076 1.5875
    vertex -12.267257993871167 -3.2870018728020076 4.762499999999999
  endloop
endfacet
facet normal 0.7933533402912355 0.6087614290087204 1.4482734749768413e-17
  outer loop
    vertex -10.998522628062373 -6.349999999999997 1.5875
    vertex -8.980256121069157 -8.980256121069148 4.762499999999999
    vertex -8.980256121069157 -8.980256121069148 1.5875
  endloop
endfacet
facet normal 0.7933533402912355 0.6087614290087204 1.4482734749768413e-17
  outer loop
    vertex -8.980256121069157 -8.980256121069148 4.762499999999999
    vertex -10.998522628062373 -6.349999999999997 1.5875
    vertex -10.998522628062373 -6.349999999999997 4.762499999999999
  endloop
endfacet
facet normal 0.0 0.0 -1.0
  outer loop
    vertex -12.373337956570165 7.143750000000005 -1.5875
    vertex -12.7 2.8199664825478975e-15 -1.5875
    vertex -13.80066524310506 3.697877106902269 -1.5875
  endloop
endfacet
facet normal 0.0 0.0 -1.0
  outer loop
    vertex -12.7 2.8199664825478975e-15 -1.5875
    vertex -12.373337956570165 7.143750000000005 -1.5875
    vertex -12.267257993871166 3.287001872802016 -1.5875
  endloop
endfacet
facet normal 0.0 0.0 -1.0
  outer loop
    vertex -12.267257993871166 3.287001872802016 -1.5875
    vertex -12.373337956570165 7.143750000000005 -1.5875
    vertex -10.102788136202797 10.1027881362028 -1.5875
  endloop
endfacet
facet normal 0.0 0.0 -1.0
  outer loop
    vertex -12.267257993871166 3.287001872802016 -1.5875
    vertex -10.102788136202797 10.1027881362028 -1.5875
    vertex -10.998522628062368 6.350000000000005 -1.5875
  endloop
endfacet
facet normal 0.0 0.0 -1.0
  outer loop
    vertex -10.998522628062368 6.350000000000005 -1.5875
    vertex -10.102788136202797 10.1027881362028 -1.5875
    vertex -8.980256121069152 8.980256121069152 -1.5875
  endloop
endfacet
facet normal 0.0 0.0 -1.0
  outer loop
    vertex -8.980256121069152 8.980256121069152 -1.5875
    vertex -10.102788136202797 10.1027881362028 -1.5875
    vertex -7.143749999999997 12.373337956570166 -1.5875
  endloop
endfacet
facet normal 0.0 0.0 -1.0
  outer loop
    vertex -8.980256121069152 8.980256121069152 -1.5875
    vertex -7.143749999999997 12.373337956570166 -1.5875
    vertex -6.349999999999997 10.998522628062373 -1.5875
  endloop
endfacet
facet normal 0.0 0.0 -1.0
  outer loop
    vertex -6.349999999999997 10.998522628062373 -1.5875
    vertex -7.143749999999997 12.373337956570166 -1.5875
    vertex -3.6978771069022636 13.800665243105064 -1.5875
  endloop
endfacet
facet normal 0.0 0.0 -1.0
  outer loop
    vertex -6.349999999999997 10.998522628062373 -1.5875
    vertex -3.6978771069022636 13.800665243105064 -1.5875
    vertex -3.2870018728020116 12.267257993871166 -1.5875
  endloop
endfacet
facet normal 0.0 0.0 -1.0
  outer loop
    vertex -3.2870018728020116 12.267257993871166 -1.5875
    vertex -3.6978771069022636 13.800665243105064 -1.5875
    vertex 0.0 14.2875 -1.5875
  endloop
endfacet
facet normal 0.0 0.0 -1.0
  outer loop
    vertex -3.2870018728020116 12.267257993871166 -1.5875
    vertex 0.0 14.2875 -1.5875
    vertex 0.0 12.7 -1.5875
  endloop
endfacet
facet normal 0.0 0.0 -1.0
  outer loop
    vertex 0.0 12.7 -1.5875
    vertex 0.0 14.2875 -1.5875
    vertex 3.697877106902269 13.800665243105064 -1.5875
  endloop
endfacet
facet normal 0.0 0.0 -1.0
  outer loop
    vertex 0.0 12.7 -1.5875
    vertex 3.697877106902269 13.800665243105064 -1.5875
    vertex 3.287001872802016 12.267257993871166 -1.5875
  endloop
endfacet
facet normal 0.0 0.0 -1.0
  outer loop
    vertex 3.287001872802016 12.267257993871166 -1.5875
    vertex 3.697877106902269 13.800665243105064 -1.5875
    vertex 6.35 10.99852262806237 -1.5875
  endloop
endfacet
facet normal 0.0 0.0 -1.0
  outer loop
    vertex 6.35 10.99852262806237 -1.5875
    vertex 3.697877106902269 13.800665243105064 -1.5875
    vertex 7.14375 12.373337956570166 -1.5875
  endloop
endfacet
facet normal 0.0 0.0 -1.0
  outer loop
    vertex 6.35 10.99852262806237 -1.5875
    vertex 7.14375 12.373337956570166 -1.5875
    vertex 8.980256121069152 8.980256121069152 -1.5875
  endloop
endfacet
facet normal 0.0 0.0 -1.0
  outer loop
    vertex 8.980256121069152 8.980256121069152 -1.5875
    vertex 7.14375 12.373337956570166 -1.5875
    vertex 10.1027881362028 10.1027881362028 -1.5875
  endloop
endfacet
facet normal 0.0 0.0 -1.0
  outer loop
    vertex 8.980256121069152 8.980256121069152 -1.5875
    vertex 10.1027881362028 10.1027881362028 -1.5875
    vertex 10.998522628062373 6.35 -1.5875
  endloop
endfacet
facet normal 0.0 0.0 -1.0
  outer loop
    vertex 10.998522628062373 6.35 -1.5875
    vertex 10.1027881362028 10.1027881362028 -1.5875
    vertex 12.373337956570166 7.14375 -1.5875
  endloop
endfacet
facet normal 0.0 0.0 -1.0
  outer loop
    vertex 10.998522628062373 6.35 -1.5875
    vertex 12.373337956570166 7.14375 -1.5875
    vertex 12.267257993871166 3.2870018728020134 -1.5875
  endloop
endfacet
facet normal 0.0 0.0 -1.0
  outer loop
    vertex 12.267257993871166 3.2870018728020134 -1.5875
    vertex 12.373337956570166 7.14375 -1.5875
    vertex 12.7 0.0 -1.5875
  endloop
endfacet
facet normal 0.0 0.0 -1.0
  outer loop
    vertex 12.7 0.0 -1.5875
    vertex 12.373337956570166 7.14375 -1.5875
    vertex 13.800665243105064 3.6978771069022636 -1.5875
  endloop
endfacet
facet normal 0.0 0.0 -1.0
  outer loop
    vertex -13.80066524310506 3.697877106902269 -1.5875
    vertex -13.800665243105064 -3.697877106902259 -1.5875
    vertex -14.2875 2.8199664825478975e-15 -1.5875
  endloop
endfacet
facet normal 0.0 0.0 -1.0
  outer loop
    vertex -13.800665243105064 -3.697877106902259 -1.5875
    vertex -13.80066524310506 3.697877106902269 -1.5875
    vertex -12.37333795657017 -7.143749999999995 -1.5875
  endloop
endfacet
facet normal 0.0 0.0 -1.0
  outer loop
    vertex -12.37333795657017 -7.143749999999995 -1.5875
    vertex -13.80066524310506 3.697877106902269 -1.5875
    vertex -12.7 2.8199664825478975e-15 -1.5875
  endloop
endfacet
facet normal 0.0 0.0 -1.0
  outer loop
    vertex -12.37333795657017 -7.143749999999995 -1.5875
    vertex -12.7 2.8199664825478975e-15 -1.5875
    vertex -12.267257993871167 -3.2870018728020076 -1.5875
  endloop
endfacet
facet normal 0.0 0.0 -1.0
  outer loop
    vertex -12.37333795657017 -7.143749999999995 -1.5875
    vertex -12.267257993871167 -3.2870018728020076 -1.5875
    vertex -10.102788136202802 -10.102788136202792 -1.5875
  endloop
endfacet
facet normal 0.0 0.0 -1.0
  outer loop
    vertex -10.102788136202802 -10.102788136202792 -1.5875
    vertex -12.267257993871167 -3.2870018728020076 -1.5875
    vertex -10.998522628062373 -6.349999999999997 -1.5875
  endloop
endfacet
facet normal 0.0 0.0 -1.0
  outer loop
    vertex -10.102788136202802 -10.102788136202792 -1.5875
    vertex -10.998522628062373 -6.349999999999997 -1.5875
    vertex -8.980256121069157 -8.980256121069148 -1.5875
  endloop
endfacet
facet normal 0.0 0.0 -1.0
  outer loop
    vertex -10.102788136202802 -10.102788136202792 -1.5875
    vertex -8.980256121069157 -8.980256121069148 -1.5875
    vertex -7.143750000000005 -12.373337956570163 -1.5875
  endloop
endfacet
facet normal 0.0 0.0 -1.0
  outer loop
    vertex -7.143750000000005 -12.373337956570163 -1.5875
    vertex -8.980256121069157 -8.980256121069148 -1.5875
    vertex -6.350000000000005 -10.998522628062366 -1.5875
  endloop
endfacet
facet normal 0.0 0.0 -1.0
  outer loop
    vertex -7.143750000000005 -12.373337956570163 -1.5875
    vertex -6.350000000000005 -10.998522628062366 -1.5875
    vertex -3.697877106902276 -13.80066524310506 -1.5875
  endloop
endfacet
facet normal 0.0 0.0 -1.0
  outer loop
    vertex -3.697877106902276 -13.80066524310506 -1.5875
    vertex -6.350000000000005 -10.998522628062366 -1.5875
    vertex -3.287001872802023 -12.267257993871164 -1.5875
  endloop
endfacet
facet normal 0.0 0.0 -1.0
  outer loop
    vertex -3.697877106902276 -13.80066524310506 -1.5875
    vertex -3.287001872802023 -12.267257993871164 -1.5875
    vertex -2.8199664825478975e-15 -14.2875 -1.5875
  endloop
endfacet
facet normal 0.0 0.0 -1.0
  outer loop
    vertex -2.8199664825478975e-15 -14.2875 -1.5875
    vertex -3.287001872802023 -12.267257993871164 -1.5875
    vertex -2.8199664825478975e-15 -12.7 -1.5875
  endloop
endfacet
facet normal 0.0 0.0 -1.0
  outer loop
    vertex -2.8199664825478975e-15 -14.2875 -1.5875
    vertex -2.8199664825478975e-15 -12.7 -1.5875
    vertex 3.2870018728020076 -12.267257993871167 -1.5875
  endloop
endfacet
facet normal 0.0 0.0 -1.0
  outer loop
    vertex -2.8199664825478975e-15 -14.2875 -1.5875
    vertex 3.2870018728020076 -12.267257993871167 -1.5875
    vertex 3.697877106902258 -13.800665243105064 -1.5875
  endloop
endfacet
facet normal 0.0 0.0 -1.0
  outer loop
    vertex 3.697877106902258 -13.800665243105064 -1.5875
    vertex 3.2870018728020076 -12.267257993871167 -1.5875
    vertex 6.349999999999991 -10.998522628062375 -1.5875
  endloop
endfacet
facet normal 0.0 0.0 -1.0
  outer loop
    vertex 3.697877106902258 -13.800665243105064 -1.5875
    vertex 6.349999999999991 -10.998522628062375 -1.5875
    vertex 7.143749999999988 -12.373337956570172 -1.5875
  endloop
endfacet
facet normal 0.0 0.0 -1.0
  outer loop
    vertex 7.143749999999988 -12.373337956570172 -1.5875
    vertex 6.349999999999991 -10.998522628062375 -1.5875
    vertex 8.980256121069152 -8.980256121069155 -1.5875
  endloop
endfacet
facet normal 0.0 0.0 -1.0
  outer loop
    vertex 7.143749999999988 -12.373337956570172 -1.5875
    vertex 8.980256121069152 -8.980256121069155 -1.5875
    vertex 10.102788136202793 -10.1027881362028 -1.5875
  endloop
endfacet
facet normal 0.0 0.0 -1.0
  outer loop
    vertex 10.102788136202793 -10.1027881362028 -1.5875
    vertex 8.980256121069152 -8.980256121069155 -1.5875
    vertex 10.998522628062366 -6.350000000000005 -1.5875
  endloop
endfacet
facet normal 0.0 0.0 -1.0
  outer loop
    vertex 10.102788136202793 -10.1027881362028 -1.5875
    vertex 10.998522628062366 -6.350000000000005 -1.5875
    vertex 12.373337956570161 -7.143750000000005 -1.5875
  endloop
endfacet
facet normal 0.0 0.0 -1.0
  outer loop
    vertex 12.373337956570161 -7.143750000000005 -1.5875
    vertex 10.998522628062366 -6.350000000000005 -1.5875
    vertex 12.267257993871166 -3.2870018728020245 -1.5875
  endloop
endfacet
facet normal 0.0 0.0 -1.0
  outer loop
    vertex 12.373337956570161 -7.143750000000005 -1.5875
    vertex 12.267257993871166 -3.2870018728020245 -1.5875
    vertex 12.7 0.0 -1.5875
  endloop
endfacet
facet normal 0.0 0.0 -1.0
  outer loop
    vertex 12.373337956570161 -7.143750000000005 -1.5875
    vertex 12.7 0.0 -1.5875
    vertex 13.800665243105064 -3.6978771069022773 -1.5875
  endloop
endfacet
facet normal 0.0 0.0 -1.0
  outer loop
    vertex 13.800665243105064 -3.6978771069022773 -1.5875
    vertex 12.7 0.0 -1.5875
    vertex 13.800665243105064 3.6978771069022636 -1.5875
  endloop
endfacet
facet normal 0.0 0.0 -1.0
  outer loop
    vertex 13.800665243105064 -3.6978771069022773 -1.5875
    vertex 13.800665243105064 3.6978771069022636 -1.5875
    vertex 14.2875 0.0 -1.5875
  endloop
endfacet
facet normal -0.38268343236508934 0.9238795325112871 0.0
  outer loop
    vertex 3.2870018728020076 -12.267257993871167 0.0
    vertex 6.349999999999991 -10.998522628062375 -1.5875
    vertex 3.2870018728020076 -12.267257993871167 -1.5875
  endloop
endfacet
facet normal -0.38268343236508934 0.9238795325112871 0.0
  outer loop
    vertex 6.349999999999991 -10.998522628062375 -1.5875
    vertex 3.2870018728020076 -12.267257993871167 0.0
    vertex 6.349999999999991 -10.998522628062375 0.0
  endloop
endfacet
facet normal -0.9238795325112867 -0.38268343236508967 -0.0
  outer loop
    vertex 10.998522628062373 6.35 0.0
    vertex 12.267257993871166 3.2870018728020134 -1.5875
    vertex 12.267257993871166 3.2870018728020134 0.0
  endloop
endfacet
facet normal -0.9238795325112867 -0.38268343236508967 -0.0
  outer loop
    vertex 12.267257993871166 3.2870018728020134 -1.5875
    vertex 10.998522628062373 6.35 0.0
    vertex 10.998522628062373 6.35 -1.5875
  endloop
endfacet
facet normal -0.9914448613738105 0.13052619222005193 0.0
  outer loop
    vertex 12.7 0.0 0.0
    vertex 12.267257993871166 -3.2870018728020245 -1.5875
    vertex 12.267257993871166 -3.2870018728020245 0.0
  endloop
endfacet
facet normal -0.9914448613738105 0.13052619222005193 0.0
  outer loop
    vertex 12.267257993871166 -3.2870018728020245 -1.5875
    vertex 12.7 0.0 0.0
    vertex 12.7 0.0 -1.5875
  endloop
endfacet
facet normal -0.6087614290087205 -0.7933533402912353 -0.0
  outer loop
    vertex 8.980256121069152 8.980256121069152 0.0
    vertex 6.35 10.99852262806237 -1.5875
    vertex 8.980256121069152 8.980256121069152 -1.5875
  endloop
endfacet
facet normal -0.6087614290087205 -0.7933533402912353 -0.0
  outer loop
    vertex 6.35 10.99852262806237 -1.5875
    vertex 8.980256121069152 8.980256121069152 0.0
    vertex 6.35 10.99852262806237 0.0
  endloop
endfacet
facet normal 0.13052619222005207 0.9914448613738105 0.0
  outer loop
    vertex -3.287001872802023 -12.267257993871164 0.0
    vertex -2.8199664825478975e-15 -12.7 -1.5875
    vertex -3.287001872802023 -12.267257993871164 -1.5875
  endloop
endfacet
facet normal 0.13052619222005207 0.9914448613738105 0.0
  outer loop
    vertex -2.8199664825478975e-15 -12.7 -1.5875
    vertex -3.287001872802023 -12.267257993871164 0.0
    vertex -2.8199664825478975e-15 -12.7 0.0
  endloop
endfacet
facet normal -0.9238795325112864 0.3826834323650905 0.0
  outer loop
    vertex 12.267257993871166 -3.2870018728020245 0.0
    vertex 10.998522628062366 -6.350000000000005 -1.5875
    vertex 10.998522628062366 -6.350000000000005 0.0
  endloop
endfacet
facet normal -0.9238795325112864 0.3826834323650905 0.0
  outer loop
    vertex 10.998522628062366 -6.350000000000005 -1.5875
    vertex 12.267257993871166 -3.2870018728020245 0.0
    vertex 12.267257993871166 -3.2870018728020245 -1.5875
  endloop
endfacet
facet normal -0.6087614290087202 0.7933533402912355 0.0
  outer loop
    vertex 6.349999999999991 -10.998522628062375 0.0
    vertex 8.980256121069152 -8.980256121069155 -1.5875
    vertex 6.349999999999991 -10.998522628062375 -1.5875
  endloop
endfacet
facet normal -0.6087614290087202 0.7933533402912355 0.0
  outer loop
    vertex 8.980256121069152 -8.980256121069155 -1.5875
    vertex 6.349999999999991 -10.998522628062375 0.0
    vertex 8.980256121069152 -8.980256121069155 0.0
  endloop
endfacet
facet normal -0.793353340291235 0.608761429008721 0.0
  outer loop
    vertex 10.998522628062366 -6.350000000000005 0.0
    vertex 8.980256121069152 -8.980256121069155 -1.5875
    vertex 8.980256121069152 -8.980256121069155 0.0
  endloop
endfacet
facet normal -0.793353340291235 0.608761429008721 0.0
  outer loop
    vertex 8.980256121069152 -8.980256121069155 -1.5875
    vertex 10.998522628062366 -6.350000000000005 0.0
    vertex 10.998522628062366 -6.350000000000005 -1.5875
  endloop
endfacet
facet normal -0.9914448613738105 -0.13052619222005152 -0.0
  outer loop
    vertex 12.267257993871166 3.2870018728020134 0.0
    vertex 12.7 0.0 -1.5875
    vertex 12.7 0.0 0.0
  endloop
endfacet
facet normal -0.9914448613738105 -0.13052619222005152 -0.0
  outer loop
    vertex 12.7 0.0 -1.5875
    vertex 12.267257993871166 3.2870018728020134 0.0
    vertex 12.267257993871166 3.2870018728020134 -1.5875
  endloop
endfacet
facet normal -0.7933533402912353 -0.6087614290087205 -0.0
  outer loop
    vertex 8.980256121069152 8.980256121069152 0.0
    vertex 10.998522628062373 6.35 -1.5875
    vertex 10.998522628062373 6.35 0.0
  endloop
endfacet
facet normal -0.7933533402912353 -0.6087614290087205 -0.0
  outer loop
    vertex 10.998522628062373 6.35 -1.5875
    vertex 8.980256121069152 8.980256121069152 0.0
    vertex 8.980256121069152 8.980256121069152 -1.5875
  endloop
endfacet
facet normal -0.1305261922200512 0.9914448613738105 0.0
  outer loop
    vertex -2.8199664825478975e-15 -12.7 0.0
    vertex 3.2870018728020076 -12.267257993871167 -1.5875
    vertex -2.8199664825478975e-15 -12.7 -1.5875
  endloop
endfacet
facet normal -0.1305261922200512 0.9914448613738105 0.0
  outer loop
    vertex 3.2870018728020076 -12.267257993871167 -1.5875
    vertex -2.8199664825478975e-15 -12.7 0.0
    vertex 3.2870018728020076 -12.267257993871167 0.0
  endloop
endfacet
facet normal 0.38268343236509045 0.9238795325112864 0.0
  outer loop
    vertex -6.350000000000005 -10.998522628062366 0.0
    vertex -3.287001872802023 -12.267257993871164 -1.5875
    vertex -6.350000000000005 -10.998522628062366 -1.5875
  endloop
endfacet
facet normal 0.38268343236509045 0.9238795325112864 0.0
  outer loop
    vertex -3.287001872802023 -12.267257993871164 -1.5875
    vertex -6.350000000000005 -10.998522628062366 0.0
    vertex -3.287001872802023 -12.267257993871164 0.0
  endloop
endfacet
facet normal 0.923879532511287 0.38268343236508956 0.0
  outer loop
    vertex -12.267257993871167 -3.2870018728020076 -1.5875
    vertex -10.998522628062373 -6.349999999999997 0.0
    vertex -10.998522628062373 -6.349999999999997 -1.5875
  endloop
endfacet
facet normal 0.923879532511287 0.38268343236508956 0.0
  outer loop
    vertex -10.998522628062373 -6.349999999999997 0.0
    vertex -12.267257993871167 -3.2870018728020076 -1.5875
    vertex -12.267257993871167 -3.2870018728020076 0.0
  endloop
endfacet
facet normal 0.6087614290087203 -0.7933533402912354 0.0
  outer loop
    vertex -6.349999999999997 10.998522628062373 0.0
    vertex -8.980256121069152 8.980256121069152 -1.5875
    vertex -6.349999999999997 10.998522628062373 -1.5875
  endloop
endfacet
facet normal 0.6087614290087203 -0.7933533402912354 0.0
  outer loop
    vertex -8.980256121069152 8.980256121069152 -1.5875
    vertex -6.349999999999997 10.998522628062373 0.0
    vertex -8.980256121069152 8.980256121069152 0.0
  endloop
endfacet
facet normal 0.3826834323650898 -0.9238795325112867 0.0
  outer loop
    vertex -3.2870018728020116 12.267257993871166 0.0
    vertex -6.349999999999997 10.998522628062373 -1.5875
    vertex -3.2870018728020116 12.267257993871166 -1.5875
  endloop
endfacet
facet normal 0.3826834323650898 -0.9238795325112867 0.0
  outer loop
    vertex -6.349999999999997 10.998522628062373 -1.5875
    vertex -3.2870018728020116 12.267257993871166 0.0
    vertex -6.349999999999997 10.998522628062373 0.0
  endloop
endfacet
facet normal -0.13052619222005185 -0.9914448613738105 -0.0
  outer loop
    vertex 3.287001872802016 12.267257993871166 0.0
    vertex 0.0 12.7 -1.5875
    vertex 3.287001872802016 12.267257993871166 -1.5875
  endloop
endfacet
facet normal -0.13052619222005185 -0.9914448613738105 -0.0
  outer loop
    vertex 0.0 12.7 -1.5875
    vertex 3.287001872802016 12.267257993871166 0.0
    vertex 0.0 12.7 0.0
  endloop
endfacet
facet normal 0.9914448613738105 -0.13052619222005185 0.0
  outer loop
    vertex -12.267257993871166 3.287001872802016 -1.5875
    vertex -12.7 2.8199664825478975e-15 0.0
    vertex -12.7 2.8199664825478975e-15 -1.5875
  endloop
endfacet
facet normal 0.9914448613738105 -0.13052619222005185 0.0
  outer loop
    vertex -12.7 2.8199664825478975e-15 0.0
    vertex -12.267257993871166 3.287001872802016 -1.5875
    vertex -12.267257993871166 3.287001872802016 0.0
  endloop
endfacet
facet normal 0.9238795325112867 -0.38268343236508995 0.0
  outer loop
    vertex -10.998522628062368 6.350000000000005 -1.5875
    vertex -12.267257993871166 3.287001872802016 0.0
    vertex -12.267257993871166 3.287001872802016 -1.5875
  endloop
endfacet
facet normal 0.9238795325112867 -0.38268343236508995 0.0
  outer loop
    vertex -12.267257993871166 3.287001872802016 0.0
    vertex -10.998522628062368 6.350000000000005 -1.5875
    vertex -10.998522628062368 6.350000000000005 0.0
  endloop
endfacet
facet normal 0.13052619222005155 -0.9914448613738105 0.0
  outer loop
    vertex 0.0 12.7 0.0
    vertex -3.2870018728020116 12.267257993871166 -1.5875
    vertex 0.0 12.7 -1.5875
  endloop
endfacet
facet normal 0.13052619222005155 -0.9914448613738105 0.0
  outer loop
    vertex -3.2870018728020116 12.267257993871166 -1.5875
    vertex 0.0 12.7 0.0
    vertex -3.2870018728020116 12.267257993871166 0.0
  endloop
endfacet
facet normal 0.793353340291235 -0.608761429008721 0.0
  outer loop
    vertex -8.980256121069152 8.980256121069152 -1.5875
    vertex -10.998522628062368 6.350000000000005 0.0
    vertex -10.998522628062368 6.350000000000005 -1.5875
  endloop
endfacet
facet normal 0.793353340291235 -0.608761429008721 0.0
  outer loop
    vertex -10.998522628062368 6.350000000000005 0.0
    vertex -8.980256121069152 8.980256121069152 -1.5875
    vertex -8.980256121069152 8.980256121069152 0.0
  endloop
endfacet
facet normal 0.9914448613738105 0.1305261922200512 0.0
  outer loop
    vertex -12.7 2.8199664825478975e-15 -1.5875
    vertex -12.267257993871167 -3.2870018728020076 0.0
    vertex -12.267257993871167 -3.2870018728020076 -1.5875
  endloop
endfacet
facet normal 0.9914448613738105 0.1305261922200512 0.0
  outer loop
    vertex -12.267257993871167 -3.2870018728020076 0.0
    vertex -12.7 2.8199664825478975e-15 -1.5875
    vertex -12.7 2.8199664825478975e-15 0.0
  endloop
endfacet
facet normal 0.7933533402912355 0.6087614290087204 0.0
  outer loop
    vertex -10.998522628062373 -6.349999999999997 -1.5875
    vertex -8.980256121069157 -8.980256121069148 0.0
    vertex -8.980256121069157 -8.980256121069148 -1.5875
  endloop
endfacet
facet normal 0.7933533402912355 0.6087614290087204 0.0
  outer loop
    vertex -8.980256121069157 -8.980256121069148 0.0
    vertex -10.998522628062373 -6.349999999999997 -1.5875
    vertex -10.998522628062373 -6.349999999999997 0.0
  endloop
endfacet
facet normal 0.6087614290087211 0.7933533402912348 0.0
  outer loop
    vertex -8.980256121069157 -8.980256121069148 0.0
    vertex -6.350000000000005 -10.998522628062366 -1.5875
    vertex -8.980256121069157 -8.980256121069148 -1.5875
  endloop
endfacet
facet normal 0.6087614290087211 0.7933533402912348 0.0
  outer loop
    vertex -6.350000000000005 -10.998522628062366 -1.5875
    vertex -8.980256121069157 -8.980256121069148 0.0
    vertex -6.350000000000005 -10.998522628062366 0.0
  endloop
endfacet
endsolid Untitled-5f5e912c
