solid Untitled-604ea58c
facet normal 0.0 -1.0 0.0
  outer loop
    vertex 25.18362899693558 -0.07541260000000562 1.6310948484741643
    vertex 22.224999999999998 -0.07541260000000562 -0.012406087926847447
    vertex 25.4 -0.07541260000000562 -0.012406087926847447
  endloop
endfacet
facet normal 0.0 -1.0 0.0
  outer loop
    vertex 22.224999999999998 -0.07541260000000562 -0.012406087926847447
    vertex 25.18362899693558 -0.07541260000000562 1.6310948484741643
    vertex 22.116814498467793 -0.07541260000000562 0.8093443802736559
  endloop
endfacet
facet normal 0.0 -1.0 0.0
  outer loop
    vertex 22.116814498467793 -0.07541260000000562 0.8093443802736559
    vertex 25.18362899693558 -0.07541260000000562 1.6310948484741643
    vertex 21.79963065701559 -0.07541260000000562 1.5750939120731524
  endloop
endfacet
facet normal 0.0 -1.0 0.0
  outer loop
    vertex 21.79963065701559 -0.07541260000000562 1.5750939120731524
    vertex 25.18362899693558 -0.07541260000000562 1.6310948484741643
    vertex 21.295064030267287 -0.07541260000000562 2.232657942340441
  endloop
endfacet
facet normal 0.0 -1.0 0.0
  outer loop
    vertex 21.295064030267287 -0.07541260000000562 2.232657942340441
    vertex 25.18362899693558 -0.07541260000000562 1.6310948484741643
    vertex 24.54926131403118 -0.07541260000000562 3.162593912073155
  endloop
endfacet
facet normal 0.0 -1.0 0.0
  outer loop
    vertex 21.295064030267287 -0.07541260000000562 2.232657942340441
    vertex 24.54926131403118 -0.07541260000000562 3.162593912073155
    vertex 20.6375 -0.07541260000000562 2.737224569088745
  endloop
endfacet
facet normal 0.0 -1.0 0.0
  outer loop
    vertex 20.6375 -0.07541260000000562 2.737224569088745
    vertex 24.54926131403118 -0.07541260000000562 3.162593912073155
    vertex 19.871750468200503 -0.07541260000000562 3.054408410540944
  endloop
endfacet
facet normal 0.0 -1.0 0.0
  outer loop
    vertex 19.871750468200503 -0.07541260000000562 3.054408410540944
    vertex 24.54926131403118 -0.07541260000000562 3.162593912073155
    vertex 19.049999999999997 -0.07541260000000562 3.1625939120731523
  endloop
endfacet
facet normal 0.0 -1.0 0.0
  outer loop
    vertex 19.049999999999997 -0.07541260000000562 3.1625939120731523
    vertex 13.550738685968813 -0.07541260000000562 3.1625939120731505
    vertex 18.228249531799495 -0.07541260000000562 3.054408410540944
  endloop
endfacet
facet normal 0.0 -1.0 0.0
  outer loop
    vertex 13.550738685968813 -0.07541260000000562 3.1625939120731505
    vertex 19.049999999999997 -0.07541260000000562 3.1625939120731523
    vertex 14.55987193946542 -0.07541260000000562 4.477721972607727
  endloop
endfacet
facet normal 0.0 -1.0 0.0
  outer loop
    vertex 14.55987193946542 -0.07541260000000562 4.477721972607727
    vertex 19.049999999999997 -0.07541260000000562 3.1625939120731523
    vertex 24.54926131403118 -0.07541260000000562 3.162593912073155
  endloop
endfacet
facet normal 0.0 -1.0 0.0
  outer loop
    vertex 14.55987193946542 -0.07541260000000562 4.477721972607727
    vertex 24.54926131403118 -0.07541260000000562 3.162593912073155
    vertex 23.540128060534574 -0.07541260000000562 4.47772197260773
  endloop
endfacet
facet normal 0.0 -1.0 0.0
  outer loop
    vertex 14.55987193946542 -0.07541260000000562 4.477721972607727
    vertex 23.540128060534574 -0.07541260000000562 4.47772197260773
    vertex 15.874999999999996 -0.07541260000000562 5.486855226104336
  endloop
endfacet
facet normal 0.0 -1.0 0.0
  outer loop
    vertex 15.874999999999996 -0.07541260000000562 5.486855226104336
    vertex 23.540128060534574 -0.07541260000000562 4.47772197260773
    vertex 22.224999999999994 -0.07541260000000562 5.48685522610434
  endloop
endfacet
facet normal 0.0 -1.0 0.0
  outer loop
    vertex 15.874999999999996 -0.07541260000000562 5.486855226104336
    vertex 22.224999999999994 -0.07541260000000562 5.48685522610434
    vertex 17.406499063598986 -0.07541260000000562 6.1212229090087344
  endloop
endfacet
facet normal 0.0 -1.0 0.0
  outer loop
    vertex 17.406499063598986 -0.07541260000000562 6.1212229090087344
    vertex 22.224999999999994 -0.07541260000000562 5.48685522610434
    vertex 20.693500936401 -0.07541260000000562 6.121222909008737
  endloop
endfacet
facet normal 0.0 -1.0 0.0
  outer loop
    vertex 17.406499063598986 -0.07541260000000562 6.1212229090087344
    vertex 20.693500936401 -0.07541260000000562 6.121222909008737
    vertex 19.049999999999997 -0.07541260000000562 6.337593912073152
  endloop
endfacet
facet normal 0.0 -1.0 0.0
  outer loop
    vertex 15.875 -0.07541260000000562 -0.01240608792684706
    vertex 0.0 -0.07541260000000562 3.1625939120731523
    vertex 0.0 -0.07541260000000562 -0.012406087926847447
  endloop
endfacet
facet normal 0.0 -1.0 0.0
  outer loop
    vertex 0.0 -0.07541260000000562 3.1625939120731523
    vertex 15.875 -0.07541260000000562 -0.01240608792684706
    vertex 15.983185501532208 -0.07541260000000562 0.8093443802736567
  endloop
endfacet
facet normal 0.0 -1.0 0.0
  outer loop
    vertex 0.0 -0.07541260000000562 3.1625939120731523
    vertex 15.983185501532208 -0.07541260000000562 0.8093443802736567
    vertex 16.300369342984407 -0.07541260000000562 1.5750939120731535
  endloop
endfacet
facet normal 0.0 -1.0 0.0
  outer loop
    vertex 0.0 -0.07541260000000562 3.1625939120731523
    vertex 16.300369342984407 -0.07541260000000562 1.5750939120731535
    vertex 16.80493596973271 -0.07541260000000562 2.232657942340441
  endloop
endfacet
facet normal 0.0 -1.0 0.0
  outer loop
    vertex 0.0 -0.07541260000000562 3.1625939120731523
    vertex 16.80493596973271 -0.07541260000000562 2.232657942340441
    vertex 17.4625 -0.07541260000000562 2.7372245690887453
  endloop
endfacet
facet normal 0.0 -1.0 0.0
  outer loop
    vertex 0.0 -0.07541260000000562 3.1625939120731523
    vertex 17.4625 -0.07541260000000562 2.7372245690887453
    vertex 18.228249531799495 -0.07541260000000562 3.054408410540944
  endloop
endfacet
facet normal 0.0 -1.0 0.0
  outer loop
    vertex 0.0 -0.07541260000000562 3.1625939120731523
    vertex 18.228249531799495 -0.07541260000000562 3.054408410540944
    vertex 13.550738685968813 -0.07541260000000562 3.1625939120731505
  endloop
endfacet
facet normal 0.0 1.0 0.0
  outer loop
    vertex 13.550738685968813 15.799587399999993 3.1625939120731505
    vertex 19.049999999999997 15.799587399999993 3.1625939120731523
    vertex 18.228249531799495 15.799587399999993 3.054408410540944
  endloop
endfacet
facet normal 0.0 1.0 0.0
  outer loop
    vertex 19.049999999999997 15.799587399999993 3.1625939120731523
    vertex 13.550738685968813 15.799587399999993 3.1625939120731505
    vertex 14.55987193946542 15.799587399999993 4.477721972607727
  endloop
endfacet
facet normal 0.0 1.0 0.0
  outer loop
    vertex 19.049999999999997 15.799587399999993 3.1625939120731523
    vertex 14.55987193946542 15.799587399999993 4.477721972607727
    vertex 24.54926131403118 15.799587399999993 3.162593912073155
  endloop
endfacet
facet normal 0.0 1.0 0.0
  outer loop
    vertex 24.54926131403118 15.799587399999993 3.162593912073155
    vertex 14.55987193946542 15.799587399999993 4.477721972607727
    vertex 23.540128060534574 15.799587399999993 4.47772197260773
  endloop
endfacet
facet normal 0.0 1.0 0.0
  outer loop
    vertex 23.540128060534574 15.799587399999993 4.47772197260773
    vertex 14.55987193946542 15.799587399999993 4.477721972607727
    vertex 15.874999999999996 15.799587399999993 5.486855226104336
  endloop
endfacet
facet normal 0.0 1.0 0.0
  outer loop
    vertex 23.540128060534574 15.799587399999993 4.47772197260773
    vertex 15.874999999999996 15.799587399999993 5.486855226104336
    vertex 22.224999999999994 15.799587399999993 5.48685522610434
  endloop
endfacet
facet normal 0.0 1.0 0.0
  outer loop
    vertex 22.224999999999994 15.799587399999993 5.48685522610434
    vertex 15.874999999999996 15.799587399999993 5.486855226104336
    vertex 17.406499063598986 15.799587399999993 6.1212229090087344
  endloop
endfacet
facet normal 0.0 1.0 0.0
  outer loop
    vertex 22.224999999999994 15.799587399999993 5.48685522610434
    vertex 17.406499063598986 15.799587399999993 6.1212229090087344
    vertex 20.693500936401 15.799587399999993 6.121222909008737
  endloop
endfacet
facet normal 0.0 1.0 0.0
  outer loop
    vertex 20.693500936401 15.799587399999993 6.121222909008737
    vertex 17.406499063598986 15.799587399999993 6.1212229090087344
    vertex 19.049999999999997 15.799587399999993 6.337593912073152
  endloop
endfacet
facet normal 0.0 1.0 0.0
  outer loop
    vertex 22.116814498467793 15.799587399999993 0.8093443802736559
    vertex 25.4 15.799587399999993 -0.012406087926847447
    vertex 22.224999999999998 15.799587399999993 -0.012406087926847447
  endloop
endfacet
facet normal 0.0 1.0 0.0
  outer loop
    vertex 25.4 15.799587399999993 -0.012406087926847447
    vertex 22.116814498467793 15.799587399999993 0.8093443802736559
    vertex 25.18362899693558 15.799587399999993 1.6310948484741643
  endloop
endfacet
facet normal 0.0 1.0 0.0
  outer loop
    vertex 25.18362899693558 15.799587399999993 1.6310948484741643
    vertex 22.116814498467793 15.799587399999993 0.8093443802736559
    vertex 21.79963065701559 15.799587399999993 1.5750939120731524
  endloop
endfacet
facet normal 0.0 1.0 0.0
  outer loop
    vertex 25.18362899693558 15.799587399999993 1.6310948484741643
    vertex 21.79963065701559 15.799587399999993 1.5750939120731524
    vertex 21.295064030267287 15.799587399999993 2.232657942340441
  endloop
endfacet
facet normal 0.0 1.0 0.0
  outer loop
    vertex 25.18362899693558 15.799587399999993 1.6310948484741643
    vertex 21.295064030267287 15.799587399999993 2.232657942340441
    vertex 24.54926131403118 15.799587399999993 3.162593912073155
  endloop
endfacet
facet normal 0.0 1.0 0.0
  outer loop
    vertex 24.54926131403118 15.799587399999993 3.162593912073155
    vertex 21.295064030267287 15.799587399999993 2.232657942340441
    vertex 20.6375 15.799587399999993 2.737224569088745
  endloop
endfacet
facet normal 0.0 1.0 0.0
  outer loop
    vertex 24.54926131403118 15.799587399999993 3.162593912073155
    vertex 20.6375 15.799587399999993 2.737224569088745
    vertex 19.871750468200503 15.799587399999993 3.054408410540944
  endloop
endfacet
facet normal 0.0 1.0 0.0
  outer loop
    vertex 24.54926131403118 15.799587399999993 3.162593912073155
    vertex 19.871750468200503 15.799587399999993 3.054408410540944
    vertex 19.049999999999997 15.799587399999993 3.1625939120731523
  endloop
endfacet
facet normal 0.0 1.0 0.0
  outer loop
    vertex 0.0 15.799587399999993 3.1625939120731523
    vertex 15.875 15.799587399999993 -0.01240608792684706
    vertex 0.0 15.799587399999993 -0.012406087926847447
  endloop
endfacet
facet normal 0.0 1.0 0.0
  outer loop
    vertex 15.875 15.799587399999993 -0.01240608792684706
    vertex 0.0 15.799587399999993 3.1625939120731523
    vertex 15.983185501532208 15.799587399999993 0.8093443802736567
  endloop
endfacet
facet normal 0.0 1.0 0.0
  outer loop
    vertex 15.983185501532208 15.799587399999993 0.8093443802736567
    vertex 0.0 15.799587399999993 3.1625939120731523
    vertex 16.300369342984407 15.799587399999993 1.5750939120731535
  endloop
endfacet
facet normal 0.0 1.0 0.0
  outer loop
    vertex 16.300369342984407 15.799587399999993 1.5750939120731535
    vertex 0.0 15.799587399999993 3.1625939120731523
    vertex 16.80493596973271 15.799587399999993 2.232657942340441
  endloop
endfacet
facet normal 0.0 1.0 0.0
  outer loop
    vertex 16.80493596973271 15.799587399999993 2.232657942340441
    vertex 0.0 15.799587399999993 3.1625939120731523
    vertex 17.4625 15.799587399999993 2.7372245690887453
  endloop
endfacet
facet normal 0.0 1.0 0.0
  outer loop
    vertex 17.4625 15.799587399999993 2.7372245690887453
    vertex 0.0 15.799587399999993 3.1625939120731523
    vertex 18.228249531799495 15.799587399999993 3.054408410540944
  endloop
endfacet
facet normal 0.0 1.0 0.0
  outer loop
    vertex 18.228249531799495 15.799587399999993 3.054408410540944
    vertex 0.0 15.799587399999993 3.1625939120731523
    vertex 13.550738685968813 15.799587399999993 3.1625939120731505
  endloop
endfacet
facet normal -0.7933533402912355 0.0 0.6087614290087203
  outer loop
    vertex 14.55987193946542 15.799587399999993 4.477721972607727
    vertex 13.550738685968813 -0.07541260000000562 3.1625939120731505
    vertex 14.55987193946542 -0.07541260000000562 4.477721972607727
  endloop
endfacet
facet normal -0.7933533402912355 0.0 0.6087614290087203
  outer loop
    vertex 13.550738685968813 -0.07541260000000562 3.1625939120731505
    vertex 14.55987193946542 15.799587399999993 4.477721972607727
    vertex 13.550738685968813 15.799587399999993 3.1625939120731505
  endloop
endfacet
facet normal 1.3006516415355308e-16 0.0 1.0
  outer loop
    vertex 0.0 -0.07541260000000562 3.1625939120731523
    vertex 4.025738685968815 6.274587399999993 3.1625939120731523
    vertex 0.0 15.799587399999993 3.1625939120731523
  endloop
endfacet
facet normal 1.3006516415355308e-16 0.0 1.0
  outer loop
    vertex 4.025738685968815 6.274587399999993 3.1625939120731523
    vertex 0.0 -0.07541260000000562 3.1625939120731523
    vertex 4.530305312717118 5.617023369732705 3.1625939120731523
  endloop
endfacet
facet normal 1.3006516415355308e-16 0.0 1.0
  outer loop
    vertex 4.530305312717118 5.617023369732705 3.1625939120731523
    vertex 0.0 -0.07541260000000562 3.1625939120731523
    vertex 5.187869342984407 5.112456742984401 3.1625939120731523
  endloop
endfacet
facet normal 1.3006516415355308e-16 0.0 1.0
  outer loop
    vertex 5.187869342984407 5.112456742984401 3.1625939120731523
    vertex 0.0 -0.07541260000000562 3.1625939120731523
    vertex 13.550738685968813 -0.07541260000000562 3.1625939120731505
  endloop
endfacet
facet normal 1.3006516415355308e-16 0.0 1.0
  outer loop
    vertex 0.0 15.799587399999993 3.1625939120731523
    vertex 4.025738685968815 6.274587399999993 3.1625939120731523
    vertex 3.708554844516615 7.040336931799489 3.1625939120731523
  endloop
endfacet
facet normal 1.3006516415355308e-16 0.0 1.0
  outer loop
    vertex 0.0 15.799587399999993 3.1625939120731523
    vertex 3.708554844516615 7.040336931799489 3.1625939120731523
    vertex 3.6003693429844064 7.862087399999994 3.1625939120731523
  endloop
endfacet
facet normal 1.3006516415355308e-16 0.0 1.0
  outer loop
    vertex 5.187869342984407 5.112456742984401 3.1625939120731523
    vertex 13.550738685968813 -0.07541260000000562 3.1625939120731505
    vertex 5.953618874783903 4.795272901532202 3.1625939120731523
  endloop
endfacet
facet normal 1.3006516415355308e-16 0.0 1.0
  outer loop
    vertex 5.953618874783903 4.795272901532202 3.1625939120731523
    vertex 13.550738685968813 -0.07541260000000562 3.1625939120731505
    vertex 6.775369342984407 4.687087399999994 3.1625939120731523
  endloop
endfacet
facet normal 1.3006516415355308e-16 0.0 1.0
  outer loop
    vertex 6.775369342984407 4.687087399999994 3.1625939120731523
    vertex 13.550738685968813 -0.07541260000000562 3.1625939120731505
    vertex 7.597119811184911 4.795272901532202 3.1625939120731523
  endloop
endfacet
facet normal 1.3006516415355308e-16 0.0 1.0
  outer loop
    vertex 7.597119811184911 4.795272901532202 3.1625939120731523
    vertex 13.550738685968813 -0.07541260000000562 3.1625939120731505
    vertex 8.362869342984407 5.112456742984402 3.162593912073152
  endloop
endfacet
facet normal 1.3006516415355308e-16 0.0 1.0
  outer loop
    vertex 8.362869342984407 5.112456742984402 3.162593912073152
    vertex 13.550738685968813 -0.07541260000000562 3.1625939120731505
    vertex 9.020433373251695 5.617023369732705 3.162593912073152
  endloop
endfacet
facet normal 1.3006516415355308e-16 0.0 1.0
  outer loop
    vertex 9.020433373251695 5.617023369732705 3.162593912073152
    vertex 13.550738685968813 -0.07541260000000562 3.1625939120731505
    vertex 9.524999999999999 6.274587399999994 3.162593912073152
  endloop
endfacet
facet normal 1.3006516415355308e-16 0.0 1.0
  outer loop
    vertex 9.524999999999999 6.274587399999994 3.162593912073152
    vertex 13.550738685968813 -0.07541260000000562 3.1625939120731505
    vertex 9.842183841452197 7.040336931799491 3.162593912073152
  endloop
endfacet
facet normal 1.3006516415355308e-16 0.0 1.0
  outer loop
    vertex 9.842183841452197 7.040336931799491 3.162593912073152
    vertex 13.550738685968813 -0.07541260000000562 3.1625939120731505
    vertex 9.950369342984406 7.862087399999994 3.162593912073152
  endloop
endfacet
facet normal 1.3006516415355308e-16 0.0 1.0
  outer loop
    vertex 0.0 15.799587399999993 3.1625939120731523
    vertex 5.187869342984405 10.611718057015585 3.1625939120731523
    vertex 13.550738685968813 15.799587399999993 3.1625939120731505
  endloop
endfacet
facet normal 1.3006516415355308e-16 0.0 1.0
  outer loop
    vertex 5.187869342984405 10.611718057015585 3.1625939120731523
    vertex 0.0 15.799587399999993 3.1625939120731523
    vertex 4.530305312717117 10.107151430267281 3.1625939120731523
  endloop
endfacet
facet normal 1.3006516415355308e-16 0.0 1.0
  outer loop
    vertex 4.530305312717117 10.107151430267281 3.1625939120731523
    vertex 0.0 15.799587399999993 3.1625939120731523
    vertex 4.025738685968813 9.449587399999993 3.1625939120731523
  endloop
endfacet
facet normal 1.3006516415355308e-16 0.0 1.0
  outer loop
    vertex 4.025738685968813 9.449587399999993 3.1625939120731523
    vertex 0.0 15.799587399999993 3.1625939120731523
    vertex 3.7085548445166143 8.683837868200495 3.1625939120731523
  endloop
endfacet
facet normal 1.3006516415355308e-16 0.0 1.0
  outer loop
    vertex 3.7085548445166143 8.683837868200495 3.1625939120731523
    vertex 0.0 15.799587399999993 3.1625939120731523
    vertex 3.6003693429844064 7.862087399999994 3.1625939120731523
  endloop
endfacet
facet normal 1.3006516415355308e-16 0.0 1.0
  outer loop
    vertex 13.550738685968813 15.799587399999993 3.1625939120731505
    vertex 5.187869342984405 10.611718057015585 3.1625939120731523
    vertex 5.9536188747839 10.928901898467785 3.1625939120731523
  endloop
endfacet
facet normal 1.3006516415355308e-16 0.0 1.0
  outer loop
    vertex 13.550738685968813 15.799587399999993 3.1625939120731505
    vertex 5.9536188747839 10.928901898467785 3.1625939120731523
    vertex 6.775369342984407 11.037087399999994 3.1625939120731523
  endloop
endfacet
facet normal 1.3006516415355308e-16 0.0 1.0
  outer loop
    vertex 13.550738685968813 15.799587399999993 3.1625939120731505
    vertex 6.775369342984407 11.037087399999994 3.1625939120731523
    vertex 7.597119811184908 10.928901898467787 3.1625939120731523
  endloop
endfacet
facet normal 1.3006516415355308e-16 0.0 1.0
  outer loop
    vertex 13.550738685968813 15.799587399999993 3.1625939120731505
    vertex 7.597119811184908 10.928901898467787 3.1625939120731523
    vertex 8.362869342984403 10.611718057015588 3.1625939120731523
  endloop
endfacet
facet normal 1.3006516415355308e-16 0.0 1.0
  outer loop
    vertex 13.550738685968813 15.799587399999993 3.1625939120731505
    vertex 8.362869342984403 10.611718057015588 3.1625939120731523
    vertex 9.020433373251695 10.107151430267283 3.162593912073152
  endloop
endfacet
facet normal 1.3006516415355308e-16 0.0 1.0
  outer loop
    vertex 13.550738685968813 15.799587399999993 3.1625939120731505
    vertex 9.020433373251695 10.107151430267283 3.162593912073152
    vertex 9.524999999999999 9.449587399999995 3.162593912073152
  endloop
endfacet
facet normal 1.3006516415355308e-16 0.0 1.0
  outer loop
    vertex 13.550738685968813 15.799587399999993 3.1625939120731505
    vertex 9.524999999999999 9.449587399999995 3.162593912073152
    vertex 9.842183841452197 8.6838378682005 3.162593912073152
  endloop
endfacet
facet normal 1.3006516415355308e-16 0.0 1.0
  outer loop
    vertex 13.550738685968813 15.799587399999993 3.1625939120731505
    vertex 9.842183841452197 8.6838378682005 3.162593912073152
    vertex 9.950369342984406 7.862087399999994 3.162593912073152
  endloop
endfacet
facet normal 1.3006516415355308e-16 0.0 1.0
  outer loop
    vertex 13.550738685968813 15.799587399999993 3.1625939120731505
    vertex 9.950369342984406 7.862087399999994 3.162593912073152
    vertex 13.550738685968813 -0.07541260000000562 3.1625939120731505
  endloop
endfacet
facet normal -1.0 -0.0 -0.0
  outer loop
    vertex 0.0 15.799587399999993 3.1625939120731523
    vertex 0.0 -0.07541260000000562 -0.012406087926847447
    vertex 0.0 -0.07541260000000562 3.1625939120731523
  endloop
endfacet
facet normal -1.0 -0.0 -0.0
  outer loop
    vertex 0.0 -0.07541260000000562 -0.012406087926847447
    vertex 0.0 15.799587399999993 3.1625939120731523
    vertex 0.0 15.799587399999993 -0.012406087926847447
  endloop
endfacet
facet normal 2.4459601011272982e-17 0.0 -1.0
  outer loop
    vertex 0.0 15.799587399999993 -0.012406087926847447
    vertex 4.025738685968814 9.449587399999993 -0.012406087926843723
    vertex 0.0 -0.07541260000000562 -0.012406087926847447
  endloop
endfacet
facet normal 2.4459601011272982e-17 0.0 -1.0
  outer loop
    vertex 4.025738685968814 9.449587399999993 -0.012406087926843723
    vertex 0.0 15.799587399999993 -0.012406087926847447
    vertex 4.530305312717117 10.107151430267281 -0.012406087926843723
  endloop
endfacet
facet normal 2.4459601011272982e-17 0.0 -1.0
  outer loop
    vertex 4.530305312717117 10.107151430267281 -0.012406087926843723
    vertex 0.0 15.799587399999993 -0.012406087926847447
    vertex 5.187869342984405 10.611718057015585 -0.012406087926843723
  endloop
endfacet
facet normal 2.4459601011272982e-17 0.0 -1.0
  outer loop
    vertex 5.187869342984405 10.611718057015585 -0.012406087926843723
    vertex 0.0 15.799587399999993 -0.012406087926847447
    vertex 15.875 15.799587399999993 -0.01240608792684706
  endloop
endfacet
facet normal 2.4459601011272982e-17 0.0 -1.0
  outer loop
    vertex 0.0 -0.07541260000000562 -0.012406087926847447
    vertex 4.025738685968814 9.449587399999993 -0.012406087926843723
    vertex 3.708554844516615 8.683837868200495 -0.012406087926843723
  endloop
endfacet
facet normal 2.4459601011272982e-17 0.0 -1.0
  outer loop
    vertex 0.0 -0.07541260000000562 -0.012406087926847447
    vertex 3.708554844516615 8.683837868200495 -0.012406087926843723
    vertex 3.6003693429844073 7.862087399999994 -0.012406087926843723
  endloop
endfacet
facet normal 2.4459601011272982e-17 0.0 -1.0
  outer loop
    vertex 5.187869342984405 10.611718057015585 -0.012406087926843723
    vertex 15.875 15.799587399999993 -0.01240608792684706
    vertex 5.953618874783901 10.928901898467785 -0.012406087926845132
  endloop
endfacet
facet normal 2.4459601011272982e-17 0.0 -1.0
  outer loop
    vertex 5.953618874783901 10.928901898467785 -0.012406087926845132
    vertex 15.875 15.799587399999993 -0.01240608792684706
    vertex 6.775369342984405 11.037087399999994 -0.012406087926845132
  endloop
endfacet
facet normal 2.4459601011272982e-17 0.0 -1.0
  outer loop
    vertex 6.775369342984405 11.037087399999994 -0.012406087926845132
    vertex 15.875 15.799587399999993 -0.01240608792684706
    vertex 7.597119811184907 10.928901898467787 -0.012406087926845132
  endloop
endfacet
facet normal 2.4459601011272982e-17 0.0 -1.0
  outer loop
    vertex 7.597119811184907 10.928901898467787 -0.012406087926845132
    vertex 15.875 15.799587399999993 -0.01240608792684706
    vertex 8.362869342984402 10.611718057015588 -0.012406087926845132
  endloop
endfacet
facet normal 2.4459601011272982e-17 0.0 -1.0
  outer loop
    vertex 8.362869342984402 10.611718057015588 -0.012406087926845132
    vertex 15.875 15.799587399999993 -0.01240608792684706
    vertex 9.020433373251693 10.107151430267283 -0.012406087926845132
  endloop
endfacet
facet normal 2.4459601011272982e-17 0.0 -1.0
  outer loop
    vertex 9.020433373251693 10.107151430267283 -0.012406087926845132
    vertex 15.875 15.799587399999993 -0.01240608792684706
    vertex 9.524999999999997 9.449587399999995 -0.012406087926845132
  endloop
endfacet
facet normal 2.4459601011272982e-17 0.0 -1.0
  outer loop
    vertex 9.524999999999997 9.449587399999995 -0.012406087926845132
    vertex 15.875 15.799587399999993 -0.01240608792684706
    vertex 9.842183841452197 8.6838378682005 -0.012406087926845132
  endloop
endfacet
facet normal 2.4459601011272982e-17 0.0 -1.0
  outer loop
    vertex 9.842183841452197 8.6838378682005 -0.012406087926845132
    vertex 15.875 15.799587399999993 -0.01240608792684706
    vertex 9.950369342984406 7.862087399999994 -0.012406087926845132
  endloop
endfacet
facet normal 2.4459601011272982e-17 0.0 -1.0
  outer loop
    vertex 0.0 -0.07541260000000562 -0.012406087926847447
    vertex 5.187869342984408 5.112456742984401 -0.012406087926845132
    vertex 15.875 -0.07541260000000562 -0.01240608792684706
  endloop
endfacet
facet normal 2.4459601011272982e-17 0.0 -1.0
  outer loop
    vertex 5.187869342984408 5.112456742984401 -0.012406087926845132
    vertex 0.0 -0.07541260000000562 -0.012406087926847447
    vertex 4.530305312717119 5.617023369732705 -0.012406087926843723
  endloop
endfacet
facet normal 2.4459601011272982e-17 0.0 -1.0
  outer loop
    vertex 4.530305312717119 5.617023369732705 -0.012406087926843723
    vertex 0.0 -0.07541260000000562 -0.012406087926847447
    vertex 4.025738685968816 6.274587399999993 -0.012406087926843723
  endloop
endfacet
facet normal 2.4459601011272982e-17 0.0 -1.0
  outer loop
    vertex 4.025738685968816 6.274587399999993 -0.012406087926843723
    vertex 0.0 -0.07541260000000562 -0.012406087926847447
    vertex 3.7085548445166157 7.040336931799489 -0.012406087926843723
  endloop
endfacet
facet normal 2.4459601011272982e-17 0.0 -1.0
  outer loop
    vertex 3.7085548445166157 7.040336931799489 -0.012406087926843723
    vertex 0.0 -0.07541260000000562 -0.012406087926847447
    vertex 3.6003693429844073 7.862087399999994 -0.012406087926843723
  endloop
endfacet
facet normal 2.4459601011272982e-17 0.0 -1.0
  outer loop
    vertex 15.875 -0.07541260000000562 -0.01240608792684706
    vertex 5.187869342984408 5.112456742984401 -0.012406087926845132
    vertex 5.953618874783904 4.795272901532202 -0.012406087926845132
  endloop
endfacet
facet normal 2.4459601011272982e-17 0.0 -1.0
  outer loop
    vertex 15.875 -0.07541260000000562 -0.01240608792684706
    vertex 5.953618874783904 4.795272901532202 -0.012406087926845132
    vertex 6.775369342984405 4.687087399999994 -0.012406087926845132
  endloop
endfacet
facet normal 2.4459601011272982e-17 0.0 -1.0
  outer loop
    vertex 15.875 -0.07541260000000562 -0.01240608792684706
    vertex 6.775369342984405 4.687087399999994 -0.012406087926845132
    vertex 7.59711981118491 4.795272901532202 -0.012406087926845132
  endloop
endfacet
facet normal 2.4459601011272982e-17 0.0 -1.0
  outer loop
    vertex 15.875 -0.07541260000000562 -0.01240608792684706
    vertex 7.59711981118491 4.795272901532202 -0.012406087926845132
    vertex 8.362869342984405 5.112456742984402 -0.012406087926845132
  endloop
endfacet
facet normal 2.4459601011272982e-17 0.0 -1.0
  outer loop
    vertex 15.875 -0.07541260000000562 -0.01240608792684706
    vertex 8.362869342984405 5.112456742984402 -0.012406087926845132
    vertex 9.020433373251693 5.617023369732705 -0.012406087926845132
  endloop
endfacet
facet normal 2.4459601011272982e-17 0.0 -1.0
  outer loop
    vertex 15.875 -0.07541260000000562 -0.01240608792684706
    vertex 9.020433373251693 5.617023369732705 -0.012406087926845132
    vertex 9.524999999999999 6.274587399999994 -0.012406087926845132
  endloop
endfacet
facet normal 2.4459601011272982e-17 0.0 -1.0
  outer loop
    vertex 15.875 -0.07541260000000562 -0.01240608792684706
    vertex 9.524999999999999 6.274587399999994 -0.012406087926845132
    vertex 9.842183841452197 7.040336931799491 -0.012406087926845132
  endloop
endfacet
facet normal 2.4459601011272982e-17 0.0 -1.0
  outer loop
    vertex 15.875 -0.07541260000000562 -0.01240608792684706
    vertex 9.842183841452197 7.040336931799491 -0.012406087926845132
    vertex 9.950369342984406 7.862087399999994 -0.012406087926845132
  endloop
endfacet
facet normal 2.4459601011272982e-17 0.0 -1.0
  outer loop
    vertex 15.875 -0.07541260000000562 -0.01240608792684706
    vertex 9.950369342984406 7.862087399999994 -0.012406087926845132
    vertex 15.875 15.799587399999993 -0.01240608792684706
  endloop
endfacet
facet normal 0.9914448613738103 0.0 -0.13052619222005354
  outer loop
    vertex 15.875 15.799587399999993 -0.01240608792684706
    vertex 15.983185501532208 -0.07541260000000562 0.8093443802736567
    vertex 15.875 -0.07541260000000562 -0.01240608792684706
  endloop
endfacet
facet normal 0.9914448613738103 0.0 -0.13052619222005354
  outer loop
    vertex 15.983185501532208 -0.07541260000000562 0.8093443802736567
    vertex 15.875 15.799587399999993 -0.01240608792684706
    vertex 15.983185501532208 15.799587399999993 0.8093443802736567
  endloop
endfacet
facet normal 0.9238795325112872 0.0 -0.38268343236508884
  outer loop
    vertex 15.983185501532208 15.799587399999993 0.8093443802736567
    vertex 16.300369342984407 -0.07541260000000562 1.5750939120731535
    vertex 15.983185501532208 -0.07541260000000562 0.8093443802736567
  endloop
endfacet
facet normal 0.9238795325112872 0.0 -0.38268343236508884
  outer loop
    vertex 16.300369342984407 -0.07541260000000562 1.5750939120731535
    vertex 15.983185501532208 15.799587399999993 0.8093443802736567
    vertex 16.300369342984407 15.799587399999993 1.5750939120731535
  endloop
endfacet
facet normal 0.7933533402912358 0.0 -0.6087614290087197
  outer loop
    vertex 16.300369342984407 15.799587399999993 1.5750939120731535
    vertex 16.80493596973271 -0.07541260000000562 2.232657942340441
    vertex 16.300369342984407 -0.07541260000000562 1.5750939120731535
  endloop
endfacet
facet normal 0.7933533402912358 0.0 -0.6087614290087197
  outer loop
    vertex 16.80493596973271 -0.07541260000000562 2.232657942340441
    vertex 16.300369342984407 15.799587399999993 1.5750939120731535
    vertex 16.80493596973271 15.799587399999993 2.232657942340441
  endloop
endfacet
facet normal 0.60876142900872 0.0 -0.7933533402912357
  outer loop
    vertex 17.4625 15.799587399999993 2.7372245690887453
    vertex 16.80493596973271 -0.07541260000000562 2.232657942340441
    vertex 16.80493596973271 15.799587399999993 2.232657942340441
  endloop
endfacet
facet normal 0.60876142900872 0.0 -0.7933533402912357
  outer loop
    vertex 16.80493596973271 -0.07541260000000562 2.232657942340441
    vertex 17.4625 15.799587399999993 2.7372245690887453
    vertex 17.4625 -0.07541260000000562 2.7372245690887453
  endloop
endfacet
facet normal 0.3826834323650896 0.0 -0.9238795325112867
  outer loop
    vertex 18.228249531799495 15.799587399999993 3.054408410540944
    vertex 17.4625 -0.07541260000000562 2.7372245690887453
    vertex 17.4625 15.799587399999993 2.7372245690887453
  endloop
endfacet
facet normal 0.3826834323650896 0.0 -0.9238795325112867
  outer loop
    vertex 17.4625 -0.07541260000000562 2.7372245690887453
    vertex 18.228249531799495 15.799587399999993 3.054408410540944
    vertex 18.228249531799495 -0.07541260000000562 3.054408410540944
  endloop
endfacet
facet normal 0.13052619222005152 0.0 -0.9914448613738105
  outer loop
    vertex 19.049999999999997 15.799587399999993 3.1625939120731523
    vertex 18.228249531799495 -0.07541260000000562 3.054408410540944
    vertex 18.228249531799495 15.799587399999993 3.054408410540944
  endloop
endfacet
facet normal 0.13052619222005152 0.0 -0.9914448613738105
  outer loop
    vertex 18.228249531799495 -0.07541260000000562 3.054408410540944
    vertex 19.049999999999997 15.799587399999993 3.1625939120731523
    vertex 19.049999999999997 -0.07541260000000562 3.1625939120731523
  endloop
endfacet
facet normal -0.13052619222005193 -0.0 -0.9914448613738105
  outer loop
    vertex 19.871750468200503 15.799587399999993 3.054408410540944
    vertex 19.049999999999997 -0.07541260000000562 3.1625939120731523
    vertex 19.049999999999997 15.799587399999993 3.1625939120731523
  endloop
endfacet
facet normal -0.13052619222005193 -0.0 -0.9914448613738105
  outer loop
    vertex 19.049999999999997 -0.07541260000000562 3.1625939120731523
    vertex 19.871750468200503 15.799587399999993 3.054408410540944
    vertex 19.871750468200503 -0.07541260000000562 3.054408410540944
  endloop
endfacet
facet normal -0.3826834323650896 -0.0 -0.9238795325112867
  outer loop
    vertex 20.6375 15.799587399999993 2.737224569088745
    vertex 19.871750468200503 -0.07541260000000562 3.054408410540944
    vertex 19.871750468200503 15.799587399999993 3.054408410540944
  endloop
endfacet
facet normal -0.3826834323650896 -0.0 -0.9238795325112867
  outer loop
    vertex 19.871750468200503 -0.07541260000000562 3.054408410540944
    vertex 20.6375 15.799587399999993 2.737224569088745
    vertex 20.6375 -0.07541260000000562 2.737224569088745
  endloop
endfacet
facet normal -0.6087614290087198 -0.0 -0.7933533402912359
  outer loop
    vertex 21.295064030267287 15.799587399999993 2.232657942340441
    vertex 20.6375 -0.07541260000000562 2.737224569088745
    vertex 20.6375 15.799587399999993 2.737224569088745
  endloop
endfacet
facet normal -0.6087614290087198 -0.0 -0.7933533402912359
  outer loop
    vertex 20.6375 -0.07541260000000562 2.737224569088745
    vertex 21.295064030267287 15.799587399999993 2.232657942340441
    vertex 21.295064030267287 -0.07541260000000562 2.232657942340441
  endloop
endfacet
facet normal -0.7933533402912365 -0.0 -0.608761429008719
  outer loop
    vertex 21.295064030267287 15.799587399999993 2.232657942340441
    vertex 21.79963065701559 -0.07541260000000562 1.5750939120731524
    vertex 21.295064030267287 -0.07541260000000562 2.232657942340441
  endloop
endfacet
facet normal -0.7933533402912365 -0.0 -0.608761429008719
  outer loop
    vertex 21.79963065701559 -0.07541260000000562 1.5750939120731524
    vertex 21.295064030267287 15.799587399999993 2.232657942340441
    vertex 21.79963065701559 15.799587399999993 1.5750939120731524
  endloop
endfacet
facet normal -0.9238795325112859 -0.0 -0.38268343236509184
  outer loop
    vertex 21.79963065701559 15.799587399999993 1.5750939120731524
    vertex 22.116814498467793 -0.07541260000000562 0.8093443802736559
    vertex 21.79963065701559 -0.07541260000000562 1.5750939120731524
  endloop
endfacet
facet normal -0.9238795325112859 -0.0 -0.38268343236509184
  outer loop
    vertex 22.116814498467793 -0.07541260000000562 0.8093443802736559
    vertex 21.79963065701559 15.799587399999993 1.5750939120731524
    vertex 22.116814498467793 15.799587399999993 0.8093443802736559
  endloop
endfacet
facet normal -0.9914448613738107 -0.0 -0.13052619222005027
  outer loop
    vertex 22.116814498467793 15.799587399999993 0.8093443802736559
    vertex 22.224999999999998 -0.07541260000000562 -0.012406087926847447
    vertex 22.116814498467793 -0.07541260000000562 0.8093443802736559
  endloop
endfacet
facet normal -0.9914448613738107 -0.0 -0.13052619222005027
  outer loop
    vertex 22.224999999999998 -0.07541260000000562 -0.012406087926847447
    vertex 22.116814498467793 15.799587399999993 0.8093443802736559
    vertex 22.224999999999998 15.799587399999993 -0.012406087926847447
  endloop
endfacet
facet normal 0.0 0.0 -1.0
  outer loop
    vertex 25.4 15.799587399999993 -0.012406087926847447
    vertex 22.224999999999998 -0.07541260000000562 -0.012406087926847447
    vertex 22.224999999999998 15.799587399999993 -0.012406087926847447
  endloop
endfacet
facet normal 0.0 0.0 -1.0
  outer loop
    vertex 22.224999999999998 -0.07541260000000562 -0.012406087926847447
    vertex 25.4 15.799587399999993 -0.012406087926847447
    vertex 25.4 -0.07541260000000562 -0.012406087926847447
  endloop
endfacet
facet normal 0.9914448613738105 0.0 0.13052619222005152
  outer loop
    vertex 25.4 15.799587399999993 -0.012406087926847447
    vertex 25.18362899693558 -0.07541260000000562 1.6310948484741643
    vertex 25.4 -0.07541260000000562 -0.012406087926847447
  endloop
endfacet
facet normal 0.9914448613738105 0.0 0.13052619222005152
  outer loop
    vertex 25.18362899693558 -0.07541260000000562 1.6310948484741643
    vertex 25.4 15.799587399999993 -0.012406087926847447
    vertex 25.18362899693558 15.799587399999993 1.6310948484741643
  endloop
endfacet
facet normal 0.9238795325112863 0.0 0.38268343236509084
  outer loop
    vertex 25.18362899693558 15.799587399999993 1.6310948484741643
    vertex 24.54926131403118 -0.07541260000000562 3.162593912073155
    vertex 25.18362899693558 -0.07541260000000562 1.6310948484741643
  endloop
endfacet
facet normal 0.9238795325112863 0.0 0.38268343236509084
  outer loop
    vertex 24.54926131403118 -0.07541260000000562 3.162593912073155
    vertex 25.18362899693558 15.799587399999993 1.6310948484741643
    vertex 24.54926131403118 15.799587399999993 3.162593912073155
  endloop
endfacet
facet normal 0.7933533402912353 0.0 0.6087614290087205
  outer loop
    vertex 24.54926131403118 15.799587399999993 3.162593912073155
    vertex 23.540128060534574 -0.07541260000000562 4.47772197260773
    vertex 24.54926131403118 -0.07541260000000562 3.162593912073155
  endloop
endfacet
facet normal 0.7933533402912353 0.0 0.6087614290087205
  outer loop
    vertex 23.540128060534574 -0.07541260000000562 4.47772197260773
    vertex 24.54926131403118 15.799587399999993 3.162593912073155
    vertex 23.540128060534574 15.799587399999993 4.47772197260773
  endloop
endfacet
facet normal 0.6087614290087197 0.0 0.7933533402912358
  outer loop
    vertex 23.540128060534574 -0.07541260000000562 4.47772197260773
    vertex 22.224999999999994 15.799587399999993 5.48685522610434
    vertex 22.224999999999994 -0.07541260000000562 5.48685522610434
  endloop
endfacet
facet normal 0.6087614290087197 0.0 0.7933533402912358
  outer loop
    vertex 22.224999999999994 15.799587399999993 5.48685522610434
    vertex 23.540128060534574 -0.07541260000000562 4.47772197260773
    vertex 23.540128060534574 15.799587399999993 4.47772197260773
  endloop
endfacet
facet normal 0.3826834323650895 0.0 0.9238795325112868
  outer loop
    vertex 22.224999999999994 -0.07541260000000562 5.48685522610434
    vertex 20.693500936401 15.799587399999993 6.121222909008737
    vertex 20.693500936401 -0.07541260000000562 6.121222909008737
  endloop
endfacet
facet normal 0.3826834323650895 0.0 0.9238795325112868
  outer loop
    vertex 20.693500936401 15.799587399999993 6.121222909008737
    vertex 22.224999999999994 -0.07541260000000562 5.48685522610434
    vertex 22.224999999999994 15.799587399999993 5.48685522610434
  endloop
endfacet
facet normal 0.13052619222005132 0.0 0.9914448613738105
  outer loop
    vertex 20.693500936401 -0.07541260000000562 6.121222909008737
    vertex 19.049999999999997 15.799587399999993 6.337593912073152
    vertex 19.049999999999997 -0.07541260000000562 6.337593912073152
  endloop
endfacet
facet normal 0.13052619222005132 0.0 0.9914448613738105
  outer loop
    vertex 19.049999999999997 15.799587399999993 6.337593912073152
    vertex 20.693500936401 -0.07541260000000562 6.121222909008737
    vertex 20.693500936401 15.799587399999993 6.121222909008737
  endloop
endfacet
facet normal -0.13052619222005193 0.0 0.9914448613738105
  outer loop
    vertex 19.049999999999997 -0.07541260000000562 6.337593912073152
    vertex 17.406499063598986 15.799587399999993 6.1212229090087344
    vertex 17.406499063598986 -0.07541260000000562 6.1212229090087344
  endloop
endfacet
facet normal -0.13052619222005193 0.0 0.9914448613738105
  outer loop
    vertex 17.406499063598986 15.799587399999993 6.1212229090087344
    vertex 19.049999999999997 -0.07541260000000562 6.337593912073152
    vertex 19.049999999999997 15.799587399999993 6.337593912073152
  endloop
endfacet
facet normal -0.3826834323650906 0.0 0.9238795325112864
  outer loop
    vertex 17.406499063598986 -0.07541260000000562 6.1212229090087344
    vertex 15.874999999999996 15.799587399999993 5.486855226104336
    vertex 15.874999999999996 -0.07541260000000562 5.486855226104336
  endloop
endfacet
facet normal -0.3826834323650906 0.0 0.9238795325112864
  outer loop
    vertex 15.874999999999996 15.799587399999993 5.486855226104336
    vertex 17.406499063598986 -0.07541260000000562 6.1212229090087344
    vertex 17.406499063598986 15.799587399999993 6.1212229090087344
  endloop
endfacet
facet normal -0.6087614290087211 0.0 0.7933533402912348
  outer loop
    vertex 15.874999999999996 -0.07541260000000562 5.486855226104336
    vertex 14.55987193946542 15.799587399999993 4.477721972607727
    vertex 14.55987193946542 -0.07541260000000562 4.477721972607727
  endloop
endfacet
facet normal -0.6087614290087211 0.0 0.7933533402912348
  outer loop
    vertex 14.55987193946542 15.799587399999993 4.477721972607727
    vertex 15.874999999999996 -0.07541260000000562 5.486855226104336
    vertex 15.874999999999996 15.799587399999993 5.486855226104336
  endloop
endfacet
facet normal 0.9914448613738105 -0.13052619222005132 -1.227699113920419e-16
  outer loop
    vertex 3.708554844516615 8.683837868200495 -0.012406087926843723
    vertex 3.6003693429844064 7.862087399999994 3.1625939120731523
    vertex 3.6003693429844073 7.862087399999994 -0.012406087926843723
  endloop
endfacet
facet normal 0.9914448613738105 -0.13052619222005132 -1.227699113920419e-16
  outer loop
    vertex 3.6003693429844064 7.862087399999994 3.1625939120731523
    vertex 3.708554844516615 8.683837868200495 -0.012406087926843723
    vertex 3.7085548445166143 8.683837868200495 3.1625939120731523
  endloop
endfacet
facet normal 0.9914448613738105 0.1305261922200517 -1.185866281047938e-16
  outer loop
    vertex 3.6003693429844073 7.862087399999994 -0.012406087926843723
    vertex 3.708554844516615 7.040336931799489 3.1625939120731523
    vertex 3.7085548445166157 7.040336931799489 -0.012406087926843723
  endloop
endfacet
facet normal 0.9914448613738105 0.1305261922200517 -1.185866281047938e-16
  outer loop
    vertex 3.708554844516615 7.040336931799489 3.1625939120731523
    vertex 3.6003693429844073 7.862087399999994 -0.012406087926843723
    vertex 3.6003693429844064 7.862087399999994 3.1625939120731523
  endloop
endfacet
facet normal 0.9238795325112865 0.3826834323650904 -1.0632186208587285e-16
  outer loop
    vertex 3.7085548445166157 7.040336931799489 -0.012406087926843723
    vertex 4.025738685968815 6.274587399999993 3.1625939120731523
    vertex 4.025738685968816 6.274587399999993 -0.012406087926843723
  endloop
endfacet
facet normal 0.9238795325112865 0.3826834323650904 -1.0632186208587285e-16
  outer loop
    vertex 4.025738685968815 6.274587399999993 3.1625939120731523
    vertex 3.7085548445166157 7.040336931799489 -0.012406087926843723
    vertex 3.708554844516615 7.040336931799489 3.1625939120731523
  endloop
endfacet
facet normal 0.7933533402912348 0.6087614290087211 -8.681143687098441e-17
  outer loop
    vertex 4.025738685968816 6.274587399999993 -0.012406087926843723
    vertex 4.530305312717118 5.617023369732705 3.1625939120731523
    vertex 4.530305312717119 5.617023369732705 -0.012406087926843723
  endloop
endfacet
facet normal 0.7933533402912348 0.6087614290087211 -8.681143687098441e-17
  outer loop
    vertex 4.530305312717118 5.617023369732705 3.1625939120731523
    vertex 4.025738685968816 6.274587399999993 -0.012406087926843723
    vertex 4.025738685968815 6.274587399999993 3.1625939120731523
  endloop
endfacet
facet normal 0.608761429008721 0.793353340291235 -6.138495569602107e-17
  outer loop
    vertex 4.530305312717119 5.617023369732705 -0.012406087926843723
    vertex 5.187869342984407 5.112456742984401 3.1625939120731523
    vertex 5.187869342984408 5.112456742984401 -0.012406087926845132
  endloop
endfacet
facet normal 0.608761429008721 0.793353340291235 -6.138495569602107e-17
  outer loop
    vertex 5.187869342984407 5.112456742984401 3.1625939120731523
    vertex 4.530305312717119 5.617023369732705 -0.012406087926843723
    vertex 4.530305312717118 5.617023369732705 3.1625939120731523
  endloop
endfacet
facet normal 0.3826834323650893 0.9238795325112871 -3.177519123380938e-17
  outer loop
    vertex 5.187869342984407 5.112456742984401 3.1625939120731523
    vertex 5.953618874783904 4.795272901532202 -0.012406087926845132
    vertex 5.187869342984408 5.112456742984401 -0.012406087926845132
  endloop
endfacet
facet normal 0.3826834323650893 0.9238795325112871 -3.177519123380938e-17
  outer loop
    vertex 5.953618874783904 4.795272901532202 -0.012406087926845132
    vertex 5.187869342984407 5.112456742984401 3.1625939120731523
    vertex 5.953618874783903 4.795272901532202 3.1625939120731523
  endloop
endfacet
facet normal 0.13052619222005193 0.9914448613738105 -1.268940527569133e-31
  outer loop
    vertex 5.953618874783903 4.795272901532202 3.1625939120731523
    vertex 6.775369342984405 4.687087399999994 -0.012406087926845132
    vertex 5.953618874783904 4.795272901532202 -0.012406087926845132
  endloop
endfacet
facet normal 0.13052619222005193 0.9914448613738105 -1.268940527569133e-31
  outer loop
    vertex 6.775369342984405 4.687087399999994 -0.012406087926845132
    vertex 5.953618874783903 4.795272901532202 3.1625939120731523
    vertex 6.775369342984407 4.687087399999994 3.1625939120731523
  endloop
endfacet
facet normal -0.1305261922200517 0.9914448613738105 3.1775191233809307e-17
  outer loop
    vertex 6.775369342984407 4.687087399999994 3.1625939120731523
    vertex 7.59711981118491 4.795272901532202 -0.012406087926845132
    vertex 6.775369342984405 4.687087399999994 -0.012406087926845132
  endloop
endfacet
facet normal -0.1305261922200517 0.9914448613738105 3.1775191233809307e-17
  outer loop
    vertex 7.59711981118491 4.795272901532202 -0.012406087926845132
    vertex 6.775369342984407 4.687087399999994 3.1625939120731523
    vertex 7.597119811184911 4.795272901532202 3.1625939120731523
  endloop
endfacet
facet normal -0.3826834323650903 0.9238795325112866 6.138495569602094e-17
  outer loop
    vertex 7.597119811184911 4.795272901532202 3.1625939120731523
    vertex 8.362869342984405 5.112456742984402 -0.012406087926845132
    vertex 7.59711981118491 4.795272901532202 -0.012406087926845132
  endloop
endfacet
facet normal -0.3826834323650903 0.9238795325112866 6.138495569602094e-17
  outer loop
    vertex 8.362869342984405 5.112456742984402 -0.012406087926845132
    vertex 7.597119811184911 4.795272901532202 3.1625939120731523
    vertex 8.362869342984407 5.112456742984402 3.162593912073152
  endloop
endfacet
facet normal -0.6087614290087208 0.793353340291235 8.681143687098438e-17
  outer loop
    vertex 8.362869342984407 5.112456742984402 3.162593912073152
    vertex 9.020433373251693 5.617023369732705 -0.012406087926845132
    vertex 8.362869342984405 5.112456742984402 -0.012406087926845132
  endloop
endfacet
facet normal -0.6087614290087208 0.793353340291235 8.681143687098438e-17
  outer loop
    vertex 9.020433373251693 5.617023369732705 -0.012406087926845132
    vertex 8.362869342984407 5.112456742984402 3.162593912073152
    vertex 9.020433373251695 5.617023369732705 3.162593912073152
  endloop
endfacet
facet normal -0.7933533402912347 0.6087614290087213 1.0632186208587277e-16
  outer loop
    vertex 9.524999999999999 6.274587399999994 3.162593912073152
    vertex 9.020433373251693 5.617023369732705 -0.012406087926845132
    vertex 9.020433373251695 5.617023369732705 3.162593912073152
  endloop
endfacet
facet normal -0.7933533402912347 0.6087614290087213 1.0632186208587277e-16
  outer loop
    vertex 9.020433373251693 5.617023369732705 -0.012406087926845132
    vertex 9.524999999999999 6.274587399999994 3.162593912073152
    vertex 9.524999999999999 6.274587399999994 -0.012406087926845132
  endloop
endfacet
facet normal -0.9238795325112872 0.38268343236508895 1.185866281047938e-16
  outer loop
    vertex 9.842183841452197 7.040336931799491 3.162593912073152
    vertex 9.524999999999999 6.274587399999994 -0.012406087926845132
    vertex 9.524999999999999 6.274587399999994 3.162593912073152
  endloop
endfacet
facet normal -0.9238795325112872 0.38268343236508895 1.185866281047938e-16
  outer loop
    vertex 9.524999999999999 6.274587399999994 -0.012406087926845132
    vertex 9.842183841452197 7.040336931799491 3.162593912073152
    vertex 9.842183841452197 7.040336931799491 -0.012406087926845132
  endloop
endfacet
facet normal -0.9914448613738105 0.13052619222005193 1.2276991139204194e-16
  outer loop
    vertex 9.950369342984406 7.862087399999994 3.162593912073152
    vertex 9.842183841452197 7.040336931799491 -0.012406087926845132
    vertex 9.842183841452197 7.040336931799491 3.162593912073152
  endloop
endfacet
facet normal -0.9914448613738105 0.13052619222005193 1.2276991139204194e-16
  outer loop
    vertex 9.842183841452197 7.040336931799491 -0.012406087926845132
    vertex 9.950369342984406 7.862087399999994 3.162593912073152
    vertex 9.950369342984406 7.862087399999994 -0.012406087926845132
  endloop
endfacet
facet normal -0.9914448613738105 -0.1305261922200515 1.1858662810479383e-16
  outer loop
    vertex 9.842183841452197 8.6838378682005 3.162593912073152
    vertex 9.950369342984406 7.862087399999994 -0.012406087926845132
    vertex 9.950369342984406 7.862087399999994 3.162593912073152
  endloop
endfacet
facet normal -0.9914448613738105 -0.1305261922200515 1.1858662810479383e-16
  outer loop
    vertex 9.950369342984406 7.862087399999994 -0.012406087926845132
    vertex 9.842183841452197 8.6838378682005 3.162593912073152
    vertex 9.842183841452197 8.6838378682005 -0.012406087926845132
  endloop
endfacet
facet normal -0.9238795325112863 -0.38268343236509095 1.0632186208587283e-16
  outer loop
    vertex 9.524999999999999 9.449587399999995 3.162593912073152
    vertex 9.842183841452197 8.6838378682005 -0.012406087926845132
    vertex 9.842183841452197 8.6838378682005 3.162593912073152
  endloop
endfacet
facet normal -0.9238795325112863 -0.38268343236509095 1.0632186208587283e-16
  outer loop
    vertex 9.842183841452197 8.6838378682005 -0.012406087926845132
    vertex 9.524999999999999 9.449587399999995 3.162593912073152
    vertex 9.524999999999997 9.449587399999995 -0.012406087926845132
  endloop
endfacet
facet normal -0.7933533402912355 -0.6087614290087203 8.681143687098451e-17
  outer loop
    vertex 9.020433373251695 10.107151430267283 3.162593912073152
    vertex 9.524999999999997 9.449587399999995 -0.012406087926845132
    vertex 9.524999999999999 9.449587399999995 3.162593912073152
  endloop
endfacet
facet normal -0.7933533402912355 -0.6087614290087203 8.681143687098451e-17
  outer loop
    vertex 9.524999999999997 9.449587399999995 -0.012406087926845132
    vertex 9.020433373251695 10.107151430267283 3.162593912073152
    vertex 9.020433373251693 10.107151430267283 -0.012406087926845132
  endloop
endfacet
facet normal -0.6087614290087197 -0.7933533402912358 6.138495569602088e-17
  outer loop
    vertex 9.020433373251695 10.107151430267283 3.162593912073152
    vertex 8.362869342984402 10.611718057015588 -0.012406087926845132
    vertex 9.020433373251693 10.107151430267283 -0.012406087926845132
  endloop
endfacet
facet normal -0.6087614290087197 -0.7933533402912358 6.138495569602088e-17
  outer loop
    vertex 8.362869342984402 10.611718057015588 -0.012406087926845132
    vertex 9.020433373251695 10.107151430267283 3.162593912073152
    vertex 8.362869342984403 10.611718057015588 3.1625939120731523
  endloop
endfacet
facet normal -0.3826834323650895 -0.9238795325112868 3.1775191233809424e-17
  outer loop
    vertex 8.362869342984403 10.611718057015588 3.1625939120731523
    vertex 7.597119811184907 10.928901898467787 -0.012406087926845132
    vertex 8.362869342984402 10.611718057015588 -0.012406087926845132
  endloop
endfacet
facet normal -0.3826834323650895 -0.9238795325112868 3.1775191233809424e-17
  outer loop
    vertex 7.597119811184907 10.928901898467787 -0.012406087926845132
    vertex 8.362869342984403 10.611718057015588 3.1625939120731523
    vertex 7.597119811184908 10.928901898467787 3.1625939120731523
  endloop
endfacet
facet normal -0.13052619222005046 -0.9914448613738105 -5.311844068894054e-32
  outer loop
    vertex 7.597119811184908 10.928901898467787 3.1625939120731523
    vertex 6.775369342984405 11.037087399999994 -0.012406087926845132
    vertex 7.597119811184907 10.928901898467787 -0.012406087926845132
  endloop
endfacet
facet normal -0.13052619222005046 -0.9914448613738105 -5.311844068894054e-32
  outer loop
    vertex 6.775369342984405 11.037087399999994 -0.012406087926845132
    vertex 7.597119811184908 10.928901898467787 3.1625939120731523
    vertex 6.775369342984407 11.037087399999994 3.1625939120731523
  endloop
endfacet
facet normal 0.1305261922200515 -0.9914448613738105 -3.177519123380929e-17
  outer loop
    vertex 6.775369342984407 11.037087399999994 3.1625939120731523
    vertex 5.953618874783901 10.928901898467785 -0.012406087926845132
    vertex 6.775369342984405 11.037087399999994 -0.012406087926845132
  endloop
endfacet
facet normal 0.1305261922200515 -0.9914448613738105 -3.177519123380929e-17
  outer loop
    vertex 5.953618874783901 10.928901898467785 -0.012406087926845132
    vertex 6.775369342984407 11.037087399999994 3.1625939120731523
    vertex 5.9536188747839 10.928901898467785 3.1625939120731523
  endloop
endfacet
facet normal 0.38268343236509095 -0.9238795325112863 -6.138495569602102e-17
  outer loop
    vertex 5.9536188747839 10.928901898467785 3.1625939120731523
    vertex 5.187869342984405 10.611718057015585 -0.012406087926843723
    vertex 5.953618874783901 10.928901898467785 -0.012406087926845132
  endloop
endfacet
facet normal 0.38268343236509095 -0.9238795325112863 -6.138495569602102e-17
  outer loop
    vertex 5.187869342984405 10.611718057015585 -0.012406087926843723
    vertex 5.9536188747839 10.928901898467785 3.1625939120731523
    vertex 5.187869342984405 10.611718057015585 3.1625939120731523
  endloop
endfacet
facet normal 0.6087614290087213 -0.7933533402912347 -8.681143687098443e-17
  outer loop
    vertex 5.187869342984405 10.611718057015585 3.1625939120731523
    vertex 4.530305312717117 10.107151430267281 -0.012406087926843723
    vertex 5.187869342984405 10.611718057015585 -0.012406087926843723
  endloop
endfacet
facet normal 0.6087614290087213 -0.7933533402912347 -8.681143687098443e-17
  outer loop
    vertex 4.530305312717117 10.107151430267281 -0.012406087926843723
    vertex 5.187869342984405 10.611718057015585 3.1625939120731523
    vertex 4.530305312717117 10.107151430267281 3.1625939120731523
  endloop
endfacet
facet normal 0.7933533402912355 -0.6087614290087203 -1.0632186208587285e-16
  outer loop
    vertex 4.530305312717117 10.107151430267281 -0.012406087926843723
    vertex 4.025738685968813 9.449587399999993 3.1625939120731523
    vertex 4.025738685968814 9.449587399999993 -0.012406087926843723
  endloop
endfacet
facet normal 0.7933533402912355 -0.6087614290087203 -1.0632186208587285e-16
  outer loop
    vertex 4.025738685968813 9.449587399999993 3.1625939120731523
    vertex 4.530305312717117 10.107151430267281 -0.012406087926843723
    vertex 4.530305312717117 10.107151430267281 3.1625939120731523
  endloop
endfacet
facet normal 0.9238795325112867 -0.3826834323650896 -1.1858662810479373e-16
  outer loop
    vertex 4.025738685968814 9.449587399999993 -0.012406087926843723
    vertex 3.7085548445166143 8.683837868200495 3.1625939120731523
    vertex 3.708554844516615 8.683837868200495 -0.012406087926843723
  endloop
endfacet
facet normal 0.9238795325112867 -0.3826834323650896 -1.1858662810479373e-16
  outer loop
    vertex 3.7085548445166143 8.683837868200495 3.1625939120731523
    vertex 4.025738685968814 9.449587399999993 -0.012406087926843723
    vertex 4.025738685968813 9.449587399999993 3.1625939120731523
  endloop
endfacet
endsolid Untitled-604ea58c
