solid Untitled-5eb9e67a
facet normal 0.0 0.0 -1.0
  outer loop
    vertex 15.875 6.35 0.0
    vertex 21.416093682165783 4.406254973174888 0.0
    vertex 15.875 0.0 0.0
  endloop
endfacet
facet normal 0.0 0.0 -1.0
  outer loop
    vertex 21.416093682165783 4.406254973174888 0.0
    vertex 15.875 6.35 0.0
    vertex 25.4 6.35 0.0
  endloop
endfacet
facet normal 0.0 0.0 -1.0
  outer loop
    vertex 15.875 0.0 0.0
    vertex 21.416093682165783 4.406254973174888 0.0
    vertex 21.124984260120684 4.154940616577231 0.0
  endloop
endfacet
facet normal 0.0 0.0 -1.0
  outer loop
    vertex 15.875 0.0 0.0
    vertex 21.124984260120684 4.154940616577231 0.0
    vertex 20.908839092886396 3.8368449263882733 0.0
  endloop
endfacet
facet normal 0.0 0.0 -1.0
  outer loop
    vertex 15.875 0.0 0.0
    vertex 20.908839092886396 3.8368449263882733 0.0
    vertex 20.78238811641316 3.4736455982164096 0.0
  endloop
endfacet
facet normal 0.0 0.0 -1.0
  outer loop
    vertex 15.875 0.0 0.0
    vertex 20.78238811641316 3.4736455982164096 0.0
    vertex 20.75424875577751 3.0900940660612846 0.0
  endloop
endfacet
facet normal 0.0 0.0 -1.0
  outer loop
    vertex 20.75424875577751 3.0900940660612846 0.0
    vertex 20.78238811641316 3.4736455982164096 0.0
    vertex 20.760477902306487 3.175 0.0
  endloop
endfacet
facet normal 0.0 0.0 -1.0
  outer loop
    vertex 21.416093682165783 4.406254973174888 0.0
    vertex 25.4 6.35 0.0
    vertex 21.762328732990394 4.573661338095726 0.0
  endloop
endfacet
facet normal 0.0 0.0 -1.0
  outer loop
    vertex 21.762328732990394 4.573661338095726 0.0
    vertex 25.4 6.35 0.0
    vertex 22.140094066061284 4.645751244222488 0.0
  endloop
endfacet
facet normal 0.0 0.0 -1.0
  outer loop
    vertex 22.140094066061284 4.645751244222488 0.0
    vertex 25.4 6.35 0.0
    vertex 22.224999999999998 4.6395220976935105 0.0
  endloop
endfacet
facet normal 0.0 0.0 -1.0
  outer loop
    vertex 22.224999999999998 4.6395220976935105 0.0
    vertex 25.4 6.35 0.0
    vertex 22.523645598216408 4.617611883586838 0.0
  endloop
endfacet
facet normal 0.0 0.0 -1.0
  outer loop
    vertex 22.523645598216408 4.617611883586838 0.0
    vertex 25.4 6.35 0.0
    vertex 22.886844926388275 4.491160907113604 0.0
  endloop
endfacet
facet normal 0.0 0.0 -1.0
  outer loop
    vertex 22.886844926388275 4.491160907113604 0.0
    vertex 25.4 6.35 0.0
    vertex 23.20494061657723 4.275015739879317 0.0
  endloop
endfacet
facet normal 0.0 0.0 -1.0
  outer loop
    vertex 23.20494061657723 4.275015739879317 0.0
    vertex 25.4 6.35 0.0
    vertex 23.45625497317489 3.9839063178342147 0.0
  endloop
endfacet
facet normal 0.0 0.0 -1.0
  outer loop
    vertex 23.45625497317489 3.9839063178342147 0.0
    vertex 25.4 6.35 0.0
    vertex 23.623661338095726 3.6376712670096074 0.0
  endloop
endfacet
facet normal 0.0 0.0 -1.0
  outer loop
    vertex 23.623661338095726 3.6376712670096074 0.0
    vertex 25.4 6.35 0.0
    vertex 23.69575124422249 3.2599059339387164 0.0
  endloop
endfacet
facet normal 0.0 0.0 -1.0
  outer loop
    vertex 15.875 0.0 0.0
    vertex 21.563155073611725 1.8588390928863965 0.0
    vertex 25.4 0.0 0.0
  endloop
endfacet
facet normal 0.0 0.0 -1.0
  outer loop
    vertex 21.563155073611725 1.8588390928863965 0.0
    vertex 15.875 0.0 0.0
    vertex 21.245059383422767 2.074984260120684 0.0
  endloop
endfacet
facet normal 0.0 0.0 -1.0
  outer loop
    vertex 21.245059383422767 2.074984260120684 0.0
    vertex 15.875 0.0 0.0
    vertex 20.99374502682511 2.366093682165785 0.0
  endloop
endfacet
facet normal 0.0 0.0 -1.0
  outer loop
    vertex 20.99374502682511 2.366093682165785 0.0
    vertex 15.875 0.0 0.0
    vertex 20.826338661904273 2.7123287329903927 0.0
  endloop
endfacet
facet normal 0.0 0.0 -1.0
  outer loop
    vertex 20.826338661904273 2.7123287329903927 0.0
    vertex 15.875 0.0 0.0
    vertex 20.75424875577751 3.0900940660612846 0.0
  endloop
endfacet
facet normal 0.0 0.0 -1.0
  outer loop
    vertex 25.4 0.0 0.0
    vertex 21.563155073611725 1.8588390928863965 0.0
    vertex 21.926354401783588 1.7323881164131614 0.0
  endloop
endfacet
facet normal 0.0 0.0 -1.0
  outer loop
    vertex 25.4 0.0 0.0
    vertex 21.926354401783588 1.7323881164131614 0.0
    vertex 22.224999999999998 1.7104779023064896 0.0
  endloop
endfacet
facet normal 0.0 0.0 -1.0
  outer loop
    vertex 25.4 0.0 0.0
    vertex 22.224999999999998 1.7104779023064896 0.0
    vertex 22.309905933938715 1.7042487557775117 0.0
  endloop
endfacet
facet normal 0.0 0.0 -1.0
  outer loop
    vertex 25.4 0.0 0.0
    vertex 22.309905933938715 1.7042487557775117 0.0
    vertex 22.687671267009605 1.7763386619042736 0.0
  endloop
endfacet
facet normal 0.0 0.0 -1.0
  outer loop
    vertex 25.4 0.0 0.0
    vertex 22.687671267009605 1.7763386619042736 0.0
    vertex 23.033906317834212 1.9437450268251115 0.0
  endloop
endfacet
facet normal 0.0 0.0 -1.0
  outer loop
    vertex 25.4 0.0 0.0
    vertex 23.033906317834212 1.9437450268251115 0.0
    vertex 23.325015739879316 2.1950593834227696 0.0
  endloop
endfacet
facet normal 0.0 0.0 -1.0
  outer loop
    vertex 25.4 0.0 0.0
    vertex 23.325015739879316 2.1950593834227696 0.0
    vertex 23.541160907113603 2.513155073611727 0.0
  endloop
endfacet
facet normal 0.0 0.0 -1.0
  outer loop
    vertex 25.4 0.0 0.0
    vertex 23.541160907113603 2.513155073611727 0.0
    vertex 23.667611883586837 2.87635440178359 0.0
  endloop
endfacet
facet normal 0.0 0.0 -1.0
  outer loop
    vertex 25.4 0.0 0.0
    vertex 23.667611883586837 2.87635440178359 0.0
    vertex 23.68952209769351 3.175 0.0
  endloop
endfacet
facet normal 0.0 0.0 -1.0
  outer loop
    vertex 25.4 0.0 0.0
    vertex 23.68952209769351 3.175 0.0
    vertex 23.69575124422249 3.2599059339387164 0.0
  endloop
endfacet
facet normal 0.0 0.0 -1.0
  outer loop
    vertex 25.4 0.0 0.0
    vertex 23.69575124422249 3.2599059339387164 0.0
    vertex 25.4 6.35 0.0
  endloop
endfacet
facet normal 1.0 0.0 0.0
  outer loop
    vertex 25.4 6.35 0.0
    vertex 25.4 0.0 3.175
    vertex 25.4 0.0 0.0
  endloop
endfacet
facet normal 1.0 0.0 0.0
  outer loop
    vertex 25.4 0.0 3.175
    vertex 25.4 6.35 0.0
    vertex 25.4 6.35 3.175
  endloop
endfacet
facet normal 0.0 -1.0 0.0
  outer loop
    vertex 25.4 0.0 3.175
    vertex 15.875 0.0 0.0
    vertex 25.4 0.0 0.0
  endloop
endfacet
facet normal 0.0 -1.0 0.0
  outer loop
    vertex 15.875 0.0 0.0
    vertex 25.4 0.0 3.175
    vertex 19.049999999999997 0.0 3.175
  endloop
endfacet
facet normal 0.0 -1.0 0.0
  outer loop
    vertex 15.875 0.0 0.0
    vertex 19.049999999999997 0.0 3.175
    vertex 15.875 0.0 6.35
  endloop
endfacet
facet normal 0.0 -1.0 0.0
  outer loop
    vertex 15.875 0.0 6.35
    vertex 19.049999999999997 0.0 3.175
    vertex 19.049999999999997 0.0 9.524999999999999
  endloop
endfacet
facet normal 0.0 -1.0 0.0
  outer loop
    vertex 15.875 0.0 6.35
    vertex 19.049999999999997 0.0 9.524999999999999
    vertex 9.524999999999999 0.0 6.35
  endloop
endfacet
facet normal 0.0 -1.0 0.0
  outer loop
    vertex 9.524999999999999 0.0 0.0
    vertex 6.35 0.0 3.175
    vertex 0.0 0.0 0.0
  endloop
endfacet
facet normal 0.0 -1.0 0.0
  outer loop
    vertex 6.35 0.0 3.175
    vertex 9.524999999999999 0.0 0.0
    vertex 9.524999999999999 0.0 6.35
  endloop
endfacet
facet normal 0.0 -1.0 0.0
  outer loop
    vertex 6.35 0.0 3.175
    vertex 9.524999999999999 0.0 6.35
    vertex 6.35 0.0 9.524999999999999
  endloop
endfacet
facet normal 0.0 -1.0 0.0
  outer loop
    vertex 6.35 0.0 9.524999999999999
    vertex 9.524999999999999 0.0 6.35
    vertex 19.049999999999997 0.0 9.524999999999999
  endloop
endfacet
facet normal 0.0 -1.0 0.0
  outer loop
    vertex 0.0 0.0 3.175
    vertex 0.0 0.0 0.0
    vertex 6.35 0.0 3.175
  endloop
endfacet
facet normal 0.0 1.0 0.0
  outer loop
    vertex 0.0 6.35 3.175
    vertex 9.524999999999999 6.35 0.0
    vertex 0.0 6.35 0.0
  endloop
endfacet
facet normal 0.0 1.0 0.0
  outer loop
    vertex 9.524999999999999 6.35 0.0
    vertex 0.0 6.35 3.175
    vertex 6.35 6.35 3.175
  endloop
endfacet
facet normal 0.0 1.0 0.0
  outer loop
    vertex 9.524999999999999 6.35 0.0
    vertex 6.35 6.35 3.175
    vertex 9.524999999999999 6.35 6.35
  endloop
endfacet
facet normal 0.0 1.0 0.0
  outer loop
    vertex 9.524999999999999 6.35 6.35
    vertex 6.35 6.35 3.175
    vertex 6.35 6.35 9.524999999999999
  endloop
endfacet
facet normal 0.0 1.0 0.0
  outer loop
    vertex 9.524999999999999 6.35 6.35
    vertex 6.35 6.35 9.524999999999999
    vertex 15.875 6.35 6.35
  endloop
endfacet
facet normal 0.0 1.0 0.0
  outer loop
    vertex 15.875 6.35 0.0
    vertex 19.049999999999997 6.35 3.175
    vertex 25.4 6.35 0.0
  endloop
endfacet
facet normal 0.0 1.0 0.0
  outer loop
    vertex 19.049999999999997 6.35 3.175
    vertex 15.875 6.35 0.0
    vertex 15.875 6.35 6.35
  endloop
endfacet
facet normal 0.0 1.0 0.0
  outer loop
    vertex 19.049999999999997 6.35 3.175
    vertex 15.875 6.35 6.35
    vertex 19.049999999999997 6.35 9.524999999999999
  endloop
endfacet
facet normal 0.0 1.0 0.0
  outer loop
    vertex 19.049999999999997 6.35 9.524999999999999
    vertex 15.875 6.35 6.35
    vertex 6.35 6.35 9.524999999999999
  endloop
endfacet
facet normal 0.0 1.0 0.0
  outer loop
    vertex 25.4 6.35 3.175
    vertex 25.4 6.35 0.0
    vertex 19.049999999999997 6.35 3.175
  endloop
endfacet
facet normal 1.0 0.0 0.0
  outer loop
    vertex 9.524999999999999 6.35 0.0
    vertex 9.524999999999999 0.0 6.35
    vertex 9.524999999999999 0.0 0.0
  endloop
endfacet
facet normal 1.0 0.0 0.0
  outer loop
    vertex 9.524999999999999 0.0 6.35
    vertex 9.524999999999999 6.35 0.0
    vertex 9.524999999999999 6.35 6.35
  endloop
endfacet
facet normal 0.0 0.0 -1.0
  outer loop
    vertex 15.875 6.35 6.35
    vertex 9.524999999999999 0.0 6.35
    vertex 9.524999999999999 6.35 6.35
  endloop
endfacet
facet normal 0.0 0.0 -1.0
  outer loop
    vertex 9.524999999999999 0.0 6.35
    vertex 15.875 6.35 6.35
    vertex 15.875 0.0 6.35
  endloop
endfacet
facet normal 0.0 0.0 -1.0
  outer loop
    vertex 0.0 6.35 0.0
    vertex 1.8067448186106676 3.721073253878311 0.0
    vertex 0.0 0.0 0.0
  endloop
endfacet
facet normal 0.0 0.0 -1.0
  outer loop
    vertex 1.8067448186106676 3.721073253878311 0.0
    vertex 0.0 6.35 0.0
    vertex 1.9947011414670206 4.056596758470531 0.0
  endloop
endfacet
facet normal 0.0 0.0 -1.0
  outer loop
    vertex 1.9947011414670206 4.056596758470531 0.0
    vertex 0.0 6.35 0.0
    vertex 2.2630928809963082 4.3320409008805125 0.0
  endloop
endfacet
facet normal 0.0 0.0 -1.0
  outer loop
    vertex 2.2630928809963082 4.3320409008805125 0.0
    vertex 0.0 6.35 0.0
    vertex 2.5936295836879304 4.5286346179959835 0.0
  endloop
endfacet
facet normal 0.0 0.0 -1.0
  outer loop
    vertex 2.5936295836879304 4.5286346179959835 0.0
    vertex 0.0 6.35 0.0
    vertex 2.9637857194911796 4.6329803728820025 0.0
  endloop
endfacet
facet normal 0.0 0.0 -1.0
  outer loop
    vertex 2.9637857194911796 4.6329803728820025 0.0
    vertex 0.0 6.35 0.0
    vertex 9.524999999999999 6.35 0.0
  endloop
endfacet
facet normal 0.0 0.0 -1.0
  outer loop
    vertex 0.0 0.0 0.0
    vertex 1.8067448186106676 3.721073253878311 0.0
    vertex 1.7120328252173993 3.3483357594630037 0.0
  endloop
endfacet
facet normal 0.0 0.0 -1.0
  outer loop
    vertex 2.9637857194911796 4.6329803728820025 0.0
    vertex 9.524999999999999 6.35 0.0
    vertex 3.175 4.635719376044118 0.0
  endloop
endfacet
facet normal 0.0 0.0 -1.0
  outer loop
    vertex 3.175 4.635719376044118 0.0
    vertex 9.524999999999999 6.35 0.0
    vertex 3.3483357594630037 4.637967174782601 0.0
  endloop
endfacet
facet normal 0.0 0.0 -1.0
  outer loop
    vertex 3.3483357594630037 4.637967174782601 0.0
    vertex 9.524999999999999 6.35 0.0
    vertex 3.72107325387831 4.543255181389332 0.0
  endloop
endfacet
facet normal 0.0 0.0 -1.0
  outer loop
    vertex 3.72107325387831 4.543255181389332 0.0
    vertex 9.524999999999999 6.35 0.0
    vertex 4.056596758470531 4.355298858532979 0.0
  endloop
endfacet
facet normal 0.0 0.0 -1.0
  outer loop
    vertex 4.056596758470531 4.355298858532979 0.0
    vertex 9.524999999999999 6.35 0.0
    vertex 4.332040900880512 4.086907119003692 0.0
  endloop
endfacet
facet normal 0.0 0.0 -1.0
  outer loop
    vertex 4.332040900880512 4.086907119003692 0.0
    vertex 9.524999999999999 6.35 0.0
    vertex 4.528634617995983 3.7563704163120692 0.0
  endloop
endfacet
facet normal 0.0 0.0 -1.0
  outer loop
    vertex 4.528634617995983 3.7563704163120692 0.0
    vertex 9.524999999999999 6.35 0.0
    vertex 4.6329803728820025 3.38621428050882 0.0
  endloop
endfacet
facet normal 0.0 0.0 -1.0
  outer loop
    vertex 4.6329803728820025 3.38621428050882 0.0
    vertex 9.524999999999999 6.35 0.0
    vertex 4.635719376044118 3.175 0.0
  endloop
endfacet
facet normal 0.0 0.0 -1.0
  outer loop
    vertex 4.635719376044118 3.175 0.0
    vertex 9.524999999999999 6.35 0.0
    vertex 4.637967174782601 3.0016642405369964 0.0
  endloop
endfacet
facet normal 0.0 0.0 -1.0
  outer loop
    vertex 0.0 0.0 0.0
    vertex 2.6289267461216888 1.8067448186106676 0.0
    vertex 9.524999999999999 0.0 0.0
  endloop
endfacet
facet normal 0.0 0.0 -1.0
  outer loop
    vertex 2.6289267461216888 1.8067448186106676 0.0
    vertex 0.0 0.0 0.0
    vertex 2.293403241529469 1.9947011414670208 0.0
  endloop
endfacet
facet normal 0.0 0.0 -1.0
  outer loop
    vertex 2.293403241529469 1.9947011414670208 0.0
    vertex 0.0 0.0 0.0
    vertex 2.0179590991194876 2.2630928809963082 0.0
  endloop
endfacet
facet normal 0.0 0.0 -1.0
  outer loop
    vertex 2.0179590991194876 2.2630928809963082 0.0
    vertex 0.0 0.0 0.0
    vertex 1.8213653820040165 2.5936295836879304 0.0
  endloop
endfacet
facet normal 0.0 0.0 -1.0
  outer loop
    vertex 1.8213653820040165 2.5936295836879304 0.0
    vertex 0.0 0.0 0.0
    vertex 1.7170196271179974 2.96378571949118 0.0
  endloop
endfacet
facet normal 0.0 0.0 -1.0
  outer loop
    vertex 1.7170196271179974 2.96378571949118 0.0
    vertex 0.0 0.0 0.0
    vertex 1.7142806239558808 3.175 0.0
  endloop
endfacet
facet normal 0.0 0.0 -1.0
  outer loop
    vertex 1.7142806239558808 3.175 0.0
    vertex 0.0 0.0 0.0
    vertex 1.7120328252173993 3.3483357594630037 0.0
  endloop
endfacet
facet normal 0.0 0.0 -1.0
  outer loop
    vertex 9.524999999999999 0.0 0.0
    vertex 2.6289267461216888 1.8067448186106676 0.0
    vertex 3.0016642405369955 1.712032825217399 0.0
  endloop
endfacet
facet normal 0.0 0.0 -1.0
  outer loop
    vertex 9.524999999999999 0.0 0.0
    vertex 3.0016642405369955 1.712032825217399 0.0
    vertex 3.175 1.7142806239558808 0.0
  endloop
endfacet
facet normal 0.0 0.0 -1.0
  outer loop
    vertex 9.524999999999999 0.0 0.0
    vertex 3.175 1.7142806239558808 0.0
    vertex 3.386214280508819 1.7170196271179974 0.0
  endloop
endfacet
facet normal 0.0 0.0 -1.0
  outer loop
    vertex 9.524999999999999 0.0 0.0
    vertex 3.386214280508819 1.7170196271179974 0.0
    vertex 3.7563704163120692 1.8213653820040165 0.0
  endloop
endfacet
facet normal 0.0 0.0 -1.0
  outer loop
    vertex 9.524999999999999 0.0 0.0
    vertex 3.7563704163120692 1.8213653820040165 0.0
    vertex 4.086907119003692 2.017959099119488 0.0
  endloop
endfacet
facet normal 0.0 0.0 -1.0
  outer loop
    vertex 9.524999999999999 0.0 0.0
    vertex 4.086907119003692 2.017959099119488 0.0
    vertex 4.355298858532979 2.2934032415294694 0.0
  endloop
endfacet
facet normal 0.0 0.0 -1.0
  outer loop
    vertex 9.524999999999999 0.0 0.0
    vertex 4.355298858532979 2.2934032415294694 0.0
    vertex 4.543255181389332 2.628926746121689 0.0
  endloop
endfacet
facet normal 0.0 0.0 -1.0
  outer loop
    vertex 9.524999999999999 0.0 0.0
    vertex 4.543255181389332 2.628926746121689 0.0
    vertex 4.637967174782601 3.0016642405369964 0.0
  endloop
endfacet
facet normal 0.0 0.0 -1.0
  outer loop
    vertex 9.524999999999999 0.0 0.0
    vertex 4.637967174782601 3.0016642405369964 0.0
    vertex 9.524999999999999 6.35 0.0
  endloop
endfacet
facet normal -1.0 0.0 0.0
  outer loop
    vertex 0.0 6.35 3.175
    vertex 0.0 0.0 0.0
    vertex 0.0 0.0 3.175
  endloop
endfacet
facet normal -1.0 0.0 0.0
  outer loop
    vertex 0.0 0.0 0.0
    vertex 0.0 6.35 3.175
    vertex 0.0 6.35 0.0
  endloop
endfacet
facet normal 0.0 0.0 1.0
  outer loop
    vertex 0.0 0.0 3.175
    vertex 1.8213653820040165 2.5936295836879304 3.175
    vertex 0.0 6.35 3.175
  endloop
endfacet
facet normal 0.0 0.0 1.0
  outer loop
    vertex 1.8213653820040165 2.5936295836879304 3.175
    vertex 0.0 0.0 3.175
    vertex 2.0179590991194876 2.2630928809963082 3.175
  endloop
endfacet
facet normal 0.0 0.0 1.0
  outer loop
    vertex 2.0179590991194876 2.2630928809963082 3.175
    vertex 0.0 0.0 3.175
    vertex 2.293403241529469 1.9947011414670208 3.175
  endloop
endfacet
facet normal 0.0 0.0 1.0
  outer loop
    vertex 2.293403241529469 1.9947011414670208 3.175
    vertex 0.0 0.0 3.175
    vertex 2.6289267461216888 1.8067448186106676 3.175
  endloop
endfacet
facet normal 0.0 0.0 1.0
  outer loop
    vertex 2.6289267461216888 1.8067448186106676 3.175
    vertex 0.0 0.0 3.175
    vertex 6.35 0.0 3.175
  endloop
endfacet
facet normal 0.0 0.0 1.0
  outer loop
    vertex 0.0 6.35 3.175
    vertex 1.8213653820040165 2.5936295836879304 3.175
    vertex 1.7170196271179974 2.96378571949118 3.175
  endloop
endfacet
facet normal 0.0 0.0 1.0
  outer loop
    vertex 0.0 6.35 3.175
    vertex 1.7170196271179974 2.96378571949118 3.175
    vertex 1.7142806239558808 3.175 3.175
  endloop
endfacet
facet normal 0.0 0.0 1.0
  outer loop
    vertex 0.0 6.35 3.175
    vertex 1.7142806239558808 3.175 3.175
    vertex 1.7120328252173993 3.3483357594630037 3.175
  endloop
endfacet
facet normal 0.0 0.0 1.0
  outer loop
    vertex 2.6289267461216888 1.8067448186106676 3.175
    vertex 6.35 0.0 3.175
    vertex 3.0016642405369955 1.712032825217399 3.175
  endloop
endfacet
facet normal 0.0 0.0 1.0
  outer loop
    vertex 3.0016642405369955 1.712032825217399 3.175
    vertex 6.35 0.0 3.175
    vertex 3.175 1.7142806239558808 3.175
  endloop
endfacet
facet normal 0.0 0.0 1.0
  outer loop
    vertex 3.175 1.7142806239558808 3.175
    vertex 6.35 0.0 3.175
    vertex 3.386214280508819 1.7170196271179974 3.175
  endloop
endfacet
facet normal 0.0 0.0 1.0
  outer loop
    vertex 3.386214280508819 1.7170196271179974 3.175
    vertex 6.35 0.0 3.175
    vertex 3.7563704163120692 1.8213653820040165 3.175
  endloop
endfacet
facet normal 0.0 0.0 1.0
  outer loop
    vertex 3.7563704163120692 1.8213653820040165 3.175
    vertex 6.35 0.0 3.175
    vertex 4.086907119003692 2.017959099119488 3.175
  endloop
endfacet
facet normal 0.0 0.0 1.0
  outer loop
    vertex 4.086907119003692 2.017959099119488 3.175
    vertex 6.35 0.0 3.175
    vertex 4.355298858532979 2.2934032415294694 3.175
  endloop
endfacet
facet normal 0.0 0.0 1.0
  outer loop
    vertex 4.355298858532979 2.2934032415294694 3.175
    vertex 6.35 0.0 3.175
    vertex 4.543255181389332 2.628926746121689 3.175
  endloop
endfacet
facet normal 0.0 0.0 1.0
  outer loop
    vertex 4.543255181389332 2.628926746121689 3.175
    vertex 6.35 0.0 3.175
    vertex 4.637967174782601 3.0016642405369964 3.175
  endloop
endfacet
facet normal 0.0 0.0 1.0
  outer loop
    vertex 0.0 6.35 3.175
    vertex 2.5936295836879304 4.5286346179959835 3.175
    vertex 6.35 6.35 3.175
  endloop
endfacet
facet normal 0.0 0.0 1.0
  outer loop
    vertex 2.5936295836879304 4.5286346179959835 3.175
    vertex 0.0 6.35 3.175
    vertex 2.2630928809963082 4.3320409008805125 3.175
  endloop
endfacet
facet normal 0.0 0.0 1.0
  outer loop
    vertex 2.2630928809963082 4.3320409008805125 3.175
    vertex 0.0 6.35 3.175
    vertex 1.9947011414670206 4.056596758470531 3.175
  endloop
endfacet
facet normal 0.0 0.0 1.0
  outer loop
    vertex 1.9947011414670206 4.056596758470531 3.175
    vertex 0.0 6.35 3.175
    vertex 1.8067448186106676 3.721073253878311 3.175
  endloop
endfacet
facet normal 0.0 0.0 1.0
  outer loop
    vertex 1.8067448186106676 3.721073253878311 3.175
    vertex 0.0 6.35 3.175
    vertex 1.7120328252173993 3.3483357594630037 3.175
  endloop
endfacet
facet normal 0.0 0.0 1.0
  outer loop
    vertex 6.35 6.35 3.175
    vertex 2.5936295836879304 4.5286346179959835 3.175
    vertex 2.9637857194911796 4.6329803728820025 3.175
  endloop
endfacet
facet normal 0.0 0.0 1.0
  outer loop
    vertex 6.35 6.35 3.175
    vertex 2.9637857194911796 4.6329803728820025 3.175
    vertex 3.175 4.635719376044118 3.175
  endloop
endfacet
facet normal 0.0 0.0 1.0
  outer loop
    vertex 6.35 6.35 3.175
    vertex 3.175 4.635719376044118 3.175
    vertex 3.3483357594630037 4.637967174782601 3.175
  endloop
endfacet
facet normal 0.0 0.0 1.0
  outer loop
    vertex 6.35 6.35 3.175
    vertex 3.3483357594630037 4.637967174782601 3.175
    vertex 3.72107325387831 4.543255181389332 3.175
  endloop
endfacet
facet normal 0.0 0.0 1.0
  outer loop
    vertex 6.35 6.35 3.175
    vertex 3.72107325387831 4.543255181389332 3.175
    vertex 4.056596758470531 4.355298858532979 3.175
  endloop
endfacet
facet normal 0.0 0.0 1.0
  outer loop
    vertex 6.35 6.35 3.175
    vertex 4.056596758470531 4.355298858532979 3.175
    vertex 4.332040900880512 4.086907119003692 3.175
  endloop
endfacet
facet normal 0.0 0.0 1.0
  outer loop
    vertex 6.35 6.35 3.175
    vertex 4.332040900880512 4.086907119003692 3.175
    vertex 4.528634617995983 3.7563704163120692 3.175
  endloop
endfacet
facet normal 0.0 0.0 1.0
  outer loop
    vertex 6.35 6.35 3.175
    vertex 4.528634617995983 3.7563704163120692 3.175
    vertex 4.6329803728820025 3.38621428050882 3.175
  endloop
endfacet
facet normal 0.0 0.0 1.0
  outer loop
    vertex 6.35 6.35 3.175
    vertex 4.6329803728820025 3.38621428050882 3.175
    vertex 4.635719376044118 3.175 3.175
  endloop
endfacet
facet normal 0.0 0.0 1.0
  outer loop
    vertex 6.35 6.35 3.175
    vertex 4.635719376044118 3.175 3.175
    vertex 4.637967174782601 3.0016642405369964 3.175
  endloop
endfacet
facet normal 0.0 0.0 1.0
  outer loop
    vertex 6.35 6.35 3.175
    vertex 4.637967174782601 3.0016642405369964 3.175
    vertex 6.35 0.0 3.175
  endloop
endfacet
facet normal 0.0 0.0 1.0
  outer loop
    vertex 19.049999999999997 0.0 9.524999999999999
    vertex 6.35 6.35 9.524999999999999
    vertex 6.35 0.0 9.524999999999999
  endloop
endfacet
facet normal 0.0 0.0 1.0
  outer loop
    vertex 6.35 6.35 9.524999999999999
    vertex 19.049999999999997 0.0 9.524999999999999
    vertex 19.049999999999997 6.35 9.524999999999999
  endloop
endfacet
facet normal 1.0 0.0 0.0
  outer loop
    vertex 19.049999999999997 6.35 3.175
    vertex 19.049999999999997 0.0 9.524999999999999
    vertex 19.049999999999997 0.0 3.175
  endloop
endfacet
facet normal 1.0 0.0 0.0
  outer loop
    vertex 19.049999999999997 0.0 9.524999999999999
    vertex 19.049999999999997 6.35 3.175
    vertex 19.049999999999997 6.35 9.524999999999999
  endloop
endfacet
facet normal -1.0 -0.0 -0.0
  outer loop
    vertex 15.875 6.35 6.35
    vertex 15.875 0.0 0.0
    vertex 15.875 0.0 6.35
  endloop
endfacet
facet normal -1.0 -0.0 -0.0
  outer loop
    vertex 15.875 0.0 0.0
    vertex 15.875 6.35 6.35
    vertex 15.875 6.35 0.0
  endloop
endfacet
facet normal -1.0 0.0 0.0
  outer loop
    vertex 6.35 6.35 9.524999999999999
    vertex 6.35 0.0 3.175
    vertex 6.35 0.0 9.524999999999999
  endloop
endfacet
facet normal -1.0 0.0 0.0
  outer loop
    vertex 6.35 0.0 3.175
    vertex 6.35 6.35 9.524999999999999
    vertex 6.35 6.35 3.175
  endloop
endfacet
facet normal 0.0 0.0 1.0
  outer loop
    vertex 19.049999999999997 0.0 3.175
    vertex 20.99374502682511 2.366093682165785 3.175
    vertex 19.049999999999997 6.35 3.175
  endloop
endfacet
facet normal 0.0 0.0 1.0
  outer loop
    vertex 20.99374502682511 2.366093682165785 3.175
    vertex 19.049999999999997 0.0 3.175
    vertex 21.245059383422767 2.074984260120684 3.175
  endloop
endfacet
facet normal 0.0 0.0 1.0
  outer loop
    vertex 21.245059383422767 2.074984260120684 3.175
    vertex 19.049999999999997 0.0 3.175
    vertex 21.563155073611725 1.8588390928863965 3.175
  endloop
endfacet
facet normal 0.0 0.0 1.0
  outer loop
    vertex 21.563155073611725 1.8588390928863965 3.175
    vertex 19.049999999999997 0.0 3.175
    vertex 25.4 0.0 3.175
  endloop
endfacet
facet normal 0.0 0.0 1.0
  outer loop
    vertex 19.049999999999997 6.35 3.175
    vertex 20.99374502682511 2.366093682165785 3.175
    vertex 20.826338661904273 2.7123287329903927 3.175
  endloop
endfacet
facet normal 0.0 0.0 1.0
  outer loop
    vertex 19.049999999999997 6.35 3.175
    vertex 20.826338661904273 2.7123287329903927 3.175
    vertex 20.75424875577751 3.0900940660612846 3.175
  endloop
endfacet
facet normal 0.0 0.0 1.0
  outer loop
    vertex 21.563155073611725 1.8588390928863965 3.175
    vertex 25.4 0.0 3.175
    vertex 21.926354401783588 1.7323881164131614 3.175
  endloop
endfacet
facet normal 0.0 0.0 1.0
  outer loop
    vertex 21.926354401783588 1.7323881164131614 3.175
    vertex 25.4 0.0 3.175
    vertex 22.224999999999998 1.7104779023064896 3.175
  endloop
endfacet
facet normal 0.0 0.0 1.0
  outer loop
    vertex 22.224999999999998 1.7104779023064896 3.175
    vertex 25.4 0.0 3.175
    vertex 22.309905933938715 1.7042487557775117 3.175
  endloop
endfacet
facet normal 0.0 0.0 1.0
  outer loop
    vertex 22.309905933938715 1.7042487557775117 3.175
    vertex 25.4 0.0 3.175
    vertex 22.687671267009605 1.7763386619042736 3.175
  endloop
endfacet
facet normal 0.0 0.0 1.0
  outer loop
    vertex 22.687671267009605 1.7763386619042736 3.175
    vertex 25.4 0.0 3.175
    vertex 23.033906317834212 1.9437450268251115 3.175
  endloop
endfacet
facet normal 0.0 0.0 1.0
  outer loop
    vertex 23.033906317834212 1.9437450268251115 3.175
    vertex 25.4 0.0 3.175
    vertex 23.325015739879316 2.1950593834227696 3.175
  endloop
endfacet
facet normal 0.0 0.0 1.0
  outer loop
    vertex 23.325015739879316 2.1950593834227696 3.175
    vertex 25.4 0.0 3.175
    vertex 23.541160907113603 2.513155073611727 3.175
  endloop
endfacet
facet normal 0.0 0.0 1.0
  outer loop
    vertex 23.541160907113603 2.513155073611727 3.175
    vertex 25.4 0.0 3.175
    vertex 23.667611883586837 2.87635440178359 3.175
  endloop
endfacet
facet normal 0.0 0.0 1.0
  outer loop
    vertex 23.667611883586837 2.87635440178359 3.175
    vertex 25.4 0.0 3.175
    vertex 23.68952209769351 3.175 3.175
  endloop
endfacet
facet normal 0.0 0.0 1.0
  outer loop
    vertex 23.68952209769351 3.175 3.175
    vertex 25.4 0.0 3.175
    vertex 23.69575124422249 3.2599059339387164 3.175
  endloop
endfacet
facet normal 0.0 0.0 1.0
  outer loop
    vertex 19.049999999999997 6.35 3.175
    vertex 21.416093682165783 4.406254973174888 3.175
    vertex 25.4 6.35 3.175
  endloop
endfacet
facet normal 0.0 0.0 1.0
  outer loop
    vertex 21.416093682165783 4.406254973174888 3.175
    vertex 19.049999999999997 6.35 3.175
    vertex 21.124984260120684 4.154940616577231 3.175
  endloop
endfacet
facet normal 0.0 0.0 1.0
  outer loop
    vertex 21.124984260120684 4.154940616577231 3.175
    vertex 19.049999999999997 6.35 3.175
    vertex 20.908839092886396 3.8368449263882733 3.175
  endloop
endfacet
facet normal 0.0 0.0 1.0
  outer loop
    vertex 20.908839092886396 3.8368449263882733 3.175
    vertex 19.049999999999997 6.35 3.175
    vertex 20.78238811641316 3.4736455982164096 3.175
  endloop
endfacet
facet normal 0.0 0.0 1.0
  outer loop
    vertex 20.78238811641316 3.4736455982164096 3.175
    vertex 19.049999999999997 6.35 3.175
    vertex 20.75424875577751 3.0900940660612846 3.175
  endloop
endfacet
facet normal 0.0 0.0 1.0
  outer loop
    vertex 20.78238811641316 3.4736455982164096 3.175
    vertex 20.75424875577751 3.0900940660612846 3.175
    vertex 20.760477902306487 3.175 3.175
  endloop
endfacet
facet normal 0.0 0.0 1.0
  outer loop
    vertex 25.4 6.35 3.175
    vertex 21.416093682165783 4.406254973174888 3.175
    vertex 21.762328732990394 4.573661338095726 3.175
  endloop
endfacet
facet normal 0.0 0.0 1.0
  outer loop
    vertex 25.4 6.35 3.175
    vertex 21.762328732990394 4.573661338095726 3.175
    vertex 22.140094066061284 4.645751244222488 3.175
  endloop
endfacet
facet normal 0.0 0.0 1.0
  outer loop
    vertex 25.4 6.35 3.175
    vertex 22.140094066061284 4.645751244222488 3.175
    vertex 22.224999999999998 4.6395220976935105 3.175
  endloop
endfacet
facet normal 0.0 0.0 1.0
  outer loop
    vertex 25.4 6.35 3.175
    vertex 22.224999999999998 4.6395220976935105 3.175
    vertex 22.523645598216408 4.617611883586838 3.175
  endloop
endfacet
facet normal 0.0 0.0 1.0
  outer loop
    vertex 25.4 6.35 3.175
    vertex 22.523645598216408 4.617611883586838 3.175
    vertex 22.886844926388275 4.491160907113604 3.175
  endloop
endfacet
facet normal 0.0 0.0 1.0
  outer loop
    vertex 25.4 6.35 3.175
    vertex 22.886844926388275 4.491160907113604 3.175
    vertex 23.20494061657723 4.275015739879317 3.175
  endloop
endfacet
facet normal 0.0 0.0 1.0
  outer loop
    vertex 25.4 6.35 3.175
    vertex 23.20494061657723 4.275015739879317 3.175
    vertex 23.45625497317489 3.9839063178342147 3.175
  endloop
endfacet
facet normal 0.0 0.0 1.0
  outer loop
    vertex 25.4 6.35 3.175
    vertex 23.45625497317489 3.9839063178342147 3.175
    vertex 23.623661338095726 3.6376712670096074 3.175
  endloop
endfacet
facet normal 0.0 0.0 1.0
  outer loop
    vertex 25.4 6.35 3.175
    vertex 23.623661338095726 3.6376712670096074 3.175
    vertex 23.69575124422249 3.2599059339387164 3.175
  endloop
endfacet
facet normal 0.0 0.0 1.0
  outer loop
    vertex 25.4 6.35 3.175
    vertex 23.69575124422249 3.2599059339387164 3.175
    vertex 25.4 0.0 3.175
  endloop
endfacet
facet normal -0.6978784222613358 -0.7162162437015993 -0.0
  outer loop
    vertex 4.332040900880512 4.086907119003692 3.175
    vertex 4.056596758470531 4.355298858532979 0.0
    vertex 4.332040900880512 4.086907119003692 0.0
  endloop
endfacet
facet normal -0.6978784222613358 -0.7162162437015993 -0.0
  outer loop
    vertex 4.056596758470531 4.355298858532979 0.0
    vertex 4.332040900880512 4.086907119003692 3.175
    vertex 4.056596758470531 4.355298858532979 3.175
  endloop
endfacet
facet normal 0.8724359938464533 -0.4887283873903289 0.0
  outer loop
    vertex 1.9947011414670206 4.056596758470531 0.0
    vertex 1.8067448186106676 3.721073253878311 3.175
    vertex 1.8067448186106676 3.721073253878311 0.0
  endloop
endfacet
facet normal 0.8724359938464533 -0.4887283873903289 0.0
  outer loop
    vertex 1.8067448186106676 3.721073253878311 3.175
    vertex 1.9947011414670206 4.056596758470531 0.0
    vertex 1.9947011414670206 4.056596758470531 3.175
  endloop
endfacet
facet normal -0.4887283873903281 -0.8724359938464537 -0.0
  outer loop
    vertex 4.056596758470531 4.355298858532979 3.175
    vertex 3.72107325387831 4.543255181389332 0.0
    vertex 4.056596758470531 4.355298858532979 0.0
  endloop
endfacet
facet normal -0.4887283873903281 -0.8724359938464537 -0.0
  outer loop
    vertex 3.72107325387831 4.543255181389332 0.0
    vertex 4.056596758470531 4.355298858532979 3.175
    vertex 3.72107325387831 4.543255181389332 3.175
  endloop
endfacet
facet normal 0.9692006727793198 -0.24627232058051948 0.0
  outer loop
    vertex 1.8067448186106676 3.721073253878311 0.0
    vertex 1.7120328252173993 3.3483357594630037 3.175
    vertex 1.7120328252173993 3.3483357594630037 0.0
  endloop
endfacet
facet normal 0.9692006727793198 -0.24627232058051948 0.0
  outer loop
    vertex 1.7120328252173993 3.3483357594630037 3.175
    vertex 1.8067448186106676 3.721073253878311 0.0
    vertex 1.8067448186106676 3.721073253878311 3.175
  endloop
endfacet
facet normal 0.7162162437015998 -0.6978784222613353 0.0
  outer loop
    vertex 2.2630928809963082 4.3320409008805125 0.0
    vertex 1.9947011414670206 4.056596758470531 3.175
    vertex 1.9947011414670206 4.056596758470531 0.0
  endloop
endfacet
facet normal 0.7162162437015998 -0.6978784222613353 0.0
  outer loop
    vertex 1.9947011414670206 4.056596758470531 3.175
    vertex 2.2630928809963082 4.3320409008805125 0.0
    vertex 2.2630928809963082 4.3320409008805125 3.175
  endloop
endfacet
facet normal 0.012966797892599712 -0.9999159275421171 0.0
  outer loop
    vertex 3.3483357594630037 4.637967174782601 3.175
    vertex 3.175 4.635719376044118 0.0
    vertex 3.3483357594630037 4.637967174782601 0.0
  endloop
endfacet
facet normal 0.012966797892599712 -0.9999159275421171 0.0
  outer loop
    vertex 3.175 4.635719376044118 0.0
    vertex 3.3483357594630037 4.637967174782601 3.175
    vertex 3.175 4.635719376044118 3.175
  endloop
endfacet
facet normal 0.012966797892599526 -0.9999159275421172 0.0
  outer loop
    vertex 3.175 4.635719376044118 3.175
    vertex 2.9637857194911796 4.6329803728820025 0.0
    vertex 3.175 4.635719376044118 0.0
  endloop
endfacet
facet normal 0.012966797892599526 -0.9999159275421172 0.0
  outer loop
    vertex 2.9637857194911796 4.6329803728820025 0.0
    vertex 3.175 4.635719376044118 3.175
    vertex 2.9637857194911796 4.6329803728820025 3.175
  endloop
endfacet
facet normal 0.271322250517984 -0.9624885642821198 0.0
  outer loop
    vertex 2.9637857194911796 4.6329803728820025 3.175
    vertex 2.5936295836879304 4.5286346179959835 0.0
    vertex 2.9637857194911796 4.6329803728820025 0.0
  endloop
endfacet
facet normal 0.271322250517984 -0.9624885642821198 0.0
  outer loop
    vertex 2.5936295836879304 4.5286346179959835 0.0
    vertex 2.9637857194911796 4.6329803728820025 3.175
    vertex 2.5936295836879304 4.5286346179959835 3.175
  endloop
endfacet
facet normal 0.5111875401517888 -0.8594691959538535 0.0
  outer loop
    vertex 2.5936295836879304 4.5286346179959835 3.175
    vertex 2.2630928809963082 4.3320409008805125 0.0
    vertex 2.5936295836879304 4.5286346179959835 0.0
  endloop
endfacet
facet normal 0.5111875401517888 -0.8594691959538535 0.0
  outer loop
    vertex 2.2630928809963082 4.3320409008805125 0.0
    vertex 2.5936295836879304 4.5286346179959835 3.175
    vertex 2.2630928809963082 4.3320409008805125 3.175
  endloop
endfacet
facet normal -0.24627232058051993 -0.9692006727793195 -0.0
  outer loop
    vertex 3.72107325387831 4.543255181389332 3.175
    vertex 3.3483357594630037 4.637967174782601 0.0
    vertex 3.72107325387831 4.543255181389332 0.0
  endloop
endfacet
facet normal -0.24627232058051993 -0.9692006727793195 -0.0
  outer loop
    vertex 3.3483357594630037 4.637967174782601 0.0
    vertex 3.72107325387831 4.543255181389332 3.175
    vertex 3.3483357594630037 4.637967174782601 3.175
  endloop
endfacet
facet normal -0.9973195843724078 0.07316861777598385 0.0
  outer loop
    vertex 23.68952209769351 3.175 3.175
    vertex 23.667611883586837 2.87635440178359 0.0
    vertex 23.667611883586837 2.87635440178359 3.175
  endloop
endfacet
facet normal -0.9973195843724078 0.07316861777598385 0.0
  outer loop
    vertex 23.667611883586837 2.87635440178359 0.0
    vertex 23.68952209769351 3.175 3.175
    vertex 23.68952209769351 3.175 0.0
  endloop
endfacet
facet normal -0.9822741753934392 -0.1874498449056148 -0.0
  outer loop
    vertex 23.623661338095726 3.6376712670096074 3.175
    vertex 23.69575124422249 3.2599059339387164 0.0
    vertex 23.69575124422249 3.2599059339387164 3.175
  endloop
endfacet
facet normal -0.9822741753934392 -0.1874498449056148 -0.0
  outer loop
    vertex 23.69575124422249 3.2599059339387164 0.0
    vertex 23.623661338095726 3.6376712670096074 3.175
    vertex 23.623661338095726 3.6376712670096074 0.0
  endloop
endfacet
facet normal -0.9002884046462362 -0.4352939104324053 -0.0
  outer loop
    vertex 23.45625497317489 3.9839063178342147 3.175
    vertex 23.623661338095726 3.6376712670096074 0.0
    vertex 23.623661338095726 3.6376712670096074 3.175
  endloop
endfacet
facet normal -0.9002884046462362 -0.4352939104324053 -0.0
  outer loop
    vertex 23.623661338095726 3.6376712670096074 0.0
    vertex 23.45625497317489 3.9839063178342147 3.175
    vertex 23.45625497317489 3.9839063178342147 0.0
  endloop
endfacet
facet normal -0.9973195843724073 0.07316861777598871 0.0
  outer loop
    vertex 23.69575124422249 3.2599059339387164 3.175
    vertex 23.68952209769351 3.175 0.0
    vertex 23.68952209769351 3.175 3.175
  endloop
endfacet
facet normal -0.9973195843724073 0.07316861777598871 0.0
  outer loop
    vertex 23.68952209769351 3.175 0.0
    vertex 23.69575124422249 3.2599059339387164 3.175
    vertex 23.69575124422249 3.2599059339387164 0.0
  endloop
endfacet
facet normal 0.18744984490561303 -0.9822741753934395 0.0
  outer loop
    vertex 22.140094066061284 4.645751244222488 3.175
    vertex 21.762328732990394 4.573661338095726 0.0
    vertex 22.140094066061284 4.645751244222488 0.0
  endloop
endfacet
facet normal 0.18744984490561303 -0.9822741753934395 0.0
  outer loop
    vertex 21.762328732990394 4.573661338095726 0.0
    vertex 22.140094066061284 4.645751244222488 3.175
    vertex 21.762328732990394 4.573661338095726 3.175
  endloop
endfacet
facet normal 0.9973195843724078 -0.07316861777598385 0.0
  outer loop
    vertex 20.78238811641316 3.4736455982164096 0.0
    vertex 20.760477902306487 3.175 3.175
    vertex 20.760477902306487 3.175 0.0
  endloop
endfacet
facet normal 0.9973195843724078 -0.07316861777598385 0.0
  outer loop
    vertex 20.760477902306487 3.175 3.175
    vertex 20.78238811641316 3.4736455982164096 0.0
    vertex 20.78238811641316 3.4736455982164096 3.175
  endloop
endfacet
facet normal -0.6534734153204312 0.7569494669193256 0.0
  outer loop
    vertex 23.033906317834212 1.9437450268251115 3.175
    vertex 23.325015739879316 2.1950593834227696 0.0
    vertex 23.033906317834212 1.9437450268251115 0.0
  endloop
endfacet
facet normal -0.6534734153204312 0.7569494669193256 0.0
  outer loop
    vertex 23.325015739879316 2.1950593834227696 0.0
    vertex 23.033906317834212 1.9437450268251115 3.175
    vertex 23.325015739879316 2.1950593834227696 3.175
  endloop
endfacet
facet normal -0.5620256739400028 -0.8271197868702489 -0.0
  outer loop
    vertex 23.20494061657723 4.275015739879317 3.175
    vertex 22.886844926388275 4.491160907113604 0.0
    vertex 23.20494061657723 4.275015739879317 0.0
  endloop
endfacet
facet normal -0.5620256739400028 -0.8271197868702489 -0.0
  outer loop
    vertex 22.886844926388275 4.491160907113604 0.0
    vertex 23.20494061657723 4.275015739879317 3.175
    vertex 22.886844926388275 4.491160907113604 3.175
  endloop
endfacet
facet normal -0.07316861777598602 -0.9973195843724075 -0.0
  outer loop
    vertex 22.523645598216408 4.617611883586838 3.175
    vertex 22.224999999999998 4.6395220976935105 0.0
    vertex 22.523645598216408 4.617611883586838 0.0
  endloop
endfacet
facet normal -0.07316861777598602 -0.9973195843724075 -0.0
  outer loop
    vertex 22.224999999999998 4.6395220976935105 0.0
    vertex 22.523645598216408 4.617611883586838 3.175
    vertex 22.224999999999998 4.6395220976935105 3.175
  endloop
endfacet
facet normal -0.3288007600730047 -0.9443993118249369 -0.0
  outer loop
    vertex 22.886844926388275 4.491160907113604 3.175
    vertex 22.523645598216408 4.617611883586838 0.0
    vertex 22.886844926388275 4.491160907113604 0.0
  endloop
endfacet
facet normal -0.3288007600730047 -0.9443993118249369 -0.0
  outer loop
    vertex 22.523645598216408 4.617611883586838 0.0
    vertex 22.886844926388275 4.491160907113604 3.175
    vertex 22.523645598216408 4.617611883586838 3.175
  endloop
endfacet
facet normal 0.3288007600730072 0.9443993118249361 0.0
  outer loop
    vertex 21.563155073611725 1.8588390928863965 3.175
    vertex 21.926354401783588 1.7323881164131614 0.0
    vertex 21.563155073611725 1.8588390928863965 0.0
  endloop
endfacet
facet normal 0.3288007600730072 0.9443993118249361 0.0
  outer loop
    vertex 21.926354401783588 1.7323881164131614 0.0
    vertex 21.563155073611725 1.8588390928863965 3.175
    vertex 21.926354401783588 1.7323881164131614 3.175
  endloop
endfacet
facet normal -0.43529391043240606 0.9002884046462358 0.0
  outer loop
    vertex 22.687671267009605 1.7763386619042736 3.175
    vertex 23.033906317834212 1.9437450268251115 0.0
    vertex 22.687671267009605 1.7763386619042736 0.0
  endloop
endfacet
facet normal -0.43529391043240606 0.9002884046462358 0.0
  outer loop
    vertex 23.033906317834212 1.9437450268251115 0.0
    vertex 22.687671267009605 1.7763386619042736 3.175
    vertex 23.033906317834212 1.9437450268251115 3.175
  endloop
endfacet
facet normal -0.8271197868702522 0.5620256739399977 0.0
  outer loop
    vertex 23.541160907113603 2.513155073611727 3.175
    vertex 23.325015739879316 2.1950593834227696 0.0
    vertex 23.325015739879316 2.1950593834227696 3.175
  endloop
endfacet
facet normal -0.8271197868702522 0.5620256739399977 0.0
  outer loop
    vertex 23.325015739879316 2.1950593834227696 0.0
    vertex 23.541160907113603 2.513155073611727 3.175
    vertex 23.541160907113603 2.513155073611727 0.0
  endloop
endfacet
facet normal 0.8271197868702488 -0.5620256739400028 0.0
  outer loop
    vertex 21.124984260120684 4.154940616577231 0.0
    vertex 20.908839092886396 3.8368449263882733 3.175
    vertex 20.908839092886396 3.8368449263882733 0.0
  endloop
endfacet
facet normal 0.8271197868702488 -0.5620256739400028 0.0
  outer loop
    vertex 20.908839092886396 3.8368449263882733 3.175
    vertex 21.124984260120684 4.154940616577231 0.0
    vertex 21.124984260120684 4.154940616577231 3.175
  endloop
endfacet
facet normal -0.07316861777598169 -0.9973195843724079 -0.0
  outer loop
    vertex 22.224999999999998 4.6395220976935105 3.175
    vertex 22.140094066061284 4.645751244222488 0.0
    vertex 22.224999999999998 4.6395220976935105 0.0
  endloop
endfacet
facet normal -0.07316861777598169 -0.9973195843724079 -0.0
  outer loop
    vertex 22.140094066061284 4.645751244222488 0.0
    vertex 22.224999999999998 4.6395220976935105 3.175
    vertex 22.140094066061284 4.645751244222488 3.175
  endloop
endfacet
facet normal 0.07316861777598581 0.9973195843724076 0.0
  outer loop
    vertex 22.224999999999998 1.7104779023064896 3.175
    vertex 22.309905933938715 1.7042487557775117 0.0
    vertex 22.224999999999998 1.7104779023064896 0.0
  endloop
endfacet
facet normal 0.07316861777598581 0.9973195843724076 0.0
  outer loop
    vertex 22.309905933938715 1.7042487557775117 0.0
    vertex 22.224999999999998 1.7104779023064896 3.175
    vertex 22.309905933938715 1.7042487557775117 3.175
  endloop
endfacet
facet normal 0.07316861777598369 0.9973195843724078 0.0
  outer loop
    vertex 21.926354401783588 1.7323881164131614 3.175
    vertex 22.224999999999998 1.7104779023064896 0.0
    vertex 21.926354401783588 1.7323881164131614 0.0
  endloop
endfacet
facet normal 0.07316861777598369 0.9973195843724078 0.0
  outer loop
    vertex 22.224999999999998 1.7104779023064896 0.0
    vertex 21.926354401783588 1.7323881164131614 3.175
    vertex 22.224999999999998 1.7104779023064896 3.175
  endloop
endfacet
facet normal -0.18744984490561217 0.9822741753934398 0.0
  outer loop
    vertex 22.309905933938715 1.7042487557775117 3.175
    vertex 22.687671267009605 1.7763386619042736 0.0
    vertex 22.309905933938715 1.7042487557775117 0.0
  endloop
endfacet
facet normal -0.18744984490561217 0.9822741753934398 0.0
  outer loop
    vertex 22.687671267009605 1.7763386619042736 0.0
    vertex 22.309905933938715 1.7042487557775117 3.175
    vertex 22.687671267009605 1.7763386619042736 3.175
  endloop
endfacet
facet normal 0.7569494669193252 0.6534734153204319 0.0
  outer loop
    vertex 20.99374502682511 2.366093682165785 0.0
    vertex 21.245059383422767 2.074984260120684 3.175
    vertex 21.245059383422767 2.074984260120684 0.0
  endloop
endfacet
facet normal 0.7569494669193252 0.6534734153204319 0.0
  outer loop
    vertex 21.245059383422767 2.074984260120684 3.175
    vertex 20.99374502682511 2.366093682165785 0.0
    vertex 20.99374502682511 2.366093682165785 3.175
  endloop
endfacet
facet normal -0.7569494669193223 -0.6534734153204352 -0.0
  outer loop
    vertex 23.20494061657723 4.275015739879317 3.175
    vertex 23.45625497317489 3.9839063178342147 0.0
    vertex 23.45625497317489 3.9839063178342147 3.175
  endloop
endfacet
facet normal -0.7569494669193223 -0.6534734153204352 -0.0
  outer loop
    vertex 23.45625497317489 3.9839063178342147 0.0
    vertex 23.20494061657723 4.275015739879317 3.175
    vertex 23.20494061657723 4.275015739879317 0.0
  endloop
endfacet
facet normal 0.9822741753934393 0.18744984490561448 0.0
  outer loop
    vertex 20.75424875577751 3.0900940660612846 0.0
    vertex 20.826338661904273 2.7123287329903927 3.175
    vertex 20.826338661904273 2.7123287329903927 0.0
  endloop
endfacet
facet normal 0.9822741753934393 0.18744984490561448 0.0
  outer loop
    vertex 20.826338661904273 2.7123287329903927 3.175
    vertex 20.75424875577751 3.0900940660612846 0.0
    vertex 20.75424875577751 3.0900940660612846 3.175
  endloop
endfacet
facet normal 0.6534734153204338 -0.7569494669193233 0.0
  outer loop
    vertex 21.416093682165783 4.406254973174888 3.175
    vertex 21.124984260120684 4.154940616577231 0.0
    vertex 21.416093682165783 4.406254973174888 0.0
  endloop
endfacet
facet normal 0.6534734153204338 -0.7569494669193233 0.0
  outer loop
    vertex 21.124984260120684 4.154940616577231 0.0
    vertex 21.416093682165783 4.406254973174888 3.175
    vertex 21.124984260120684 4.154940616577231 3.175
  endloop
endfacet
facet normal 0.9002884046462364 0.4352939104324049 0.0
  outer loop
    vertex 20.826338661904273 2.7123287329903927 0.0
    vertex 20.99374502682511 2.366093682165785 3.175
    vertex 20.99374502682511 2.366093682165785 0.0
  endloop
endfacet
facet normal 0.9002884046462364 0.4352939104324049 0.0
  outer loop
    vertex 20.99374502682511 2.366093682165785 3.175
    vertex 20.826338661904273 2.7123287329903927 0.0
    vertex 20.826338661904273 2.7123287329903927 3.175
  endloop
endfacet
facet normal -0.9443993118249361 0.3288007600730069 0.0
  outer loop
    vertex 23.667611883586837 2.87635440178359 3.175
    vertex 23.541160907113603 2.513155073611727 0.0
    vertex 23.541160907113603 2.513155073611727 3.175
  endloop
endfacet
facet normal -0.9443993118249361 0.3288007600730069 0.0
  outer loop
    vertex 23.541160907113603 2.513155073611727 0.0
    vertex 23.667611883586837 2.87635440178359 3.175
    vertex 23.667611883586837 2.87635440178359 0.0
  endloop
endfacet
facet normal 0.5620256739399994 0.827119786870251 0.0
  outer loop
    vertex 21.245059383422767 2.074984260120684 3.175
    vertex 21.563155073611725 1.8588390928863965 0.0
    vertex 21.245059383422767 2.074984260120684 0.0
  endloop
endfacet
facet normal 0.5620256739399994 0.827119786870251 0.0
  outer loop
    vertex 21.563155073611725 1.8588390928863965 0.0
    vertex 21.245059383422767 2.074984260120684 3.175
    vertex 21.563155073611725 1.8588390928863965 3.175
  endloop
endfacet
facet normal 0.43529391043240534 -0.9002884046462362 0.0
  outer loop
    vertex 21.762328732990394 4.573661338095726 3.175
    vertex 21.416093682165783 4.406254973174888 0.0
    vertex 21.762328732990394 4.573661338095726 0.0
  endloop
endfacet
facet normal 0.43529391043240534 -0.9002884046462362 0.0
  outer loop
    vertex 21.416093682165783 4.406254973174888 0.0
    vertex 21.762328732990394 4.573661338095726 3.175
    vertex 21.416093682165783 4.406254973174888 3.175
  endloop
endfacet
facet normal 0.9443993118249364 -0.3288007600730064 0.0
  outer loop
    vertex 20.908839092886396 3.8368449263882733 0.0
    vertex 20.78238811641316 3.4736455982164096 3.175
    vertex 20.78238811641316 3.4736455982164096 0.0
  endloop
endfacet
facet normal 0.9443993118249364 -0.3288007600730064 0.0
  outer loop
    vertex 20.78238811641316 3.4736455982164096 3.175
    vertex 20.908839092886396 3.8368449263882733 0.0
    vertex 20.908839092886396 3.8368449263882733 3.175
  endloop
endfacet
facet normal 0.9973195843724072 -0.07316861777598961 0.0
  outer loop
    vertex 20.760477902306487 3.175 0.0
    vertex 20.75424875577751 3.0900940660612846 3.175
    vertex 20.75424875577751 3.0900940660612846 0.0
  endloop
endfacet
facet normal 0.9973195843724072 -0.07316861777598961 0.0
  outer loop
    vertex 20.75424875577751 3.0900940660612846 3.175
    vertex 20.760477902306487 3.175 0.0
    vertex 20.760477902306487 3.175 3.175
  endloop
endfacet
facet normal 0.6978784222613353 0.7162162437015998 0.0
  outer loop
    vertex 2.0179590991194876 2.2630928809963082 3.175
    vertex 2.293403241529469 1.9947011414670208 0.0
    vertex 2.0179590991194876 2.2630928809963082 0.0
  endloop
endfacet
facet normal 0.6978784222613353 0.7162162437015998 0.0
  outer loop
    vertex 2.293403241529469 1.9947011414670208 0.0
    vertex 2.0179590991194876 2.2630928809963082 3.175
    vertex 2.293403241529469 1.9947011414670208 3.175
  endloop
endfacet
facet normal 0.9999159275421173 0.012966797892597682 0.0
  outer loop
    vertex 1.7120328252173993 3.3483357594630037 0.0
    vertex 1.7142806239558808 3.175 3.175
    vertex 1.7142806239558808 3.175 0.0
  endloop
endfacet
facet normal 0.9999159275421173 0.012966797892597682 0.0
  outer loop
    vertex 1.7142806239558808 3.175 3.175
    vertex 1.7120328252173993 3.3483357594630037 0.0
    vertex 1.7120328252173993 3.3483357594630037 3.175
  endloop
endfacet
facet normal -0.012966797892599568 0.9999159275421171 0.0
  outer loop
    vertex 3.175 1.7142806239558808 3.175
    vertex 3.386214280508819 1.7170196271179974 0.0
    vertex 3.175 1.7142806239558808 0.0
  endloop
endfacet
facet normal -0.012966797892599568 0.9999159275421171 0.0
  outer loop
    vertex 3.386214280508819 1.7170196271179974 0.0
    vertex 3.175 1.7142806239558808 3.175
    vertex 3.386214280508819 1.7170196271179974 3.175
  endloop
endfacet
facet normal 0.9624885642821197 0.2713222505179846 0.0
  outer loop
    vertex 1.7170196271179974 2.96378571949118 0.0
    vertex 1.8213653820040165 2.5936295836879304 3.175
    vertex 1.8213653820040165 2.5936295836879304 0.0
  endloop
endfacet
facet normal 0.9624885642821197 0.2713222505179846 0.0
  outer loop
    vertex 1.8213653820040165 2.5936295836879304 3.175
    vertex 1.7170196271179974 2.96378571949118 0.0
    vertex 1.7170196271179974 2.96378571949118 3.175
  endloop
endfacet
facet normal -0.5111875401517886 0.8594691959538535 0.0
  outer loop
    vertex 3.7563704163120692 1.8213653820040165 3.175
    vertex 4.086907119003692 2.017959099119488 0.0
    vertex 3.7563704163120692 1.8213653820040165 0.0
  endloop
endfacet
facet normal -0.5111875401517886 0.8594691959538535 0.0
  outer loop
    vertex 4.086907119003692 2.017959099119488 0.0
    vertex 3.7563704163120692 1.8213653820040165 3.175
    vertex 4.086907119003692 2.017959099119488 3.175
  endloop
endfacet
facet normal -0.9999159275421172 -0.012966797892599526 -0.0
  outer loop
    vertex 4.6329803728820025 3.38621428050882 3.175
    vertex 4.635719376044118 3.175 0.0
    vertex 4.635719376044118 3.175 3.175
  endloop
endfacet
facet normal -0.9999159275421172 -0.012966797892599526 -0.0
  outer loop
    vertex 4.635719376044118 3.175 0.0
    vertex 4.6329803728820025 3.38621428050882 3.175
    vertex 4.6329803728820025 3.38621428050882 0.0
  endloop
endfacet
facet normal 0.24627232058052057 0.9692006727793194 0.0
  outer loop
    vertex 2.6289267461216888 1.8067448186106676 3.175
    vertex 3.0016642405369955 1.712032825217399 0.0
    vertex 2.6289267461216888 1.8067448186106676 0.0
  endloop
endfacet
facet normal 0.24627232058052057 0.9692006727793194 0.0
  outer loop
    vertex 3.0016642405369955 1.712032825217399 0.0
    vertex 2.6289267461216888 1.8067448186106676 3.175
    vertex 3.0016642405369955 1.712032825217399 3.175
  endloop
endfacet
facet normal -0.9692006727793198 0.2462723205805193 0.0
  outer loop
    vertex 4.637967174782601 3.0016642405369964 3.175
    vertex 4.543255181389332 2.628926746121689 0.0
    vertex 4.543255181389332 2.628926746121689 3.175
  endloop
endfacet
facet normal -0.9692006727793198 0.2462723205805193 0.0
  outer loop
    vertex 4.543255181389332 2.628926746121689 0.0
    vertex 4.637967174782601 3.0016642405369964 3.175
    vertex 4.637967174782601 3.0016642405369964 0.0
  endloop
endfacet
facet normal 0.9999159275421171 0.012966797892599545 0.0
  outer loop
    vertex 1.7142806239558808 3.175 0.0
    vertex 1.7170196271179974 2.96378571949118 3.175
    vertex 1.7170196271179974 2.96378571949118 0.0
  endloop
endfacet
facet normal 0.9999159275421171 0.012966797892599545 0.0
  outer loop
    vertex 1.7170196271179974 2.96378571949118 3.175
    vertex 1.7142806239558808 3.175 0.0
    vertex 1.7142806239558808 3.175 3.175
  endloop
endfacet
facet normal -0.7162162437015998 0.6978784222613353 0.0
  outer loop
    vertex 4.355298858532979 2.2934032415294694 3.175
    vertex 4.086907119003692 2.017959099119488 0.0
    vertex 4.086907119003692 2.017959099119488 3.175
  endloop
endfacet
facet normal -0.7162162437015998 0.6978784222613353 0.0
  outer loop
    vertex 4.086907119003692 2.017959099119488 0.0
    vertex 4.355298858532979 2.2934032415294694 3.175
    vertex 4.355298858532979 2.2934032415294694 0.0
  endloop
endfacet
facet normal -0.8724359938464533 0.4887283873903289 0.0
  outer loop
    vertex 4.543255181389332 2.628926746121689 3.175
    vertex 4.355298858532979 2.2934032415294694 0.0
    vertex 4.355298858532979 2.2934032415294694 3.175
  endloop
endfacet
facet normal -0.8724359938464533 0.4887283873903289 0.0
  outer loop
    vertex 4.355298858532979 2.2934032415294694 0.0
    vertex 4.543255181389332 2.628926746121689 3.175
    vertex 4.543255181389332 2.628926746121689 0.0
  endloop
endfacet
facet normal -0.9624885642821194 -0.2713222505179857 -0.0
  outer loop
    vertex 4.528634617995983 3.7563704163120692 3.175
    vertex 4.6329803728820025 3.38621428050882 0.0
    vertex 4.6329803728820025 3.38621428050882 3.175
  endloop
endfacet
facet normal -0.9624885642821194 -0.2713222505179857 -0.0
  outer loop
    vertex 4.6329803728820025 3.38621428050882 0.0
    vertex 4.528634617995983 3.7563704163120692 3.175
    vertex 4.528634617995983 3.7563704163120692 0.0
  endloop
endfacet
facet normal -0.8594691959538541 -0.511187540151788 -0.0
  outer loop
    vertex 4.332040900880512 4.086907119003692 3.175
    vertex 4.528634617995983 3.7563704163120692 0.0
    vertex 4.528634617995983 3.7563704163120692 3.175
  endloop
endfacet
facet normal -0.8594691959538541 -0.511187540151788 -0.0
  outer loop
    vertex 4.528634617995983 3.7563704163120692 0.0
    vertex 4.332040900880512 4.086907119003692 3.175
    vertex 4.332040900880512 4.086907119003692 0.0
  endloop
endfacet
facet normal 0.4887283873903292 0.8724359938464531 0.0
  outer loop
    vertex 2.293403241529469 1.9947011414670208 3.175
    vertex 2.6289267461216888 1.8067448186106676 0.0
    vertex 2.293403241529469 1.9947011414670208 0.0
  endloop
endfacet
facet normal 0.4887283873903292 0.8724359938464531 0.0
  outer loop
    vertex 2.6289267461216888 1.8067448186106676 0.0
    vertex 2.293403241529469 1.9947011414670208 3.175
    vertex 2.6289267461216888 1.8067448186106676 3.175
  endloop
endfacet
facet normal -0.27132225051798436 0.9624885642821197 0.0
  outer loop
    vertex 3.386214280508819 1.7170196271179974 3.175
    vertex 3.7563704163120692 1.8213653820040165 0.0
    vertex 3.386214280508819 1.7170196271179974 0.0
  endloop
endfacet
facet normal -0.27132225051798436 0.9624885642821197 0.0
  outer loop
    vertex 3.7563704163120692 1.8213653820040165 0.0
    vertex 3.386214280508819 1.7170196271179974 3.175
    vertex 3.7563704163120692 1.8213653820040165 3.175
  endloop
endfacet
facet normal 0.8594691959538538 0.5111875401517881 0.0
  outer loop
    vertex 1.8213653820040165 2.5936295836879304 0.0
    vertex 2.0179590991194876 2.2630928809963082 3.175
    vertex 2.0179590991194876 2.2630928809963082 0.0
  endloop
endfacet
facet normal 0.8594691959538538 0.5111875401517881 0.0
  outer loop
    vertex 2.0179590991194876 2.2630928809963082 3.175
    vertex 1.8213653820040165 2.5936295836879304 0.0
    vertex 1.8213653820040165 2.5936295836879304 3.175
  endloop
endfacet
facet normal -0.012966797892599687 0.9999159275421172 0.0
  outer loop
    vertex 3.0016642405369955 1.712032825217399 3.175
    vertex 3.175 1.7142806239558808 0.0
    vertex 3.0016642405369955 1.712032825217399 0.0
  endloop
endfacet
facet normal -0.012966797892599687 0.9999159275421172 0.0
  outer loop
    vertex 3.175 1.7142806239558808 0.0
    vertex 3.0016642405369955 1.712032825217399 3.175
    vertex 3.175 1.7142806239558808 3.175
  endloop
endfacet
facet normal -0.9999159275421171 -0.012966797892599765 -0.0
  outer loop
    vertex 4.635719376044118 3.175 3.175
    vertex 4.637967174782601 3.0016642405369964 0.0
    vertex 4.637967174782601 3.0016642405369964 3.175
  endloop
endfacet
facet normal -0.9999159275421171 -0.012966797892599765 -0.0
  outer loop
    vertex 4.637967174782601 3.0016642405369964 0.0
    vertex 4.635719376044118 3.175 3.175
    vertex 4.635719376044118 3.175 0.0
  endloop
endfacet
endsolid Untitled-5eb9e67a
